<?xml version="1.0" encoding="utf-8"?>
<!-- Generator: Adobe Illustrator 16.0.0, SVG Export Plug-In . SVG Version: 6.00 Build 0)  -->
<!DOCTYPE svg PUBLIC "-//W3C//DTD SVG 1.1//EN" "http://www.w3.org/Graphics/SVG/1.1/DTD/svg11.dtd">
<svg version="1.1" id="Capa_1" xmlns="http://www.w3.org/2000/svg" xmlns:xlink="http://www.w3.org/1999/xlink" x="0px" y="0px"
	 width="118px" height="103px" viewBox="0 0 118 103" enable-background="new 0 0 118 103" xml:space="preserve">
<g>
	<g>
		
			<polygon fill-rule="evenodd" clip-rule="evenodd" fill="none" stroke="#FFFFFF" stroke-width="4" stroke-linecap="round" stroke-linejoin="round" stroke-miterlimit="10" points="
			16.599,76.053 104.755,76.053 60.675,6.515 		"/>
		<g>
			<path fill="#FFFFFF" d="M63.177,57.514c0,2.037-1.656,3.726-3.727,3.726s-3.725-1.688-3.725-3.726
				c0-2.07,1.654-3.727,3.725-3.727S63.177,55.443,63.177,57.514z M56.458,36.594h6.018v15.857h-6.018V36.594z"/>
		</g>
		<polyline fill="none" stroke="#FFFFFF" stroke-linecap="round" stroke-linejoin="round" stroke-miterlimit="10" points="
			33.497,68.87 90.812,68.87 70.071,33.855 		"/>
		<polyline fill="none" stroke="#FFFFFF" stroke-linecap="round" stroke-linejoin="round" stroke-miterlimit="10" points="
			66.28,28.188 60.612,17.798 28.366,68.87 		"/>
	</g>
	<g>
		<g>
			<path fill="#FFFFFF" d="M16.875,95.168h-0.637v-8.441h-2.935v-0.594h6.507v0.594h-2.936V95.168z"/>
			<path fill="#FFFFFF" d="M23.71,95.291c-0.977,0-1.738-0.301-2.284-0.902s-0.819-1.443-0.819-2.527
				c0-1.07,0.264-1.929,0.791-2.574c0.527-0.645,1.238-0.967,2.132-0.967c0.791,0,1.415,0.276,1.872,0.828
				c0.458,0.553,0.686,1.303,0.686,2.25v0.494H21.25c0.008,0.923,0.224,1.627,0.646,2.113s1.027,0.729,1.814,0.729
				c0.383,0,0.72-0.026,1.01-0.08s0.658-0.169,1.103-0.347v0.557c-0.379,0.164-0.729,0.277-1.05,0.337
				C24.452,95.262,24.098,95.291,23.71,95.291z M23.531,88.864c-0.647,0-1.166,0.214-1.558,0.64
				c-0.392,0.427-0.62,1.041-0.686,1.845h4.153c0-0.778-0.169-1.388-0.506-1.826C24.596,89.084,24.128,88.864,23.531,88.864z"/>
			<path fill="#FFFFFF" d="M32.628,95.168v-4.357c0-0.675-0.142-1.166-0.426-1.473c-0.284-0.308-0.725-0.461-1.323-0.461
				c-0.803,0-1.392,0.203-1.764,0.608c-0.373,0.406-0.56,1.064-0.56,1.975v3.708h-0.612V88.45h0.52l0.117,0.921h0.037
				c0.437-0.7,1.213-1.051,2.33-1.051c1.524,0,2.287,0.818,2.287,2.453v4.395H32.628z"/>
			<path fill="#FFFFFF" d="M40.649,88.45v0.427l-1.391,0.086c0.371,0.462,0.556,0.969,0.556,1.521c0,0.647-0.215,1.171-0.646,1.573
				c-0.431,0.401-1.008,0.603-1.733,0.603c-0.305,0-0.519-0.013-0.643-0.037c-0.243,0.128-0.428,0.278-0.556,0.45
				c-0.127,0.174-0.191,0.357-0.191,0.551c0,0.215,0.082,0.371,0.244,0.47s0.436,0.148,0.819,0.148h1.174
				c0.729,0,1.287,0.147,1.675,0.441c0.387,0.295,0.581,0.73,0.581,1.308c0,0.708-0.287,1.256-0.862,1.641s-1.394,0.578-2.457,0.578
				c-0.845,0-1.499-0.163-1.962-0.488c-0.463-0.326-0.695-0.779-0.695-1.359c0-0.462,0.143-0.846,0.429-1.15
				c0.287-0.305,0.675-0.513,1.165-0.624c-0.202-0.087-0.364-0.209-0.485-0.368c-0.122-0.158-0.182-0.34-0.182-0.547
				c0-0.448,0.286-0.844,0.859-1.186c-0.391-0.161-0.696-0.414-0.915-0.758s-0.328-0.738-0.328-1.184
				c0-0.671,0.213-1.209,0.64-1.615c0.427-0.406,1.002-0.609,1.728-0.609c0.44,0,0.783,0.043,1.026,0.13H40.649z M35.211,96.305
				c0,0.924,0.686,1.385,2.058,1.385c1.763,0,2.645-0.563,2.645-1.688c0-0.403-0.138-0.695-0.414-0.877s-0.723-0.271-1.341-0.271
				h-1.1C35.827,94.854,35.211,95.337,35.211,96.305z M35.724,90.545c0,0.52,0.158,0.922,0.473,1.209
				c0.315,0.286,0.736,0.43,1.264,0.43c0.561,0,0.99-0.143,1.289-0.427s0.448-0.696,0.448-1.236c0-0.572-0.154-1.002-0.46-1.288
				c-0.307-0.287-0.736-0.43-1.289-0.43c-0.536,0-0.957,0.153-1.264,0.461C35.877,89.57,35.724,89.998,35.724,90.545z"/>
			<path fill="#FFFFFF" d="M46.106,95.168l-0.155-1.063h-0.049c-0.338,0.432-0.685,0.738-1.042,0.918
				c-0.356,0.179-0.777,0.268-1.264,0.268c-0.659,0-1.172-0.168-1.539-0.506s-0.55-0.806-0.55-1.403
				c0-0.655,0.273-1.163,0.819-1.526c0.546-0.362,1.336-0.555,2.37-0.574l1.279-0.037v-0.445c0-0.639-0.13-1.121-0.389-1.446
				c-0.26-0.325-0.678-0.488-1.255-0.488c-0.622,0-1.267,0.173-1.934,0.52l-0.229-0.532c0.737-0.346,1.466-0.519,2.188-0.519
				c0.737,0,1.289,0.191,1.653,0.575c0.364,0.383,0.547,0.98,0.547,1.791v4.469H46.106z M43.634,94.735
				c0.717,0,1.282-0.205,1.696-0.614c0.414-0.41,0.621-0.98,0.621-1.709V91.75l-1.174,0.05c-0.944,0.046-1.616,0.192-2.018,0.442
				c-0.401,0.249-0.603,0.637-0.603,1.164c0,0.421,0.129,0.747,0.386,0.98C42.801,94.619,43.165,94.735,43.634,94.735z"/>
			<path fill="#FFFFFF" d="M54.733,95.291c-0.977,0-1.738-0.301-2.284-0.902s-0.819-1.443-0.819-2.527
				c0-1.07,0.264-1.929,0.791-2.574c0.527-0.645,1.238-0.967,2.132-0.967c0.791,0,1.415,0.276,1.872,0.828
				c0.458,0.553,0.686,1.303,0.686,2.25v0.494h-4.839c0.008,0.923,0.224,1.627,0.646,2.113s1.027,0.729,1.814,0.729
				c0.383,0,0.72-0.026,1.01-0.08s0.658-0.169,1.103-0.347v0.557c-0.379,0.164-0.729,0.277-1.05,0.337
				C55.475,95.262,55.121,95.291,54.733,95.291z M54.554,88.864c-0.647,0-1.166,0.214-1.558,0.64
				c-0.392,0.427-0.62,1.041-0.686,1.845h4.153c0-0.778-0.169-1.388-0.506-1.826C55.619,89.084,55.151,88.864,54.554,88.864z"/>
			<path fill="#FFFFFF" d="M63.65,95.168v-4.357c0-0.675-0.142-1.166-0.426-1.473c-0.284-0.308-0.725-0.461-1.322-0.461
				c-0.804,0-1.393,0.203-1.765,0.608c-0.373,0.406-0.56,1.064-0.56,1.975v3.708h-0.612V88.45h0.52l0.118,0.921h0.037
				c0.436-0.7,1.213-1.051,2.329-1.051c1.524,0,2.286,0.818,2.286,2.453v4.395H63.65z"/>
			<path fill="#FFFFFF" d="M72.401,95.291c-0.96,0-1.712-0.303-2.255-0.908c-0.545-0.605-0.816-1.449-0.816-2.533
				c0-1.113,0.282-1.979,0.847-2.6c0.564-0.619,1.337-0.93,2.317-0.93c0.581,0,1.137,0.102,1.668,0.303l-0.166,0.545
				c-0.581-0.194-1.086-0.291-1.514-0.291c-0.824,0-1.449,0.254-1.873,0.764c-0.424,0.508-0.637,1.24-0.637,2.196
				c0,0.907,0.213,1.616,0.637,2.129s1.018,0.77,1.779,0.77c0.61,0,1.177-0.108,1.7-0.327v0.568
				C73.66,95.187,73.098,95.291,72.401,95.291z"/>
			<path fill="#FFFFFF" d="M76.264,88.45v4.351c0,0.676,0.143,1.168,0.427,1.475s0.726,0.46,1.323,0.46
				c0.799,0,1.387-0.202,1.764-0.605s0.565-1.062,0.565-1.972V88.45h0.605v6.718H80.43l-0.111-0.927h-0.037
				c-0.438,0.7-1.213,1.05-2.33,1.05c-1.528,0-2.293-0.817-2.293-2.453V88.45H76.264z"/>
			<path fill="#FFFFFF" d="M85.911,95.291c-0.977,0-1.737-0.301-2.284-0.902c-0.545-0.602-0.818-1.443-0.818-2.527
				c0-1.07,0.264-1.929,0.791-2.574c0.527-0.645,1.238-0.967,2.133-0.967c0.791,0,1.414,0.276,1.871,0.828
				c0.458,0.553,0.687,1.303,0.687,2.25v0.494h-4.839c0.008,0.923,0.224,1.627,0.646,2.113c0.422,0.486,1.026,0.729,1.813,0.729
				c0.383,0,0.72-0.026,1.011-0.08c0.29-0.054,0.658-0.169,1.103-0.347v0.557c-0.379,0.164-0.729,0.277-1.05,0.337
				C86.652,95.262,86.299,95.291,85.911,95.291z M85.732,88.864c-0.647,0-1.166,0.214-1.559,0.64
				c-0.391,0.427-0.619,1.041-0.686,1.845h4.152c0-0.778-0.168-1.388-0.506-1.826S86.329,88.864,85.732,88.864z"/>
			<path fill="#FFFFFF" d="M94.828,95.168v-4.357c0-0.675-0.142-1.166-0.426-1.473c-0.284-0.308-0.725-0.461-1.322-0.461
				c-0.804,0-1.393,0.203-1.765,0.608c-0.373,0.406-0.56,1.064-0.56,1.975v3.708h-0.611V88.45h0.52l0.117,0.921h0.037
				c0.436-0.7,1.213-1.051,2.329-1.051c1.524,0,2.286,0.818,2.286,2.453v4.395H94.828z"/>
			<path fill="#FFFFFF" d="M99.383,94.748c0.388,0,0.726-0.033,1.014-0.1v0.494c-0.297,0.1-0.639,0.148-1.025,0.148
				c-0.594,0-1.031-0.158-1.313-0.475c-0.282-0.318-0.423-0.816-0.423-1.496v-4.338h-0.996v-0.359l0.996-0.277l0.309-1.521h0.314
				v1.625h1.973v0.532h-1.973v4.252c0,0.514,0.092,0.896,0.272,1.143S98.996,94.748,99.383,94.748z"/>
			<path fill="#FFFFFF" d="M105.928,95.168l-0.154-1.063h-0.05c-0.338,0.432-0.685,0.738-1.042,0.918
				c-0.355,0.179-0.777,0.268-1.264,0.268c-0.658,0-1.172-0.168-1.538-0.506s-0.55-0.806-0.55-1.403
				c0-0.655,0.272-1.163,0.818-1.526c0.546-0.362,1.336-0.555,2.37-0.574l1.279-0.037v-0.445c0-0.639-0.13-1.121-0.39-1.446
				s-0.678-0.488-1.254-0.488c-0.623,0-1.268,0.173-1.935,0.52l-0.229-0.532c0.737-0.346,1.466-0.519,2.188-0.519
				c0.737,0,1.288,0.191,1.653,0.575c0.364,0.383,0.547,0.98,0.547,1.791v4.469H105.928z M103.455,94.735
				c0.717,0,1.283-0.205,1.697-0.614c0.414-0.41,0.621-0.98,0.621-1.709V91.75L104.6,91.8c-0.944,0.046-1.617,0.192-2.019,0.442
				c-0.401,0.249-0.603,0.637-0.603,1.164c0,0.421,0.129,0.747,0.387,0.98C102.622,94.619,102.986,94.735,103.455,94.735z"/>
		</g>
	</g>
</g>
</svg>
