<?xml version="1.0" encoding="utf-8"?>
<!-- Generator: Adobe Illustrator 16.0.0, SVG Export Plug-In . SVG Version: 6.00 Build 0)  -->
<!DOCTYPE svg PUBLIC "-//W3C//DTD SVG 1.1//EN" "http://www.w3.org/Graphics/SVG/1.1/DTD/svg11.dtd">
<svg version="1.1" id="Capa_1" xmlns="http://www.w3.org/2000/svg" xmlns:xlink="http://www.w3.org/1999/xlink" x="0px" y="0px"
	 width="168px" height="91.5px" viewBox="24.5 33 168 91.5" enable-background="new 24.5 33 168 91.5" xml:space="preserve">
<g>
	<g>
		
			<rect x="90.599" y="43.296" transform="matrix(-0.7895 0.6138 -0.6138 -0.7895 226.6813 79.3764)" fill="none" stroke="#1F3659" stroke-width="3.4075" stroke-linecap="round" stroke-linejoin="round" stroke-miterlimit="10" width="18.258" height="70.536"/>
		
			<path fill="none" stroke="#1F3659" stroke-width="3.4075" stroke-linecap="round" stroke-linejoin="round" stroke-miterlimit="10" d="
			M126.538,113.042c3.664-2.85,4.325-8.132,1.475-11.798l-13.273,10.321C117.59,115.231,122.871,115.892,126.538,113.042z"/>
		
			<polygon fill="none" stroke="#1F3659" stroke-width="1.2778" stroke-linecap="round" stroke-linejoin="round" stroke-miterlimit="10" points="
			67.66,50.131 71.872,55.548 84.286,45.895 80.075,40.479 81.073,39.701 79.178,37.265 64.766,48.472 66.661,50.909 		"/>
		
			<line fill="none" stroke="#1F3659" stroke-width="1.2778" stroke-linecap="round" stroke-linejoin="round" stroke-miterlimit="10" x1="80.355" y1="40.26" x2="67.371" y2="50.357"/>
	</g>
	
		<line fill="none" stroke="#1F3659" stroke-width="3.4075" stroke-linecap="round" stroke-linejoin="round" stroke-miterlimit="10" x1="28.5" y1="114.813" x2="189.128" y2="114.813"/>
	<circle fill="none" stroke="#C8455C" stroke-miterlimit="10" cx="122.262" cy="108.028" r="12.97"/>
	<polygon fill="none" stroke="#C8455C" stroke-miterlimit="10" points="168.76,50.357 41.13,50.357 30.295,43.435 41.13,36.514 
		168.76,36.514 179.533,43.435 	"/>
</g>
</svg>
