<?xml version="1.0" encoding="utf-8"?>
<!-- Generator: Adobe Illustrator 16.0.0, SVG Export Plug-In . SVG Version: 6.00 Build 0)  -->
<!DOCTYPE svg PUBLIC "-//W3C//DTD SVG 1.1//EN" "http://www.w3.org/Graphics/SVG/1.1/DTD/svg11.dtd">
<svg version="1.1" id="Capa_1" xmlns="http://www.w3.org/2000/svg" xmlns:xlink="http://www.w3.org/1999/xlink" x="0px" y="0px"
	 width="168px" height="91.5px" viewBox="24.5 33 168 91.5" enable-background="new 24.5 33 168 91.5" xml:space="preserve">
<g>
	<g>
		
			<rect x="63.504" y="57.417" transform="matrix(-0.7895 0.6138 -0.6138 -0.7895 182.4989 114.673)" fill="none" stroke="#1F3659" stroke-width="3.4075" stroke-linecap="round" stroke-linejoin="round" stroke-miterlimit="10" width="16.161" height="62.433"/>
		
			<path fill="none" stroke="#1F3659" stroke-width="3.4075" stroke-linecap="round" stroke-linejoin="round" stroke-miterlimit="10" d="
			M95.314,119.15c3.245-2.521,3.83-7.194,1.307-10.44l-11.749,9.135C87.395,121.09,92.07,121.674,95.314,119.15z"/>
		
			<polygon fill="none" stroke="#1F3659" stroke-width="1.2778" stroke-linecap="round" stroke-linejoin="round" stroke-miterlimit="10" points="
			43.2,63.467 46.928,68.262 57.917,59.717 54.188,54.922 55.073,54.235 53.395,52.079 40.639,61.999 42.315,64.155 		"/>
		
			<line fill="none" stroke="#1F3659" stroke-width="1.2778" stroke-linecap="round" stroke-linejoin="round" stroke-miterlimit="10" x1="54.437" y1="54.729" x2="42.944" y2="63.667"/>
	</g>
	<g>
		<circle fill="none" stroke="#C8455C" stroke-miterlimit="10" cx="55.081" cy="67.618" r="23.839"/>
		<circle fill="none" stroke="#C8455C" stroke-miterlimit="10" cx="55.081" cy="67.618" r="16.361"/>
		<circle fill="none" stroke="#C8455C" stroke-miterlimit="10" cx="55.081" cy="67.879" r="11.48"/>
		<circle fill="#C8455C" cx="55.081" cy="67.879" r="6.466"/>
		<circle fill="none" stroke="#C8455C" stroke-miterlimit="10" cx="55.081" cy="67.618" r="28.779"/>
	</g>
	
		<line fill="none" stroke="#1F3659" stroke-width="3.4075" stroke-linecap="round" stroke-linejoin="round" stroke-miterlimit="10" x1="47.822" y1="121.383" x2="190" y2="121.383"/>
	<polygon fill="none" stroke="#C8455C" stroke-miterlimit="10" points="162.822,64.331 88.988,64.331 88.947,58.204 88.988,52.079 
		162.822,52.079 172.356,58.204 	"/>
	<polygon fill="none" stroke="#C8455C" stroke-miterlimit="10" points="98.482,72.336 172.316,72.336 172.357,78.463 
		172.316,84.589 98.482,84.589 88.947,78.463 	"/>
</g>
</svg>
