<?xml version="1.0" encoding="utf-8"?>
<!-- Generator: Adobe Illustrator 16.0.0, SVG Export Plug-In . SVG Version: 6.00 Build 0)  -->
<!DOCTYPE svg PUBLIC "-//W3C//DTD SVG 1.1//EN" "http://www.w3.org/Graphics/SVG/1.1/DTD/svg11.dtd">
<svg version="1.1" id="Capa_1" xmlns="http://www.w3.org/2000/svg" xmlns:xlink="http://www.w3.org/1999/xlink" x="0px" y="0px"
	 width="168px" height="120px" viewBox="24.5 0 168 120" enable-background="new 24.5 0 168 120" xml:space="preserve">
<g>
	<g>
		
			<rect x="79.45" y="47.847" transform="matrix(-0.7894 0.6138 -0.6138 -0.7894 206.5225 89.8084)" fill="none" stroke="#1F3659" stroke-width="3.4075" stroke-linecap="round" stroke-linejoin="round" stroke-miterlimit="10" width="16.814" height="64.958"/>
		
			<path fill="none" stroke="#1F3659" stroke-width="3.4075" stroke-linecap="round" stroke-linejoin="round" stroke-miterlimit="10" d="
			M112.547,112.077c3.375-2.624,3.984-7.486,1.359-10.862l-12.224,9.505C104.307,114.095,109.172,114.702,112.547,112.077z"/>
		
			<polygon fill="none" stroke="#1F3659" stroke-width="1.2778" stroke-linecap="round" stroke-linejoin="round" stroke-miterlimit="10" points="
			58.325,54.142 62.204,59.131 73.637,50.241 69.758,45.252 70.678,44.537 68.933,42.292 55.66,52.613 57.405,54.858 		"/>
		
			<line fill="none" stroke="#1F3659" stroke-width="1.2778" stroke-linecap="round" stroke-linejoin="round" stroke-miterlimit="10" x1="70.017" y1="45.051" x2="58.059" y2="54.349"/>
	</g>
	<g>
		<circle fill="none" stroke="#C8455C" stroke-miterlimit="10" cx="59.06" cy="43.633" r="24.803"/>
		<circle fill="none" stroke="#C8455C" stroke-miterlimit="10" cx="59.059" cy="43.633" r="17.022"/>
		<circle fill="none" stroke="#C8455C" stroke-miterlimit="10" cx="59.06" cy="43.906" r="11.944"/>
		<circle fill="#C8455C" cx="59.06" cy="43.906" r="6.728"/>
		<circle fill="none" stroke="#C8455C" stroke-miterlimit="10" cx="59.06" cy="43.633" r="29.943"/>
	</g>
	
		<line fill="none" stroke="#1F3659" stroke-width="3.4075" stroke-linecap="round" stroke-linejoin="round" stroke-miterlimit="10" x1="41.573" y1="115.869" x2="189.5" y2="115.869"/>
</g>
</svg>
