<svg id="Capa_1" data-name="Capa 1" xmlns="http://www.w3.org/2000/svg" viewBox="0 0 88.79 72.54"><defs><style>.cls-1{fill:#ebcb49;}.cls-2,.cls-3{fill:none;stroke:#fff;stroke-linecap:round;stroke-linejoin:round;}.cls-2{stroke-width:4px;}.cls-4{fill:#fff;}</style></defs><title>t4_1b</title><rect class="cls-1" x="83.79" width="5" height="72.54"/><polygon points="88.79 3.83 83.79 7.27 83.79 12.12 88.79 8.68 88.79 3.83"/><polygon points="88.79 15.25 83.79 18.69 83.79 23.54 88.79 20.1 88.79 15.25"/><polygon points="88.79 26.67 83.79 30.11 83.79 34.97 88.79 31.52 88.79 26.67"/><polygon points="88.79 38.09 83.79 41.53 83.79 46.39 88.79 42.95 88.79 38.09"/><polygon points="83.79 57.81 88.79 54.37 88.79 49.51 83.79 52.95 83.79 57.81"/><polygon points="83.79 69.23 88.79 65.79 88.79 60.93 83.79 64.37 83.79 69.23"/><rect class="cls-2" x="2" y="11.92" width="47.53" height="47.53"/><polyline class="cls-3" points="34.75 17.41 44.03 17.41 44.03 53.94 19.27 53.94"/><polyline class="cls-3" points="14.82 53.94 7.5 53.94 7.5 17.41 29.42 17.41"/><path class="cls-4" d="M24.91,39a1.12,1.12,0,0,1-1.12,1.12h0A1.12,1.12,0,0,1,22.67,39V26.37a1.12,1.12,0,0,1,1.12-1.12h0a1.12,1.12,0,0,1,1.12,1.12V39Z" transform="translate(-5.64 -1.67)"/><path class="cls-4" d="M40.39,39a1.12,1.12,0,0,1-1.12,1.12h0A1.12,1.12,0,0,1,38.15,39V26.37a1.12,1.12,0,0,1,1.12-1.12h0a1.12,1.12,0,0,1,1.12,1.12V39Z" transform="translate(-5.64 -1.67)"/><path class="cls-4" d="M31.41,44.79a5,5,0,0,0-5,5H36.44A5,5,0,0,0,31.41,44.79Z" transform="translate(-5.64 -1.67)"/></svg>