<svg id="Capa_1" data-name="Capa 1" xmlns="http://www.w3.org/2000/svg" viewBox="0 0 101.24 72.54"><defs><style>.cls-1{fill:#ebcb49;}.cls-2{fill:none;stroke:#fff;stroke-linecap:round;stroke-linejoin:round;}.cls-3{fill:#fff;}.cls-4{fill:#e8435d;}</style></defs><title>t4_1f</title><rect class="cls-1" x="96.24" width="5" height="72.54"/><polygon points="101.24 3.83 96.24 7.27 96.24 12.12 101.24 8.68 101.24 3.83"/><polygon points="101.24 15.25 96.24 18.69 96.24 23.54 101.24 20.1 101.24 15.25"/><polygon points="101.24 26.67 96.24 30.11 96.24 34.97 101.24 31.52 101.24 26.67"/><polygon points="101.24 38.09 96.24 41.53 96.24 46.39 101.24 42.95 101.24 38.09"/><polygon points="96.24 57.81 101.24 54.37 101.24 49.51 96.24 52.95 96.24 57.81"/><polygon points="96.24 69.23 101.24 65.79 101.24 60.93 96.24 64.37 96.24 69.23"/><polygon class="cls-2" points="22.36 54.33 42.38 54.33 42.38 21.04 37.02 21.04 37.02 17.32 27.6 17.32 27.6 20.81 22.36 20.81 22.36 54.33"/><rect class="cls-3" x="24.49" y="45.54" width="15.75" height="6.26"/><rect class="cls-3" x="24.49" y="38.22" width="15.75" height="6.26"/><rect class="cls-3" x="24.49" y="30.86" width="15.75" height="6.26"/><rect class="cls-3" x="24.49" y="23.5" width="15.75" height="6.26"/><path class="cls-4" d="M32,5.66A32.78,32.78,0,0,0,7.3,60a1.9,1.9,0,0,0,.22.26l0,0A32.79,32.79,0,1,0,32,5.66Zm0,4a28.65,28.65,0,0,1,17.43,5.89L9.08,55.9A28.78,28.78,0,0,1,32,9.66Zm0,57.6a28.71,28.71,0,0,1-20.26-8.36L52.44,18.2A28.79,28.79,0,0,1,32,67.27Z" transform="translate(0.81 -2.2)"/></svg>