<svg id="Capa_1" data-name="Capa 1" xmlns="http://www.w3.org/2000/svg" viewBox="0 0 106.72 72.54"><defs><style>.cls-1{fill:#ebcb49;}.cls-2,.cls-4{fill:none;stroke:#fff;}.cls-2{stroke-miterlimit:10;stroke-width:1.22px;}.cls-3{fill:#fff;}.cls-4{stroke-linecap:round;stroke-linejoin:round;stroke-width:4px;}</style></defs><title>t4_1e</title><rect class="cls-1" x="101.72" width="5" height="72.54"/><polygon points="106.72 3.83 101.72 7.27 101.72 12.12 106.72 8.68 106.72 3.83"/><polygon points="106.72 15.25 101.72 18.69 101.72 23.54 106.72 20.1 106.72 15.25"/><polygon points="106.72 26.67 101.72 30.11 101.72 34.97 106.72 31.52 106.72 26.67"/><polygon points="106.72 38.09 101.72 41.53 101.72 46.39 106.72 42.95 106.72 38.09"/><polygon points="101.72 57.81 106.72 54.37 106.72 49.51 101.72 52.95 101.72 57.81"/><polygon points="101.72 69.23 106.72 65.79 106.72 60.93 101.72 64.37 101.72 69.23"/><polygon class="cls-2" points="42.59 15.73 58.86 15.73 48.25 31.81 58.86 31.81 40.82 63.97 41.88 39.85 31.98 39.85 42.59 15.73"/><path class="cls-3" d="M23.75,26.5a2,2,0,0,0-2,2v18a2,2,0,0,0,2,2H38.31l0.18-4H25.75v-14H33.8l1.76-4H23.75Z" transform="translate(3.29 -2.27)"/><path class="cls-3" d="M37.75,61.2H13.93a2,2,0,1,0,0,4H37.57Z" transform="translate(3.29 -2.27)"/><path class="cls-3" d="M60.78,44.47h-11l-2.24,4H58.78V61.2H40.35l-2.24,4H60.78a2,2,0,0,0,2-2V46.47A2,2,0,0,0,60.78,44.47Z" transform="translate(3.29 -2.27)"/><path class="cls-3" d="M60.78,11H13.93a2,2,0,0,0,0,4H58.78V26.5H50l-2.64,4H60.78a2,2,0,0,0,2-2V13A2,2,0,0,0,60.78,11Z" transform="translate(3.29 -2.27)"/><rect class="cls-4" x="2" y="4.9" width="14.61" height="11.9"/><rect class="cls-4" x="7.48" y="56.72" width="9.13" height="8.43"/></svg>