<svg id="Capa_1" data-name="Capa 1" xmlns="http://www.w3.org/2000/svg" viewBox="0 0 104.51 72.54"><defs><style>.cls-1{fill:#ebcb49;}.cls-2,.cls-3{fill:none;stroke:#fff;stroke-linecap:round;stroke-linejoin:round;}.cls-2{stroke-width:4px;fill-rule:evenodd;}.cls-4{fill:#fff;}</style></defs><title>t4_1d</title><rect class="cls-1" x="99.51" width="5" height="72.54"/><polygon points="104.51 3.83 99.51 7.27 99.51 12.12 104.51 8.68 104.51 3.83"/><polygon points="104.51 15.25 99.51 18.69 99.51 23.54 104.51 20.1 104.51 15.25"/><polygon points="104.51 26.67 99.51 30.11 99.51 34.97 104.51 31.52 104.51 26.67"/><polygon points="104.51 38.09 99.51 41.53 99.51 46.39 104.51 42.95 104.51 38.09"/><polygon points="99.51 57.81 104.51 54.37 104.51 49.51 99.51 52.95 99.51 57.81"/><polygon points="99.51 69.23 104.51 65.79 104.51 60.93 99.51 64.37 99.51 69.23"/><polygon class="cls-2" points="2 59.59 74.96 59.59 38.48 2.04 2 59.59"/><polyline class="cls-3" points="15.99 53.65 63.42 53.65 46.26 24.67"/><polyline class="cls-3" points="43.12 19.98 38.43 11.38 11.74 53.65"/><path class="cls-4" d="M41.52,44.14l-3.44-4.38,3.43-4.37A1.68,1.68,0,1,0,39,33.18l-3,3.87-3-3.87A1.52,1.52,0,0,0,30.48,33a1.5,1.5,0,0,0-.1,2.38l3.43,4.37-3.44,4.37a1.55,1.55,0,0,0,.11,2.43,1.5,1.5,0,0,0,2.37-.16l3.09-3.93L39,46.42a1.51,1.51,0,0,0,2.38.16A1.55,1.55,0,0,0,41.52,44.14Z" transform="translate(2.08 -1.85)"/></svg>