<svg id="Capa_1" data-name="Capa 1" xmlns="http://www.w3.org/2000/svg" viewBox="0 0 97.6 72.54"><defs><style>.cls-1{fill:#ebcb49;}.cls-2,.cls-4{fill:none;stroke:#fff;stroke-linecap:round;stroke-linejoin:round;}.cls-2{stroke-width:4px;}.cls-3{fill:#fff;}</style></defs><title>t4_1a</title><rect class="cls-1" x="92.6" width="5" height="72.54"/><polygon points="97.6 3.83 92.6 7.27 92.6 12.12 97.6 8.68 97.6 3.83"/><polygon points="97.6 15.25 92.6 18.69 92.6 23.54 97.6 20.1 97.6 15.25"/><polygon points="97.6 26.67 92.6 30.11 92.6 34.97 97.6 31.52 97.6 26.67"/><polygon points="97.6 38.09 92.6 41.53 92.6 46.39 97.6 42.95 97.6 38.09"/><polygon points="92.6 57.81 97.6 54.37 97.6 49.51 92.6 52.95 92.6 57.81"/><polygon points="92.6 69.23 97.6 65.79 97.6 60.93 92.6 64.37 92.6 69.23"/><circle class="cls-2" cx="32.8" cy="36.27" r="30.8"/><path class="cls-3" d="M20.69,34.65h0l-1.81,1-0.27-1.07,2.27-1.22H22v10.4H20.69V34.65Z" transform="translate(-0.83 -1.5)"/><path class="cls-3" d="M28.9,34.65h0l-1.81,1-0.27-1.07,2.27-1.22h1.2v10.4H28.9V34.65Z" transform="translate(-0.83 -1.5)"/><path class="cls-3" d="M41,38.42c0,3.54-1.31,5.49-3.62,5.49-2,0-3.41-1.9-3.44-5.35s1.5-5.41,3.62-5.41S41,35.11,41,38.42Zm-5.65.16c0,2.7.83,4.24,2.11,4.24,1.44,0,2.13-1.68,2.13-4.34s-0.66-4.24-2.11-4.24C36.21,34.25,35.31,35.75,35.31,38.59Z" transform="translate(-0.83 -1.5)"/><path class="cls-3" d="M43.25,36l1.52,4.35a20.52,20.52,0,0,1,.63,2h0c0.18-.64.4-1.28,0.66-2L47.6,36h1.47l-3,7.75H44.69L41.74,36h1.5Z" transform="translate(-0.83 -1.5)"/><path class="cls-4" d="M8.7,32.32a25.55,25.55,0,1,1,48,16.54" transform="translate(-0.83 -1.5)"/><path class="cls-4" d="M52.78,54.79A25.54,25.54,0,0,1,8.09,37.89" transform="translate(-0.83 -1.5)"/></svg>