<svg id="Capa_1" data-name="Capa 1" xmlns="http://www.w3.org/2000/svg" viewBox="0 0 83 72.54"><defs><style>.cls-1{fill:#ebcb49;}.cls-2,.cls-3{fill:none;stroke:#fff;}.cls-2{stroke-miterlimit:10;}.cls-3{stroke-linecap:round;stroke-linejoin:round;stroke-width:4px;}.cls-4{fill:#fff;}</style></defs><title>t4_1c</title><rect class="cls-1" x="78" width="5" height="72.54"/><polygon points="83 3.83 78 7.27 78 12.12 83 8.68 83 3.83"/><polygon points="83 15.25 78 18.69 78 23.54 83 20.1 83 15.25"/><polygon points="83 26.67 78 30.11 78 34.97 83 31.52 83 26.67"/><polygon points="83 38.09 78 41.53 78 46.39 83 42.95 83 38.09"/><polygon points="78 57.81 83 54.37 83 49.51 78 52.95 78 57.81"/><polygon points="78 69.23 83 65.79 83 60.93 78 64.37 78 69.23"/><rect class="cls-2" x="7.91" y="47.37" width="18.13" height="8"/><polygon class="cls-3" points="2 59.97 31.55 59.97 31.55 10.83 23.65 10.83 23.65 5.33 9.73 5.33 9.73 10.49 2 10.49 2 59.97"/><path class="cls-4" d="M25.3,39.78a2.25,2.25,0,0,1,1.07.28,2,2,0,0,1,.82.81,2.25,2.25,0,0,1,.29,1.1,2.22,2.22,0,0,1-.29,1.08,2,2,0,0,1-.81.8,2.25,2.25,0,0,1-2.17,0,2,2,0,0,1-.81-0.8A2.16,2.16,0,0,1,23.1,42a2.23,2.23,0,0,1,.29-1.1,2,2,0,0,1,.82-0.81A2.28,2.28,0,0,1,25.3,39.78ZM27.62,36V21.36A2.07,2.07,0,0,0,25.42,19a2,2,0,0,0-2.21,2.36V36a2,2,0,0,0,2.24,2.24A2,2,0,0,0,27.62,36Z" transform="translate(-8.43 -1.96)"/></svg>