<svg id="Capa_1" data-name="Capa 1" xmlns="http://www.w3.org/2000/svg" viewBox="0 0 90 90"><defs><style>.cls-1{fill:#8cc63f;}.cls-2{fill:#fff;}</style></defs><title>t4_a</title><circle class="cls-1" cx="45" cy="45" r="45"/><path class="cls-2" d="M69.93,39.15a2.65,2.65,0,0,0-2.52-1.83H52.21L47.52,22.87a2.65,2.65,0,0,0-5,0l-4.7,14.45H22.59A2.65,2.65,0,0,0,21,42.11L33.32,51l-4.7,14.45a2.65,2.65,0,0,0,4.08,3L45,59.53l12.29,8.93a2.65,2.65,0,0,0,4.08-3L56.67,51,69,42.11A2.65,2.65,0,0,0,69.93,39.15Z" transform="translate(0 0)"/></svg>