<?xml version="1.0" encoding="utf-8"?>
<!-- Generator: Adobe Illustrator 16.0.0, SVG Export Plug-In . SVG Version: 6.00 Build 0)  -->
<!DOCTYPE svg PUBLIC "-//W3C//DTD SVG 1.1//EN" "http://www.w3.org/Graphics/SVG/1.1/DTD/svg11.dtd">
<svg version="1.1" id="Capa_1" xmlns="http://www.w3.org/2000/svg" xmlns:xlink="http://www.w3.org/1999/xlink" x="0px" y="0px"
	 width="755.908px" height="381.764px" viewBox="0 0 755.908 381.764" enable-background="new 0 0 755.908 381.764"
	 xml:space="preserve">
<g>
	<path fill="#E48F2B" d="M588.314,193.748l-29.82,55.529l42.484,24.805l19.693-9.692c0,0,1.779,9.083,12.225,3.599
		c10.445-5.483,4.071-11.659,4.071-11.659l3.263-2.089c0,0-8.229-23.769,5.357-43.615c0,0-7.845-1.372-9.817-13.969l-11.309,0.756
		c0,0-0.158-7.938-7.135-8.175c-6.976-0.233-9.211,7.321-9.211,7.321L588.314,193.748z"/>
	<path fill="#E4BC9F" d="M524.521,191.715l7.278,41.624l30.862,8.175l25.673-45.769l-0.329-38.894l-17.664-11.167l-10.962,9.932
		c0,0-9.409-8.451-15.07,0.876c-5.661,9.324,0.346,13.72,0.346,13.72L524.521,191.715z"/>
	<path fill="#E48F2B" d="M494.946,308.053l9.171,12.072l37.876-8.852l15.823,8.456c0,0,6.592-7.29-3.767-11.523l6.48-1.296
		l-17.166-24.361l-28.412,17.886l1.669,5.926L494.946,308.053z"/>
	<polygon fill="#E20C7B" points="524.521,191.715 531.801,233.339 562.663,241.513 558.494,249.277 600.979,274.082 579.133,285.66 
		557.4,261.385 509.862,291.729 520.289,296.994 514.953,300.435 516.622,306.36 494.946,308.053 431.631,228.374 464.943,201.901 
		470.45,221.477 499.104,220.157 	"/>
	<path fill="#E20C7B" d="M418.692,212.854l-5.23-6.582l47.565-15.128l3.582,10.337l-1.134,0.898
		C463.477,202.38,456.975,195.424,418.692,212.854z"/>
	<path fill="#E4BC9F" d="M538.006,142.863l12.505,10.012c0,0,4.694-2.823,8.87,2.741l40.357-38.104l38.286-1.337l-19.483-36.819
		L538.006,142.863z"/>
	<path fill="#B3E0F9" d="M658.287,115.944l39.117-1.008l-9.906,61.612l13.613,2.412l-5.533,21.276
		c5.059-1.287,15.687-2.979,24.817,2.229c2.929-1.263,5.743-2.921,8.361-5c15.93-12.656,18.58-35.832,5.922-51.763
		c-0.739-0.933-1.52-1.813-2.33-2.655c1.343-0.679,2.636-1.503,3.857-2.475c9.721-7.724,11.34-21.865,3.615-31.586
		c-6.47-8.14-17.435-10.594-26.537-6.644c-0.902-1.833-2.006-3.599-3.328-5.264c-9.961-12.533-28.195-14.62-40.729-4.66
		C661.799,98.326,658.042,107.135,658.287,115.944z"/>
	<path fill="#965315" d="M525.599,153.702L464.61,201.48l-14.612-48.805l11.718-8.002c0,0-11.389-24.034,30.396-15.2l7.169-3.709
		c0,0,4.424,4.347,13.009,0.322c0,0,1.042,7.931,10.812,9.588C523.101,135.676,517.938,143.771,525.599,153.702z"/>
	<path fill="#965315" d="M396.074,183.629l34.707-58.211c0,0,14.828,7.281-4.225,21.444l16.559,12.262l-25.287,20.429l-8.201-0.172
		l-1.463,20.227L396.074,183.629z"/>
	<polygon fill="#136E97" points="587.378,52.302 578.52,50.389 591.014,40.46 599.873,42.374 	"/>
	<polygon fill="#136E97" points="599.922,56.456 591.063,54.544 603.557,44.615 612.416,46.528 	"/>
	<polygon fill="#136E97" points="613.364,59.896 604.505,57.983 616.999,48.055 625.859,49.968 	"/>
	<polygon fill="#136E97" points="626.357,63.693 617.498,61.78 629.993,51.853 638.854,53.765 	"/>
	<polygon fill="#136E97" points="568.019,67.686 559.16,65.772 571.654,55.844 580.513,57.757 	"/>
	<polygon fill="#136E97" points="580.563,71.84 571.703,69.927 584.197,59.999 593.057,61.912 	"/>
	<polygon fill="#136E97" points="594.005,75.28 585.146,73.367 597.641,63.438 606.5,65.351 	"/>
	<polygon fill="#136E97" points="606.998,79.078 598.139,77.164 610.634,67.235 619.493,69.148 	"/>
	<polygon fill="#136E97" points="547.176,84.249 538.316,82.335 550.813,72.406 559.671,74.319 	"/>
	<polygon fill="#136E97" points="559.72,88.403 550.859,86.49 563.354,76.562 572.214,78.475 	"/>
	<polygon fill="#136E97" points="573.162,91.843 564.303,89.931 576.798,80.001 585.657,81.914 	"/>
	<polygon fill="#136E97" points="586.155,95.641 577.297,93.727 589.791,83.798 598.65,85.711 	"/>
	<polygon fill="#136E97" points="697.404,114.936 663.799,172.349 687.498,176.549 	"/>
	<polygon fill="#FFFFFF" points="697.404,114.936 648.005,116.211 679.525,127.188 669.527,137.94 682.275,133.801 683.807,165.338 
		693.631,142.444 	"/>
	<polygon fill="#136E97" points="654.282,51.441 618.219,80.099 632.748,106.279 665.035,80.657 	"/>
	
		<path fill="none" stroke="#163558" stroke-width="3.4442" stroke-linecap="round" stroke-linejoin="round" stroke-miterlimit="10" d="
		M491.55,129.92c0,0-22.937-4.259-27.854,0.626c-4.917,4.886-1.729,15.063-1.729,15.063l-12.813,7.235l15.325,49.428l107.263-85.237
		c0,0-2.371-24.512-24.165-12.57c0,0-2.871-17.76-24.427-5.519c0,0-4.331-9.756-15.341-6.385
		c-11.008,3.371-12.681,20.831-12.681,20.831S479.99,119.063,491.55,129.92z"/>
	
		<polygon fill="none" stroke="#163558" stroke-width="3.4442" stroke-linecap="round" stroke-linejoin="round" stroke-miterlimit="10" points="
		461.027,191.144 413.752,206.408 431.371,228.581 464.479,202.271 	"/>
	
		<polygon fill="none" stroke="#163558" stroke-width="3.4442" stroke-linecap="round" stroke-linejoin="round" stroke-miterlimit="10" points="
		395.896,183.937 408.276,199.517 409.148,179.76 417.215,179.705 443.281,158.992 419.785,142.954 	"/>
	
		<path fill="none" stroke="#163558" stroke-width="3.4442" stroke-linecap="round" stroke-linejoin="round" stroke-miterlimit="10" d="
		M419.785,142.954l10.995-17.536c0,0,14.822,6.922-4.548,21.938L419.785,142.954z"/>
	
		<polyline fill="none" stroke="#163558" stroke-width="3.4442" stroke-linecap="round" stroke-linejoin="round" stroke-miterlimit="10" points="
		571.74,117.033 653.779,51.842 594.135,30.804 518.393,93.61 	"/>
	
		<path fill="none" stroke="#163558" stroke-width="3.4442" stroke-linecap="round" stroke-linejoin="round" stroke-miterlimit="10" d="
		M618.479,79.893l19.782,36.582l-38.854,1.546l-40.586,38.12c0,0-4.578-7.607-13.566-0.464s-0.285,14.403-0.285,14.403
		l-46.065,50.293l-28.99,1.04l-5.436-19.144"/>
	
		<polyline fill="none" stroke="#163558" stroke-width="3.4442" stroke-linecap="round" stroke-linejoin="round" stroke-miterlimit="10" points="
		653.779,51.842 665.123,80.552 632.748,106.279 	"/>
	
		<polyline fill="none" stroke="#163558" stroke-width="3.4442" stroke-linecap="round" stroke-linejoin="round" stroke-miterlimit="10" points="
		638.262,116.475 697.484,114.877 688.037,175.857 	"/>
	
		<path fill="none" stroke="#163558" stroke-width="3.4442" stroke-linecap="round" stroke-linejoin="round" stroke-miterlimit="10" d="
		M584.529,131.995c0,0,6.405-4.512,9.799,7.59c3.393,12.104,9.814,19.022,18.617,7.402c0,0,2.34,34.44-42.813-1.47L584.529,131.995z
		"/>
	
		<polyline fill="none" stroke="#163558" stroke-width="3.4442" stroke-linecap="round" stroke-linejoin="round" stroke-miterlimit="10" points="
		587.113,157.121 588.363,195.194 562.712,241.474 531.832,233.531 524.931,191.959 	"/>
	
		<line fill="none" stroke="#163558" stroke-width="3.4442" stroke-linecap="round" stroke-linejoin="round" stroke-miterlimit="10" x1="548.196" y1="237.741" x2="482.207" y2="292.556"/>
	
		<polyline fill="none" stroke="#163558" stroke-width="3.4442" stroke-linecap="round" stroke-linejoin="round" stroke-miterlimit="10" points="
		603.828,161.721 701.111,178.961 695.363,199.658 	"/>
	
		<polygon fill="none" stroke="#163558" stroke-width="3.4442" stroke-linecap="round" stroke-linejoin="round" stroke-miterlimit="10" points="
		503.749,319.663 560.658,306.702 543.895,283.22 514.881,300.149 516.482,306.471 494.464,307.979 	"/>
	
		<polyline fill="none" stroke="#163558" stroke-width="3.4442" stroke-linecap="round" stroke-linejoin="round" stroke-miterlimit="10" points="
		545.467,310.162 592.86,299.935 557.162,261.089 510.715,291.051 520.723,296.255 	"/>
	
		<polygon fill="none" stroke="#163558" stroke-width="3.4442" stroke-linecap="round" stroke-linejoin="round" stroke-miterlimit="10" points="
		592.86,299.935 599.361,276.053 579.485,285.38 	"/>
	
		<path fill="none" stroke="#163558" stroke-width="3.4442" stroke-linecap="round" stroke-linejoin="round" stroke-miterlimit="10" d="
		M541.208,311.132l16.838,8.89c0,0,6.206-8.228-3.925-11.727L541.208,311.132z"/>
	
		<path fill="none" stroke="#163558" stroke-width="3.4442" stroke-linecap="round" stroke-linejoin="round" stroke-miterlimit="10" d="
		M626.467,269.546l-49.856,57.229c0,0-10.893-0.835-16.736-11.242"/>
	
		<line fill="none" stroke="#163558" stroke-width="1.1481" stroke-linecap="round" stroke-linejoin="round" stroke-miterlimit="10" x1="469.914" y1="221.414" x2="441.609" y2="249.772"/>
	
		<line fill="none" stroke="#163558" stroke-width="1.1481" stroke-linecap="round" stroke-linejoin="round" stroke-miterlimit="10" x1="453.043" y1="226.729" x2="469.99" y2="235.05"/>
	
		<line fill="none" stroke="#163558" stroke-width="1.1481" stroke-linecap="round" stroke-linejoin="round" stroke-miterlimit="10" x1="454.255" y1="230.477" x2="463.326" y2="238.187"/>
	
		<line fill="none" stroke="#163558" stroke-width="1.1481" stroke-linecap="round" stroke-linejoin="round" stroke-miterlimit="10" x1="531.832" y1="233.531" x2="470.612" y2="281.962"/>
	
		<path fill="none" stroke="#163558" stroke-width="1.1481" stroke-linecap="round" stroke-linejoin="round" stroke-miterlimit="10" d="
		M418.514,212.4c0,0,39.624-17.313,45.321-9.618"/>
	
		<path fill="none" stroke="#163558" stroke-width="3.4442" stroke-linecap="round" stroke-linejoin="round" stroke-miterlimit="10" d="
		M636.951,256.341l29.832-15.396l-9.098-40.968l-33.539-2.313c0.133-1.914-0.413-3.879-1.7-5.499
		c-2.734-3.44-7.741-4.014-11.185-1.279c-1.82,1.446-2.83,3.531-2.979,5.686l-19.92-1.375L557.8,249.828l43.605,24.494l19.635-9.737
		c0,0,3.142,8.258,11.284,3.741C640.469,263.811,636.951,256.341,636.951,256.341z"/>
	
		<path fill="none" stroke="#163558" stroke-width="3.4442" stroke-linecap="round" stroke-linejoin="round" stroke-miterlimit="10" d="
		M657.688,199.976c0,0-29.459,18.814-17.227,54.555"/>
	
		<path fill="none" stroke="#163558" stroke-width="3.4442" stroke-linecap="round" stroke-linejoin="round" stroke-miterlimit="10" d="
		M635.936,198.476c0,0,1.451,8.628,10.243,12.89"/>
	
		<path fill="none" stroke="#163558" stroke-width="3.4442" stroke-linecap="round" stroke-linejoin="round" stroke-miterlimit="10" d="
		M619.291,189.774c0,0,10.059-14.823,21.977-2.466c0,0,35.457-23.92,45.125,16.058c0,0,35.91-16.805,46.979,16.192
		c11.068,32.996-38.717,36.778-38.717,36.778s13.188,21.633-6.707,37.444c-19.896,15.811-45.023,10.604-52.902-13.441
		c0,0-9.047,23.238-28.914,12.551"/>
	
		<line fill="none" stroke="#163558" stroke-width="1.1481" stroke-linecap="round" stroke-linejoin="round" stroke-miterlimit="10" x1="602.114" y1="92.896" x2="627.634" y2="116.897"/>
	
		<line fill="none" stroke="#163558" stroke-width="1.1481" stroke-linecap="round" stroke-linejoin="round" stroke-miterlimit="10" x1="623.953" y1="90.015" x2="610.455" y2="100.741"/>
	
		<line fill="none" stroke="#163558" stroke-width="1.1481" stroke-linecap="round" stroke-linejoin="round" stroke-miterlimit="10" x1="629.135" y1="101.731" x2="619.627" y2="109.286"/>
	
		<polyline fill="none" stroke="#163558" stroke-width="1.1481" stroke-linecap="round" stroke-linejoin="round" stroke-miterlimit="10" points="
		608.526,98.927 604.855,105.191 608.59,109.891 592.294,107.837 589.441,114.093 	"/>
	
		<line fill="none" stroke="#163558" stroke-width="1.1481" stroke-linecap="round" stroke-linejoin="round" stroke-miterlimit="10" x1="550.51" y1="152.876" x2="538.482" y2="143.461"/>
	
		<line fill="none" stroke="#163558" stroke-width="1.1481" stroke-linecap="round" stroke-linejoin="round" stroke-miterlimit="10" x1="525.149" y1="154.059" x2="541.223" y2="163.426"/>
	
		<polyline fill="none" stroke="#163558" stroke-width="1.1481" stroke-linecap="round" stroke-linejoin="round" stroke-miterlimit="10" points="
		647.354,116.229 679.719,127.278 668.73,138.21 682.162,133.658 684.094,165.699 693.797,138.673 	"/>
	
		<line fill="none" stroke="#163558" stroke-width="1.1481" stroke-linecap="round" stroke-linejoin="round" stroke-miterlimit="10" x1="664.539" y1="230.84" x2="755.334" y2="210.904"/>
	
		<line fill="none" stroke="#163558" stroke-width="1.1481" stroke-linecap="round" stroke-linejoin="round" stroke-miterlimit="10" x1="711.881" y1="220.445" x2="733.715" y2="192.89"/>
	
		<line fill="none" stroke="#163558" stroke-width="1.1481" stroke-linecap="round" stroke-linejoin="round" stroke-miterlimit="10" x1="637.666" y1="259.244" x2="707.596" y2="300.897"/>
	
		<line fill="none" stroke="#1C3761" stroke-width="1.1481" stroke-linecap="round" stroke-linejoin="round" stroke-miterlimit="10" x1="682.48" y1="285.939" x2="705.668" y2="279.7"/>
	
		<line fill="none" stroke="#163558" stroke-width="1.1481" stroke-linecap="round" stroke-linejoin="round" stroke-miterlimit="10" x1="660.783" y1="213.924" x2="677.301" y2="165.605"/>
	
		<line fill="none" stroke="#163558" stroke-width="1.1481" stroke-linecap="round" stroke-linejoin="round" stroke-miterlimit="10" x1="669.041" y1="189.766" x2="664.48" y2="175.792"/>
	
		<line fill="none" stroke="#163558" stroke-width="1.1481" stroke-linecap="round" stroke-linejoin="round" stroke-miterlimit="10" x1="624.146" y1="197.663" x2="622.828" y2="171.023"/>
	
		<line fill="none" stroke="#163558" stroke-width="1.1481" stroke-linecap="round" stroke-linejoin="round" stroke-miterlimit="10" x1="622.988" y1="185.833" x2="617.676" y2="179.147"/>
	
		<line fill="none" stroke="#163558" stroke-width="1.1481" stroke-linecap="round" stroke-linejoin="round" stroke-miterlimit="10" x1="557.801" y1="249.827" x2="482.207" y2="292.556"/>
	
		<line fill="none" stroke="#163558" stroke-width="1.1481" stroke-linecap="round" stroke-linejoin="round" stroke-miterlimit="10" x1="534.113" y1="289.903" x2="543.678" y2="301.938"/>
	
		<line fill="none" stroke="#163558" stroke-width="1.1481" stroke-linecap="round" stroke-linejoin="round" stroke-miterlimit="10" x1="523.943" y1="294.861" x2="533.208" y2="306.521"/>
	
		<line fill="none" stroke="#163558" stroke-width="1.1481" stroke-linecap="round" stroke-linejoin="round" stroke-miterlimit="10" x1="432.197" y1="167.799" x2="421.484" y2="154.317"/>
	
		<line fill="none" stroke="#163558" stroke-width="1.1481" stroke-linecap="round" stroke-linejoin="round" stroke-miterlimit="10" x1="423.266" y1="174.897" x2="415.35" y2="164.937"/>
	
		<path fill="none" stroke="#163558" stroke-width="1.1481" stroke-linecap="round" stroke-linejoin="round" stroke-miterlimit="10" d="
		M554.347,160.186c0,0-1.663-5.156-6.591-1.362c-4.93,3.794,1.938,5.67,1.938,5.67s2.995-6.535-4.007,0.495"/>
	
		<path fill="none" stroke="#163558" stroke-width="1.1481" stroke-linecap="round" stroke-linejoin="round" stroke-miterlimit="10" d="
		M491.55,129.92l7.815-4.201c0,0,4.012,4.175,12.858,0.422c0,0,1.811,8.625,11.019,9.484c0,0-5.624,8.875,2.846,17.688"/>
	
		<path fill="none" stroke="#163558" stroke-width="1.1481" stroke-linecap="round" stroke-linejoin="round" stroke-miterlimit="10" d="
		M497.893,119.756c0,0-1.967,5.437,4.203,7.469"/>
	
		<path fill="none" stroke="#163558" stroke-width="1.1481" stroke-linecap="round" stroke-linejoin="round" stroke-miterlimit="10" d="
		M512.183,119.209c0,0-1.733,4.737,1.815,10.934"/>
	
		<path fill="none" stroke="#163558" stroke-width="1.1481" stroke-linecap="round" stroke-linejoin="round" stroke-miterlimit="10" d="
		M457.045,148.385c0,0,4.059,19.112,27.536,19.826l1.288-2.918l-1.649,1.311"/>
	
		<path fill="none" stroke="#163558" stroke-width="1.1481" stroke-linecap="round" stroke-linejoin="round" stroke-miterlimit="10" d="
		M492.408,136.998c0,0,6.073-6.658,10.715-0.815c4.644,5.842-2.947,10.592-2.947,10.592"/>
	
		<line fill="none" stroke="#163558" stroke-width="1.1481" stroke-linecap="round" stroke-linejoin="round" stroke-miterlimit="10" x1="592.497" y1="134.95" x2="578.803" y2="137.755"/>
	
		<line fill="none" stroke="#163558" stroke-width="1.1481" stroke-linecap="round" stroke-linejoin="round" stroke-miterlimit="10" x1="594.328" y1="139.585" x2="573.207" y2="142.628"/>
	
		<line fill="none" stroke="#163558" stroke-width="1.1481" stroke-linecap="round" stroke-linejoin="round" stroke-miterlimit="10" x1="596.665" y1="144.993" x2="573.521" y2="147.272"/>
	
		<line fill="none" stroke="#163558" stroke-width="1.1481" stroke-linecap="round" stroke-linejoin="round" stroke-miterlimit="10" x1="598.392" y1="149.613" x2="580.398" y2="152.603"/>
	
		<line fill="none" stroke="#163558" stroke-width="1.1481" stroke-linecap="round" stroke-linejoin="round" stroke-miterlimit="10" x1="602.309" y1="152.525" x2="587.113" y2="157.121"/>
	
		<line fill="none" stroke="#163558" stroke-width="1.1481" stroke-linecap="round" stroke-linejoin="round" stroke-miterlimit="10" x1="610.472" y1="152.246" x2="594.611" y2="160.495"/>
	
		<path fill="none" stroke="#163558" stroke-width="1.1481" stroke-linecap="round" stroke-linejoin="round" stroke-miterlimit="10" d="
		M560.862,171.627c0,0,5.933-9.526,10.077-4.586c3.356,4.005-1.576,9.563-1.576,9.563"/>
	
		<path fill="none" stroke="#163558" stroke-width="1.1481" stroke-linecap="round" stroke-linejoin="round" stroke-miterlimit="10" d="
		M580.381,182.044c0,0,8.549-7.792,4.728,2.824"/>
	
		<path fill="none" stroke="#163558" stroke-width="1.1481" stroke-linecap="round" stroke-linejoin="round" stroke-miterlimit="10" d="
		M576.133,178.417c0,0-10.096,14.447,2.037,24.876l-11.391-2.275c0,0,0.742,6.887-2.224,10.951c0,0-12.516,1.401-20.495-22.592
		l2.477-1.967l-0.674,1.305"/>
	
		<path fill="none" stroke="#163558" stroke-width="1.1481" stroke-linecap="round" stroke-linejoin="round" stroke-miterlimit="10" d="
		M629.157,222.517c0,0-5.639-8.447-22.119-4.258l2.058,12.059l5.105-1.498l-1.055-3.821"/>
	
		<path fill="none" stroke="#163558" stroke-width="1.1481" stroke-linecap="round" stroke-linejoin="round" stroke-miterlimit="10" d="
		M597.471,208.662c0,0-12.738,23.991,17.114,45.932l1.824-2.315l-1.391,0.182"/>
	
		<path fill="none" stroke="#163558" stroke-width="1.1481" stroke-linecap="round" stroke-linejoin="round" stroke-miterlimit="10" d="
		M625.202,205.055c0,0,6.302-0.833,7.672,3.591c1.37,4.428-2.2,7.084-2.2,7.084"/>
	
		<path fill="none" stroke="#163558" stroke-width="1.1481" stroke-linecap="round" stroke-linejoin="round" stroke-miterlimit="10" d="
		M631.739,232.725c0,0,10.418,3.238,2.002,12.076"/>
	
		<path fill="none" stroke="#163558" stroke-width="1.1481" stroke-linecap="round" stroke-linejoin="round" stroke-miterlimit="10" d="
		M619.898,196.983c0,0,0.522-4.718-3.367-4.236c-3.892,0.482-2.496,4.749-2.496,4.749s4.684-2.224-2.216-2.789"/>
	
		<path fill="none" stroke="#163558" stroke-width="1.1481" stroke-linecap="round" stroke-linejoin="round" stroke-miterlimit="10" d="
		M632.047,259.198c0,0,2.529,3.529-1.203,5.468c-3.733,1.939-4.69-1.802-4.69-1.802s5.116-0.481-0.898,2.099"/>
	
		<path fill="none" stroke="#163558" stroke-width="1.1481" stroke-linecap="round" stroke-linejoin="round" stroke-miterlimit="10" d="
		M599.81,239.009c0,0,4.231-4.664,2.853-7.782c-1.38-3.12-4.509-1.753-4.922-4.35c-0.412-2.595,1.831-3.202-2.95-4.39
		c0,0-7.308,3.937-4.104,10.739C593.892,240.027,599.81,239.009,599.81,239.009z"/>
	
		<path fill="none" stroke="#163558" stroke-width="1.1481" stroke-linecap="round" stroke-linejoin="round" stroke-miterlimit="10" d="
		M658.991,205.853c0,0-22.849,19.687-13.552,46.106"/>
	
		<path fill="none" stroke="#163558" stroke-width="1.1481" stroke-linecap="round" stroke-linejoin="round" stroke-miterlimit="10" d="
		M650.346,249.169c0,0-7.573-15.754,9.89-36.488"/>
	
		<path fill="none" stroke="#163558" stroke-width="1.1481" stroke-linecap="round" stroke-linejoin="round" stroke-miterlimit="10" d="
		M662.109,219.896c0,0-11.618,15.136-6.806,26.973"/>
	
		<path fill="none" stroke="#163558" stroke-width="1.1481" stroke-linecap="round" stroke-linejoin="round" stroke-miterlimit="10" d="
		M664.143,229.061c0,0-5.434,8.933-3.205,14.899"/>
	
		<path fill="none" stroke="#163558" stroke-width="1.1481" stroke-linecap="round" stroke-linejoin="round" stroke-miterlimit="10" d="
		M645.678,199.146c0,0,0.422,3.283,5.844,5.992"/>
	
		<path fill="none" stroke="#163558" stroke-width="1.1481" stroke-linecap="round" stroke-linejoin="round" stroke-miterlimit="10" d="
		M640.065,198.76c0,0,2.863,6.975,8.702,9.337"/>
	
		<line fill="none" stroke="#163558" stroke-width="1.1481" stroke-linecap="round" stroke-linejoin="round" stroke-miterlimit="10" x1="622.575" y1="268.27" x2="569.301" y2="324.523"/>
	
		<line fill="none" stroke="#163558" stroke-width="1.1481" stroke-linecap="round" stroke-linejoin="round" stroke-miterlimit="10" x1="616.819" y1="266.668" x2="596.549" y2="286.391"/>
	
		<line fill="none" stroke="#163558" stroke-width="1.1481" stroke-linecap="round" stroke-linejoin="round" stroke-miterlimit="10" x1="579.767" y1="302.76" x2="562.566" y2="318.922"/>
	
		<line fill="none" stroke="#163558" stroke-width="1.1481" stroke-linecap="round" stroke-linejoin="round" stroke-miterlimit="10" x1="567.32" y1="306.002" x2="559.513" y2="312.206"/>
</g>
<g>
	<path fill="#E48F2B" d="M156.9,158.301l62.922-3.665l-1.11-49.187l-18.57-11.703c0,0,6.808-6.271-3.333-12.3
		c-10.141-6.028-12.066,2.637-12.066,2.637l-3.487-1.687c0,0-15.941,19.456-39.965,18.271c0,0,2.938,7.401-6.76,15.679l6.563,9.238
		c0,0-6.681,4.292-3.229,10.358c3.452,6.065,11.06,4.015,11.06,4.015L156.9,158.301z"/>
	<path fill="#E4BC9F" d="M188.567,213.735l31.652-28.013l-9.194-30.575l-52.436,2.09l-32.964,20.646l-0.266,20.901l14.198,4.14
		c0,0-2.271,12.447,8.639,12.392c10.909-0.06,11.51-7.481,11.51-7.481L188.567,213.735z"/>
	<path fill="#E48F2B" d="M303.171,178.008l5.484-14.139l-27.373-27.637l-1.08-17.909c0,0-9.661-1.8-7.847,9.241l-4.496-4.842
		l-11.768,27.38l30.113,14.845l4.175-4.524L303.171,178.008z"/>
	<polygon fill="#E20C7B" points="188.567,213.735 220.22,185.723 211.026,155.148 219.822,154.635 218.712,105.449 240.015,118.001 
		230.712,149.226 281.452,173.842 280.481,162.202 286.205,164.947 290.38,160.423 303.171,178.008 268.435,273.691 228.441,259.17 
		242.234,244.229 226.109,220.506 	"/>
	<path fill="#E20C7B" d="M261.987,292.842l-2.869,7.9l-37.793-32.604l6.933-8.465l1.357,0.494
		C229.615,260.169,227.093,269.351,261.987,292.842z"/>
	<path fill="#E4BC9F" d="M139.888,227.827l1.982-15.903c0,0-4.862-2.523-2.312-8.998l-53.59-14.437l-21.183-31.922l-21.171,35.881
		L139.888,227.827z"/>
	<path fill="#B3E0F9" d="M53.979,139.417l-21.341-32.799l57.679-23.817l-5.073-12.859l21.024-6.427
		c-3.745-3.636-10.751-11.806-11.094-22.312c-2.609-1.835-5.496-3.366-8.638-4.507c-19.124-6.943-40.255,2.931-47.2,22.055
		c-0.406,1.118-0.75,2.245-1.042,3.374c-1.28-0.787-2.66-1.458-4.127-1.991C22.497,55.897,9.6,61.922,5.363,73.593
		c-3.548,9.772,0.103,20.4,8.236,26.089c-1.09,1.727-2.017,3.593-2.743,5.59c-5.463,15.048,2.304,31.682,17.352,37.146
		C37.127,145.654,46.603,144.241,53.979,139.417z"/>
	<path fill="#965315" d="M155.618,232.727l72.64,26.947l-33.93,38l-12.951-5.793c0,0-14.515,22.287-28.867-17.938l-6.913-4.167
		c0,0,1.388-6.044-6.537-11.253c0,0,6.211-5.04,2.509-14.23C141.57,244.293,151.17,244.453,155.618,232.727z"/>
	<path fill="#965315" d="M248.93,327.411l-67.763,0.908c0,0-1.561-16.446,20.479-7.629l1.777-20.526l30.644,10.85l4.148,7.076
		l17.997-9.343L248.93,327.411z"/>
	<polygon fill="#136E97" points="36.881,233.17 39.891,241.723 24.889,236.272 21.88,227.719 	"/>
	<polygon fill="#136E97" points="33.853,220.302 36.861,228.854 21.86,223.405 18.852,214.855 	"/>
	<polygon fill="#136E97" points="29.745,207.049 32.753,215.598 17.753,210.151 14.744,201.6 	"/>
	<polygon fill="#136E97" points="26.178,193.989 29.186,202.54 14.186,197.093 11.176,188.542 	"/>
	<polygon fill="#136E97" points="60.125,241.616 63.134,250.167 48.132,244.718 45.123,236.164 	"/>
	<polygon fill="#136E97" points="57.096,228.747 60.105,237.3 45.104,231.85 42.094,223.295 	"/>
	<polygon fill="#136E97" points="52.987,215.487 55.996,224.039 40.995,218.591 37.986,210.041 	"/>
	<polygon fill="#136E97" points="49.42,202.429 52.428,210.979 37.427,205.532 34.418,196.982 	"/>
	<polygon fill="#136E97" points="85.149,250.706 88.158,259.256 73.158,253.81 70.147,245.256 	"/>
	<polygon fill="#136E97" points="82.121,237.84 85.13,246.393 70.128,240.943 67.119,232.389 	"/>
	<polygon fill="#136E97" points="78.013,224.579 81.021,233.133 66.02,227.682 63.01,219.127 	"/>
	<polygon fill="#136E97" points="74.444,211.516 77.452,220.068 62.451,214.618 59.442,206.069 	"/>
	<polygon fill="#136E97" points="32.639,106.618 99.147,105.192 90.317,82.801 	"/>
	<polygon fill="#FFFFFF" points="32.639,106.618 59.59,148.04 52.44,115.436 66.835,118.325 56.633,109.63 82.699,91.816 
		58.051,95.431 	"/>
	<polygon fill="#136E97" points="1.118,176.611 44.415,192.333 59.114,166.246 20.379,152.153 	"/>
	
		<path fill="none" stroke="#163558" stroke-width="3.4442" stroke-linecap="round" stroke-linejoin="round" stroke-miterlimit="10" d="
		M153.186,274.188c0,0,8.38,21.771,15.116,23.401c6.735,1.633,13.737-6.414,13.737-6.414l12.873,7.132l34.087-38.936
		l-128.781-46.774c0,0-19.641,14.858,1.945,27.183c0,0-13.629,11.748,8.088,23.703c0,0-6.045,8.799,2.591,16.412
		c8.635,7.613,24.386-0.103,24.386-0.103S149.988,289.721,153.186,274.188z"/>
	
		<polygon fill="none" stroke="#163558" stroke-width="3.4442" stroke-linecap="round" stroke-linejoin="round" stroke-miterlimit="10" points="
		221.325,268.139 259.082,300.424 268.748,273.806 228.999,259.373 	"/>
	
		<polygon fill="none" stroke="#163558" stroke-width="3.4442" stroke-linecap="round" stroke-linejoin="round" stroke-miterlimit="10" points="
		249.286,327.403 256.078,308.698 238.79,318.298 234.519,311.454 203.224,300.092 201.863,328.506 	"/>
	
		<path fill="none" stroke="#163558" stroke-width="3.4442" stroke-linecap="round" stroke-linejoin="round" stroke-miterlimit="10" d="
		M201.863,328.506l-20.696-0.188c0,0-1.863-16.253,21.07-7.61L201.863,328.506z"/>
	
		<polyline fill="none" stroke="#163558" stroke-width="3.4442" stroke-linecap="round" stroke-linejoin="round" stroke-miterlimit="10" points="
		100.218,212.598 1.722,176.831 15.027,238.668 108.195,270.328 	"/>
	
		<path fill="none" stroke="#163558" stroke-width="3.4442" stroke-linecap="round" stroke-linejoin="round" stroke-miterlimit="10" d="
		M44.103,192.221l20.811-36.014l21.66,32.296l53.725,14.624c0,0-4.083,7.887,6.71,11.808c10.792,3.923,12.42-7.3,12.42-7.3
		l66.971,12.927l16.063,24.156L229,259.373"/>
	
		<polyline fill="none" stroke="#163558" stroke-width="3.4442" stroke-linecap="round" stroke-linejoin="round" stroke-miterlimit="10" points="
		1.722,176.831 20.244,152.132 59.114,166.246 	"/>
	
		<polyline fill="none" stroke="#163558" stroke-width="3.4442" stroke-linecap="round" stroke-linejoin="round" stroke-miterlimit="10" points="
		64.913,156.208 32.548,106.58 89.446,82.704 	"/>
	
		<path fill="none" stroke="#163558" stroke-width="3.4442" stroke-linecap="round" stroke-linejoin="round" stroke-miterlimit="10" d="
		M106.27,193.867c0,0-7.199-3.099,1.335-12.326c8.536-9.229,11.07-18.329-3.438-19.744c0,0,28.116-20.025,21.16,37.256
		L106.27,193.867z"/>
	
		<polyline fill="none" stroke="#163558" stroke-width="3.4442" stroke-linecap="round" stroke-linejoin="round" stroke-miterlimit="10" points="
		126.323,178.505 158.107,157.504 210.967,155.127 220.367,185.594 188.562,213.26 	"/>
	
		<line fill="none" stroke="#163558" stroke-width="3.4442" stroke-linecap="round" stroke-linejoin="round" stroke-miterlimit="10" x1="215.386" y1="169.449" x2="296.639" y2="196.985"/>
	
		<polyline fill="none" stroke="#163558" stroke-width="3.4442" stroke-linecap="round" stroke-linejoin="round" stroke-miterlimit="10" points="
		121.491,161.853 85.245,69.94 105.888,64 	"/>
	
		<polygon fill="none" stroke="#163558" stroke-width="3.4442" stroke-linecap="round" stroke-linejoin="round" stroke-miterlimit="10" points="
		308.453,164.426 267.615,122.723 256.385,149.3 286,165.158 290.547,160.483 303.36,178.459 	"/>
	
		<polyline fill="none" stroke="#163558" stroke-width="3.4442" stroke-linecap="round" stroke-linejoin="round" stroke-miterlimit="10" points="
		278.517,133.854 244.989,98.83 230.583,149.585 280.429,173.469 279.624,162.219 	"/>
	
		<polygon fill="none" stroke="#163558" stroke-width="3.4442" stroke-linecap="round" stroke-linejoin="round" stroke-miterlimit="10" points="
		244.989,98.83 221.24,105.795 239.592,117.847 	"/>
	
		<path fill="none" stroke="#163558" stroke-width="3.4442" stroke-linecap="round" stroke-linejoin="round" stroke-miterlimit="10" d="
		M281.573,136.977l-1.245-19.001c0,0-10.257-0.98-7.935,9.482L281.573,136.977z"/>
	
		<path fill="none" stroke="#163558" stroke-width="3.4442" stroke-linecap="round" stroke-linejoin="round" stroke-miterlimit="10" d="
		M201.503,86.109l74.864,12.514c0,0,4.99,9.717-0.816,20.146"/>
	
		<line fill="none" stroke="#163558" stroke-width="1.1481" stroke-linecap="round" stroke-linejoin="round" stroke-miterlimit="10" x1="242.462" y1="244.719" x2="281.442" y2="253.987"/>
	
		<line fill="none" stroke="#163558" stroke-width="1.1481" stroke-linecap="round" stroke-linejoin="round" stroke-miterlimit="10" x1="255.822" y1="256.311" x2="254.039" y2="237.517"/>
	
		<line fill="none" stroke="#163558" stroke-width="1.1481" stroke-linecap="round" stroke-linejoin="round" stroke-miterlimit="10" x1="258.381" y1="253.315" x2="260.202" y2="241.551"/>
	
		<line fill="none" stroke="#163558" stroke-width="1.1481" stroke-linecap="round" stroke-linejoin="round" stroke-miterlimit="10" x1="220.367" y1="185.594" x2="293.686" y2="212.416"/>
	
		<path fill="none" stroke="#163558" stroke-width="1.1481" stroke-linecap="round" stroke-linejoin="round" stroke-miterlimit="10" d="
		M261.694,293.229c0,0-35.494-24.694-31.922-33.576"/>
	
		<path fill="none" stroke="#163558" stroke-width="3.4442" stroke-linecap="round" stroke-linejoin="round" stroke-miterlimit="10" d="
		M184.763,84.09l-28.736-17.354l-30.141,29.2l15.59,29.787c-1.7,0.889-3.089,2.383-3.796,4.326c-1.5,4.133,0.633,8.697,4.766,10.198
		c2.188,0.794,4.491,0.563,6.403-0.438l9.259,17.693l62.547-2.565l-1.962-49.979l-18.576-11.63c0,0,5.39-7-2.721-11.574
		C189.285,77.183,184.763,84.09,184.763,84.09z"/>
	
		<path fill="none" stroke="#163558" stroke-width="3.4442" stroke-linecap="round" stroke-linejoin="round" stroke-miterlimit="10" d="
		M125.885,95.935c0,0,31.455,15.248,55.499-13.887"/>
	
		<path fill="none" stroke="#163558" stroke-width="3.4442" stroke-linecap="round" stroke-linejoin="round" stroke-miterlimit="10" d="
		M135.995,115.251c0,0,6.592-5.752,5.62-15.474"/>
	
		<path fill="none" stroke="#163558" stroke-width="3.4442" stroke-linecap="round" stroke-linejoin="round" stroke-miterlimit="10" d="
		M137.297,133.988c0,0-17.896-0.809-13.607-17.432c0,0-38.944-17.688-9.946-46.854c0,0-33.119-21.796-10.801-48.502
		c22.318-26.707,51.607,13.73,51.607,13.73s11.526-22.564,35.413-13.892c23.888,8.673,32.607,32.808,16.247,52.109
		c0,0,24.535-4.459,25.83,18.063"/>
	
		<line fill="none" stroke="#163558" stroke-width="1.1481" stroke-linecap="round" stroke-linejoin="round" stroke-miterlimit="10" x1="63.75" y1="199.355" x2="70.838" y2="165.045"/>
	
		<line fill="none" stroke="#163558" stroke-width="1.1481" stroke-linecap="round" stroke-linejoin="round" stroke-miterlimit="10" x1="49.862" y1="182.256" x2="66.067" y2="188.14"/>
	
		<line fill="none" stroke="#163558" stroke-width="1.1481" stroke-linecap="round" stroke-linejoin="round" stroke-miterlimit="10" x1="57.131" y1="171.706" x2="68.545" y2="175.852"/>
	
		<polyline fill="none" stroke="#163558" stroke-width="1.1481" stroke-linecap="round" stroke-linejoin="round" stroke-miterlimit="10" points="
		65.531,190.733 72.791,190.581 74.838,184.938 81.621,199.899 88.444,199.056 	"/>
	
		<line fill="none" stroke="#163558" stroke-width="1.1481" stroke-linecap="round" stroke-linejoin="round" stroke-miterlimit="10" x1="141.87" y1="211.924" x2="140.148" y2="227.106"/>
	
		<line fill="none" stroke="#163558" stroke-width="1.1481" stroke-linecap="round" stroke-linejoin="round" stroke-miterlimit="10" x1="156.157" y1="232.924" x2="155.72" y2="214.315"/>
	
		<polyline fill="none" stroke="#163558" stroke-width="1.1481" stroke-linecap="round" stroke-linejoin="round" stroke-miterlimit="10" points="
		59.945,148.585 52.415,115.223 67.482,118.861 56.571,109.802 82.856,91.383 54.752,97.263 	"/>
	
		<line fill="none" stroke="#163558" stroke-width="1.1481" stroke-linecap="round" stroke-linejoin="round" stroke-miterlimit="10" x1="148.593" y1="73.938" x2="84.071" y2="7.019"/>
	
		<line fill="none" stroke="#163558" stroke-width="1.1481" stroke-linecap="round" stroke-linejoin="round" stroke-miterlimit="10" x1="114.95" y1="39.044" x2="80.042" y2="34.87"/>
	
		<line fill="none" stroke="#163558" stroke-width="1.1481" stroke-linecap="round" stroke-linejoin="round" stroke-miterlimit="10" x1="186.863" y1="81.962" x2="185.738" y2="0.574"/>
	
		<line fill="none" stroke="#1C3761" stroke-width="1.1481" stroke-linecap="round" stroke-linejoin="round" stroke-miterlimit="10" x1="186.143" y1="29.802" x2="168.688" y2="13.315"/>
	
		<line fill="none" stroke="#163558" stroke-width="1.1481" stroke-linecap="round" stroke-linejoin="round" stroke-miterlimit="10" x1="136.148" y1="85.993" x2="86.332" y2="97.219"/>
	
		<line fill="none" stroke="#163558" stroke-width="1.1481" stroke-linecap="round" stroke-linejoin="round" stroke-miterlimit="10" x1="111.24" y1="91.606" x2="101.723" y2="102.807"/>
	
		<line fill="none" stroke="#163558" stroke-width="1.1481" stroke-linecap="round" stroke-linejoin="round" stroke-miterlimit="10" x1="141.476" y1="125.722" x2="119.47" y2="140.793"/>
	
		<line fill="none" stroke="#163558" stroke-width="1.1481" stroke-linecap="round" stroke-linejoin="round" stroke-miterlimit="10" x1="132.002" y1="132.902" x2="129.088" y2="140.929"/>
	
		<line fill="none" stroke="#163558" stroke-width="1.1481" stroke-linecap="round" stroke-linejoin="round" stroke-miterlimit="10" x1="220.654" y1="154.938" x2="296.639" y2="196.985"/>
	
		<line fill="none" stroke="#163558" stroke-width="1.1481" stroke-linecap="round" stroke-linejoin="round" stroke-miterlimit="10" x1="267.2" y1="154.136" x2="272.446" y2="139.686"/>
	
		<line fill="none" stroke="#163558" stroke-width="1.1481" stroke-linecap="round" stroke-linejoin="round" stroke-miterlimit="10" x1="276.75" y1="160.206" x2="281.834" y2="146.206"/>
	
		<line fill="none" stroke="#163558" stroke-width="1.1481" stroke-linecap="round" stroke-linejoin="round" stroke-miterlimit="10" x1="216.531" y1="304.924" x2="210.654" y2="321.109"/>
	
		<line fill="none" stroke="#163558" stroke-width="1.1481" stroke-linecap="round" stroke-linejoin="round" stroke-miterlimit="10" x1="227.255" y1="308.818" x2="222.912" y2="320.776"/>
	
		<path fill="none" stroke="#163558" stroke-width="1.1481" stroke-linecap="round" stroke-linejoin="round" stroke-miterlimit="10" d="
		M146.088,204.825c0,0-3.521,4.118,2.292,6.332s3.815-4.622,3.815-4.622s-7.136,0.868,2.519,3.155"/>
	
		<path fill="none" stroke="#163558" stroke-width="1.1481" stroke-linecap="round" stroke-linejoin="round" stroke-miterlimit="10" d="
		M153.186,274.188l-7.671-4.46c0,0,1.456-5.604-6.375-11.178c0,0,6.402-6.057,2.313-14.353c0,0,10.507,0.146,13.579-11.685"/>
	
		<path fill="none" stroke="#163558" stroke-width="1.1481" stroke-linecap="round" stroke-linejoin="round" stroke-miterlimit="10" d="
		M141.204,274.104c0,0,5.662-1.17,4.163-7.49"/>
	
		<path fill="none" stroke="#163558" stroke-width="1.1481" stroke-linecap="round" stroke-linejoin="round" stroke-miterlimit="10" d="
		M133.257,262.218c0,0,4.944-1.004,8.364-7.271"/>
	
		<path fill="none" stroke="#163558" stroke-width="1.1481" stroke-linecap="round" stroke-linejoin="round" stroke-miterlimit="10" d="
		M186.983,293.916c0,0,14.157-13.461,2.471-33.838l-3.158,0.43l1.979,0.721"/>
	
		<path fill="none" stroke="#163558" stroke-width="1.1481" stroke-linecap="round" stroke-linejoin="round" stroke-miterlimit="10" d="
		M158.767,269.751c0,0-8.853-1.688-6.307-8.704c2.547-7.013,10.567-3.031,10.567-3.031"/>
	
		<line fill="none" stroke="#163558" stroke-width="1.1481" stroke-linecap="round" stroke-linejoin="round" stroke-miterlimit="10" x1="104.614" y1="185.529" x2="114.175" y2="195.73"/>
	
		<line fill="none" stroke="#163558" stroke-width="1.1481" stroke-linecap="round" stroke-linejoin="round" stroke-miterlimit="10" x1="107.604" y1="181.542" x2="121.256" y2="197.946"/>
	
		<line fill="none" stroke="#163558" stroke-width="1.1481" stroke-linecap="round" stroke-linejoin="round" stroke-miterlimit="10" x1="110.989" y1="176.719" x2="125.048" y2="195.246"/>
	
		<line fill="none" stroke="#163558" stroke-width="1.1481" stroke-linecap="round" stroke-linejoin="round" stroke-miterlimit="10" x1="114.023" y1="172.827" x2="125.988" y2="186.596"/>
	
		<line fill="none" stroke="#163558" stroke-width="1.1481" stroke-linecap="round" stroke-linejoin="round" stroke-miterlimit="10" x1="114.453" y1="167.963" x2="126.323" y2="178.505"/>
	
		<line fill="none" stroke="#163558" stroke-width="1.1481" stroke-linecap="round" stroke-linejoin="round" stroke-miterlimit="10" x1="109.941" y1="161.152" x2="125.271" y2="170.347"/>
	
		<path fill="none" stroke="#163558" stroke-width="1.1481" stroke-linecap="round" stroke-linejoin="round" stroke-miterlimit="10" d="
		M152.425,193.278c0,0-11.224-0.064-9.183-6.187c1.654-4.959,8.973-3.666,8.973-3.666"/>
	
		<path fill="none" stroke="#163558" stroke-width="1.1481" stroke-linecap="round" stroke-linejoin="round" stroke-miterlimit="10" d="
		M151.082,171.189c0,0-11.112-3.206-0.068-5.505"/>
	
		<path fill="none" stroke="#163558" stroke-width="1.1481" stroke-linecap="round" stroke-linejoin="round" stroke-miterlimit="10" d="
		M150.217,176.707c0,0,17.594,1.038,20.127-14.761l4.024,10.896c0,0,5.479-4.236,10.495-3.841c0,0,7.746,9.931-8.519,29.3
		l-2.972-1.079l1.463-0.11"/>
	
		<path fill="none" stroke="#163558" stroke-width="1.1481" stroke-linecap="round" stroke-linejoin="round" stroke-miterlimit="10" d="
		M160.027,108.439c0,0-4.246,9.227,7.954,21.074l9.195-8.066l-3.949-3.564l-2.704,2.898"/>
	
		<path fill="none" stroke="#163558" stroke-width="1.1481" stroke-linecap="round" stroke-linejoin="round" stroke-miterlimit="10" d="
		M164.813,142.689c0,0,27.11-1.706,30.172-38.629l-2.929-0.343l0.884,1.091"/>
	
		<path fill="none" stroke="#163558" stroke-width="1.1481" stroke-linecap="round" stroke-linejoin="round" stroke-miterlimit="10" d="
		M147.22,120.952c0,0-4.009-4.932-0.957-8.417c3.054-3.484,7.187-1.834,7.187-1.834"/>
	
		<path fill="none" stroke="#163558" stroke-width="1.1481" stroke-linecap="round" stroke-linejoin="round" stroke-miterlimit="10" d="
		M167.372,100.896c0,0-2.694-10.572,9.241-8.029"/>
	
		<path fill="none" stroke="#163558" stroke-width="1.1481" stroke-linecap="round" stroke-linejoin="round" stroke-miterlimit="10" d="
		M143.12,129.697c0,0-4.292,2.022-1.845,5.086c2.447,3.063,5.353-0.359,5.353-0.359s-4.347-2.825-1.216,3.348"/>
	
		<path fill="none" stroke="#163558" stroke-width="1.1481" stroke-linecap="round" stroke-linejoin="round" stroke-miterlimit="10" d="
		M189.767,86.772c0,0,1.682-4.003,5.288-1.837c3.607,2.165,0.921,4.938,0.921,4.938s-3.09-4.105,2.259-0.334"/>
	
		<path fill="none" stroke="#163558" stroke-width="1.1481" stroke-linecap="round" stroke-linejoin="round" stroke-miterlimit="10" d="
		M189.443,124.809c0,0-6.189-1.163-8.124,1.646c-1.937,2.81,0.867,4.76-1.128,6.469c-1.995,1.71-3.688,0.117-2.196,4.813
		c0,0,7.181,4.165,11.298-2.127C193.409,129.317,189.443,124.809,189.443,124.809z"/>
	
		<path fill="none" stroke="#163558" stroke-width="1.1481" stroke-linecap="round" stroke-linejoin="round" stroke-miterlimit="10" d="
		M130.209,91.746c0,0,28.734,9.159,46.377-12.594"/>
	
		<path fill="none" stroke="#163558" stroke-width="1.1481" stroke-linecap="round" stroke-linejoin="round" stroke-miterlimit="10" d="
		M171.641,76.434c0,0-9.457,14.701-36.267,10.679"/>
	
		<path fill="none" stroke="#163558" stroke-width="1.1481" stroke-linecap="round" stroke-linejoin="round" stroke-miterlimit="10" d="
		M140.541,81.737c0,0,18.978,1.975,26.542-8.325"/>
	
		<path fill="none" stroke="#163558" stroke-width="1.1481" stroke-linecap="round" stroke-linejoin="round" stroke-miterlimit="10" d="
		M147.284,75.206c0,0,10.457-0.046,14.374-5.07"/>
	
		<path fill="none" stroke="#163558" stroke-width="1.1481" stroke-linecap="round" stroke-linejoin="round" stroke-miterlimit="10" d="
		M131.466,106.6c0,0,2.576-2.078,2.045-8.114"/>
	
		<path fill="none" stroke="#163558" stroke-width="1.1481" stroke-linecap="round" stroke-linejoin="round" stroke-miterlimit="10" d="
		M134.076,111.585c0,0,4.443-6.092,3.398-12.304"/>
	
		<line fill="none" stroke="#163558" stroke-width="1.1481" stroke-linecap="round" stroke-linejoin="round" stroke-miterlimit="10" x1="202.454" y1="90.094" x2="278.273" y2="106.03"/>
	
		<line fill="none" stroke="#163558" stroke-width="1.1481" stroke-linecap="round" stroke-linejoin="round" stroke-miterlimit="10" x1="204.104" y1="95.835" x2="231.52" y2="102.78"/>
	
		<line fill="none" stroke="#163558" stroke-width="1.1481" stroke-linecap="round" stroke-linejoin="round" stroke-miterlimit="10" x1="254.253" y1="108.508" x2="277.027" y2="114.7"/>
	
		<line fill="none" stroke="#163558" stroke-width="1.1481" stroke-linecap="round" stroke-linejoin="round" stroke-miterlimit="10" x1="263.53" y1="117.414" x2="272.904" y2="120.817"/>
</g>
<circle fill="#32ABE2" stroke="#163558" stroke-width="3.4442" stroke-linecap="round" stroke-linejoin="round" stroke-miterlimit="10" cx="371.021" cy="211.588" r="168.452"/>
<g>
	<polygon fill="#FFFFFF" points="437.672,75.508 298.701,75.508 284.397,37.441 451.976,37.441 	"/>
</g>
<g>
	<path fill="#32ABE2" d="M334.506,67.615v-1.899l2.427-2.355c5.84-5.558,8.478-8.512,8.513-11.958c0-2.321-1.125-4.467-4.537-4.467
		c-2.075,0-3.799,1.055-4.854,1.935l-0.984-2.181c1.583-1.337,3.833-2.321,6.471-2.321c4.924,0,7,3.376,7,6.647
		c0,4.221-3.06,7.632-7.878,12.274l-1.829,1.688v0.069h10.271v2.567H334.506z"/>
	<path fill="#32ABE2" d="M367.744,55.938c0,7.771-2.884,12.063-7.949,12.063c-4.467,0-7.491-4.186-7.562-11.747
		c0-7.667,3.306-11.888,7.947-11.888C365,44.367,367.744,48.658,367.744,55.938z M355.328,56.29c0,5.944,1.829,9.32,4.643,9.32
		c3.166,0,4.679-3.693,4.679-9.531c0-5.627-1.441-9.32-4.644-9.32C357.298,46.759,355.328,50.064,355.328,56.29z"/>
	<path fill="#32ABE2" d="M377.313,47.638h-0.07l-3.976,2.146l-0.598-2.356l4.995-2.673h2.638v22.861h-2.989V47.638L377.313,47.638z"
		/>
	<path fill="#32ABE2" d="M403.479,44.754v2.04l-9.952,20.821h-3.2l9.918-20.224v-0.07H389.06v-2.567H403.479z"/>
</g>
<path fill="#1C3456" d="M423.197,90.87h-26.146l-9.927,3.563h-37.989l-9.141-3.563h-25.213c-9.757,0-17.668,7.526-17.668,16.81
	v233.802c0,9.283,7.911,16.811,17.668,16.811h108.416c9.757,0,17.667-7.527,17.667-16.811V107.679
	C440.864,98.396,432.954,90.87,423.197,90.87z M418.825,96.965c1.27,0,2.3,1.028,2.3,2.297c0,1.27-1.03,2.299-2.3,2.299
	s-2.3-1.029-2.3-2.299C416.525,97.993,417.556,96.965,418.825,96.965z M334.191,346.113l-4.256,0.056
	c-0.367,0-0.666-0.295-0.666-0.663c0-0.367,0.299-0.667,0.666-0.667l4.162-0.051c0.107-0.026,1.112-0.244,1.112-1.415
	c0-1.169-0.962-1.392-1.155-1.425l-4.996,0.008c0.002,0.004,0.002,0.016,0.002,0.016l-0.082,0.003h-0.003l-0.001,0.878l-3.237-1.642
	l3.254-1.483l-0.007,0.89h0.002h0.066v0.011h5.103c0.892,0.121,2.39,0.839,2.39,2.745
	C336.545,345.28,335.004,345.996,334.191,346.113z M377.797,347.32h-14.893v-4.842l7.445-3.429l7.447,3.429V347.32z
	 M410.884,346.509h-5.064c-0.494,0-0.891-0.303-0.891-0.668c0-0.367,0.396-0.667,0.891-0.667h5.064c0.489,0,0.887,0.3,0.887,0.667
	C411.771,346.206,411.373,346.509,410.884,346.509z M404.929,343.844c0-0.369,0.396-0.666,0.891-0.666h5.061
	c0.49,0,0.889,0.297,0.889,0.666c0,0.367-0.398,0.663-0.889,0.663h-5.061C405.325,344.507,404.929,344.211,404.929,343.844z
	 M410.94,342.418h-5.063c-0.491,0-0.89-0.297-0.89-0.663c0-0.369,0.398-0.668,0.89-0.668h5.063c0.492,0,0.891,0.299,0.891,0.668
	C411.831,342.121,411.433,342.418,410.94,342.418z M433.421,329.559H304.148V113.377h129.272V329.559z"/>
</svg>
