<?xml version="1.0" encoding="utf-8"?>
<!-- Generator: Adobe Illustrator 16.0.0, SVG Export Plug-In . SVG Version: 6.00 Build 0)  -->
<!DOCTYPE svg PUBLIC "-//W3C//DTD SVG 1.1//EN" "http://www.w3.org/Graphics/SVG/1.1/DTD/svg11.dtd">
<svg version="1.1" id="Capa_1" xmlns="http://www.w3.org/2000/svg" xmlns:xlink="http://www.w3.org/1999/xlink" x="0px" y="0px"
	 width="778px" height="395px" viewBox="0 0 778 395" enable-background="new 0 0 778 395" xml:space="preserve">
<g>
	<g>
		<path fill="#C58839" d="M595.439,197.076l-29.82,55.529l42.484,24.805l19.693-9.693c0,0,1.779,9.084,12.225,3.598
			c10.445-5.482,4.072-11.658,4.072-11.658l3.262-2.09c0,0-8.229-23.768,5.357-43.615c0,0-7.844-1.371-9.816-13.969l-11.309,0.756
			c0,0-0.158-7.939-7.135-8.174c-6.975-0.232-9.211,7.32-9.211,7.32L595.439,197.076z"/>
		<path fill="#D2B59B" d="M531.646,195.043l7.279,41.623l30.861,8.176l25.674-45.77l-0.33-38.893l-17.664-11.166l-10.961,9.93
			c0,0-9.41-8.451-15.07,0.877c-5.662,9.324,0.344,13.72,0.344,13.72L531.646,195.043z"/>
		<path fill="#C58839" d="M502.07,311.381l9.172,12.072l37.875-8.852l15.824,8.457c0,0,6.592-7.291-3.766-11.523l6.48-1.297
			l-17.166-24.359l-28.412,17.885l1.668,5.924L502.07,311.381z"/>
		<polygon fill="#B21E6F" points="531.646,195.043 538.926,236.666 569.787,244.842 565.619,252.605 608.104,277.41 
			586.258,288.988 564.525,264.715 516.986,295.057 527.414,300.322 522.078,303.764 523.746,309.688 502.07,311.381 
			438.756,231.701 472.068,205.229 477.574,224.805 506.229,223.484 		"/>
		<path fill="#B21E6F" d="M425.816,216.182l-5.23-6.582l47.566-15.129l3.582,10.338l-1.133,0.898
			C470.602,205.707,464.1,198.752,425.816,216.182z"/>
		<path fill="#D2B59B" d="M545.131,146.191l12.504,10.012c0,0,4.695-2.822,8.871,2.74l40.357-38.103l38.285-1.337l-19.482-36.82
			L545.131,146.191z"/>
		<path fill="#BCD9EC" d="M665.412,119.271l39.117-1.008l-9.906,61.613l13.613,2.413l-5.533,21.277
			c5.059-1.287,15.686-2.98,24.818,2.229c2.928-1.264,5.742-2.922,8.361-5c15.93-12.658,18.58-35.832,5.922-51.764
			c-0.74-0.934-1.52-1.814-2.33-2.654c1.342-0.678,2.635-1.502,3.857-2.475c9.721-7.723,11.34-21.865,3.615-31.586
			c-6.469-8.14-17.434-10.593-26.537-6.643c-0.902-1.833-2.006-3.599-3.328-5.263c-9.961-12.534-28.195-14.621-40.729-4.661
			C668.924,101.654,665.166,110.465,665.412,119.271z"/>
		<path fill="#815224" d="M532.723,157.031l-60.988,47.777l-14.613-48.805l11.719-8.002c0,0-11.389-24.035,30.396-15.2l7.168-3.709
			c0,0,4.424,4.347,13.01,0.323c0,0,1.041,7.93,10.811,9.588C530.225,139.004,525.063,147.098,532.723,157.031z"/>
		<path fill="#815224" d="M403.199,186.957l34.707-58.21c0,0,14.828,7.28-4.225,21.444l16.559,12.261l-25.287,20.43l-8.203-0.174
			l-1.461,20.227L403.199,186.957z"/>
		<polygon fill="#3F688B" points="594.502,55.631 585.644,53.717 598.139,43.788 606.998,45.701 		"/>
		<polygon fill="#3F688B" points="607.047,59.784 598.188,57.872 610.682,47.943 619.541,49.856 		"/>
		<polygon fill="#3F688B" points="620.488,63.226 611.629,61.312 624.123,51.383 632.984,53.297 		"/>
		<polygon fill="#3F688B" points="633.482,67.021 624.623,65.108 637.117,55.182 645.977,57.093 		"/>
		<polygon fill="#3F688B" points="575.143,71.014 566.285,69.102 578.779,59.172 587.637,61.085 		"/>
		<polygon fill="#3F688B" points="587.688,75.168 578.828,73.256 591.322,63.327 600.182,65.24 		"/>
		<polygon fill="#3F688B" points="601.129,78.608 592.269,76.695 604.766,66.767 613.625,68.68 		"/>
		<polygon fill="#3F688B" points="614.123,82.407 605.264,80.492 617.758,70.563 626.617,72.477 		"/>
		<polygon fill="#3F688B" points="554.301,87.577 545.441,85.664 557.936,75.734 566.795,77.648 		"/>
		<polygon fill="#3F688B" points="566.844,91.731 557.984,89.818 570.479,79.89 579.338,81.803 		"/>
		<polygon fill="#3F688B" points="580.287,95.171 571.428,93.259 583.922,83.33 592.781,85.243 		"/>
		<polygon fill="#3F688B" points="593.279,98.969 584.422,97.055 596.916,87.126 605.775,89.04 		"/>
		<polygon fill="#3F688B" points="704.529,118.264 670.924,175.676 694.623,179.877 		"/>
		<polygon fill="#FFFFFF" points="704.529,118.264 655.129,119.54 686.65,130.518 676.652,141.268 689.4,137.129 690.932,168.666 
			700.756,145.771 		"/>
		<polygon fill="#3F688B" points="661.406,54.77 625.344,83.428 639.873,109.607 672.16,83.986 		"/>
		
			<path fill="none" stroke="#1E3557" stroke-width="3.4442" stroke-linecap="round" stroke-linejoin="round" stroke-miterlimit="10" d="
			M498.674,133.248c0,0-22.936-4.258-27.854,0.625c-4.916,4.885-1.729,15.063-1.729,15.063l-12.814,7.237l15.326,49.425
			l107.262-85.236c0,0-2.371-24.512-24.166-12.571c0,0-2.871-17.759-24.426-5.518c0,0-4.332-9.755-15.34-6.386
			c-11.008,3.371-12.682,20.831-12.682,20.831S487.115,122.392,498.674,133.248z"/>
		
			<polygon fill="none" stroke="#1E3557" stroke-width="3.4442" stroke-linecap="round" stroke-linejoin="round" stroke-miterlimit="10" points="
			468.152,194.471 420.877,209.736 438.496,231.908 471.604,205.598 		"/>
		
			<polygon fill="none" stroke="#1E3557" stroke-width="3.4442" stroke-linecap="round" stroke-linejoin="round" stroke-miterlimit="10" points="
			403.02,187.266 415.4,202.846 416.271,183.088 424.34,183.033 450.406,162.32 426.91,146.283 		"/>
		
			<path fill="none" stroke="#1E3557" stroke-width="3.4442" stroke-linecap="round" stroke-linejoin="round" stroke-miterlimit="10" d="
			M426.91,146.283l10.994-17.537c0,0,14.824,6.922-4.547,21.938L426.91,146.283z"/>
		
			<polyline fill="none" stroke="#1E3557" stroke-width="3.4442" stroke-linecap="round" stroke-linejoin="round" stroke-miterlimit="10" points="
			578.865,120.361 660.904,55.17 601.26,34.133 525.518,96.938 		"/>
		
			<path fill="none" stroke="#1E3557" stroke-width="3.4442" stroke-linecap="round" stroke-linejoin="round" stroke-miterlimit="10" d="
			M625.604,83.221l19.783,36.582l-38.854,1.547l-40.586,38.119c0,0-4.578-7.607-13.566-0.462
			c-8.988,7.142-0.285,14.402-0.285,14.402l-46.066,50.293l-28.99,1.041l-5.436-19.145"/>
		
			<polyline fill="none" stroke="#1E3557" stroke-width="3.4442" stroke-linecap="round" stroke-linejoin="round" stroke-miterlimit="10" points="
			660.904,55.17 672.248,83.881 639.873,109.607 		"/>
		
			<polyline fill="none" stroke="#1E3557" stroke-width="3.4442" stroke-linecap="round" stroke-linejoin="round" stroke-miterlimit="10" points="
			645.387,119.803 704.609,118.206 695.162,179.186 		"/>
		
			<path fill="none" stroke="#1E3557" stroke-width="3.4442" stroke-linecap="round" stroke-linejoin="round" stroke-miterlimit="10" d="
			M591.654,135.323c0,0,6.406-4.512,9.799,7.591c3.393,12.102,9.814,19.021,18.617,7.4c0,0,2.34,34.442-42.814-1.469
			L591.654,135.323z"/>
		
			<polyline fill="none" stroke="#1E3557" stroke-width="3.4442" stroke-linecap="round" stroke-linejoin="round" stroke-miterlimit="10" points="
			594.238,160.449 595.488,198.521 569.836,244.801 538.957,236.859 532.055,195.287 		"/>
		
			<line fill="none" stroke="#1E3557" stroke-width="3.4442" stroke-linecap="round" stroke-linejoin="round" stroke-miterlimit="10" x1="555.32" y1="241.068" x2="489.332" y2="295.883"/>
		
			<polyline fill="none" stroke="#1E3557" stroke-width="3.4442" stroke-linecap="round" stroke-linejoin="round" stroke-miterlimit="10" points="
			610.953,165.049 708.236,182.29 702.488,202.986 		"/>
		
			<polygon fill="none" stroke="#1E3557" stroke-width="3.4442" stroke-linecap="round" stroke-linejoin="round" stroke-miterlimit="10" points="
			510.873,322.99 567.783,310.031 551.019,286.549 522.006,303.477 523.607,309.799 501.588,311.307 		"/>
		
			<polyline fill="none" stroke="#1E3557" stroke-width="3.4442" stroke-linecap="round" stroke-linejoin="round" stroke-miterlimit="10" points="
			552.592,313.49 599.984,303.264 564.287,264.416 517.84,294.379 527.848,299.582 		"/>
		
			<polygon fill="none" stroke="#1E3557" stroke-width="3.4442" stroke-linecap="round" stroke-linejoin="round" stroke-miterlimit="10" points="
			599.984,303.264 606.486,279.383 586.609,288.707 		"/>
		
			<path fill="none" stroke="#1E3557" stroke-width="3.4442" stroke-linecap="round" stroke-linejoin="round" stroke-miterlimit="10" d="
			M548.332,314.459l16.838,8.891c0,0,6.207-8.229-3.924-11.727L548.332,314.459z"/>
		
			<path fill="none" stroke="#1E3557" stroke-width="3.4442" stroke-linecap="round" stroke-linejoin="round" stroke-miterlimit="10" d="
			M633.592,272.873l-49.857,57.23c0,0-10.893-0.836-16.736-11.242"/>
		
			<line fill="none" stroke="#1E3557" stroke-width="1.1481" stroke-linecap="round" stroke-linejoin="round" stroke-miterlimit="10" x1="477.039" y1="224.742" x2="448.734" y2="253.102"/>
		
			<line fill="none" stroke="#1E3557" stroke-width="1.1481" stroke-linecap="round" stroke-linejoin="round" stroke-miterlimit="10" x1="460.168" y1="230.057" x2="477.115" y2="238.377"/>
		
			<line fill="none" stroke="#1E3557" stroke-width="1.1481" stroke-linecap="round" stroke-linejoin="round" stroke-miterlimit="10" x1="461.379" y1="233.805" x2="470.451" y2="241.514"/>
		
			<line fill="none" stroke="#1E3557" stroke-width="1.1481" stroke-linecap="round" stroke-linejoin="round" stroke-miterlimit="10" x1="538.957" y1="236.859" x2="477.736" y2="285.289"/>
		
			<path fill="none" stroke="#1E3557" stroke-width="1.1481" stroke-linecap="round" stroke-linejoin="round" stroke-miterlimit="10" d="
			M425.639,215.729c0,0,39.623-17.313,45.32-9.619"/>
		
			<path fill="none" stroke="#1E3557" stroke-width="3.4442" stroke-linecap="round" stroke-linejoin="round" stroke-miterlimit="10" d="
			M644.076,259.668l29.832-15.398l-9.098-40.967l-33.539-2.313c0.133-1.912-0.414-3.877-1.701-5.498
			c-2.734-3.441-7.74-4.015-11.184-1.279c-1.82,1.447-2.83,3.531-2.979,5.686l-19.92-1.377l-30.563,54.633l43.605,24.496
			l19.635-9.738c0,0,3.141,8.258,11.283,3.74C647.594,267.139,644.076,259.668,644.076,259.668z"/>
		
			<path fill="none" stroke="#1E3557" stroke-width="3.4442" stroke-linecap="round" stroke-linejoin="round" stroke-miterlimit="10" d="
			M664.811,203.303c0,0-29.459,18.816-17.225,54.555"/>
		
			<path fill="none" stroke="#1E3557" stroke-width="3.4442" stroke-linecap="round" stroke-linejoin="round" stroke-miterlimit="10" d="
			M643.061,201.803c0,0,1.451,8.629,10.242,12.891"/>
		
			<path fill="none" stroke="#1E3557" stroke-width="3.4442" stroke-linecap="round" stroke-linejoin="round" stroke-miterlimit="10" d="
			M626.416,193.102c0,0,10.059-14.822,21.977-2.465c0,0,35.457-23.92,45.125,16.057c0,0,35.91-16.804,46.979,16.193
			c11.068,32.996-38.717,36.779-38.717,36.779s13.188,21.633-6.707,37.443c-19.896,15.811-45.023,10.605-52.902-13.441
			c0,0-9.047,23.238-28.914,12.551"/>
		
			<line fill="none" stroke="#1E3557" stroke-width="1.1481" stroke-linecap="round" stroke-linejoin="round" stroke-miterlimit="10" x1="609.238" y1="96.226" x2="634.758" y2="120.226"/>
		
			<line fill="none" stroke="#1E3557" stroke-width="1.1481" stroke-linecap="round" stroke-linejoin="round" stroke-miterlimit="10" x1="631.078" y1="93.343" x2="617.58" y2="104.068"/>
		
			<line fill="none" stroke="#1E3557" stroke-width="1.1481" stroke-linecap="round" stroke-linejoin="round" stroke-miterlimit="10" x1="636.26" y1="105.06" x2="626.752" y2="112.615"/>
		
			<polyline fill="none" stroke="#1E3557" stroke-width="1.1481" stroke-linecap="round" stroke-linejoin="round" stroke-miterlimit="10" points="
			615.65,102.255 611.98,108.52 615.715,113.219 599.418,111.164 596.566,117.421 		"/>
		
			<line fill="none" stroke="#1E3557" stroke-width="1.1481" stroke-linecap="round" stroke-linejoin="round" stroke-miterlimit="10" x1="557.635" y1="156.203" x2="545.607" y2="146.79"/>
		
			<line fill="none" stroke="#1E3557" stroke-width="1.1481" stroke-linecap="round" stroke-linejoin="round" stroke-miterlimit="10" x1="532.273" y1="157.387" x2="548.348" y2="166.754"/>
		
			<polyline fill="none" stroke="#1E3557" stroke-width="1.1481" stroke-linecap="round" stroke-linejoin="round" stroke-miterlimit="10" points="
			654.479,119.558 686.844,130.606 675.855,141.537 689.287,136.986 691.219,169.027 700.922,142 		"/>
		
			<line fill="none" stroke="#1E3557" stroke-width="1.1481" stroke-linecap="round" stroke-linejoin="round" stroke-miterlimit="10" x1="671.664" y1="234.168" x2="762.459" y2="214.232"/>
		
			<line fill="none" stroke="#1E3557" stroke-width="1.1481" stroke-linecap="round" stroke-linejoin="round" stroke-miterlimit="10" x1="719.006" y1="223.773" x2="740.84" y2="196.217"/>
		
			<line fill="none" stroke="#1E3557" stroke-width="1.1481" stroke-linecap="round" stroke-linejoin="round" stroke-miterlimit="10" x1="644.791" y1="262.572" x2="714.721" y2="304.225"/>
		
			<line fill="none" stroke="#1F3562" stroke-width="1.1481" stroke-linecap="round" stroke-linejoin="round" stroke-miterlimit="10" x1="689.605" y1="289.268" x2="712.793" y2="283.029"/>
		
			<line fill="none" stroke="#1E3557" stroke-width="1.1481" stroke-linecap="round" stroke-linejoin="round" stroke-miterlimit="10" x1="667.908" y1="217.252" x2="684.426" y2="168.934"/>
		
			<line fill="none" stroke="#1E3557" stroke-width="1.1481" stroke-linecap="round" stroke-linejoin="round" stroke-miterlimit="10" x1="676.166" y1="193.094" x2="671.605" y2="179.119"/>
		
			<line fill="none" stroke="#1E3557" stroke-width="1.1481" stroke-linecap="round" stroke-linejoin="round" stroke-miterlimit="10" x1="631.271" y1="200.99" x2="629.953" y2="174.352"/>
		
			<line fill="none" stroke="#1E3557" stroke-width="1.1481" stroke-linecap="round" stroke-linejoin="round" stroke-miterlimit="10" x1="630.113" y1="189.16" x2="624.801" y2="182.475"/>
		
			<line fill="none" stroke="#1E3557" stroke-width="1.1481" stroke-linecap="round" stroke-linejoin="round" stroke-miterlimit="10" x1="564.926" y1="253.154" x2="489.332" y2="295.883"/>
		
			<line fill="none" stroke="#1E3557" stroke-width="1.1481" stroke-linecap="round" stroke-linejoin="round" stroke-miterlimit="10" x1="541.238" y1="293.23" x2="550.803" y2="305.266"/>
		
			<line fill="none" stroke="#1E3557" stroke-width="1.1481" stroke-linecap="round" stroke-linejoin="round" stroke-miterlimit="10" x1="531.068" y1="298.189" x2="540.332" y2="309.85"/>
		
			<line fill="none" stroke="#1E3557" stroke-width="1.1481" stroke-linecap="round" stroke-linejoin="round" stroke-miterlimit="10" x1="439.322" y1="171.127" x2="428.609" y2="157.646"/>
		
			<line fill="none" stroke="#1E3557" stroke-width="1.1481" stroke-linecap="round" stroke-linejoin="round" stroke-miterlimit="10" x1="430.391" y1="178.225" x2="422.475" y2="168.266"/>
		
			<path fill="none" stroke="#1E3557" stroke-width="1.1481" stroke-linecap="round" stroke-linejoin="round" stroke-miterlimit="10" d="
			M561.471,163.514c0,0-1.662-5.156-6.59-1.361c-4.93,3.795,1.938,5.67,1.938,5.67s2.996-6.536-4.006,0.494"/>
		
			<path fill="none" stroke="#1E3557" stroke-width="1.1481" stroke-linecap="round" stroke-linejoin="round" stroke-miterlimit="10" d="
			M498.674,133.248l7.816-4.201c0,0,4.012,4.174,12.859,0.42c0,0,1.809,8.625,11.018,9.486c0,0-5.625,8.875,2.846,17.688"/>
		
			<path fill="none" stroke="#1E3557" stroke-width="1.1481" stroke-linecap="round" stroke-linejoin="round" stroke-miterlimit="10" d="
			M505.018,123.084c0,0-1.967,5.436,4.203,7.468"/>
		
			<path fill="none" stroke="#1E3557" stroke-width="1.1481" stroke-linecap="round" stroke-linejoin="round" stroke-miterlimit="10" d="
			M519.307,122.537c0,0-1.734,4.737,1.816,10.933"/>
		
			<path fill="none" stroke="#1E3557" stroke-width="1.1481" stroke-linecap="round" stroke-linejoin="round" stroke-miterlimit="10" d="
			M464.17,151.713c0,0,4.057,19.111,27.535,19.827l1.289-2.918l-1.65,1.309"/>
		
			<path fill="none" stroke="#1E3557" stroke-width="1.1481" stroke-linecap="round" stroke-linejoin="round" stroke-miterlimit="10" d="
			M499.533,140.327c0,0,6.072-6.659,10.715-0.817s-2.947,10.592-2.947,10.592"/>
		
			<line fill="none" stroke="#1E3557" stroke-width="1.1481" stroke-linecap="round" stroke-linejoin="round" stroke-miterlimit="10" x1="599.621" y1="138.279" x2="585.928" y2="141.082"/>
		
			<line fill="none" stroke="#1E3557" stroke-width="1.1481" stroke-linecap="round" stroke-linejoin="round" stroke-miterlimit="10" x1="601.453" y1="142.914" x2="580.332" y2="145.956"/>
		
			<line fill="none" stroke="#1E3557" stroke-width="1.1481" stroke-linecap="round" stroke-linejoin="round" stroke-miterlimit="10" x1="603.789" y1="148.32" x2="580.646" y2="150.602"/>
		
			<line fill="none" stroke="#1E3557" stroke-width="1.1481" stroke-linecap="round" stroke-linejoin="round" stroke-miterlimit="10" x1="605.516" y1="152.942" x2="587.523" y2="155.93"/>
		
			<line fill="none" stroke="#1E3557" stroke-width="1.1481" stroke-linecap="round" stroke-linejoin="round" stroke-miterlimit="10" x1="609.434" y1="155.854" x2="594.238" y2="160.449"/>
		
			<line fill="none" stroke="#1E3557" stroke-width="1.1481" stroke-linecap="round" stroke-linejoin="round" stroke-miterlimit="10" x1="617.596" y1="155.575" x2="601.736" y2="163.823"/>
		
			<path fill="none" stroke="#1E3557" stroke-width="1.1481" stroke-linecap="round" stroke-linejoin="round" stroke-miterlimit="10" d="
			M567.986,174.956c0,0,5.934-9.528,10.078-4.586c3.357,4.003-1.576,9.563-1.576,9.563"/>
		
			<path fill="none" stroke="#1E3557" stroke-width="1.1481" stroke-linecap="round" stroke-linejoin="round" stroke-miterlimit="10" d="
			M587.506,185.371c0,0,8.549-7.791,4.727,2.826"/>
		
			<path fill="none" stroke="#1E3557" stroke-width="1.1481" stroke-linecap="round" stroke-linejoin="round" stroke-miterlimit="10" d="
			M583.258,181.746c0,0-10.096,14.445,2.037,24.875l-11.391-2.275c0,0,0.742,6.885-2.223,10.951c0,0-12.516,1.402-20.496-22.592
			l2.477-1.967l-0.674,1.305"/>
		
			<path fill="none" stroke="#1E3557" stroke-width="1.1481" stroke-linecap="round" stroke-linejoin="round" stroke-miterlimit="10" d="
			M636.281,225.846c0,0-5.638-8.447-22.119-4.258l2.059,12.059l5.105-1.5l-1.055-3.82"/>
		
			<path fill="none" stroke="#1E3557" stroke-width="1.1481" stroke-linecap="round" stroke-linejoin="round" stroke-miterlimit="10" d="
			M604.596,211.99c0,0-12.74,23.992,17.113,45.932l1.824-2.316l-1.39,0.182"/>
		
			<path fill="none" stroke="#1E3557" stroke-width="1.1481" stroke-linecap="round" stroke-linejoin="round" stroke-miterlimit="10" d="
			M632.326,208.383c0,0,6.301-0.834,7.672,3.592s-2.199,7.082-2.199,7.082"/>
		
			<path fill="none" stroke="#1E3557" stroke-width="1.1481" stroke-linecap="round" stroke-linejoin="round" stroke-miterlimit="10" d="
			M638.863,236.053c0,0,10.418,3.238,2.002,12.078"/>
		
			<path fill="none" stroke="#1E3557" stroke-width="1.1481" stroke-linecap="round" stroke-linejoin="round" stroke-miterlimit="10" d="
			M627.023,200.311c0,0,0.523-4.717-3.367-4.234c-3.891,0.48-2.496,4.748-2.496,4.748s4.684-2.223-2.217-2.789"/>
		
			<path fill="none" stroke="#1E3557" stroke-width="1.1481" stroke-linecap="round" stroke-linejoin="round" stroke-miterlimit="10" d="
			M639.172,262.527c0,0,2.529,3.527-1.203,5.467c-3.734,1.939-4.691-1.803-4.691-1.803s5.116-0.48-0.898,2.1"/>
		
			<path fill="none" stroke="#1E3557" stroke-width="1.1481" stroke-linecap="round" stroke-linejoin="round" stroke-miterlimit="10" d="
			M606.934,242.336c0,0,4.232-4.664,2.852-7.783c-1.379-3.119-4.508-1.752-4.922-4.348c-0.412-2.596,1.832-3.203-2.949-4.391
			c0,0-7.309,3.938-4.104,10.74C601.016,243.355,606.934,242.336,606.934,242.336z"/>
		
			<path fill="none" stroke="#1E3557" stroke-width="1.1481" stroke-linecap="round" stroke-linejoin="round" stroke-miterlimit="10" d="
			M666.115,209.182c0,0-22.848,19.686-13.551,46.105"/>
		
			<path fill="none" stroke="#1E3557" stroke-width="1.1481" stroke-linecap="round" stroke-linejoin="round" stroke-miterlimit="10" d="
			M657.471,252.498c0,0-7.574-15.756,9.889-36.49"/>
		
			<path fill="none" stroke="#1E3557" stroke-width="1.1481" stroke-linecap="round" stroke-linejoin="round" stroke-miterlimit="10" d="
			M669.234,223.223c0,0-11.619,15.137-6.805,26.975"/>
		
			<path fill="none" stroke="#1E3557" stroke-width="1.1481" stroke-linecap="round" stroke-linejoin="round" stroke-miterlimit="10" d="
			M671.268,232.389c0,0-5.434,8.932-3.205,14.9"/>
		
			<path fill="none" stroke="#1E3557" stroke-width="1.1481" stroke-linecap="round" stroke-linejoin="round" stroke-miterlimit="10" d="
			M652.803,202.475c0,0,0.422,3.283,5.841,5.992"/>
		
			<path fill="none" stroke="#1E3557" stroke-width="1.1481" stroke-linecap="round" stroke-linejoin="round" stroke-miterlimit="10" d="
			M647.189,202.088c0,0,2.865,6.973,8.703,9.336"/>
		
			<line fill="none" stroke="#1E3557" stroke-width="1.1481" stroke-linecap="round" stroke-linejoin="round" stroke-miterlimit="10" x1="629.699" y1="271.598" x2="576.426" y2="327.852"/>
		
			<line fill="none" stroke="#1E3557" stroke-width="1.1481" stroke-linecap="round" stroke-linejoin="round" stroke-miterlimit="10" x1="623.943" y1="269.996" x2="603.674" y2="289.719"/>
		
			<line fill="none" stroke="#1E3557" stroke-width="1.1481" stroke-linecap="round" stroke-linejoin="round" stroke-miterlimit="10" x1="586.891" y1="306.088" x2="569.691" y2="322.25"/>
		
			<line fill="none" stroke="#1E3557" stroke-width="1.1481" stroke-linecap="round" stroke-linejoin="round" stroke-miterlimit="10" x1="574.445" y1="309.33" x2="566.637" y2="315.535"/>
	</g>
	<g>
		<path fill="#C58839" d="M164.023,161.629l62.923-3.664l-1.109-49.188l-18.57-11.702c0,0,6.809-6.272-3.332-12.301
			c-10.142-6.028-12.066,2.637-12.066,2.637l-3.488-1.686c0,0-15.941,19.456-39.965,18.271c0,0,2.939,7.4-6.76,15.677l6.564,9.239
			c0,0-6.682,4.292-3.229,10.357c3.451,6.066,11.059,4.016,11.059,4.016L164.023,161.629z"/>
		<path fill="#D2B59B" d="M195.691,217.064l31.653-28.014l-9.193-30.574l-52.438,2.089l-32.963,20.646l-0.268,20.902l14.199,4.139
			c0,0-2.271,12.447,8.639,12.391c10.91-0.059,11.51-7.48,11.51-7.48L195.691,217.064z"/>
		<path fill="#C58839" d="M310.295,181.336l5.484-14.139l-27.373-27.639l-1.081-17.907c0,0-9.661-1.8-7.847,9.242l-4.494-4.842
			l-11.77,27.379l30.113,14.846l4.176-4.525L310.295,181.336z"/>
		<polygon fill="#B21E6F" points="195.691,217.064 227.344,189.051 218.151,158.477 226.946,157.965 225.836,108.777 
			247.138,121.33 237.836,152.553 288.576,177.17 287.606,165.531 293.329,168.275 297.504,163.75 310.295,181.336 275.558,277.02 
			235.565,262.498 249.358,247.557 233.233,223.834 		"/>
		<path fill="#B21E6F" d="M269.112,296.17l-2.87,7.9l-37.792-32.604l6.932-8.465l1.357,0.496
			C236.739,263.498,234.217,272.68,269.112,296.17z"/>
		<path fill="#D2B59B" d="M147.012,231.154l1.982-15.902c0,0-4.863-2.525-2.313-8.998l-53.59-14.436l-21.185-31.922l-21.17,35.881
			L147.012,231.154z"/>
		<path fill="#BCD9EC" d="M61.104,142.746l-21.341-32.799l57.679-23.818l-5.072-12.86l21.022-6.427
			c-3.744-3.635-10.75-11.805-11.093-22.311c-2.609-1.834-5.496-3.367-8.639-4.507C74.538,33.08,53.406,42.956,46.461,62.08
			c-0.407,1.117-0.75,2.244-1.042,3.373c-1.281-0.788-2.659-1.457-4.128-1.99c-11.67-4.237-24.566,1.787-28.804,13.458
			c-3.549,9.773,0.102,20.399,8.236,26.088c-1.09,1.727-2.017,3.593-2.743,5.59c-5.463,15.048,2.304,31.683,17.352,37.146
			C44.252,148.982,53.727,147.568,61.104,142.746z"/>
		<path fill="#815224" d="M162.742,236.055l72.64,26.947l-33.93,38l-12.951-5.793c0,0-14.514,22.289-28.865-17.939l-6.914-4.166
			c0,0,1.388-6.043-6.536-11.252c0,0,6.211-5.041,2.508-14.23C148.694,247.621,158.292,247.781,162.742,236.055z"/>
		<path fill="#815224" d="M256.053,330.74l-67.761,0.906c0,0-1.563-16.445,20.478-7.629l1.777-20.525l30.643,10.848l4.148,7.078
			l17.998-9.344L256.053,330.74z"/>
		<polygon fill="#3F688B" points="44.005,236.498 47.015,245.051 32.013,239.602 29.004,231.047 		"/>
		<polygon fill="#3F688B" points="40.977,223.631 43.986,232.182 28.985,226.734 25.976,218.184 		"/>
		<polygon fill="#3F688B" points="36.87,210.377 39.877,218.926 24.877,213.48 21.868,204.928 		"/>
		<polygon fill="#3F688B" points="33.302,197.318 36.31,205.867 21.31,200.42 18.3,191.869 		"/>
		<polygon fill="#3F688B" points="67.25,244.943 70.257,253.496 55.256,248.047 52.248,239.492 		"/>
		<polygon fill="#3F688B" points="64.22,232.074 67.23,240.627 52.228,235.178 49.218,226.623 		"/>
		<polygon fill="#3F688B" points="60.112,218.814 63.12,227.367 48.12,221.918 45.111,213.369 		"/>
		<polygon fill="#3F688B" points="56.544,205.756 59.553,214.307 44.551,208.859 41.542,200.311 		"/>
		<polygon fill="#3F688B" points="92.274,254.035 95.283,262.584 80.282,257.137 77.271,248.584 		"/>
		<polygon fill="#3F688B" points="89.246,241.168 92.254,249.721 77.252,244.27 74.242,235.717 		"/>
		<polygon fill="#3F688B" points="85.137,227.906 88.146,236.461 73.144,231.01 70.134,222.455 		"/>
		<polygon fill="#3F688B" points="81.569,214.844 84.576,223.396 69.575,217.947 66.567,209.398 		"/>
		<polygon fill="#3F688B" points="39.763,109.947 106.271,108.521 97.442,86.129 		"/>
		<polygon fill="#FFFFFF" points="39.763,109.947 66.715,151.367 59.565,118.764 73.958,121.652 63.757,112.957 89.824,95.145 
			65.175,98.76 		"/>
		<polygon fill="#3F688B" points="8.242,179.94 51.54,195.662 66.239,169.575 27.503,155.482 		"/>
		
			<path fill="none" stroke="#1E3557" stroke-width="3.4442" stroke-linecap="round" stroke-linejoin="round" stroke-miterlimit="10" d="
			M160.309,277.518c0,0,8.381,21.77,15.116,23.4c6.735,1.633,13.737-6.414,13.737-6.414l12.873,7.131l34.088-38.934l-128.782-46.775
			c0,0-19.64,14.859,1.946,27.184c0,0-13.629,11.746,8.089,23.701c0,0-6.046,8.799,2.589,16.412
			c8.635,7.615,24.387-0.102,24.387-0.102S157.112,293.049,160.309,277.518z"/>
		
			<polygon fill="none" stroke="#1E3557" stroke-width="3.4442" stroke-linecap="round" stroke-linejoin="round" stroke-miterlimit="10" points="
			228.45,271.467 266.206,303.752 275.872,277.133 236.124,262.701 		"/>
		
			<polygon fill="none" stroke="#1E3557" stroke-width="3.4442" stroke-linecap="round" stroke-linejoin="round" stroke-miterlimit="10" points="
			256.411,330.73 263.202,312.027 245.915,321.625 241.642,314.783 210.348,303.42 208.987,331.834 		"/>
		
			<path fill="none" stroke="#1E3557" stroke-width="3.4442" stroke-linecap="round" stroke-linejoin="round" stroke-miterlimit="10" d="
			M208.987,331.834l-20.694-0.188c0,0-1.864-16.254,21.069-7.611L208.987,331.834z"/>
		
			<polyline fill="none" stroke="#1E3557" stroke-width="3.4442" stroke-linecap="round" stroke-linejoin="round" stroke-miterlimit="10" points="
			107.341,215.926 8.846,180.159 22.152,241.996 115.319,273.656 		"/>
		
			<path fill="none" stroke="#1E3557" stroke-width="3.4442" stroke-linecap="round" stroke-linejoin="round" stroke-miterlimit="10" d="
			M51.227,195.549l20.811-36.014l21.66,32.296l53.724,14.624c0,0-4.083,7.887,6.71,11.809s12.42-7.299,12.42-7.299l66.972,12.926
			l16.063,24.156l-13.463,14.654"/>
		
			<polyline fill="none" stroke="#1E3557" stroke-width="3.4442" stroke-linecap="round" stroke-linejoin="round" stroke-miterlimit="10" points="
			8.846,180.159 27.368,155.459 66.239,169.575 		"/>
		
			<polyline fill="none" stroke="#1E3557" stroke-width="3.4442" stroke-linecap="round" stroke-linejoin="round" stroke-miterlimit="10" points="
			72.038,159.535 39.672,109.908 96.571,86.032 		"/>
		
			<path fill="none" stroke="#1E3557" stroke-width="3.4442" stroke-linecap="round" stroke-linejoin="round" stroke-miterlimit="10" d="
			M113.394,197.195c0,0-7.198-3.098,1.335-12.326c8.535-9.228,11.07-18.329-3.438-19.744c0,0,28.115-20.025,21.16,37.256
			L113.394,197.195z"/>
		
			<polyline fill="none" stroke="#1E3557" stroke-width="3.4442" stroke-linecap="round" stroke-linejoin="round" stroke-miterlimit="10" points="
			133.448,181.832 165.231,160.832 218.089,158.456 227.491,188.922 195.686,216.588 		"/>
		
			<line fill="none" stroke="#1E3557" stroke-width="3.4442" stroke-linecap="round" stroke-linejoin="round" stroke-miterlimit="10" x1="222.509" y1="172.777" x2="303.764" y2="200.314"/>
		
			<polyline fill="none" stroke="#1E3557" stroke-width="3.4442" stroke-linecap="round" stroke-linejoin="round" stroke-miterlimit="10" points="
			128.616,165.182 92.37,73.269 113.012,67.328 		"/>
		
			<polygon fill="none" stroke="#1E3557" stroke-width="3.4442" stroke-linecap="round" stroke-linejoin="round" stroke-miterlimit="10" points="
			315.576,167.754 274.739,126.051 263.508,152.627 293.126,168.486 297.67,163.811 310.485,181.787 		"/>
		
			<polyline fill="none" stroke="#1E3557" stroke-width="3.4442" stroke-linecap="round" stroke-linejoin="round" stroke-miterlimit="10" points="
			285.641,137.183 252.114,102.159 237.708,152.914 287.553,176.797 286.749,165.549 		"/>
		
			<polygon fill="none" stroke="#1E3557" stroke-width="3.4442" stroke-linecap="round" stroke-linejoin="round" stroke-miterlimit="10" points="
			252.114,102.159 228.364,109.123 246.715,121.175 		"/>
		
			<path fill="none" stroke="#1E3557" stroke-width="3.4442" stroke-linecap="round" stroke-linejoin="round" stroke-miterlimit="10" d="
			M288.698,140.305l-1.244-19.001c0,0-10.258-0.98-7.936,9.483L288.698,140.305z"/>
		
			<path fill="none" stroke="#1E3557" stroke-width="3.4442" stroke-linecap="round" stroke-linejoin="round" stroke-miterlimit="10" d="
			M208.627,89.437l74.863,12.515c0,0,4.99,9.717-0.817,20.146"/>
		
			<line fill="none" stroke="#1E3557" stroke-width="1.1481" stroke-linecap="round" stroke-linejoin="round" stroke-miterlimit="10" x1="249.586" y1="248.047" x2="288.567" y2="257.314"/>
		
			<line fill="none" stroke="#1E3557" stroke-width="1.1481" stroke-linecap="round" stroke-linejoin="round" stroke-miterlimit="10" x1="262.946" y1="259.639" x2="261.163" y2="240.846"/>
		
			<line fill="none" stroke="#1E3557" stroke-width="1.1481" stroke-linecap="round" stroke-linejoin="round" stroke-miterlimit="10" x1="265.505" y1="256.643" x2="267.326" y2="244.879"/>
		
			<line fill="none" stroke="#1E3557" stroke-width="1.1481" stroke-linecap="round" stroke-linejoin="round" stroke-miterlimit="10" x1="227.491" y1="188.922" x2="300.809" y2="215.744"/>
		
			<path fill="none" stroke="#1E3557" stroke-width="1.1481" stroke-linecap="round" stroke-linejoin="round" stroke-miterlimit="10" d="
			M268.819,296.557c0,0-35.495-24.693-31.922-33.574"/>
		
			<path fill="none" stroke="#1E3557" stroke-width="3.4442" stroke-linecap="round" stroke-linejoin="round" stroke-miterlimit="10" d="
			M191.887,87.418l-28.736-17.355L133.01,99.264l15.59,29.786c-1.701,0.888-3.091,2.384-3.797,4.327
			c-1.5,4.131,0.635,8.698,4.766,10.198c2.188,0.794,4.492,0.562,6.404-0.438l9.258,17.695l62.547-2.566l-1.961-49.978
			L207.24,96.659c0,0,5.392-7-2.72-11.575C196.408,80.511,191.887,87.418,191.887,87.418z"/>
		
			<path fill="none" stroke="#1E3557" stroke-width="3.4442" stroke-linecap="round" stroke-linejoin="round" stroke-miterlimit="10" d="
			M133.01,99.264c0,0,31.453,15.247,55.498-13.887"/>
		
			<path fill="none" stroke="#1E3557" stroke-width="3.4442" stroke-linecap="round" stroke-linejoin="round" stroke-miterlimit="10" d="
			M143.12,118.58c0,0,6.592-5.753,5.619-15.474"/>
		
			<path fill="none" stroke="#1E3557" stroke-width="3.4442" stroke-linecap="round" stroke-linejoin="round" stroke-miterlimit="10" d="
			M144.42,137.316c0,0-17.895-0.808-13.607-17.432c0,0-38.943-17.686-9.945-46.854c0,0-33.118-21.797-10.801-48.502
			c22.318-26.708,51.606,13.729,51.606,13.729s11.526-22.564,35.413-13.891c23.888,8.672,32.607,32.808,16.248,52.109
			c0,0,24.535-4.46,25.83,18.063"/>
		
			<line fill="none" stroke="#1E3557" stroke-width="1.1481" stroke-linecap="round" stroke-linejoin="round" stroke-miterlimit="10" x1="70.876" y1="202.684" x2="77.962" y2="168.373"/>
		
			<line fill="none" stroke="#1E3557" stroke-width="1.1481" stroke-linecap="round" stroke-linejoin="round" stroke-miterlimit="10" x1="56.987" y1="185.584" x2="73.191" y2="191.467"/>
		
			<line fill="none" stroke="#1E3557" stroke-width="1.1481" stroke-linecap="round" stroke-linejoin="round" stroke-miterlimit="10" x1="64.255" y1="175.035" x2="75.669" y2="179.18"/>
		
			<polyline fill="none" stroke="#1E3557" stroke-width="1.1481" stroke-linecap="round" stroke-linejoin="round" stroke-miterlimit="10" points="
			72.656,194.061 79.916,193.908 81.963,188.266 88.745,203.227 95.569,202.383 		"/>
		
			<line fill="none" stroke="#1E3557" stroke-width="1.1481" stroke-linecap="round" stroke-linejoin="round" stroke-miterlimit="10" x1="148.995" y1="215.252" x2="147.271" y2="230.434"/>
		
			<line fill="none" stroke="#1E3557" stroke-width="1.1481" stroke-linecap="round" stroke-linejoin="round" stroke-miterlimit="10" x1="163.282" y1="236.252" x2="162.844" y2="217.643"/>
		
			<polyline fill="none" stroke="#1E3557" stroke-width="1.1481" stroke-linecap="round" stroke-linejoin="round" stroke-miterlimit="10" points="
			67.07,151.914 59.54,118.551 74.606,122.19 63.696,113.131 89.981,94.711 61.876,100.591 		"/>
		
			<line fill="none" stroke="#1E3557" stroke-width="1.1481" stroke-linecap="round" stroke-linejoin="round" stroke-miterlimit="10" x1="155.717" y1="77.266" x2="91.196" y2="10.348"/>
		
			<line fill="none" stroke="#1E3557" stroke-width="1.1481" stroke-linecap="round" stroke-linejoin="round" stroke-miterlimit="10" x1="122.075" y1="42.372" x2="87.167" y2="38.199"/>
		
			<line fill="none" stroke="#1E3557" stroke-width="1.1481" stroke-linecap="round" stroke-linejoin="round" stroke-miterlimit="10" x1="193.987" y1="85.29" x2="192.862" y2="3.902"/>
		
			<line fill="none" stroke="#1F3562" stroke-width="1.1481" stroke-linecap="round" stroke-linejoin="round" stroke-miterlimit="10" x1="193.266" y1="33.131" x2="175.811" y2="16.644"/>
		
			<line fill="none" stroke="#1E3557" stroke-width="1.1481" stroke-linecap="round" stroke-linejoin="round" stroke-miterlimit="10" x1="143.271" y1="89.321" x2="93.457" y2="100.547"/>
		
			<line fill="none" stroke="#1E3557" stroke-width="1.1481" stroke-linecap="round" stroke-linejoin="round" stroke-miterlimit="10" x1="118.365" y1="94.935" x2="108.848" y2="106.135"/>
		
			<line fill="none" stroke="#1E3557" stroke-width="1.1481" stroke-linecap="round" stroke-linejoin="round" stroke-miterlimit="10" x1="148.6" y1="129.05" x2="126.594" y2="144.121"/>
		
			<line fill="none" stroke="#1E3557" stroke-width="1.1481" stroke-linecap="round" stroke-linejoin="round" stroke-miterlimit="10" x1="139.126" y1="136.23" x2="136.211" y2="144.256"/>
		
			<line fill="none" stroke="#1E3557" stroke-width="1.1481" stroke-linecap="round" stroke-linejoin="round" stroke-miterlimit="10" x1="227.778" y1="158.266" x2="303.764" y2="200.314"/>
		
			<line fill="none" stroke="#1E3557" stroke-width="1.1481" stroke-linecap="round" stroke-linejoin="round" stroke-miterlimit="10" x1="274.324" y1="157.465" x2="279.571" y2="143.014"/>
		
			<line fill="none" stroke="#1E3557" stroke-width="1.1481" stroke-linecap="round" stroke-linejoin="round" stroke-miterlimit="10" x1="283.874" y1="163.535" x2="288.958" y2="149.535"/>
		
			<line fill="none" stroke="#1E3557" stroke-width="1.1481" stroke-linecap="round" stroke-linejoin="round" stroke-miterlimit="10" x1="223.655" y1="308.252" x2="217.778" y2="324.436"/>
		
			<line fill="none" stroke="#1E3557" stroke-width="1.1481" stroke-linecap="round" stroke-linejoin="round" stroke-miterlimit="10" x1="234.379" y1="312.146" x2="230.036" y2="324.104"/>
		
			<path fill="none" stroke="#1E3557" stroke-width="1.1481" stroke-linecap="round" stroke-linejoin="round" stroke-miterlimit="10" d="
			M153.211,208.152c0,0-3.521,4.117,2.293,6.332c5.813,2.215,3.814-4.621,3.814-4.621s-7.137,0.867,2.52,3.154"/>
		
			<path fill="none" stroke="#1E3557" stroke-width="1.1481" stroke-linecap="round" stroke-linejoin="round" stroke-miterlimit="10" d="
			M160.309,277.518l-7.671-4.461c0,0,1.456-5.605-6.374-11.176c0,0,6.4-6.059,2.312-14.354c0,0,10.507,0.145,13.579-11.686"/>
		
			<path fill="none" stroke="#1E3557" stroke-width="1.1481" stroke-linecap="round" stroke-linejoin="round" stroke-miterlimit="10" d="
			M148.329,277.434c0,0,5.659-1.17,4.162-7.492"/>
		
			<path fill="none" stroke="#1E3557" stroke-width="1.1481" stroke-linecap="round" stroke-linejoin="round" stroke-miterlimit="10" d="
			M140.381,265.547c0,0,4.942-1.004,8.363-7.273"/>
		
			<path fill="none" stroke="#1E3557" stroke-width="1.1481" stroke-linecap="round" stroke-linejoin="round" stroke-miterlimit="10" d="
			M194.107,297.244c0,0,14.157-13.461,2.472-33.838l-3.16,0.43l1.98,0.719"/>
		
			<path fill="none" stroke="#1E3557" stroke-width="1.1481" stroke-linecap="round" stroke-linejoin="round" stroke-miterlimit="10" d="
			M165.89,273.08c0,0-8.853-1.689-6.306-8.705c2.547-7.012,10.566-3.033,10.566-3.033"/>
		
			<line fill="none" stroke="#1E3557" stroke-width="1.1481" stroke-linecap="round" stroke-linejoin="round" stroke-miterlimit="10" x1="111.739" y1="188.858" x2="121.299" y2="199.059"/>
		
			<line fill="none" stroke="#1E3557" stroke-width="1.1481" stroke-linecap="round" stroke-linejoin="round" stroke-miterlimit="10" x1="114.729" y1="184.869" x2="128.379" y2="201.273"/>
		
			<line fill="none" stroke="#1E3557" stroke-width="1.1481" stroke-linecap="round" stroke-linejoin="round" stroke-miterlimit="10" x1="118.114" y1="180.047" x2="132.172" y2="198.574"/>
		
			<line fill="none" stroke="#1E3557" stroke-width="1.1481" stroke-linecap="round" stroke-linejoin="round" stroke-miterlimit="10" x1="121.147" y1="176.154" x2="133.112" y2="189.924"/>
		
			<line fill="none" stroke="#1E3557" stroke-width="1.1481" stroke-linecap="round" stroke-linejoin="round" stroke-miterlimit="10" x1="121.576" y1="171.291" x2="133.448" y2="181.832"/>
		
			<line fill="none" stroke="#1E3557" stroke-width="1.1481" stroke-linecap="round" stroke-linejoin="round" stroke-miterlimit="10" x1="117.065" y1="164.48" x2="132.395" y2="173.676"/>
		
			<path fill="none" stroke="#1E3557" stroke-width="1.1481" stroke-linecap="round" stroke-linejoin="round" stroke-miterlimit="10" d="
			M159.549,196.605c0,0-11.226-0.064-9.184-6.186c1.654-4.957,8.973-3.666,8.973-3.666"/>
		
			<path fill="none" stroke="#1E3557" stroke-width="1.1481" stroke-linecap="round" stroke-linejoin="round" stroke-miterlimit="10" d="
			M158.206,174.518c0,0-11.111-3.207-0.068-5.504"/>
		
			<path fill="none" stroke="#1E3557" stroke-width="1.1481" stroke-linecap="round" stroke-linejoin="round" stroke-miterlimit="10" d="
			M157.34,180.035c0,0,17.594,1.038,20.127-14.761l4.024,10.898c0,0,5.479-4.239,10.495-3.841c0,0,7.746,9.93-8.52,29.299
			l-2.971-1.08l1.462-0.111"/>
		
			<path fill="none" stroke="#1E3557" stroke-width="1.1481" stroke-linecap="round" stroke-linejoin="round" stroke-miterlimit="10" d="
			M167.151,111.768c0,0-4.246,9.227,7.955,21.074l9.195-8.066l-3.949-3.564l-2.705,2.899"/>
		
			<path fill="none" stroke="#1E3557" stroke-width="1.1481" stroke-linecap="round" stroke-linejoin="round" stroke-miterlimit="10" d="
			M171.936,146.018c0,0,27.112-1.707,30.171-38.628l-2.927-0.342l0.883,1.09"/>
		
			<path fill="none" stroke="#1E3557" stroke-width="1.1481" stroke-linecap="round" stroke-linejoin="round" stroke-miterlimit="10" d="
			M154.344,124.281c0,0-4.01-4.932-0.957-8.418c3.052-3.484,7.185-1.834,7.185-1.834"/>
		
			<path fill="none" stroke="#1E3557" stroke-width="1.1481" stroke-linecap="round" stroke-linejoin="round" stroke-miterlimit="10" d="
			M174.497,104.226c0,0-2.695-10.573,9.24-8.03"/>
		
			<path fill="none" stroke="#1E3557" stroke-width="1.1481" stroke-linecap="round" stroke-linejoin="round" stroke-miterlimit="10" d="
			M150.245,133.026c0,0-4.293,2.023-1.846,5.085s5.354-0.359,5.354-0.359s-4.348-2.826-1.217,3.348"/>
		
			<path fill="none" stroke="#1E3557" stroke-width="1.1481" stroke-linecap="round" stroke-linejoin="round" stroke-miterlimit="10" d="
			M196.89,90.102c0,0,1.682-4.004,5.288-1.838c3.607,2.166,0.922,4.939,0.922,4.939s-3.091-4.105,2.258-0.334"/>
		
			<path fill="none" stroke="#1E3557" stroke-width="1.1481" stroke-linecap="round" stroke-linejoin="round" stroke-miterlimit="10" d="
			M196.567,128.137c0,0-6.189-1.162-8.123,1.646c-1.938,2.809,0.867,4.76-1.129,6.469c-1.994,1.711-3.688,0.117-2.195,4.813
			c0,0,7.18,4.164,11.298-2.129C200.534,132.646,196.567,128.137,196.567,128.137z"/>
		
			<path fill="none" stroke="#1E3557" stroke-width="1.1481" stroke-linecap="round" stroke-linejoin="round" stroke-miterlimit="10" d="
			M137.333,95.075c0,0,28.734,9.159,46.376-12.595"/>
		
			<path fill="none" stroke="#1E3557" stroke-width="1.1481" stroke-linecap="round" stroke-linejoin="round" stroke-miterlimit="10" d="
			M178.764,79.762c0,0-9.458,14.703-36.266,10.679"/>
		
			<path fill="none" stroke="#1E3557" stroke-width="1.1481" stroke-linecap="round" stroke-linejoin="round" stroke-miterlimit="10" d="
			M147.665,85.066c0,0,18.978,1.973,26.543-8.325"/>
		
			<path fill="none" stroke="#1E3557" stroke-width="1.1481" stroke-linecap="round" stroke-linejoin="round" stroke-miterlimit="10" d="
			M154.408,78.533c0,0,10.458-0.046,14.374-5.068"/>
		
			<path fill="none" stroke="#1E3557" stroke-width="1.1481" stroke-linecap="round" stroke-linejoin="round" stroke-miterlimit="10" d="
			M138.589,109.928c0,0,2.578-2.078,2.046-8.115"/>
		
			<path fill="none" stroke="#1E3557" stroke-width="1.1481" stroke-linecap="round" stroke-linejoin="round" stroke-miterlimit="10" d="
			M141.2,114.914c0,0,4.442-6.094,3.398-12.304"/>
		
			<line fill="none" stroke="#1E3557" stroke-width="1.1481" stroke-linecap="round" stroke-linejoin="round" stroke-miterlimit="10" x1="209.579" y1="93.422" x2="285.397" y2="109.358"/>
		
			<line fill="none" stroke="#1E3557" stroke-width="1.1481" stroke-linecap="round" stroke-linejoin="round" stroke-miterlimit="10" x1="211.227" y1="99.164" x2="238.642" y2="106.108"/>
		
			<line fill="none" stroke="#1E3557" stroke-width="1.1481" stroke-linecap="round" stroke-linejoin="round" stroke-miterlimit="10" x1="261.377" y1="111.836" x2="284.151" y2="118.029"/>
		
			<line fill="none" stroke="#1E3557" stroke-width="1.1481" stroke-linecap="round" stroke-linejoin="round" stroke-miterlimit="10" x1="270.655" y1="120.743" x2="280.028" y2="124.146"/>
	</g>
	
		<circle fill="#639CC9" stroke="#1E3557" stroke-width="3.4442" stroke-linecap="round" stroke-linejoin="round" stroke-miterlimit="10" cx="378.146" cy="214.916" r="168.452"/>
	<polygon fill="#FFFFFF" points="446.393,71.83 307.421,71.83 293.118,33.762 460.697,33.762 	"/>
	<g>
		<path fill="#639CC9" d="M344.751,66.861v-1.899l2.427-2.357c5.838-5.557,8.476-8.511,8.511-11.958
			c0-2.321-1.125-4.467-4.537-4.467c-2.075,0-3.798,1.056-4.854,1.935l-0.985-2.181c1.583-1.336,3.834-2.321,6.472-2.321
			c4.924,0,6.999,3.377,6.999,6.647c0,4.221-3.06,7.632-7.878,12.275l-1.829,1.688v0.07h10.27v2.568H344.751z"/>
		<path fill="#639CC9" d="M377.988,55.184c0,7.773-2.884,12.064-7.948,12.064c-4.467,0-7.492-4.186-7.563-11.748
			c0-7.667,3.307-11.888,7.949-11.888C375.245,43.612,377.988,47.903,377.988,55.184z M365.573,55.536
			c0,5.944,1.829,9.32,4.643,9.32c3.165,0,4.678-3.693,4.678-9.531c0-5.627-1.442-9.321-4.643-9.321
			C367.542,46.004,365.573,49.311,365.573,55.536z"/>
		<path fill="#639CC9" d="M387.556,46.883h-0.07l-3.974,2.146l-0.598-2.356l4.994-2.673h2.638v22.862h-2.989V46.883z"/>
		<path fill="#639CC9" d="M413.725,43.999v2.04l-9.953,20.822h-3.201l9.918-20.224v-0.07h-11.184v-2.568H413.725z"/>
	</g>
	<path fill="#1E3557" d="M431.96,88.887h-26.146l-9.927,3.563h-37.989l-9.14-3.563h-25.214c-9.756,0-17.667,7.526-17.667,16.81
		v233.802c0,9.283,7.911,16.811,17.667,16.811H431.96c9.757,0,17.667-7.527,17.667-16.811V105.696
		C449.627,96.413,441.717,88.887,431.96,88.887z M427.588,94.982c1.27,0,2.3,1.028,2.3,2.296c0,1.27-1.03,2.299-2.3,2.299
		s-2.3-1.029-2.3-2.299C425.288,96.01,426.318,94.982,427.588,94.982z M342.955,344.13l-4.256,0.056
		c-0.367,0-0.666-0.295-0.666-0.663c0-0.367,0.299-0.667,0.666-0.667l4.162-0.051c0.107-0.026,1.112-0.244,1.112-1.415
		c0-1.169-0.961-1.392-1.156-1.425l-4.996,0.008c0.002,0.004,0.002,0.016,0.002,0.016l-0.082,0.003h-0.003l-0.001,0.878
		l-3.237-1.642l3.254-1.483l-0.007,0.89h0.001h0.066v0.011h5.103c0.891,0.121,2.39,0.839,2.39,2.745
		C345.308,343.297,343.767,344.013,342.955,344.13z M386.56,345.337h-14.893v-4.842l7.445-3.429l7.448,3.429V345.337z
		 M419.646,344.525h-5.064c-0.494,0-0.891-0.303-0.891-0.668c0-0.367,0.396-0.667,0.891-0.667h5.064c0.489,0,0.887,0.3,0.887,0.667
		C420.533,344.223,420.136,344.525,419.646,344.525z M413.691,341.86c0-0.369,0.396-0.666,0.891-0.666h5.061
		c0.49,0,0.889,0.297,0.889,0.666c0,0.367-0.398,0.663-0.889,0.663h-5.061C414.088,342.523,413.691,342.228,413.691,341.86z
		 M419.703,340.435h-5.063c-0.491,0-0.89-0.297-0.89-0.663c0-0.369,0.398-0.668,0.89-0.668h5.063c0.492,0,0.891,0.299,0.891,0.668
		C420.594,340.138,420.195,340.435,419.703,340.435z M442.184,327.576H312.911V111.394h129.272V327.576z"/>
</g>
</svg>
