<svg id="Capa_1" data-name="Capa 1" xmlns="http://www.w3.org/2000/svg" viewBox="0 0 79.91 93.9"><defs><style>.cls-1,.cls-2{fill:none;}.cls-1,.cls-2,.cls-3{stroke:#fff;stroke-linecap:round;stroke-linejoin:round;}.cls-1{stroke-width:3.9px;}.cls-2,.cls-3{stroke-width:0.97px;}.cls-3{fill:#fff;}</style></defs><title>t1_1b</title><path class="cls-1" d="M81.08,5H22.41a1.93,1.93,0,0,0-1.93,1.93V34.2L7.64,53.57A3.86,3.86,0,0,0,7,55.7v5.45a1.93,1.93,0,0,0,1.93,1.93h4.63V74.52H8.92A1.93,1.93,0,0,0,7,76.45V93.07A1.93,1.93,0,0,0,8.92,95H81.08A1.93,1.93,0,0,0,83,93.07V6.93A1.93,1.93,0,0,0,81.08,5h0Z" transform="translate(-5.04 -3.05)"/><rect class="cls-2" x="24.15" y="11.86" width="8.03" height="17.39"/><rect class="cls-2" x="35.94" y="11.86" width="8.03" height="17.39"/><rect class="cls-2" x="47.73" y="11.86" width="8.03" height="17.39"/><rect class="cls-2" x="59.53" y="11.86" width="8.03" height="17.39"/><polygon class="cls-3" points="35.71 61.83 45.38 69.94 55.35 46.93 42.48 63.59 35.71 61.83"/></svg>