<?xml version="1.0" encoding="utf-8"?>
<!-- Generator: Adobe Illustrator 16.0.0, SVG Export Plug-In . SVG Version: 6.00 Build 0)  -->
<!DOCTYPE svg PUBLIC "-//W3C//DTD SVG 1.1//EN" "http://www.w3.org/Graphics/SVG/1.1/DTD/svg11.dtd">
<svg version="1.1" id="Capa_1" xmlns="http://www.w3.org/2000/svg" xmlns:xlink="http://www.w3.org/1999/xlink" x="0px" y="0px"
	 width="191px" height="177px" viewBox="0 0 191 177" enable-background="new 0 0 191 177" xml:space="preserve">
<g>
	<g>
		<path fill="#FFFFFF" d="M146.303,44.456c0-3.72-3.026-6.747-6.747-6.747H97.303c-3.721,0-6.748,3.027-6.748,6.747v85.865
			c0,3.721,3.027,6.747,6.748,6.747h42.253c3.721,0,6.747-3.026,6.747-6.747V44.456z M144.233,130.321
			c0,2.574-2.098,4.669-4.677,4.669H97.303c-2.575,0-4.67-2.095-4.67-4.669v-12.744c0-0.354,0.287-0.64,0.641-0.64h50.319
			c0.354,0,0.64,0.285,0.64,0.64V130.321z M144.233,114.227c0,0.354-0.285,0.642-0.64,0.642H93.274
			c-0.354,0-0.641-0.287-0.641-0.642V50.484c0-0.354,0.287-0.64,0.641-0.64h50.319c0.354,0,0.64,0.286,0.64,0.64V114.227z
			 M144.233,47.135c0,0.353-0.285,0.64-0.64,0.64H93.274c-0.354,0-0.641-0.287-0.641-0.64v-2.679c0-2.574,2.095-4.669,4.67-4.669
			h42.253c2.579,0,4.677,2.095,4.677,4.669V47.135z"/>
		<path fill="#FFFFFF" d="M118.433,119.896c-3.351,0-6.075,2.722-6.075,6.066c0,3.352,2.725,6.076,6.075,6.076
			c3.346,0,6.067-2.726,6.067-6.076C124.5,122.618,121.779,119.896,118.433,119.896z M118.433,129.963
			c-2.204,0-3.997-1.793-3.997-3.998c0-2.199,1.793-3.99,3.997-3.99c2.2,0,3.989,1.791,3.989,3.99
			C122.422,128.17,120.633,129.963,118.433,129.963z"/>
		<path fill="#FFFFFF" d="M118.433,42.737h-6.716c-0.568,0-1.03,0.467-1.03,1.039c0,0.573,0.462,1.039,1.03,1.039h6.716
			c0.567,0,1.03-0.466,1.03-1.039C119.463,43.204,119,42.737,118.433,42.737z"/>
		<path fill="#FFFFFF" d="M125.141,42.737h-1.68c-0.572,0-1.039,0.467-1.039,1.039c0,0.573,0.467,1.039,1.039,1.039h1.68
			c0.572,0,1.039-0.466,1.039-1.039C126.18,43.204,125.713,42.737,125.141,42.737z"/>
	</g>
	<g>
		<path fill="#FFFFFF" d="M85.849,55.363h-4.893v-6.472h4.894c0.572,0,1.038-0.466,1.038-1.038c0-0.572-0.466-1.038-1.038-1.038
			h-4.894v-1.119c0-0.572-0.466-1.038-1.038-1.038h-2.197v-2.197c0-0.572-0.466-1.038-1.038-1.038H58.08
			c-0.573,0-1.039,0.466-1.039,1.038V57.48c0,1.96,1.35,3.674,3.235,4.146v12.109c0,0.573,0.466,1.039,1.039,1.039h15.367
			c0.572,0,1.038-0.466,1.038-1.039V59.596h2.197c0.572,0,1.038-0.466,1.038-1.038v-1.119h4.894c0.572,0,1.038-0.466,1.038-1.038
			C86.887,55.829,86.421,55.363,85.849,55.363z M76.682,52.706c-0.572,0-1.038,0.467-1.038,1.039v18.952H62.353V60.715
			c0-0.572-0.466-1.038-1.038-1.038c-1.212,0-2.197-0.985-2.197-2.197V43.5h16.526v7.01c0,0.572,0.466,1.038,1.038,1.038
			c0.572,0,1.038-0.466,1.038-1.038v-3.774h1.159v10.785H77.72v-3.775C77.72,53.173,77.254,52.706,76.682,52.706z"/>
		<path fill="#FFFFFF" d="M68.594,75.932h-3.235c-0.573,0-1.039,0.466-1.039,1.039c0,0.572,0.466,1.038,1.039,1.038h0.579v6.915
			c0,3.069-2.497,5.566-5.567,5.566c-3.069,0-5.567-2.497-5.567-5.566V49.066c0-4.215-3.429-7.644-7.644-7.644
			c-4.214,0-7.644,3.429-7.644,7.644v17.16H36.78c-0.572,0-1.038,0.466-1.038,1.038v9.707c0,0.572,0.466,1.038,1.038,1.038h0.04
			v4.354c0,0.572,0.466,1.038,1.038,1.038h5.393c0.572,0,1.039-0.466,1.039-1.038v-4.354h0.039c0.573,0,1.039-0.466,1.039-1.038
			v-9.707c0-0.572-0.466-1.038-1.039-1.038h-2.735v-17.16c0-3.069,2.497-5.566,5.566-5.566c3.07,0,5.567,2.497,5.567,5.566v35.857
			c0,4.215,3.429,7.645,7.644,7.645s7.644-3.43,7.644-7.645v-6.915h0.58c0.572,0,1.038-0.466,1.038-1.038
			C69.632,76.398,69.166,75.932,68.594,75.932z M42.212,78.01v3.315h-3.315V78.01H42.212z M43.29,68.303v7.629h-5.472v-7.629H43.29z
			"/>
	</g>
	<g>
		<path fill="#FFFFFF" d="M82.836,130.158h-0.979c-0.393-1.531-1.783-2.667-3.436-2.667h-5.473v-4.586
			c1.017-0.362,1.747-1.335,1.747-2.476v-7.553c0.911,0.346,1.887,0.525,2.891,0.525h0.092c1.857,0,3.37-1.512,3.37-3.369v-9.546
			c0-1.858-1.513-3.37-3.37-3.37c-4.507,0-8.201,3.625-8.234,8.081v0.005c0,0.001,0,0.002,0,0.002v15.225
			c0,1.141,0.73,2.112,1.747,2.476v4.586H59.87c-0.824,0-1.493-0.669-1.493-1.492v-3.094c1.017-0.362,1.747-1.335,1.747-2.476
			v-7.461c3.205-1.096,5.517-4.137,5.517-7.707c0-4.491-3.652-8.145-8.143-8.145s-8.143,3.652-8.143,8.145
			c0,3.57,2.312,6.611,5.517,7.707v7.461c0,1.141,0.729,2.112,1.747,2.475v3.095c0,1.792,1.458,3.25,3.251,3.25h18.553
			c0.667,0,1.249,0.367,1.557,0.909H55.022c-1.22,0-2.213,0.992-2.213,2.212s0.993,2.213,2.213,2.213h23.4
			c1.652,0,3.043-1.136,3.436-2.667h0.978c1.138,0,2.063,0.926,2.063,2.063c0,1.087-0.885,1.972-1.972,1.972h-33.1
			c-0.485,0-0.879,0.395-0.879,0.879c0,0.485,0.394,0.879,0.879,0.879h33.102c2.056,0,3.729-1.673,3.729-3.729
			C86.658,131.872,84.943,130.158,82.836,130.158L82.836,130.158z M79.29,100.488v9.546c0,0.89-0.723,1.611-1.611,1.611h-0.006
			V98.875h0.006C78.568,98.876,79.29,99.6,79.29,100.488L79.29,100.488z M75.915,99.12v12.306c-1.073-0.289-2.056-0.855-2.859-1.666
			c-1.208-1.218-1.866-2.832-1.854-4.547C71.224,102.32,73.219,99.877,75.915,99.12L75.915,99.12z M71.808,110.997
			c0.352,0.354,0.73,0.673,1.131,0.952v8.48c0,0.479-0.39,0.869-0.868,0.869c-0.478,0-0.868-0.391-0.868-0.869v-10.114
			C71.391,110.553,71.592,110.78,71.808,110.997L71.808,110.997z M51.112,105.262c0-3.521,2.865-6.387,6.386-6.387
			s6.385,2.864,6.385,6.387c0,3.521-2.864,6.384-6.385,6.384S51.112,108.782,51.112,105.262L51.112,105.262z M57.498,113.403
			c0.293,0,0.583-0.017,0.868-0.046v7.072c0,0.479-0.39,0.869-0.868,0.869s-0.868-0.391-0.868-0.869v-7.072
			C56.915,113.387,57.205,113.403,57.498,113.403L57.498,113.403z M78.422,132.825h-23.4c-0.251,0-0.455-0.204-0.455-0.455
			c0-0.25,0.204-0.454,0.455-0.454h24.956C79.671,132.458,79.089,132.825,78.422,132.825L78.422,132.825z"/>
	</g>
</g>
<g>
</g>
<g>
</g>
<g>
</g>
<g>
</g>
<g>
</g>
<g>
</g>
</svg>
