<svg id="Capa_1" data-name="Capa 1" xmlns="http://www.w3.org/2000/svg" viewBox="0 0 62.13 100"><defs><style>.cls-1,.cls-2{fill:#fff;}.cls-2{stroke:#fff;stroke-linecap:round;stroke-linejoin:round;}</style></defs><title>t1_1a</title><g id="iphone"><path class="cls-1" d="M41.2,10.94a1.56,1.56,0,0,1-1.56,1.56H30.26a1.56,1.56,0,0,1-1.56-1.56h0a1.56,1.56,0,0,1,1.56-1.56h9.37a1.56,1.56,0,0,1,1.56,1.56h0Z" transform="translate(-3.93)"/><path class="cls-1" d="M38.08,89a1.56,1.56,0,0,1-1.56,1.56H33.39A1.56,1.56,0,0,1,31.83,89h0a1.56,1.56,0,0,1,1.56-1.56h3.12A1.56,1.56,0,0,1,38.08,89h0Z" transform="translate(-3.93)"/><polygon class="cls-2" points="20.63 51.29 31.04 60.02 41.78 35.24 27.92 53.19 20.63 51.29"/><path class="cls-1" d="M57.59,0H12.41C7.72,0,3.93,4.2,3.93,9.38V90.63c0,5.18,3.79,9.37,8.47,9.37H57.59c4.68,0,8.47-4.2,8.47-9.37V9.37C66.07,4.2,62.27,0,57.59,0Zm-48,83V19.59H60.42V83H9.58Zm0-67.39V9.38a3,3,0,0,1,2.82-3.12H57.59a3,3,0,0,1,2.82,3.12v8.54H9.58V15.63ZM60.42,87.48v3.14a3,3,0,0,1-2.82,3.12H12.41a3,3,0,0,1-2.82-3.12V84.69H60.42v2.79Z" transform="translate(-3.93)"/></g></svg>