<?xml version="1.0" encoding="utf-8"?>
<!-- Generator: Adobe Illustrator 16.0.0, SVG Export Plug-In . SVG Version: 6.00 Build 0)  -->
<!DOCTYPE svg PUBLIC "-//W3C//DTD SVG 1.1//EN" "http://www.w3.org/Graphics/SVG/1.1/DTD/svg11.dtd">
<svg version="1.1" id="Capa_1" xmlns="http://www.w3.org/2000/svg" xmlns:xlink="http://www.w3.org/1999/xlink" x="0px" y="0px"
	 width="191px" height="177px" viewBox="0 0 191 177" enable-background="new 0 0 191 177" xml:space="preserve">
<g>
	<path fill="#FFFFFF" d="M133.823,57.339c0-1.906-1.551-3.457-3.457-3.457h-2.001v-9.835c0-0.765-0.622-1.388-1.388-1.388
		s-1.389,0.623-1.389,1.388v9.835h-5.957v-9.835c0-0.765-0.621-1.388-1.387-1.388c-0.767,0-1.389,0.623-1.389,1.388v9.835h-2.003
		c-1.906,0-3.457,1.551-3.457,3.457v12.277c0,1.906,1.551,3.457,3.457,3.457h6.369v64.039c0,0.765,0.622,1.388,1.388,1.388
		s1.389-0.623,1.389-1.388V73.073h6.366c1.906,0,3.457-1.551,3.457-3.457L133.823,57.339L133.823,57.339z M131.046,70.297h-16.873
		v-13.64h16.873V70.297z"/>
	<path fill="#FFFFFF" d="M104.671,57.414c0-3.592-2.922-6.514-6.514-6.514h-4.021v-8.943c0-1.906-1.551-3.457-3.457-3.457h-15.51
		c-1.906,0-3.456,1.551-3.456,3.457V50.9h-4.02c-3.593,0-6.516,2.922-6.516,6.514v74.572c0,3.592,2.923,6.514,6.516,6.514h30.463
		c3.593,0,6.515-2.922,6.515-6.514V57.414z M74.489,41.275h16.873V50.9H74.489V41.275z M101.896,131.986
		c0,2.061-1.676,3.736-3.736,3.736H67.694c-2.062,0-3.739-1.676-3.739-3.736V93.424h37.94V131.986z M101.896,90.649h-37.94V57.414
		c0-2.061,1.678-3.737,3.739-3.737h30.465c2.062,0,3.736,1.677,3.736,3.737V90.649z"/>
</g>
<g>
</g>
<g>
</g>
<g>
</g>
<g>
</g>
<g>
</g>
<g>
</g>
</svg>
