<?xml version="1.0" encoding="utf-8"?>
<!-- Generator: Adobe Illustrator 16.0.0, SVG Export Plug-In . SVG Version: 6.00 Build 0)  -->
<!DOCTYPE svg PUBLIC "-//W3C//DTD SVG 1.1//EN" "http://www.w3.org/Graphics/SVG/1.1/DTD/svg11.dtd">
<svg version="1.1" id="Capa_1" xmlns="http://www.w3.org/2000/svg" xmlns:xlink="http://www.w3.org/1999/xlink" x="0px" y="0px"
	 width="191px" height="177px" viewBox="0 0 191 177" enable-background="new 0 0 191 177" xml:space="preserve">
<g>
	<g>
		<path fill="#FFFFFF" d="M135.988,44.547c0-2.686-2.185-4.87-4.87-4.87H78.847c-1.291,0-2.505,0.498-3.421,1.403
			c-0.007,0.008-0.015,0.017-0.022,0.024L58.439,58.066c-0.92,0.92-1.427,2.145-1.427,3.445v73.295c0,2.686,2.185,4.869,4.87,4.869
			h69.235c2.687,0,4.87-2.184,4.87-4.869L135.988,44.547L135.988,44.547z M122.655,136.604c0,0.287-0.232,0.52-0.521,0.52H70.866
			c-0.287,0-0.52-0.23-0.52-0.52v-29.68c0-1.277,1.039-2.316,2.315-2.316h47.678c1.277,0,2.316,1.039,2.316,2.316V136.604z
			 M133.435,134.809c0,1.275-1.039,2.314-2.316,2.314h-5.391c-0.286,0-0.52-0.23-0.52-0.52v-29.68c0-2.686-2.186-4.869-4.869-4.869
			H72.662c-2.685,0-4.869,2.184-4.869,4.869v29.68c0,0.287-0.233,0.52-0.521,0.52h-5.39c-1.277,0-2.316-1.039-2.316-2.314V61.513
			c0-0.621,0.241-1.203,0.68-1.639L77.208,42.91c0.44-0.438,1.022-0.679,1.64-0.679h52.271c1.276,0,2.315,1.039,2.315,2.316V134.809
			L133.435,134.809z"/>
	</g>
	<path fill="#FFFFFF" d="M93.957,51.708c0-0.704-0.573-1.276-1.277-1.276h-9.173c-0.703,0-1.276,0.572-1.276,1.276v17.728
		c0,0.704,0.573,1.277,1.276,1.277h9.173c0.704,0,1.277-0.573,1.277-1.277V51.708z M91.403,67.64c0,0.287-0.233,0.52-0.52,0.52
		h-5.579c-0.287,0-0.521-0.232-0.521-0.52V53.504c0-0.287,0.233-0.52,0.521-0.52h5.579c0.286,0,0.52,0.232,0.52,0.52V67.64z"/>
	<path fill="#FFFFFF" d="M109.583,51.708c0-0.704-0.572-1.276-1.277-1.276h-9.17c-0.705,0-1.276,0.572-1.276,1.276v17.728
		c0,0.704,0.571,1.277,1.276,1.277h9.17c0.705,0,1.277-0.573,1.277-1.277V51.708z M107.029,67.64c0,0.287-0.231,0.52-0.521,0.52
		h-5.578c-0.287,0-0.52-0.232-0.52-0.52V53.504c0-0.287,0.232-0.52,0.52-0.52h5.578c0.287,0,0.521,0.232,0.521,0.52V67.64z"/>
	<path fill="#FFFFFF" d="M125.209,51.708c0-0.704-0.573-1.276-1.276-1.276h-9.172c-0.703,0-1.275,0.572-1.275,1.276v17.728
		c0,0.704,0.572,1.277,1.275,1.277h9.172c0.703,0,1.276-0.573,1.276-1.277V51.708z M122.655,67.64c0,0.287-0.232,0.52-0.521,0.52
		h-5.576c-0.287,0-0.521-0.232-0.521-0.52V53.504c0-0.287,0.232-0.52,0.521-0.52h5.576c0.287,0,0.521,0.232,0.521,0.52V67.64z"/>
</g>
<g>
</g>
<g>
</g>
<g>
</g>
<g>
</g>
<g>
</g>
<g>
</g>
</svg>
