<?xml version="1.0" encoding="utf-8"?>
<!-- Generator: Adobe Illustrator 16.0.0, SVG Export Plug-In . SVG Version: 6.00 Build 0)  -->
<!DOCTYPE svg PUBLIC "-//W3C//DTD SVG 1.1//EN" "http://www.w3.org/Graphics/SVG/1.1/DTD/svg11.dtd">
<svg version="1.1" id="Capa_1" xmlns="http://www.w3.org/2000/svg" xmlns:xlink="http://www.w3.org/1999/xlink" x="0px" y="0px"
	 width="191px" height="177px" viewBox="0 0 191 177" enable-background="new 0 0 191 177" xml:space="preserve">
<g>
	<path fill="#FFFFFF" d="M81.146,126.15l2.235-10.313c0.015-0.07,0.056-0.13,0.115-0.168c0.059-0.037,0.134-0.05,0.2-0.035
		l24.233,5.25l0.162,0.035l0.15-0.191c0.113-0.143,0.227-0.284,0.339-0.428c0.261-0.326,0.527-0.666,0.806-1.002l0.276-0.334
		l-25.493-5.523c-0.143-0.031-0.233-0.174-0.203-0.314l5.972-27.563l-4.293-22.168c-0.013-0.069,0.001-0.14,0.041-0.198
		c0.04-0.058,0.1-0.099,0.169-0.112l18.233-3.53l-0.338-0.352c-0.518-0.537-0.976-1.019-1.4-1.473l-0.1-0.106l-16.822,3.258
		c-0.146,0.027-0.284-0.069-0.312-0.21l-0.421-2.177c-0.184-0.942,0.014-1.901,0.553-2.7c0.54-0.799,1.356-1.339,2.299-1.521
		l10.218-1.979l-0.232-0.334c-0.376-0.541-0.691-1.045-0.967-1.54l-0.094-0.168l-9.354,1.811c-1.531,0.297-2.857,1.175-3.733,2.473
		c-0.877,1.298-1.196,2.855-0.9,4.387l5.154,26.612c0.011,0.06,0.002,0.122-0.027,0.175l-0.018,0.033l-8.65,39.934
		c-0.33,1.522-0.045,3.088,0.803,4.404c0.848,1.317,2.154,2.225,3.679,2.555l13.066,2.83l0.16,0.035l0.103-0.128
		c0.289-0.358,0.576-0.72,0.862-1.081l0.603-0.755l-14.316-3.102C81.963,130.013,80.725,128.091,81.146,126.15z"/>
	<path fill="#FFFFFF" d="M103.653,121.921c-0.369-0.08-0.746-0.119-1.122-0.119c-2.476,0-4.651,1.752-5.175,4.168
		c-0.454,2.1,0.439,4.316,2.229,5.521l0.197,0.133l0.153-0.184c0.065-0.079,0.133-0.158,0.2-0.237
		c0.285-0.331,0.584-0.688,0.914-1.093l0.194-0.24l-0.266-0.156c-1.132-0.664-1.702-1.977-1.423-3.267
		c0.301-1.388,1.552-2.396,2.975-2.396c0.216,0,0.434,0.023,0.646,0.069c0.563,0.122,1.078,0.4,1.485,0.806l0.216,0.213l0.184-0.243
		c0.345-0.462,0.689-0.923,1.035-1.384l0.146-0.193l-0.18-0.162C105.384,122.542,104.55,122.115,103.653,121.921z"/>
	<path fill="#FFFFFF" d="M99.126,54.054l-0.201,0.293c-0.168,0.247-0.232,0.558-0.176,0.851c0.102,0.529,0.564,0.913,1.1,0.913
		c0.07,0,0.144-0.007,0.213-0.021l0.676-0.131l-0.302-0.347c-0.39-0.445-0.743-0.865-1.085-1.284L99.126,54.054z"/>
	<path fill="#FFFFFF" d="M125.179,52.16h-22.924l0.146,0.363c0.217,0.543,0.477,1.113,0.79,1.741l0.073,0.146h21.916
		c1.988,0,3.607,1.616,3.607,3.602v2.218c0,0.146-0.119,0.266-0.265,0.266h-21.7l0.266,0.408c0.252,0.391,0.521,0.805,0.813,1.252
		l0.385,0.584h20.236c0.146,0,0.265,0.119,0.265,0.265v52.791c0,0.146-0.119,0.266-0.265,0.266h-12.812l-0.078,0.115
		c-0.047,0.067-0.094,0.141-0.138,0.211c-0.269,0.438-0.545,0.938-0.846,1.533l-0.194,0.383h14.067c0.146,0,0.265,0.119,0.265,0.267
		v10.554c0,1.986-1.619,3.604-3.607,3.604h-17.633l-0.262,0.515c-0.229,0.45-0.457,0.901-0.686,1.353l-0.193,0.385h18.771
		c3.229,0,5.854-2.626,5.854-5.854v-71.11C131.032,54.785,128.407,52.16,125.179,52.16z"/>
	<path fill="#FFFFFF" d="M112.284,122.843l-0.246,0.521c-0.424,0.9-0.846,1.803-1.268,2.705l-0.254,0.547
		c-0.053,0.135-0.112,0.262-0.178,0.378l-0.037,0.079c-0.205,0.438-0.41,0.877-0.616,1.314c-0.261,0.552-0.554,1.158-0.897,1.856
		l-0.263,0.531l0.571-0.159c2.283-0.635,3.879-2.732,3.879-5.104c0-0.746-0.152-1.469-0.455-2.146L112.284,122.843z"/>
	<path fill="#FFFFFF" d="M105.54,58.448l0.078,0.127h2.068c0.617,0,1.119-0.505,1.119-1.125c0-0.621-0.502-1.126-1.119-1.126h-3.396
		l0.229,0.396C104.841,57.286,105.175,57.85,105.54,58.448z"/>
	<path fill="#FFFFFF" d="M113.241,58.575c0.621,0,1.126-0.505,1.126-1.125c0-0.621-0.505-1.126-1.126-1.126h-1.391
		c-0.62,0-1.125,0.505-1.125,1.126c0,0.62,0.505,1.125,1.125,1.125H113.241z"/>
	<path fill="#FFFFFF" d="M97.567,79.257l-0.893-3.063c-0.041-0.14,0.039-0.287,0.18-0.328l2.033-0.598l2.742-2.826l-1.141-1.107
		l-2.402,2.477c-0.033,0.033-0.072,0.057-0.117,0.069l-1.561,0.459c-0.064,0.02-0.141,0.012-0.201-0.022
		c-0.063-0.033-0.107-0.09-0.128-0.158l-0.777-2.667c-0.028-0.098,0.002-0.204,0.077-0.271l2.762-2.493l-1.064-1.18l-3.626,3.271
		l2.882,9.88l6.698,1.822c0.093,0.024,0.165,0.1,0.188,0.192l1.537,6.215c0.021,0.086-0.002,0.177-0.062,0.242
		c-0.06,0.063-0.146,0.098-0.233,0.084l-8.471-1.23l-0.229,1.572l8.17,1.188c0.104,0.017,0.191,0.091,0.219,0.193
		c0.027,0.102-0.01,0.211-0.092,0.276l-2.235,1.771l-3.823,5.796c-0.037,0.059-0.096,0.098-0.162,0.111l-6.312,1.418v7.226h1.59
		v-5.741c0-0.125,0.084-0.23,0.206-0.259l3.094-0.694c0.108-0.022,0.223,0.023,0.282,0.117l2.479,3.908
		c0.051,0.078,0.057,0.173,0.018,0.256l-2.355,4.979l4.201,3.953l1.09-1.156l-3.22-3.029c-0.084-0.079-0.106-0.202-0.059-0.306
		l2.217-4.685l-2.621-4.13c-0.047-0.073-0.055-0.163-0.021-0.243c0.033-0.08,0.103-0.14,0.187-0.158l0.302-0.066l4.071-6.173
		c0.015-0.022,0.034-0.044,0.058-0.062l2.76-2.186c0.078-0.063,0.189-0.074,0.279-0.031c0.092,0.044,0.149,0.139,0.149,0.238v11.229
		h1.59V91.009c0-0.084,0.04-0.164,0.108-0.215c0.068-0.049,0.156-0.063,0.238-0.037l7.019,2.282
		c0.092,0.029,0.159,0.106,0.179,0.201s-0.016,0.19-0.09,0.254l-3.88,3.271l4.456,0.701c0.101,0.017,0.185,0.09,0.213,0.188
		c0.029,0.099-0.002,0.204-0.078,0.272l-3.096,2.752l1.845,3.555l1.411-0.732l-1.18-2.271c-0.058-0.108-0.032-0.24,0.059-0.32
		l2.551-2.268l-0.441-0.496c-0.073-0.083-0.088-0.205-0.034-0.303c0.053-0.099,0.155-0.153,0.272-0.136l1.995,0.313
		c0.126,0.02,0.22,0.127,0.224,0.255l0.094,3.341l1.589-0.044l-0.136-4.882l-5.482-0.863c-0.102-0.017-0.186-0.091-0.214-0.189
		c-0.026-0.102,0.006-0.209,0.084-0.274l3.326-2.803l-8.58-2.789c-0.095-0.031-0.163-0.111-0.181-0.209
		c-0.017-0.099,0.023-0.195,0.104-0.257l3.238-2.426c0.046-0.035,0.103-0.054,0.158-0.054h6.613l1.666-5.552l1.891-7.292
		l-4.844-3.405l-0.914,1.302l3.545,2.491c0.086,0.06,0.127,0.165,0.106,0.268s-0.099,0.184-0.2,0.207
		c-1.941,0.447-4.406,1-5.506,1.211l-0.215,0.041v1.608l0.311-0.056c0.601-0.106,1.955-0.38,5.004-1.08
		c0.092-0.021,0.186,0.008,0.25,0.074c0.063,0.065,0.09,0.162,0.065,0.251l-1.022,3.942l-1.262,4.211
		c-0.035,0.111-0.137,0.188-0.255,0.188h-5.853l-4.42,3.313c-0.084,0.063-0.205,0.069-0.295,0.017
		c-0.094-0.056-0.144-0.161-0.127-0.269l1.682-10.981l-1.571-0.24l-1.627,10.631c-0.019,0.125-0.124,0.22-0.259,0.226
		c-0.126,0-0.23-0.082-0.26-0.201l-1.598-6.455l-6.748-1.836C97.664,79.413,97.593,79.343,97.567,79.257z"/>
	<polygon fill="#FFFFFF" points="83.692,69.027 82.023,67.72 74.239,77.666 75.75,67.532 61.522,63.567 77.643,59.349 
		61.301,45.496 81.457,49.624 83.959,41.66 86.875,48.612 97.749,44.675 95.902,48.446 97.806,49.379 101.96,40.896 88.049,45.932 
		83.674,35.499 80.008,47.163 53.614,41.758 73.164,58.331 53.395,63.503 73.377,69.072 70.961,85.296 	"/>
</g>
<g>
</g>
<g>
</g>
<g>
</g>
<g>
</g>
<g>
</g>
<g>
</g>
</svg>
