<?xml version="1.0" encoding="utf-8"?>
<!-- Generator: Adobe Illustrator 16.0.0, SVG Export Plug-In . SVG Version: 6.00 Build 0)  -->
<!DOCTYPE svg PUBLIC "-//W3C//DTD SVG 1.1//EN" "http://www.w3.org/Graphics/SVG/1.1/DTD/svg11.dtd">
<svg version="1.1" id="Capa_1" xmlns="http://www.w3.org/2000/svg" xmlns:xlink="http://www.w3.org/1999/xlink" x="0px" y="0px"
	 width="376.054px" height="99.676px" viewBox="0 0 376.054 99.676" enable-background="new 0 0 376.054 99.676"
	 xml:space="preserve">
<g>
	<ellipse fill="none" stroke="#FFFFFF" stroke-miterlimit="10" cx="322.204" cy="49.667" rx="44.798" ry="44.791"/>
	<rect x="9.672" y="20.421" fill="none" stroke="#FFFFFF" stroke-miterlimit="10" width="223.575" height="65.333"/>
	<line fill="none" stroke="#FFFFFF" stroke-miterlimit="10" x1="233.247" y1="50.455" x2="277.406" y2="50.455"/>
</g>
<g>
	<g>
		<path fill="#1F3659" d="M71.957,50.438l-0.759-2.491h-3.816l-0.759,2.491h-2.391l3.694-10.51h2.713l3.708,10.51H71.957z
			 M70.668,46.086c-0.702-2.258-1.097-3.535-1.185-3.831s-0.151-0.529-0.189-0.701c-0.158,0.61-0.609,2.121-1.354,4.532H70.668z"/>
		<path fill="#1F3659" d="M79.89,50.582c-0.94,0-1.678-0.342-2.212-1.024h-0.114c0.076,0.669,0.114,1.055,0.114,1.16v3.243h-2.184
			V42.435h1.775l0.308,1.038h0.1c0.511-0.793,1.267-1.188,2.27-1.188c0.945,0,1.685,0.365,2.22,1.095
			c0.534,0.73,0.802,1.745,0.802,3.043c0,0.854-0.125,1.597-0.376,2.227s-0.607,1.11-1.07,1.439S80.515,50.582,79.89,50.582z
			 M79.245,44.03c-0.539,0-0.933,0.166-1.181,0.498s-0.377,0.88-0.387,1.644v0.235c0,0.859,0.128,1.476,0.383,1.848
			c0.255,0.372,0.66,0.559,1.213,0.559c0.979,0,1.468-0.807,1.468-2.42c0-0.788-0.121-1.378-0.362-1.772
			C80.139,44.228,79.761,44.03,79.245,44.03z"/>
		<path fill="#1F3659" d="M89.856,50.438l-0.423-1.088h-0.057c-0.368,0.463-0.746,0.783-1.135,0.963
			c-0.389,0.179-0.896,0.269-1.521,0.269c-0.769,0-1.374-0.22-1.815-0.659c-0.441-0.438-0.662-1.064-0.662-1.876
			c0-0.85,0.297-1.476,0.891-1.879s1.491-0.627,2.688-0.67l1.389-0.043v-0.351c0-0.812-0.416-1.217-1.246-1.217
			c-0.64,0-1.392,0.193-2.255,0.58l-0.723-1.476c0.921-0.481,1.942-0.723,3.064-0.723c1.074,0,1.897,0.233,2.47,0.701
			s0.859,1.18,0.859,2.134v5.334H89.856z M89.211,46.729l-0.845,0.029c-0.635,0.019-1.107,0.134-1.418,0.344
			c-0.31,0.21-0.465,0.529-0.465,0.959c0,0.615,0.354,0.924,1.06,0.924c0.506,0,0.911-0.146,1.214-0.437
			c0.303-0.292,0.455-0.678,0.455-1.16V46.729z"/>
		<path fill="#1F3659" d="M100.595,42.435v1.109l-1.253,0.322c0.229,0.357,0.344,0.759,0.344,1.202c0,0.859-0.3,1.529-0.899,2.009
			c-0.599,0.479-1.431,0.72-2.495,0.72l-0.394-0.021l-0.322-0.036c-0.224,0.172-0.336,0.363-0.336,0.573
			c0,0.314,0.401,0.472,1.203,0.472h1.36c0.878,0,1.548,0.189,2.008,0.566s0.691,0.931,0.691,1.661c0,0.935-0.39,1.66-1.17,2.176
			s-1.901,0.773-3.361,0.773c-1.117,0-1.97-0.194-2.56-0.583c-0.59-0.39-0.884-0.935-0.884-1.637c0-0.481,0.15-0.885,0.451-1.21
			c0.301-0.324,0.742-0.556,1.324-0.694c-0.224-0.096-0.42-0.252-0.587-0.469s-0.25-0.447-0.25-0.691
			c0-0.305,0.088-0.559,0.265-0.762c0.177-0.203,0.432-0.402,0.766-0.598c-0.42-0.182-0.753-0.473-0.999-0.874
			c-0.246-0.4-0.369-0.873-0.369-1.417c0-0.874,0.284-1.549,0.852-2.026c0.568-0.478,1.379-0.716,2.435-0.716
			c0.224,0,0.49,0.02,0.798,0.061c0.308,0.041,0.504,0.07,0.59,0.09H100.595z M94.417,51.569c0,0.301,0.144,0.537,0.433,0.709
			c0.289,0.172,0.693,0.258,1.213,0.258c0.783,0,1.396-0.107,1.84-0.322s0.666-0.508,0.666-0.881c0-0.3-0.131-0.508-0.394-0.622
			c-0.263-0.115-0.668-0.172-1.217-0.172h-1.131c-0.401,0-0.736,0.094-1.006,0.282C94.551,51.01,94.417,51.26,94.417,51.569z
			 M95.211,45.055c0,0.435,0.099,0.778,0.297,1.031c0.198,0.253,0.5,0.379,0.906,0.379c0.41,0,0.711-0.126,0.902-0.379
			s0.287-0.597,0.287-1.031c0-0.964-0.396-1.446-1.188-1.446C95.612,43.608,95.211,44.091,95.211,45.055z"/>
		<path fill="#1F3659" d="M107.583,50.438l-0.293-1.023h-0.115c-0.234,0.372-0.565,0.659-0.995,0.862s-0.919,0.305-1.468,0.305
			c-0.94,0-1.649-0.252-2.126-0.756c-0.477-0.503-0.716-1.228-0.716-2.173v-5.219h2.184v4.675c0,0.577,0.103,1.011,0.308,1.3
			c0.205,0.288,0.532,0.433,0.98,0.433c0.611,0,1.053-0.204,1.325-0.612s0.408-1.084,0.408-2.029v-3.766h2.184v8.004H107.583z"/>
		<path fill="#1F3659" d="M115.172,50.582c-1.289,0-2.296-0.355-3.021-1.067c-0.726-0.711-1.088-1.718-1.088-3.021
			c0-1.341,0.335-2.378,1.006-3.11s1.598-1.099,2.782-1.099c1.131,0,2.012,0.322,2.642,0.966c0.63,0.645,0.945,1.535,0.945,2.671
			v1.06h-5.162c0.024,0.62,0.208,1.105,0.551,1.453c0.344,0.349,0.826,0.522,1.446,0.522c0.482,0,0.938-0.05,1.367-0.15
			c0.43-0.1,0.878-0.26,1.346-0.479v1.689c-0.382,0.191-0.79,0.333-1.225,0.427C116.327,50.535,115.797,50.582,115.172,50.582z
			 M114.864,43.838c-0.463,0-0.826,0.146-1.088,0.439c-0.263,0.294-0.413,0.71-0.451,1.25h3.064c-0.01-0.54-0.15-0.956-0.422-1.25
			C115.695,43.984,115.327,43.838,114.864,43.838z"/>
		<path fill="#1F3659" d="M127.644,50.582c-1.289,0-2.296-0.355-3.021-1.067c-0.726-0.711-1.088-1.718-1.088-3.021
			c0-1.341,0.335-2.378,1.006-3.11s1.598-1.099,2.782-1.099c1.131,0,2.012,0.322,2.642,0.966c0.63,0.645,0.945,1.535,0.945,2.671
			v1.06h-5.162c0.024,0.62,0.208,1.105,0.551,1.453c0.344,0.349,0.826,0.522,1.446,0.522c0.482,0,0.938-0.05,1.367-0.15
			c0.43-0.1,0.878-0.26,1.346-0.479v1.689c-0.382,0.191-0.79,0.333-1.225,0.427C128.799,50.535,128.269,50.582,127.644,50.582z
			 M127.336,43.838c-0.463,0-0.826,0.146-1.088,0.439c-0.263,0.294-0.413,0.71-0.451,1.25h3.064c-0.01-0.54-0.15-0.956-0.422-1.25
			C128.167,43.984,127.799,43.838,127.336,43.838z"/>
		<path fill="#1F3659" d="M134.868,50.438h-2.184V39.298h2.184V50.438z"/>
		<path fill="#1F3659" d="M149.824,45.104c0,1.724-0.491,3.043-1.471,3.959c-0.981,0.917-2.397,1.375-4.25,1.375h-2.964V39.972
			h3.286c1.708,0,3.036,0.45,3.981,1.353C149.351,42.227,149.824,43.486,149.824,45.104z M147.518,45.162
			c0-2.248-0.993-3.372-2.978-3.372h-1.182v6.815h0.953C146.449,48.605,147.518,47.458,147.518,45.162z"/>
		<path fill="#1F3659" d="M156.425,50.438l-2.52-8.212h-0.064c0.09,1.671,0.136,2.785,0.136,3.344v4.868h-1.983V39.972h3.021
			l2.477,8.004h0.043l2.627-8.004h3.021v10.467h-2.069v-4.954c0-0.234,0.004-0.504,0.011-0.81c0.007-0.305,0.04-1.116,0.097-2.434
			h-0.064l-2.699,8.197H156.425z"/>
		<path fill="#1F3659" d="M170.264,41.668c-0.835,0-1.482,0.314-1.94,0.941c-0.458,0.628-0.688,1.503-0.688,2.624
			c0,2.334,0.876,3.501,2.627,3.501c0.735,0,1.625-0.184,2.671-0.551v1.861c-0.859,0.357-1.819,0.537-2.878,0.537
			c-1.522,0-2.687-0.462-3.494-1.386s-1.21-2.249-1.21-3.978c0-1.088,0.198-2.041,0.594-2.859c0.396-0.819,0.965-1.446,1.708-1.884
			c0.742-0.437,1.612-0.654,2.609-0.654c1.017,0,2.038,0.245,3.064,0.737l-0.716,1.804c-0.392-0.186-0.785-0.348-1.182-0.486
			C171.035,41.737,170.646,41.668,170.264,41.668z"/>
		<path fill="#1F3659" d="M42.986,68.034l-0.423-1.088h-0.057c-0.368,0.463-0.746,0.783-1.135,0.963
			c-0.389,0.179-0.896,0.269-1.521,0.269c-0.769,0-1.374-0.22-1.815-0.659c-0.441-0.438-0.662-1.064-0.662-1.876
			c0-0.85,0.297-1.476,0.891-1.879s1.491-0.627,2.688-0.67l1.389-0.043V62.7c0-0.812-0.416-1.217-1.246-1.217
			c-0.64,0-1.392,0.193-2.255,0.58l-0.723-1.476c0.921-0.481,1.942-0.723,3.064-0.723c1.074,0,1.897,0.233,2.47,0.701
			s0.859,1.18,0.859,2.134v5.334H42.986z M42.342,64.325l-0.845,0.029c-0.635,0.019-1.107,0.134-1.418,0.344
			c-0.31,0.21-0.465,0.529-0.465,0.959c0,0.615,0.354,0.924,1.06,0.924c0.506,0,0.911-0.146,1.214-0.437
			c0.303-0.292,0.455-0.678,0.455-1.16V64.325z"/>
		<path fill="#1F3659" d="M54.148,68.034h-2.184v-4.675c0-0.578-0.103-1.011-0.308-1.3s-0.532-0.434-0.98-0.434
			c-0.611,0-1.053,0.204-1.325,0.612s-0.408,1.085-0.408,2.03v3.766h-2.184V60.03h1.668l0.294,1.023h0.122
			c0.243-0.387,0.579-0.679,1.006-0.877s0.913-0.297,1.457-0.297c0.931,0,1.637,0.251,2.119,0.755s0.723,1.23,0.723,2.18V68.034z"/>
		<path fill="#1F3659" d="M59.768,66.438c0.382,0,0.84-0.083,1.375-0.25v1.625c-0.544,0.243-1.212,0.365-2.004,0.365
			c-0.874,0-1.51-0.221-1.908-0.663c-0.398-0.441-0.598-1.104-0.598-1.986v-3.859h-1.045v-0.923l1.203-0.73l0.63-1.689h1.396v1.704
			h2.241v1.639h-2.241v3.859c0,0.311,0.087,0.539,0.261,0.688C59.251,66.363,59.482,66.438,59.768,66.438z"/>
		<path fill="#1F3659" d="M66.383,68.178c-1.289,0-2.296-0.355-3.021-1.067c-0.726-0.711-1.088-1.718-1.088-3.021
			c0-1.341,0.335-2.378,1.006-3.11s1.598-1.099,2.782-1.099c1.131,0,2.012,0.322,2.642,0.966c0.63,0.645,0.945,1.535,0.945,2.671
			v1.06h-5.162c0.024,0.62,0.208,1.105,0.551,1.453c0.344,0.349,0.826,0.522,1.446,0.522c0.482,0,0.938-0.05,1.367-0.15
			c0.43-0.1,0.878-0.26,1.346-0.479v1.689c-0.382,0.191-0.79,0.333-1.225,0.427C67.539,68.131,67.009,68.178,66.383,68.178z
			 M66.076,61.434c-0.463,0-0.826,0.146-1.088,0.439c-0.263,0.294-0.413,0.71-0.451,1.25h3.064c-0.01-0.54-0.15-0.956-0.422-1.25
			C66.906,61.58,66.539,61.434,66.076,61.434z"/>
		<path fill="#1F3659" d="M77.008,65.657c0,0.821-0.285,1.446-0.855,1.876s-1.424,0.645-2.56,0.645c-0.583,0-1.079-0.04-1.489-0.118
			c-0.411-0.079-0.795-0.194-1.153-0.348v-1.804c0.406,0.19,0.863,0.351,1.371,0.479s0.956,0.193,1.342,0.193
			c0.792,0,1.188-0.229,1.188-0.688c0-0.172-0.052-0.312-0.157-0.419s-0.287-0.229-0.544-0.365
			c-0.258-0.136-0.602-0.295-1.031-0.476c-0.616-0.258-1.068-0.497-1.356-0.717c-0.289-0.219-0.499-0.471-0.63-0.755
			s-0.197-0.634-0.197-1.049c0-0.711,0.275-1.261,0.827-1.65c0.551-0.389,1.333-0.583,2.345-0.583c0.964,0,1.902,0.21,2.813,0.63
			l-0.659,1.575c-0.401-0.172-0.776-0.313-1.124-0.423c-0.349-0.109-0.704-0.165-1.067-0.165c-0.644,0-0.966,0.175-0.966,0.523
			c0,0.195,0.104,0.365,0.312,0.508c0.208,0.144,0.662,0.355,1.364,0.638c0.625,0.253,1.083,0.489,1.375,0.708
			c0.291,0.22,0.506,0.473,0.645,0.76C76.939,64.92,77.008,65.261,77.008,65.657z"/>
		<path fill="#1F3659" d="M85.056,68.178c-0.94,0-1.679-0.365-2.216-1.096c-0.537-0.73-0.806-1.742-0.806-3.036
			c0-1.313,0.273-2.335,0.82-3.067c0.546-0.732,1.299-1.099,2.259-1.099c1.007,0,1.775,0.391,2.305,1.174h0.072
			c-0.11-0.597-0.165-1.129-0.165-1.597v-2.563h2.19v11.141H87.84l-0.422-1.038h-0.093C86.829,67.783,86.072,68.178,85.056,68.178z
			 M85.822,66.438c0.558,0,0.967-0.162,1.228-0.486c0.26-0.325,0.402-0.876,0.426-1.654v-0.236c0-0.859-0.133-1.475-0.397-1.847
			c-0.265-0.373-0.696-0.559-1.292-0.559c-0.487,0-0.865,0.206-1.135,0.619s-0.404,1.013-0.404,1.801
			c0,0.787,0.136,1.378,0.408,1.771C84.927,66.24,85.315,66.438,85.822,66.438z"/>
		<path fill="#1F3659" d="M95.422,68.178c-1.289,0-2.296-0.355-3.021-1.067c-0.726-0.711-1.088-1.718-1.088-3.021
			c0-1.341,0.335-2.378,1.006-3.11s1.598-1.099,2.782-1.099c1.131,0,2.012,0.322,2.642,0.966c0.63,0.645,0.945,1.535,0.945,2.671
			v1.06h-5.162c0.024,0.62,0.208,1.105,0.551,1.453c0.344,0.349,0.826,0.522,1.446,0.522c0.482,0,0.938-0.05,1.367-0.15
			c0.43-0.1,0.878-0.26,1.346-0.479v1.689c-0.382,0.191-0.79,0.333-1.225,0.427C96.577,68.131,96.047,68.178,95.422,68.178z
			 M95.114,61.434c-0.463,0-0.826,0.146-1.088,0.439c-0.263,0.294-0.413,0.71-0.451,1.25h3.064c-0.01-0.54-0.15-0.956-0.422-1.25
			C95.945,61.58,95.577,61.434,95.114,61.434z"/>
		<path fill="#1F3659" d="M106.455,68.034h-2.184V56.894h2.184V68.034z"/>
		<path fill="#1F3659" d="M113.83,68.034l-0.423-1.088h-0.057c-0.368,0.463-0.746,0.783-1.135,0.963
			c-0.389,0.179-0.896,0.269-1.521,0.269c-0.769,0-1.374-0.22-1.815-0.659c-0.441-0.438-0.662-1.064-0.662-1.876
			c0-0.85,0.297-1.476,0.891-1.879s1.491-0.627,2.688-0.67l1.389-0.043V62.7c0-0.812-0.416-1.217-1.246-1.217
			c-0.64,0-1.392,0.193-2.255,0.58l-0.723-1.476c0.921-0.481,1.942-0.723,3.064-0.723c1.074,0,1.897,0.233,2.47,0.701
			s0.859,1.18,0.859,2.134v5.334H113.83z M113.185,64.325l-0.845,0.029c-0.635,0.019-1.107,0.134-1.418,0.344
			c-0.31,0.21-0.465,0.529-0.465,0.959c0,0.615,0.354,0.924,1.06,0.924c0.506,0,0.911-0.146,1.214-0.437
			c0.303-0.292,0.455-0.678,0.455-1.16V64.325z"/>
		<path fill="#1F3659" d="M121.318,57.961c0-0.711,0.396-1.067,1.188-1.067c0.792,0,1.188,0.356,1.188,1.067
			c0,0.339-0.099,0.603-0.297,0.791c-0.198,0.188-0.495,0.283-0.892,0.283C121.714,59.035,121.318,58.677,121.318,57.961z
			 M123.595,68.034h-2.184V60.03h2.184V68.034z"/>
		<path fill="#1F3659" d="M133.274,68.034h-2.184v-4.675c0-0.578-0.103-1.011-0.308-1.3s-0.532-0.434-0.98-0.434
			c-0.611,0-1.053,0.204-1.325,0.612s-0.408,1.085-0.408,2.03v3.766h-2.184V60.03h1.668l0.294,1.023h0.122
			c0.243-0.387,0.579-0.679,1.006-0.877s0.913-0.297,1.457-0.297c0.931,0,1.637,0.251,2.119,0.755s0.723,1.23,0.723,2.18V68.034z"/>
		<path fill="#1F3659" d="M141.107,65.657c0,0.821-0.285,1.446-0.855,1.876s-1.424,0.645-2.56,0.645
			c-0.583,0-1.079-0.04-1.489-0.118c-0.411-0.079-0.795-0.194-1.153-0.348v-1.804c0.406,0.19,0.863,0.351,1.371,0.479
			s0.956,0.193,1.342,0.193c0.792,0,1.188-0.229,1.188-0.688c0-0.172-0.052-0.312-0.157-0.419s-0.287-0.229-0.544-0.365
			c-0.258-0.136-0.602-0.295-1.031-0.476c-0.616-0.258-1.068-0.497-1.356-0.717c-0.289-0.219-0.499-0.471-0.63-0.755
			s-0.197-0.634-0.197-1.049c0-0.711,0.275-1.261,0.827-1.65c0.551-0.389,1.333-0.583,2.345-0.583c0.964,0,1.902,0.21,2.813,0.63
			l-0.659,1.575c-0.401-0.172-0.776-0.313-1.124-0.423c-0.349-0.109-0.704-0.165-1.067-0.165c-0.644,0-0.966,0.175-0.966,0.523
			c0,0.195,0.104,0.365,0.312,0.508c0.208,0.144,0.662,0.355,1.364,0.638c0.625,0.253,1.083,0.489,1.375,0.708
			c0.291,0.22,0.506,0.473,0.645,0.76C141.038,64.92,141.107,65.261,141.107,65.657z"/>
		<path fill="#1F3659" d="M146.183,66.438c0.382,0,0.84-0.083,1.375-0.25v1.625c-0.544,0.243-1.212,0.365-2.004,0.365
			c-0.874,0-1.51-0.221-1.908-0.663c-0.398-0.441-0.598-1.104-0.598-1.986v-3.859h-1.045v-0.923l1.203-0.73l0.63-1.689h1.396v1.704
			h2.241v1.639h-2.241v3.859c0,0.311,0.087,0.539,0.261,0.688C145.667,66.363,145.897,66.438,146.183,66.438z"/>
		<path fill="#1F3659" d="M154.259,68.034l-0.423-1.088h-0.057c-0.368,0.463-0.746,0.783-1.135,0.963
			c-0.389,0.179-0.896,0.269-1.521,0.269c-0.769,0-1.374-0.22-1.815-0.659c-0.441-0.438-0.662-1.064-0.662-1.876
			c0-0.85,0.297-1.476,0.891-1.879s1.491-0.627,2.688-0.67l1.389-0.043V62.7c0-0.812-0.416-1.217-1.246-1.217
			c-0.64,0-1.392,0.193-2.255,0.58l-0.723-1.476c0.921-0.481,1.942-0.723,3.064-0.723c1.074,0,1.897,0.233,2.47,0.701
			s0.859,1.18,0.859,2.134v5.334H154.259z M153.615,64.325l-0.845,0.029c-0.635,0.019-1.107,0.134-1.418,0.344
			c-0.31,0.21-0.465,0.529-0.465,0.959c0,0.615,0.354,0.924,1.06,0.924c0.506,0,0.911-0.146,1.214-0.437
			c0.303-0.292,0.455-0.678,0.455-1.16V64.325z"/>
		<path fill="#1F3659" d="M160.216,68.034h-2.184V56.894h2.184V68.034z"/>
		<path fill="#1F3659" d="M167.59,68.034l-0.423-1.088h-0.057c-0.368,0.463-0.746,0.783-1.135,0.963
			c-0.389,0.179-0.896,0.269-1.521,0.269c-0.769,0-1.374-0.22-1.815-0.659c-0.441-0.438-0.662-1.064-0.662-1.876
			c0-0.85,0.297-1.476,0.891-1.879s1.491-0.627,2.688-0.67l1.389-0.043V62.7c0-0.812-0.416-1.217-1.246-1.217
			c-0.64,0-1.392,0.193-2.255,0.58l-0.723-1.476c0.921-0.481,1.942-0.723,3.064-0.723c1.074,0,1.897,0.233,2.47,0.701
			s0.859,1.18,0.859,2.134v5.334H167.59z M166.946,64.325l-0.845,0.029c-0.635,0.019-1.107,0.134-1.418,0.344
			c-0.31,0.21-0.465,0.529-0.465,0.959c0,0.615,0.354,0.924,1.06,0.924c0.506,0,0.911-0.146,1.214-0.437
			c0.303-0.292,0.455-0.678,0.455-1.16V64.325z"/>
		<path fill="#1F3659" d="M174.614,68.178c-2.492,0-3.737-1.368-3.737-4.103c0-1.36,0.339-2.399,1.017-3.118
			s1.649-1.077,2.914-1.077c0.926,0,1.756,0.181,2.491,0.544l-0.644,1.689c-0.344-0.139-0.664-0.252-0.959-0.34
			c-0.296-0.089-0.592-0.133-0.888-0.133c-1.136,0-1.704,0.807-1.704,2.42c0,1.565,0.568,2.349,1.704,2.349
			c0.42,0,0.809-0.057,1.167-0.169c0.358-0.111,0.716-0.287,1.074-0.525v1.868c-0.353,0.225-0.71,0.38-1.07,0.466
			S175.163,68.178,174.614,68.178z"/>
		<path fill="#1F3659" d="M178.809,57.961c0-0.711,0.396-1.067,1.188-1.067c0.792,0,1.188,0.356,1.188,1.067
			c0,0.339-0.099,0.603-0.297,0.791c-0.198,0.188-0.495,0.283-0.892,0.283C179.205,59.035,178.809,58.677,178.809,57.961z
			 M181.085,68.034h-2.184V60.03h2.184V68.034z"/>
		<path fill="#1F3659" d="M190.651,64.018c0,1.303-0.343,2.322-1.03,3.058c-0.688,0.734-1.645,1.103-2.872,1.103
			c-0.769,0-1.446-0.169-2.033-0.505c-0.587-0.337-1.038-0.82-1.353-1.45s-0.473-1.365-0.473-2.205c0-1.308,0.341-2.324,1.024-3.05
			c0.682-0.726,1.642-1.088,2.878-1.088c0.769,0,1.446,0.167,2.034,0.501c0.587,0.334,1.037,0.813,1.354,1.438
			C190.494,62.445,190.651,63.178,190.651,64.018z M185.117,64.018c0,0.792,0.13,1.392,0.39,1.797
			c0.26,0.406,0.684,0.608,1.271,0.608c0.582,0,1.001-0.201,1.256-0.604s0.383-1.004,0.383-1.801c0-0.792-0.129-1.387-0.387-1.782
			c-0.258-0.396-0.68-0.595-1.268-0.595c-0.582,0-1.002,0.197-1.26,0.591S185.117,63.221,185.117,64.018z M185.575,59.149v-0.193
			c0.821-0.955,1.382-1.673,1.683-2.155h2.449v0.15c-0.249,0.248-0.672,0.617-1.271,1.106c-0.599,0.489-1.068,0.853-1.407,1.092
			H185.575z"/>
		<path fill="#1F3659" d="M199.843,68.034h-2.184v-4.675c0-0.578-0.103-1.011-0.308-1.3s-0.532-0.434-0.98-0.434
			c-0.611,0-1.053,0.204-1.325,0.612c-0.271,0.408-0.408,1.085-0.408,2.03v3.766h-2.184V60.03h1.668l0.295,1.023h0.121
			c0.243-0.387,0.578-0.679,1.006-0.877s0.912-0.297,1.457-0.297c0.931,0,1.637,0.251,2.119,0.755s0.723,1.23,0.723,2.18V68.034z"/>
		<path fill="#1F3659" d="M201.785,67.011c0-0.401,0.106-0.704,0.321-0.909c0.215-0.206,0.527-0.309,0.938-0.309
			c0.396,0,0.702,0.105,0.92,0.315c0.217,0.21,0.325,0.511,0.325,0.902c0,0.377-0.11,0.674-0.329,0.891
			c-0.22,0.218-0.525,0.326-0.916,0.326c-0.401,0-0.711-0.106-0.932-0.318C201.894,67.696,201.785,67.397,201.785,67.011z"/>
	</g>
</g>
</svg>
