<?xml version="1.0" encoding="utf-8"?>
<!-- Generator: Adobe Illustrator 16.0.0, SVG Export Plug-In . SVG Version: 6.00 Build 0)  -->
<!DOCTYPE svg PUBLIC "-//W3C//DTD SVG 1.1//EN" "http://www.w3.org/Graphics/SVG/1.1/DTD/svg11.dtd">
<svg version="1.1" id="Capa_1" xmlns="http://www.w3.org/2000/svg" xmlns:xlink="http://www.w3.org/1999/xlink" x="0px" y="0px"
	 width="376.054px" height="99.676px" viewBox="0 0 376.054 99.676" enable-background="new 0 0 376.054 99.676"
	 xml:space="preserve">
<g>
	<g>
		<path fill="#1F3659" d="M32.758,57.11h-2.22v-8.62h-2.842v-1.847H35.6v1.847h-2.842V57.11z"/>
		<path fill="#1F3659" d="M42.123,57.11L41.7,56.022h-0.057c-0.368,0.463-0.746,0.783-1.135,0.963
			c-0.389,0.179-0.896,0.269-1.521,0.269c-0.769,0-1.374-0.22-1.815-0.659c-0.441-0.438-0.662-1.064-0.662-1.876
			c0-0.85,0.297-1.476,0.891-1.879s1.491-0.627,2.688-0.67l1.389-0.043v-0.351c0-0.812-0.416-1.217-1.246-1.217
			c-0.64,0-1.392,0.193-2.255,0.58l-0.723-1.476c0.921-0.481,1.942-0.723,3.064-0.723c1.074,0,1.897,0.233,2.47,0.701
			s0.859,1.18,0.859,2.134v5.334H42.123z M41.478,53.401l-0.845,0.029c-0.635,0.019-1.107,0.134-1.418,0.344
			c-0.31,0.21-0.465,0.529-0.465,0.959c0,0.615,0.354,0.924,1.06,0.924c0.506,0,0.911-0.146,1.214-0.437
			c0.303-0.292,0.455-0.678,0.455-1.16V53.401z"/>
		<path fill="#1F3659" d="M50.292,57.254c-0.94,0-1.678-0.342-2.212-1.024h-0.114c0.076,0.669,0.114,1.055,0.114,1.16v3.243h-2.184
			V49.106h1.775l0.308,1.038h0.1c0.511-0.793,1.267-1.188,2.27-1.188c0.945,0,1.685,0.365,2.22,1.095
			c0.534,0.73,0.802,1.745,0.802,3.043c0,0.854-0.125,1.597-0.376,2.227s-0.607,1.11-1.07,1.439S50.917,57.254,50.292,57.254z
			 M49.647,50.702c-0.539,0-0.933,0.166-1.181,0.498s-0.377,0.88-0.387,1.644v0.235c0,0.859,0.128,1.476,0.383,1.848
			c0.255,0.372,0.66,0.559,1.213,0.559c0.979,0,1.468-0.807,1.468-2.42c0-0.788-0.121-1.378-0.362-1.772
			C50.541,50.899,50.163,50.702,49.647,50.702z"/>
		<path fill="#1F3659" d="M58.797,57.254c-1.289,0-2.296-0.355-3.021-1.067c-0.726-0.711-1.088-1.718-1.088-3.021
			c0-1.341,0.335-2.378,1.006-3.11s1.598-1.099,2.782-1.099c1.131,0,2.012,0.322,2.642,0.966c0.63,0.645,0.945,1.535,0.945,2.671
			v1.06H56.9c0.024,0.62,0.208,1.105,0.551,1.453c0.344,0.349,0.826,0.522,1.446,0.522c0.482,0,0.938-0.05,1.367-0.15
			c0.43-0.1,0.878-0.26,1.346-0.479v1.689c-0.382,0.191-0.79,0.333-1.225,0.427C59.952,57.207,59.422,57.254,58.797,57.254z
			 M58.489,50.51c-0.463,0-0.826,0.146-1.088,0.439c-0.263,0.294-0.413,0.71-0.451,1.25h3.064c-0.01-0.54-0.15-0.956-0.422-1.25
			C59.32,50.656,58.952,50.51,58.489,50.51z"/>
		<path fill="#1F3659" d="M75.035,57.11h-2.184v-4.675c0-0.578-0.103-1.011-0.308-1.3s-0.532-0.434-0.98-0.434
			c-0.611,0-1.053,0.204-1.325,0.612s-0.408,1.085-0.408,2.03v3.766h-2.184v-8.004h1.668l0.294,1.023h0.122
			c0.243-0.387,0.579-0.679,1.006-0.877s0.913-0.297,1.457-0.297c0.931,0,1.637,0.251,2.119,0.755s0.723,1.23,0.723,2.18V57.11z"/>
		<path fill="#1F3659" d="M82.954,57.11l-0.293-1.023h-0.115c-0.234,0.372-0.565,0.659-0.995,0.862s-0.919,0.305-1.468,0.305
			c-0.94,0-1.649-0.252-2.126-0.756c-0.477-0.503-0.716-1.228-0.716-2.173v-5.219h2.184v4.675c0,0.577,0.103,1.011,0.308,1.3
			c0.205,0.288,0.532,0.433,0.98,0.433c0.611,0,1.053-0.204,1.325-0.612s0.408-1.084,0.408-2.029v-3.766h2.184v8.004H82.954z"/>
		<path fill="#1F3659" d="M90.542,57.254c-1.289,0-2.296-0.355-3.021-1.067c-0.726-0.711-1.088-1.718-1.088-3.021
			c0-1.341,0.335-2.378,1.006-3.11s1.598-1.099,2.782-1.099c1.131,0,2.012,0.322,2.642,0.966c0.63,0.645,0.945,1.535,0.945,2.671
			v1.06h-5.162c0.024,0.62,0.208,1.105,0.551,1.453c0.344,0.349,0.826,0.522,1.446,0.522c0.482,0,0.938-0.05,1.367-0.15
			c0.43-0.1,0.878-0.26,1.346-0.479v1.689c-0.382,0.191-0.79,0.333-1.225,0.427C91.698,57.207,91.168,57.254,90.542,57.254z
			 M90.235,50.51c-0.463,0-0.826,0.146-1.088,0.439c-0.263,0.294-0.413,0.71-0.451,1.25h3.064c-0.01-0.54-0.15-0.956-0.422-1.25
			C91.065,50.656,90.698,50.51,90.235,50.51z"/>
		<path fill="#1F3659" d="M97.487,57.11l-3.05-8.004h2.284l1.547,4.561c0.171,0.577,0.279,1.124,0.322,1.64h0.043
			c0.024-0.459,0.131-1.005,0.322-1.64l1.54-4.561h2.284l-3.05,8.004H97.487z"/>
		<path fill="#1F3659" d="M109.007,57.11l-0.423-1.088h-0.057c-0.368,0.463-0.746,0.783-1.135,0.963
			c-0.389,0.179-0.896,0.269-1.521,0.269c-0.769,0-1.374-0.22-1.815-0.659c-0.441-0.438-0.662-1.064-0.662-1.876
			c0-0.85,0.297-1.476,0.891-1.879s1.491-0.627,2.688-0.67l1.389-0.043v-0.351c0-0.812-0.416-1.217-1.246-1.217
			c-0.64,0-1.392,0.193-2.255,0.58l-0.723-1.476c0.921-0.481,1.942-0.723,3.064-0.723c1.074,0,1.897,0.233,2.47,0.701
			s0.859,1.18,0.859,2.134v5.334H109.007z M108.363,53.401l-0.845,0.029c-0.635,0.019-1.107,0.134-1.418,0.344
			c-0.31,0.21-0.465,0.529-0.465,0.959c0,0.615,0.354,0.924,1.06,0.924c0.506,0,0.911-0.146,1.214-0.437
			c0.303-0.292,0.455-0.678,0.455-1.16V53.401z"/>
		<path fill="#1F3659" d="M119.947,57.11h-2.184v-4.675c0-0.578-0.097-1.011-0.29-1.3c-0.193-0.289-0.498-0.434-0.913-0.434
			c-0.559,0-0.964,0.206-1.217,0.616s-0.379,1.086-0.379,2.026v3.766h-2.184v-8.004h1.668l0.294,1.023h0.122
			c0.215-0.367,0.525-0.655,0.931-0.862c0.406-0.208,0.871-0.312,1.396-0.312c1.198,0,2.009,0.391,2.435,1.174h0.193
			c0.215-0.372,0.531-0.661,0.949-0.866s0.889-0.308,1.414-0.308c0.907,0,1.593,0.232,2.059,0.697
			c0.465,0.466,0.698,1.212,0.698,2.237v5.22h-2.191v-4.675c0-0.578-0.096-1.011-0.29-1.3s-0.498-0.434-0.913-0.434
			c-0.535,0-0.934,0.191-1.199,0.573c-0.265,0.382-0.397,0.988-0.397,1.818V57.11z"/>
		<path fill="#1F3659" d="M130.801,57.254c-1.289,0-2.296-0.355-3.021-1.067c-0.726-0.711-1.088-1.718-1.088-3.021
			c0-1.341,0.335-2.378,1.006-3.11s1.598-1.099,2.782-1.099c1.131,0,2.012,0.322,2.642,0.966c0.63,0.645,0.945,1.535,0.945,2.671
			v1.06h-5.162c0.024,0.62,0.208,1.105,0.551,1.453c0.344,0.349,0.826,0.522,1.446,0.522c0.482,0,0.938-0.05,1.367-0.15
			c0.43-0.1,0.878-0.26,1.346-0.479v1.689c-0.382,0.191-0.79,0.333-1.225,0.427C131.956,57.207,131.426,57.254,130.801,57.254z
			 M130.493,50.51c-0.463,0-0.826,0.146-1.088,0.439c-0.263,0.294-0.413,0.71-0.451,1.25h3.064c-0.01-0.54-0.15-0.956-0.422-1.25
			C131.324,50.656,130.956,50.51,130.493,50.51z"/>
		<path fill="#1F3659" d="M143.23,57.11h-2.184v-4.675c0-0.578-0.103-1.011-0.308-1.3s-0.532-0.434-0.98-0.434
			c-0.611,0-1.053,0.204-1.325,0.612s-0.408,1.085-0.408,2.03v3.766h-2.184v-8.004h1.668l0.294,1.023h0.122
			c0.243-0.387,0.579-0.679,1.006-0.877s0.913-0.297,1.457-0.297c0.931,0,1.637,0.251,2.119,0.755s0.723,1.23,0.723,2.18V57.11z"/>
		<path fill="#1F3659" d="M148.85,55.514c0.382,0,0.84-0.083,1.375-0.25v1.625c-0.544,0.243-1.212,0.365-2.004,0.365
			c-0.874,0-1.51-0.221-1.908-0.663c-0.398-0.441-0.598-1.104-0.598-1.986v-3.859h-1.045v-0.923l1.203-0.73l0.63-1.689h1.396v1.704
			h2.241v1.639h-2.241v3.859c0,0.311,0.087,0.539,0.261,0.688C148.333,55.439,148.564,55.514,148.85,55.514z"/>
		<path fill="#1F3659" d="M155.465,57.254c-1.289,0-2.296-0.355-3.021-1.067c-0.726-0.711-1.088-1.718-1.088-3.021
			c0-1.341,0.335-2.378,1.006-3.11s1.598-1.099,2.782-1.099c1.131,0,2.012,0.322,2.642,0.966c0.63,0.645,0.945,1.535,0.945,2.671
			v1.06h-5.162c0.024,0.62,0.208,1.105,0.551,1.453c0.344,0.349,0.826,0.522,1.446,0.522c0.482,0,0.938-0.05,1.367-0.15
			c0.43-0.1,0.878-0.26,1.346-0.479v1.689c-0.382,0.191-0.79,0.333-1.225,0.427C156.621,57.207,156.091,57.254,155.465,57.254z
			 M155.158,50.51c-0.463,0-0.826,0.146-1.088,0.439c-0.263,0.294-0.413,0.71-0.451,1.25h3.064c-0.01-0.54-0.15-0.956-0.422-1.25
			C155.988,50.656,155.621,50.51,155.158,50.51z"/>
		<path fill="#1F3659" d="M167.938,57.254c-1.289,0-2.296-0.355-3.021-1.067c-0.726-0.711-1.088-1.718-1.088-3.021
			c0-1.341,0.335-2.378,1.006-3.11s1.598-1.099,2.782-1.099c1.131,0,2.012,0.322,2.642,0.966c0.63,0.645,0.945,1.535,0.945,2.671
			v1.06h-5.162c0.024,0.62,0.208,1.105,0.551,1.453c0.344,0.349,0.826,0.522,1.446,0.522c0.482,0,0.938-0.05,1.367-0.15
			c0.43-0.1,0.878-0.26,1.346-0.479v1.689c-0.382,0.191-0.79,0.333-1.225,0.427C169.093,57.207,168.563,57.254,167.938,57.254z
			 M167.63,50.51c-0.463,0-0.826,0.146-1.088,0.439c-0.263,0.294-0.413,0.71-0.451,1.25h3.064c-0.01-0.54-0.15-0.956-0.422-1.25
			C168.46,50.656,168.093,50.51,167.63,50.51z"/>
		<path fill="#1F3659" d="M175.162,57.11h-2.184V45.97h2.184V57.11z"/>
		<path fill="#1F3659" d="M190.119,51.776c0,1.724-0.491,3.043-1.472,3.959c-0.981,0.917-2.397,1.375-4.249,1.375h-2.965V46.644
			h3.287c1.708,0,3.035,0.45,3.98,1.353S190.119,50.158,190.119,51.776z M187.812,51.834c0-2.248-0.992-3.372-2.978-3.372h-1.182
			v6.815h0.952C186.744,55.277,187.812,54.13,187.812,51.834z"/>
		<path fill="#1F3659" d="M196.719,57.11l-2.521-8.212h-0.064c0.091,1.671,0.137,2.785,0.137,3.344v4.868h-1.983V46.644h3.021
			l2.478,8.004h0.043l2.627-8.004h3.021V57.11h-2.069v-4.954c0-0.234,0.004-0.504,0.011-0.81c0.008-0.305,0.039-1.116,0.097-2.434
			h-0.064l-2.699,8.197H196.719z"/>
		<path fill="#1F3659" d="M210.558,48.34c-0.834,0-1.481,0.314-1.939,0.941c-0.459,0.628-0.688,1.503-0.688,2.624
			c0,2.334,0.876,3.501,2.627,3.501c0.736,0,1.626-0.184,2.672-0.551v1.861c-0.859,0.357-1.819,0.537-2.879,0.537
			c-1.522,0-2.688-0.462-3.494-1.386s-1.209-2.249-1.209-3.978c0-1.088,0.197-2.041,0.594-2.859
			c0.396-0.819,0.965-1.446,1.707-1.884c0.742-0.437,1.612-0.654,2.609-0.654c1.018,0,2.039,0.245,3.064,0.737l-0.715,1.804
			c-0.393-0.186-0.785-0.348-1.182-0.486S210.941,48.34,210.558,48.34z"/>
		<path fill="#1F3659" d="M214.976,56.087c0-0.401,0.107-0.704,0.322-0.909c0.215-0.206,0.527-0.309,0.938-0.309
			c0.396,0,0.703,0.105,0.92,0.315c0.218,0.21,0.326,0.511,0.326,0.902c0,0.377-0.109,0.674-0.329,0.891
			c-0.22,0.218-0.524,0.326-0.917,0.326c-0.4,0-0.711-0.106-0.93-0.318C215.085,56.772,214.976,56.474,214.976,56.087z"/>
	</g>
</g>
<g>
	<ellipse fill="none" stroke="#FFFFFF" stroke-miterlimit="10" cx="322.258" cy="49.885" rx="44.798" ry="44.791"/>
	<rect x="9.727" y="20.639" fill="none" stroke="#FFFFFF" stroke-miterlimit="10" width="223.575" height="65.333"/>
	<line fill="none" stroke="#FFFFFF" stroke-miterlimit="10" x1="233.301" y1="50.673" x2="277.46" y2="50.673"/>
</g>
</svg>
