<?xml version="1.0" encoding="utf-8"?>
<!-- Generator: Adobe Illustrator 16.0.0, SVG Export Plug-In . SVG Version: 6.00 Build 0)  -->
<!DOCTYPE svg PUBLIC "-//W3C//DTD SVG 1.1//EN" "http://www.w3.org/Graphics/SVG/1.1/DTD/svg11.dtd">
<svg version="1.1" id="Capa_1" xmlns="http://www.w3.org/2000/svg" xmlns:xlink="http://www.w3.org/1999/xlink" x="0px" y="0px"
	 width="376.054px" height="99.676px" viewBox="0 0 376.054 99.676" enable-background="new 0 0 376.054 99.676"
	 xml:space="preserve">
<g>
	<g>
		<path fill="#1F3659" d="M25.707,49.64V39.173h2.219V49.64H25.707z"/>
		<path fill="#1F3659" d="M37.777,49.64h-2.184v-4.675c0-0.578-0.103-1.011-0.308-1.3s-0.532-0.434-0.98-0.434
			c-0.611,0-1.053,0.204-1.325,0.612s-0.408,1.085-0.408,2.03v3.766h-2.184v-8.004h1.668l0.294,1.023h0.122
			c0.243-0.387,0.579-0.679,1.006-0.877s0.913-0.297,1.457-0.297c0.931,0,1.637,0.251,2.119,0.755s0.723,1.23,0.723,2.18V49.64z"/>
		<path fill="#1F3659" d="M45.61,47.263c0,0.821-0.285,1.446-0.855,1.876s-1.424,0.645-2.56,0.645c-0.583,0-1.079-0.04-1.489-0.118
			c-0.411-0.079-0.795-0.194-1.153-0.348v-1.804c0.406,0.19,0.863,0.351,1.371,0.479s0.956,0.193,1.342,0.193
			c0.792,0,1.188-0.229,1.188-0.688c0-0.172-0.052-0.312-0.157-0.419s-0.287-0.229-0.544-0.365
			c-0.258-0.136-0.602-0.295-1.031-0.476c-0.616-0.258-1.068-0.497-1.356-0.717c-0.289-0.219-0.499-0.471-0.63-0.755
			s-0.197-0.634-0.197-1.049c0-0.711,0.275-1.261,0.827-1.65c0.551-0.389,1.333-0.583,2.345-0.583c0.964,0,1.902,0.21,2.813,0.63
			l-0.659,1.575c-0.401-0.172-0.776-0.313-1.124-0.423c-0.349-0.109-0.704-0.165-1.067-0.165c-0.644,0-0.966,0.175-0.966,0.523
			c0,0.195,0.104,0.365,0.312,0.508c0.208,0.144,0.662,0.355,1.364,0.638c0.625,0.253,1.083,0.489,1.375,0.708
			c0.291,0.22,0.506,0.473,0.645,0.76C45.541,46.525,45.61,46.866,45.61,47.263z"/>
		<path fill="#1F3659" d="M50.937,49.783c-1.289,0-2.296-0.355-3.021-1.067c-0.726-0.711-1.088-1.718-1.088-3.021
			c0-1.341,0.335-2.378,1.006-3.11s1.598-1.099,2.782-1.099c1.131,0,2.012,0.322,2.642,0.966c0.63,0.645,0.945,1.535,0.945,2.671
			v1.06H49.04c0.024,0.62,0.208,1.105,0.551,1.453c0.344,0.349,0.826,0.522,1.446,0.522c0.482,0,0.938-0.05,1.367-0.15
			c0.43-0.1,0.878-0.26,1.346-0.479v1.689c-0.382,0.191-0.79,0.333-1.225,0.427C52.092,49.736,51.562,49.783,50.937,49.783z
			 M50.629,43.039c-0.463,0-0.826,0.146-1.088,0.439c-0.263,0.294-0.413,0.71-0.451,1.25h3.064c-0.01-0.54-0.15-0.956-0.422-1.25
			C51.459,43.186,51.092,43.039,50.629,43.039z"/>
		<path fill="#1F3659" d="M60.445,41.485c0.296,0,0.542,0.021,0.737,0.064l-0.165,2.047c-0.177-0.047-0.392-0.071-0.645-0.071
			c-0.697,0-1.24,0.179-1.629,0.537c-0.389,0.357-0.583,0.859-0.583,1.503v4.074h-2.184v-8.004h1.654l0.322,1.346h0.107
			c0.248-0.449,0.583-0.811,1.006-1.085S59.948,41.485,60.445,41.485z"/>
		<path fill="#1F3659" d="M66.007,48.043c0.382,0,0.84-0.083,1.375-0.25v1.625c-0.544,0.243-1.212,0.365-2.004,0.365
			c-0.874,0-1.51-0.221-1.908-0.663c-0.398-0.441-0.598-1.104-0.598-1.986v-3.859h-1.045v-0.923l1.203-0.73l0.63-1.689h1.396v1.704
			h2.241v1.639h-2.241v3.859c0,0.311,0.087,0.539,0.261,0.688C65.491,47.969,65.721,48.043,66.007,48.043z"/>
		<path fill="#1F3659" d="M72.623,49.783c-1.289,0-2.296-0.355-3.021-1.067c-0.726-0.711-1.088-1.718-1.088-3.021
			c0-1.341,0.335-2.378,1.006-3.11s1.598-1.099,2.782-1.099c1.131,0,2.012,0.322,2.642,0.966c0.63,0.645,0.945,1.535,0.945,2.671
			v1.06h-5.162c0.024,0.62,0.208,1.105,0.551,1.453c0.344,0.349,0.826,0.522,1.446,0.522c0.482,0,0.938-0.05,1.367-0.15
			c0.43-0.1,0.878-0.26,1.346-0.479v1.689c-0.382,0.191-0.79,0.333-1.225,0.427C73.778,49.736,73.248,49.783,72.623,49.783z
			 M72.315,43.039c-0.463,0-0.826,0.146-1.088,0.439c-0.263,0.294-0.413,0.71-0.451,1.25h3.064c-0.01-0.54-0.15-0.956-0.422-1.25
			C73.146,43.186,72.778,43.039,72.315,43.039z"/>
		<path fill="#1F3659" d="M83.656,49.64h-2.184V38.499h2.184V49.64z"/>
		<path fill="#1F3659" d="M91.03,49.64l-0.423-1.088H90.55c-0.368,0.463-0.746,0.783-1.135,0.963
			c-0.389,0.179-0.896,0.269-1.521,0.269c-0.769,0-1.374-0.22-1.815-0.659c-0.441-0.438-0.662-1.064-0.662-1.876
			c0-0.85,0.297-1.476,0.891-1.879s1.491-0.627,2.688-0.67l1.389-0.043v-0.351c0-0.812-0.416-1.217-1.246-1.217
			c-0.64,0-1.392,0.193-2.255,0.58l-0.723-1.476c0.921-0.481,1.942-0.723,3.064-0.723c1.074,0,1.897,0.233,2.47,0.701
			s0.859,1.18,0.859,2.134v5.334H91.03z M90.386,45.931l-0.845,0.029c-0.635,0.019-1.107,0.134-1.418,0.344
			c-0.31,0.21-0.465,0.529-0.465,0.959c0,0.615,0.354,0.924,1.06,0.924c0.506,0,0.911-0.146,1.214-0.437
			c0.303-0.292,0.455-0.678,0.455-1.16V45.931z"/>
		<path fill="#1F3659" d="M101.984,48.043c0.382,0,0.84-0.083,1.375-0.25v1.625c-0.544,0.243-1.212,0.365-2.004,0.365
			c-0.874,0-1.51-0.221-1.908-0.663c-0.398-0.441-0.598-1.104-0.598-1.986v-3.859h-1.045v-0.923l1.203-0.73l0.63-1.689h1.396v1.704
			h2.241v1.639h-2.241v3.859c0,0.311,0.087,0.539,0.261,0.688C101.468,47.969,101.698,48.043,101.984,48.043z"/>
		<path fill="#1F3659" d="M110.061,49.64l-0.423-1.088h-0.057c-0.368,0.463-0.746,0.783-1.135,0.963
			c-0.389,0.179-0.896,0.269-1.521,0.269c-0.769,0-1.374-0.22-1.815-0.659c-0.441-0.438-0.662-1.064-0.662-1.876
			c0-0.85,0.297-1.476,0.891-1.879s1.491-0.627,2.688-0.67l1.389-0.043v-0.351c0-0.812-0.416-1.217-1.246-1.217
			c-0.64,0-1.392,0.193-2.255,0.58l-0.723-1.476c0.921-0.481,1.942-0.723,3.064-0.723c1.074,0,1.897,0.233,2.47,0.701
			s0.859,1.18,0.859,2.134v5.334H110.061z M109.416,45.931l-0.845,0.029c-0.635,0.019-1.107,0.134-1.418,0.344
			c-0.31,0.21-0.465,0.529-0.465,0.959c0,0.615,0.354,0.924,1.06,0.924c0.506,0,0.911-0.146,1.214-0.437
			c0.303-0.292,0.455-0.678,0.455-1.16V45.931z"/>
		<path fill="#1F3659" d="M118.301,41.485c0.296,0,0.542,0.021,0.737,0.064l-0.165,2.047c-0.177-0.047-0.392-0.071-0.645-0.071
			c-0.697,0-1.24,0.179-1.629,0.537c-0.389,0.357-0.583,0.859-0.583,1.503v4.074h-2.184v-8.004h1.654l0.322,1.346h0.107
			c0.248-0.449,0.583-0.811,1.006-1.085S117.805,41.485,118.301,41.485z"/>
		<path fill="#1F3659" d="M119.847,53.162c-0.558,0-1.038-0.06-1.439-0.179v-1.719c0.334,0.091,0.676,0.137,1.024,0.137
			c0.368,0,0.636-0.104,0.806-0.309c0.169-0.205,0.254-0.508,0.254-0.909v-8.548h2.184v8.87c0,0.85-0.246,1.505-0.737,1.966
			C121.446,52.932,120.75,53.162,119.847,53.162z M120.398,39.566c0-0.711,0.396-1.067,1.188-1.067c0.792,0,1.188,0.356,1.188,1.067
			c0,0.339-0.099,0.603-0.297,0.791c-0.198,0.188-0.495,0.283-0.892,0.283C120.795,40.641,120.398,40.282,120.398,39.566z"/>
		<path fill="#1F3659" d="M128.589,49.783c-1.289,0-2.296-0.355-3.021-1.067c-0.726-0.711-1.088-1.718-1.088-3.021
			c0-1.341,0.335-2.378,1.006-3.11s1.598-1.099,2.782-1.099c1.131,0,2.012,0.322,2.642,0.966c0.63,0.645,0.945,1.535,0.945,2.671
			v1.06h-5.162c0.024,0.62,0.208,1.105,0.551,1.453c0.344,0.349,0.826,0.522,1.446,0.522c0.482,0,0.938-0.05,1.367-0.15
			c0.43-0.1,0.878-0.26,1.346-0.479v1.689c-0.382,0.191-0.79,0.333-1.225,0.427C129.744,49.736,129.214,49.783,128.589,49.783z
			 M128.281,43.039c-0.463,0-0.826,0.146-1.088,0.439c-0.263,0.294-0.413,0.71-0.451,1.25h3.064c-0.01-0.54-0.15-0.956-0.422-1.25
			C129.112,43.186,128.744,43.039,128.281,43.039z"/>
		<path fill="#1F3659" d="M137.001,48.043c0.382,0,0.84-0.083,1.375-0.25v1.625c-0.544,0.243-1.212,0.365-2.004,0.365
			c-0.874,0-1.51-0.221-1.908-0.663c-0.398-0.441-0.598-1.104-0.598-1.986v-3.859h-1.045v-0.923l1.203-0.73l0.63-1.689h1.396v1.704
			h2.241v1.639h-2.241v3.859c0,0.311,0.087,0.539,0.261,0.688C136.485,47.969,136.715,48.043,137.001,48.043z"/>
		<path fill="#1F3659" d="M145.078,49.64l-0.423-1.088h-0.057c-0.368,0.463-0.746,0.783-1.135,0.963
			c-0.389,0.179-0.896,0.269-1.521,0.269c-0.769,0-1.374-0.22-1.815-0.659c-0.441-0.438-0.662-1.064-0.662-1.876
			c0-0.85,0.297-1.476,0.891-1.879s1.491-0.627,2.688-0.67l1.389-0.043v-0.351c0-0.812-0.416-1.217-1.246-1.217
			c-0.64,0-1.392,0.193-2.255,0.58l-0.723-1.476c0.921-0.481,1.942-0.723,3.064-0.723c1.074,0,1.897,0.233,2.47,0.701
			s0.859,1.18,0.859,2.134v5.334H145.078z M144.433,45.931l-0.845,0.029c-0.635,0.019-1.107,0.134-1.418,0.344
			c-0.31,0.21-0.465,0.529-0.465,0.959c0,0.615,0.354,0.924,1.06,0.924c0.506,0,0.911-0.146,1.214-0.437
			c0.303-0.292,0.455-0.678,0.455-1.16V45.931z"/>
		<path fill="#1F3659" d="M159.826,49.64h-2.184v-4.675c0-0.578-0.097-1.011-0.29-1.3c-0.193-0.289-0.498-0.434-0.913-0.434
			c-0.559,0-0.964,0.206-1.217,0.616s-0.379,1.086-0.379,2.026v3.766h-2.184v-8.004h1.668l0.294,1.023h0.122
			c0.215-0.367,0.525-0.655,0.931-0.862c0.406-0.208,0.871-0.312,1.396-0.312c1.198,0,2.009,0.391,2.435,1.174h0.193
			c0.215-0.372,0.531-0.661,0.949-0.866s0.889-0.308,1.414-0.308c0.907,0,1.593,0.232,2.059,0.697
			c0.465,0.466,0.698,1.212,0.698,2.237v5.22h-2.191v-4.675c0-0.578-0.096-1.011-0.29-1.3s-0.498-0.434-0.913-0.434
			c-0.535,0-0.934,0.191-1.199,0.573c-0.265,0.382-0.397,0.988-0.397,1.818V49.64z"/>
		<path fill="#1F3659" d="M166.964,39.566c0-0.711,0.396-1.067,1.188-1.067c0.792,0,1.188,0.356,1.188,1.067
			c0,0.339-0.099,0.603-0.297,0.791c-0.198,0.188-0.495,0.283-0.892,0.283C167.361,40.641,166.964,40.282,166.964,39.566z
			 M169.241,49.64h-2.184v-8.004h2.184V49.64z"/>
		<path fill="#1F3659" d="M174.783,49.783c-2.492,0-3.737-1.368-3.737-4.103c0-1.36,0.339-2.399,1.017-3.118
			s1.649-1.077,2.914-1.077c0.926,0,1.756,0.181,2.491,0.544l-0.644,1.689c-0.344-0.139-0.664-0.252-0.959-0.34
			c-0.296-0.089-0.592-0.133-0.888-0.133c-1.136,0-1.704,0.807-1.704,2.42c0,1.565,0.568,2.349,1.704,2.349
			c0.42,0,0.809-0.057,1.167-0.169c0.358-0.111,0.716-0.287,1.074-0.525v1.868c-0.353,0.225-0.71,0.38-1.07,0.466
			S175.332,49.783,174.783,49.783z"/>
		<path fill="#1F3659" d="M183.539,41.485c0.297,0,0.542,0.021,0.738,0.064l-0.165,2.047c-0.177-0.047-0.392-0.071-0.645-0.071
			c-0.696,0-1.239,0.179-1.629,0.537c-0.39,0.357-0.583,0.859-0.583,1.503v4.074h-2.184v-8.004h1.654l0.322,1.346h0.107
			c0.248-0.449,0.583-0.811,1.006-1.085S183.042,41.485,183.539,41.485z"/>
		<path fill="#1F3659" d="M193.003,45.623c0,1.303-0.344,2.322-1.031,3.058c-0.688,0.734-1.645,1.103-2.871,1.103
			c-0.768,0-1.445-0.169-2.033-0.505c-0.586-0.337-1.037-0.82-1.353-1.45s-0.473-1.365-0.473-2.205c0-1.308,0.341-2.324,1.024-3.05
			c0.682-0.726,1.641-1.088,2.877-1.088c0.77,0,1.447,0.167,2.033,0.501c0.588,0.334,1.039,0.813,1.354,1.438
			C192.846,44.051,193.003,44.783,193.003,45.623z M187.469,45.623c0,0.792,0.13,1.392,0.39,1.797
			c0.261,0.406,0.684,0.608,1.271,0.608c0.582,0,1.001-0.201,1.256-0.604c0.256-0.403,0.384-1.004,0.384-1.801
			c0-0.792-0.129-1.387-0.387-1.782c-0.258-0.396-0.681-0.595-1.268-0.595c-0.582,0-1.002,0.197-1.26,0.591
			S187.469,44.826,187.469,45.623z"/>
		<path fill="#1F3659" d="M204.967,46.732c0,0.945-0.341,1.69-1.021,2.234s-1.627,0.816-2.838,0.816
			c-1.117,0-2.105-0.21-2.965-0.631v-2.062c0.707,0.315,1.305,0.537,1.793,0.666c0.49,0.129,0.938,0.193,1.344,0.193
			c0.486,0,0.859-0.094,1.119-0.279c0.261-0.187,0.391-0.463,0.391-0.831c0-0.205-0.057-0.388-0.172-0.547
			c-0.114-0.16-0.283-0.314-0.504-0.462c-0.223-0.148-0.675-0.385-1.357-0.709c-0.64-0.301-1.119-0.59-1.439-0.866
			c-0.319-0.277-0.574-0.599-0.766-0.967c-0.191-0.367-0.286-0.797-0.286-1.289c0-0.926,0.313-1.653,0.941-2.184
			c0.628-0.529,1.495-0.794,2.603-0.794c0.544,0,1.063,0.064,1.557,0.193s1.011,0.31,1.551,0.544l-0.717,1.726
			c-0.559-0.229-1.02-0.39-1.385-0.48c-0.365-0.09-0.725-0.136-1.078-0.136c-0.42,0-0.742,0.098-0.967,0.294
			c-0.224,0.195-0.336,0.451-0.336,0.766c0,0.196,0.045,0.366,0.137,0.512c0.09,0.146,0.234,0.287,0.433,0.423
			s0.667,0.381,1.407,0.733c0.979,0.468,1.648,0.938,2.012,1.407C204.786,45.474,204.967,46.051,204.967,46.732z"/>
		<path fill="#1F3659" d="M215.548,44.306c0,1.724-0.49,3.043-1.471,3.959c-0.98,0.917-2.397,1.375-4.25,1.375h-2.963V39.173h3.285
			c1.709,0,3.036,0.45,3.981,1.353C215.076,41.428,215.548,42.688,215.548,44.306z M213.244,44.363c0-2.248-0.993-3.372-2.979-3.372
			h-1.182v6.815h0.953C212.174,47.807,213.244,46.659,213.244,44.363z"/>
		<path fill="#1F3659" d="M45.363,67.379c-1.289,0-2.296-0.355-3.021-1.067c-0.726-0.711-1.088-1.718-1.088-3.021
			c0-1.341,0.335-2.378,1.006-3.11s1.598-1.099,2.782-1.099c1.131,0,2.012,0.322,2.642,0.966c0.63,0.645,0.945,1.535,0.945,2.671
			v1.06h-5.162c0.024,0.62,0.208,1.105,0.551,1.453c0.344,0.349,0.826,0.522,1.446,0.522c0.482,0,0.938-0.05,1.367-0.15
			c0.43-0.1,0.878-0.26,1.346-0.479v1.689c-0.382,0.191-0.79,0.333-1.225,0.427C46.518,67.332,45.988,67.379,45.363,67.379z
			 M45.055,60.635c-0.463,0-0.826,0.146-1.088,0.439c-0.263,0.294-0.413,0.71-0.451,1.25h3.064c-0.01-0.54-0.15-0.956-0.422-1.25
			C45.886,60.781,45.518,60.635,45.055,60.635z"/>
		<path fill="#1F3659" d="M57.792,67.235h-2.184v-4.675c0-0.578-0.103-1.011-0.308-1.3s-0.532-0.434-0.98-0.434
			c-0.611,0-1.053,0.204-1.325,0.612s-0.408,1.085-0.408,2.03v3.766h-2.184v-8.004h1.668l0.294,1.023h0.122
			c0.243-0.387,0.579-0.679,1.006-0.877s0.913-0.297,1.457-0.297c0.931,0,1.637,0.251,2.119,0.755s0.723,1.23,0.723,2.18V67.235z"/>
		<path fill="#1F3659" d="M67.472,67.379c-1.289,0-2.296-0.355-3.021-1.067c-0.726-0.711-1.088-1.718-1.088-3.021
			c0-1.341,0.335-2.378,1.006-3.11s1.598-1.099,2.782-1.099c1.131,0,2.012,0.322,2.642,0.966c0.63,0.645,0.945,1.535,0.945,2.671
			v1.06h-5.162c0.024,0.62,0.208,1.105,0.551,1.453c0.344,0.349,0.826,0.522,1.446,0.522c0.482,0,0.938-0.05,1.367-0.15
			c0.43-0.1,0.878-0.26,1.346-0.479v1.689c-0.382,0.191-0.79,0.333-1.225,0.427C68.627,67.332,68.097,67.379,67.472,67.379z
			 M67.164,60.635c-0.463,0-0.826,0.146-1.088,0.439c-0.263,0.294-0.413,0.71-0.451,1.25h3.064c-0.01-0.54-0.15-0.956-0.422-1.25
			C67.995,60.781,67.627,60.635,67.164,60.635z"/>
		<path fill="#1F3659" d="M74.696,67.235h-2.184V56.095h2.184V67.235z"/>
		<path fill="#1F3659" d="M86.38,64.858c0,0.821-0.285,1.446-0.855,1.876s-1.424,0.645-2.56,0.645c-0.583,0-1.079-0.04-1.489-0.118
			c-0.411-0.079-0.795-0.194-1.153-0.348v-1.804c0.406,0.19,0.863,0.351,1.371,0.479s0.956,0.193,1.342,0.193
			c0.792,0,1.188-0.229,1.188-0.688c0-0.172-0.052-0.312-0.157-0.419s-0.287-0.229-0.544-0.365
			c-0.258-0.136-0.602-0.295-1.031-0.476c-0.616-0.258-1.068-0.497-1.356-0.717c-0.289-0.219-0.499-0.471-0.63-0.755
			s-0.197-0.634-0.197-1.049c0-0.711,0.275-1.261,0.827-1.65c0.551-0.389,1.333-0.583,2.345-0.583c0.964,0,1.902,0.21,2.813,0.63
			l-0.659,1.575c-0.401-0.172-0.776-0.313-1.124-0.423c-0.349-0.109-0.704-0.165-1.067-0.165c-0.644,0-0.966,0.175-0.966,0.523
			c0,0.195,0.104,0.365,0.312,0.508c0.208,0.144,0.662,0.355,1.364,0.638c0.625,0.253,1.083,0.489,1.375,0.708
			c0.291,0.22,0.506,0.473,0.645,0.76C86.311,64.121,86.38,64.462,86.38,64.858z"/>
		<path fill="#1F3659" d="M91.707,67.379c-1.289,0-2.296-0.355-3.021-1.067c-0.726-0.711-1.088-1.718-1.088-3.021
			c0-1.341,0.335-2.378,1.006-3.11s1.598-1.099,2.782-1.099c1.131,0,2.012,0.322,2.642,0.966c0.63,0.645,0.945,1.535,0.945,2.671
			v1.06H89.81c0.024,0.62,0.208,1.105,0.551,1.453c0.344,0.349,0.826,0.522,1.446,0.522c0.482,0,0.938-0.05,1.367-0.15
			c0.43-0.1,0.878-0.26,1.346-0.479v1.689c-0.382,0.191-0.79,0.333-1.225,0.427C92.862,67.332,92.333,67.379,91.707,67.379z
			 M91.399,60.635c-0.463,0-0.826,0.146-1.088,0.439c-0.263,0.294-0.413,0.71-0.451,1.25h3.064c-0.01-0.54-0.15-0.956-0.422-1.25
			C92.23,60.781,91.862,60.635,91.399,60.635z"/>
		<path fill="#1F3659" d="M104.136,67.235h-2.184v-4.675c0-0.578-0.103-1.011-0.308-1.3s-0.532-0.434-0.98-0.434
			c-0.611,0-1.053,0.204-1.325,0.612s-0.408,1.085-0.408,2.03v3.766h-2.184v-8.004h1.668l0.294,1.023h0.122
			c0.243-0.387,0.579-0.679,1.006-0.877s0.913-0.297,1.457-0.297c0.931,0,1.637,0.251,2.119,0.755s0.723,1.23,0.723,2.18V67.235z"/>
		<path fill="#1F3659" d="M109.756,65.639c0.382,0,0.84-0.083,1.375-0.25v1.625c-0.544,0.243-1.212,0.365-2.004,0.365
			c-0.874,0-1.51-0.221-1.908-0.663c-0.398-0.441-0.598-1.104-0.598-1.986V60.87h-1.045v-0.923l1.203-0.73l0.63-1.689h1.396v1.704
			h2.241v1.639h-2.241v3.859c0,0.311,0.087,0.539,0.261,0.688C109.24,65.564,109.47,65.639,109.756,65.639z"/>
		<path fill="#1F3659" d="M112.656,57.162c0-0.711,0.396-1.067,1.188-1.067c0.792,0,1.188,0.356,1.188,1.067
			c0,0.339-0.099,0.603-0.297,0.791c-0.198,0.188-0.495,0.283-0.892,0.283C113.052,58.236,112.656,57.878,112.656,57.162z
			 M114.933,67.235h-2.184v-8.004h2.184V67.235z"/>
		<path fill="#1F3659" d="M119.758,67.379c-0.94,0-1.679-0.365-2.216-1.096c-0.537-0.73-0.806-1.742-0.806-3.036
			c0-1.313,0.273-2.335,0.82-3.067c0.546-0.732,1.299-1.099,2.259-1.099c1.007,0,1.775,0.391,2.305,1.174h0.072
			c-0.11-0.597-0.165-1.129-0.165-1.597v-2.563h2.19v11.141h-1.675l-0.422-1.038h-0.093
			C121.531,66.984,120.775,67.379,119.758,67.379z M120.524,65.639c0.558,0,0.967-0.162,1.228-0.486
			c0.26-0.325,0.402-0.876,0.426-1.654v-0.236c0-0.859-0.133-1.475-0.397-1.847c-0.265-0.373-0.696-0.559-1.292-0.559
			c-0.487,0-0.865,0.206-1.135,0.619s-0.404,1.013-0.404,1.801c0,0.787,0.136,1.378,0.408,1.771
			C119.629,65.441,120.018,65.639,120.524,65.639z"/>
		<path fill="#1F3659" d="M133.776,63.219c0,1.303-0.343,2.322-1.031,3.058c-0.688,0.734-1.645,1.103-2.871,1.103
			c-0.769,0-1.446-0.169-2.033-0.505c-0.587-0.337-1.038-0.82-1.353-1.45s-0.473-1.365-0.473-2.205c0-1.308,0.341-2.324,1.024-3.05
			c0.682-0.726,1.642-1.088,2.878-1.088c0.769,0,1.446,0.167,2.033,0.501c0.587,0.334,1.038,0.813,1.354,1.438
			C133.619,61.646,133.776,62.379,133.776,63.219z M128.242,63.219c0,0.792,0.13,1.392,0.39,1.797
			c0.26,0.406,0.684,0.608,1.271,0.608c0.582,0,1.001-0.201,1.256-0.604s0.383-1.004,0.383-1.801c0-0.792-0.129-1.387-0.387-1.782
			c-0.258-0.396-0.68-0.595-1.268-0.595c-0.582,0-1.002,0.197-1.26,0.591S128.242,62.422,128.242,63.219z"/>
		<path fill="#1F3659" d="M142.64,67.379c-2.492,0-3.737-1.368-3.737-4.103c0-1.36,0.339-2.399,1.017-3.118s1.649-1.077,2.914-1.077
			c0.926,0,1.756,0.181,2.491,0.544l-0.644,1.689c-0.344-0.139-0.664-0.252-0.959-0.34c-0.296-0.089-0.592-0.133-0.888-0.133
			c-1.136,0-1.704,0.807-1.704,2.42c0,1.565,0.568,2.349,1.704,2.349c0.42,0,0.809-0.057,1.167-0.169
			c0.358-0.111,0.716-0.287,1.074-0.525v1.868c-0.353,0.225-0.71,0.38-1.07,0.466S143.189,67.379,142.64,67.379z"/>
		<path fill="#1F3659" d="M154.203,63.219c0,1.303-0.343,2.322-1.031,3.058c-0.688,0.734-1.645,1.103-2.871,1.103
			c-0.769,0-1.446-0.169-2.033-0.505c-0.587-0.337-1.038-0.82-1.353-1.45s-0.473-1.365-0.473-2.205c0-1.308,0.341-2.324,1.024-3.05
			c0.682-0.726,1.642-1.088,2.878-1.088c0.769,0,1.446,0.167,2.033,0.501c0.587,0.334,1.038,0.813,1.354,1.438
			C154.045,61.646,154.203,62.379,154.203,63.219z M148.668,63.219c0,0.792,0.13,1.392,0.39,1.797
			c0.26,0.406,0.684,0.608,1.271,0.608c0.582,0,1.001-0.201,1.256-0.604s0.383-1.004,0.383-1.801c0-0.792-0.129-1.387-0.387-1.782
			c-0.258-0.396-0.68-0.595-1.268-0.595c-0.582,0-1.002,0.197-1.26,0.591S148.668,62.422,148.668,63.219z"/>
		<path fill="#1F3659" d="M160.475,59.081c0.296,0,0.542,0.021,0.737,0.064l-0.165,2.047c-0.177-0.047-0.392-0.071-0.645-0.071
			c-0.697,0-1.24,0.179-1.629,0.537c-0.389,0.357-0.583,0.859-0.583,1.503v4.074h-2.184v-8.004h1.654l0.322,1.346h0.107
			c0.248-0.449,0.583-0.811,1.006-1.085S159.978,59.081,160.475,59.081z"/>
		<path fill="#1F3659" d="M167.133,59.081c0.296,0,0.542,0.021,0.737,0.064l-0.165,2.047c-0.177-0.047-0.392-0.071-0.645-0.071
			c-0.697,0-1.24,0.179-1.629,0.537c-0.389,0.357-0.583,0.859-0.583,1.503v4.074h-2.184v-8.004h1.654l0.322,1.346h0.107
			c0.248-0.449,0.583-0.811,1.006-1.085S166.636,59.081,167.133,59.081z"/>
		<path fill="#1F3659" d="M172.946,67.379c-1.289,0-2.296-0.355-3.021-1.067c-0.726-0.711-1.088-1.718-1.088-3.021
			c0-1.341,0.335-2.378,1.006-3.11s1.598-1.099,2.782-1.099c1.131,0,2.012,0.322,2.642,0.966c0.63,0.645,0.945,1.535,0.945,2.671
			v1.06h-5.162c0.024,0.62,0.208,1.105,0.551,1.453c0.344,0.349,0.826,0.522,1.446,0.522c0.482,0,0.938-0.05,1.367-0.15
			c0.43-0.1,0.878-0.26,1.346-0.479v1.689c-0.382,0.191-0.79,0.333-1.225,0.427C174.101,67.332,173.571,67.379,172.946,67.379z
			 M172.638,60.635c-0.463,0-0.826,0.146-1.088,0.439c-0.263,0.294-0.413,0.71-0.451,1.25h3.064c-0.01-0.54-0.15-0.956-0.422-1.25
			C173.469,60.781,173.101,60.635,172.638,60.635z"/>
		<path fill="#1F3659" d="M181.237,67.379c-2.492,0-3.737-1.368-3.737-4.103c0-1.36,0.339-2.399,1.017-3.118
			s1.649-1.077,2.914-1.077c0.926,0,1.757,0.181,2.491,0.544l-0.645,1.689c-0.344-0.139-0.663-0.252-0.959-0.34
			c-0.296-0.089-0.592-0.133-0.888-0.133c-1.136,0-1.704,0.807-1.704,2.42c0,1.565,0.568,2.349,1.704,2.349
			c0.42,0,0.81-0.057,1.167-0.169c0.357-0.111,0.716-0.287,1.074-0.525v1.868c-0.354,0.225-0.711,0.38-1.07,0.466
			C182.24,67.336,181.786,67.379,181.237,67.379z"/>
		<path fill="#1F3659" d="M188.898,65.639c0.381,0,0.84-0.083,1.374-0.25v1.625c-0.544,0.243-1.212,0.365-2.005,0.365
			c-0.873,0-1.51-0.221-1.908-0.663c-0.398-0.441-0.598-1.104-0.598-1.986V60.87h-1.045v-0.923l1.203-0.73l0.63-1.689h1.396v1.704
			h2.241v1.639h-2.241v3.859c0,0.311,0.088,0.539,0.262,0.688C188.38,65.564,188.611,65.639,188.898,65.639z"/>
		<path fill="#1F3659" d="M199.164,63.219c0,1.303-0.343,2.322-1.03,3.058c-0.688,0.734-1.645,1.103-2.871,1.103
			c-0.769,0-1.446-0.169-2.033-0.505c-0.587-0.337-1.038-0.82-1.353-1.45c-0.315-0.63-0.473-1.365-0.473-2.205
			c0-1.308,0.341-2.324,1.023-3.05c0.682-0.726,1.642-1.088,2.878-1.088c0.769,0,1.446,0.167,2.033,0.501s1.038,0.813,1.354,1.438
			C199.007,61.646,199.164,62.379,199.164,63.219z M193.63,63.219c0,0.792,0.129,1.392,0.39,1.797
			c0.261,0.406,0.684,0.608,1.271,0.608c0.582,0,1.002-0.201,1.257-0.604s0.384-1.004,0.384-1.801c0-0.792-0.129-1.387-0.387-1.782
			c-0.258-0.396-0.681-0.595-1.268-0.595c-0.582,0-1.002,0.197-1.26,0.591S193.63,62.422,193.63,63.219z"/>
		<path fill="#1F3659" d="M200.661,66.212c0-0.401,0.106-0.704,0.321-0.909c0.215-0.206,0.527-0.309,0.938-0.309
			c0.396,0,0.702,0.105,0.92,0.315s0.325,0.511,0.325,0.902c0,0.377-0.109,0.674-0.328,0.891c-0.221,0.218-0.525,0.326-0.917,0.326
			c-0.401,0-0.711-0.106-0.931-0.318C200.77,66.897,200.661,66.599,200.661,66.212z"/>
	</g>
</g>
<g>
	<ellipse fill="none" stroke="#FFFFFF" stroke-miterlimit="10" cx="322.204" cy="49.885" rx="44.798" ry="44.791"/>
	<rect x="9.672" y="20.639" fill="none" stroke="#FFFFFF" stroke-miterlimit="10" width="223.575" height="65.333"/>
	<line fill="none" stroke="#FFFFFF" stroke-miterlimit="10" x1="233.247" y1="50.673" x2="277.406" y2="50.673"/>
</g>
</svg>
