<?xml version="1.0" encoding="utf-8"?>
<!-- Generator: Adobe Illustrator 16.0.0, SVG Export Plug-In . SVG Version: 6.00 Build 0)  -->
<!DOCTYPE svg PUBLIC "-//W3C//DTD SVG 1.1//EN" "http://www.w3.org/Graphics/SVG/1.1/DTD/svg11.dtd">
<svg version="1.1" id="Capa_1" xmlns="http://www.w3.org/2000/svg" xmlns:xlink="http://www.w3.org/1999/xlink" x="0px" y="0px"
	 width="376.054px" height="99.676px" viewBox="0 0 376.054 99.676" enable-background="new 0 0 376.054 99.676"
	 xml:space="preserve">
<g>
	<g>
		<path fill="#1F3659" d="M70.355,59.846h-6.028V49.379h6.028v1.818h-3.809v2.298h3.544v1.818h-3.544v2.699h3.809V59.846z"/>
		<path fill="#1F3659" d="M79.755,59.846h-2.184v-4.675c0-0.578-0.103-1.011-0.308-1.3s-0.532-0.434-0.98-0.434
			c-0.611,0-1.053,0.204-1.325,0.612s-0.408,1.085-0.408,2.03v3.766h-2.184v-8.004h1.668l0.294,1.023h0.122
			c0.243-0.387,0.579-0.679,1.006-0.877s0.913-0.297,1.457-0.297c0.931,0,1.637,0.251,2.119,0.755s0.723,1.23,0.723,2.18V59.846z"/>
		<path fill="#1F3659" d="M85.254,59.989c-2.492,0-3.737-1.368-3.737-4.103c0-1.36,0.339-2.399,1.017-3.118s1.649-1.077,2.914-1.077
			c0.926,0,1.756,0.181,2.491,0.544l-0.644,1.689c-0.344-0.139-0.664-0.252-0.959-0.34c-0.296-0.089-0.592-0.133-0.888-0.133
			c-1.136,0-1.704,0.807-1.704,2.42c0,1.565,0.568,2.349,1.704,2.349c0.42,0,0.809-0.057,1.167-0.169
			c0.358-0.111,0.716-0.287,1.074-0.525v1.868c-0.353,0.225-0.71,0.38-1.07,0.466S85.803,59.989,85.254,59.989z"/>
		<path fill="#1F3659" d="M89.449,49.772c0-0.711,0.396-1.067,1.188-1.067c0.792,0,1.188,0.356,1.188,1.067
			c0,0.339-0.099,0.603-0.297,0.791c-0.198,0.188-0.495,0.283-0.892,0.283C89.846,50.847,89.449,50.488,89.449,49.772z
			 M91.726,59.846h-2.184v-8.004h2.184V59.846z"/>
		<path fill="#1F3659" d="M97.64,59.989c-1.289,0-2.296-0.355-3.021-1.067c-0.726-0.711-1.088-1.718-1.088-3.021
			c0-1.341,0.335-2.378,1.006-3.11s1.598-1.099,2.782-1.099c1.131,0,2.012,0.322,2.642,0.966c0.63,0.645,0.945,1.535,0.945,2.671
			v1.06h-5.162c0.024,0.62,0.208,1.105,0.551,1.453c0.344,0.349,0.826,0.522,1.446,0.522c0.482,0,0.938-0.05,1.367-0.15
			c0.43-0.1,0.878-0.26,1.346-0.479v1.689c-0.382,0.191-0.79,0.333-1.225,0.427C98.795,59.942,98.265,59.989,97.64,59.989z
			 M97.332,53.245c-0.463,0-0.826,0.146-1.088,0.439c-0.263,0.294-0.413,0.71-0.451,1.25h3.064c-0.01-0.54-0.15-0.956-0.422-1.25
			C98.163,53.392,97.795,53.245,97.332,53.245z"/>
		<path fill="#1F3659" d="M110.069,59.846h-2.184v-4.675c0-0.578-0.103-1.011-0.308-1.3s-0.532-0.434-0.98-0.434
			c-0.611,0-1.053,0.204-1.325,0.612s-0.408,1.085-0.408,2.03v3.766h-2.184v-8.004h1.668l0.294,1.023h0.122
			c0.243-0.387,0.579-0.679,1.006-0.877s0.913-0.297,1.457-0.297c0.931,0,1.637,0.251,2.119,0.755s0.723,1.23,0.723,2.18V59.846z"/>
		<path fill="#1F3659" d="M114.852,59.989c-0.94,0-1.679-0.365-2.216-1.096c-0.537-0.73-0.806-1.742-0.806-3.036
			c0-1.313,0.273-2.335,0.82-3.067c0.546-0.732,1.299-1.099,2.259-1.099c1.007,0,1.775,0.391,2.305,1.174h0.072
			c-0.11-0.597-0.165-1.129-0.165-1.597v-2.563h2.19v11.141h-1.675l-0.422-1.038h-0.093
			C116.625,59.595,115.868,59.989,114.852,59.989z M115.618,58.249c0.558,0,0.967-0.162,1.228-0.486
			c0.26-0.325,0.402-0.876,0.426-1.654v-0.236c0-0.859-0.133-1.475-0.397-1.847c-0.265-0.373-0.696-0.559-1.292-0.559
			c-0.487,0-0.865,0.206-1.135,0.619s-0.404,1.013-0.404,1.801c0,0.787,0.136,1.378,0.408,1.771
			C114.723,58.052,115.111,58.249,115.618,58.249z"/>
		<path fill="#1F3659" d="M126.679,59.846l-0.423-1.088h-0.057c-0.368,0.463-0.746,0.783-1.135,0.963
			c-0.389,0.179-0.896,0.269-1.521,0.269c-0.769,0-1.374-0.22-1.815-0.659c-0.441-0.438-0.662-1.064-0.662-1.876
			c0-0.85,0.297-1.476,0.891-1.879s1.491-0.627,2.688-0.67l1.389-0.043v-0.351c0-0.812-0.416-1.217-1.246-1.217
			c-0.64,0-1.392,0.193-2.255,0.58l-0.723-1.476c0.921-0.481,1.942-0.723,3.064-0.723c1.074,0,1.897,0.233,2.47,0.701
			s0.859,1.18,0.859,2.134v5.334H126.679z M126.035,56.137l-0.845,0.029c-0.635,0.019-1.107,0.134-1.418,0.344
			c-0.31,0.21-0.465,0.529-0.465,0.959c0,0.615,0.354,0.924,1.06,0.924c0.506,0,0.911-0.146,1.214-0.437
			c0.303-0.292,0.455-0.678,0.455-1.16V56.137z"/>
		<path fill="#1F3659" d="M137.884,59.989c-1.289,0-2.296-0.355-3.021-1.067c-0.726-0.711-1.088-1.718-1.088-3.021
			c0-1.341,0.335-2.378,1.006-3.11s1.598-1.099,2.782-1.099c1.131,0,2.012,0.322,2.642,0.966c0.63,0.645,0.945,1.535,0.945,2.671
			v1.06h-5.162c0.024,0.62,0.208,1.105,0.551,1.453c0.344,0.349,0.826,0.522,1.446,0.522c0.482,0,0.938-0.05,1.367-0.15
			c0.43-0.1,0.878-0.26,1.346-0.479v1.689c-0.382,0.191-0.79,0.333-1.225,0.427C139.039,59.942,138.509,59.989,137.884,59.989z
			 M137.576,53.245c-0.463,0-0.826,0.146-1.088,0.439c-0.263,0.294-0.413,0.71-0.451,1.25h3.064c-0.01-0.54-0.15-0.956-0.422-1.25
			C138.407,53.392,138.039,53.245,137.576,53.245z"/>
		<path fill="#1F3659" d="M145.108,59.846h-2.184V48.705h2.184V59.846z"/>
		<path fill="#1F3659" d="M160.064,54.512c0,1.724-0.491,3.043-1.471,3.959c-0.981,0.917-2.397,1.375-4.25,1.375h-2.964V49.379
			h3.286c1.708,0,3.036,0.45,3.981,1.353C159.592,51.634,160.064,52.894,160.064,54.512z M157.759,54.569
			c0-2.248-0.993-3.372-2.978-3.372h-1.182v6.815h0.953C156.69,58.013,157.759,56.865,157.759,54.569z"/>
		<path fill="#1F3659" d="M166.666,59.846l-2.52-8.212h-0.064c0.09,1.671,0.136,2.785,0.136,3.344v4.868h-1.983V49.379h3.021
			l2.477,8.004h0.043l2.627-8.004h3.021v10.467h-2.069v-4.954c0-0.234,0.004-0.504,0.011-0.81c0.007-0.305,0.04-1.116,0.097-2.434
			h-0.064l-2.699,8.197H166.666z"/>
		<path fill="#1F3659" d="M180.505,51.075c-0.835,0-1.482,0.314-1.94,0.941c-0.458,0.628-0.688,1.503-0.688,2.624
			c0,2.334,0.876,3.501,2.627,3.501c0.735,0,1.625-0.184,2.67-0.551v1.861c-0.859,0.357-1.818,0.537-2.878,0.537
			c-1.522,0-2.687-0.462-3.494-1.386s-1.21-2.249-1.21-3.978c0-1.088,0.198-2.041,0.594-2.859c0.396-0.819,0.965-1.446,1.708-1.884
			c0.742-0.437,1.612-0.654,2.609-0.654c1.017,0,2.038,0.245,3.065,0.737l-0.717,1.804c-0.391-0.186-0.785-0.348-1.182-0.486
			C181.276,51.145,180.886,51.075,180.505,51.075z"/>
		<path fill="#1F3659" d="M184.923,58.822c0-0.401,0.106-0.704,0.321-0.909c0.215-0.206,0.527-0.309,0.938-0.309
			c0.396,0,0.702,0.105,0.92,0.315c0.217,0.21,0.325,0.511,0.325,0.902c0,0.377-0.11,0.674-0.329,0.891
			c-0.22,0.218-0.525,0.326-0.916,0.326c-0.401,0-0.711-0.106-0.932-0.318C185.033,59.508,184.923,59.209,184.923,58.822z"/>
	</g>
</g>
<g>
	<ellipse fill="none" stroke="#FFFFFF" stroke-miterlimit="10" cx="321.894" cy="49.885" rx="44.773" ry="44.791"/>
	<rect x="9.527" y="20.639" fill="none" stroke="#FFFFFF" stroke-miterlimit="10" width="223.457" height="65.333"/>
	<line fill="none" stroke="#FFFFFF" stroke-miterlimit="10" x1="232.984" y1="50.673" x2="277.121" y2="50.673"/>
</g>
</svg>
