<?xml version="1.0" encoding="utf-8"?>
<!-- Generator: Adobe Illustrator 16.0.0, SVG Export Plug-In . SVG Version: 6.00 Build 0)  -->
<!DOCTYPE svg PUBLIC "-//W3C//DTD SVG 1.1//EN" "http://www.w3.org/Graphics/SVG/1.1/DTD/svg11.dtd">
<svg version="1.1" id="Capa_1" xmlns="http://www.w3.org/2000/svg" xmlns:xlink="http://www.w3.org/1999/xlink" x="0px" y="0px"
	 width="376.054px" height="99.676px" viewBox="0 0 376.054 99.676" enable-background="new 0 0 376.054 99.676"
	 xml:space="preserve">
<g>
	<g>
		<path fill="#1F3659" d="M34.267,46.24v4.017h-2.219V39.79h3.05c1.422,0,2.475,0.259,3.157,0.776s1.024,1.305,1.024,2.359
			c0,0.615-0.169,1.163-0.508,1.643s-0.818,0.855-1.439,1.128c1.575,2.354,2.601,3.873,3.079,4.561h-2.463l-2.499-4.017H34.267z
			 M34.267,44.437h0.716c0.702,0,1.219-0.117,1.553-0.352c0.334-0.233,0.501-0.601,0.501-1.103c0-0.496-0.171-0.85-0.512-1.06
			s-0.87-0.314-1.585-0.314h-0.673V44.437z"/>
		<path fill="#1F3659" d="M45.178,50.4c-1.289,0-2.296-0.355-3.021-1.067c-0.726-0.711-1.088-1.718-1.088-3.021
			c0-1.341,0.335-2.378,1.006-3.11s1.598-1.099,2.782-1.099c1.131,0,2.012,0.322,2.642,0.966c0.63,0.645,0.945,1.535,0.945,2.671
			v1.06h-5.162c0.024,0.62,0.208,1.105,0.551,1.453c0.344,0.349,0.826,0.522,1.446,0.522c0.482,0,0.938-0.05,1.367-0.15
			c0.43-0.1,0.878-0.26,1.346-0.479v1.689c-0.382,0.191-0.79,0.333-1.225,0.427C46.333,50.354,45.803,50.4,45.178,50.4z
			 M44.87,43.656c-0.463,0-0.826,0.146-1.088,0.439c-0.263,0.294-0.413,0.71-0.451,1.25h3.064c-0.01-0.54-0.15-0.956-0.422-1.25
			C45.701,43.803,45.333,43.656,44.87,43.656z"/>
		<path fill="#1F3659" d="M53.59,48.66c0.382,0,0.84-0.083,1.375-0.25v1.625c-0.544,0.243-1.212,0.365-2.004,0.365
			c-0.874,0-1.51-0.221-1.908-0.663c-0.398-0.441-0.598-1.104-0.598-1.986v-3.859h-1.045v-0.923l1.203-0.73l0.63-1.689h1.396v1.704
			h2.241v1.639h-2.241v3.859c0,0.311,0.087,0.539,0.261,0.688C53.074,48.586,53.304,48.66,53.59,48.66z"/>
		<path fill="#1F3659" d="M56.49,40.184c0-0.711,0.396-1.067,1.188-1.067c0.792,0,1.188,0.356,1.188,1.067
			c0,0.339-0.099,0.603-0.297,0.791c-0.198,0.188-0.495,0.283-0.892,0.283C56.886,41.258,56.49,40.899,56.49,40.184z M58.767,50.257
			h-2.184v-8.004h2.184V50.257z"/>
		<path fill="#1F3659" d="M65.525,42.103c0.296,0,0.542,0.021,0.737,0.064l-0.165,2.047c-0.177-0.047-0.392-0.071-0.645-0.071
			c-0.697,0-1.24,0.179-1.629,0.537c-0.389,0.357-0.583,0.859-0.583,1.503v4.074h-2.184v-8.004h1.654l0.322,1.346h0.107
			c0.248-0.449,0.583-0.811,1.006-1.085S65.029,42.103,65.525,42.103z"/>
		<path fill="#1F3659" d="M71.338,50.4c-1.289,0-2.296-0.355-3.021-1.067c-0.726-0.711-1.088-1.718-1.088-3.021
			c0-1.341,0.335-2.378,1.006-3.11s1.598-1.099,2.782-1.099c1.131,0,2.012,0.322,2.642,0.966c0.63,0.645,0.945,1.535,0.945,2.671
			v1.06h-5.162c0.024,0.62,0.208,1.105,0.551,1.453c0.344,0.349,0.826,0.522,1.446,0.522c0.482,0,0.938-0.05,1.367-0.15
			c0.43-0.1,0.878-0.26,1.346-0.479v1.689c-0.382,0.191-0.79,0.333-1.225,0.427C72.494,50.354,71.964,50.4,71.338,50.4z
			 M71.031,43.656c-0.463,0-0.826,0.146-1.088,0.439c-0.263,0.294-0.413,0.71-0.451,1.25h3.064c-0.01-0.54-0.15-0.956-0.422-1.25
			C71.861,43.803,71.494,43.656,71.031,43.656z"/>
		<path fill="#1F3659" d="M82.372,50.257h-2.184V39.116h2.184V50.257z"/>
		<path fill="#1F3659" d="M89.746,50.257l-0.423-1.088h-0.057c-0.368,0.463-0.746,0.783-1.135,0.963
			c-0.389,0.179-0.896,0.269-1.521,0.269c-0.769,0-1.374-0.22-1.815-0.659c-0.441-0.438-0.662-1.064-0.662-1.876
			c0-0.85,0.297-1.476,0.891-1.879s1.491-0.627,2.688-0.67l1.389-0.043v-0.351c0-0.812-0.416-1.217-1.246-1.217
			c-0.64,0-1.392,0.193-2.255,0.58l-0.723-1.476c0.921-0.481,1.942-0.723,3.064-0.723c1.074,0,1.897,0.233,2.47,0.701
			s0.859,1.18,0.859,2.134v5.334H89.746z M89.102,46.548l-0.845,0.029c-0.635,0.019-1.107,0.134-1.418,0.344
			c-0.31,0.21-0.465,0.529-0.465,0.959c0,0.615,0.354,0.924,1.06,0.924c0.506,0,0.911-0.146,1.214-0.437
			c0.303-0.292,0.455-0.678,0.455-1.16V46.548z"/>
		<path fill="#1F3659" d="M100.7,48.66c0.382,0,0.84-0.083,1.375-0.25v1.625c-0.544,0.243-1.212,0.365-2.004,0.365
			c-0.874,0-1.51-0.221-1.908-0.663c-0.398-0.441-0.598-1.104-0.598-1.986v-3.859h-1.045v-0.923l1.203-0.73l0.63-1.689h1.396v1.704
			h2.241v1.639h-2.241v3.859c0,0.311,0.087,0.539,0.261,0.688C100.184,48.586,100.414,48.66,100.7,48.66z"/>
		<path fill="#1F3659" d="M108.776,50.257l-0.423-1.088h-0.057c-0.368,0.463-0.746,0.783-1.135,0.963
			c-0.389,0.179-0.896,0.269-1.521,0.269c-0.769,0-1.374-0.22-1.815-0.659c-0.441-0.438-0.662-1.064-0.662-1.876
			c0-0.85,0.297-1.476,0.891-1.879s1.491-0.627,2.688-0.67l1.389-0.043v-0.351c0-0.812-0.416-1.217-1.246-1.217
			c-0.64,0-1.392,0.193-2.255,0.58l-0.723-1.476c0.921-0.481,1.942-0.723,3.064-0.723c1.074,0,1.897,0.233,2.47,0.701
			s0.859,1.18,0.859,2.134v5.334H108.776z M108.132,46.548l-0.845,0.029c-0.635,0.019-1.107,0.134-1.418,0.344
			c-0.31,0.21-0.465,0.529-0.465,0.959c0,0.615,0.354,0.924,1.06,0.924c0.506,0,0.911-0.146,1.214-0.437
			c0.303-0.292,0.455-0.678,0.455-1.16V46.548z"/>
		<path fill="#1F3659" d="M116.945,50.4c-0.94,0-1.678-0.342-2.212-1.024h-0.114c0.076,0.669,0.114,1.055,0.114,1.16v3.243h-2.184
			V42.253h1.775l0.308,1.038h0.1c0.511-0.793,1.267-1.188,2.27-1.188c0.945,0,1.685,0.365,2.22,1.095
			c0.534,0.73,0.802,1.745,0.802,3.043c0,0.854-0.125,1.597-0.376,2.227s-0.607,1.11-1.07,1.439S117.57,50.4,116.945,50.4z
			 M116.301,43.849c-0.539,0-0.933,0.166-1.181,0.498s-0.377,0.88-0.387,1.644v0.235c0,0.859,0.128,1.476,0.383,1.848
			c0.255,0.372,0.66,0.559,1.213,0.559c0.979,0,1.468-0.807,1.468-2.42c0-0.788-0.121-1.378-0.362-1.772
			C117.195,44.046,116.816,43.849,116.301,43.849z"/>
		<path fill="#1F3659" d="M126.912,50.257l-0.423-1.088h-0.057c-0.368,0.463-0.746,0.783-1.135,0.963
			c-0.389,0.179-0.896,0.269-1.521,0.269c-0.769,0-1.374-0.22-1.815-0.659c-0.441-0.438-0.662-1.064-0.662-1.876
			c0-0.85,0.297-1.476,0.891-1.879s1.491-0.627,2.688-0.67l1.389-0.043v-0.351c0-0.812-0.416-1.217-1.246-1.217
			c-0.64,0-1.392,0.193-2.255,0.58l-0.723-1.476c0.921-0.481,1.942-0.723,3.064-0.723c1.074,0,1.897,0.233,2.47,0.701
			s0.859,1.18,0.859,2.134v5.334H126.912z M126.267,46.548l-0.845,0.029c-0.635,0.019-1.107,0.134-1.418,0.344
			c-0.31,0.21-0.465,0.529-0.465,0.959c0,0.615,0.354,0.924,1.06,0.924c0.506,0,0.911-0.146,1.214-0.437
			c0.303-0.292,0.455-0.678,0.455-1.16V46.548z"/>
		<path fill="#1F3659" d="M137.028,50.4c-0.94,0-1.679-0.365-2.216-1.096c-0.537-0.73-0.806-1.742-0.806-3.036
			c0-1.313,0.273-2.335,0.82-3.067c0.546-0.732,1.299-1.099,2.259-1.099c1.007,0,1.775,0.391,2.305,1.174h0.072
			c-0.11-0.597-0.165-1.129-0.165-1.597v-2.563h2.19v11.141h-1.675l-0.422-1.038h-0.093C138.801,50.006,138.045,50.4,137.028,50.4z
			 M137.794,48.66c0.558,0,0.967-0.162,1.228-0.486c0.26-0.325,0.402-0.876,0.426-1.654v-0.236c0-0.859-0.133-1.475-0.397-1.847
			c-0.265-0.373-0.696-0.559-1.292-0.559c-0.487,0-0.865,0.206-1.135,0.619s-0.404,1.013-0.404,1.801
			c0,0.787,0.136,1.378,0.408,1.771C136.899,48.463,137.288,48.66,137.794,48.66z"/>
		<path fill="#1F3659" d="M147.395,50.4c-1.289,0-2.296-0.355-3.021-1.067c-0.726-0.711-1.088-1.718-1.088-3.021
			c0-1.341,0.335-2.378,1.006-3.11s1.598-1.099,2.782-1.099c1.131,0,2.012,0.322,2.642,0.966c0.63,0.645,0.945,1.535,0.945,2.671
			v1.06h-5.162c0.024,0.62,0.208,1.105,0.551,1.453c0.344,0.349,0.826,0.522,1.446,0.522c0.482,0,0.938-0.05,1.367-0.15
			c0.43-0.1,0.878-0.26,1.346-0.479v1.689c-0.382,0.191-0.79,0.333-1.225,0.427C148.55,50.354,148.021,50.4,147.395,50.4z
			 M147.087,43.656c-0.463,0-0.826,0.146-1.088,0.439c-0.263,0.294-0.413,0.71-0.451,1.25h3.064c-0.01-0.54-0.15-0.956-0.422-1.25
			C147.918,43.803,147.55,43.656,147.087,43.656z"/>
		<path fill="#1F3659" d="M158.428,50.257h-2.184V39.116h2.184V50.257z"/>
		<path fill="#1F3659" d="M165.803,50.257l-0.423-1.088h-0.057c-0.368,0.463-0.746,0.783-1.135,0.963
			c-0.389,0.179-0.896,0.269-1.521,0.269c-0.769,0-1.374-0.22-1.815-0.659c-0.441-0.438-0.662-1.064-0.662-1.876
			c0-0.85,0.297-1.476,0.891-1.879s1.491-0.627,2.688-0.67l1.389-0.043v-0.351c0-0.812-0.416-1.217-1.246-1.217
			c-0.64,0-1.392,0.193-2.255,0.58l-0.723-1.476c0.921-0.481,1.942-0.723,3.064-0.723c1.074,0,1.897,0.233,2.47,0.701
			s0.859,1.18,0.859,2.134v5.334H165.803z M165.158,46.548l-0.845,0.029c-0.635,0.019-1.107,0.134-1.418,0.344
			c-0.31,0.21-0.465,0.529-0.465,0.959c0,0.615,0.354,0.924,1.06,0.924c0.506,0,0.911-0.146,1.214-0.437
			c0.303-0.292,0.455-0.678,0.455-1.16V46.548z"/>
		<path fill="#1F3659" d="M177.781,50.4c-0.94,0-1.678-0.342-2.212-1.024h-0.114c0.076,0.669,0.114,1.055,0.114,1.16v3.243h-2.184
			V42.253h1.775l0.308,1.038h0.1c0.511-0.793,1.267-1.188,2.27-1.188c0.945,0,1.685,0.365,2.22,1.095
			c0.534,0.73,0.801,1.745,0.801,3.043c0,0.854-0.125,1.597-0.375,2.227s-0.607,1.11-1.07,1.439S178.406,50.4,177.781,50.4z
			 M177.136,43.849c-0.539,0-0.933,0.166-1.181,0.498s-0.377,0.88-0.387,1.644v0.235c0,0.859,0.128,1.476,0.383,1.848
			c0.255,0.372,0.66,0.559,1.213,0.559c0.979,0,1.468-0.807,1.468-2.42c0-0.788-0.121-1.378-0.362-1.772
			C178.03,44.046,177.652,43.849,177.136,43.849z"/>
		<path fill="#1F3659" d="M187.748,50.257l-0.424-1.088h-0.057c-0.367,0.463-0.746,0.783-1.135,0.963
			c-0.389,0.179-0.896,0.269-1.521,0.269c-0.769,0-1.373-0.22-1.814-0.659c-0.441-0.438-0.662-1.064-0.662-1.876
			c0-0.85,0.297-1.476,0.891-1.879s1.49-0.627,2.688-0.67l1.39-0.043v-0.351c0-0.812-0.416-1.217-1.246-1.217
			c-0.64,0-1.392,0.193-2.256,0.58l-0.723-1.476c0.921-0.481,1.942-0.723,3.064-0.723c1.074,0,1.896,0.233,2.47,0.701
			s0.859,1.18,0.859,2.134v5.334H187.748z M187.103,46.548l-0.846,0.029c-0.635,0.019-1.107,0.134-1.418,0.344
			c-0.31,0.21-0.465,0.529-0.465,0.959c0,0.615,0.354,0.924,1.06,0.924c0.506,0,0.911-0.146,1.214-0.437
			c0.303-0.292,0.455-0.678,0.455-1.16V46.548z"/>
		<path fill="#1F3659" d="M195.988,42.103c0.296,0,0.541,0.021,0.737,0.064l-0.165,2.047c-0.176-0.047-0.391-0.071-0.645-0.071
			c-0.696,0-1.239,0.179-1.629,0.537c-0.389,0.357-0.583,0.859-0.583,1.503v4.074h-2.184v-8.004h1.653l0.322,1.346h0.107
			c0.248-0.449,0.584-0.811,1.006-1.085C195.032,42.239,195.492,42.103,195.988,42.103z"/>
		<path fill="#1F3659" d="M201.55,48.66c0.382,0,0.84-0.083,1.375-0.25v1.625c-0.545,0.243-1.213,0.365-2.005,0.365
			c-0.874,0-1.51-0.221-1.908-0.663c-0.398-0.441-0.598-1.104-0.598-1.986v-3.859h-1.046v-0.923l1.203-0.73l0.631-1.689h1.396v1.704
			h2.241v1.639h-2.241v3.859c0,0.311,0.087,0.539,0.261,0.688C201.034,48.586,201.264,48.66,201.55,48.66z"/>
		<path fill="#1F3659" d="M208.166,50.4c-1.289,0-2.296-0.355-3.021-1.067c-0.725-0.711-1.088-1.718-1.088-3.021
			c0-1.341,0.336-2.378,1.006-3.11s1.598-1.099,2.781-1.099c1.131,0,2.012,0.322,2.643,0.966c0.629,0.645,0.945,1.535,0.945,2.671
			v1.06h-5.162c0.023,0.62,0.207,1.105,0.551,1.453c0.344,0.349,0.826,0.522,1.446,0.522c0.481,0,0.938-0.05,1.367-0.15
			c0.43-0.1,0.878-0.26,1.347-0.479v1.689c-0.383,0.191-0.791,0.333-1.225,0.427C209.321,50.354,208.791,50.4,208.166,50.4z
			 M207.858,43.656c-0.463,0-0.825,0.146-1.089,0.439c-0.262,0.294-0.412,0.71-0.451,1.25h3.064c-0.01-0.54-0.15-0.956-0.422-1.25
			C208.689,43.803,208.321,43.656,207.858,43.656z"/>
		<path fill="#1F3659" d="M65.214,67.853l-0.423-1.088h-0.057c-0.368,0.463-0.746,0.783-1.135,0.963
			c-0.389,0.179-0.896,0.269-1.521,0.269c-0.769,0-1.374-0.22-1.815-0.659c-0.441-0.438-0.662-1.064-0.662-1.876
			c0-0.85,0.297-1.476,0.891-1.879s1.491-0.627,2.688-0.67l1.389-0.043v-0.351c0-0.812-0.416-1.217-1.246-1.217
			c-0.64,0-1.392,0.193-2.255,0.58l-0.723-1.476c0.921-0.481,1.942-0.723,3.064-0.723c1.074,0,1.897,0.233,2.47,0.701
			s0.859,1.18,0.859,2.134v5.334H65.214z M64.569,64.144l-0.845,0.029c-0.635,0.019-1.107,0.134-1.418,0.344
			c-0.31,0.21-0.465,0.529-0.465,0.959c0,0.615,0.354,0.924,1.06,0.924c0.506,0,0.911-0.146,1.214-0.437
			c0.303-0.292,0.455-0.678,0.455-1.16V64.144z"/>
		<path fill="#1F3659" d="M76.375,67.853h-2.184v-4.675c0-0.578-0.103-1.011-0.308-1.3s-0.532-0.434-0.98-0.434
			c-0.611,0-1.053,0.204-1.325,0.612s-0.408,1.085-0.408,2.03v3.766h-2.184v-8.004h1.668l0.294,1.023h0.122
			c0.243-0.387,0.579-0.679,1.006-0.877s0.913-0.297,1.457-0.297c0.931,0,1.637,0.251,2.119,0.755s0.723,1.23,0.723,2.18V67.853z"/>
		<path fill="#1F3659" d="M81.996,66.256c0.382,0,0.84-0.083,1.375-0.25v1.625c-0.544,0.243-1.212,0.365-2.004,0.365
			c-0.874,0-1.51-0.221-1.908-0.663c-0.398-0.441-0.598-1.104-0.598-1.986v-3.859h-1.045v-0.923l1.203-0.73l0.63-1.689h1.396v1.704
			h2.241v1.639h-2.241v3.859c0,0.311,0.087,0.539,0.261,0.688C81.479,66.182,81.709,66.256,81.996,66.256z"/>
		<path fill="#1F3659" d="M88.611,67.996c-1.289,0-2.296-0.355-3.021-1.067c-0.726-0.711-1.088-1.718-1.088-3.021
			c0-1.341,0.335-2.378,1.006-3.11s1.598-1.099,2.782-1.099c1.131,0,2.012,0.322,2.642,0.966c0.63,0.645,0.945,1.535,0.945,2.671
			v1.06h-5.162c0.024,0.62,0.208,1.105,0.551,1.453c0.344,0.349,0.826,0.522,1.446,0.522c0.482,0,0.938-0.05,1.367-0.15
			c0.43-0.1,0.878-0.26,1.346-0.479v1.689c-0.382,0.191-0.79,0.333-1.225,0.427C89.766,67.949,89.236,67.996,88.611,67.996z
			 M88.303,61.252c-0.463,0-0.826,0.146-1.088,0.439c-0.263,0.294-0.413,0.71-0.451,1.25h3.064c-0.01-0.54-0.15-0.956-0.422-1.25
			C89.134,61.398,88.766,61.252,88.303,61.252z"/>
		<path fill="#1F3659" d="M98.119,59.698c0.296,0,0.542,0.021,0.737,0.064l-0.165,2.047c-0.177-0.047-0.392-0.071-0.645-0.071
			c-0.697,0-1.24,0.179-1.629,0.537c-0.389,0.357-0.583,0.859-0.583,1.503v4.074h-2.184v-8.004h1.654l0.322,1.346h0.107
			c0.248-0.449,0.583-0.811,1.006-1.085S97.623,59.698,98.119,59.698z"/>
		<path fill="#1F3659" d="M100.216,57.779c0-0.711,0.396-1.067,1.188-1.067c0.792,0,1.188,0.356,1.188,1.067
			c0,0.339-0.099,0.603-0.297,0.791c-0.198,0.188-0.495,0.283-0.892,0.283C100.613,58.854,100.216,58.495,100.216,57.779z
			 M102.493,67.853h-2.184v-8.004h2.184V67.853z"/>
		<path fill="#1F3659" d="M112.058,63.836c0,1.303-0.343,2.322-1.031,3.058c-0.688,0.734-1.645,1.103-2.871,1.103
			c-0.769,0-1.446-0.169-2.033-0.505c-0.587-0.337-1.038-0.82-1.353-1.45s-0.473-1.365-0.473-2.205c0-1.308,0.341-2.324,1.024-3.05
			c0.682-0.726,1.642-1.088,2.878-1.088c0.769,0,1.446,0.167,2.033,0.501c0.587,0.334,1.038,0.813,1.354,1.438
			C111.901,62.264,112.058,62.996,112.058,63.836z M106.524,63.836c0,0.792,0.13,1.392,0.39,1.797
			c0.26,0.406,0.684,0.608,1.271,0.608c0.582,0,1.001-0.201,1.256-0.604s0.383-1.004,0.383-1.801c0-0.792-0.129-1.387-0.387-1.782
			c-0.258-0.396-0.68-0.595-1.268-0.595c-0.582,0-1.002,0.197-1.26,0.591S106.524,63.039,106.524,63.836z"/>
		<path fill="#1F3659" d="M118.33,59.698c0.296,0,0.542,0.021,0.737,0.064l-0.165,2.047c-0.177-0.047-0.392-0.071-0.645-0.071
			c-0.697,0-1.24,0.179-1.629,0.537c-0.389,0.357-0.583,0.859-0.583,1.503v4.074h-2.184v-8.004h1.654l0.322,1.346h0.107
			c0.248-0.449,0.583-0.811,1.006-1.085S117.833,59.698,118.33,59.698z"/>
		<path fill="#1F3659" d="M126.864,67.996c-0.94,0-1.679-0.365-2.216-1.096c-0.537-0.73-0.806-1.742-0.806-3.036
			c0-1.313,0.273-2.335,0.82-3.067c0.546-0.732,1.299-1.099,2.259-1.099c1.007,0,1.775,0.391,2.305,1.174h0.072
			c-0.11-0.597-0.165-1.129-0.165-1.597v-2.563h2.19v11.141h-1.675l-0.422-1.038h-0.093
			C128.637,67.602,127.881,67.996,126.864,67.996z M127.63,66.256c0.558,0,0.967-0.162,1.228-0.486
			c0.26-0.325,0.402-0.876,0.426-1.654v-0.236c0-0.859-0.133-1.475-0.397-1.847c-0.265-0.373-0.696-0.559-1.292-0.559
			c-0.487,0-0.865,0.206-1.135,0.619s-0.404,1.013-0.404,1.801c0,0.787,0.136,1.378,0.408,1.771
			C126.735,66.059,127.124,66.256,127.63,66.256z"/>
		<path fill="#1F3659" d="M137.231,67.996c-1.289,0-2.296-0.355-3.021-1.067c-0.726-0.711-1.088-1.718-1.088-3.021
			c0-1.341,0.335-2.378,1.006-3.11s1.598-1.099,2.782-1.099c1.131,0,2.012,0.322,2.642,0.966c0.63,0.645,0.945,1.535,0.945,2.671
			v1.06h-5.162c0.024,0.62,0.208,1.105,0.551,1.453c0.344,0.349,0.826,0.522,1.446,0.522c0.482,0,0.938-0.05,1.367-0.15
			c0.43-0.1,0.878-0.26,1.346-0.479v1.689c-0.382,0.191-0.79,0.333-1.225,0.427C138.386,67.949,137.856,67.996,137.231,67.996z
			 M136.923,61.252c-0.463,0-0.826,0.146-1.088,0.439c-0.263,0.294-0.413,0.71-0.451,1.25h3.064c-0.01-0.54-0.15-0.956-0.422-1.25
			C137.754,61.398,137.386,61.252,136.923,61.252z"/>
		<path fill="#1F3659" d="M144.455,67.853h-2.184V56.712h2.184V67.853z"/>
		<path fill="#1F3659" d="M159.412,62.519c0,1.724-0.491,3.043-1.471,3.959c-0.981,0.917-2.397,1.375-4.25,1.375h-2.964V57.386
			h3.286c1.708,0,3.036,0.45,3.981,1.353C158.939,59.641,159.412,60.9,159.412,62.519z M157.106,62.576
			c0-2.248-0.993-3.372-2.978-3.372h-1.182v6.815h0.953C156.037,66.02,157.106,64.872,157.106,62.576z"/>
		<path fill="#1F3659" d="M166.013,67.853l-2.52-8.212h-0.064c0.09,1.671,0.136,2.785,0.136,3.344v4.868h-1.983V57.386h3.021
			l2.477,8.004h0.043l2.627-8.004h3.021v10.467h-2.069v-4.954c0-0.234,0.004-0.504,0.011-0.81c0.007-0.305,0.04-1.116,0.097-2.434
			h-0.064l-2.699,8.197H166.013z"/>
		<path fill="#1F3659" d="M179.852,59.082c-0.835,0-1.482,0.314-1.94,0.941c-0.458,0.628-0.688,1.503-0.688,2.624
			c0,2.334,0.876,3.501,2.627,3.501c0.735,0,1.626-0.184,2.671-0.551v1.861c-0.859,0.357-1.818,0.537-2.878,0.537
			c-1.522,0-2.687-0.462-3.494-1.386s-1.21-2.249-1.21-3.978c0-1.088,0.198-2.041,0.594-2.859c0.396-0.819,0.965-1.446,1.708-1.884
			c0.742-0.437,1.612-0.654,2.609-0.654c1.017,0,2.038,0.245,3.064,0.737l-0.716,1.804c-0.392-0.186-0.785-0.348-1.182-0.486
			S180.234,59.082,179.852,59.082z"/>
		<path fill="#1F3659" d="M184.27,66.829c0-0.401,0.106-0.704,0.321-0.909c0.215-0.206,0.527-0.309,0.938-0.309
			c0.396,0,0.702,0.105,0.92,0.315s0.325,0.511,0.325,0.902c0,0.377-0.109,0.674-0.328,0.891c-0.221,0.218-0.525,0.326-0.917,0.326
			c-0.401,0-0.711-0.106-0.931-0.318C184.379,67.515,184.27,67.216,184.27,66.829z"/>
	</g>
</g>
<g>
	<ellipse fill="none" stroke="#FFFFFF" stroke-miterlimit="10" cx="322.204" cy="49.885" rx="44.798" ry="44.791"/>
	<rect x="9.672" y="20.639" fill="none" stroke="#FFFFFF" stroke-miterlimit="10" width="223.575" height="65.333"/>
	<line fill="none" stroke="#FFFFFF" stroke-miterlimit="10" x1="233.247" y1="50.673" x2="277.406" y2="50.673"/>
</g>
</svg>
