<?xml version="1.0" encoding="utf-8"?>
<!-- Generator: Adobe Illustrator 16.0.0, SVG Export Plug-In . SVG Version: 6.00 Build 0)  -->
<!DOCTYPE svg PUBLIC "-//W3C//DTD SVG 1.1//EN" "http://www.w3.org/Graphics/SVG/1.1/DTD/svg11.dtd">
<svg version="1.1" id="Capa_1" xmlns="http://www.w3.org/2000/svg" xmlns:xlink="http://www.w3.org/1999/xlink" x="0px" y="0px"
	 width="376.054px" height="99.676px" viewBox="0 0 376.054 99.676" enable-background="new 0 0 376.054 99.676"
	 xml:space="preserve">
<g>
	<ellipse fill="none" stroke="#FFFFFF" stroke-miterlimit="10" cx="321.894" cy="49.885" rx="44.773" ry="44.791"/>
	<rect x="9.527" y="20.639" fill="none" stroke="#FFFFFF" stroke-miterlimit="10" width="223.457" height="65.333"/>
	<line fill="none" stroke="#FFFFFF" stroke-miterlimit="10" x1="232.984" y1="50.673" x2="277.121" y2="50.673"/>
</g>
<g>
	<path fill="#FFFFFF" d="M322.329,46.993c2.704,0,4.857,0.759,6.458,2.277c1.602,1.519,2.402,3.597,2.402,6.238
		c0,3.127-0.964,5.531-2.89,7.215c-1.927,1.684-4.683,2.525-8.267,2.525c-3.113,0-5.627-0.504-7.54-1.512v-5.109
		c1.008,0.537,2.182,0.973,3.521,1.311c1.34,0.338,2.609,0.508,3.809,0.508c3.61,0,5.416-1.48,5.416-4.439
		c0-2.82-1.869-4.229-5.607-4.229c-0.676,0-1.422,0.066-2.238,0.199c-0.816,0.135-1.48,0.279-1.99,0.432l-2.354-1.264l1.052-14.255
		h15.175v5.014h-9.988l-0.518,5.491l0.67-0.134C320.217,47.082,321.181,46.993,322.329,46.993z"/>
</g>
</svg>
