<?xml version="1.0" encoding="utf-8"?>
<!-- Generator: Adobe Illustrator 16.0.0, SVG Export Plug-In . SVG Version: 6.00 Build 0)  -->
<!DOCTYPE svg PUBLIC "-//W3C//DTD SVG 1.1//EN" "http://www.w3.org/Graphics/SVG/1.1/DTD/svg11.dtd">
<svg version="1.1" id="Capa_1" xmlns="http://www.w3.org/2000/svg" xmlns:xlink="http://www.w3.org/1999/xlink" x="0px" y="0px"
	 width="376.054px" height="99.676px" viewBox="0 0 376.054 99.676" enable-background="new 0 0 376.054 99.676"
	 xml:space="preserve">
<g>
	<ellipse fill="none" stroke="#FFFFFF" stroke-miterlimit="10" cx="321.894" cy="49.885" rx="44.773" ry="44.791"/>
	<rect x="9.527" y="20.639" fill="none" stroke="#FFFFFF" stroke-miterlimit="10" width="223.457" height="65.333"/>
	<line fill="none" stroke="#FFFFFF" stroke-miterlimit="10" x1="232.984" y1="50.673" x2="277.121" y2="50.673"/>
</g>
<g>
	<g>
		<path fill="#FFFFFF" d="M329.71,63.813h-19.557v-4.114l7.023-7.1c2.078-2.131,3.438-3.607,4.074-4.43
			c0.639-0.824,1.098-1.586,1.379-2.287c0.279-0.701,0.42-1.43,0.42-2.183c0-1.122-0.309-1.958-0.928-2.507
			c-0.619-0.548-1.443-0.822-2.479-0.822c-1.086,0-2.137,0.248-3.156,0.746c-1.021,0.497-2.088,1.205-3.195,2.124l-3.215-3.81
			c1.377-1.172,2.52-2.002,3.424-2.486c0.906-0.484,1.895-0.857,2.967-1.119s2.271-0.393,3.598-0.393
			c1.748,0,3.291,0.318,4.631,0.957c1.34,0.638,2.379,1.529,3.119,2.679s1.109,2.463,1.109,3.942c0,1.287-0.227,2.496-0.678,3.625
			c-0.453,1.129-1.156,2.287-2.105,3.475c-0.951,1.188-2.625,2.877-5.023,5.07l-3.598,3.388v0.269h12.189V63.813L329.71,63.813z"/>
	</g>
</g>
</svg>
