<?xml version="1.0" encoding="utf-8"?>
<!-- Generator: Adobe Illustrator 16.0.0, SVG Export Plug-In . SVG Version: 6.00 Build 0)  -->
<!DOCTYPE svg PUBLIC "-//W3C//DTD SVG 1.1//EN" "http://www.w3.org/Graphics/SVG/1.1/DTD/svg11.dtd">
<svg version="1.1" id="Capa_1" xmlns="http://www.w3.org/2000/svg" xmlns:xlink="http://www.w3.org/1999/xlink" x="0px" y="0px"
	 width="376.054px" height="99.676px" viewBox="0 0 376.054 99.676" enable-background="new 0 0 376.054 99.676"
	 xml:space="preserve">
<g>
	<ellipse fill="none" stroke="#FFFFFF" stroke-miterlimit="10" cx="321.894" cy="49.885" rx="44.773" ry="44.791"/>
	<rect x="9.527" y="20.639" fill="none" stroke="#FFFFFF" stroke-miterlimit="10" width="223.457" height="65.333"/>
	<line fill="none" stroke="#FFFFFF" stroke-miterlimit="10" x1="232.984" y1="50.673" x2="277.121" y2="50.673"/>
</g>
<g>
	<path fill="#FFFFFF" d="M330.755,42.584c0,1.748-0.529,3.233-1.588,4.459c-1.061,1.225-2.545,2.065-4.459,2.525v0.114
		c2.258,0.28,3.967,0.967,5.129,2.058c1.16,1.092,1.74,2.562,1.74,4.41c0,2.692-0.977,4.788-2.928,6.286
		c-1.953,1.5-4.74,2.249-8.363,2.249c-3.035,0-5.729-0.504-8.074-1.512v-5.033c1.084,0.549,2.277,0.995,3.578,1.34
		c1.301,0.346,2.59,0.518,3.865,0.518c1.951,0,3.395-0.332,4.324-0.996c0.932-0.662,1.396-1.729,1.396-3.194
		c0-1.313-0.535-2.245-1.607-2.794c-1.07-0.549-2.781-0.823-5.127-0.823h-2.125v-4.535h2.162c2.17,0,3.754-0.284,4.756-0.852
		c1.002-0.568,1.502-1.54,1.502-2.918c0-2.118-1.326-3.177-3.98-3.177c-0.918,0-1.854,0.152-2.803,0.459
		c-0.951,0.307-2.006,0.836-3.168,1.588l-2.736-4.075c2.553-1.837,5.596-2.757,9.129-2.757c2.896,0,5.182,0.588,6.859,1.762
		S330.755,40.492,330.755,42.584z"/>
</g>
</svg>
