<?xml version="1.0" encoding="utf-8"?>
<!-- Generator: Adobe Illustrator 16.0.0, SVG Export Plug-In . SVG Version: 6.00 Build 0)  -->
<!DOCTYPE svg PUBLIC "-//W3C//DTD SVG 1.1//EN" "http://www.w3.org/Graphics/SVG/1.1/DTD/svg11.dtd">
<svg version="1.1" id="Capa_1" xmlns="http://www.w3.org/2000/svg" xmlns:xlink="http://www.w3.org/1999/xlink" x="0px" y="0px"
	 width="191px" height="177px" viewBox="0 0 191 177" enable-background="new 0 0 191 177" xml:space="preserve">
<g>
	<g>
		<path fill="#FFFFFF" d="M62.391,35.848l1.617-2.674h5.254v23.438h-2.799V35.848H62.391z"/>
		<path fill="#FFFFFF" d="M80.357,35.848l1.615-2.674h5.254v23.438H84.43V35.848H80.357z"/>
		<path fill="#FFFFFF" d="M95.309,44.893c0-4.817,2.113-12.217,8.176-12.217c6.061,0,8.174,7.399,8.174,12.217
			c0,4.788-2.145,12.218-8.174,12.218C97.453,57.11,95.309,49.681,95.309,44.893z M98.105,44.862c0,3.233,1.182,9.637,5.379,9.637
			c4.195,0,5.377-6.403,5.377-9.637s-1.182-9.699-5.377-9.699C99.287,35.163,98.105,41.629,98.105,44.862z"/>
		<path fill="#FFFFFF" d="M122.445,50.52l6.963-17.346h3.201l-10.164,24.683l-10.197-24.683h3.201L122.445,50.52z"/>
	</g>
	<g>
		<g>
			<path fill="#FFFFFF" d="M121.051,106.77h-2.355c-1.027,0-1.863-0.836-1.863-1.863s0.836-1.863,1.863-1.863h2.355
				c1.029,0,1.865,0.836,1.865,1.863S122.08,106.77,121.051,106.77z"/>
			<path fill="#FFFFFF" d="M118.695,88.912h2.355c1.029,0,1.865,0.836,1.865,1.863c0,1.028-0.836,1.864-1.865,1.864h-2.355
				c-1.027,0-1.863-0.836-1.863-1.864C116.832,89.748,117.668,88.912,118.695,88.912z"/>
			<path fill="#FFFFFF" d="M76.305,106.77h-2.355c-1.027,0-1.863-0.836-1.863-1.863s0.836-1.863,1.863-1.863h2.355
				c1.027,0,1.863,0.836,1.863,1.863S77.332,106.77,76.305,106.77z"/>
			<path fill="#FFFFFF" d="M73.949,88.912h2.355c1.027,0,1.863,0.836,1.863,1.863c0,1.028-0.836,1.864-1.863,1.864h-2.355
				c-1.027,0-1.863-0.836-1.863-1.864C72.086,89.748,72.922,88.912,73.949,88.912z"/>
			<path fill="#FFFFFF" d="M57.955,90.775v14.131c0,8.819,7.176,15.994,15.994,15.994h2.355c8.818,0,15.994-7.175,15.994-15.994
				V90.775c0-8.819-7.176-15.994-15.994-15.994h-2.355C65.131,74.781,57.955,81.956,57.955,90.775z M61.682,90.775
				c0-6.764,5.504-12.267,12.268-12.267h2.355c6.764,0,12.268,5.503,12.268,12.267v14.131c0,6.764-5.504,12.267-12.268,12.267
				h-2.355c-6.764,0-12.268-5.503-12.268-12.267V90.775z"/>
			<path fill="#FFFFFF" d="M102.701,90.775v14.131c0,8.819,7.176,15.994,15.994,15.994h2.355c8.82,0,15.996-7.175,15.996-15.994
				V90.775c0-8.819-7.176-15.994-15.996-15.994h-2.355C109.877,74.781,102.701,81.956,102.701,90.775z M106.43,90.775
				c0-6.764,5.502-12.267,12.266-12.267h2.355c6.764,0,12.268,5.503,12.268,12.267v14.131c0,6.764-5.504,12.267-12.268,12.267
				h-2.355c-6.764,0-12.266-5.503-12.266-12.267V90.775z"/>
			<path fill="#FFFFFF" d="M149.313,63.006H52.262h-3.727h-2.848c-2.326,0-4.219,1.893-4.219,4.219v61.232
				c0,2.326,1.893,4.219,4.219,4.219h103.625c2.326,0,4.219-1.893,4.219-4.219V67.225C153.531,64.898,151.639,63.006,149.313,63.006
				z M149.805,128.949H45.197V66.733h104.607V128.949z"/>
		</g>
	</g>
</g>
<g>
</g>
<g>
</g>
<g>
</g>
<g>
</g>
<g>
</g>
<g>
</g>
</svg>
