<?xml version="1.0" encoding="utf-8"?>
<!-- Generator: Adobe Illustrator 16.0.0, SVG Export Plug-In . SVG Version: 6.00 Build 0)  -->
<!DOCTYPE svg PUBLIC "-//W3C//DTD SVG 1.1//EN" "http://www.w3.org/Graphics/SVG/1.1/DTD/svg11.dtd">
<svg version="1.1" id="Capa_1" xmlns="http://www.w3.org/2000/svg" xmlns:xlink="http://www.w3.org/1999/xlink" x="0px" y="0px"
	 width="433px" height="197px" viewBox="0 0 433 197" enable-background="new 0 0 433 197" xml:space="preserve">
<g>
	<g>
		<defs>
			<circle id="SVGID_1_" cx="123.616" cy="100.401" r="74.716"/>
		</defs>
		<clipPath id="SVGID_2_">
			<use xlink:href="#SVGID_1_"  overflow="visible"/>
		</clipPath>
		<g clip-path="url(#SVGID_2_)">
			<g>
				<path fill="none" stroke="#FFFFFF" stroke-miterlimit="10" d="M86.626,64.471l67.086,71.9c0,0-61.069,51.999-71.631,40.68
					c-10.558-11.316-43.79-46.932-43.79-46.932S32.7,114.785,86.626,64.471z"/>
				
					<rect x="120.726" y="44.089" transform="matrix(0.6819 0.7315 -0.7315 0.6819 89.154 -68.4379)" fill="#FFFFFF" width="5.059" height="48.372"/>
				<polygon fill="#FFFFFF" points="170.496,83.451 167.044,79.755 131.678,112.755 135.13,116.45 				"/>
			</g>
			<path fill="#FFFFFF" d="M108.33,150.67c-4.966,4.631-12.744,4.362-17.373-0.601l-22.676-24.302
				c-4.632-4.964-4.362-12.741,0.602-17.375l13.452-12.551c4.964-4.631,12.742-4.357,17.375,0.604l22.672,24.3
				c4.632,4.965,4.362,12.741-0.604,17.373L108.33,150.67z"/>
		</g>
		<use xlink:href="#SVGID_1_"  overflow="visible" fill="none" stroke="#FFFFFF" stroke-miterlimit="10"/>
	</g>
	<g>
		<g>
			<circle fill="none" stroke="#FFFFFF" stroke-miterlimit="10" cx="123.616" cy="100.401" r="82.662"/>
		</g>
		<circle fill="none" stroke="#FFFFFF" stroke-miterlimit="10" cx="123.616" cy="100.401" r="74.716"/>
	</g>
</g>
<g>
	<polygon fill="none" stroke="#FFFFFF" stroke-miterlimit="10" points="268.011,49.25 268.011,122.549 405.886,150.475 
		405.886,72.811 	"/>
	<path fill="none" stroke="#FFFFFF" stroke-miterlimit="10" d="M301.004,73.157c-10.838-0.424-19.963,8.012-20.388,18.849
		c-0.423,10.835,8.015,19.96,18.851,20.385c10.833,0.426,19.958-8.013,20.384-18.848C320.275,82.71,311.835,73.584,301.004,73.157z
		 M294.664,101.953l-2.39-0.095l0.735-18.764l2.388,0.095L294.664,101.953z M307.455,102.455l-2.389-0.092l0.736-18.767l2.391,0.095
		L307.455,102.455z"/>
	<path fill="none" stroke="#FFFFFF" stroke-miterlimit="10" d="M366.784,86.714c-10.832-0.423-19.961,8.014-20.383,18.848
		c-0.427,10.836,8.01,19.961,18.846,20.386c10.832,0.424,19.963-8.013,20.386-18.847C386.058,96.267,377.618,87.138,366.784,86.714z
		 M360.448,115.507l-2.39-0.092l0.732-18.764l2.39,0.093L360.448,115.507z M373.237,116.011l-2.386-0.093l0.733-18.765l2.389,0.092
		L373.237,116.011z"/>
</g>
<g>
</g>
<g>
</g>
<g>
</g>
<g>
</g>
<g>
</g>
<g>
</g>
</svg>
