<?xml version="1.0" encoding="utf-8"?>
<!-- Generator: Adobe Illustrator 16.0.0, SVG Export Plug-In . SVG Version: 6.00 Build 0)  -->
<!DOCTYPE svg PUBLIC "-//W3C//DTD SVG 1.1//EN" "http://www.w3.org/Graphics/SVG/1.1/DTD/svg11.dtd">
<svg version="1.1" id="Capa_1" xmlns="http://www.w3.org/2000/svg" xmlns:xlink="http://www.w3.org/1999/xlink" x="0px" y="0px"
	 width="433px" height="197px" viewBox="0 0 433 197" enable-background="new 0 0 433 197" xml:space="preserve">
<g>
	<g>
		<defs>
			<circle id="SVGID_1_" cx="94.657" cy="96.61" r="73.73"/>
		</defs>
		<clipPath id="SVGID_2_">
			<use xlink:href="#SVGID_1_"  overflow="visible"/>
		</clipPath>
		<g clip-path="url(#SVGID_2_)">
			<g>
				<polyline fill="none" stroke="#FFFFFF" stroke-miterlimit="10" points="-109.447,-49.309 -119.267,-33.246 65.959,68.128 				
					"/>
				<polyline fill="none" stroke="#FFFFFF" stroke-miterlimit="10" points="-108.152,-111.508 81.898,-7.491 72.437,9.798 
					-92.416,-80.428 -100.477,-65.695 64.373,24.524 				"/>
				
					<rect x="82.651" y="61.852" transform="matrix(-0.4801 0.8772 -0.8772 -0.4801 221.1569 41.3962)" fill="#FFFFFF" width="31.319" height="48.77"/>
				
					<rect x="61.365" y="65.628" transform="matrix(-0.4801 0.8772 -0.8772 -0.4801 168.4163 44.0475)" fill="none" stroke="#FFFFFF" stroke-miterlimit="10" width="19.58" height="12.609"/>
				
					<rect x="116.998" y="92.679" transform="matrix(-0.4801 0.8772 -0.8772 -0.4801 281.5947 39.9682)" fill="none" stroke="#FFFFFF" stroke-miterlimit="10" width="23.912" height="21.497"/>
				
					<rect x="-143.113" y="-135.185" transform="matrix(0.4801 -0.8772 0.8772 0.4801 40.8163 -175.2719)" fill="none" stroke="#FFFFFF" stroke-miterlimit="10" width="31.318" height="26.232"/>
				
					<rect x="-122.523" y="-117.967" transform="matrix(0.48 -0.8773 0.8773 0.48 41.8927 -158.4731)" fill="none" stroke="#FFFFFF" stroke-miterlimit="10" width="19.575" height="6.783"/>
				
					<rect x="-157.142" y="-139.498" transform="matrix(0.4801 -0.8772 0.8772 0.4801 40.486 -196.0824)" fill="none" stroke="#FFFFFF" stroke-miterlimit="10" width="23.92" height="14.601"/>
				
					<rect x="129.878" y="98.387" transform="matrix(0.8771 0.4804 -0.4804 0.8771 64.321 -51.528)" fill="none" stroke="#FFFFFF" stroke-miterlimit="10" width="5.901" height="3.02"/>
				
					<rect x="125.533" y="106.331" transform="matrix(0.8772 0.4801 -0.4801 0.8772 67.5444 -48.4414)" fill="none" stroke="#FFFFFF" stroke-miterlimit="10" width="5.901" height="3.018"/>
				<line fill="none" stroke="#FFFFFF" stroke-miterlimit="10" x1="-148.729" y1="-140.927" x2="-135.92" y2="-133.917"/>
				<line fill="none" stroke="#FFFFFF" stroke-miterlimit="10" x1="-154.102" y1="-131.106" x2="-141.294" y2="-124.098"/>
			</g>
		</g>
		<use xlink:href="#SVGID_1_"  overflow="visible" fill="none" stroke="#FFFFFF" stroke-miterlimit="10"/>
	</g>
	<g>
		<circle fill="none" stroke="#FFFFFF" stroke-miterlimit="10" cx="94.657" cy="96.61" r="73.73"/>
		<circle fill="none" stroke="#FFFFFF" stroke-miterlimit="10" cx="94.658" cy="96.61" r="81.571"/>
	</g>
</g>
<g>
	<g>
		<g>
			<path fill="none" stroke="#FFFFFF" stroke-miterlimit="10" d="M333.406,57.127l65.92,70.651c0,0-60.008,51.095-70.385,39.973
				c-10.375-11.119-43.028-46.115-43.028-46.115S280.419,106.567,333.406,57.127z"/>
			
				<rect x="366.914" y="37.104" transform="matrix(0.682 0.7313 -0.7313 0.682 161.9812 -250.8011)" fill="#FFFFFF" width="4.969" height="47.531"/>
			
				<rect x="394.26" y="66.411" transform="matrix(0.6821 0.7312 -0.7312 0.6821 192.0568 -261.4501)" fill="#FFFFFF" width="4.971" height="47.531"/>
		</g>
		<path fill="#FFFFFF" d="M354.731,141.828c-4.878,4.551-12.521,4.287-17.069-0.59l-22.281-23.879
			c-4.551-4.876-4.286-12.519,0.592-17.069l13.218-12.333c4.876-4.553,12.519-4.285,17.071,0.593l22.278,23.875
			c4.55,4.879,4.286,12.521-0.593,17.071L354.731,141.828z"/>
	</g>
	<polygon fill="none" stroke="#FFFFFF" stroke-miterlimit="10" points="285.913,121.636 285.75,142.18 310.508,169.335 
		330.901,169.335 	"/>
	<polygon fill="#FFFFFF" points="292.997,137.239 291.251,142.075 309.187,161.594 313.713,159.837 	"/>
</g>
<g>
</g>
<g>
</g>
<g>
</g>
<g>
</g>
<g>
</g>
<g>
</g>
</svg>
