<?xml version="1.0" encoding="utf-8"?>
<!-- Generator: Adobe Illustrator 16.0.0, SVG Export Plug-In . SVG Version: 6.00 Build 0)  -->
<!DOCTYPE svg PUBLIC "-//W3C//DTD SVG 1.1//EN" "http://www.w3.org/Graphics/SVG/1.1/DTD/svg11.dtd">
<svg version="1.1" id="Capa_1" xmlns="http://www.w3.org/2000/svg" xmlns:xlink="http://www.w3.org/1999/xlink" x="0px" y="0px"
	 width="856px" height="197px" viewBox="0 0 856 197" enable-background="new 0 0 856 197" xml:space="preserve">
<g>
	<g>
		<path fill="#FFFFFF" d="M529.267,55.864h-8.313V40.951h8.313v1.54h-6.579v4.805h6.182v1.53h-6.182v5.487h6.579V55.864z"/>
		<path fill="#FFFFFF" d="M539.528,52.814c0,1.04-0.388,1.843-1.163,2.407c-0.774,0.564-1.863,0.847-3.264,0.847
			c-1.482,0-2.639-0.234-3.468-0.704v-1.57c0.537,0.271,1.113,0.486,1.729,0.643s1.209,0.234,1.78,0.234
			c0.884,0,1.563-0.142,2.04-0.424c0.476-0.281,0.714-0.712,0.714-1.29c0-0.435-0.188-0.808-0.566-1.117
			c-0.377-0.309-1.113-0.675-2.208-1.097c-1.041-0.387-1.78-0.726-2.219-1.015s-0.765-0.617-0.979-0.984
			c-0.214-0.367-0.321-0.806-0.321-1.315c0-0.911,0.371-1.631,1.112-2.158c0.741-0.526,1.758-0.79,3.05-0.79
			c1.203,0,2.38,0.245,3.529,0.734l-0.602,1.377c-1.122-0.462-2.139-0.693-3.05-0.693c-0.803,0-1.408,0.126-1.816,0.377
			c-0.408,0.252-0.611,0.599-0.611,1.041c0,0.299,0.076,0.554,0.229,0.765c0.152,0.211,0.399,0.412,0.739,0.602
			c0.34,0.191,0.993,0.467,1.958,0.827c1.326,0.482,2.223,0.969,2.688,1.458C539.296,51.458,539.528,52.073,539.528,52.814z"/>
		<path fill="#FFFFFF" d="M547.485,56.068c-0.729,0-1.393-0.135-1.995-0.403c-0.602-0.269-1.106-0.682-1.515-1.239h-0.122
			c0.082,0.653,0.122,1.271,0.122,1.856v4.601h-1.693V44.685h1.378l0.234,1.53h0.081c0.436-0.612,0.942-1.055,1.521-1.326
			c0.577-0.272,1.24-0.408,1.989-0.408c1.482,0,2.626,0.507,3.432,1.52c0.807,1.014,1.209,2.435,1.209,4.265
			c0,1.836-0.409,3.262-1.229,4.278C550.077,55.56,548.94,56.068,547.485,56.068z M547.24,45.919c-1.143,0-1.969,0.316-2.479,0.948
			c-0.511,0.633-0.772,1.639-0.786,3.02v0.378c0,1.57,0.262,2.694,0.786,3.371c0.523,0.677,1.363,1.015,2.52,1.015
			c0.965,0,1.722-0.391,2.27-1.173c0.547-0.782,0.821-1.86,0.821-3.233c0-1.395-0.274-2.464-0.821-3.208
			C549.003,46.291,548.232,45.919,547.24,45.919z"/>
		<path fill="#FFFFFF" d="M559.808,56.068c-1.653,0-2.957-0.503-3.912-1.51c-0.956-1.007-1.434-2.404-1.434-4.192
			c0-1.802,0.444-3.233,1.331-4.295c0.888-1.061,2.079-1.591,3.575-1.591c1.401,0,2.51,0.461,3.326,1.382
			c0.815,0.922,1.224,2.138,1.224,3.647v1.07h-7.701c0.034,1.313,0.365,2.31,0.994,2.989s1.515,1.02,2.657,1.02
			c1.204,0,2.394-0.251,3.57-0.755v1.51c-0.599,0.259-1.164,0.444-1.698,0.557C561.206,56.012,560.563,56.068,559.808,56.068z
			 M559.349,45.898c-0.898,0-1.614,0.292-2.147,0.877c-0.534,0.585-0.849,1.395-0.943,2.428h5.845c0-1.067-0.238-1.885-0.714-2.453
			C560.912,46.183,560.232,45.898,559.349,45.898z"/>
		<path fill="#FFFFFF" d="M571.905,44.48c0.496,0,0.941,0.041,1.336,0.122l-0.234,1.571c-0.462-0.103-0.87-0.153-1.224-0.153
			c-0.904,0-1.679,0.367-2.321,1.102s-0.964,1.649-0.964,2.744v5.998h-1.693v-11.18h1.397l0.194,2.07h0.081
			c0.415-0.728,0.915-1.288,1.5-1.683S571.205,44.48,571.905,44.48z"/>
		<path fill="#FFFFFF" d="M580.056,56.068c-1.653,0-2.957-0.503-3.912-1.51c-0.956-1.007-1.434-2.404-1.434-4.192
			c0-1.802,0.444-3.233,1.331-4.295c0.888-1.061,2.079-1.591,3.575-1.591c1.401,0,2.51,0.461,3.326,1.382
			c0.815,0.922,1.224,2.138,1.224,3.647v1.07h-7.701c0.034,1.313,0.365,2.31,0.994,2.989s1.515,1.02,2.657,1.02
			c1.204,0,2.394-0.251,3.57-0.755v1.51c-0.599,0.259-1.164,0.444-1.698,0.557C581.454,56.012,580.811,56.068,580.056,56.068z
			 M579.597,45.898c-0.898,0-1.614,0.292-2.147,0.877c-0.534,0.585-0.849,1.395-0.943,2.428h5.845c0-1.067-0.238-1.885-0.714-2.453
			C581.16,46.183,580.48,45.898,579.597,45.898z"/>
		<path fill="#FFFFFF" d="M600.13,55.864v-7.232c0-0.911-0.207-1.591-0.622-2.04c-0.415-0.448-1.064-0.673-1.948-0.673
			c-1.177,0-2.035,0.319-2.575,0.959c-0.541,0.639-0.812,1.687-0.812,3.142v5.845h-1.693V39.992h1.693v4.805
			c0,0.578-0.027,1.058-0.081,1.438h0.102c0.333-0.537,0.808-0.961,1.423-1.271s1.317-0.464,2.106-0.464
			c1.367,0,2.393,0.324,3.076,0.974c0.683,0.649,1.024,1.682,1.024,3.097v7.293H600.13z"/>
		<path fill="#FFFFFF" d="M612.178,55.864l-0.337-1.591h-0.082c-0.558,0.7-1.113,1.175-1.668,1.423
			c-0.554,0.248-1.246,0.372-2.075,0.372c-1.108,0-1.978-0.286-2.606-0.857c-0.629-0.57-0.943-1.383-0.943-2.438
			c0-2.258,1.806-3.44,5.416-3.55l1.897-0.062v-0.693c0-0.877-0.188-1.524-0.566-1.943c-0.377-0.418-0.98-0.627-1.811-0.627
			c-0.932,0-1.985,0.285-3.162,0.856l-0.52-1.295c0.551-0.3,1.154-0.534,1.811-0.704s1.313-0.255,1.974-0.255
			c1.333,0,2.32,0.296,2.963,0.888c0.643,0.591,0.964,1.54,0.964,2.846v7.63H612.178z M608.353,54.671
			c1.054,0,1.882-0.289,2.483-0.867s0.902-1.388,0.902-2.428v-1.01l-1.693,0.071c-1.346,0.048-2.316,0.257-2.912,0.627
			c-0.595,0.371-0.893,0.947-0.893,1.729c0,0.612,0.186,1.078,0.557,1.397C607.167,54.511,607.686,54.671,608.353,54.671z"/>
		<path fill="#FFFFFF" d="M624.132,52.814c0,1.04-0.388,1.843-1.163,2.407c-0.774,0.564-1.863,0.847-3.264,0.847
			c-1.482,0-2.639-0.234-3.468-0.704v-1.57c0.537,0.271,1.113,0.486,1.729,0.643s1.209,0.234,1.78,0.234
			c0.884,0,1.563-0.142,2.04-0.424c0.476-0.281,0.714-0.712,0.714-1.29c0-0.435-0.188-0.808-0.566-1.117
			c-0.377-0.309-1.113-0.675-2.208-1.097c-1.041-0.387-1.78-0.726-2.219-1.015s-0.765-0.617-0.979-0.984
			c-0.214-0.367-0.321-0.806-0.321-1.315c0-0.911,0.371-1.631,1.112-2.158c0.741-0.526,1.758-0.79,3.05-0.79
			c1.203,0,2.38,0.245,3.529,0.734l-0.602,1.377c-1.122-0.462-2.139-0.693-3.05-0.693c-0.803,0-1.408,0.126-1.816,0.377
			c-0.408,0.252-0.611,0.599-0.611,1.041c0,0.299,0.076,0.554,0.229,0.765c0.152,0.211,0.399,0.412,0.739,0.602
			c0.34,0.191,0.993,0.467,1.958,0.827c1.326,0.482,2.223,0.969,2.688,1.458C623.899,51.458,624.132,52.073,624.132,52.814z"/>
		<path fill="#FFFFFF" d="M630.497,54.671c0.299,0,0.588-0.022,0.867-0.066c0.278-0.044,0.5-0.09,0.663-0.138v1.296
			c-0.184,0.088-0.454,0.161-0.812,0.219c-0.356,0.058-0.678,0.087-0.964,0.087c-2.162,0-3.243-1.139-3.243-3.417V46h-1.602v-0.815
			l1.602-0.704l0.714-2.387h0.979v2.591h3.243V46h-3.243v6.58c0,0.673,0.159,1.189,0.479,1.55
			C629.501,54.49,629.939,54.671,630.497,54.671z"/>
		<path fill="#FFFFFF" d="M641.137,55.864l-0.337-1.591h-0.082c-0.558,0.7-1.113,1.175-1.668,1.423
			c-0.554,0.248-1.246,0.372-2.075,0.372c-1.108,0-1.978-0.286-2.606-0.857c-0.629-0.57-0.943-1.383-0.943-2.438
			c0-2.258,1.806-3.44,5.416-3.55l1.897-0.062v-0.693c0-0.877-0.188-1.524-0.566-1.943c-0.377-0.418-0.98-0.627-1.811-0.627
			c-0.932,0-1.985,0.285-3.162,0.856l-0.52-1.295c0.551-0.3,1.154-0.534,1.811-0.704s1.313-0.255,1.974-0.255
			c1.333,0,2.32,0.296,2.963,0.888c0.643,0.591,0.964,1.54,0.964,2.846v7.63H641.137z M637.312,54.671
			c1.054,0,1.882-0.289,2.483-0.867s0.902-1.388,0.902-2.428v-1.01l-1.693,0.071c-1.346,0.048-2.316,0.257-2.912,0.627
			c-0.595,0.371-0.893,0.947-0.893,1.729c0,0.612,0.186,1.078,0.557,1.397C636.126,54.511,636.645,54.671,637.312,54.671z"/>
		<path fill="#FFFFFF" d="M655.274,56.068c-1.442,0-2.567-0.507-3.377-1.52c-0.81-1.014-1.214-2.428-1.214-4.244
			c0-1.829,0.408-3.257,1.225-4.284c0.815-1.026,1.951-1.54,3.406-1.54c1.53,0,2.707,0.578,3.529,1.734h0.093l0.244-1.53h1.337
			v16.198h-1.693v-4.784c0-0.68,0.037-1.258,0.112-1.733h-0.133C658.021,55.501,656.845,56.068,655.274,56.068z M655.529,54.65
			c1.129,0,1.951-0.303,2.469-0.908c0.517-0.604,0.792-1.625,0.826-3.06v-0.378c0-1.563-0.266-2.689-0.796-3.376
			s-1.37-1.03-2.52-1.03c-0.993,0-1.753,0.386-2.28,1.157c-0.526,0.772-0.79,1.862-0.79,3.27c0,1.408,0.26,2.48,0.78,3.219
			C653.739,54.281,654.509,54.65,655.529,54.65z"/>
		<path fill="#FFFFFF" d="M665.699,44.685v7.253c0,0.911,0.207,1.591,0.622,2.04c0.415,0.448,1.064,0.673,1.948,0.673
			c1.17,0,2.024-0.319,2.565-0.959c0.541-0.639,0.811-1.683,0.811-3.132v-5.875h1.693v11.18h-1.397l-0.244-1.499h-0.092
			c-0.347,0.551-0.828,0.972-1.443,1.265c-0.616,0.292-1.318,0.438-2.106,0.438c-1.36,0-2.379-0.323-3.056-0.969
			c-0.677-0.646-1.015-1.68-1.015-3.102v-7.313H665.699z"/>
		<path fill="#FFFFFF" d="M681.653,56.068c-1.653,0-2.957-0.503-3.912-1.51c-0.956-1.007-1.434-2.404-1.434-4.192
			c0-1.802,0.444-3.233,1.331-4.295c0.888-1.061,2.079-1.591,3.575-1.591c1.401,0,2.51,0.461,3.326,1.382
			c0.815,0.922,1.224,2.138,1.224,3.647v1.07h-7.701c0.034,1.313,0.365,2.31,0.994,2.989s1.515,1.02,2.657,1.02
			c1.204,0,2.394-0.251,3.57-0.755v1.51c-0.599,0.259-1.164,0.444-1.698,0.557C683.052,56.012,682.408,56.068,681.653,56.068z
			 M681.194,45.898c-0.898,0-1.614,0.292-2.147,0.877c-0.534,0.585-0.849,1.395-0.943,2.428h5.845c0-1.067-0.238-1.885-0.714-2.453
			C682.758,46.183,682.078,45.898,681.194,45.898z"/>
		<path fill="#FFFFFF" d="M698.801,56.068c-1.653,0-2.957-0.503-3.912-1.51c-0.956-1.007-1.434-2.404-1.434-4.192
			c0-1.802,0.444-3.233,1.331-4.295c0.888-1.061,2.079-1.591,3.575-1.591c1.401,0,2.51,0.461,3.326,1.382
			c0.815,0.922,1.224,2.138,1.224,3.647v1.07h-7.701c0.034,1.313,0.365,2.31,0.994,2.989s1.515,1.02,2.657,1.02
			c1.204,0,2.394-0.251,3.57-0.755v1.51c-0.599,0.259-1.164,0.444-1.698,0.557C700.199,56.012,699.556,56.068,698.801,56.068z
			 M698.342,45.898c-0.898,0-1.614,0.292-2.147,0.877c-0.534,0.585-0.849,1.395-0.943,2.428h5.845c0-1.067-0.238-1.885-0.714-2.453
			C699.905,46.183,699.226,45.898,698.342,45.898z"/>
		<path fill="#FFFFFF" d="M707.49,55.864h-1.693V39.992h1.693V55.864z"/>
		<path fill="#FFFFFF" d="M716.365,41.655c0-0.388,0.096-0.671,0.286-0.852c0.189-0.18,0.428-0.271,0.714-0.271
			c0.271,0,0.506,0.092,0.704,0.275c0.196,0.184,0.295,0.466,0.295,0.847s-0.099,0.665-0.295,0.852
			c-0.198,0.187-0.433,0.28-0.704,0.28c-0.286,0-0.524-0.093-0.714-0.28C716.461,42.32,716.365,42.036,716.365,41.655z
			 M718.201,55.864h-1.693v-11.18h1.693V55.864z"/>
		<path fill="#FFFFFF" d="M729.442,55.864v-7.232c0-0.911-0.207-1.591-0.622-2.04c-0.415-0.448-1.064-0.673-1.948-0.673
			c-1.17,0-2.026,0.316-2.57,0.948c-0.544,0.633-0.816,1.677-0.816,3.132v5.865h-1.693v-11.18h1.378l0.275,1.53h0.081
			c0.347-0.551,0.833-0.978,1.459-1.28c0.625-0.303,1.322-0.454,2.091-0.454c1.347,0,2.359,0.325,3.04,0.975
			c0.68,0.649,1.02,1.688,1.02,3.116v7.293H729.442z"/>
		<path fill="#FFFFFF" d="M742.224,54.365h-0.092c-0.782,1.136-1.952,1.703-3.51,1.703c-1.462,0-2.6-0.5-3.412-1.5
			c-0.813-0.999-1.219-2.421-1.219-4.264s0.408-3.274,1.225-4.294c0.815-1.021,1.951-1.53,3.406-1.53
			c1.517,0,2.68,0.551,3.489,1.652h0.133l-0.072-0.806l-0.04-0.785v-4.55h1.693v15.872h-1.378L742.224,54.365z M738.837,54.65
			c1.156,0,1.994-0.314,2.515-0.943c0.52-0.629,0.78-1.645,0.78-3.045v-0.357c0-1.584-0.264-2.715-0.791-3.392
			s-1.368-1.015-2.524-1.015c-0.993,0-1.753,0.386-2.28,1.157c-0.526,0.772-0.79,1.862-0.79,3.27c0,1.429,0.262,2.506,0.785,3.233
			C737.055,54.287,737.823,54.65,738.837,54.65z"/>
		<path fill="#FFFFFF" d="M747.272,41.655c0-0.388,0.096-0.671,0.286-0.852c0.189-0.18,0.428-0.271,0.714-0.271
			c0.271,0,0.506,0.092,0.704,0.275c0.196,0.184,0.295,0.466,0.295,0.847s-0.099,0.665-0.295,0.852
			c-0.198,0.187-0.433,0.28-0.704,0.28c-0.286,0-0.524-0.093-0.714-0.28C747.368,42.32,747.272,42.036,747.272,41.655z
			 M749.108,55.864h-1.693v-11.18h1.693V55.864z"/>
		<path fill="#FFFFFF" d="M757.167,56.068c-1.618,0-2.871-0.498-3.759-1.494c-0.887-0.996-1.331-2.406-1.331-4.229
			c0-1.87,0.45-3.315,1.352-4.335c0.901-1.021,2.185-1.53,3.851-1.53c0.537,0,1.075,0.058,1.612,0.174
			c0.537,0.115,0.959,0.251,1.265,0.407l-0.521,1.438c-0.374-0.149-0.782-0.273-1.224-0.372c-0.442-0.099-0.833-0.148-1.173-0.148
			c-2.271,0-3.407,1.449-3.407,4.346c0,1.374,0.276,2.428,0.831,3.162s1.375,1.102,2.464,1.102c0.932,0,1.887-0.2,2.866-0.602v1.5
			C759.245,55.874,758.303,56.068,757.167,56.068z"/>
		<path fill="#FFFFFF" d="M769.521,55.864l-0.337-1.591h-0.082c-0.558,0.7-1.113,1.175-1.668,1.423
			c-0.554,0.248-1.246,0.372-2.075,0.372c-1.108,0-1.978-0.286-2.606-0.857c-0.629-0.57-0.943-1.383-0.943-2.438
			c0-2.258,1.806-3.44,5.416-3.55l1.897-0.062v-0.693c0-0.877-0.188-1.524-0.566-1.943c-0.377-0.418-0.98-0.627-1.811-0.627
			c-0.932,0-1.985,0.285-3.162,0.856l-0.52-1.295c0.551-0.3,1.154-0.534,1.811-0.704s1.313-0.255,1.974-0.255
			c1.333,0,2.32,0.296,2.963,0.888c0.643,0.591,0.964,1.54,0.964,2.846v7.63H769.521z M765.695,54.671
			c1.054,0,1.882-0.289,2.483-0.867s0.902-1.388,0.902-2.428v-1.01l-1.693,0.071c-1.346,0.048-2.316,0.257-2.912,0.627
			c-0.595,0.371-0.893,0.947-0.893,1.729c0,0.612,0.186,1.078,0.557,1.397C764.51,54.511,765.028,54.671,765.695,54.671z"/>
		<path fill="#FFFFFF" d="M781.873,54.365h-0.092c-0.782,1.136-1.952,1.703-3.51,1.703c-1.462,0-2.6-0.5-3.412-1.5
			c-0.813-0.999-1.219-2.421-1.219-4.264s0.408-3.274,1.225-4.294c0.815-1.021,1.951-1.53,3.406-1.53
			c1.517,0,2.68,0.551,3.489,1.652h0.133l-0.072-0.806l-0.04-0.785v-4.55h1.693v15.872h-1.378L781.873,54.365z M778.486,54.65
			c1.156,0,1.994-0.314,2.515-0.943c0.52-0.629,0.78-1.645,0.78-3.045v-0.357c0-1.584-0.264-2.715-0.791-3.392
			s-1.368-1.015-2.524-1.015c-0.993,0-1.753,0.386-2.28,1.157c-0.526,0.772-0.79,1.862-0.79,3.27c0,1.429,0.262,2.506,0.785,3.233
			C776.704,54.287,777.473,54.65,778.486,54.65z"/>
		<path fill="#FFFFFF" d="M796.715,50.265c0,1.822-0.459,3.245-1.377,4.269c-0.919,1.023-2.187,1.535-3.806,1.535
			c-0.999,0-1.887-0.234-2.662-0.704c-0.775-0.469-1.373-1.143-1.795-2.02s-0.633-1.904-0.633-3.08c0-1.823,0.456-3.242,1.367-4.259
			s2.176-1.525,3.795-1.525c1.563,0,2.807,0.521,3.728,1.561C796.254,47.082,796.715,48.489,796.715,50.265z M788.197,50.265
			c0,1.428,0.285,2.516,0.856,3.264s1.411,1.122,2.52,1.122s1.95-0.372,2.524-1.117c0.575-0.744,0.862-1.834,0.862-3.269
			c0-1.422-0.287-2.501-0.862-3.239c-0.574-0.737-1.423-1.106-2.545-1.106c-1.108,0-1.944,0.363-2.509,1.091
			C788.479,47.738,788.197,48.822,788.197,50.265z"/>
		<path fill="#FFFFFF" d="M804.783,44.48c0.496,0,0.941,0.041,1.336,0.122l-0.234,1.571c-0.462-0.103-0.87-0.153-1.224-0.153
			c-0.904,0-1.679,0.367-2.321,1.102s-0.964,1.649-0.964,2.744v5.998h-1.693v-11.18h1.397l0.194,2.07h0.081
			c0.415-0.728,0.915-1.288,1.5-1.683S804.083,44.48,804.783,44.48z"/>
		<path fill="#FFFFFF" d="M517.542,79.435h-0.092c-0.782,1.136-1.952,1.703-3.51,1.703c-1.462,0-2.6-0.5-3.412-1.5
			c-0.813-0.999-1.219-2.421-1.219-4.264s0.408-3.274,1.225-4.294c0.815-1.021,1.951-1.53,3.406-1.53
			c1.517,0,2.68,0.551,3.489,1.652h0.133l-0.072-0.806l-0.04-0.785v-4.55h1.693v15.872h-1.378L517.542,79.435z M514.155,79.72
			c1.156,0,1.994-0.314,2.515-0.943c0.52-0.629,0.78-1.645,0.78-3.045v-0.357c0-1.584-0.264-2.715-0.791-3.392
			s-1.368-1.015-2.524-1.015c-0.993,0-1.753,0.386-2.28,1.157c-0.526,0.772-0.79,1.862-0.79,3.27c0,1.429,0.262,2.506,0.785,3.233
			C512.373,79.356,513.142,79.72,514.155,79.72z"/>
		<path fill="#FFFFFF" d="M527.457,81.138c-1.653,0-2.957-0.503-3.912-1.51c-0.956-1.007-1.434-2.404-1.434-4.192
			c0-1.802,0.444-3.233,1.331-4.295c0.888-1.061,2.079-1.591,3.575-1.591c1.401,0,2.51,0.461,3.326,1.382
			c0.815,0.922,1.224,2.138,1.224,3.647v1.07h-7.701c0.034,1.313,0.365,2.31,0.994,2.989s1.515,1.02,2.657,1.02
			c1.204,0,2.394-0.251,3.57-0.755v1.51c-0.599,0.259-1.164,0.444-1.698,0.557C528.855,81.081,528.212,81.138,527.457,81.138z
			 M526.998,70.968c-0.898,0-1.614,0.292-2.147,0.877c-0.534,0.585-0.849,1.395-0.943,2.428h5.845c0-1.067-0.238-1.885-0.714-2.453
			C528.562,71.252,527.882,70.968,526.998,70.968z"/>
		<path fill="#FFFFFF" d="M544.349,81.138c-1.618,0-2.871-0.498-3.759-1.494c-0.887-0.996-1.331-2.406-1.331-4.229
			c0-1.87,0.45-3.315,1.352-4.335c0.901-1.021,2.185-1.53,3.851-1.53c0.537,0,1.075,0.058,1.612,0.174
			c0.537,0.115,0.959,0.251,1.265,0.407l-0.521,1.438c-0.374-0.149-0.782-0.273-1.224-0.372c-0.442-0.099-0.833-0.148-1.173-0.148
			c-2.271,0-3.407,1.449-3.407,4.346c0,1.374,0.276,2.428,0.831,3.162s1.375,1.102,2.464,1.102c0.932,0,1.887-0.2,2.866-0.602v1.5
			C546.427,80.943,545.484,81.138,544.349,81.138z"/>
		<path fill="#FFFFFF" d="M556.702,80.934l-0.337-1.591h-0.082c-0.558,0.7-1.113,1.175-1.668,1.423
			c-0.554,0.248-1.246,0.372-2.075,0.372c-1.108,0-1.978-0.286-2.606-0.857c-0.629-0.57-0.943-1.383-0.943-2.438
			c0-2.258,1.806-3.44,5.416-3.55l1.897-0.062v-0.693c0-0.877-0.188-1.524-0.566-1.943c-0.377-0.418-0.98-0.627-1.811-0.627
			c-0.932,0-1.985,0.285-3.162,0.856l-0.52-1.295c0.551-0.3,1.154-0.534,1.811-0.704s1.313-0.255,1.974-0.255
			c1.333,0,2.32,0.296,2.963,0.888c0.643,0.591,0.964,1.54,0.964,2.846v7.63H556.702z M552.877,79.74
			c1.054,0,1.882-0.289,2.483-0.867s0.902-1.388,0.902-2.428v-1.01l-1.693,0.071c-1.346,0.048-2.316,0.257-2.912,0.627
			c-0.595,0.371-0.893,0.947-0.893,1.729c0,0.612,0.186,1.078,0.557,1.397C551.691,79.58,552.21,79.74,552.877,79.74z"/>
		<path fill="#FFFFFF" d="M566.545,69.55c0.496,0,0.941,0.041,1.336,0.122l-0.234,1.571c-0.462-0.103-0.87-0.153-1.224-0.153
			c-0.904,0-1.679,0.367-2.321,1.102s-0.964,1.649-0.964,2.744v5.998h-1.693v-11.18h1.397l0.194,2.07h0.081
			c0.415-0.728,0.915-1.288,1.5-1.683S565.845,69.55,566.545,69.55z"/>
		<path fill="#FFFFFF" d="M579.122,69.754v1.071l-2.071,0.244c0.19,0.238,0.36,0.55,0.511,0.934
			c0.149,0.385,0.225,0.818,0.225,1.301c0,1.095-0.375,1.969-1.122,2.621c-0.749,0.653-1.775,0.979-3.081,0.979
			c-0.333,0-0.646-0.027-0.938-0.081c-0.721,0.381-1.081,0.86-1.081,1.438c0,0.307,0.126,0.532,0.377,0.679
			c0.252,0.146,0.684,0.22,1.296,0.22h1.979c1.211,0,2.141,0.255,2.79,0.765s0.975,1.251,0.975,2.224
			c0,1.237-0.497,2.182-1.489,2.831c-0.993,0.648-2.441,0.974-4.346,0.974c-1.462,0-2.59-0.271-3.382-0.816
			c-0.792-0.544-1.188-1.313-1.188-2.305c0-0.681,0.218-1.269,0.653-1.765c0.435-0.496,1.047-0.833,1.836-1.01
			c-0.285-0.129-0.525-0.33-0.719-0.603c-0.194-0.271-0.291-0.588-0.291-0.948c0-0.408,0.108-0.765,0.326-1.071
			c0.218-0.306,0.562-0.602,1.03-0.888c-0.578-0.237-1.049-0.643-1.413-1.213c-0.363-0.571-0.545-1.225-0.545-1.959
			c0-1.224,0.367-2.168,1.102-2.831s1.774-0.994,3.121-0.994c0.585,0,1.112,0.068,1.581,0.204H579.122z M570.207,82.811
			c0,0.605,0.255,1.064,0.765,1.377s1.241,0.47,2.193,0.47c1.421,0,2.474-0.213,3.157-0.638c0.683-0.426,1.024-1.002,1.024-1.729
			c0-0.605-0.187-1.025-0.561-1.26s-1.078-0.352-2.111-0.352h-2.03c-0.769,0-1.367,0.184-1.795,0.551
			C570.421,81.597,570.207,82.124,570.207,82.811z M571.125,73.334c0,0.782,0.221,1.374,0.663,1.775
			c0.441,0.401,1.057,0.602,1.846,0.602c1.652,0,2.479-0.803,2.479-2.407c0-1.68-0.836-2.52-2.509-2.52
			c-0.796,0-1.408,0.214-1.836,0.643C571.339,71.855,571.125,72.491,571.125,73.334z"/>
		<path fill="#FFFFFF" d="M588.293,80.934l-0.337-1.591h-0.082c-0.558,0.7-1.113,1.175-1.668,1.423
			c-0.554,0.248-1.246,0.372-2.075,0.372c-1.108,0-1.978-0.286-2.606-0.857c-0.629-0.57-0.943-1.383-0.943-2.438
			c0-2.258,1.806-3.44,5.416-3.55l1.897-0.062v-0.693c0-0.877-0.188-1.524-0.566-1.943c-0.377-0.418-0.98-0.627-1.811-0.627
			c-0.932,0-1.985,0.285-3.162,0.856l-0.52-1.295c0.551-0.3,1.154-0.534,1.811-0.704s1.313-0.255,1.974-0.255
			c1.333,0,2.32,0.296,2.963,0.888c0.643,0.591,0.964,1.54,0.964,2.846v7.63H588.293z M584.468,79.74
			c1.054,0,1.882-0.289,2.483-0.867s0.902-1.388,0.902-2.428v-1.01l-1.693,0.071c-1.346,0.048-2.316,0.257-2.912,0.627
			c-0.595,0.371-0.893,0.947-0.893,1.729c0,0.612,0.186,1.078,0.557,1.397C583.282,79.58,583.801,79.74,584.468,79.74z"/>
		<path fill="#FFFFFF" d="M603.186,81.138c-1.653,0-2.957-0.503-3.912-1.51c-0.956-1.007-1.434-2.404-1.434-4.192
			c0-1.802,0.444-3.233,1.331-4.295c0.888-1.061,2.079-1.591,3.575-1.591c1.401,0,2.51,0.461,3.326,1.382
			c0.815,0.922,1.224,2.138,1.224,3.647v1.07h-7.701c0.034,1.313,0.365,2.31,0.994,2.989s1.515,1.02,2.657,1.02
			c1.204,0,2.394-0.251,3.57-0.755v1.51c-0.599,0.259-1.164,0.444-1.698,0.557C604.584,81.081,603.94,81.138,603.186,81.138z
			 M602.727,70.968c-0.898,0-1.614,0.292-2.147,0.877c-0.534,0.585-0.849,1.395-0.943,2.428h5.845c0-1.067-0.238-1.885-0.714-2.453
			C604.29,71.252,603.61,70.968,602.727,70.968z"/>
		<path fill="#FFFFFF" d="M617.833,80.934v-7.232c0-0.911-0.207-1.591-0.622-2.04c-0.415-0.448-1.064-0.673-1.948-0.673
			c-1.17,0-2.026,0.316-2.57,0.948c-0.544,0.633-0.816,1.677-0.816,3.132v5.865h-1.693v-11.18h1.378l0.275,1.53h0.081
			c0.347-0.551,0.833-0.978,1.459-1.28c0.625-0.303,1.322-0.454,2.091-0.454c1.347,0,2.359,0.325,3.04,0.975
			c0.68,0.649,1.02,1.688,1.02,3.116v7.293H617.833z"/>
		<path fill="#FFFFFF" d="M630.125,80.934h-1.693V65.062h1.693V80.934z"/>
		<path fill="#FFFFFF" d="M640.591,80.934l-0.337-1.591h-0.082c-0.558,0.7-1.113,1.175-1.668,1.423
			c-0.554,0.248-1.246,0.372-2.075,0.372c-1.108,0-1.978-0.286-2.606-0.857c-0.629-0.57-0.943-1.383-0.943-2.438
			c0-2.258,1.806-3.44,5.416-3.55l1.897-0.062v-0.693c0-0.877-0.188-1.524-0.566-1.943c-0.377-0.418-0.98-0.627-1.811-0.627
			c-0.932,0-1.985,0.285-3.162,0.856l-0.52-1.295c0.551-0.3,1.154-0.534,1.811-0.704s1.313-0.255,1.974-0.255
			c1.333,0,2.32,0.296,2.963,0.888c0.643,0.591,0.964,1.54,0.964,2.846v7.63H640.591z M636.766,79.74
			c1.054,0,1.882-0.289,2.483-0.867s0.902-1.388,0.902-2.428v-1.01l-1.693,0.071c-1.346,0.048-2.316,0.257-2.912,0.627
			c-0.595,0.371-0.893,0.947-0.893,1.729c0,0.612,0.186,1.078,0.557,1.397C635.58,79.58,636.099,79.74,636.766,79.74z"/>
		<path fill="#FFFFFF" d="M655.963,81.138c-0.729,0-1.393-0.135-1.995-0.403c-0.602-0.269-1.106-0.682-1.515-1.239h-0.122
			c0.082,0.653,0.122,1.271,0.122,1.856v4.601h-1.693V69.754h1.378l0.234,1.53h0.081c0.436-0.612,0.942-1.055,1.521-1.326
			c0.577-0.272,1.24-0.408,1.989-0.408c1.482,0,2.626,0.507,3.432,1.52c0.807,1.014,1.209,2.435,1.209,4.265
			c0,1.836-0.409,3.262-1.229,4.278C658.555,80.629,657.418,81.138,655.963,81.138z M655.718,70.988
			c-1.143,0-1.969,0.316-2.479,0.948c-0.511,0.633-0.772,1.639-0.786,3.02v0.378c0,1.57,0.262,2.694,0.786,3.371
			c0.523,0.677,1.363,1.015,2.52,1.015c0.965,0,1.722-0.391,2.27-1.173c0.547-0.782,0.821-1.86,0.821-3.233
			c0-1.395-0.274-2.464-0.821-3.208C657.48,71.36,656.71,70.988,655.718,70.988z"/>
		<path fill="#FFFFFF" d="M670.438,80.934l-0.337-1.591h-0.082c-0.558,0.7-1.113,1.175-1.668,1.423
			c-0.554,0.248-1.246,0.372-2.075,0.372c-1.108,0-1.978-0.286-2.606-0.857c-0.629-0.57-0.943-1.383-0.943-2.438
			c0-2.258,1.806-3.44,5.416-3.55l1.897-0.062v-0.693c0-0.877-0.188-1.524-0.566-1.943c-0.377-0.418-0.98-0.627-1.811-0.627
			c-0.932,0-1.985,0.285-3.162,0.856l-0.52-1.295c0.551-0.3,1.154-0.534,1.811-0.704s1.313-0.255,1.974-0.255
			c1.333,0,2.32,0.296,2.963,0.888c0.643,0.591,0.964,1.54,0.964,2.846v7.63H670.438z M666.612,79.74
			c1.054,0,1.882-0.289,2.483-0.867s0.902-1.388,0.902-2.428v-1.01l-1.693,0.071c-1.346,0.048-2.316,0.257-2.912,0.627
			c-0.595,0.371-0.893,0.947-0.893,1.729c0,0.612,0.186,1.078,0.557,1.397C665.427,79.58,665.945,79.74,666.612,79.74z"/>
		<path fill="#FFFFFF" d="M682.831,80.934v-7.232c0-0.911-0.207-1.591-0.622-2.04c-0.415-0.448-1.064-0.673-1.948-0.673
			c-1.17,0-2.026,0.316-2.57,0.948c-0.544,0.633-0.816,1.677-0.816,3.132v5.865h-1.693v-11.18h1.378l0.275,1.53h0.081
			c0.347-0.551,0.833-0.978,1.459-1.28c0.625-0.303,1.322-0.454,2.091-0.454c1.347,0,2.359,0.325,3.04,0.975
			c0.68,0.649,1.02,1.688,1.02,3.116v7.293H682.831z"/>
		<path fill="#FFFFFF" d="M691.613,79.74c0.299,0,0.588-0.022,0.867-0.066c0.278-0.044,0.5-0.09,0.663-0.138v1.296
			c-0.184,0.088-0.454,0.161-0.812,0.219c-0.356,0.058-0.678,0.087-0.964,0.087c-2.162,0-3.243-1.139-3.243-3.417v-6.651h-1.602
			v-0.815l1.602-0.704l0.714-2.387h0.979v2.591h3.243v1.315h-3.243v6.58c0,0.673,0.159,1.189,0.479,1.55
			C690.617,79.56,691.056,79.74,691.613,79.74z"/>
		<path fill="#FFFFFF" d="M702.253,80.934l-0.337-1.591h-0.082c-0.558,0.7-1.113,1.175-1.668,1.423
			c-0.554,0.248-1.246,0.372-2.075,0.372c-1.108,0-1.978-0.286-2.606-0.857c-0.629-0.57-0.943-1.383-0.943-2.438
			c0-2.258,1.806-3.44,5.416-3.55l1.897-0.062v-0.693c0-0.877-0.188-1.524-0.566-1.943c-0.377-0.418-0.98-0.627-1.811-0.627
			c-0.932,0-1.985,0.285-3.162,0.856l-0.52-1.295c0.551-0.3,1.154-0.534,1.811-0.704s1.313-0.255,1.974-0.255
			c1.333,0,2.32,0.296,2.963,0.888c0.643,0.591,0.964,1.54,0.964,2.846v7.63H702.253z M698.428,79.74
			c1.054,0,1.882-0.289,2.483-0.867s0.902-1.388,0.902-2.428v-1.01l-1.693,0.071c-1.346,0.048-2.316,0.257-2.912,0.627
			c-0.595,0.371-0.893,0.947-0.893,1.729c0,0.612,0.186,1.078,0.557,1.397C697.242,79.58,697.761,79.74,698.428,79.74z"/>
		<path fill="#FFFFFF" d="M708.689,80.934h-1.693V65.062h1.693V80.934z"/>
		<path fill="#FFFFFF" d="M713.973,80.934h-1.693V65.062h1.693V80.934z"/>
		<path fill="#FFFFFF" d="M724.439,80.934l-0.337-1.591h-0.082c-0.558,0.7-1.113,1.175-1.668,1.423
			c-0.554,0.248-1.246,0.372-2.075,0.372c-1.108,0-1.978-0.286-2.606-0.857c-0.629-0.57-0.943-1.383-0.943-2.438
			c0-2.258,1.806-3.44,5.416-3.55l1.897-0.062v-0.693c0-0.877-0.188-1.524-0.566-1.943c-0.377-0.418-0.98-0.627-1.811-0.627
			c-0.932,0-1.985,0.285-3.162,0.856l-0.52-1.295c0.551-0.3,1.154-0.534,1.811-0.704s1.313-0.255,1.974-0.255
			c1.333,0,2.32,0.296,2.963,0.888c0.643,0.591,0.964,1.54,0.964,2.846v7.63H724.439z M720.614,79.74
			c1.054,0,1.882-0.289,2.483-0.867S724,77.485,724,76.445v-1.01l-1.693,0.071c-1.346,0.048-2.316,0.257-2.912,0.627
			c-0.595,0.371-0.893,0.947-0.893,1.729c0,0.612,0.186,1.078,0.557,1.397C719.429,79.58,719.947,79.74,720.614,79.74z"/>
		<path fill="#FFFFFF" d="M739.812,81.138c-0.729,0-1.393-0.135-1.995-0.403c-0.602-0.269-1.106-0.682-1.515-1.239h-0.122
			c0.082,0.653,0.122,1.271,0.122,1.856v4.601h-1.693V69.754h1.378l0.234,1.53h0.081c0.436-0.612,0.942-1.055,1.521-1.326
			c0.577-0.272,1.24-0.408,1.989-0.408c1.482,0,2.626,0.507,3.432,1.52c0.807,1.014,1.209,2.435,1.209,4.265
			c0,1.836-0.409,3.262-1.229,4.278C742.403,80.629,741.267,81.138,739.812,81.138z M739.566,70.988
			c-1.143,0-1.969,0.316-2.479,0.948c-0.511,0.633-0.772,1.639-0.786,3.02v0.378c0,1.57,0.262,2.694,0.786,3.371
			c0.523,0.677,1.363,1.015,2.52,1.015c0.965,0,1.722-0.391,2.27-1.173c0.547-0.782,0.821-1.86,0.821-3.233
			c0-1.395-0.274-2.464-0.821-3.208C741.329,71.36,740.559,70.988,739.566,70.988z"/>
		<path fill="#FFFFFF" d="M752.511,69.55c0.496,0,0.941,0.041,1.336,0.122l-0.234,1.571c-0.462-0.103-0.87-0.153-1.224-0.153
			c-0.904,0-1.679,0.367-2.321,1.102s-0.964,1.649-0.964,2.744v5.998h-1.693v-11.18h1.397l0.194,2.07h0.081
			c0.415-0.728,0.915-1.288,1.5-1.683S751.811,69.55,752.511,69.55z"/>
		<path fill="#FFFFFF" d="M755.795,66.725c0-0.388,0.096-0.672,0.286-0.853c0.189-0.18,0.428-0.27,0.714-0.27
			c0.271,0,0.506,0.092,0.704,0.275c0.196,0.184,0.295,0.466,0.295,0.847s-0.099,0.664-0.295,0.852
			c-0.198,0.187-0.433,0.28-0.704,0.28c-0.286,0-0.524-0.094-0.714-0.28C755.891,67.389,755.795,67.105,755.795,66.725z
			 M757.631,80.934h-1.693v-11.18h1.693V80.934z"/>
		<path fill="#FFFFFF" d="M768.872,80.934v-7.232c0-0.911-0.207-1.591-0.622-2.04c-0.415-0.448-1.064-0.673-1.948-0.673
			c-1.17,0-2.026,0.316-2.57,0.948c-0.544,0.633-0.816,1.677-0.816,3.132v5.865h-1.693v-11.18h1.378l0.275,1.53h0.081
			c0.347-0.551,0.833-0.978,1.459-1.28c0.625-0.303,1.322-0.454,2.091-0.454c1.347,0,2.359,0.325,3.04,0.975
			c0.68,0.649,1.02,1.688,1.02,3.116v7.293H768.872z"/>
		<path fill="#FFFFFF" d="M778.512,81.138c-1.618,0-2.871-0.498-3.759-1.494c-0.887-0.996-1.331-2.406-1.331-4.229
			c0-1.87,0.45-3.315,1.352-4.335c0.901-1.021,2.185-1.53,3.851-1.53c0.537,0,1.075,0.058,1.612,0.174
			c0.537,0.115,0.959,0.251,1.265,0.407l-0.521,1.438c-0.374-0.149-0.782-0.273-1.224-0.372c-0.442-0.099-0.833-0.148-1.173-0.148
			c-2.271,0-3.407,1.449-3.407,4.346c0,1.374,0.276,2.428,0.831,3.162s1.375,1.102,2.464,1.102c0.932,0,1.887-0.2,2.866-0.602v1.5
			C780.59,80.943,779.647,81.138,778.512,81.138z"/>
		<path fill="#FFFFFF" d="M783.847,66.725c0-0.388,0.096-0.672,0.286-0.853c0.189-0.18,0.428-0.27,0.714-0.27
			c0.271,0,0.506,0.092,0.704,0.275c0.196,0.184,0.295,0.466,0.295,0.847s-0.099,0.664-0.295,0.852
			c-0.198,0.187-0.433,0.28-0.704,0.28c-0.286,0-0.524-0.094-0.714-0.28C783.942,67.389,783.847,67.105,783.847,66.725z
			 M785.683,80.934h-1.693v-11.18h1.693V80.934z"/>
		<path fill="#FFFFFF" d="M794.477,81.138c-0.729,0-1.393-0.135-1.995-0.403c-0.602-0.269-1.106-0.682-1.515-1.239h-0.122
			c0.082,0.653,0.122,1.271,0.122,1.856v4.601h-1.693V69.754h1.378l0.234,1.53h0.081c0.436-0.612,0.942-1.055,1.521-1.326
			c0.577-0.272,1.24-0.408,1.989-0.408c1.482,0,2.626,0.507,3.432,1.52c0.807,1.014,1.209,2.435,1.209,4.265
			c0,1.836-0.409,3.262-1.229,4.278C797.068,80.629,795.932,81.138,794.477,81.138z M794.231,70.988
			c-1.143,0-1.969,0.316-2.479,0.948c-0.511,0.633-0.772,1.639-0.786,3.02v0.378c0,1.57,0.262,2.694,0.786,3.371
			c0.523,0.677,1.363,1.015,2.52,1.015c0.965,0,1.722-0.391,2.27-1.173c0.547-0.782,0.821-1.86,0.821-3.233
			c0-1.395-0.274-2.464-0.821-3.208C795.994,71.36,795.224,70.988,794.231,70.988z"/>
		<path fill="#FFFFFF" d="M808.951,80.934l-0.337-1.591h-0.082c-0.558,0.7-1.113,1.175-1.668,1.423
			c-0.554,0.248-1.246,0.372-2.075,0.372c-1.108,0-1.978-0.286-2.606-0.857c-0.629-0.57-0.943-1.383-0.943-2.438
			c0-2.258,1.806-3.44,5.416-3.55l1.897-0.062v-0.693c0-0.877-0.188-1.524-0.566-1.943c-0.377-0.418-0.98-0.627-1.811-0.627
			c-0.932,0-1.985,0.285-3.162,0.856l-0.52-1.295c0.551-0.3,1.154-0.534,1.811-0.704s1.313-0.255,1.974-0.255
			c1.333,0,2.32,0.296,2.963,0.888c0.643,0.591,0.964,1.54,0.964,2.846v7.63H808.951z M805.126,79.74
			c1.054,0,1.882-0.289,2.483-0.867s0.902-1.388,0.902-2.428v-1.01l-1.693,0.071c-1.346,0.048-2.316,0.257-2.912,0.627
			c-0.595,0.371-0.893,0.947-0.893,1.729c0,0.612,0.186,1.078,0.557,1.397C803.94,79.58,804.459,79.74,805.126,79.74z"/>
		<path fill="#FFFFFF" d="M815.387,80.934h-1.693V65.062h1.693V80.934z"/>
		<path fill="#FFFFFF" d="M549.113,106.002v-7.273c0-0.891-0.19-1.559-0.571-2.004s-0.973-0.668-1.775-0.668
			c-1.054,0-1.833,0.303-2.336,0.907c-0.503,0.605-0.755,1.537-0.755,2.795v6.243h-1.693v-7.273c0-0.891-0.19-1.559-0.571-2.004
			s-0.976-0.668-1.785-0.668c-1.061,0-1.838,0.317-2.33,0.953c-0.493,0.637-0.74,1.679-0.74,3.127v5.865h-1.693v-11.18h1.378
			l0.275,1.53h0.081c0.319-0.544,0.771-0.97,1.352-1.275s1.232-0.459,1.953-0.459c1.748,0,2.891,0.633,3.428,1.897h0.082
			c0.333-0.585,0.815-1.047,1.448-1.388c0.632-0.34,1.353-0.51,2.162-0.51c1.265,0,2.212,0.325,2.841,0.975s0.943,1.688,0.943,3.116
			v7.293H549.113z"/>
		<path fill="#FFFFFF" d="M555.886,94.822v7.253c0,0.911,0.207,1.591,0.622,2.04c0.415,0.448,1.064,0.673,1.948,0.673
			c1.17,0,2.024-0.319,2.565-0.959c0.541-0.639,0.811-1.683,0.811-3.132v-5.875h1.693v11.18h-1.397l-0.244-1.499h-0.092
			c-0.347,0.551-0.828,0.972-1.443,1.265c-0.616,0.292-1.318,0.438-2.106,0.438c-1.36,0-2.379-0.323-3.056-0.969
			c-0.677-0.646-1.015-1.68-1.015-3.102v-7.313H555.886z"/>
		<path fill="#FFFFFF" d="M571.84,106.206c-1.653,0-2.957-0.503-3.912-1.51c-0.956-1.007-1.434-2.404-1.434-4.192
			c0-1.802,0.444-3.233,1.331-4.295c0.888-1.061,2.079-1.591,3.575-1.591c1.401,0,2.51,0.461,3.326,1.382
			c0.815,0.922,1.224,2.138,1.224,3.647v1.07h-7.701c0.034,1.313,0.365,2.31,0.994,2.989s1.515,1.02,2.657,1.02
			c1.204,0,2.394-0.251,3.57-0.755v1.51c-0.599,0.259-1.164,0.444-1.698,0.557C573.238,106.149,572.595,106.206,571.84,106.206z
			 M571.381,96.036c-0.898,0-1.614,0.292-2.147,0.877c-0.534,0.585-0.849,1.395-0.943,2.428h5.845c0-1.067-0.238-1.885-0.714-2.453
			C572.944,96.32,572.265,96.036,571.381,96.036z"/>
		<path fill="#FFFFFF" d="M586.049,102.952c0,1.04-0.388,1.843-1.163,2.407c-0.774,0.564-1.863,0.847-3.264,0.847
			c-1.482,0-2.639-0.234-3.468-0.704v-1.57c0.537,0.271,1.113,0.486,1.729,0.643s1.209,0.234,1.78,0.234
			c0.884,0,1.563-0.142,2.04-0.424c0.476-0.281,0.714-0.712,0.714-1.29c0-0.435-0.188-0.808-0.566-1.117
			c-0.377-0.309-1.113-0.675-2.208-1.097c-1.041-0.387-1.78-0.726-2.219-1.015s-0.765-0.617-0.979-0.984
			c-0.214-0.367-0.321-0.806-0.321-1.315c0-0.911,0.371-1.631,1.112-2.158c0.741-0.526,1.758-0.79,3.05-0.79
			c1.203,0,2.38,0.245,3.529,0.734l-0.602,1.377c-1.122-0.462-2.139-0.693-3.05-0.693c-0.803,0-1.408,0.126-1.816,0.377
			c-0.408,0.252-0.611,0.599-0.611,1.041c0,0.299,0.076,0.554,0.229,0.765c0.152,0.211,0.399,0.412,0.739,0.602
			c0.34,0.191,0.993,0.467,1.958,0.827c1.326,0.482,2.223,0.969,2.688,1.458C585.816,101.596,586.049,102.211,586.049,102.952z"/>
		<path fill="#FFFFFF" d="M592.414,104.809c0.299,0,0.588-0.022,0.867-0.066c0.278-0.044,0.5-0.09,0.663-0.138v1.296
			c-0.184,0.088-0.454,0.161-0.812,0.219c-0.356,0.058-0.678,0.087-0.964,0.087c-2.162,0-3.243-1.139-3.243-3.417v-6.651h-1.602
			v-0.815l1.602-0.704l0.714-2.387h0.979v2.591h3.243v1.315h-3.243v6.58c0,0.673,0.159,1.189,0.479,1.55
			C591.418,104.628,591.856,104.809,592.414,104.809z"/>
		<path fill="#FFFFFF" d="M601.278,94.618c0.496,0,0.941,0.041,1.336,0.122l-0.234,1.571c-0.462-0.103-0.87-0.153-1.224-0.153
			c-0.904,0-1.679,0.367-2.321,1.102s-0.964,1.649-0.964,2.744v5.998h-1.693v-11.18h1.397l0.194,2.07h0.081
			c0.415-0.728,0.915-1.288,1.5-1.683S600.578,94.618,601.278,94.618z"/>
		<path fill="#FFFFFF" d="M609.429,106.206c-1.653,0-2.957-0.503-3.912-1.51c-0.956-1.007-1.434-2.404-1.434-4.192
			c0-1.802,0.444-3.233,1.331-4.295c0.888-1.061,2.079-1.591,3.575-1.591c1.401,0,2.51,0.461,3.326,1.382
			c0.815,0.922,1.224,2.138,1.224,3.647v1.07h-7.701c0.034,1.313,0.365,2.31,0.994,2.989s1.515,1.02,2.657,1.02
			c1.204,0,2.394-0.251,3.57-0.755v1.51c-0.599,0.259-1.164,0.444-1.698,0.557C610.827,106.149,610.184,106.206,609.429,106.206z
			 M608.97,96.036c-0.898,0-1.614,0.292-2.147,0.877c-0.534,0.585-0.849,1.395-0.943,2.428h5.845c0-1.067-0.238-1.885-0.714-2.453
			C610.533,96.32,609.854,96.036,608.97,96.036z"/>
		<path fill="#FFFFFF" d="M623.546,106.002h-1.693V90.13h1.693V106.002z"/>
		<path fill="#FFFFFF" d="M634.013,106.002l-0.337-1.591h-0.082c-0.558,0.7-1.113,1.175-1.668,1.423
			c-0.554,0.248-1.246,0.372-2.075,0.372c-1.108,0-1.978-0.286-2.606-0.857c-0.629-0.57-0.943-1.383-0.943-2.438
			c0-2.258,1.806-3.44,5.416-3.55l1.897-0.062v-0.693c0-0.877-0.188-1.524-0.566-1.943c-0.377-0.418-0.98-0.627-1.811-0.627
			c-0.932,0-1.985,0.285-3.162,0.856l-0.52-1.295c0.551-0.3,1.154-0.534,1.811-0.704s1.313-0.255,1.974-0.255
			c1.333,0,2.32,0.296,2.963,0.888c0.643,0.591,0.964,1.54,0.964,2.846v7.63H634.013z M630.188,104.809
			c1.054,0,1.882-0.289,2.483-0.867s0.902-1.388,0.902-2.428v-1.01l-1.693,0.071c-1.346,0.048-2.316,0.257-2.912,0.627
			c-0.595,0.371-0.893,0.947-0.893,1.729c0,0.612,0.186,1.078,0.557,1.397C629.002,104.648,629.521,104.809,630.188,104.809z"/>
		<path fill="#FFFFFF" d="M649.385,94.639c1.469,0,2.609,0.501,3.422,1.505c0.813,1.003,1.219,2.422,1.219,4.259
			c0,1.836-0.409,3.262-1.229,4.278c-0.819,1.017-1.956,1.525-3.411,1.525c-0.729,0-1.393-0.135-1.995-0.403
			c-0.602-0.269-1.106-0.682-1.515-1.239h-0.122l-0.357,1.438h-1.214V90.13h1.693v3.855c0,0.864-0.027,1.64-0.081,2.326h0.081
			C646.664,95.196,647.834,94.639,649.385,94.639z M649.14,96.057c-1.156,0-1.989,0.331-2.499,0.994
			c-0.511,0.663-0.766,1.78-0.766,3.352c0,1.57,0.262,2.694,0.786,3.371c0.523,0.677,1.363,1.015,2.52,1.015
			c1.04,0,1.815-0.379,2.325-1.138c0.51-0.758,0.766-1.848,0.766-3.269c0-1.455-0.256-2.54-0.766-3.254
			C650.996,96.413,650.207,96.057,649.14,96.057z"/>
		<path fill="#FFFFFF" d="M663.859,106.002l-0.337-1.591h-0.082c-0.558,0.7-1.113,1.175-1.668,1.423
			c-0.554,0.248-1.246,0.372-2.075,0.372c-1.108,0-1.978-0.286-2.606-0.857c-0.629-0.57-0.943-1.383-0.943-2.438
			c0-2.258,1.806-3.44,5.416-3.55l1.897-0.062v-0.693c0-0.877-0.188-1.524-0.566-1.943c-0.377-0.418-0.98-0.627-1.811-0.627
			c-0.932,0-1.985,0.285-3.162,0.856l-0.52-1.295c0.551-0.3,1.154-0.534,1.811-0.704s1.313-0.255,1.974-0.255
			c1.333,0,2.32,0.296,2.963,0.888c0.643,0.591,0.964,1.54,0.964,2.846v7.63H663.859z M660.034,104.809
			c1.054,0,1.882-0.289,2.483-0.867s0.902-1.388,0.902-2.428v-1.01l-1.693,0.071c-1.346,0.048-2.316,0.257-2.912,0.627
			c-0.595,0.371-0.893,0.947-0.893,1.729c0,0.612,0.186,1.078,0.557,1.397C658.849,104.648,659.367,104.809,660.034,104.809z"/>
		<path fill="#FFFFFF" d="M672.213,104.809c0.299,0,0.588-0.022,0.867-0.066c0.278-0.044,0.5-0.09,0.663-0.138v1.296
			c-0.184,0.088-0.454,0.161-0.812,0.219c-0.356,0.058-0.678,0.087-0.964,0.087c-2.162,0-3.243-1.139-3.243-3.417v-6.651h-1.602
			v-0.815l1.602-0.704l0.714-2.387h0.979v2.591h3.243v1.315h-3.243v6.58c0,0.673,0.159,1.189,0.479,1.55
			C671.217,104.628,671.655,104.809,672.213,104.809z"/>
		<path fill="#FFFFFF" d="M680.7,106.206c-1.653,0-2.957-0.503-3.912-1.51c-0.956-1.007-1.434-2.404-1.434-4.192
			c0-1.802,0.444-3.233,1.331-4.295c0.888-1.061,2.079-1.591,3.575-1.591c1.401,0,2.51,0.461,3.326,1.382
			c0.815,0.922,1.224,2.138,1.224,3.647v1.07h-7.701c0.034,1.313,0.365,2.31,0.994,2.989s1.515,1.02,2.657,1.02
			c1.204,0,2.394-0.251,3.57-0.755v1.51c-0.599,0.259-1.164,0.444-1.698,0.557C682.099,106.149,681.455,106.206,680.7,106.206z
			 M680.241,96.036c-0.898,0-1.614,0.292-2.147,0.877c-0.534,0.585-0.849,1.395-0.943,2.428h5.845c0-1.067-0.238-1.885-0.714-2.453
			C681.805,96.32,681.125,96.036,680.241,96.036z"/>
		<path fill="#FFFFFF" d="M692.798,94.618c0.496,0,0.941,0.041,1.336,0.122l-0.234,1.571c-0.462-0.103-0.87-0.153-1.224-0.153
			c-0.904,0-1.679,0.367-2.321,1.102s-0.964,1.649-0.964,2.744v5.998h-1.693v-11.18h1.397l0.194,2.07h0.081
			c0.415-0.728,0.915-1.288,1.5-1.683S692.098,94.618,692.798,94.618z"/>
		<path fill="#FFFFFF" d="M696.153,93.088c0.327-0.422,0.679-0.932,1.056-1.53c0.378-0.598,0.675-1.118,0.893-1.561h2.061v0.215
			c-0.299,0.441-0.744,0.985-1.336,1.632c-0.592,0.646-1.105,1.146-1.54,1.499h-1.133V93.088z M697.918,106.002h-1.693v-11.18h1.693
			V106.002z"/>
		<path fill="#FFFFFF" d="M708.385,106.002l-0.337-1.591h-0.082c-0.558,0.7-1.113,1.175-1.668,1.423
			c-0.554,0.248-1.246,0.372-2.075,0.372c-1.108,0-1.978-0.286-2.606-0.857c-0.629-0.57-0.943-1.383-0.943-2.438
			c0-2.258,1.806-3.44,5.416-3.55l1.897-0.062v-0.693c0-0.877-0.188-1.524-0.566-1.943c-0.377-0.418-0.98-0.627-1.811-0.627
			c-0.932,0-1.985,0.285-3.162,0.856l-0.52-1.295c0.551-0.3,1.154-0.534,1.811-0.704s1.313-0.255,1.974-0.255
			c1.333,0,2.32,0.296,2.963,0.888c0.643,0.591,0.964,1.54,0.964,2.846v7.63H708.385z M704.56,104.809
			c1.054,0,1.882-0.289,2.483-0.867s0.902-1.388,0.902-2.428v-1.01l-1.693,0.071c-1.346,0.048-2.316,0.257-2.912,0.627
			c-0.595,0.371-0.893,0.947-0.893,1.729c0,0.612,0.186,1.078,0.557,1.397C703.374,104.648,703.893,104.809,704.56,104.809z"/>
		<path fill="#FFFFFF" d="M725.43,106.002l-0.337-1.591h-0.082c-0.558,0.7-1.113,1.175-1.668,1.423
			c-0.554,0.248-1.246,0.372-2.075,0.372c-1.108,0-1.978-0.286-2.606-0.857c-0.629-0.57-0.943-1.383-0.943-2.438
			c0-2.258,1.806-3.44,5.416-3.55l1.897-0.062v-0.693c0-0.877-0.188-1.524-0.566-1.943c-0.377-0.418-0.98-0.627-1.811-0.627
			c-0.932,0-1.985,0.285-3.162,0.856l-0.52-1.295c0.551-0.3,1.154-0.534,1.811-0.704s1.313-0.255,1.974-0.255
			c1.333,0,2.32,0.296,2.963,0.888c0.643,0.591,0.964,1.54,0.964,2.846v7.63H725.43z M721.604,104.809
			c1.054,0,1.882-0.289,2.483-0.867s0.902-1.388,0.902-2.428v-1.01l-1.693,0.071c-1.346,0.048-2.316,0.257-2.912,0.627
			c-0.595,0.371-0.893,0.947-0.893,1.729c0,0.612,0.186,1.078,0.557,1.397C720.419,104.648,720.938,104.809,721.604,104.809z"/>
		<path fill="#FFFFFF" d="M731.865,106.002h-1.693V90.13h1.693V106.002z"/>
		<path fill="#FFFFFF" d="M746.381,106.002h-1.652V95.373c0-0.884,0.027-1.721,0.082-2.51c-0.143,0.144-0.303,0.293-0.479,0.449
			s-0.986,0.819-2.428,1.989l-0.897-1.163l3.947-3.05h1.428V106.002z"/>
		<path fill="#FFFFFF" d="M761.937,98.525c0,2.577-0.406,4.502-1.219,5.773s-2.056,1.907-3.729,1.907
			c-1.604,0-2.825-0.651-3.662-1.953c-0.836-1.303-1.255-3.212-1.255-5.728c0-2.598,0.405-4.526,1.214-5.784
			c0.81-1.258,2.044-1.887,3.703-1.887c1.618,0,2.848,0.656,3.688,1.969S761.937,96.036,761.937,98.525z M753.786,98.525
			c0,2.169,0.255,3.748,0.766,4.737c0.51,0.99,1.322,1.484,2.438,1.484c1.129,0,1.946-0.501,2.453-1.504
			c0.507-1.004,0.76-2.576,0.76-4.718c0-2.143-0.253-3.712-0.76-4.708s-1.324-1.494-2.453-1.494c-1.115,0-1.928,0.491-2.438,1.474
			C754.041,94.779,753.786,96.355,753.786,98.525z"/>
		<path fill="#FFFFFF" d="M773.882,98.525c0,2.577-0.406,4.502-1.219,5.773s-2.056,1.907-3.729,1.907
			c-1.604,0-2.825-0.651-3.662-1.953c-0.836-1.303-1.255-3.212-1.255-5.728c0-2.598,0.405-4.526,1.214-5.784
			c0.81-1.258,2.044-1.887,3.703-1.887c1.618,0,2.848,0.656,3.688,1.969S773.882,96.036,773.882,98.525z M765.731,98.525
			c0,2.169,0.255,3.748,0.766,4.737c0.51,0.99,1.322,1.484,2.438,1.484c1.129,0,1.946-0.501,2.453-1.504
			c0.507-1.004,0.76-2.576,0.76-4.718c0-2.143-0.253-3.712-0.76-4.708s-1.324-1.494-2.453-1.494c-1.115,0-1.928,0.491-2.438,1.474
			C765.986,94.779,765.731,96.355,765.731,98.525z"/>
		<path fill="#FFFFFF" d="M782.063,95.536c0,1.551-0.261,2.722-0.78,3.514c-0.521,0.793-1.284,1.188-2.29,1.188
			c-0.952,0-1.692-0.404-2.219-1.214c-0.527-0.809-0.791-1.972-0.791-3.488c0-1.544,0.254-2.706,0.76-3.488
			c0.507-0.782,1.257-1.173,2.25-1.173c0.985,0,1.744,0.404,2.274,1.214C781.797,92.897,782.063,94.047,782.063,95.536z
			 M777.391,95.536c0,1.156,0.126,2.023,0.377,2.602c0.252,0.578,0.66,0.866,1.225,0.866c1.115,0,1.673-1.155,1.673-3.468
			c0-2.299-0.558-3.447-1.673-3.447c-0.564,0-0.973,0.285-1.225,0.856C777.517,93.517,777.391,94.38,777.391,95.536z
			 M788.417,91.089l-8.272,14.913h-1.499l8.272-14.913H788.417z M791.049,101.514c0,1.544-0.26,2.712-0.78,3.504
			s-1.283,1.188-2.29,1.188c-0.966,0-1.709-0.404-2.229-1.214c-0.521-0.81-0.78-1.969-0.78-3.479c0-1.544,0.253-2.706,0.76-3.488
			s1.256-1.173,2.249-1.173c0.966,0,1.719,0.399,2.26,1.198C790.778,98.85,791.049,100.004,791.049,101.514z M786.367,101.514
			c0,1.163,0.125,2.031,0.377,2.606c0.252,0.574,0.663,0.861,1.234,0.861s0.993-0.283,1.265-0.852
			c0.272-0.567,0.408-1.439,0.408-2.616c0-1.163-0.136-2.024-0.408-2.586c-0.271-0.561-0.693-0.842-1.265-0.842
			s-0.982,0.281-1.234,0.842C786.492,99.489,786.367,100.351,786.367,101.514z"/>
		<path fill="#FFFFFF" d="M793.671,104.921c0-0.456,0.104-0.801,0.311-1.035c0.208-0.235,0.505-0.353,0.893-0.353
			c0.395,0,0.702,0.117,0.924,0.353c0.221,0.234,0.331,0.579,0.331,1.035c0,0.442-0.112,0.782-0.337,1.02
			c-0.224,0.238-0.53,0.357-0.918,0.357c-0.347,0-0.634-0.107-0.861-0.321C793.784,105.763,793.671,105.41,793.671,104.921z"/>
	</g>
</g>
<rect x="438.175" y="15.171" fill="#FFFFFF" width="2.576" height="121.258"/>
<rect x="494.093" y="22.583" fill="none" stroke="#FFFFFF" stroke-miterlimit="10" width="345.568" height="104.454"/>
<g>
	<g>
		<g>
			<path fill="#FFFFFF" d="M249.419,134.506L249.419,134.506c-0.811-0.49-1.609-1.031-2.452-1.605
				c-0.709-0.479-1.458-0.991-2.294-1.521c-1.458-0.929-2.564-1.706-3.875-2.66c-3.934-2.861-7.814-5.836-11.564-8.711
				c-1.052-0.805-2.101-1.61-3.155-2.414c-3.034-2.316-6.169-4.644-9.202-6.894l-2.245-1.666c-3.574-2.655-7.113-5.591-8.771-9.05
				c-2.457-5.132,4.121-9.259,9.405-12.574c0.578-0.362,1.142-0.716,1.68-1.063c3.076-1.978,6.164-4.015,9.148-5.987l10.559-6.963
				c6.229-4.106,12.461-8.215,18.695-12.319c2.629-1.73,5.267-3.456,7.904-5.18c5.533-3.618,11.254-7.357,16.788-11.093
				c2.362-1.558,4.734-3.105,7.103-4.651c4.182-2.732,8.505-5.554,12.68-8.373c2.692-1.773,5.397-3.591,8.014-5.351
				c4.962-3.338,10.097-6.789,15.338-10.056l0.282-0.176c2.435-1.514,6.189-3.549,10.621-3.747c4.015-0.18,8.071,1.003,12.407,3.617
				c2.389,1.442,4.513,3.092,6.389,4.547c0.491,0.382,0.963,0.75,1.418,1.094l2.008,1.53c1.852,1.408,3.704,2.819,5.578,4.218
				l2.564,1.94c6.702,5.068,13.634,10.308,20.108,15.641c2.112,1.737,3.285,3.465,3.596,5.283c0.38,2.242-0.678,4.462-3.058,6.418
				c-2.551,2.104-5.525,4.039-8.408,5.909c-0.595,0.385-1.187,0.771-1.774,1.158c-2.614,1.719-5.262,3.432-7.905,5.146
				c-4.287,2.776-8.72,5.647-12.967,8.515l-85.185,56.892c-4.641,2.82-9.812,3.543-14.972,2.102
				C252.318,136.028,250.945,135.425,249.419,134.506z M345.892,16.469c-4.159-2.508-8.009-3.643-11.775-3.475
				c-4.15,0.185-7.739,2.138-10.077,3.59l-0.281,0.174c-5.229,3.262-10.356,6.707-15.313,10.041
				c-2.617,1.761-5.325,3.582-8.018,5.353c-4.179,2.82-8.503,5.643-12.686,8.375c-2.369,1.548-4.737,3.095-7.096,4.649
				c-5.535,3.733-11.258,7.477-16.793,11.096c-2.637,1.725-5.275,3.449-7.904,5.18c-6.235,4.104-12.464,8.212-18.693,12.319
				l-10.56,6.962c-2.987,1.971-6.075,4.012-9.155,5.99c-0.542,0.35-1.108,0.704-1.687,1.069c-5.384,3.377-11.489,7.206-9.179,12.024
				c1.521,3.177,4.541,5.839,8.606,8.857l2.241,1.666c3.036,2.252,6.174,4.581,9.213,6.899c1.053,0.805,2.104,1.609,3.156,2.416
				c3.745,2.871,7.623,5.843,11.549,8.698c1.301,0.948,2.396,1.719,3.839,2.634c0.842,0.537,1.598,1.05,2.312,1.535
				c0.836,0.568,1.624,1.105,2.42,1.581c1.452,0.878,2.754,1.452,4.219,1.863c4.823,1.346,9.672,0.659,14.026-1.985l85.168-56.881
				c4.251-2.871,8.686-5.742,12.975-8.523c2.647-1.712,5.286-3.426,7.903-5.145c0.589-0.387,1.184-0.773,1.779-1.158
				c2.861-1.859,5.82-3.782,8.339-5.859c2.24-1.84,3.234-3.923,2.877-6.021c-0.296-1.741-1.382-3.336-3.426-5.016
				c-6.464-5.324-13.388-10.561-20.085-15.623l-2.563-1.94c-1.875-1.399-3.727-2.811-5.58-4.221l-2.008-1.528
				c-0.458-0.349-0.933-0.716-1.425-1.1C350.352,19.525,348.245,17.888,345.892,16.469z"/>
		</g>
		<g>
			<g>
				<g>
					<path fill="#FFFFFF" d="M240.197,115.033l-7.712-5.596l2.683-1.505l5.545,1.849l2.166,3.747L240.197,115.033z M233.591,109.522
						l6.614,4.798l1.756-0.985l-1.853-3.214l-4.76-1.585L233.591,109.522z"/>
				</g>
			</g>
		</g>
		<g>
			<path fill="#FFFFFF" d="M220.464,100.35l-2.792-1.958c-0.236-0.169-0.244-0.415-0.008-0.548c0.233-0.132,0.615-0.101,0.854,0.071
				l2.724,1.914c0.087,0.041,0.877,0.429,1.619,0.005c0.742-0.42,0.262-0.946,0.157-1.048l-3.24-2.318
				c0.001,0.003-0.007,0.007-0.007,0.007l-0.054-0.038h-0.002l-0.559,0.316l-1.053-2.096l3.047,0.978l-0.568,0.318h0.001l0.041,0.03
				l-0.005,0.004l3.303,2.371c0.5,0.458,1.014,1.41-0.196,2.097C222.515,101.143,221.062,100.685,220.464,100.35z"/>
		</g>
		<g>
			<g>
				<path fill="#FFFFFF" d="M254.425,126.518l-3.445-2.511c-0.335-0.245-0.397-0.558-0.146-0.698
					c0.251-0.141,0.729-0.058,1.063,0.188l3.443,2.512c0.333,0.244,0.398,0.555,0.146,0.695
					C255.236,126.843,254.758,126.761,254.425,126.518z"/>
			</g>
			<g>
				<path fill="#FFFFFF" d="M252.203,122.546c0.252-0.142,0.727-0.06,1.062,0.186l3.442,2.511c0.333,0.241,0.4,0.555,0.146,0.695
					c-0.251,0.139-0.725,0.058-1.058-0.187l-3.443-2.511C252.018,122.997,251.95,122.686,252.203,122.546z"/>
			</g>
			<g>
				<path fill="#FFFFFF" d="M257.268,124.984l-3.442-2.513c-0.334-0.245-0.402-0.556-0.15-0.696
					c0.253-0.141,0.729-0.056,1.063,0.186l3.442,2.512c0.335,0.246,0.402,0.556,0.148,0.697
					C258.077,125.31,257.603,125.226,257.268,124.984z"/>
			</g>
		</g>
		<path fill="#FFFFFF" d="M269.566,129.357c1.59-1.096,3.178-2.193,4.765-3.291c4.999-3.46,10.168-7.039,15.386-10.479
			c3.525-2.326,7.046-4.657,10.564-6.987l17.967-11.888c0.489-0.32,48.965-32.101,58.275-38.119
			c2.222-1.438,5.789-4.324,4.705-7.508c-0.819-2.411-3.55-4.428-5.742-6.047c-1.431-1.055-2.799-2.128-4.119-3.161
			c-1.352-1.059-2.749-2.154-4.254-3.263l-0.138-0.104l-3.768,0.132l-15.42-11.413l0.769-2.022c0.063-0.162,0.113-0.301-2.169-1.963
			c-1.465-1.072-2.801-2.061-4.153-3.058c-1.183-0.875-2.377-1.755-3.674-2.708c-0.235-0.174-0.479-0.357-0.728-0.546
			c-0.726-0.548-1.546-1.167-2.446-1.71c-2.412-1.457-4.734-1.88-7.101-1.297c-2.51,0.618-4.415,1.889-6.26,3.117
			c-0.578,0.388-1.151,0.769-1.735,1.124c-3.445,2.098-6.803,4.347-10.049,6.522c-1.18,0.789-2.358,1.579-3.541,2.362
			c-2.011,1.331-4.034,2.649-6.061,3.97l-2.64,1.719c-0.734,0.486-73.736,48.821-84.514,55.83c-2.351,1.527-5.257,3.608-6.872,6.13
			c-1.612,2.521,0.666,4.41,2.868,6.236l0.275,0.228c2.45,2.039,5.008,4.097,7.823,6.293c2.394,1.868,4.799,3.723,7.146,5.51
			l1.844,1.408c2.38,1.817,4.84,3.696,7.328,5.51c1.02,0.743,2.039,1.488,3.059,2.233c4.247,3.105,8.634,6.315,13.113,9.364
			c0.299,0.203,0.609,0.401,0.929,0.594c4.429,2.672,8.932,3.019,12.679,0.979C265.888,131.851,267.896,130.51,269.566,129.357z
			 M263.118,132.633c-4.313,2.349-8.648,0.773-11.524-0.961c-0.305-0.184-0.602-0.374-0.892-0.57
			c-4.464-3.04-8.851-6.249-13.092-9.349c-1.019-0.746-2.038-1.492-3.059-2.234c-2.481-1.809-4.939-3.685-7.314-5.501l-1.845-1.407
			c-2.346-1.788-4.749-3.639-7.143-5.507c-2.809-2.189-5.361-4.243-7.805-6.277l-0.275-0.229c-2.149-1.779-4.178-3.464-2.752-5.689
			c1.557-2.435,4.39-4.46,6.687-5.954c10.779-7.012,83.785-55.344,84.519-55.83l2.637-1.719c2.028-1.321,4.055-2.642,6.067-3.973
			c1.183-0.783,2.361-1.574,3.542-2.364c3.238-2.17,6.589-4.414,10.019-6.502c0.594-0.359,1.176-0.747,1.767-1.142
			c1.774-1.184,3.614-2.41,5.942-2.985c2.054-0.505,4.021-0.128,6.197,1.184c0.865,0.521,1.667,1.129,2.376,1.665
			c0.256,0.194,0.501,0.378,0.738,0.553c1.298,0.952,2.49,1.833,3.671,2.706c1.354,1,2.693,1.989,4.207,3.095
			c1.439,1.05,1.81,1.406,1.904,1.51l-0.848,2.225l15.99,11.833l3.767-0.133c1.442,1.071,2.793,2.127,4.098,3.15
			c1.326,1.04,2.695,2.111,4.135,3.174c2.129,1.573,4.781,3.529,5.554,5.805c0.996,2.93-2.378,5.644-4.476,7.002
			c-9.314,6.02-57.791,37.802-58.281,38.123l-17.968,11.89c-3.52,2.329-7.04,4.66-10.565,6.986
			c-5.225,3.444-10.398,7.024-15.401,10.486c-1.585,1.099-3.17,2.198-4.761,3.294C267.276,130.122,265.292,131.448,263.118,132.633z
			"/>
		<path fill="#FFFFFF" d="M219.603,87.561l-0.27,0.176l49.592,38.501l103.521-68.004l0.272-0.18l-50.352-38L219.603,87.561z
			 M322.32,20.875l49.233,37.154L268.98,125.411l-48.488-37.646L322.32,20.875z"/>
		<g>
			<path fill="#FFFFFF" d="M381.029,47.48l-0.062-0.043l-8.293-6.453c-0.13-0.1-0.188-0.229-0.167-0.375
				c0.035-0.225,0.271-0.473,0.629-0.658c0.567-0.298,1.247-0.352,1.618-0.129l0.061,0.041l8.295,6.454
				c0.13,0.102,0.189,0.231,0.163,0.375c-0.033,0.226-0.269,0.471-0.627,0.659C382.079,47.647,381.399,47.704,381.029,47.48z
				 M374.147,40.215c0,0.016-0.215,0.033-0.463,0.163c-0.247,0.13-0.318,0.261-0.314,0.292l8.237,6.396
				c0.072,0.001,0.269-0.025,0.491-0.142c0.247-0.131,0.321-0.261,0.319-0.292L374.147,40.215z"/>
		</g>
		<g>
			<path fill="#FFFFFF" d="M373.898,51.275c-0.776-0.471-0.813-1.258-0.076-1.756c0.738-0.5,1.972-0.52,2.752-0.049
				c0.777,0.471,0.814,1.259,0.076,1.754C375.915,51.722,374.681,51.744,373.898,51.275z M375.98,49.87
				c-0.434-0.261-1.119-0.248-1.53,0.028c-0.408,0.276-0.391,0.713,0.047,0.975c0.431,0.261,1.116,0.247,1.526-0.027
				C376.432,50.569,376.414,50.131,375.98,49.87z"/>
		</g>
		<g>
			<path fill="#FFFFFF" d="M370.36,48.493c-0.511-0.31-0.533-0.827-0.05-1.155c0.484-0.326,1.297-0.34,1.806-0.031
				c0.514,0.309,0.536,0.826,0.052,1.152S370.871,48.802,370.36,48.493z M371.728,47.57c-0.286-0.172-0.735-0.164-1.007,0.017
				c-0.266,0.181-0.253,0.469,0.029,0.641c0.286,0.173,0.737,0.163,1.005-0.017C372.025,48.028,372.013,47.741,371.728,47.57z"/>
		</g>
		<g>
			<path fill="#FFFFFF" d="M229.766,115.871c-0.586-0.354-0.613-0.949-0.058-1.326c0.556-0.375,1.487-0.39,2.075-0.034
				c0.587,0.354,0.613,0.946,0.057,1.323C231.285,116.208,230.354,116.226,229.766,115.871z M231.189,114.91
				c-0.243-0.145-0.625-0.138-0.854,0.016c-0.228,0.155-0.217,0.397,0.025,0.543c0.24,0.147,0.624,0.139,0.852-0.015
				C231.442,115.299,231.43,115.057,231.189,114.91z"/>
		</g>
		<g>
			<path fill="#FFFFFF" d="M347.054,21.327l-0.027-0.017c-1.049-0.643-1.415-1.408-0.854-1.78c0.561-0.375,1.736-0.181,2.793,0.454
				c0.706,0.432,1.135,0.934,1.144,1.323c0.009,0.19-0.084,0.353-0.264,0.473C349.284,22.154,348.109,21.963,347.054,21.327z
				 M348.441,20.367c-0.798-0.48-1.548-0.585-1.698-0.486c-0.152,0.101,0.049,0.583,0.83,1.062l-0.246,0.2l0.272-0.183
				c0.773,0.465,1.522,0.57,1.673,0.47c0.041-0.028,0.047-0.083,0.043-0.114C349.309,21.106,349.038,20.731,348.441,20.367
				L348.441,20.367z"/>
		</g>
	</g>
	<polygon fill="#FFFFFF" points="237.929,123.612 237.951,125.44 240.706,127.453 242.645,127.003 	"/>
</g>
<g>
	<circle fill="none" stroke="#FFFFFF" stroke-miterlimit="10" cx="81.41" cy="80.749" r="60.629"/>
	<g>
		<circle fill="none" stroke="#FFFFFF" stroke-miterlimit="10" cx="81.41" cy="80.749" r="67.077"/>
		<g>
			<defs>
				<circle id="SVGID_1_" cx="81.41" cy="80.749" r="60.629"/>
			</defs>
			<clipPath id="SVGID_2_">
				<use xlink:href="#SVGID_1_"  overflow="visible"/>
			</clipPath>
			<g clip-path="url(#SVGID_2_)">
				
					<polyline fill="none" stroke="#FFFFFF" stroke-width="3.4075" stroke-linecap="round" stroke-linejoin="round" stroke-miterlimit="10" points="
					84.438,86.275 84.438,221.004 72.182,221.004 72.182,104.139 61.74,104.139 61.74,221.004 50.121,221.004 50.121,104.139 
					38.429,103.577 38.429,234.885 				"/>
				
					<rect x="28.47" y="242.775" fill="none" stroke="#FFFFFF" stroke-width="3.4075" stroke-linecap="round" stroke-linejoin="round" stroke-miterlimit="10" width="19.476" height="30.328"/>
				
					<rect x="31.816" y="234.935" fill="none" stroke="#FFFFFF" stroke-width="3.4075" stroke-linecap="round" stroke-linejoin="round" stroke-miterlimit="10" width="12.177" height="7.841"/>
				
					<rect x="30.543" y="273.103" fill="none" stroke="#FFFFFF" stroke-width="1.2778" stroke-linecap="round" stroke-linejoin="round" stroke-miterlimit="10" width="14.873" height="13.369"/>
				
					<rect x="74.699" y="64.436" fill="none" stroke="#FFFFFF" stroke-width="3.4075" stroke-linecap="round" stroke-linejoin="round" stroke-miterlimit="10" width="19.475" height="16.313"/>
				
					<rect x="78.657" y="80.749" fill="none" stroke="#FFFFFF" stroke-width="3.4075" stroke-linecap="round" stroke-linejoin="round" stroke-miterlimit="10" width="12.172" height="4.218"/>
				
					<rect x="77.231" y="55.357" fill="none" stroke="#FFFFFF" stroke-width="1.2778" stroke-linecap="round" stroke-linejoin="round" stroke-miterlimit="10" width="14.875" height="9.081"/>
				
					<rect x="40.125" y="279.013" fill="none" stroke="#FFFFFF" stroke-width="0.5768" stroke-linecap="round" stroke-linejoin="round" stroke-miterlimit="10" width="1.876" height="3.668"/>
				
					<rect x="34.493" y="279.013" fill="none" stroke="#FFFFFF" stroke-width="0.5768" stroke-linecap="round" stroke-linejoin="round" stroke-miterlimit="10" width="1.877" height="3.668"/>
				
					<line fill="none" stroke="#FFFFFF" stroke-width="0.5768" stroke-linecap="round" stroke-linejoin="round" stroke-miterlimit="10" x1="88.373" y1="55.357" x2="88.373" y2="64.438"/>
				
					<line fill="none" stroke="#FFFFFF" stroke-width="0.5768" stroke-linecap="round" stroke-linejoin="round" stroke-miterlimit="10" x1="81.411" y1="55.357" x2="81.411" y2="64.438"/>
			</g>
		</g>
	</g>
</g>
<g>
	<g>
		<g>
			<path fill="#FFFFFF" d="M186.049,169.994c-0.25,0-0.497-0.109-0.66-0.323l-2.795-3.624c-0.136-0.177-0.195-0.396-0.167-0.616
				c0.029-0.218,0.144-0.416,0.318-0.55l33.913-26.146l-1.367-1.773l-33.913,26.146c-0.364,0.28-0.884,0.213-1.165-0.149
				l-2.651-3.438c-0.133-0.174-0.193-0.393-0.164-0.613c0.026-0.218,0.141-0.417,0.314-0.551l33.944-26.17l-1.549-2.223
				l-38.153,29.415c-0.363,0.282-0.885,0.213-1.166-0.15c-0.281-0.364-0.211-0.885,0.151-1.164l38.844-29.95
				c0.179-0.138,0.409-0.196,0.632-0.162c0.226,0.035,0.426,0.16,0.554,0.346l2.502,3.587c0.254,0.363,0.176,0.863-0.174,1.134
				l-33.913,26.146l1.635,2.12l33.913-26.146c0.175-0.134,0.394-0.195,0.615-0.165c0.218,0.027,0.416,0.142,0.551,0.317l2.381,3.088
				c0.279,0.364,0.211,0.884-0.149,1.165l-33.915,26.146l1.78,2.31l39.196-30.221c0.365-0.281,0.885-0.213,1.167,0.15
				c0.28,0.364,0.213,0.886-0.151,1.166l-39.854,30.728C186.404,169.939,186.226,169.994,186.049,169.994z"/>
		</g>
		<g>
			<path fill="#FFFFFF" d="M162.312,171.082c-0.036,0-0.07-0.001-0.107-0.005c-0.217-0.029-0.415-0.145-0.55-0.317l-4.441-5.762
				c-0.28-0.364-0.213-0.885,0.151-1.166l8.971-6.917c0.175-0.132,0.393-0.193,0.613-0.166c0.219,0.028,0.417,0.144,0.552,0.316
				l4.44,5.762c0.28,0.364,0.214,0.885-0.151,1.167l-8.97,6.916C162.672,171.022,162.494,171.082,162.312,171.082z M159.036,164.642
				l3.427,4.446l7.655-5.905l-3.428-4.444L159.036,164.642z"/>
		</g>
		<g>
			<path fill="#FFFFFF" d="M170.383,162.997c-0.249,0-0.495-0.112-0.66-0.323l-2.778-3.604c-0.134-0.174-0.194-0.396-0.166-0.612
				c0.029-0.22,0.143-0.418,0.316-0.554l2.322-1.787c0.362-0.281,0.883-0.213,1.164,0.15l2.779,3.603
				c0.278,0.363,0.212,0.884-0.152,1.164l-2.318,1.79C170.739,162.941,170.56,162.997,170.383,162.997z M168.769,158.714
				l1.763,2.286l1.004-0.773l-1.762-2.286L168.769,158.714z"/>
		</g>
		<g>
			<path fill="#FFFFFF" d="M229.757,140.886c-0.248,0-0.495-0.109-0.658-0.323l-4.441-5.762c-0.135-0.174-0.195-0.396-0.167-0.613
				c0.027-0.219,0.142-0.417,0.316-0.552l4.827-3.72c0.363-0.282,0.884-0.213,1.165,0.15l4.444,5.762
				c0.133,0.175,0.193,0.396,0.166,0.613c-0.028,0.219-0.144,0.418-0.317,0.551l-4.827,3.723
				C230.113,140.83,229.935,140.886,229.757,140.886z M226.48,134.445l3.427,4.444l3.51-2.706l-3.426-4.444L226.48,134.445z"/>
		</g>
		<g>
			<path fill="#FFFFFF" d="M227.747,140.857c-0.037,0-0.071-0.001-0.107-0.006c-0.219-0.026-0.417-0.141-0.552-0.315l-2.775-3.603
				c-0.28-0.361-0.212-0.885,0.152-1.164l1.247-0.961c0.173-0.136,0.393-0.195,0.614-0.168c0.217,0.028,0.417,0.144,0.55,0.316
				l2.777,3.601c0.135,0.174,0.195,0.396,0.167,0.615c-0.03,0.219-0.142,0.417-0.319,0.551l-1.247,0.963
				C228.106,140.797,227.929,140.857,227.747,140.857z"/>
		</g>
		<g>
			<path fill="#FFFFFF" d="M234.111,136.035c-0.093,0-0.185-0.043-0.246-0.122l-3.393-4.4c-0.106-0.136-0.079-0.329,0.058-0.437
				l2.685-2.071c0.133-0.104,0.331-0.08,0.437,0.058l3.391,4.4c0.052,0.064,0.073,0.147,0.064,0.229
				c-0.012,0.082-0.052,0.157-0.119,0.206l-2.687,2.071C234.244,136.015,234.178,136.035,234.111,136.035z M231.157,131.379
				l3.011,3.907l2.192-1.69l-3.012-3.907L231.157,131.379z"/>
		</g>
		<g>
			<path fill="#FFFFFF" d="M233.26,134.758c-0.043,0-0.086-0.019-0.113-0.053c-0.046-0.061-0.034-0.151,0.027-0.196l2.685-2.072
				c0.062-0.048,0.15-0.035,0.197,0.026c0.046,0.061,0.037,0.149-0.027,0.196l-2.685,2.071
				C233.32,134.75,233.29,134.758,233.26,134.758z"/>
		</g>
		<g>
			<path fill="#FFFFFF" d="M231.672,132.7c-0.042,0-0.085-0.019-0.112-0.055c-0.047-0.063-0.036-0.148,0.026-0.198l2.685-2.071
				c0.062-0.045,0.15-0.034,0.198,0.026c0.047,0.062,0.036,0.151-0.028,0.197l-2.686,2.071
				C231.731,132.69,231.702,132.7,231.672,132.7z"/>
		</g>
	</g>
	<g>
		<g>
			<g>
				<path fill="none" stroke="#FFFFFF" stroke-miterlimit="10" d="M152.41,187.174l-13.63-16.645c0,0,14.069-10.489,16.213-7.871
					c2.146,2.621,8.897,10.865,8.897,10.865S164.895,176.95,152.41,187.174z"/>
				
					<rect x="143.916" y="180.534" transform="matrix(-0.6334 -0.7738 0.7738 -0.6334 92.1742 415.3203)" fill="#FFFFFF" width="1.105" height="10.584"/>
				
					<rect x="138.261" y="173.632" transform="matrix(-0.6349 -0.7726 0.7726 -0.6349 88.7051 399.7646)" fill="#FFFFFF" width="1.106" height="10.58"/>
			</g>
			<path fill="#FFFFFF" d="M148.892,168.049c1.148-0.942,2.844-0.772,3.784,0.376l4.608,5.625c0.94,1.149,0.773,2.843-0.376,3.786
				l-3.115,2.55c-1.149,0.941-2.845,0.771-3.786-0.377l-4.606-5.627c-0.94-1.149-0.771-2.842,0.379-3.784L148.892,168.049z"/>
		</g>
	</g>
</g>
<g>
</g>
<g>
</g>
<g>
</g>
<g>
</g>
<g>
</g>
<g>
</g>
</svg>
