<?xml version="1.0" encoding="utf-8"?>
<!-- Generator: Adobe Illustrator 16.0.0, SVG Export Plug-In . SVG Version: 6.00 Build 0)  -->
<!DOCTYPE svg PUBLIC "-//W3C//DTD SVG 1.1//EN" "http://www.w3.org/Graphics/SVG/1.1/DTD/svg11.dtd">
<svg version="1.1" id="Capa_1" xmlns="http://www.w3.org/2000/svg" xmlns:xlink="http://www.w3.org/1999/xlink" x="0px" y="0px"
	 width="467px" height="197px" viewBox="0 0 467 197" enable-background="new 0 0 467 197" xml:space="preserve">
<g>
	<circle fill="none" stroke="#FFFFFF" stroke-miterlimit="10" cx="71.841" cy="100.521" r="53.183"/>
	<g>
		<circle fill="none" stroke="#FFFFFF" stroke-miterlimit="10" cx="71.84" cy="100.521" r="58.84"/>
		<g>
			<defs>
				<circle id="SVGID_1_" cx="71.841" cy="100.521" r="53.183"/>
			</defs>
			<clipPath id="SVGID_2_">
				<use xlink:href="#SVGID_1_"  overflow="visible"/>
			</clipPath>
			<g clip-path="url(#SVGID_2_)">
				
					<polyline fill="none" stroke="#FFFFFF" stroke-width="3.4075" stroke-linecap="round" stroke-linejoin="round" stroke-miterlimit="10" points="
					74.497,105.369 74.497,223.552 63.746,223.552 63.746,121.04 54.585,121.04 54.585,223.552 44.393,223.552 44.393,121.04 
					34.137,120.545 34.137,235.728 				"/>
				
					<rect x="25.401" y="242.65" fill="none" stroke="#FFFFFF" stroke-width="3.4075" stroke-linecap="round" stroke-linejoin="round" stroke-miterlimit="10" width="17.084" height="26.603"/>
				
					<rect x="28.337" y="235.771" fill="none" stroke="#FFFFFF" stroke-width="3.4075" stroke-linecap="round" stroke-linejoin="round" stroke-miterlimit="10" width="10.681" height="6.88"/>
				
					<rect x="27.22" y="269.253" fill="none" stroke="#FFFFFF" stroke-width="1.2778" stroke-linecap="round" stroke-linejoin="round" stroke-miterlimit="10" width="13.046" height="11.726"/>
				
					<rect x="65.954" y="86.211" fill="none" stroke="#FFFFFF" stroke-width="3.4075" stroke-linecap="round" stroke-linejoin="round" stroke-miterlimit="10" width="17.084" height="14.311"/>
				
					<rect x="69.425" y="100.521" fill="none" stroke="#FFFFFF" stroke-width="3.4075" stroke-linecap="round" stroke-linejoin="round" stroke-miterlimit="10" width="10.677" height="3.701"/>
				
					<rect x="68.175" y="78.248" fill="none" stroke="#FFFFFF" stroke-width="1.2778" stroke-linecap="round" stroke-linejoin="round" stroke-miterlimit="10" width="13.047" height="7.964"/>
				
					<rect x="35.625" y="274.438" fill="none" stroke="#FFFFFF" stroke-width="0.5768" stroke-linecap="round" stroke-linejoin="round" stroke-miterlimit="10" width="1.646" height="3.217"/>
				
					<rect x="30.686" y="274.438" fill="none" stroke="#FFFFFF" stroke-width="0.5768" stroke-linecap="round" stroke-linejoin="round" stroke-miterlimit="10" width="1.646" height="3.217"/>
				
					<line fill="none" stroke="#FFFFFF" stroke-width="0.5768" stroke-linecap="round" stroke-linejoin="round" stroke-miterlimit="10" x1="77.948" y1="78.248" x2="77.948" y2="86.212"/>
				
					<line fill="none" stroke="#FFFFFF" stroke-width="0.5768" stroke-linecap="round" stroke-linejoin="round" stroke-miterlimit="10" x1="71.841" y1="78.248" x2="71.841" y2="86.212"/>
			</g>
		</g>
	</g>
</g>
<g>
	<g>
		<g>
			<g>
				<path fill="#FFFFFF" d="M335.056,136.175L335.056,136.175c-0.712-0.429-1.413-0.905-2.151-1.407
					c-0.623-0.423-1.279-0.869-2.014-1.335c-1.278-0.814-2.249-1.498-3.399-2.333c-3.449-2.512-6.854-5.119-10.144-7.641
					c-0.923-0.706-1.843-1.413-2.768-2.118c-2.661-2.033-5.412-4.072-8.072-6.048l-1.969-1.46c-3.135-2.329-6.24-4.905-7.694-7.938
					c-2.155-4.503,3.615-8.123,8.25-11.032c0.507-0.317,1.003-0.627,1.475-0.931c2.697-1.735,5.405-3.523,8.023-5.251l9.264-6.109
					c5.464-3.602,10.93-7.206,16.399-10.805c2.306-1.519,4.619-3.032,6.935-4.546c4.852-3.173,9.87-6.453,14.726-9.729
					c2.071-1.366,4.15-2.724,6.23-4.082c3.666-2.395,7.457-4.87,11.121-7.343c2.361-1.556,4.734-3.15,7.03-4.694
					c4.353-2.927,8.854-5.953,13.452-8.82l0.248-0.155c2.137-1.328,5.429-3.113,9.318-3.287c3.521-0.158,7.079,0.88,10.881,3.173
					c2.099,1.264,3.96,2.711,5.605,3.988c0.432,0.335,0.845,0.657,1.243,0.959l1.764,1.342c1.623,1.236,3.247,2.474,4.891,3.701
					l2.251,1.702c5.879,4.446,11.958,9.042,17.64,13.721c1.851,1.523,2.881,3.039,3.152,4.633c0.333,1.968-0.593,3.915-2.682,5.632
					c-2.237,1.844-4.847,3.542-7.374,5.184c-0.522,0.337-1.041,0.677-1.557,1.014c-2.295,1.508-4.615,3.011-6.936,4.517
					c-3.76,2.436-7.649,4.954-11.375,7.469l-74.722,49.906c-4.072,2.472-8.607,3.105-13.135,1.842
					C337.598,137.511,336.394,136.981,335.056,136.175z M419.678,32.634c-3.646-2.199-7.022-3.196-10.326-3.047
					c-3.641,0.162-6.789,1.876-8.841,3.149l-0.245,0.153c-4.59,2.861-9.086,5.883-13.433,8.807
					c-2.297,1.544-4.673,3.142-7.032,4.697c-3.666,2.473-7.461,4.949-11.129,7.346c-2.078,1.358-4.156,2.713-6.225,4.077
					c-4.854,3.278-9.875,6.56-14.731,9.735c-2.313,1.512-4.626,3.024-6.932,4.542c-5.469,3.601-10.936,7.203-16.398,10.807
					l-9.264,6.108c-2.62,1.728-5.327,3.518-8.029,5.254c-0.476,0.305-0.972,0.618-1.48,0.937
					c-4.723,2.964-10.077,6.321-8.053,10.548c1.335,2.787,3.984,5.123,7.548,7.771l1.968,1.461c2.664,1.976,5.417,4.018,8.081,6.052
					c0.925,0.705,1.847,1.412,2.77,2.118c3.286,2.519,6.686,5.126,10.13,7.632c1.142,0.831,2.103,1.506,3.368,2.31
					c0.739,0.472,1.401,0.923,2.028,1.348c0.731,0.499,1.425,0.968,2.121,1.39c1.274,0.767,2.416,1.27,3.702,1.63
					c4.231,1.181,8.485,0.579,12.304-1.74l74.708-49.896c3.729-2.518,7.62-5.037,11.382-7.477c2.322-1.504,4.639-3.005,6.934-4.514
					c0.517-0.338,1.037-0.678,1.561-1.016c2.509-1.631,5.104-3.317,7.314-5.139c1.964-1.614,2.837-3.441,2.524-5.283
					c-0.259-1.528-1.214-2.926-3.005-4.4c-5.672-4.67-11.745-9.264-17.618-13.704l-2.251-1.703
					c-1.644-1.226-3.269-2.463-4.896-3.701l-1.76-1.341c-0.4-0.305-0.817-0.628-1.251-0.963
					C423.593,35.314,421.743,33.88,419.678,32.634z"/>
			</g>
			<g>
				<g>
					<g>
						<path fill="#FFFFFF" d="M326.966,119.094l-6.765-4.909l2.354-1.317l4.864,1.62l1.898,3.286L326.966,119.094z M321.171,114.261
							l5.802,4.209l1.54-0.866l-1.624-2.819l-4.176-1.389L321.171,114.261z"/>
					</g>
				</g>
			</g>
			<g>
				<path fill="#FFFFFF" d="M309.655,106.214l-2.449-1.717c-0.207-0.15-0.214-0.364-0.007-0.481c0.204-0.115,0.54-0.088,0.75,0.061
					l2.389,1.681c0.076,0.036,0.769,0.375,1.42,0.006c0.652-0.368,0.23-0.832,0.139-0.922l-2.842-2.032
					c0.001,0.003-0.006,0.006-0.006,0.006L309,102.783l-0.001-0.001l-0.49,0.275l-0.924-1.837l2.673,0.857l-0.498,0.278h0.001
					l0.036,0.028l-0.005,0.003l2.897,2.079c0.438,0.4,0.889,1.238-0.172,1.841C311.454,106.91,310.18,106.509,309.655,106.214z"/>
			</g>
			<g>
				<g>
					<path fill="#FFFFFF" d="M339.445,129.17l-3.02-2.205c-0.295-0.214-0.349-0.489-0.13-0.61c0.222-0.124,0.638-0.052,0.932,0.163
						l3.021,2.203c0.293,0.213,0.349,0.488,0.128,0.61C340.157,129.455,339.738,129.382,339.445,129.17z"/>
				</g>
				<g>
					<path fill="#FFFFFF" d="M337.496,125.684c0.222-0.123,0.639-0.053,0.932,0.165l3.019,2.201
						c0.293,0.212,0.354,0.487,0.129,0.611c-0.219,0.12-0.636,0.048-0.929-0.166l-3.019-2.201
						C337.334,126.08,337.275,125.808,337.496,125.684z"/>
				</g>
				<g>
					<path fill="#FFFFFF" d="M341.94,127.822l-3.02-2.204c-0.293-0.213-0.353-0.487-0.132-0.609c0.223-0.123,0.639-0.05,0.932,0.163
						l3.019,2.202c0.295,0.215,0.353,0.488,0.13,0.612C342.649,128.108,342.233,128.034,341.94,127.822z"/>
				</g>
			</g>
			<path fill="#FFFFFF" d="M352.729,131.659c1.396-0.96,2.786-1.924,4.179-2.889c4.386-3.034,8.92-6.173,13.496-9.19
				c3.094-2.042,6.181-4.086,9.269-6.129l15.759-10.429c0.431-0.28,42.953-28.158,51.118-33.438c1.949-1.263,5.079-3.792,4.13-6.587
				c-0.72-2.115-3.115-3.883-5.04-5.303c-1.255-0.928-2.453-1.866-3.61-2.774c-1.188-0.928-2.414-1.89-3.731-2.863l-0.123-0.088
				l-3.303,0.115l-13.528-10.012l0.676-1.774c0.055-0.142,0.1-0.264-1.903-1.722c-1.284-0.94-2.459-1.808-3.644-2.682
				c-1.036-0.768-2.084-1.542-3.223-2.377c-0.206-0.15-0.42-0.312-0.638-0.478c-0.634-0.48-1.355-1.025-2.145-1.501
				c-2.117-1.277-4.154-1.648-6.231-1.137c-2.201,0.542-3.873,1.657-5.489,2.734c-0.508,0.339-1.012,0.675-1.522,0.986
				c-3.023,1.838-5.968,3.813-8.814,5.72c-1.036,0.693-2.07,1.386-3.106,2.072c-1.763,1.166-3.54,2.324-5.317,3.483l-2.314,1.508
				c-0.646,0.428-64.682,42.825-74.136,48.973c-2.063,1.343-4.612,3.164-6.027,5.378c-1.414,2.211,0.583,3.867,2.515,5.47
				l0.241,0.199c2.149,1.789,4.395,3.596,6.863,5.521c2.1,1.637,4.21,3.265,6.269,4.832l1.619,1.237
				c2.087,1.594,4.245,3.242,6.428,4.832c0.895,0.651,1.787,1.305,2.683,1.959c3.725,2.724,7.574,5.539,11.503,8.213
				c0.262,0.18,0.533,0.354,0.813,0.522c3.886,2.343,7.836,2.648,11.123,0.857C349.501,133.847,351.261,132.669,352.729,131.659z
				 M347.07,134.532c-3.782,2.061-7.585,0.679-10.106-0.842c-0.27-0.162-0.529-0.33-0.782-0.502
				c-3.917-2.665-7.766-5.479-11.484-8.199c-0.895-0.655-1.789-1.309-2.686-1.96c-2.177-1.586-4.332-3.232-6.415-4.825l-1.62-1.236
				c-2.057-1.564-4.163-3.192-6.265-4.829c-2.463-1.922-4.701-3.722-6.847-5.507l-0.241-0.2c-1.884-1.563-3.663-3.039-2.415-4.992
				c1.366-2.134,3.854-3.912,5.867-5.222c9.455-6.15,73.495-48.549,74.14-48.977l2.313-1.508c1.778-1.157,3.556-2.316,5.321-3.484
				c1.039-0.687,2.072-1.38,3.107-2.074c2.842-1.903,5.78-3.871,8.79-5.704c0.52-0.315,1.03-0.656,1.548-1
				c1.559-1.04,3.172-2.115,5.214-2.619c1.802-0.443,3.527-0.113,5.436,1.038c0.759,0.457,1.464,0.991,2.085,1.461
				c0.224,0.168,0.437,0.332,0.646,0.484c1.141,0.835,2.187,1.608,3.223,2.375c1.187,0.875,2.361,1.743,3.688,2.714
				c1.265,0.919,1.59,1.231,1.672,1.324l-0.743,1.953l14.025,10.379l3.305-0.116c1.266,0.938,2.449,1.865,3.595,2.764
				c1.163,0.911,2.365,1.851,3.626,2.783c1.869,1.38,4.193,3.096,4.872,5.092c0.874,2.57-2.085,4.951-3.926,6.143
				c-8.169,5.278-50.694,33.16-51.124,33.442l-15.762,10.429c-3.086,2.042-6.175,4.088-9.266,6.127
				c-4.584,3.022-9.122,6.164-13.512,9.2c-1.391,0.962-2.781,1.928-4.176,2.889C350.719,132.331,348.979,133.493,347.07,134.532z"/>
			<path fill="#FFFFFF" d="M308.9,94.994l-0.236,0.155l43.502,33.772l90.809-59.652l0.237-0.157l-44.169-33.334L308.9,94.994z
				 M399.002,36.498l43.188,32.592l-89.976,59.107l-42.532-33.021L399.002,36.498z"/>
			<g>
				<path fill="#FFFFFF" d="M450.502,59.836l-0.053-0.036l-7.275-5.661c-0.114-0.088-0.165-0.2-0.146-0.328
					c0.03-0.196,0.237-0.412,0.554-0.577c0.495-0.263,1.093-0.31,1.417-0.113l0.052,0.036l7.278,5.659
					c0.114,0.091,0.164,0.204,0.145,0.332c-0.031,0.197-0.237,0.411-0.552,0.577C451.424,59.983,450.827,60.033,450.502,59.836z
					 M444.465,53.463c0.001,0.014-0.187,0.03-0.404,0.144s-0.28,0.23-0.278,0.256l7.228,5.612c0.063,0,0.235-0.024,0.432-0.126
					c0.217-0.113,0.281-0.229,0.278-0.255L444.465,53.463z"/>
			</g>
			<g>
				<path fill="#FFFFFF" d="M444.25,63.164c-0.685-0.411-0.715-1.103-0.069-1.538c0.647-0.437,1.729-0.457,2.415-0.043
					c0.682,0.412,0.714,1.103,0.066,1.538C446.015,63.559,444.934,63.577,444.25,63.164z M446.072,61.934
					c-0.379-0.229-0.979-0.218-1.34,0.023c-0.359,0.243-0.343,0.627,0.038,0.855c0.38,0.229,0.98,0.219,1.342-0.024
					C446.47,62.548,446.453,62.163,446.072,61.934z"/>
			</g>
			<g>
				<path fill="#FFFFFF" d="M441.145,60.724c-0.449-0.27-0.469-0.725-0.044-1.011c0.425-0.287,1.137-0.299,1.585-0.028
					c0.447,0.271,0.469,0.726,0.044,1.012C442.306,60.982,441.594,60.995,441.145,60.724z M442.343,59.916
					c-0.25-0.151-0.645-0.145-0.881,0.015c-0.236,0.16-0.224,0.412,0.024,0.563c0.249,0.15,0.646,0.145,0.881-0.016
					C442.604,60.316,442.593,60.066,442.343,59.916z"/>
			</g>
			<g>
				<path fill="#FFFFFF" d="M317.815,119.83c-0.515-0.312-0.539-0.834-0.051-1.163c0.486-0.327,1.306-0.344,1.819-0.032
					c0.516,0.312,0.538,0.832,0.052,1.161C319.148,120.124,318.331,120.14,317.815,119.83z M319.064,118.985
					c-0.214-0.126-0.549-0.12-0.749,0.015c-0.199,0.136-0.19,0.35,0.021,0.478c0.212,0.129,0.546,0.121,0.746-0.016
					C319.283,119.329,319.275,119.113,319.064,118.985z"/>
			</g>
			<g>
				<path fill="#FFFFFF" d="M420.699,36.896l-0.025-0.016c-0.919-0.562-1.241-1.234-0.748-1.56c0.492-0.328,1.524-0.16,2.45,0.399
					c0.618,0.378,0.994,0.817,1.004,1.159c0.006,0.167-0.074,0.311-0.232,0.416C422.654,37.621,421.625,37.453,420.699,36.896z
					 M421.918,36.054c-0.701-0.423-1.358-0.515-1.49-0.427c-0.135,0.088,0.041,0.511,0.729,0.932l-0.216,0.176l0.238-0.162
					c0.679,0.408,1.334,0.5,1.467,0.413c0.036-0.023,0.04-0.072,0.039-0.099C422.678,36.703,422.439,36.373,421.918,36.054
					L421.918,36.054z"/>
			</g>
		</g>
		<polygon fill="#FFFFFF" points="324.976,126.621 324.994,128.223 327.411,129.988 329.111,129.594 		"/>
	</g>
	<g>
		<g>
			<path fill="#FFFFFF" d="M312.969,140.075c0.308,0.376,0.251,0.929-0.125,1.235l-41.215,33.577
				c-0.375,0.308-0.927,0.25-1.235-0.125l-3.054-3.751c-0.307-0.375-0.25-0.928,0.127-1.234l35.068-28.57l-1.492-1.835
				l-35.07,28.573c-0.376,0.307-0.93,0.249-1.236-0.128l-2.896-3.552c-0.306-0.378-0.249-0.93,0.127-1.236l35.103-28.6l-1.7-2.301
				l-39.454,32.146c-0.376,0.305-0.928,0.248-1.235-0.128c-0.306-0.376-0.25-0.929,0.125-1.234l40.168-32.727
				c0.187-0.151,0.427-0.22,0.666-0.189c0.237,0.029,0.453,0.154,0.597,0.351l2.741,3.717c0.278,0.375,0.211,0.905-0.152,1.201
				l-35.07,28.572l1.788,2.191l35.07-28.571c0.376-0.306,0.928-0.252,1.233,0.127l2.603,3.193c0.307,0.375,0.251,0.93-0.125,1.236
				l-35.071,28.57l1.947,2.389l40.532-33.026C312.111,139.642,312.664,139.698,312.969,140.075z"/>
		</g>
		<g>
			<path fill="#FFFFFF" d="M251.146,161.958l4.853,5.958c0.307,0.375,0.251,0.929-0.125,1.235l-9.278,7.56
				c-0.376,0.306-0.929,0.249-1.235-0.127l-4.854-5.959c-0.306-0.376-0.249-0.929,0.127-1.234l9.278-7.559
				C250.287,161.527,250.84,161.583,251.146,161.958z M254.083,168.345l-3.745-4.598l-7.917,6.45l3.747,4.596L254.083,168.345z"/>
		</g>
		<g>
			<path fill="#FFFFFF" d="M254.378,161.028l3.035,3.725c0.305,0.375,0.25,0.93-0.126,1.236l-2.4,1.953
				c-0.375,0.305-0.927,0.249-1.234-0.127l-3.036-3.724c-0.306-0.378-0.25-0.93,0.125-1.237l2.399-1.952
				C253.519,160.595,254.07,160.652,254.378,161.028z M255.497,165.181l-1.925-2.363l-1.038,0.845l1.925,2.364L255.497,165.181z"/>
		</g>
		<g>
			<path fill="#FFFFFF" d="M241.96,170.498l3.706,4.55c0.114,0.141,0.093,0.347-0.048,0.461l-4.089,3.332
				c-0.142,0.118-0.349,0.094-0.463-0.046l-3.708-4.55c-0.113-0.142-0.092-0.35,0.048-0.463l4.09-3.333
				C241.639,170.336,241.845,170.355,241.96,170.498z M244.949,175.206l-3.292-4.038l-3.578,2.916l3.291,4.041L244.949,175.206z"/>
		</g>
		<g>
			<path fill="#FFFFFF" d="M317.225,131.65l4.854,5.96c0.306,0.376,0.248,0.93-0.127,1.234l-4.99,4.069
				c-0.376,0.305-0.93,0.247-1.236-0.128l-4.853-5.96c-0.307-0.376-0.252-0.929,0.125-1.234l4.991-4.066
				C316.365,131.22,316.917,131.276,317.225,131.65z M320.164,138.037l-3.747-4.595l-3.629,2.956l3.745,4.597L320.164,138.037z"/>
		</g>
		<g>
			<path fill="#FFFFFF" d="M313.22,136.929l3.034,3.725c0.307,0.376,0.25,0.929-0.126,1.234l-1.291,1.053
				c-0.376,0.306-0.927,0.248-1.235-0.128l-3.033-3.724c-0.306-0.376-0.251-0.928,0.127-1.234l1.289-1.051
				C312.361,136.496,312.913,136.554,313.22,136.929z"/>
		</g>
		<g>
			<path fill="#FFFFFF" d="M320.207,130.511l3.709,4.553c0.113,0.138,0.091,0.348-0.049,0.46l-2.777,2.265
				c-0.144,0.113-0.35,0.094-0.464-0.047l-3.706-4.553c-0.115-0.139-0.096-0.346,0.047-0.462l2.775-2.261
				C319.886,130.35,320.093,130.372,320.207,130.511z M323.196,135.222l-3.293-4.04l-2.267,1.847l3.292,4.043L323.196,135.222z"/>
		</g>
		<g>
			<path fill="#FFFFFF" d="M242.398,175.016l0.467,0.574c0.053,0.064,0.042,0.155-0.02,0.207l-1.123,0.915
				c-0.063,0.053-0.157,0.045-0.209-0.021l-0.467-0.574c-0.054-0.063-0.043-0.157,0.021-0.209l1.124-0.914
				C242.253,174.942,242.347,174.953,242.398,175.016z M242.542,175.663l-0.28-0.345l-0.891,0.727l0.279,0.343L242.542,175.663z"/>
		</g>
		<g>
			<path fill="#FFFFFF" d="M240.995,173.293l0.469,0.572c0.052,0.066,0.042,0.16-0.022,0.212l-1.122,0.913
				c-0.065,0.051-0.157,0.043-0.208-0.021l-0.469-0.574c-0.052-0.063-0.041-0.156,0.022-0.21l1.122-0.912
				C240.851,173.221,240.943,173.23,240.995,173.293z M241.138,173.94l-0.279-0.344l-0.892,0.727l0.281,0.344L241.138,173.94z"/>
		</g>
		<g>
			<path fill="#FFFFFF" d="M322.844,134.034c0.053,0.062,0.042,0.156-0.021,0.208l-2.779,2.264
				c-0.063,0.051-0.157,0.042-0.209-0.021c-0.052-0.064-0.042-0.157,0.021-0.211l2.779-2.262
				C322.697,133.961,322.792,133.969,322.844,134.034z"/>
		</g>
		<g>
			<path fill="#FFFFFF" d="M321.108,131.904c0.053,0.063,0.044,0.156-0.02,0.209l-2.779,2.263c-0.063,0.052-0.156,0.043-0.208-0.022
				c-0.053-0.062-0.043-0.157,0.021-0.207l2.778-2.265C320.964,131.83,321.059,131.84,321.108,131.904z"/>
		</g>
	</g>
</g>
<g>
	<g>
		<path fill="#FFFFFF" d="M210.551,123.941c-0.174,0-0.343-0.082-0.452-0.224l-39.626-52.522c-0.113-0.151-0.146-0.348-0.085-0.526
			c0.062-0.177,0.207-0.313,0.388-0.362l43.775-12.067c0.197-0.056,0.411,0.002,0.556,0.151l45.615,46.929
			c0.134,0.14,0.19,0.336,0.145,0.524c-0.042,0.188-0.179,0.341-0.362,0.407l-49.763,17.657
			C210.681,123.931,210.616,123.941,210.551,123.941z M171.881,71.178l38.874,51.522l48.538-17.224l-44.764-46.055L171.881,71.178z"
			/>
	</g>
	<g>
		<path fill="#FFFFFF" d="M210.481,136.337c-0.115,0-0.23-0.034-0.326-0.102c-0.152-0.107-0.244-0.281-0.242-0.469l0.07-12.396
			c0.004-0.237,0.153-0.45,0.376-0.529l49.764-17.661c0.192-0.067,0.408-0.027,0.562,0.106c0.154,0.133,0.226,0.338,0.186,0.538
			l-2.493,12.565c-0.037,0.195-0.174,0.354-0.36,0.422l-47.343,17.491C210.612,136.326,210.546,136.337,210.481,136.337z
			 M211.115,123.775l-0.062,11.179l46.276-17.096l2.235-11.275L211.115,123.775z"/>
	</g>
	<g>
		<path fill="#FFFFFF" d="M216.648,130.748c-0.121,0-0.241-0.038-0.339-0.113c-0.154-0.112-0.241-0.298-0.227-0.491l0.367-5.703
			c0.013-0.221,0.155-0.415,0.363-0.492l14.677-5.597c0.188-0.07,0.398-0.039,0.556,0.087c0.156,0.124,0.236,0.321,0.208,0.52
			l-0.82,6.036c-0.028,0.207-0.168,0.384-0.365,0.456l-14.223,5.263C216.78,130.736,216.714,130.748,216.648,130.748z
			 M217.559,124.878l-0.289,4.467l13.085-4.841l0.645-4.752L217.559,124.878z"/>
	</g>
	<g>
		<path fill="#FFFFFF" d="M210.481,136.337c-0.175,0-0.345-0.08-0.453-0.225l-37.029-49.098c-0.056-0.075-0.094-0.161-0.107-0.252
			l-2.527-15.821c-0.039-0.255,0.098-0.508,0.339-0.61c0.24-0.102,0.517-0.027,0.676,0.181l39.624,52.521
			c0.077,0.101,0.118,0.221,0.115,0.346l-0.07,12.396c-0.002,0.244-0.159,0.459-0.389,0.536
			C210.6,136.328,210.54,136.337,210.481,136.337z M173.989,86.444l35.935,47.643l0.06-10.523l-38.139-50.55L173.989,86.444z"/>
	</g>
</g>
<g>
</g>
<g>
</g>
<g>
</g>
<g>
</g>
<g>
</g>
<g>
</g>
</svg>
