<?xml version="1.0" encoding="utf-8"?>
<!-- Generator: Adobe Illustrator 16.0.0, SVG Export Plug-In . SVG Version: 6.00 Build 0)  -->
<!DOCTYPE svg PUBLIC "-//W3C//DTD SVG 1.1//EN" "http://www.w3.org/Graphics/SVG/1.1/DTD/svg11.dtd">
<svg version="1.1" id="Capa_1" xmlns="http://www.w3.org/2000/svg" xmlns:xlink="http://www.w3.org/1999/xlink" x="0px" y="0px"
	 width="467px" height="197px" viewBox="0 0 467 197" enable-background="new 0 0 467 197" xml:space="preserve">
<g>
	<g>
		<path fill="#FFFFFF" d="M121.911,157.892c-0.365,0-0.72-0.169-0.949-0.472L37.808,47.206c-0.235-0.315-0.304-0.728-0.176-1.099
			c0.127-0.374,0.43-0.66,0.811-0.765l91.858-25.322c0.416-0.116,0.866,0.006,1.167,0.317l95.722,98.479
			c0.278,0.29,0.398,0.704,0.304,1.101c-0.093,0.396-0.379,0.715-0.762,0.85l-104.424,37.058
			C122.18,157.868,122.044,157.892,121.911,157.892z M40.763,47.171l81.572,108.118l101.853-36.146l-93.934-96.642L40.763,47.171z"
			/>
	</g>
	<g>
		<path fill="#FFFFFF" d="M121.762,183.902c-0.241,0-0.483-0.073-0.683-0.214c-0.319-0.224-0.511-0.593-0.506-0.983l0.146-26.012
			c0.006-0.501,0.319-0.945,0.794-1.114l104.422-37.057c0.403-0.143,0.854-0.058,1.178,0.222c0.325,0.277,0.476,0.712,0.389,1.132
			l-5.229,26.367c-0.079,0.407-0.367,0.739-0.756,0.885l-99.343,36.701C122.037,183.88,121.899,183.902,121.762,183.902z
			 M123.094,157.544l-0.131,23.457l97.106-35.874l4.69-23.66L123.094,157.544z"/>
	</g>
	<g>
		<path fill="#FFFFFF" d="M134.701,172.175c-0.252,0-0.503-0.079-0.71-0.235c-0.323-0.238-0.504-0.629-0.476-1.031l0.77-11.969
			c0.029-0.465,0.326-0.87,0.765-1.035l30.798-11.743c0.392-0.147,0.834-0.081,1.165,0.18c0.33,0.262,0.496,0.678,0.437,1.095
			l-1.722,12.663c-0.058,0.437-0.354,0.805-0.767,0.957l-29.845,11.045C134.981,172.15,134.84,172.175,134.701,172.175z
			 M136.612,159.856l-0.605,9.375l27.458-10.16l1.353-9.97L136.612,159.856z"/>
	</g>
	<g>
		<path fill="#FFFFFF" d="M121.762,183.902c-0.365,0-0.724-0.169-0.949-0.472L43.11,80.402c-0.118-0.155-0.197-0.337-0.227-0.529
			l-5.301-33.195c-0.083-0.542,0.208-1.071,0.711-1.284c0.5-0.214,1.084-0.058,1.416,0.379l83.149,110.211
			c0.159,0.208,0.245,0.464,0.242,0.724l-0.148,26.012c-0.004,0.511-0.336,0.962-0.816,1.123
			C122.013,183.884,121.884,183.902,121.762,183.902z M45.188,79.206l75.405,99.978l0.126-22.086L40.688,51.023L45.188,79.206z"/>
	</g>
</g>
<g>
	<g>
		<defs>
			<circle id="SVGID_1_" cx="348.731" cy="96.779" r="72.628"/>
		</defs>
		<clipPath id="SVGID_2_">
			<use xlink:href="#SVGID_1_"  overflow="visible"/>
		</clipPath>
		<g clip-path="url(#SVGID_2_)">
			<g>
				<polyline fill="none" stroke="#FFFFFF" stroke-miterlimit="10" points="492.469,297.832 476.646,307.505 376.788,125.049 				
					"/>
				<polyline fill="none" stroke="#FFFFFF" stroke-miterlimit="10" points="553.738,296.556 451.277,109.348 434.247,118.668 
					523.123,281.055 508.61,288.996 419.738,126.611 				"/>
				
					<rect x="343.524" y="69.16" transform="matrix(-0.8772 0.4801 -0.4801 -0.8772 718.5648 2.6057)" fill="#FFFFFF" width="30.85" height="48.041"/>
				
					<rect x="363.398" y="113.72" transform="matrix(-0.8772 0.4801 -0.4801 -0.8772 757.8544 46.0281)" fill="none" stroke="#FFFFFF" stroke-miterlimit="10" width="19.286" height="12.42"/>
				
					<rect x="330.239" y="52.409" transform="matrix(-0.8772 0.4801 -0.4801 -0.8772 672.2878 -45.9298)" fill="none" stroke="#FFFFFF" stroke-miterlimit="10" width="23.555" height="21.174"/>
				
					<rect x="548.718" y="302.65" transform="matrix(0.8772 -0.48 0.48 0.8772 -82.2354 309.5504)" fill="none" stroke="#FFFFFF" stroke-miterlimit="10" width="30.851" height="25.839"/>
				
					<rect x="547.119" y="297.73" transform="matrix(0.8773 -0.48 0.48 0.8773 -76.1818 304.2021)" fill="none" stroke="#FFFFFF" stroke-miterlimit="10" width="19.283" height="6.682"/>
				
					<rect x="562.336" y="325.841" transform="matrix(0.8772 -0.4801 0.4801 0.8772 -89.3941 316.4955)" fill="none" stroke="#FFFFFF" stroke-miterlimit="10" width="23.565" height="14.382"/>
				
					<rect x="342.588" y="57.693" transform="matrix(-0.4804 -0.8771 0.8771 -0.4804 459.5548 390.6271)" fill="none" stroke="#FFFFFF" stroke-miterlimit="10" width="5.812" height="2.971"/>
				
					<rect x="334.764" y="61.973" transform="matrix(-0.4804 -0.877 0.877 -0.4804 444.2416 390.0942)" fill="none" stroke="#FFFFFF" stroke-miterlimit="10" width="5.813" height="2.972"/>
				<line fill="none" stroke="#FFFFFF" stroke-miterlimit="10" x1="582.717" y1="336.525" x2="575.813" y2="323.908"/>
				<line fill="none" stroke="#FFFFFF" stroke-miterlimit="10" x1="573.044" y1="341.818" x2="566.14" y2="329.203"/>
			</g>
		</g>
		<use xlink:href="#SVGID_1_"  overflow="visible" fill="none" stroke="#FFFFFF" stroke-miterlimit="10"/>
	</g>
	<g>
		<circle fill="none" stroke="#FFFFFF" stroke-miterlimit="10" cx="348.731" cy="96.779" r="72.628"/>
		<path fill="none" stroke="#FFFFFF" stroke-miterlimit="10" d="M348.731,16.428c-44.377,0-80.351,35.975-80.351,80.352
			c0,44.376,35.974,80.351,80.351,80.351c44.38,0,80.351-35.975,80.351-80.351C429.082,52.402,393.111,16.428,348.731,16.428z"/>
	</g>
</g>
<g>
</g>
<g>
</g>
<g>
</g>
<g>
</g>
<g>
</g>
<g>
</g>
</svg>
