<?xml version="1.0" encoding="utf-8"?>
<!-- Generator: Adobe Illustrator 16.0.0, SVG Export Plug-In . SVG Version: 6.00 Build 0)  -->
<!DOCTYPE svg PUBLIC "-//W3C//DTD SVG 1.1//EN" "http://www.w3.org/Graphics/SVG/1.1/DTD/svg11.dtd">
<svg version="1.1" id="Capa_1" xmlns="http://www.w3.org/2000/svg" xmlns:xlink="http://www.w3.org/1999/xlink" x="0px" y="0px"
	 width="467px" height="197px" viewBox="0 0 467 197" enable-background="new 0 0 467 197" xml:space="preserve">
<g>
	<circle fill="none" stroke="#FFFFFF" stroke-miterlimit="10" cx="128.747" cy="93.611" r="86.345"/>
	<circle fill="none" stroke="#FFFFFF" stroke-miterlimit="10" cx="128.747" cy="93.611" r="78.044"/>
	<g>
		<polygon fill="#FFFFFF" points="129.719,57.358 185.039,55.887 185.039,137.894 127.781,137.894 127.781,127.99 177.423,128.244 
			176.632,63.726 129.719,61.474 		"/>
		<g>
			<polygon fill="#FFFFFF" points="127.781,54.876 127.781,57.688 183.897,57.688 183.897,136.753 127.781,136.753 127.781,139.566 
				186.708,139.566 186.708,54.876 			"/>
			<polygon fill="#FFFFFF" points="178.968,61.474 128.294,61.474 128.294,63.726 176.632,63.726 176.632,127.1 127.764,127.1 
				127.764,129.349 178.968,129.349 			"/>
			<rect x="127.781" y="144.686" fill="#FFFFFF" width="16.174" height="5.509"/>
			<path fill="#FFFFFF" d="M83.836,151.84h45.883V36.534H83.836V151.84z M86.189,38.889h41.181v110.597H86.189V38.889z"/>
			<path fill="#FFFFFF" d="M106.777,107.562c-5.08,0-9.213,4.132-9.213,9.214s4.132,9.211,9.213,9.211
				c5.084,0,9.214-4.129,9.214-9.211C115.991,111.697,111.861,107.562,106.777,107.562z M106.777,123.637
				c-3.78,0-6.86-3.08-6.86-6.861s3.08-6.864,6.86-6.864s6.862,3.083,6.862,6.864S110.558,123.637,106.777,123.637z"/>
			<path fill="#FFFFFF" d="M90.603,52.457h33.533v-9.71H90.603V52.457z M92.954,45.104h28.826v4.999H92.954V45.104z"/>
			<path fill="#FFFFFF" d="M97.564,86.574h18.427v-8.232H97.564V86.574z M99.917,80.693h13.725v3.53H99.917V80.693z"/>
		</g>
		<circle fill="#FFFFFF" cx="106.779" cy="116.773" r="7.813"/>
		<rect x="92.176" y="44.151" fill="#FFFFFF" width="30.7" height="7.085"/>
		<rect x="98.966" y="78.916" fill="#FFFFFF" width="15.626" height="7.086"/>
	</g>
</g>
<g>
	<g>
		<line fill="none" stroke="#FFFFFF" stroke-miterlimit="10" x1="299.94" y1="177.156" x2="321.27" y2="148.649"/>
		
			<rect x="326.128" y="110.404" transform="matrix(0.8007 0.5991 -0.5991 0.8007 143.7287 -176.5811)" fill="#FFFFFF" width="22.241" height="34.632"/>
		
			<rect x="317.516" y="140.904" transform="matrix(0.8005 0.5993 -0.5993 0.8005 151.8686 -165.4644)" fill="none" stroke="#FFFFFF" stroke-miterlimit="10" width="13.905" height="8.954"/>
		
			<rect x="343.917" y="100.267" transform="matrix(0.8008 0.5989 -0.5989 0.8008 134.8268 -189.5771)" fill="none" stroke="#FFFFFF" stroke-miterlimit="10" width="16.981" height="15.263"/>
		
			<rect x="348.218" y="103.748" transform="matrix(0.5996 -0.8003 0.8003 0.5996 56.3901 322.344)" fill="none" stroke="#FFFFFF" stroke-miterlimit="10" width="4.193" height="2.146"/>
		
			<rect x="353.366" y="107.602" transform="matrix(0.5987 -0.8009 0.8009 0.5987 55.5937 328.3142)" fill="none" stroke="#FFFFFF" stroke-miterlimit="10" width="4.192" height="2.142"/>
	</g>
	<polygon fill="none" stroke="#FFFFFF" stroke-miterlimit="10" points="356.554,87.085 356.279,94.54 378.202,102.329 
		378.319,94.633 	"/>
	<polygon fill="#FEFEFB" points="359.688,88.223 359.625,91.12 378.275,97.544 378.319,94.633 	"/>
	<polygon fill="#FEFEFB" points="364.901,92.456 360.17,94.311 363.371,95.544 368.534,93.343 	"/>
	<polygon fill="#FEFEFB" points="372.758,95.243 368.022,97.099 371.509,98.227 376.259,96.268 	"/>
	<line fill="none" stroke="#FFFFFF" stroke-miterlimit="10" x1="356.279" y1="94.54" x2="365.357" y2="91.014"/>
	<polyline fill="none" stroke="#FFFFFF" stroke-miterlimit="10" points="344.477,104.323 289.661,85.689 290.196,50.254 
		401.733,87.385 401.177,123.802 361.279,110.168 	"/>
	<line fill="none" stroke="#FFFFFF" stroke-miterlimit="10" x1="294.866" y1="51.811" x2="290.08" y2="57.96"/>
	<line fill="none" stroke="#FFFFFF" stroke-miterlimit="10" x1="303.448" y1="54.662" x2="289.866" y2="72.106"/>
	<line fill="none" stroke="#FFFFFF" stroke-miterlimit="10" x1="306.79" y1="55.776" x2="289.798" y2="76.559"/>
	<line fill="none" stroke="#FFFFFF" stroke-miterlimit="10" x1="309.542" y1="56.693" x2="289.731" y2="81.009"/>
	<line fill="none" stroke="#FFFFFF" stroke-miterlimit="10" x1="312.687" y1="57.741" x2="289.661" y2="85.689"/>
	<line fill="none" stroke="#FFFFFF" stroke-miterlimit="10" x1="316.666" y1="59.064" x2="292.911" y2="86.793"/>
	<line fill="none" stroke="#FFFFFF" stroke-miterlimit="10" x1="320.695" y1="61.012" x2="296.945" y2="88.166"/>
	<line fill="none" stroke="#FFFFFF" stroke-miterlimit="10" x1="325.725" y1="62.324" x2="301.971" y2="90.054"/>
	<line fill="none" stroke="#FFFFFF" stroke-miterlimit="10" x1="330.713" y1="63.901" x2="306.956" y2="91.63"/>
	<line fill="none" stroke="#FFFFFF" stroke-miterlimit="10" x1="335.906" y1="65.483" x2="312.148" y2="93.212"/>
	<line fill="none" stroke="#FFFFFF" stroke-miterlimit="10" x1="297.482" y1="52.68" x2="290.012" y2="62.446"/>
	<line fill="none" stroke="#FFFFFF" stroke-miterlimit="10" x1="300.908" y1="53.819" x2="289.938" y2="67.442"/>
	<line fill="none" stroke="#FFFFFF" stroke-miterlimit="10" x1="278.349" y1="2.704" x2="280.53" y2="167.846"/>
	<line fill="none" stroke="#FFFFFF" stroke-miterlimit="10" x1="415.7" y1="2.695" x2="416.49" y2="197"/>
</g>
<g>
</g>
<g>
</g>
<g>
</g>
<g>
</g>
<g>
</g>
<g>
</g>
</svg>
