<?xml version="1.0" encoding="utf-8"?>
<!-- Generator: Adobe Illustrator 16.0.0, SVG Export Plug-In . SVG Version: 6.00 Build 0)  -->
<!DOCTYPE svg PUBLIC "-//W3C//DTD SVG 1.1//EN" "http://www.w3.org/Graphics/SVG/1.1/DTD/svg11.dtd">
<svg version="1.1" id="Capa_1" xmlns="http://www.w3.org/2000/svg" xmlns:xlink="http://www.w3.org/1999/xlink" x="0px" y="0px"
	 width="467px" height="197px" viewBox="0 0 467 197" enable-background="new 0 0 467 197" xml:space="preserve">
<g>
	<circle fill="none" stroke="#FFFFFF" stroke-miterlimit="10" cx="98.163" cy="80.664" r="61.602"/>
	<g>
		<circle fill="none" stroke="#FFFFFF" stroke-miterlimit="10" cx="98.162" cy="80.664" r="68.154"/>
		<g>
			<defs>
				<circle id="SVGID_1_" cx="98.163" cy="80.664" r="61.602"/>
			</defs>
			<clipPath id="SVGID_2_">
				<use xlink:href="#SVGID_1_"  overflow="visible"/>
			</clipPath>
			<g clip-path="url(#SVGID_2_)">
				
					<polyline fill="none" stroke="#FFFFFF" stroke-width="3.4075" stroke-linecap="round" stroke-linejoin="round" stroke-miterlimit="10" points="
					101.239,86.279 101.239,223.171 88.787,223.171 88.787,104.429 78.176,104.429 78.176,223.171 66.371,223.171 66.371,104.429 
					54.491,103.857 54.491,237.273 				"/>
				
					<rect x="44.374" y="245.29" fill="none" stroke="#FFFFFF" stroke-width="3.4075" stroke-linecap="round" stroke-linejoin="round" stroke-miterlimit="10" width="19.788" height="30.815"/>
				
					<rect x="47.772" y="237.324" fill="none" stroke="#FFFFFF" stroke-width="3.4075" stroke-linecap="round" stroke-linejoin="round" stroke-miterlimit="10" width="12.373" height="7.966"/>
				
					<rect x="46.479" y="276.103" fill="none" stroke="#FFFFFF" stroke-width="1.2778" stroke-linecap="round" stroke-linejoin="round" stroke-miterlimit="10" width="15.111" height="13.585"/>
				
					<rect x="91.344" y="64.089" fill="none" stroke="#FFFFFF" stroke-width="3.4075" stroke-linecap="round" stroke-linejoin="round" stroke-miterlimit="10" width="19.788" height="16.575"/>
				
					<rect x="95.365" y="80.664" fill="none" stroke="#FFFFFF" stroke-width="3.4075" stroke-linecap="round" stroke-linejoin="round" stroke-miterlimit="10" width="12.367" height="4.286"/>
				
					<rect x="93.917" y="54.864" fill="none" stroke="#FFFFFF" stroke-width="1.2778" stroke-linecap="round" stroke-linejoin="round" stroke-miterlimit="10" width="15.114" height="9.227"/>
				
					<rect x="56.214" y="282.108" fill="none" stroke="#FFFFFF" stroke-width="0.5768" stroke-linecap="round" stroke-linejoin="round" stroke-miterlimit="10" width="1.907" height="3.729"/>
				
					<rect x="50.493" y="282.108" fill="none" stroke="#FFFFFF" stroke-width="0.5768" stroke-linecap="round" stroke-linejoin="round" stroke-miterlimit="10" width="1.907" height="3.729"/>
				
					<line fill="none" stroke="#FFFFFF" stroke-width="0.5768" stroke-linecap="round" stroke-linejoin="round" stroke-miterlimit="10" x1="105.237" y1="54.864" x2="105.237" y2="64.091"/>
				
					<line fill="none" stroke="#FFFFFF" stroke-width="0.5768" stroke-linecap="round" stroke-linejoin="round" stroke-miterlimit="10" x1="98.164" y1="54.864" x2="98.164" y2="64.091"/>
			</g>
		</g>
	</g>
</g>
<g>
	<g>
		<g>
			<g>
				<path fill="#FFFFFF" d="M289.15,141.317L289.15,141.317c-0.824-0.497-1.635-1.049-2.492-1.631
					c-0.72-0.488-1.479-1.007-2.329-1.545c-1.482-0.944-2.606-1.735-3.939-2.702c-3.996-2.91-7.938-5.932-11.749-8.851
					c-1.068-0.819-2.135-1.639-3.206-2.454c-3.083-2.353-6.268-4.718-9.35-7.004l-2.281-1.691c-3.632-2.701-7.228-5.683-8.912-9.196
					c-2.496-5.215,4.188-9.407,9.556-12.777c0.587-0.367,1.161-0.728,1.708-1.08c3.125-2.009,6.262-4.079,9.293-6.08l10.729-7.075
					c6.329-4.177,12.661-8.348,18.995-12.519c2.671-1.758,5.351-3.511,8.031-5.264c5.621-3.676,11.435-7.474,17.058-11.271
					c2.399-1.583,4.809-3.155,7.217-4.726c4.247-2.775,8.638-5.643,12.883-8.506c2.733-1.801,5.482-3.648,8.143-5.438
					c5.041-3.39,10.257-6.896,15.581-10.215l0.288-0.179c2.474-1.539,6.288-3.607,10.794-3.809
					c4.075-0.181,8.197,1.021,12.603,3.677c2.431,1.464,4.586,3.141,6.493,4.62c0.497,0.388,0.98,0.761,1.441,1.112l2.041,1.553
					c1.879,1.433,3.76,2.864,5.664,4.287l2.606,1.972c6.811,5.148,13.852,10.473,20.434,15.891c2.143,1.766,3.337,3.521,3.651,5.368
					c0.386,2.278-0.688,4.535-3.107,6.523c-2.588,2.137-5.615,4.101-8.541,6.003c-0.603,0.391-1.206,0.783-1.803,1.174
					c-2.658,1.748-5.345,3.489-8.035,5.231c-4.355,2.821-8.858,5.738-13.172,8.65l-86.552,57.805
					c-4.716,2.865-9.969,3.602-15.213,2.136C292.097,142.865,290.701,142.251,289.15,141.317z M387.169,21.388
					c-4.223-2.549-8.136-3.703-11.962-3.531c-4.216,0.187-7.865,2.171-10.241,3.648l-0.284,0.176
					c-5.313,3.314-10.522,6.814-15.557,10.201c-2.66,1.79-5.413,3.641-8.146,5.439c-4.246,2.865-8.642,5.734-12.891,8.509
					c-2.405,1.572-4.813,3.146-7.21,4.726c-5.622,3.795-11.438,7.599-17.063,11.273c-2.679,1.753-5.359,3.504-8.029,5.264
					c-6.335,4.169-12.665,8.341-18.994,12.518l-10.729,7.073c-3.034,2.003-6.172,4.076-9.302,6.086
					c-0.549,0.354-1.125,0.715-1.714,1.086c-5.47,3.431-11.672,7.322-9.327,12.218c1.546,3.227,4.614,5.933,8.744,9l2.279,1.692
					c3.084,2.288,6.273,4.654,9.36,7.011c1.07,0.817,2.139,1.633,3.207,2.453c3.807,2.919,7.744,5.938,11.734,8.84
					c1.321,0.961,2.436,1.743,3.901,2.676c0.856,0.544,1.623,1.065,2.349,1.561c0.849,0.575,1.651,1.12,2.457,1.605
					c1.477,0.892,2.799,1.475,4.289,1.889c4.9,1.37,9.828,0.673,14.251-2.012l86.532-57.796c4.319-2.916,8.827-5.836,13.184-8.659
					c2.689-1.74,5.374-3.481,8.032-5.228c0.599-0.395,1.203-0.785,1.806-1.176c2.908-1.892,5.913-3.843,8.473-5.955
					c2.275-1.869,3.286-3.984,2.926-6.12c-0.301-1.768-1.407-3.386-3.479-5.093c-6.571-5.411-13.606-10.731-20.41-15.876
					l-2.606-1.972c-1.902-1.42-3.786-2.853-5.67-4.287l-2.038-1.554c-0.464-0.352-0.946-0.727-1.449-1.116
					C391.704,24.492,389.562,22.83,387.169,21.388z"/>
			</g>
			<g>
				<g>
					<g>
						<path fill="#FFFFFF" d="M279.781,121.53l-7.836-5.682l2.725-1.528l5.635,1.876l2.199,3.808L279.781,121.53z M273.069,115.935
							l6.72,4.874l1.785-1.001l-1.884-3.267l-4.837-1.609L273.069,115.935z"/>
					</g>
				</g>
			</g>
			<g>
				<path fill="#FFFFFF" d="M259.73,106.612l-2.836-1.987c-0.241-0.172-0.247-0.424-0.009-0.558
					c0.237-0.133,0.625-0.103,0.868,0.071l2.769,1.946c0.088,0.039,0.891,0.434,1.646,0.005c0.754-0.427,0.266-0.962,0.159-1.065
					l-3.292-2.354c0.001,0.002-0.008,0.005-0.008,0.005l-0.055-0.037l-0.002-0.001l-0.567,0.319l-1.07-2.127l3.097,0.992
					l-0.578,0.321l0.001,0.004l0.043,0.031l-0.007,0.002l3.356,2.41c0.508,0.464,1.03,1.432-0.199,2.129
					C261.814,107.419,260.339,106.954,259.73,106.612z"/>
			</g>
			<g>
				<g>
					<path fill="#FFFFFF" d="M294.236,133.203l-3.499-2.554c-0.341-0.248-0.403-0.566-0.149-0.709
						c0.255-0.143,0.739-0.058,1.08,0.19l3.499,2.553c0.338,0.246,0.403,0.563,0.147,0.706
						C295.062,133.533,294.575,133.449,294.236,133.203z"/>
				</g>
				<g>
					<path fill="#FFFFFF" d="M291.979,129.166c0.255-0.144,0.737-0.06,1.078,0.189l3.497,2.55c0.338,0.246,0.407,0.564,0.148,0.707
						c-0.254,0.143-0.737,0.057-1.075-0.19l-3.498-2.551C291.791,129.624,291.723,129.309,291.979,129.166z"/>
				</g>
				<g>
					<path fill="#FFFFFF" d="M297.126,131.641l-3.499-2.551c-0.338-0.248-0.407-0.563-0.152-0.705
						c0.258-0.143,0.742-0.059,1.079,0.188l3.498,2.55c0.341,0.248,0.408,0.564,0.15,0.709
						C297.947,131.976,297.465,131.889,297.126,131.641z"/>
				</g>
			</g>
			<path fill="#FFFFFF" d="M309.621,136.087c1.615-1.113,3.229-2.229,4.84-3.345c5.08-3.516,10.332-7.15,15.633-10.646
				c3.583-2.365,7.159-4.731,10.735-7.1l18.254-12.077c0.497-0.326,49.753-32.618,59.21-38.732c2.26-1.461,5.883-4.394,4.783-7.626
				c-0.834-2.452-3.61-4.501-5.837-6.146c-1.454-1.072-2.84-2.159-4.183-3.211c-1.376-1.078-2.796-2.189-4.321-3.318l-0.143-0.104
				l-3.827,0.135L389.098,32.32l0.782-2.055c0.062-0.166,0.116-0.306-2.205-1.995c-1.486-1.089-2.848-2.094-4.218-3.107
				c-1.203-0.888-2.416-1.785-3.736-2.754c-0.238-0.174-0.485-0.36-0.739-0.552c-0.733-0.557-1.567-1.188-2.481-1.74
				c-2.452-1.478-4.812-1.908-7.219-1.317c-2.551,0.628-4.484,1.92-6.356,3.169c-0.591,0.393-1.173,0.78-1.765,1.14
				c-3.502,2.132-6.912,4.417-10.211,6.626c-1.2,0.802-2.397,1.605-3.596,2.4c-2.043,1.35-4.103,2.692-6.16,4.033l-2.681,1.748
				c-0.747,0.495-74.92,49.604-85.872,56.727c-2.388,1.552-5.341,3.664-6.981,6.229c-1.637,2.56,0.677,4.479,2.914,6.336l0.28,0.229
				c2.489,2.071,5.089,4.164,7.948,6.394c2.433,1.899,4.876,3.783,7.261,5.601l1.875,1.431c2.418,1.845,4.917,3.756,7.445,5.596
				c1.037,0.755,2.071,1.514,3.107,2.27c4.314,3.156,8.773,6.417,13.323,9.514c0.305,0.209,0.619,0.41,0.943,0.605
				c4.501,2.714,9.075,3.067,12.882,0.994C305.884,138.618,307.923,137.258,309.621,136.087z M303.068,139.415
				c-4.382,2.386-8.786,0.787-11.708-0.975c-0.311-0.188-0.613-0.382-0.905-0.581c-4.537-3.089-8.994-6.348-13.302-9.499
				c-1.036-0.757-2.073-1.517-3.109-2.27c-2.521-1.839-5.018-3.743-7.432-5.589l-1.876-1.432c-2.382-1.814-4.823-3.696-7.256-5.594
				c-2.853-2.227-5.447-4.313-7.932-6.38l-0.278-0.231c-2.184-1.809-4.245-3.519-2.797-5.783c1.582-2.473,4.462-4.528,6.795-6.048
				c10.953-7.123,85.13-56.233,85.876-56.726l2.677-1.746c2.06-1.342,4.119-2.686,6.163-4.037c1.203-0.796,2.402-1.598,3.602-2.403
				c3.291-2.204,6.693-4.484,10.181-6.606c0.602-0.365,1.192-0.76,1.793-1.161c1.804-1.203,3.671-2.448,6.04-3.031
				c2.086-0.514,4.086-0.133,6.296,1.202c0.879,0.529,1.694,1.148,2.415,1.692c0.256,0.194,0.506,0.385,0.746,0.561
				c1.321,0.967,2.531,1.862,3.734,2.75c1.373,1.016,2.733,2.02,4.27,3.143c1.464,1.066,1.842,1.427,1.936,1.533l-0.859,2.262
				l16.246,12.023l3.826-0.134c1.467,1.086,2.837,2.16,4.164,3.199c1.347,1.055,2.738,2.146,4.2,3.225
				c2.165,1.598,4.858,3.586,5.643,5.898c1.013,2.975-2.414,5.734-4.547,7.113c-9.463,6.117-58.719,38.409-59.216,38.736
				l-18.257,12.079c-3.575,2.366-7.15,4.733-10.732,7.098c-5.31,3.502-10.565,7.14-15.648,10.657
				c-1.613,1.115-3.223,2.231-4.839,3.345C307.294,136.864,305.278,138.211,303.068,139.415z"/>
			<path fill="#FFFFFF" d="M258.855,93.619l-0.273,0.18l50.386,39.119l105.184-69.096l0.278-0.183l-51.163-38.61L258.855,93.619z
				 M363.22,25.864l50.023,37.749l-104.218,68.464L259.76,93.83L363.22,25.864z"/>
			<g>
				<path fill="#FFFFFF" d="M422.872,52.896l-0.062-0.045l-8.428-6.555c-0.131-0.103-0.19-0.234-0.168-0.38
					c0.034-0.229,0.274-0.48,0.64-0.67c0.575-0.302,1.267-0.358,1.644-0.131l0.06,0.042l8.429,6.557
					c0.135,0.104,0.191,0.236,0.168,0.382c-0.036,0.23-0.274,0.479-0.64,0.668C423.938,53.067,423.248,53.121,422.872,52.896z
					 M415.878,45.514c0.004,0.015-0.215,0.034-0.466,0.166c-0.254,0.133-0.327,0.265-0.324,0.295l8.372,6.501
					c0.072,0,0.272-0.027,0.497-0.146c0.254-0.133,0.326-0.265,0.324-0.296L415.878,45.514z"/>
			</g>
			<g>
				<path fill="#FFFFFF" d="M415.629,56.75c-0.792-0.478-0.828-1.277-0.08-1.782c0.751-0.507,2.004-0.527,2.797-0.051
					c0.792,0.479,0.828,1.277,0.079,1.783C417.675,57.206,416.422,57.229,415.629,56.75z M417.741,55.323
					c-0.439-0.264-1.135-0.251-1.553,0.029c-0.417,0.281-0.396,0.725,0.046,0.991c0.439,0.265,1.134,0.252,1.551-0.028
					C418.203,56.034,418.182,55.591,417.741,55.323z"/>
			</g>
			<g>
				<path fill="#FFFFFF" d="M412.033,53.923c-0.521-0.314-0.545-0.839-0.052-1.171c0.492-0.333,1.316-0.346,1.838-0.032
					c0.518,0.313,0.541,0.839,0.048,1.172C413.377,54.223,412.554,54.236,412.033,53.923z M413.422,52.986
					c-0.29-0.173-0.749-0.165-1.021,0.019c-0.275,0.185-0.262,0.477,0.028,0.65c0.288,0.175,0.746,0.165,1.021-0.018
					C413.723,53.453,413.709,53.162,413.422,52.986z"/>
			</g>
			<g>
				<path fill="#FFFFFF" d="M269.182,122.384c-0.597-0.361-0.624-0.964-0.059-1.346c0.564-0.381,1.512-0.397,2.109-0.037
					c0.596,0.361,0.623,0.963,0.058,1.347C270.726,122.728,269.78,122.743,269.182,122.384z M270.628,121.408
					c-0.246-0.147-0.635-0.143-0.866,0.017c-0.232,0.155-0.222,0.404,0.024,0.552c0.244,0.147,0.634,0.14,0.865-0.016
					C270.884,121.803,270.873,121.556,270.628,121.408z"/>
			</g>
			<g>
				<path fill="#FFFFFF" d="M388.354,26.322l-0.031-0.018c-1.064-0.65-1.438-1.428-0.868-1.807c0.573-0.38,1.768-0.186,2.84,0.462
					c0.715,0.438,1.151,0.947,1.163,1.342c0.005,0.194-0.087,0.36-0.269,0.482C390.615,27.163,389.424,26.97,388.354,26.322z
					 M389.763,25.348c-0.81-0.49-1.572-0.596-1.726-0.495c-0.155,0.104,0.047,0.591,0.846,1.08l-0.251,0.202l0.275-0.187
					c0.785,0.475,1.546,0.579,1.698,0.478c0.041-0.027,0.046-0.084,0.046-0.115C390.644,26.099,390.367,25.719,389.763,25.348
					L389.763,25.348z"/>
			</g>
		</g>
		<polygon fill="#FFFFFF" points="277.477,130.249 277.498,132.105 280.297,134.151 282.268,133.696 		"/>
	</g>
	<g>
		<g>
			<path fill="#FFFFFF" d="M263.569,145.835c0.355,0.436,0.29,1.075-0.146,1.43l-47.739,38.895
				c-0.436,0.354-1.074,0.287-1.431-0.147l-3.537-4.343c-0.354-0.437-0.289-1.075,0.146-1.431l40.62-33.093l-1.728-2.124
				l-40.622,33.095c-0.434,0.353-1.077,0.288-1.432-0.147l-3.354-4.114c-0.354-0.438-0.29-1.078,0.147-1.434l40.659-33.123
				l-1.969-2.666l-45.7,37.233c-0.435,0.353-1.074,0.288-1.43-0.147c-0.354-0.436-0.291-1.079,0.145-1.432l46.527-37.907
				c0.215-0.176,0.494-0.254,0.771-0.22c0.275,0.035,0.524,0.182,0.69,0.408l3.176,4.303c0.322,0.438,0.245,1.05-0.177,1.392
				l-40.621,33.096l2.07,2.539l40.622-33.094c0.435-0.355,1.075-0.29,1.43,0.146l3.015,3.7c0.355,0.436,0.29,1.075-0.145,1.431
				l-40.623,33.095l2.254,2.765l46.95-38.251C262.576,145.335,263.215,145.4,263.569,145.835z"/>
		</g>
		<g>
			<path fill="#FFFFFF" d="M191.96,171.18l5.62,6.903c0.356,0.436,0.291,1.075-0.146,1.43l-10.747,8.756
				c-0.435,0.354-1.075,0.29-1.43-0.146l-5.623-6.902c-0.355-0.435-0.289-1.075,0.146-1.43l10.748-8.756
				C190.965,170.681,191.604,170.747,191.96,171.18z M195.362,178.577l-4.337-5.323l-9.17,7.472l4.339,5.325L195.362,178.577z"/>
		</g>
		<g>
			<path fill="#FFFFFF" d="M195.704,170.105l3.515,4.313c0.354,0.437,0.29,1.076-0.145,1.431l-2.781,2.264
				c-0.435,0.353-1.074,0.289-1.428-0.147l-3.517-4.313c-0.354-0.436-0.291-1.075,0.145-1.43l2.779-2.265
				C194.708,169.603,195.348,169.668,195.704,170.105z M197,174.914l-2.23-2.739l-1.202,0.98l2.229,2.738L197,174.914z"/>
		</g>
		<g>
			<path fill="#FFFFFF" d="M181.319,181.073l4.293,5.271c0.132,0.16,0.108,0.4-0.056,0.533l-4.736,3.861
				c-0.164,0.135-0.404,0.108-0.538-0.056l-4.293-5.269c-0.131-0.164-0.107-0.405,0.056-0.537l4.738-3.858
				C180.947,180.883,181.186,180.909,181.319,181.073z M184.781,186.527l-3.814-4.677l-4.145,3.376l3.812,4.679L184.781,186.527z"/>
		</g>
		<g>
			<path fill="#FFFFFF" d="M268.497,136.079l5.622,6.899c0.354,0.436,0.289,1.079-0.146,1.433l-5.779,4.709
				c-0.435,0.354-1.077,0.29-1.433-0.146l-5.62-6.901c-0.355-0.435-0.292-1.075,0.145-1.43l5.78-4.709
				C267.502,135.579,268.142,135.645,268.497,136.079z M271.902,143.475l-4.341-5.322l-4.202,3.424l4.337,5.324L271.902,143.475z"/>
		</g>
		<g>
			<path fill="#FFFFFF" d="M263.859,142.191l3.514,4.313c0.355,0.435,0.289,1.074-0.146,1.431l-1.495,1.217
				c-0.437,0.354-1.074,0.29-1.431-0.146l-3.513-4.313c-0.355-0.438-0.292-1.077,0.146-1.433l1.494-1.216
				C262.864,141.688,263.504,141.755,263.859,142.191z"/>
		</g>
		<g>
			<path fill="#FFFFFF" d="M271.951,134.758l4.295,5.271c0.133,0.163,0.106,0.404-0.054,0.534l-3.218,2.621
				c-0.165,0.135-0.404,0.108-0.537-0.052l-4.294-5.272c-0.132-0.163-0.108-0.401,0.056-0.536l3.215-2.62
				C271.58,134.569,271.819,134.595,271.951,134.758z M275.416,140.215l-3.814-4.68l-2.627,2.138l3.813,4.683L275.416,140.215z"/>
		</g>
		<g>
			<path fill="#FFFFFF" d="M181.828,186.307l0.542,0.664c0.061,0.075,0.049,0.182-0.023,0.24l-1.301,1.06
				c-0.072,0.06-0.181,0.053-0.242-0.022l-0.542-0.666c-0.063-0.072-0.05-0.182,0.023-0.241l1.302-1.061
				C181.659,186.222,181.768,186.232,181.828,186.307z M181.993,187.056l-0.324-0.399l-1.033,0.843l0.324,0.396L181.993,187.056z"/>
		</g>
		<g>
			<path fill="#FFFFFF" d="M180.201,184.313l0.543,0.662c0.061,0.076,0.049,0.185-0.026,0.244l-1.299,1.057
				c-0.075,0.06-0.182,0.05-0.241-0.023l-0.543-0.665c-0.06-0.072-0.048-0.182,0.026-0.244l1.299-1.057
				C180.035,184.227,180.142,184.237,180.201,184.313z M180.368,185.061l-0.325-0.398l-1.032,0.842l0.326,0.398L180.368,185.061z"/>
		</g>
		<g>
			<path fill="#FFFFFF" d="M275.007,138.837c0.061,0.074,0.048,0.184-0.023,0.242l-3.221,2.621c-0.071,0.061-0.182,0.049-0.24-0.023
				c-0.062-0.074-0.049-0.182,0.022-0.244l3.219-2.621C274.837,138.752,274.947,138.764,275.007,138.837z"/>
		</g>
		<g>
			<path fill="#FFFFFF" d="M272.996,136.369c0.061,0.073,0.051,0.185-0.022,0.243l-3.22,2.621c-0.072,0.06-0.182,0.048-0.24-0.024
				c-0.063-0.075-0.05-0.183,0.024-0.244l3.218-2.618C272.83,136.287,272.938,136.297,272.996,136.369z"/>
		</g>
	</g>
</g>
<g>
</g>
<g>
</g>
<g>
</g>
<g>
</g>
<g>
</g>
<g>
</g>
</svg>
