<?xml version="1.0" encoding="utf-8"?>
<!-- Generator: Adobe Illustrator 16.0.0, SVG Export Plug-In . SVG Version: 6.00 Build 0)  -->
<!DOCTYPE svg PUBLIC "-//W3C//DTD SVG 1.1//EN" "http://www.w3.org/Graphics/SVG/1.1/DTD/svg11.dtd">
<svg version="1.1" id="Capa_1" xmlns="http://www.w3.org/2000/svg" xmlns:xlink="http://www.w3.org/1999/xlink" x="0px" y="0px"
	 width="191px" height="177px" viewBox="0 0 191 177" enable-background="new 0 0 191 177" xml:space="preserve">
<g>
	<path fill="#FFFFFF" d="M171.142,107.929h11.454V75.212h-11.454V55.656c0-5.01-4.082-9.085-9.1-9.085H21.491
		c-5.011,0-9.086,4.076-9.086,9.085v71.815c0,5.018,4.076,9.1,9.086,9.1h140.551c5.019,0,9.1-4.082,9.1-9.1V107.929z
		 M171.142,79.287h7.379v24.566h-7.379V79.287z M167.067,127.471c0,2.771-2.254,5.025-5.025,5.025H53.708V50.645h108.334
		c2.771,0,5.025,2.249,5.025,5.011V127.471z"/>
</g>
<g>
</g>
<g>
</g>
<g>
</g>
<g>
</g>
<g>
</g>
<g>
</g>
</svg>
