<?xml version="1.0" encoding="utf-8"?>
<!-- Generator: Adobe Illustrator 16.0.0, SVG Export Plug-In . SVG Version: 6.00 Build 0)  -->
<!DOCTYPE svg PUBLIC "-//W3C//DTD SVG 1.1//EN" "http://www.w3.org/Graphics/SVG/1.1/DTD/svg11.dtd">
<svg version="1.1" id="Capa_1" xmlns="http://www.w3.org/2000/svg" xmlns:xlink="http://www.w3.org/1999/xlink" x="0px" y="0px"
	 width="191px" height="177px" viewBox="0 0 191 177" enable-background="new 0 0 191 177" xml:space="preserve">
<g>
	<g>
		<path fill="#FFFFFF" d="M114.643,63.903c-1.217,0-2.188-0.983-2.188-2.19s0.971-2.189,2.188-2.189c1.209,0,2.18,0.982,2.18,2.189
			S115.852,63.903,114.643,63.903L114.643,63.903z M114.643,63.903"/>
		<path fill="#FFFFFF" d="M121.203,70.463c-1.207,0-2.189-0.973-2.189-2.19c0-1.207,0.982-2.179,2.189-2.179
			s2.189,0.972,2.189,2.179C123.393,69.49,122.41,70.463,121.203,70.463L121.203,70.463z M121.203,70.463"/>
		<path fill="#FFFFFF" d="M108.074,70.463c-1.207,0-2.189-0.973-2.189-2.19c0-1.207,0.982-2.179,2.189-2.179
			s2.189,0.972,2.189,2.179C110.264,69.49,109.281,70.463,108.074,70.463L108.074,70.463z M108.074,70.463"/>
		<path fill="#FFFFFF" d="M114.643,77.032c-1.217,0-2.188-0.983-2.188-2.19s0.971-2.189,2.188-2.189c1.209,0,2.18,0.982,2.18,2.189
			S115.852,77.032,114.643,77.032L114.643,77.032z M114.643,77.032"/>
		<path fill="#FFFFFF" d="M108.074,83.592c-1.207,0-2.189-0.983-2.189-2.19s0.982-2.19,2.189-2.19s2.189,0.983,2.189,2.19
			S109.281,83.592,108.074,83.592L108.074,83.592z M108.074,83.592"/>
		<path fill="#FFFFFF" d="M101.516,63.903c-1.209,0-2.191-0.983-2.191-2.19s0.982-2.189,2.191-2.189
			c1.207,0,2.189,0.982,2.189,2.189S102.723,63.903,101.516,63.903L101.516,63.903z M101.516,63.903"/>
		<path fill="#FFFFFF" d="M88.387,63.903c-1.207,0-2.189-0.983-2.189-2.19s0.982-2.189,2.189-2.189s2.189,0.982,2.189,2.189
			S89.594,63.903,88.387,63.903L88.387,63.903z M88.387,63.903"/>
		<path fill="#FFFFFF" d="M94.945,70.463c-1.207,0-2.18-0.973-2.18-2.19c0-1.207,0.973-2.179,2.18-2.179
			c1.217,0,2.189,0.972,2.189,2.179C97.135,69.49,96.162,70.463,94.945,70.463L94.945,70.463z M94.945,70.463"/>
		<path fill="#FFFFFF" d="M81.826,70.463c-1.217,0-2.188-0.973-2.188-2.19c0-1.207,0.971-2.179,2.188-2.179
			c1.209,0,2.18,0.972,2.18,2.179C84.006,69.49,83.035,70.463,81.826,70.463L81.826,70.463z M81.826,70.463"/>
		<path fill="#FFFFFF" d="M101.516,77.032c-1.209,0-2.191-0.983-2.191-2.19s0.982-2.189,2.191-2.189
			c1.207,0,2.189,0.982,2.189,2.189S102.723,77.032,101.516,77.032L101.516,77.032z M101.516,77.032"/>
		<path fill="#FFFFFF" d="M88.387,77.032c-1.207,0-2.189-0.983-2.189-2.19s0.982-2.189,2.189-2.189s2.189,0.982,2.189,2.189
			S89.594,77.032,88.387,77.032L88.387,77.032z M88.387,77.032"/>
		<path fill="#FFFFFF" d="M88.387,90.15c-1.207,0-2.189-0.973-2.189-2.18c0-1.218,0.982-2.189,2.189-2.189s2.189,0.972,2.189,2.189
			C90.576,89.178,89.594,90.15,88.387,90.15L88.387,90.15z M88.387,90.15"/>
		<path fill="#FFFFFF" d="M94.945,83.592c-1.207,0-2.18-0.983-2.18-2.19s0.973-2.19,2.18-2.19c1.217,0,2.189,0.983,2.189,2.19
			S96.162,83.592,94.945,83.592L94.945,83.592z M94.945,83.592"/>
		<path fill="#FFFFFF" d="M84.006,129.536c-1.207,0-2.18-0.982-2.18-2.189c0-1.208,0.973-2.19,2.18-2.19
			c1.219,0,2.191,0.982,2.191,2.19C86.197,128.554,85.225,129.536,84.006,129.536L84.006,129.536z M84.006,129.536"/>
		<path fill="#FFFFFF" d="M68.699,133.905c-1.209,0-2.191-0.972-2.191-2.179c0-1.218,0.982-2.19,2.191-2.19
			c1.205,0,2.189,0.973,2.189,2.19C70.889,132.934,69.904,133.905,68.699,133.905L68.699,133.905z M68.699,133.905"/>
		<path fill="#FFFFFF" d="M77.447,133.905c-1.207,0-2.189-0.972-2.189-2.179c0-1.218,0.982-2.19,2.189-2.19s2.191,0.973,2.191,2.19
			C79.639,132.934,78.654,133.905,77.447,133.905L77.447,133.905z M77.447,133.905"/>
		<path fill="#FFFFFF" d="M62.129,138.285c-1.207,0-2.18-0.982-2.18-2.189s0.973-2.19,2.18-2.19c1.217,0,2.189,0.983,2.189,2.19
			S63.346,138.285,62.129,138.285L62.129,138.285z M62.129,138.285"/>
		<path fill="#FFFFFF" d="M55.568,140.475c-1.205,0-2.188-0.982-2.188-2.189s0.982-2.189,2.188-2.189
			c1.209,0,2.191,0.982,2.191,2.189S56.777,140.475,55.568,140.475L55.568,140.475z M55.568,140.475"/>
		<path fill="#FFFFFF" d="M46.82,147.034c-1.207,0-2.189-0.972-2.189-2.19c0-1.207,0.982-2.179,2.189-2.179s2.189,0.972,2.189,2.179
			C49.01,146.063,48.027,147.034,46.82,147.034L46.82,147.034z M46.82,147.034"/>
		<path fill="#FFFFFF" d="M68.699,142.665c-1.209,0-2.191-0.982-2.191-2.19c0-1.207,0.982-2.189,2.191-2.189
			c1.205,0,2.189,0.982,2.189,2.189C70.889,141.683,69.904,142.665,68.699,142.665L68.699,142.665z M68.699,142.665"/>
		<path fill="#FFFFFF" d="M77.447,142.665c-1.207,0-2.189-0.982-2.189-2.19c0-1.207,0.982-2.189,2.189-2.189
			s2.191,0.982,2.191,2.189C79.639,141.683,78.654,142.665,77.447,142.665L77.447,142.665z M77.447,142.665"/>
		<path fill="#FFFFFF" d="M59.949,147.034c-1.219,0-2.189-0.972-2.189-2.19c0-1.207,0.971-2.179,2.189-2.179
			c1.207,0,2.18,0.972,2.18,2.179C62.129,146.063,61.156,147.034,59.949,147.034L59.949,147.034z M59.949,147.034"/>
		<path fill="#FFFFFF" d="M46.82,140.475c-1.207,0-2.189-0.982-2.189-2.189s0.982-2.189,2.189-2.189s2.189,0.982,2.189,2.189
			S48.027,140.475,46.82,140.475L46.82,140.475z M46.82,140.475"/>
		<path fill="#FFFFFF" d="M53.381,151.414c-1.209,0-2.191-0.982-2.191-2.189s0.982-2.19,2.191-2.19c1.205,0,2.188,0.983,2.188,2.19
			S54.586,151.414,53.381,151.414L53.381,151.414z M53.381,151.414"/>
		<path fill="#FFFFFF" d="M38.072,149.225c-1.219,0-2.189-0.983-2.189-2.19s0.971-2.19,2.189-2.19c1.207,0,2.178,0.983,2.178,2.19
			S39.279,149.225,38.072,149.225L38.072,149.225z M38.072,149.225"/>
		<path fill="#FFFFFF" d="M81.826,83.592c-1.217,0-2.188-0.983-2.188-2.19s0.971-2.19,2.188-2.19c1.209,0,2.18,0.983,2.18,2.19
			S83.035,83.592,81.826,83.592L81.826,83.592z M81.826,83.592"/>
		<path fill="#FFFFFF" d="M75.258,63.903c-1.207,0-2.191-0.983-2.191-2.19s0.984-2.189,2.191-2.189s2.189,0.982,2.189,2.189
			S76.465,63.903,75.258,63.903L75.258,63.903z M75.258,63.903"/>
		<path fill="#FFFFFF" d="M62.129,63.903c-1.207,0-2.18-0.983-2.18-2.19s0.973-2.189,2.18-2.189c1.217,0,2.189,0.982,2.189,2.189
			S63.346,63.903,62.129,63.903L62.129,63.903z M62.129,63.903"/>
		<path fill="#FFFFFF" d="M68.699,70.463c-1.209,0-2.191-0.973-2.191-2.19c0-1.207,0.982-2.179,2.191-2.179
			c1.205,0,2.189,0.972,2.189,2.179C70.889,69.49,69.904,70.463,68.699,70.463L68.699,70.463z M68.699,70.463"/>
		<path fill="#FFFFFF" d="M55.568,70.463c-1.205,0-2.188-0.973-2.188-2.19c0-1.207,0.982-2.179,2.188-2.179
			c1.209,0,2.191,0.972,2.191,2.179C57.76,69.49,56.777,70.463,55.568,70.463L55.568,70.463z M55.568,70.463"/>
		<path fill="#FFFFFF" d="M75.258,77.032c-1.207,0-2.191-0.983-2.191-2.19s0.984-2.189,2.191-2.189s2.189,0.982,2.189,2.189
			S76.465,77.032,75.258,77.032L75.258,77.032z M75.258,77.032"/>
		<path fill="#FFFFFF" d="M75.258,90.15c-1.207,0-2.191-0.973-2.191-2.18c0-1.218,0.984-2.189,2.191-2.189s2.189,0.972,2.189,2.189
			C77.447,89.178,76.465,90.15,75.258,90.15L75.258,90.15z M75.258,90.15"/>
		<path fill="#FFFFFF" d="M62.129,77.032c-1.207,0-2.18-0.983-2.18-2.19s0.973-2.189,2.18-2.189c1.217,0,2.189,0.982,2.189,2.189
			S63.346,77.032,62.129,77.032L62.129,77.032z M62.129,77.032"/>
		<path fill="#FFFFFF" d="M62.129,90.15c-1.207,0-2.18-0.973-2.18-2.18c0-1.218,0.973-2.189,2.18-2.189
			c1.217,0,2.189,0.972,2.189,2.189C64.318,89.178,63.346,90.15,62.129,90.15L62.129,90.15z M62.129,90.15"/>
		<path fill="#FFFFFF" d="M68.699,83.592c-1.209,0-2.191-0.983-2.191-2.19s0.982-2.19,2.191-2.19c1.205,0,2.189,0.983,2.189,2.19
			S69.904,83.592,68.699,83.592L68.699,83.592z M68.699,83.592"/>
		<path fill="#FFFFFF" d="M68.699,96.72c-1.209,0-2.191-0.982-2.191-2.189c0-1.208,0.982-2.19,2.191-2.19
			c1.205,0,2.189,0.982,2.189,2.19C70.889,95.737,69.904,96.72,68.699,96.72L68.699,96.72z M68.699,96.72"/>
		<path fill="#FFFFFF" d="M55.568,83.592c-1.205,0-2.188-0.983-2.188-2.19s0.982-2.19,2.188-2.19c1.209,0,2.191,0.983,2.191,2.19
			S56.777,83.592,55.568,83.592L55.568,83.592z M55.568,83.592"/>
		<path fill="#FFFFFF" d="M55.568,96.72c-1.205,0-2.188-0.982-2.188-2.189c0-1.208,0.982-2.19,2.188-2.19
			c1.209,0,2.191,0.982,2.191,2.19C57.76,95.737,56.777,96.72,55.568,96.72L55.568,96.72z M55.568,96.72"/>
		<path fill="#FFFFFF" d="M75.258,116.408c-1.207,0-2.191-0.983-2.191-2.19s0.984-2.19,2.191-2.19s2.189,0.983,2.189,2.19
			S76.465,116.408,75.258,116.408L75.258,116.408z M75.258,116.408"/>
		<path fill="#FFFFFF" d="M62.129,103.279c-1.207,0-2.18-0.973-2.18-2.19c0-1.207,0.973-2.179,2.18-2.179
			c1.217,0,2.189,0.972,2.189,2.179C64.318,102.307,63.346,103.279,62.129,103.279L62.129,103.279z M62.129,103.279"/>
		<path fill="#FFFFFF" d="M62.129,116.408c-1.207,0-2.18-0.983-2.18-2.19s0.973-2.19,2.18-2.19c1.217,0,2.189,0.983,2.189,2.19
			S63.346,116.408,62.129,116.408L62.129,116.408z M62.129,116.408"/>
		<path fill="#FFFFFF" d="M68.699,109.849c-1.209,0-2.191-0.982-2.191-2.19c0-1.207,0.982-2.189,2.191-2.189
			c1.205,0,2.189,0.982,2.189,2.189C70.889,108.866,69.904,109.849,68.699,109.849L68.699,109.849z M68.699,109.849"/>
		<path fill="#FFFFFF" d="M55.568,109.849c-1.205,0-2.188-0.982-2.188-2.19c0-1.207,0.982-2.189,2.188-2.189
			c1.209,0,2.191,0.982,2.191,2.189C57.76,108.866,56.777,109.849,55.568,109.849L55.568,109.849z M55.568,109.849"/>
		<path fill="#FFFFFF" d="M49.01,63.903c-1.217,0-2.189-0.983-2.189-2.19s0.973-2.189,2.189-2.189c1.209,0,2.18,0.982,2.18,2.189
			S50.219,63.903,49.01,63.903L49.01,63.903z M49.01,63.903"/>
		<path fill="#FFFFFF" d="M42.441,70.463c-1.207,0-2.191-0.973-2.191-2.19c0-1.207,0.984-2.179,2.191-2.179s2.189,0.972,2.189,2.179
			C44.631,69.49,43.648,70.463,42.441,70.463L42.441,70.463z M42.441,70.463"/>
		<path fill="#FFFFFF" d="M49.01,77.032c-1.217,0-2.189-0.983-2.189-2.19s0.973-2.189,2.189-2.189c1.209,0,2.18,0.982,2.18,2.189
			S50.219,77.032,49.01,77.032L49.01,77.032z M49.01,77.032"/>
		<path fill="#FFFFFF" d="M49.01,90.15c-1.217,0-2.189-0.973-2.189-2.18c0-1.218,0.973-2.189,2.189-2.189
			c1.209,0,2.18,0.972,2.18,2.189C51.189,89.178,50.219,90.15,49.01,90.15L49.01,90.15z M49.01,90.15"/>
		<path fill="#FFFFFF" d="M42.441,83.592c-1.207,0-2.191-0.983-2.191-2.19s0.984-2.19,2.191-2.19s2.189,0.983,2.189,2.19
			S43.648,83.592,42.441,83.592L42.441,83.592z M42.441,83.592"/>
		<path fill="#FFFFFF" d="M42.441,96.72c-1.207,0-2.191-0.982-2.191-2.189c0-1.208,0.984-2.19,2.191-2.19s2.189,0.982,2.189,2.19
			C44.631,95.737,43.648,96.72,42.441,96.72L42.441,96.72z M42.441,96.72"/>
		<path fill="#FFFFFF" d="M49.01,103.279c-1.217,0-2.189-0.973-2.189-2.19c0-1.207,0.973-2.179,2.189-2.179
			c1.209,0,2.18,0.972,2.18,2.179C51.189,102.307,50.219,103.279,49.01,103.279L49.01,103.279z M49.01,103.279"/>
		<path fill="#FFFFFF" d="M49.01,116.408c-1.217,0-2.189-0.983-2.189-2.19s0.973-2.19,2.189-2.19c1.209,0,2.18,0.983,2.18,2.19
			S50.219,116.408,49.01,116.408L49.01,116.408z M49.01,116.408"/>
		<path fill="#FFFFFF" d="M42.441,109.849c-1.207,0-2.191-0.982-2.191-2.19c0-1.207,0.984-2.189,2.191-2.189
			s2.189,0.982,2.189,2.189C44.631,108.866,43.648,109.849,42.441,109.849L42.441,109.849z M42.441,109.849"/>
	</g>
	<path fill="#FFFFFF" d="M155.57,98.271h8.748V73.292h-8.748V58.349c0-3.823-3.115-6.935-6.945-6.935H41.275
		c-3.828,0-6.943,3.111-6.943,6.935v54.854c0,3.829,3.115,6.945,6.943,6.945h39.943l7.168-4.137l7.168,4.137h53.07
		c3.83,0,6.945-3.116,6.945-6.945V98.271z M155.57,76.393h5.646V95.17h-5.646V76.393z M152.469,113.203
		c0,2.119-1.725,3.844-3.844,3.844h-52.25l-6.438-3.721v-5.023l5.65-5.663h5.928c0.854,0,1.549-0.696,1.549-1.551
		c0-0.849-0.695-1.54-1.549-1.54h-5.02V94.53c0-0.854-0.695-1.551-1.551-1.551c-0.85,0-1.539,0.696-1.539,1.551v5.927l-5.264,5.25
		l-9.145-5.496V96.72c0-0.854-0.695-1.55-1.551-1.55s-1.551,0.695-1.551,1.55v2.829h-2.83c-0.848,0-1.539,0.691-1.539,1.54
		c0,0.854,0.691,1.551,1.539,1.551h3.949l9.82,5.896v4.79l-6.439,3.721H41.275c-2.119,0-3.844-1.725-3.844-3.844V58.349
		c0-1.658,1.072-3.118,2.666-3.632l0.771-0.249l0.063,0.81c0.061,0.808,0.711,1.417,1.51,1.417c0.854,0,1.549-0.691,1.549-1.54
		v-0.64H54.02v0.64c0,0.849,0.695,1.54,1.549,1.54c0.855,0,1.553-0.691,1.553-1.54v-0.64h10.027v0.64c0,0.849,0.695,1.54,1.551,1.54
		c0.854,0,1.549-0.691,1.549-1.54v-0.64h10.029v0.64c0,0.849,0.695,1.54,1.549,1.54c0.85,0,1.541-0.691,1.541-1.54v-0.64h10.039
		v0.64c0,0.849,0.689,1.54,1.539,1.54c0.855,0,1.551-0.691,1.551-1.54v-0.64h10.027v0.64c0,0.849,0.695,1.54,1.551,1.54
		s1.551-0.691,1.551-1.54v-0.64h10.027v0.64c0,0.849,0.695,1.54,1.551,1.54s1.551-0.691,1.551-1.54v-0.64h25.871
		c2.119,0,3.844,1.72,3.844,3.834V113.203z"/>
</g>
<g>
</g>
<g>
</g>
<g>
</g>
<g>
</g>
<g>
</g>
<g>
</g>
</svg>
