<?xml version="1.0" encoding="utf-8"?>
<!-- Generator: Adobe Illustrator 16.0.0, SVG Export Plug-In . SVG Version: 6.00 Build 0)  -->
<!DOCTYPE svg PUBLIC "-//W3C//DTD SVG 1.1//EN" "http://www.w3.org/Graphics/SVG/1.1/DTD/svg11.dtd">
<svg version="1.1" id="Capa_1" xmlns="http://www.w3.org/2000/svg" xmlns:xlink="http://www.w3.org/1999/xlink" x="0px" y="0px"
	 width="191px" height="177px" viewBox="0 0 191 177" enable-background="new 0 0 191 177" xml:space="preserve">
<g>
	<path fill="#FFFFFF" d="M159.193,55.697h-6.949v-14.21c0-2.417-1.971-4.388-4.389-4.388c-2.422,0-4.387,1.971-4.387,4.388v14.21
		h-7.693v-14.21c0-2.417-1.971-4.388-4.387-4.388c-2.422,0-4.389,1.971-4.389,4.388v14.21h-6.955c-1.027,0-1.861,0.833-1.861,1.866
		c0,1.028,0.834,1.861,1.861,1.861h2.098v15.617c0,8.606,7.006,15.612,15.613,15.612h0.037v19.335
		c0,12.896-10.488,23.382-23.379,23.382h-0.787c-12.891,0-23.377-10.486-23.377-23.382V93.008c0.016-0.053,0.023-0.109,0.02-0.168
		c-0.004-0.064-0.014-0.123-0.02-0.186v-1.478c-0.074,0.028-0.148,0.052-0.225,0.079c-0.65-2.701-2.27-3.617-2.35-3.66
		c-0.236-0.13-0.531-0.041-0.66,0.194c-0.131,0.236-0.045,0.534,0.189,0.667c0.064,0.035,1.361,0.8,1.889,3.115
		c-0.105,0.033-0.211,0.064-0.318,0.096c-0.695-2.453-2.191-3.295-2.268-3.336c-0.236-0.129-0.531-0.041-0.662,0.195
		c-0.129,0.236-0.043,0.533,0.191,0.666c0.061,0.034,1.215,0.712,1.791,2.725c-0.08,0.02-0.158,0.04-0.236,0.058
		c-0.754-1.871-1.939-2.545-2.01-2.582c-0.236-0.129-0.531-0.04-0.66,0.195c-0.131,0.236-0.045,0.534,0.189,0.666
		c0.053,0.028,0.893,0.521,1.498,1.901c-0.031,0.004-0.061,0.012-0.092,0.016v17.817c0,14.946,12.162,27.11,27.109,27.11h0.783
		c14.947,0,27.109-12.164,27.109-27.11V90.654c8.594-0.019,15.58-7.015,15.58-15.612V59.425h2.094c1.033,0,1.867-0.833,1.867-1.861
		C161.061,56.53,160.227,55.697,159.193,55.697z M147.195,41.487c0-0.364,0.297-0.661,0.66-0.661c0.365,0,0.66,0.297,0.66,0.661
		v14.21h-1.32V41.487z M130.729,41.487c0-0.364,0.295-0.661,0.66-0.661c0.363,0,0.66,0.297,0.66,0.661v14.21h-1.32V41.487z
		 M153.367,75.042c0,6.55-5.328,11.884-11.883,11.884h-3.729c-6.555,0-11.885-5.334-11.885-11.884V59.425h27.496V75.042z"/>
	<path fill="#FFFFFF" d="M86.518,80.648c0.076,0.006,0.152,0.01,0.229,0.016c0.395,3.279,1.939,4.358,2.01,4.405
		c0.074,0.051,0.16,0.075,0.244,0.075c0.143,0,0.283-0.068,0.367-0.195c0.137-0.202,0.082-0.477-0.119-0.611
		c-0.016-0.01-1.234-0.869-1.605-3.617c0.059,0.004,0.117,0.006,0.174,0.009c0.525,2.652,1.818,3.56,1.881,3.603
		c0.076,0.051,0.162,0.076,0.246,0.076c0.143,0,0.281-0.069,0.367-0.195c0.135-0.203,0.082-0.477-0.121-0.612
		c-0.012-0.008-0.998-0.697-1.469-2.828c0.045,0.002,0.09,0.004,0.133,0.006c0.605,1.801,1.537,2.456,1.592,2.493
		c0.074,0.05,0.16,0.074,0.244,0.074c0.143,0,0.281-0.068,0.367-0.195c0.135-0.201,0.082-0.476-0.121-0.611
		c-0.01-0.007-0.643-0.453-1.135-1.721c0.148,0.006,0.299,0.013,0.449,0.02V68.441c0-14.947-12.156-27.105-27.105-27.105
		c-14.947,0-27.109,12.158-27.109,27.105v39.932h-3.682c-0.877,0-1.592,0.714-1.592,1.592v14.889c0,0.878,0.715,1.592,1.592,1.592
		h0.063v6.679c0,0.878,0.713,1.593,1.592,1.593h8.271c0.877,0,1.592-0.715,1.592-1.593v-6.679h0.063
		c0.879,0,1.592-0.714,1.592-1.592v-14.889c0-0.878-0.713-1.592-1.592-1.592h-4.17V68.441c0-12.891,10.486-23.377,23.377-23.377
		s23.377,10.486,23.377,23.377V80.648z M40.686,131.531H35.6v-5.086h5.086V131.531z M42.34,111.559v11.702h-8.393v-11.702H42.34z"/>
	<path fill="#FFFFFF" d="M92.01,87.174h3c0.244,0,0.441-0.197,0.441-0.44s-0.197-0.44-0.441-0.44h-3
		c-0.244,0-0.441,0.197-0.441,0.44S91.766,87.174,92.01,87.174z"/>
	<path fill="#FFFFFF" d="M92.01,84.843c0.113,0,0.225-0.043,0.313-0.129l2.121-2.122c0.172-0.172,0.172-0.451,0-0.624
		c-0.172-0.171-0.451-0.171-0.623,0l-2.123,2.122c-0.172,0.172-0.172,0.451,0,0.624C91.783,84.8,91.896,84.843,92.01,84.843z"/>
	<path fill="#FFFFFF" d="M91.697,88.754c-0.172,0.172-0.172,0.451,0,0.623l2.123,2.122c0.086,0.086,0.199,0.129,0.311,0.129
		c0.113,0,0.227-0.043,0.313-0.129c0.172-0.172,0.172-0.451,0-0.624l-2.121-2.121C92.148,88.582,91.871,88.582,91.697,88.754z"/>
	<path fill="#FFFFFF" d="M83.814,86.293h-3c-0.244,0-0.441,0.197-0.441,0.44s0.197,0.441,0.441,0.441h3
		c0.244,0,0.441-0.198,0.441-0.441S84.059,86.293,83.814,86.293z"/>
	<path fill="#FFFFFF" d="M83.504,88.754l-2.123,2.121c-0.172,0.173-0.172,0.452,0,0.624c0.086,0.086,0.199,0.129,0.313,0.129
		s0.225-0.043,0.313-0.129l2.121-2.122c0.172-0.172,0.172-0.451,0-0.623S83.676,88.582,83.504,88.754z"/>
	<path fill="#FFFFFF" d="M81.381,81.968c-0.172,0.173-0.172,0.452,0,0.624l2.123,2.122c0.086,0.086,0.199,0.129,0.311,0.129
		c0.113,0,0.227-0.043,0.313-0.129c0.172-0.173,0.172-0.452,0-0.624l-2.121-2.122C81.832,81.797,81.555,81.797,81.381,81.968z"/>
</g>
<g>
</g>
<g>
</g>
<g>
</g>
<g>
</g>
<g>
</g>
<g>
</g>
</svg>
