<?xml version="1.0" encoding="utf-8"?>
<!-- Generator: Adobe Illustrator 16.0.0, SVG Export Plug-In . SVG Version: 6.00 Build 0)  -->
<!DOCTYPE svg PUBLIC "-//W3C//DTD SVG 1.1//EN" "http://www.w3.org/Graphics/SVG/1.1/DTD/svg11.dtd">
<svg version="1.1" id="Capa_1" xmlns="http://www.w3.org/2000/svg" xmlns:xlink="http://www.w3.org/1999/xlink" x="0px" y="0px"
	 width="191px" height="177px" viewBox="0 0 191 177" enable-background="new 0 0 191 177" xml:space="preserve">
<g>
	<g>
		<path fill="#FFFFFF" d="M112.615,37.217c0-4.53-3.685-8.217-8.216-8.217H52.945c-4.532,0-8.218,3.687-8.218,8.217v104.566
			c0,4.531,3.686,8.217,8.218,8.217h51.454c4.531,0,8.216-3.686,8.216-8.217V37.217z M110.095,141.783
			c0,3.135-2.556,5.686-5.696,5.686H52.945c-3.136,0-5.688-2.551-5.688-5.686v-15.52c0-0.431,0.351-0.779,0.78-0.779h61.278
			c0.432,0,0.78,0.349,0.78,0.779V141.783z M110.095,122.185c0,0.432-0.349,0.779-0.78,0.779H48.037c-0.43,0-0.78-0.348-0.78-0.779
			V44.559c0-0.431,0.351-0.779,0.78-0.779h61.278c0.432,0,0.78,0.349,0.78,0.779V122.185z M110.095,40.478
			c0,0.432-0.349,0.779-0.78,0.779H48.037c-0.43,0-0.78-0.348-0.78-0.779v-3.261c0-3.135,2.553-5.686,5.688-5.686h51.454
			c3.141,0,5.696,2.551,5.696,5.686V40.478z"/>
		<path fill="#FFFFFF" d="M78.676,129.087c-4.08,0-7.399,3.315-7.399,7.39c0,4.08,3.319,7.399,7.399,7.399
			c4.074,0,7.39-3.319,7.39-7.399C86.066,132.402,82.75,129.087,78.676,129.087z M78.676,141.346c-2.685,0-4.868-2.185-4.868-4.869
			c0-2.678,2.184-4.858,4.868-4.858c2.679,0,4.858,2.181,4.858,4.858C83.535,139.161,81.355,141.346,78.676,141.346z"/>
		<path fill="#FFFFFF" d="M78.676,35.124h-8.179c-0.693,0-1.255,0.567-1.255,1.265c0,0.698,0.562,1.267,1.255,1.267h8.179
			c0.693,0,1.255-0.568,1.255-1.267C79.931,35.691,79.37,35.124,78.676,35.124z"/>
		<path fill="#FFFFFF" d="M86.843,35.124h-2.044c-0.697,0-1.265,0.567-1.265,1.265c0,0.698,0.567,1.267,1.265,1.267h2.044
			c0.699,0,1.268-0.568,1.268-1.267C88.111,35.691,87.542,35.124,86.843,35.124z"/>
	</g>
	<g>
		<path fill="#FFFFFF" d="M139.377,93.753c0.199-0.511,0.085-1.095-0.32-1.485l-0.824-0.713l-0.854,0.542l-20.634,16.982l7.08,2.401
			l-5.337,15.742c-0.197,0.49-0.089,1.073,0.296,1.464l0.82,0.756l0.884-0.563l19.646-18.675l-5.684-1.929L139.377,93.753z
			 M135.265,111.28l-12.77,12.153l4.603-13.563l-5.136-1.742l13.617-11.221l-4.405,12.983L135.265,111.28z M135.265,111.28"/>
		<path fill="#FFFFFF" d="M155.237,81.275l-7.98-2.707l1.658-4.885l-14.66-4.976l-1.657,4.886l-7.986-2.711
			c-2.332-0.792-4.872,0.463-5.666,2.801l-2.2,6.484v8.035l4.646-13.689c0.336-0.99,1.406-1.52,2.391-1.185l30.627,10.393
			c0.985,0.334,1.518,1.406,1.182,2.396L135.25,146.06c-0.335,0.984-1.411,1.51-2.396,1.176l-16.11-5.468v2.728l15.28,5.186
			c2.331,0.791,4.878-0.459,5.67-2.792l20.341-59.939C158.828,84.609,157.569,82.067,155.237,81.275z M144.812,77.738l-9.771-3.315
			l0.828-2.439l9.77,3.315L144.812,77.738z"/>
	</g>
</g>
<g>
</g>
<g>
</g>
<g>
</g>
<g>
</g>
<g>
</g>
<g>
</g>
</svg>
