<?xml version="1.0" encoding="utf-8"?>
<!-- Generator: Adobe Illustrator 16.0.0, SVG Export Plug-In . SVG Version: 6.00 Build 0)  -->
<!DOCTYPE svg PUBLIC "-//W3C//DTD SVG 1.1//EN" "http://www.w3.org/Graphics/SVG/1.1/DTD/svg11.dtd">
<svg version="1.1" id="Capa_1" xmlns="http://www.w3.org/2000/svg" xmlns:xlink="http://www.w3.org/1999/xlink" x="0px" y="0px"
	 width="91px" height="87px" viewBox="30.5 0 91 87" enable-background="new 30.5 0 91 87" xml:space="preserve">
<g>
	<circle fill="none" stroke="#FFFFFF" stroke-miterlimit="10" cx="76.192" cy="43.691" r="39.81"/>
	<g>
		<path fill="#FFFFFF" d="M75.217,47.499c-2.216,0-4.019-1.801-4.019-4.019c0-2.216,1.803-4.018,4.019-4.018
			c2.216,0,4.019,1.802,4.019,4.018C79.236,45.698,77.434,47.499,75.217,47.499z"/>
		<path fill="#FFFFFF" d="M91.47,47.235L91.47,47.235c-4.105-1.096-8.521,0.088-11.521,3.09c-2.583,2.582-3.829,6.15-3.416,9.783
			c0.033,0.31,0.296,0.54,0.601,0.54c0.021,0,0.046-0.002,0.071-0.005c3.461-0.397,6.688-1.818,9.328-4.109
			c2.616-2.27,4.472-5.229,5.368-8.555C91.989,47.657,91.794,47.324,91.47,47.235z M85.736,55.616
			c-2.297,1.992-5.068,3.276-8.049,3.736c-0.17-3.046,0.946-5.995,3.12-8.167c2.548-2.548,6.232-3.636,9.743-2.918
			C89.664,51.114,88.008,53.643,85.736,55.616z"/>
		<path fill="#FFFFFF" d="M58.965,47.235h-0.002c-0.323,0.088-0.516,0.422-0.428,0.744c0.896,3.326,2.75,6.285,5.365,8.555
			c2.641,2.291,5.869,3.712,9.331,4.109c0.022,0.003,0.046,0.005,0.069,0.005c0.307,0,0.569-0.23,0.604-0.54
			c0.413-3.633-0.833-7.201-3.417-9.783C67.485,47.324,63.069,46.14,58.965,47.235z M72.748,59.352
			c-2.984-0.46-5.754-1.745-8.05-3.736c-2.274-1.973-3.927-4.502-4.813-7.349c3.51-0.718,7.192,0.37,9.743,2.918
			C71.8,53.357,72.918,56.306,72.748,59.352z"/>
		<path fill="#FFFFFF" d="M75.217,26.206c-4.571,0-8.879,1.766-12.133,4.977c-3.248,3.207-5.074,7.484-5.138,12.046
			c-0.006,0.257,0.154,0.49,0.396,0.578c0.068,0.026,0.14,0.039,0.209,0.039c0.179,0,0.352-0.079,0.468-0.222
			c3.623-4.393,9.679-7.015,16.197-7.015c6.52,0,12.572,2.622,16.196,7.015c0.164,0.199,0.435,0.272,0.68,0.183
			c0.241-0.088,0.401-0.321,0.397-0.578c-0.065-4.562-1.892-8.839-5.141-12.046C84.097,27.972,79.787,26.206,75.217,26.206z
			 M75.217,35.392c-6.21,0-12.037,2.275-15.944,6.154c0.428-3.594,2.052-6.92,4.667-9.498c3.022-2.984,7.028-4.626,11.277-4.626
			c4.248,0,8.255,1.642,11.279,4.626c2.614,2.578,4.235,5.904,4.665,9.498C87.252,37.667,81.427,35.392,75.217,35.392z"/>
		<path fill="#FFFFFF" d="M75.184,20.374c-12.742,0-23.106,10.365-23.106,23.106c0,12.741,10.364,23.106,23.106,23.106
			c12.741,0,23.106-10.365,23.106-23.106C98.291,30.739,87.925,20.374,75.184,20.374z M94.667,43.48
			c0,10.725-8.724,19.451-19.449,19.451c-10.728,0-19.45-8.726-19.45-19.451c0-10.726,8.722-19.449,19.45-19.449
			C85.943,24.031,94.667,32.754,94.667,43.48z"/>
	</g>
	<g>
		<path fill="#C8455C" d="M76.188,6.995C56,6.995,39.578,23.417,39.578,43.604c0,9.208,3.425,17.625,9.055,24.066
			c0.073,0.102,0.149,0.203,0.242,0.294c0.013,0.015,0.033,0.026,0.048,0.041c6.709,7.487,16.445,12.21,27.265,12.21
			c20.188,0,36.609-16.423,36.609-36.611C112.797,23.417,96.375,6.995,76.188,6.995z M76.188,11.459
			c7.308,0,14.051,2.455,19.457,6.578L50.622,63.06c-4.124-5.404-6.58-12.147-6.58-19.456
			C44.042,25.879,58.462,11.459,76.188,11.459z M76.188,75.751c-8.811,0-16.803-3.567-22.617-9.328l45.436-45.435
			c5.763,5.813,9.328,13.806,9.328,22.616C108.334,61.331,93.914,75.751,76.188,75.751z"/>
	</g>
</g>
</svg>
