<?xml version="1.0" encoding="utf-8"?>
<!-- Generator: Adobe Illustrator 16.0.0, SVG Export Plug-In . SVG Version: 6.00 Build 0)  -->
<!DOCTYPE svg PUBLIC "-//W3C//DTD SVG 1.1//EN" "http://www.w3.org/Graphics/SVG/1.1/DTD/svg11.dtd">
<svg version="1.1" id="Capa_1" xmlns="http://www.w3.org/2000/svg" xmlns:xlink="http://www.w3.org/1999/xlink" x="0px" y="0px"
	 width="91px" height="87px" viewBox="30.5 0 91 87" enable-background="new 30.5 0 91 87" xml:space="preserve">
<g>
	<circle fill="none" stroke="#FFFFFF" stroke-miterlimit="10" cx="76.412" cy="43.523" r="40.912"/>
	<g>
		
			<path fill="none" stroke="#FFFFFF" stroke-width="3.5235" stroke-linecap="round" stroke-linejoin="round" stroke-miterlimit="10" d="
			M76.218,20.105c0,0-10.7,12.187-13.688,24.415c-2.577,10.551,1.363,21.39,13.688,21.39c0,0,14.82,0.259,14.82-17.217
			C91.038,31.22,73.861,31.22,76.218,20.105z"/>
		
			<path fill="#FFFFFF" stroke="#FFFFFF" stroke-width="0.8809" stroke-linecap="round" stroke-linejoin="round" stroke-miterlimit="10" d="
			M69.146,48.396c0,0-0.967,8.421,7.264,9.432C76.41,57.828,64.766,60.857,69.146,48.396z"/>
	</g>
	<g>
		<path fill="#C8455C" d="M76.413,6.011c-20.747,0-37.624,16.878-37.624,37.624c0,9.462,3.519,18.113,9.306,24.731
			c0.074,0.105,0.153,0.208,0.248,0.304c0.013,0.015,0.034,0.026,0.05,0.04c6.896,7.696,16.901,12.55,28.02,12.55
			c20.747,0,37.625-16.878,37.625-37.625C114.037,22.889,97.159,6.011,76.413,6.011z M76.413,10.599
			c7.511,0,14.439,2.524,19.996,6.761L50.138,63.63c-4.238-5.555-6.762-12.483-6.762-19.995
			C43.376,25.418,58.196,10.599,76.413,10.599z M76.413,76.673c-9.056,0-17.27-3.666-23.244-9.587l46.696-46.693
			c5.922,5.974,9.584,14.188,9.584,23.243C109.449,61.852,94.629,76.673,76.413,76.673z"/>
	</g>
</g>
</svg>
