<?xml version="1.0" encoding="utf-8"?>
<!-- Generator: Adobe Illustrator 16.0.0, SVG Export Plug-In . SVG Version: 6.00 Build 0)  -->
<!DOCTYPE svg PUBLIC "-//W3C//DTD SVG 1.1//EN" "http://www.w3.org/Graphics/SVG/1.1/DTD/svg11.dtd">
<svg version="1.1" id="Capa_1" xmlns="http://www.w3.org/2000/svg" xmlns:xlink="http://www.w3.org/1999/xlink" x="0px" y="0px"
	 width="91px" height="87px" viewBox="30.5 0 91 87" enable-background="new 30.5 0 91 87" xml:space="preserve">
<g>
	<circle fill="none" stroke="#FFFFFF" stroke-miterlimit="10" cx="76.324" cy="44.129" r="40.482"/>
	<g>
		<g>
			<path fill="#FFFFFF" d="M61.635,23.514c1.025,0,1.666,0.384,1.666,0.384l5.378,5.379c3.839,3.841,2.301,5.892,3.577,7.167
				c0.834,0.835,1.568,1.102,2.167,1.102c1.059,0,1.69-0.838,1.69-0.838l2.297,2.052l-2.297,2.3l14.594,14.35l3.076,1.275
				l2.565,5.891l-1.8,1.803l-5.625-2.816l-1.03-3.077l-14.61-14.609l-2.302,2.313l-2.05-2.313c0,0,1.801-1.791-0.514-4.091
				c-1.026-1.025-3.328,0.25-6.917-3.341l-5.379-5.378c0,0-1.54-2.55,1.539-5.628C59.199,23.898,60.609,23.514,61.635,23.514
				 M61.635,20.86c-1.438,0-3.62,0.468-5.853,2.701c-3.59,3.589-2.905,7.268-1.934,8.876c0.111,0.184,0.244,0.353,0.396,0.505
				l5.379,5.378c2.954,2.956,5.397,3.328,6.856,3.551c0.09,0.014,0.196,0.03,0.291,0.046c0.077,0.097,0.124,0.174,0.15,0.226
				c-0.861,0.997-0.864,2.492,0.024,3.494l2.05,2.313c0.486,0.548,1.177,0.871,1.909,0.893c0.026,0,0.051,0.001,0.077,0.001
				c0.705,0,1.382-0.281,1.881-0.782l0.426-0.428l12.287,12.287l0.832,2.485c0.223,0.666,0.701,1.216,1.329,1.53l5.625,2.816
				c0.377,0.189,0.784,0.281,1.187,0.281c0.689,0,1.369-0.268,1.879-0.779l1.8-1.803c0.77-0.771,0.99-1.935,0.555-2.935
				l-2.565-5.891c-0.274-0.63-0.782-1.129-1.417-1.392L92.2,53.155L79.881,41.042l0.408-0.408c0.515-0.516,0.795-1.222,0.775-1.951
				c-0.021-0.729-0.341-1.417-0.885-1.904l-2.297-2.052c-0.488-0.436-1.119-0.674-1.768-0.674c-0.086,0-0.173,0.004-0.26,0.013
				c-0.573,0.057-1.107,0.297-1.527,0.679c-0.015-0.012-0.03-0.025-0.046-0.04c-0.024-0.124-0.052-0.298-0.074-0.437
				c-0.226-1.43-0.605-3.822-3.649-6.868l-5.379-5.379c-0.154-0.154-0.326-0.288-0.513-0.4C64.367,21.442,63.268,20.86,61.635,20.86
				L61.635,20.86z"/>
		</g>
		<polygon fill="#FFFFFF" stroke="#FFFFFF" stroke-width="0.8846" stroke-miterlimit="10" points="69.954,35.945 68.166,37.733 
			58.423,28.001 60.224,26.201 		"/>
	</g>
	<g>
		<path fill="#C8455C" d="M76.221,6.901c-20.529,0-37.229,16.701-37.229,37.228c0,9.362,3.483,17.921,9.208,24.471
			c0.074,0.104,0.152,0.206,0.247,0.299c0.013,0.016,0.033,0.027,0.048,0.041c6.823,7.615,16.723,12.417,27.726,12.417
			c20.528,0,37.227-16.7,37.227-37.228C113.447,23.602,96.749,6.901,76.221,6.901z M76.221,11.441
			c7.431,0,14.287,2.497,19.784,6.688L50.223,63.913c-4.193-5.497-6.69-12.353-6.69-19.784
			C43.532,26.104,58.195,11.441,76.221,11.441z M76.221,76.817c-8.961,0-17.087-3.626-22.999-9.485L99.425,21.13
			c5.859,5.911,9.485,14.039,9.485,22.999C108.91,62.154,94.245,76.817,76.221,76.817z"/>
	</g>
</g>
</svg>
