<?xml version="1.0" encoding="utf-8"?>
<!-- Generator: Adobe Illustrator 16.0.0, SVG Export Plug-In . SVG Version: 6.00 Build 0)  -->
<!DOCTYPE svg PUBLIC "-//W3C//DTD SVG 1.1//EN" "http://www.w3.org/Graphics/SVG/1.1/DTD/svg11.dtd">
<svg version="1.1" id="Capa_1" xmlns="http://www.w3.org/2000/svg" xmlns:xlink="http://www.w3.org/1999/xlink" x="0px" y="0px"
	 width="91px" height="87px" viewBox="30.5 0 91 87" enable-background="new 30.5 0 91 87" xml:space="preserve">
<g>
	<circle fill="none" stroke="#FFFFFF" stroke-miterlimit="10" cx="76.691" cy="44.167" r="40.191"/>
	<g>
		
			<path fill="none" stroke="#FFFFFF" stroke-width="2.6851" stroke-linecap="round" stroke-linejoin="round" stroke-miterlimit="10" d="
			M71.646,27.939h2.463c0.443,0,0.807-0.363,0.807-0.808v-3.639h4.925v3.639c0,0.444,0.241,0.808,0.686,0.808h2.462
			c0.444,0,0.807-0.363,0.807-0.808l-0.04-11.318c0-0.445-0.362-0.808-0.807-0.808h-2.423c-0.444,0-0.686,0.403-0.686,0.849v3.637
			h-4.886l-0.039-3.637c0-0.446-0.403-0.809-0.847-0.809h-2.423c-0.443-0.041-0.686,0.363-0.686,0.809v11.277
			C70.96,27.576,71.203,27.939,71.646,27.939L71.646,27.939z M71.646,27.939"/>
		
			<rect x="79.033" y="32.777" fill="none" stroke="#FFFFFF" stroke-width="0.895" stroke-linecap="round" stroke-linejoin="round" stroke-miterlimit="10" width="6.056" height="6.062"/>
		
			<rect x="79.033" y="42.073" fill="none" stroke="#FFFFFF" stroke-width="0.895" stroke-linecap="round" stroke-linejoin="round" stroke-miterlimit="10" width="6.056" height="6.063"/>
		
			<rect x="78.228" y="54.925" fill="#FFFFFF" stroke="#FFFFFF" stroke-width="0.895" stroke-linecap="round" stroke-linejoin="round" stroke-miterlimit="10" width="6.862" height="11.317"/>
		
			<rect x="69.749" y="32.777" fill="none" stroke="#FFFFFF" stroke-width="0.895" stroke-linecap="round" stroke-linejoin="round" stroke-miterlimit="10" width="6.056" height="6.062"/>
		
			<rect x="69.749" y="42.073" fill="none" stroke="#FFFFFF" stroke-width="0.895" stroke-linecap="round" stroke-linejoin="round" stroke-miterlimit="10" width="6.056" height="6.063"/>
		
			<rect x="69.749" y="54.925" fill="#FFFFFF" stroke="#FFFFFF" stroke-width="0.895" stroke-linecap="round" stroke-linejoin="round" stroke-miterlimit="10" width="6.864" height="11.317"/>
		
			<path fill="none" stroke="#FFFFFF" stroke-width="0.895" stroke-linecap="round" stroke-linejoin="round" stroke-miterlimit="10" d="
			M69.749,51.369"/>
		
			<polyline fill="none" stroke="#FFFFFF" stroke-width="2.6851" stroke-linecap="round" stroke-linejoin="round" stroke-miterlimit="10" points="
			70.96,25.429 57.471,25.429 57.471,61.146 53.256,61.146 53.256,66.476 100.659,66.476 100.659,60.613 97.282,60.613 
			97.282,25.429 83.797,25.429 		"/>
	</g>
</g>
</svg>
