<?xml version="1.0" encoding="utf-8"?>
<!-- Generator: Adobe Illustrator 16.0.0, SVG Export Plug-In . SVG Version: 6.00 Build 0)  -->
<!DOCTYPE svg PUBLIC "-//W3C//DTD SVG 1.1//EN" "http://www.w3.org/Graphics/SVG/1.1/DTD/svg11.dtd">
<svg version="1.1" id="Capa_1" xmlns="http://www.w3.org/2000/svg" xmlns:xlink="http://www.w3.org/1999/xlink" x="0px" y="0px"
	 width="91px" height="87px" viewBox="30.5 0 91 87" enable-background="new 30.5 0 91 87" xml:space="preserve">
<g>
	<circle fill="none" stroke="#FFFFFF" stroke-miterlimit="10" cx="76.295" cy="43.795" r="40.385"/>
	<g>
		<path fill="#FFFFFF" d="M89.841,45.009h-1.28V25.244c0-2.865-2.331-5.195-5.196-5.195H66.816c-2.864,0-5.195,2.331-5.195,5.195
			v19.765h-1.613c-0.956,0-1.732,0.775-1.732,1.731v17.037c0,2.366,1.924,4.289,4.289,4.289h24.717c2.366,0,4.289-1.923,4.289-4.289
			V46.74C91.572,45.784,90.796,45.009,89.841,45.009z M65.085,29.635h20.013v15.236H65.085V29.635z M66.816,23.512h16.549
			c0.956,0,1.732,0.777,1.732,1.732v3.237H65.085v-3.237C65.085,24.29,65.862,23.512,66.816,23.512z M88.108,63.777
			c0,0.456-0.369,0.825-0.825,0.825H62.565c-0.456,0-0.826-0.37-0.826-0.825V52.556c0.319,0,0.578-0.258,0.578-0.577
			s-0.259-0.577-0.578-0.577v-2.931h26.368v2.931c-0.318,0-0.577,0.258-0.577,0.577s0.258,0.577,0.577,0.577V63.777z"/>
		<path fill="#FFFFFF" d="M76.806,51.402H73.04c-0.318,0-0.578,0.258-0.578,0.577s0.259,0.577,0.578,0.577h3.766
			c0.319,0,0.578-0.258,0.578-0.577S77.125,51.402,76.806,51.402z"/>
		<path fill="#FFFFFF" d="M69.273,51.402h-3.767c-0.319,0-0.577,0.258-0.577,0.577s0.258,0.577,0.577,0.577h3.767
			c0.319,0,0.578-0.258,0.578-0.577S69.593,51.402,69.273,51.402z"/>
		<path fill="#FFFFFF" d="M84.341,51.402h-3.767c-0.318,0-0.577,0.258-0.577,0.577s0.258,0.577,0.577,0.577h3.767
			c0.319,0,0.578-0.258,0.578-0.577S84.661,51.402,84.341,51.402z"/>
	</g>
	<g>
		<path fill="#C8455C" d="M76.295,6.917c-20.479,0-37.139,16.661-37.139,37.14c0,9.34,3.475,17.88,9.187,24.413
			c0.073,0.104,0.151,0.206,0.246,0.299c0.013,0.016,0.033,0.026,0.048,0.041c6.807,7.597,16.683,12.388,27.659,12.388
			c20.479,0,37.14-16.66,37.14-37.14C113.435,23.579,96.774,6.917,76.295,6.917z M76.295,11.447c7.414,0,14.254,2.491,19.738,6.673
			L50.359,63.794c-4.184-5.483-6.675-12.323-6.675-19.737C43.685,26.076,58.313,11.447,76.295,11.447z M76.295,76.668
			c-8.939,0-17.046-3.618-22.944-9.462l46.093-46.092c5.846,5.897,9.462,14.006,9.462,22.944
			C108.907,62.04,94.278,76.668,76.295,76.668z"/>
	</g>
</g>
</svg>
