<?xml version="1.0" encoding="utf-8"?>
<!-- Generator: Adobe Illustrator 16.0.0, SVG Export Plug-In . SVG Version: 6.00 Build 0)  -->
<!DOCTYPE svg PUBLIC "-//W3C//DTD SVG 1.1//EN" "http://www.w3.org/Graphics/SVG/1.1/DTD/svg11.dtd">
<svg version="1.1" id="Capa_1" xmlns="http://www.w3.org/2000/svg" xmlns:xlink="http://www.w3.org/1999/xlink" x="0px" y="0px"
	 width="91px" height="87px" viewBox="30.5 0 91 87" enable-background="new 30.5 0 91 87" xml:space="preserve">
<g>
	<circle fill="none" stroke="#FFFFFF" stroke-miterlimit="10" cx="75.772" cy="44.5" r="39.894"/>
	<g>
		<g>
			
				<path fill="#FFFFFF" stroke="#FFFFFF" stroke-width="0.9006" stroke-linecap="round" stroke-linejoin="round" stroke-miterlimit="10" d="
				M94.355,55.27c0,1.52-1.237,2.78-2.782,2.78c-1.544,0-2.779-1.26-2.779-2.78c0-1.546,1.234-2.781,2.779-2.781
				C93.118,52.489,94.355,53.724,94.355,55.27z M89.093,36.932h4.987l-1.002,13.14h-2.982L89.093,36.932z"/>
		</g>
		<g>
			<path fill="#FFFFFF" d="M74.572,19.078c2.896,0,5.253,2.357,5.253,5.254v31.137v1.123l0.795,0.792
				c1.633,1.625,2.533,3.787,2.533,6.085c0,4.732-3.85,8.582-8.581,8.582s-8.581-3.85-8.581-8.582c0-2.3,0.899-4.46,2.531-6.084
				l0.796-0.792v-1.123V24.332C69.319,21.435,71.675,19.078,74.572,19.078 M74.572,16.377c-4.394,0-7.954,3.562-7.954,7.955v31.137
				c-2.055,2.044-3.328,4.873-3.328,7.999c0,6.229,5.051,11.282,11.281,11.282s11.282-5.053,11.282-11.282
				c0-3.126-1.274-5.955-3.328-7.999V24.332C82.525,19.939,78.964,16.377,74.572,16.377L74.572,16.377z"/>
		</g>
		<path fill="#FFFFFF" d="M76.052,58.633V29.642c0-0.817-0.663-1.48-1.479-1.48c-0.819,0-1.479,0.663-1.479,1.48v28.991
			c-1.992,0.627-3.438,2.489-3.438,4.69c0,2.717,2.2,4.917,4.917,4.917c2.717,0,4.917-2.201,4.917-4.917
			C79.489,61.123,78.045,59.26,76.052,58.633L76.052,58.633z M76.052,58.633"/>
		<path fill="none" stroke="#FFFFFF" stroke-miterlimit="10" d="M76.052,58.633v-35.25c0-0.817-0.663-1.48-1.479-1.48
			c-0.819,0-1.479,0.664-1.479,1.48v35.25c-1.992,0.627-3.438,2.489-3.438,4.69c0,2.717,2.2,4.917,4.917,4.917
			c2.717,0,4.917-2.201,4.917-4.917C79.489,61.123,78.045,59.26,76.052,58.633L76.052,58.633z M76.052,58.633"/>
	</g>
</g>
</svg>
