<?xml version="1.0" encoding="utf-8"?>
<!-- Generator: Adobe Illustrator 16.0.0, SVG Export Plug-In . SVG Version: 6.00 Build 0)  -->
<!DOCTYPE svg PUBLIC "-//W3C//DTD SVG 1.1//EN" "http://www.w3.org/Graphics/SVG/1.1/DTD/svg11.dtd">
<svg version="1.1" id="Capa_1" xmlns="http://www.w3.org/2000/svg" xmlns:xlink="http://www.w3.org/1999/xlink" x="0px" y="0px"
	 width="91px" height="87px" viewBox="30.5 0 91 87" enable-background="new 30.5 0 91 87" xml:space="preserve">
<g>
	<circle fill="none" stroke="#FFFFFF" stroke-miterlimit="10" cx="75.729" cy="43.757" r="37.519"/>
	<g>
		
			<polygon fill="none" stroke="#FFFFFF" stroke-width="4" stroke-linecap="round" stroke-linejoin="round" stroke-miterlimit="10" points="
			94.269,23.839 108.21,37.916 85.204,42.514 94.297,51.695 51.015,63.647 72.793,43.895 64.308,35.325 		"/>
		<g>
			<path fill="none" stroke="#FFFFFF" stroke-width="4" stroke-linecap="round" stroke-linejoin="round" stroke-miterlimit="10" d="
				M72.689,43.849l-8.485-8.57l25.047-9.603v-5.41c0-1.468-1.19-2.656-2.656-2.656H60.991c-1.467,0-2.656,1.188-2.656,2.656v36.601
				L72.689,43.849z"/>
			
				<polygon fill="none" stroke="#FFFFFF" stroke-width="4" stroke-linecap="round" stroke-linejoin="round" stroke-miterlimit="10" points="
				89.251,41.638 85.099,42.468 89.251,46.659 			"/>
			<path fill="none" stroke="#FFFFFF" stroke-width="4" stroke-linecap="round" stroke-linejoin="round" stroke-miterlimit="10" d="
				M58.335,61.552v5.451c0,1.468,1.189,2.655,2.656,2.655h25.604c1.466,0,2.656-1.187,2.656-2.655V53.014L58.335,61.552z"/>
		</g>
		<line fill="none" stroke="#FFFFFF" stroke-miterlimit="10" x1="58.335" y1="27.134" x2="88.298" y2="27.134"/>
		<line fill="none" stroke="#FFFFFF" stroke-miterlimit="10" x1="58.335" y1="61.062" x2="88.298" y2="61.062"/>
		<path fill="#FFFFFF" d="M78.444,23.237c0,0.307-0.249,0.556-0.557,0.556h-8.249c-0.308,0-0.556-0.249-0.556-0.556l0,0
			c0-0.308,0.249-0.557,0.556-0.557h8.249C78.195,22.68,78.444,22.929,78.444,23.237L78.444,23.237z"/>
	</g>
</g>
</svg>
