<?xml version="1.0" encoding="utf-8"?>
<!-- Generator: Adobe Illustrator 16.0.0, SVG Export Plug-In . SVG Version: 6.00 Build 0)  -->
<!DOCTYPE svg PUBLIC "-//W3C//DTD SVG 1.1//EN" "http://www.w3.org/Graphics/SVG/1.1/DTD/svg11.dtd">
<svg version="1.1" id="Capa_1" xmlns="http://www.w3.org/2000/svg" xmlns:xlink="http://www.w3.org/1999/xlink" x="0px" y="0px"
	 width="91px" height="87px" viewBox="30.5 0 91 87" enable-background="new 30.5 0 91 87" xml:space="preserve">
<g>
	<circle fill="none" stroke="#FFFFFF" stroke-miterlimit="10" cx="76.518" cy="44.613" r="41.388"/>
	<g>
		<g id="iphone_4_">
			<path fill="#FFFFFF" d="M80.431,19.961c0,0.543-0.439,0.98-0.981,0.98h-5.884c-0.544,0-0.982-0.437-0.982-0.98l0,0
				c0-0.542,0.438-0.981,0.982-0.981h5.884C79.991,18.98,80.431,19.419,80.431,19.961L80.431,19.961z"/>
			<path fill="#FFFFFF" d="M90.725,13.095l-28.372,0.001c-2.94,0-5.32,2.635-5.32,5.887v51.011c0,3.251,2.38,5.885,5.32,5.885
				l28.372-0.002c2.937,0,5.318-2.633,5.318-5.884V18.98C96.043,15.729,93.662,13.095,90.725,13.095z M60.58,65.217v-1.116V25.395
				h31.917v38.703v1.119H60.58z M60.58,22.906v-1.965v-1.958c0-1.083,0.793-1.962,1.774-1.962l28.372-0.001
				c0.977,0,1.772,0.879,1.772,1.961v1.961v1.964v1.437H60.58V22.906z M92.497,68.022v1.971c0,1.083-0.795,1.962-1.772,1.962
				l-28.372,0.002c-0.981,0-1.774-0.88-1.774-1.962v-1.972V66.27h31.917V68.022z"/>
		</g>
		<circle fill="none" stroke="#FFFFFF" stroke-miterlimit="10" cx="76.003" cy="44.492" r="10.663"/>
		<line fill="none" stroke="#FFFFFF" stroke-miterlimit="10" x1="68.12" y1="51.665" x2="83.974" y2="37.427"/>
	</g>
</g>
</svg>
