<?xml version="1.0" encoding="utf-8"?>
<!-- Generator: Adobe Illustrator 16.0.0, SVG Export Plug-In . SVG Version: 6.00 Build 0)  -->
<!DOCTYPE svg PUBLIC "-//W3C//DTD SVG 1.1//EN" "http://www.w3.org/Graphics/SVG/1.1/DTD/svg11.dtd">
<svg version="1.1" id="Capa_1" xmlns="http://www.w3.org/2000/svg" xmlns:xlink="http://www.w3.org/1999/xlink" x="0px" y="0px"
	 width="16.667px" height="18px" viewBox="0 0 16.667 18" enable-background="new 0 0 16.667 18" xml:space="preserve">
<g>
	<g>
		<path fill="#BD475A" d="M14.874,5.97V2.174c0-0.193-0.157-0.35-0.352-0.35H3.207c-0.194,0-0.352,0.157-0.352,0.35v13.748
			c0,0.105,0.049,0.206,0.132,0.273c0.063,0.051,0.141,0.078,0.22,0.078c0.025,0,0.05-0.003,0.075-0.007l11.314-2.432
			c0.162-0.034,0.277-0.179,0.277-0.344v-3.393V5.97z"/>
	</g>
	<path fill="#FFFFFF" d="M9.76,12.32H8.925V6.948c0-0.447,0.014-0.869,0.042-1.268C8.894,5.752,8.813,5.828,8.724,5.907
		c-0.089,0.08-0.499,0.414-1.227,1.005L7.043,6.325l1.996-1.542H9.76V12.32z"/>
</g>
<g>
</g>
<g>
</g>
<g>
</g>
<g>
</g>
<g>
</g>
<g>
</g>
</svg>
