<?xml version="1.0" encoding="utf-8"?>
<!-- Generator: Adobe Illustrator 16.0.0, SVG Export Plug-In . SVG Version: 6.00 Build 0)  -->
<!DOCTYPE svg PUBLIC "-//W3C//DTD SVG 1.1//EN" "http://www.w3.org/Graphics/SVG/1.1/DTD/svg11.dtd">
<svg version="1.1" id="Capa_1" xmlns="http://www.w3.org/2000/svg" xmlns:xlink="http://www.w3.org/1999/xlink" x="0px" y="0px"
	 width="808px" height="360px" viewBox="0 0 808 360" enable-background="new 0 0 808 360" xml:space="preserve">
<g>
	<g>
		<g>
			<g>
				<path fill="#1E3557" d="M555.675,95.416l-3.93,3.33l-1.726-0.709l0.879-2.113l3.053-1.217L555.675,95.416z M551.666,98.357
					l3.365-2.851l-1.125-0.463l-2.616,1.041l-0.749,1.81L551.666,98.357z"/>
			</g>
		</g>
		<g>
			<path fill="#1E3557" d="M461.866,39.813l-7.64,6.473l-1.406,3.072l-11.107,9.411l-4.168,1.649l-7.373,6.246
				c-2.852,2.417-2.011,5.673,1.884,7.276l98.073,40.37c3.895,1.603,9.359,0.943,12.213-1.475l31.697-26.851
				c2.852-2.417,2.018-5.682-1.877-7.283l-98.074-40.371C470.195,36.728,464.721,37.395,461.866,39.813z M463.15,41.943
				c0.369-0.313,1.102-0.388,1.629-0.171c0.533,0.22,0.668,0.651,0.299,0.963c-0.377,0.32-1.111,0.396-1.646,0.175
				C462.906,42.694,462.772,42.263,463.15,41.943z M542.911,105.925l-1.218,1.063c-0.109,0.094-0.324,0.115-0.477,0.052
				c-0.156-0.064-0.193-0.188-0.082-0.282l1.188-1.035c0.02-0.032,0.229-0.321-0.264-0.524c-0.489-0.2-0.865,0-0.934,0.041
				l-1.461,1.24c0.004,0.001,0.007,0.003,0.007,0.003l-0.022,0.02l0,0l0.369,0.152l-1.639,0.523l0.327-1.063l0.373,0.154l0,0
				l0.024-0.02l0.004,0.001l1.485-1.259c0.319-0.206,1.054-0.447,1.851-0.118C543.246,105.202,543.095,105.705,542.911,105.925z
				 M556.165,95.332l-4.353,3.688l-2.031-0.835l0.739-2.438l3.616-1.251L556.165,95.332z M565.496,87.001l-1.477,1.25
				c-0.143,0.121-0.391,0.167-0.542,0.106c-0.152-0.064-0.163-0.215-0.021-0.335l1.478-1.252c0.149-0.127,0.389-0.168,0.54-0.105
				C565.629,86.728,565.646,86.874,565.496,87.001z M562.643,88.013c-0.158-0.065-0.164-0.215-0.021-0.337l1.477-1.25
				c0.141-0.121,0.384-0.169,0.54-0.105c0.152,0.063,0.162,0.216,0.021,0.336l-1.479,1.251
				C563.039,88.027,562.794,88.075,562.643,88.013z M563.797,86.281l-1.479,1.251c-0.143,0.12-0.383,0.17-0.541,0.104
				c-0.152-0.063-0.156-0.213-0.016-0.333l1.478-1.252c0.149-0.127,0.39-0.176,0.544-0.113
				C563.94,86.004,563.945,86.155,563.797,86.281z M564.983,78.487l-37.804,32.026l-90.683-37.328l37.804-32.026L564.983,78.487z"/>
		</g>
		<g>
			<path fill="#1E3557" d="M576.487,86.993l-31.695,26.851c-3.098,2.625-9.167,3.293-13.539,1.492l-101.34-41.713
				c-4.369-1.798-5.407-5.392-2.31-8.017l31.695-26.851c3.098-2.624,9.168-3.292,13.536-1.495l101.339,41.714
				C578.548,80.774,579.586,84.368,576.487,86.993z M428.882,66.131c-2.602,2.206-1.735,5.225,1.928,6.732l101.339,41.713
				c3.668,1.511,8.764,0.945,11.365-1.259l31.695-26.851c2.611-2.212,1.746-5.229-1.924-6.739l-101.34-41.715
				c-3.662-1.508-8.759-0.943-11.368,1.269L428.882,66.131z"/>
		</g>
		<g>
			<polygon fill="#1E3557" points="458.648,40.091 453.289,44.633 452.143,44.16 457.503,39.619 			"/>
		</g>
		<g>
			<polygon fill="#1E3557" points="490.538,44.015 512.14,52.905 511.338,53.585 489.736,44.693 			"/>
		</g>
	</g>
	<g>
		
			<polygon fill="none" stroke="#1E3557" stroke-width="3.4075" stroke-linecap="round" stroke-linejoin="round" stroke-miterlimit="10" points="
			529.353,159.326 520.602,248.637 375.798,125.386 369.735,44.566 		"/>
		
			<polygon fill="none" stroke="#1E3557" stroke-width="3.4075" stroke-linecap="round" stroke-linejoin="round" stroke-miterlimit="10" points="
			629.033,195.431 649.91,108.55 529.353,159.326 520.602,248.637 		"/>
		
			<polygon fill="none" stroke="#1E3557" stroke-width="3.4075" stroke-linecap="round" stroke-linejoin="round" stroke-miterlimit="10" points="
			369.735,44.566 477.495,12.238 649.91,108.55 529.353,159.326 		"/>
		
			<polygon fill="none" stroke="#1E3557" stroke-width="3.4075" stroke-linecap="round" stroke-linejoin="round" stroke-miterlimit="10" points="
			319.222,261.434 436.308,208.228 315.854,103.834 212.136,142.224 		"/>
		
			<polygon fill="none" stroke="#1E3557" stroke-width="3.4075" stroke-linecap="round" stroke-linejoin="round" stroke-miterlimit="10" points="
			327.302,314.641 319.222,261.434 436.308,208.228 437.465,260.214 		"/>
		
			<polygon fill="none" stroke="#1E3557" stroke-width="3.4075" stroke-linecap="round" stroke-linejoin="round" stroke-miterlimit="10" points="
			212.136,142.224 225.606,194.758 327.302,314.641 319.222,261.434 		"/>
		<polygon fill="none" points="546.721,130.432 429.387,58.527 478.393,37.892 587.824,98.457 		"/>
		
			<polygon fill="none" stroke="#1E3557" stroke-width="1.2778" stroke-linecap="round" stroke-linejoin="round" stroke-miterlimit="10" points="
			269.039,181.507 348.139,208.326 365.718,201.564 372.254,178.127 303.743,152.436 292.25,157.394 		"/>
		
			<path fill="none" stroke="#1E3557" stroke-width="1.2778" stroke-linecap="round" stroke-linejoin="round" stroke-miterlimit="10" d="
			M269.039,181.507l10.818-5.633c0,0,2.026-0.677,6.985-5.86c4.959-5.183,16.901-17.578,16.901-17.578"/>
		
			<line fill="none" stroke="#1E3557" stroke-width="1.2778" stroke-linecap="round" stroke-linejoin="round" stroke-miterlimit="10" x1="281.396" y1="174.954" x2="365.718" y2="201.564"/>
		<polygon fill="#1E3557" points="274.269,176.163 282.299,171.876 286.941,166.769 279.373,170.861 		"/>
		
			<line fill="none" stroke="#1E3557" stroke-width="1.2778" stroke-linecap="round" stroke-linejoin="round" stroke-miterlimit="10" x1="381.474" y1="53.007" x2="372.254" y2="63.469"/>
		
			<line fill="none" stroke="#1E3557" stroke-width="1.2778" stroke-linecap="round" stroke-linejoin="round" stroke-miterlimit="10" x1="396.025" y1="63.469" x2="373.077" y2="89.13"/>
		
			<line fill="none" stroke="#1E3557" stroke-width="1.2778" stroke-linecap="round" stroke-linejoin="round" stroke-miterlimit="10" x1="413.871" y1="76.299" x2="374.872" y2="113.053"/>
		
			<line fill="none" stroke="#1E3557" stroke-width="1.2778" stroke-linecap="round" stroke-linejoin="round" stroke-miterlimit="10" x1="431.719" y1="89.13" x2="381.724" y2="130.432"/>
		
			<line fill="none" stroke="#1E3557" stroke-width="1.2778" stroke-linecap="round" stroke-linejoin="round" stroke-miterlimit="10" x1="451.592" y1="103.42" x2="396.025" y2="142.604"/>
		
			<line fill="none" stroke="#1E3557" stroke-width="1.2778" stroke-linecap="round" stroke-linejoin="round" stroke-miterlimit="10" x1="473.808" y1="119.391" x2="411.783" y2="156.016"/>
		
			<line fill="none" stroke="#1E3557" stroke-width="1.2778" stroke-linecap="round" stroke-linejoin="round" stroke-miterlimit="10" x1="495.317" y1="134.855" x2="427.068" y2="169.026"/>
		
			<line fill="none" stroke="#1E3557" stroke-width="1.2778" stroke-linecap="round" stroke-linejoin="round" stroke-miterlimit="10" x1="516.199" y1="149.869" x2="443.055" y2="182.634"/>
		
			<line fill="none" stroke="#1E3557" stroke-width="1.2778" stroke-linecap="round" stroke-linejoin="round" stroke-miterlimit="10" x1="528.165" y1="171.466" x2="461.191" y2="198.072"/>
		
			<line fill="none" stroke="#1E3557" stroke-width="1.2778" stroke-linecap="round" stroke-linejoin="round" stroke-miterlimit="10" x1="525.556" y1="198.072" x2="479.628" y2="213.762"/>
		
			<line fill="none" stroke="#1E3557" stroke-width="1.2778" stroke-linecap="round" stroke-linejoin="round" stroke-miterlimit="10" x1="522.58" y1="228.432" x2="502.046" y2="232.846"/>
		
			<line fill="none" stroke="#1E3557" stroke-width="1.2778" stroke-linecap="round" stroke-linejoin="round" stroke-miterlimit="10" x1="224.525" y1="156.016" x2="218.296" y2="166.251"/>
		
			<line fill="none" stroke="#1E3557" stroke-width="1.2778" stroke-linecap="round" stroke-linejoin="round" stroke-miterlimit="10" x1="240.536" y1="173.841" x2="225.606" y2="194.758"/>
		
			<line fill="none" stroke="#1E3557" stroke-width="1.2778" stroke-linecap="round" stroke-linejoin="round" stroke-miterlimit="10" x1="231.717" y1="164.022" x2="221.411" y2="178.398"/>
		
			<line fill="none" stroke="#1E3557" stroke-width="1.2778" stroke-linecap="round" stroke-linejoin="round" stroke-miterlimit="10" x1="251.501" y1="186.038" x2="235.072" y2="205.917"/>
		
			<line fill="none" stroke="#1E3557" stroke-width="1.2778" stroke-linecap="round" stroke-linejoin="round" stroke-miterlimit="10" x1="264.029" y1="199.994" x2="246.042" y2="218.849"/>
		
			<line fill="none" stroke="#1E3557" stroke-width="1.2778" stroke-linecap="round" stroke-linejoin="round" stroke-miterlimit="10" x1="276.399" y1="213.762" x2="257.917" y2="232.846"/>
		
			<line fill="none" stroke="#1E3557" stroke-width="1.2778" stroke-linecap="round" stroke-linejoin="round" stroke-miterlimit="10" x1="289.574" y1="228.432" x2="269.039" y2="245.955"/>
		
			<line fill="none" stroke="#1E3557" stroke-width="1.2778" stroke-linecap="round" stroke-linejoin="round" stroke-miterlimit="10" x1="313.416" y1="254.97" x2="289.574" y2="270.166"/>
		
			<line fill="none" stroke="#1E3557" stroke-width="1.2778" stroke-linecap="round" stroke-linejoin="round" stroke-miterlimit="10" x1="320.646" y1="270.166" x2="301.495" y2="284.218"/>
		
			<line fill="none" stroke="#1E3557" stroke-width="1.2778" stroke-linecap="round" stroke-linejoin="round" stroke-miterlimit="10" x1="323.558" y1="289.978" x2="311.07" y2="295.505"/>
		
			<line fill="none" stroke="#1E3557" stroke-width="1.2778" stroke-linecap="round" stroke-linejoin="round" stroke-miterlimit="10" x1="278.83" y1="257.501" x2="300.359" y2="240.436"/>
	</g>
	<polygon opacity="0.8" fill="#FFFFFF" points="34.583,349.409 250.611,349.409 250.611,276.999 11.961,276.999 	"/>
	<polygon opacity="0.8" fill="#FFFFFF" points="778.364,63.469 600.957,63.469 600.957,22.033 796.943,22.033 	"/>
	<g>
		<g>
			<path fill="#1E3557" d="M71.951,296.971c-1.243,0-2.225,0.413-2.944,1.241c-0.719,0.827-1.079,1.962-1.079,3.4
				c0,1.48,0.347,2.624,1.041,3.432s1.683,1.211,2.967,1.211c0.79,0,1.689-0.142,2.701-0.425v1.152
				c-0.784,0.294-1.751,0.441-2.902,0.441c-1.666,0-2.952-0.506-3.857-1.518c-0.905-1.01-1.358-2.447-1.358-4.309
				c0-1.166,0.218-2.188,0.654-3.064c0.436-0.877,1.065-1.553,1.888-2.027s1.792-0.712,2.906-0.712c1.186,0,2.223,0.217,3.11,0.649
				l-0.557,1.131C73.663,297.172,72.807,296.971,71.951,296.971z"/>
			<path fill="#1E3557" d="M82.125,307.269l-0.255-1.207h-0.062c-0.423,0.531-0.845,0.892-1.265,1.079
				c-0.42,0.188-0.945,0.283-1.575,0.283c-0.841,0-1.5-0.217-1.977-0.65s-0.715-1.05-0.715-1.85c0-1.713,1.369-2.609,4.108-2.692
				l1.439-0.046v-0.527c0-0.664-0.143-1.156-0.429-1.473c-0.286-0.318-0.744-0.477-1.374-0.477c-0.707,0-1.506,0.217-2.398,0.65
				l-0.395-0.982c0.417-0.228,0.875-0.405,1.373-0.535c0.498-0.129,0.997-0.193,1.498-0.193c1.011,0,1.76,0.225,2.248,0.674
				s0.731,1.168,0.731,2.158v5.788H82.125z M79.224,306.363c0.799,0,1.428-0.219,1.884-0.658c0.457-0.438,0.685-1.052,0.685-1.841
				v-0.767l-1.284,0.055c-1.021,0.036-1.758,0.195-2.209,0.476c-0.451,0.281-0.677,0.719-0.677,1.312
				c0,0.465,0.141,0.818,0.421,1.061C78.325,306.242,78.718,306.363,79.224,306.363z"/>
			<path fill="#1E3557" d="M84.694,311.075c-0.49,0-0.887-0.064-1.191-0.193v-1.044c0.356,0.103,0.707,0.154,1.052,0.154
				c0.402,0,0.698-0.109,0.886-0.329c0.188-0.22,0.282-0.554,0.282-1.002v-9.873h1.284v9.78
				C87.007,310.24,86.236,311.075,84.694,311.075z M85.615,296.49c0-0.294,0.072-0.51,0.217-0.646
				c0.144-0.137,0.325-0.205,0.542-0.205c0.206,0,0.384,0.07,0.534,0.209c0.15,0.14,0.225,0.354,0.225,0.643
				s-0.075,0.504-0.225,0.646c-0.149,0.142-0.328,0.213-0.534,0.213c-0.217,0-0.397-0.071-0.542-0.213
				C85.687,296.994,85.615,296.779,85.615,296.49z"/>
			<path fill="#1E3557" d="M94.946,307.269l-0.255-1.207h-0.062c-0.423,0.531-0.845,0.892-1.265,1.079
				c-0.42,0.188-0.945,0.283-1.575,0.283c-0.841,0-1.5-0.217-1.977-0.65s-0.715-1.05-0.715-1.85c0-1.713,1.369-2.609,4.108-2.692
				l1.439-0.046v-0.527c0-0.664-0.143-1.156-0.429-1.473c-0.286-0.318-0.744-0.477-1.374-0.477c-0.707,0-1.506,0.217-2.398,0.65
				l-0.395-0.982c0.417-0.228,0.875-0.405,1.373-0.535c0.498-0.129,0.997-0.193,1.498-0.193c1.011,0,1.76,0.225,2.248,0.674
				s0.731,1.168,0.731,2.158v5.788H94.946z M92.044,306.363c0.799,0,1.428-0.219,1.884-0.658c0.457-0.438,0.685-1.052,0.685-1.841
				v-0.767l-1.284,0.055c-1.021,0.036-1.758,0.195-2.209,0.476c-0.451,0.281-0.677,0.719-0.677,1.312
				c0,0.465,0.141,0.818,0.421,1.061C91.146,306.242,91.539,306.363,92.044,306.363z"/>
			<path fill="#1E3557" d="M108.432,306.131h-0.069c-0.593,0.861-1.48,1.293-2.662,1.293c-1.109,0-1.972-0.38-2.588-1.138
				c-0.617-0.759-0.925-1.837-0.925-3.234s0.31-2.483,0.929-3.258c0.619-0.773,1.48-1.161,2.584-1.161
				c1.15,0,2.032,0.418,2.646,1.254h0.101l-0.054-0.611l-0.031-0.596v-3.451h1.284v12.04h-1.044L108.432,306.131z M105.863,306.348
				c0.877,0,1.513-0.238,1.907-0.716c0.395-0.478,0.592-1.247,0.592-2.31v-0.271c0-1.202-0.2-2.06-0.6-2.573
				c-0.4-0.513-1.039-0.77-1.915-0.77c-0.753,0-1.33,0.293-1.729,0.879c-0.4,0.585-0.6,1.412-0.6,2.479
				c0,1.084,0.198,1.901,0.596,2.453C104.512,306.072,105.095,306.348,105.863,306.348z"/>
			<path fill="#1E3557" d="M115.953,307.424c-1.253,0-2.243-0.383-2.967-1.146c-0.725-0.764-1.087-1.823-1.087-3.181
				c0-1.367,0.337-2.452,1.01-3.257c0.673-0.806,1.577-1.208,2.712-1.208c1.063,0,1.904,0.35,2.522,1.049
				c0.619,0.699,0.929,1.621,0.929,2.767v0.813h-5.842c0.026,0.995,0.277,1.751,0.754,2.267s1.149,0.773,2.016,0.773
				c0.913,0,1.815-0.19,2.708-0.572v1.146c-0.454,0.196-0.883,0.337-1.288,0.421C117.014,307.381,116.525,307.424,115.953,307.424z
				 M115.605,299.709c-0.681,0-1.224,0.222-1.629,0.666c-0.405,0.443-0.644,1.057-0.716,1.841h4.434c0-0.81-0.181-1.431-0.542-1.86
				C116.791,299.924,116.275,299.709,115.605,299.709z"/>
			<path fill="#1E3557" d="M122.545,307.269h-1.284v-12.04h1.284V307.269z"/>
			<path fill="#1E3557" d="M132.774,307.424c-1.228,0-2.178-0.379-2.852-1.135c-0.673-0.755-1.01-1.824-1.01-3.207
				c0-1.418,0.342-2.514,1.025-3.288c0.684-0.773,1.657-1.161,2.921-1.161c0.407,0,0.815,0.045,1.223,0.133
				c0.407,0.088,0.727,0.19,0.959,0.309l-0.395,1.092c-0.284-0.113-0.593-0.208-0.928-0.283c-0.335-0.074-0.632-0.111-0.89-0.111
				c-1.723,0-2.584,1.098-2.584,3.295c0,1.043,0.21,1.842,0.63,2.399s1.043,0.835,1.869,0.835c0.707,0,1.432-0.151,2.174-0.456
				v1.138C134.35,307.276,133.635,307.424,132.774,307.424z"/>
			<path fill="#1E3557" d="M142.144,307.269l-0.255-1.207h-0.062c-0.423,0.531-0.845,0.892-1.265,1.079
				c-0.42,0.188-0.945,0.283-1.575,0.283c-0.841,0-1.5-0.217-1.977-0.65s-0.715-1.05-0.715-1.85c0-1.713,1.369-2.609,4.108-2.692
				l1.439-0.046v-0.527c0-0.664-0.143-1.156-0.429-1.473c-0.286-0.318-0.744-0.477-1.374-0.477c-0.707,0-1.506,0.217-2.398,0.65
				l-0.395-0.982c0.417-0.228,0.875-0.405,1.373-0.535c0.498-0.129,0.997-0.193,1.498-0.193c1.011,0,1.76,0.225,2.248,0.674
				s0.731,1.168,0.731,2.158v5.788H142.144z M139.242,306.363c0.799,0,1.428-0.219,1.884-0.658c0.457-0.438,0.685-1.052,0.685-1.841
				v-0.767l-1.284,0.055c-1.021,0.036-1.758,0.195-2.209,0.476c-0.451,0.281-0.677,0.719-0.677,1.312
				c0,0.465,0.141,0.818,0.421,1.061C138.343,306.242,138.737,306.363,139.242,306.363z"/>
			<path fill="#1E3557" d="M149.61,298.633c0.376,0,0.714,0.031,1.014,0.094l-0.178,1.191c-0.351-0.077-0.661-0.116-0.929-0.116
				c-0.686,0-1.273,0.278-1.76,0.836s-0.731,1.251-0.731,2.081v4.55h-1.284v-8.48h1.06l0.147,1.571h0.062
				c0.314-0.553,0.693-0.979,1.137-1.277S149.079,298.633,149.61,298.633z"/>
			<path fill="#1E3557" d="M159.151,298.788v0.813l-1.571,0.187c0.145,0.18,0.273,0.416,0.387,0.707
				c0.113,0.291,0.17,0.621,0.17,0.986c0,0.831-0.284,1.494-0.851,1.988c-0.567,0.496-1.346,0.744-2.336,0.744
				c-0.253,0-0.49-0.021-0.712-0.063c-0.547,0.289-0.82,0.652-0.82,1.091c0,0.232,0.095,0.403,0.286,0.515s0.519,0.166,0.983,0.166
				h1.501c0.918,0,1.624,0.193,2.116,0.58c0.493,0.388,0.739,0.949,0.739,1.688c0,0.938-0.376,1.654-1.129,2.146
				c-0.753,0.493-1.852,0.739-3.296,0.739c-1.109,0-1.964-0.206-2.565-0.618c-0.601-0.414-0.901-0.996-0.901-1.75
				c0-0.516,0.165-0.961,0.495-1.338s0.794-0.632,1.393-0.766c-0.217-0.098-0.399-0.25-0.546-0.457
				c-0.147-0.206-0.22-0.445-0.22-0.719c0-0.311,0.083-0.581,0.248-0.813c0.165-0.232,0.425-0.457,0.781-0.674
				c-0.438-0.181-0.795-0.487-1.071-0.921c-0.276-0.433-0.414-0.929-0.414-1.485c0-0.929,0.278-1.645,0.835-2.147
				s1.346-0.755,2.368-0.755c0.444,0,0.843,0.053,1.199,0.155H159.151z M152.388,308.692c0,0.459,0.194,0.808,0.581,1.044
				c0.387,0.238,0.941,0.356,1.664,0.356c1.078,0,1.876-0.161,2.395-0.483c0.519-0.322,0.778-0.76,0.778-1.312
				c0-0.46-0.142-0.778-0.426-0.956s-0.817-0.267-1.602-0.267h-1.54c-0.583,0-1.037,0.14-1.362,0.418
				C152.551,307.771,152.388,308.172,152.388,308.692z M153.085,301.504c0,0.594,0.167,1.043,0.503,1.347
				c0.335,0.304,0.802,0.456,1.4,0.456c1.253,0,1.88-0.608,1.88-1.826c0-1.273-0.634-1.91-1.903-1.91
				c-0.604,0-1.068,0.162-1.393,0.486C153.247,300.383,153.085,300.865,153.085,301.504z"/>
			<path fill="#1E3557" d="M166.107,307.269l-0.255-1.207h-0.062c-0.423,0.531-0.845,0.892-1.265,1.079
				c-0.42,0.188-0.945,0.283-1.575,0.283c-0.841,0-1.5-0.217-1.977-0.65s-0.715-1.05-0.715-1.85c0-1.713,1.369-2.609,4.108-2.692
				l1.439-0.046v-0.527c0-0.664-0.143-1.156-0.429-1.473c-0.286-0.318-0.744-0.477-1.374-0.477c-0.707,0-1.506,0.217-2.398,0.65
				l-0.395-0.982c0.417-0.228,0.875-0.405,1.373-0.535c0.498-0.129,0.997-0.193,1.498-0.193c1.011,0,1.76,0.225,2.248,0.674
				s0.731,1.168,0.731,2.158v5.788H166.107z M163.206,306.363c0.799,0,1.428-0.219,1.884-0.658c0.457-0.438,0.685-1.052,0.685-1.841
				v-0.767l-1.284,0.055c-1.021,0.036-1.758,0.195-2.209,0.476c-0.451,0.281-0.677,0.719-0.677,1.312
				c0,0.465,0.141,0.818,0.421,1.061C162.307,306.242,162.7,306.363,163.206,306.363z"/>
			<path fill="#1E3557" d="M175.477,306.131h-0.069c-0.593,0.861-1.48,1.293-2.662,1.293c-1.109,0-1.972-0.38-2.588-1.138
				c-0.617-0.759-0.925-1.837-0.925-3.234s0.31-2.483,0.929-3.258c0.619-0.773,1.48-1.161,2.584-1.161
				c1.15,0,2.032,0.418,2.646,1.254h0.101l-0.054-0.611l-0.031-0.596v-3.451h1.284v12.04h-1.044L175.477,306.131z M172.908,306.348
				c0.877,0,1.513-0.238,1.907-0.716c0.395-0.478,0.592-1.247,0.592-2.31v-0.271c0-1.202-0.2-2.06-0.6-2.573
				c-0.4-0.513-1.039-0.77-1.915-0.77c-0.753,0-1.33,0.293-1.729,0.879c-0.4,0.585-0.6,1.412-0.6,2.479
				c0,1.084,0.198,1.901,0.596,2.453C171.557,306.072,172.14,306.348,172.908,306.348z"/>
			<path fill="#1E3557" d="M186.735,303.021c0,1.383-0.348,2.462-1.045,3.238c-0.696,0.776-1.658,1.165-2.886,1.165
				c-0.758,0-1.432-0.179-2.02-0.534c-0.588-0.356-1.042-0.866-1.362-1.532s-0.48-1.444-0.48-2.337c0-1.382,0.346-2.459,1.037-3.229
				c0.691-0.771,1.65-1.158,2.878-1.158c1.186,0,2.129,0.396,2.828,1.185C186.386,300.606,186.735,301.674,186.735,303.021z
				 M180.274,303.021c0,1.083,0.217,1.909,0.65,2.476c0.433,0.568,1.07,0.852,1.911,0.852s1.479-0.282,1.915-0.848
				c0.436-0.564,0.654-1.391,0.654-2.479c0-1.077-0.218-1.896-0.654-2.456c-0.436-0.561-1.08-0.84-1.931-0.84
				c-0.841,0-1.475,0.275-1.903,0.828C180.488,301.104,180.274,301.928,180.274,303.021z"/>
			<path fill="#1E3557" d="M192.855,298.633c0.376,0,0.714,0.031,1.014,0.094l-0.178,1.191c-0.351-0.077-0.661-0.116-0.929-0.116
				c-0.686,0-1.273,0.278-1.76,0.836s-0.731,1.251-0.731,2.081v4.55h-1.284v-8.48h1.06l0.147,1.571h0.062
				c0.314-0.553,0.693-0.979,1.137-1.277S192.324,298.633,192.855,298.633z"/>
			<path fill="#1E3557" d="M72.686,325.146h-0.069c-0.593,0.861-1.48,1.293-2.662,1.293c-1.109,0-1.972-0.38-2.588-1.138
				c-0.617-0.759-0.925-1.837-0.925-3.234s0.31-2.483,0.929-3.258c0.619-0.773,1.48-1.161,2.584-1.161
				c1.15,0,2.032,0.418,2.646,1.254h0.101l-0.054-0.611l-0.031-0.596v-3.451H73.9v12.04h-1.044L72.686,325.146z M70.117,325.363
				c0.877,0,1.513-0.238,1.907-0.716c0.395-0.478,0.592-1.247,0.592-2.31v-0.271c0-1.202-0.2-2.06-0.6-2.573
				c-0.4-0.513-1.039-0.77-1.915-0.77c-0.753,0-1.33,0.293-1.729,0.879c-0.4,0.585-0.6,1.412-0.6,2.479
				c0,1.084,0.198,1.901,0.596,2.453C68.765,325.088,69.348,325.363,70.117,325.363z"/>
			<path fill="#1E3557" d="M80.207,326.439c-1.253,0-2.243-0.383-2.967-1.146c-0.725-0.764-1.087-1.823-1.087-3.181
				c0-1.367,0.337-2.452,1.01-3.257c0.673-0.806,1.577-1.208,2.712-1.208c1.063,0,1.904,0.35,2.522,1.049
				c0.619,0.699,0.929,1.621,0.929,2.767v0.813h-5.842c0.026,0.995,0.277,1.751,0.754,2.267s1.149,0.773,2.016,0.773
				c0.913,0,1.815-0.19,2.708-0.572v1.146c-0.454,0.196-0.883,0.337-1.288,0.421C81.268,326.396,80.779,326.439,80.207,326.439z
				 M79.858,318.725c-0.681,0-1.224,0.222-1.629,0.666c-0.405,0.443-0.644,1.057-0.716,1.841h4.434c0-0.81-0.181-1.431-0.542-1.86
				C81.044,318.939,80.529,318.725,79.858,318.725z"/>
			<path fill="#1E3557" d="M90.915,326.284H89.63v-12.04h1.284V326.284z"/>
			<path fill="#1E3557" d="M98.853,326.284l-0.255-1.207h-0.062c-0.423,0.531-0.845,0.892-1.265,1.079
				c-0.42,0.188-0.945,0.283-1.575,0.283c-0.841,0-1.5-0.217-1.977-0.65s-0.715-1.05-0.715-1.85c0-1.713,1.369-2.609,4.108-2.692
				l1.439-0.046v-0.527c0-0.664-0.143-1.156-0.429-1.473c-0.286-0.318-0.744-0.477-1.374-0.477c-0.707,0-1.506,0.217-2.398,0.65
				l-0.395-0.982c0.417-0.228,0.875-0.405,1.373-0.535c0.498-0.129,0.997-0.193,1.498-0.193c1.011,0,1.76,0.225,2.248,0.674
				s0.731,1.168,0.731,2.158v5.788H98.853z M95.952,325.379c0.799,0,1.428-0.219,1.884-0.658c0.457-0.438,0.685-1.052,0.685-1.841
				v-0.767l-1.284,0.055c-1.021,0.036-1.758,0.195-2.209,0.476c-0.451,0.281-0.677,0.719-0.677,1.312
				c0,0.465,0.141,0.818,0.421,1.061C95.053,325.258,95.446,325.379,95.952,325.379z"/>
			<path fill="#1E3557" d="M110.514,317.664c1.114,0,1.979,0.381,2.596,1.143c0.616,0.76,0.925,1.837,0.925,3.229
				c0,1.394-0.311,2.476-0.933,3.246s-1.484,1.157-2.588,1.157c-0.552,0-1.056-0.103-1.513-0.307
				c-0.457-0.203-0.84-0.517-1.149-0.939h-0.093l-0.271,1.091h-0.921v-12.04h1.284v2.926c0,0.654-0.021,1.242-0.062,1.764h0.062
				C108.45,318.088,109.337,317.664,110.514,317.664z M110.328,318.74c-0.877,0-1.509,0.252-1.896,0.754
				c-0.387,0.504-0.581,1.351-0.581,2.542c0,1.192,0.199,2.044,0.596,2.558c0.397,0.514,1.034,0.77,1.911,0.77
				c0.789,0,1.377-0.287,1.764-0.863c0.387-0.574,0.58-1.4,0.58-2.479c0-1.104-0.193-1.928-0.58-2.469
				C111.736,319.011,111.138,318.74,110.328,318.74z"/>
			<path fill="#1E3557" d="M121.493,326.284l-0.255-1.207h-0.062c-0.423,0.531-0.845,0.892-1.265,1.079
				c-0.42,0.188-0.945,0.283-1.575,0.283c-0.841,0-1.5-0.217-1.977-0.65s-0.715-1.05-0.715-1.85c0-1.713,1.369-2.609,4.108-2.692
				l1.439-0.046v-0.527c0-0.664-0.143-1.156-0.429-1.473c-0.286-0.318-0.744-0.477-1.374-0.477c-0.707,0-1.506,0.217-2.398,0.65
				l-0.395-0.982c0.417-0.228,0.875-0.405,1.373-0.535c0.498-0.129,0.997-0.193,1.498-0.193c1.011,0,1.76,0.225,2.248,0.674
				s0.731,1.168,0.731,2.158v5.788H121.493z M118.591,325.379c0.799,0,1.428-0.219,1.884-0.658c0.457-0.438,0.685-1.052,0.685-1.841
				v-0.767l-1.284,0.055c-1.021,0.036-1.758,0.195-2.209,0.476c-0.451,0.281-0.677,0.719-0.677,1.312
				c0,0.465,0.141,0.818,0.421,1.061C117.692,325.258,118.086,325.379,118.591,325.379z"/>
			<path fill="#1E3557" d="M127.83,325.379c0.227,0,0.446-0.017,0.658-0.051c0.211-0.033,0.379-0.068,0.503-0.104v0.982
				c-0.14,0.066-0.345,0.122-0.615,0.166c-0.271,0.044-0.515,0.066-0.731,0.066c-1.64,0-2.46-0.864-2.46-2.593v-5.044h-1.215v-0.619
				l1.215-0.535l0.542-1.811h0.743v1.966h2.46v0.999h-2.46v4.99c0,0.51,0.121,0.902,0.363,1.176
				C127.074,325.242,127.407,325.379,127.83,325.379z"/>
			<path fill="#1E3557" d="M134.268,326.439c-1.253,0-2.243-0.383-2.967-1.146c-0.725-0.764-1.087-1.823-1.087-3.181
				c0-1.367,0.337-2.452,1.01-3.257c0.673-0.806,1.577-1.208,2.712-1.208c1.063,0,1.904,0.35,2.522,1.049
				c0.619,0.699,0.929,1.621,0.929,2.767v0.813h-5.842c0.026,0.995,0.277,1.751,0.754,2.267s1.149,0.773,2.016,0.773
				c0.913,0,1.815-0.19,2.708-0.572v1.146c-0.454,0.196-0.883,0.337-1.288,0.421C135.329,326.396,134.84,326.439,134.268,326.439z
				 M133.919,318.725c-0.681,0-1.224,0.222-1.629,0.666c-0.405,0.443-0.644,1.057-0.716,1.841h4.434c0-0.81-0.181-1.431-0.542-1.86
				C135.105,318.939,134.59,318.725,133.919,318.725z"/>
			<path fill="#1E3557" d="M143.444,317.648c0.376,0,0.714,0.031,1.014,0.094l-0.178,1.191c-0.351-0.077-0.661-0.116-0.929-0.116
				c-0.686,0-1.273,0.278-1.76,0.836s-0.731,1.251-0.731,2.081v4.55h-1.284v-8.48h1.06l0.147,1.571h0.062
				c0.314-0.553,0.693-0.979,1.137-1.277S142.913,317.648,143.444,317.648z"/>
			<path fill="#1E3557" d="M145.99,316.488c0.248-0.319,0.515-0.707,0.801-1.16c0.286-0.454,0.512-0.849,0.677-1.184h1.563v0.162
				c-0.227,0.336-0.565,0.748-1.014,1.238s-0.838,0.869-1.168,1.137h-0.859V316.488z M147.328,326.284h-1.284v-8.48h1.284V326.284z"
				/>
			<path fill="#1E3557" d="M155.267,326.284l-0.255-1.207h-0.062c-0.423,0.531-0.845,0.892-1.265,1.079
				c-0.42,0.188-0.945,0.283-1.575,0.283c-0.841,0-1.5-0.217-1.977-0.65s-0.715-1.05-0.715-1.85c0-1.713,1.369-2.609,4.108-2.692
				l1.439-0.046v-0.527c0-0.664-0.143-1.156-0.429-1.473c-0.286-0.318-0.744-0.477-1.374-0.477c-0.707,0-1.506,0.217-2.398,0.65
				l-0.395-0.982c0.417-0.228,0.875-0.405,1.373-0.535c0.498-0.129,0.997-0.193,1.498-0.193c1.011,0,1.76,0.225,2.248,0.674
				s0.731,1.168,0.731,2.158v5.788H155.267z M152.365,325.379c0.799,0,1.428-0.219,1.884-0.658c0.457-0.438,0.685-1.052,0.685-1.841
				v-0.767l-1.284,0.055c-1.021,0.036-1.758,0.195-2.209,0.476c-0.451,0.281-0.677,0.719-0.677,1.312
				c0,0.465,0.141,0.818,0.421,1.061C151.466,325.258,151.86,325.379,152.365,325.379z"/>
			<path fill="#1E3557" d="M166.563,326.439c-1.253,0-2.243-0.383-2.967-1.146c-0.725-0.764-1.087-1.823-1.087-3.181
				c0-1.367,0.337-2.452,1.01-3.257c0.673-0.806,1.577-1.208,2.712-1.208c1.063,0,1.904,0.35,2.522,1.049
				c0.619,0.699,0.929,1.621,0.929,2.767v0.813h-5.842c0.026,0.995,0.277,1.751,0.754,2.267s1.149,0.773,2.016,0.773
				c0.913,0,1.815-0.19,2.708-0.572v1.146c-0.454,0.196-0.883,0.337-1.288,0.421C167.625,326.396,167.136,326.439,166.563,326.439z
				 M166.215,318.725c-0.681,0-1.224,0.222-1.629,0.666c-0.405,0.443-0.644,1.057-0.716,1.841h4.434c0-0.81-0.181-1.431-0.542-1.86
				C167.401,318.939,166.886,318.725,166.215,318.725z"/>
			<path fill="#1E3557" d="M173.914,321.943l-2.948-4.14h1.462l2.236,3.25l2.229-3.25h1.447l-2.948,4.14l3.103,4.341h-1.455
				l-2.375-3.436l-2.398,3.436h-1.455L173.914,321.943z"/>
			<path fill="#1E3557" d="M182.913,325.379c0.227,0,0.446-0.017,0.658-0.051c0.211-0.033,0.379-0.068,0.503-0.104v0.982
				c-0.14,0.066-0.345,0.122-0.615,0.166c-0.271,0.044-0.515,0.066-0.731,0.066c-1.64,0-2.46-0.864-2.46-2.593v-5.044h-1.215v-0.619
				l1.215-0.535l0.542-1.811h0.743v1.966h2.46v0.999h-2.46v4.99c0,0.51,0.121,0.902,0.363,1.176
				C182.157,325.242,182.489,325.379,182.913,325.379z"/>
			<path fill="#1E3557" d="M189.35,326.439c-1.253,0-2.243-0.383-2.967-1.146c-0.725-0.764-1.087-1.823-1.087-3.181
				c0-1.367,0.337-2.452,1.01-3.257c0.673-0.806,1.577-1.208,2.712-1.208c1.063,0,1.904,0.35,2.522,1.049
				c0.619,0.699,0.929,1.621,0.929,2.767v0.813h-5.842c0.026,0.995,0.277,1.751,0.754,2.267s1.149,0.773,2.016,0.773
				c0.913,0,1.815-0.19,2.708-0.572v1.146c-0.454,0.196-0.883,0.337-1.288,0.421C190.411,326.396,189.922,326.439,189.35,326.439z
				 M189.002,318.725c-0.681,0-1.224,0.222-1.629,0.666c-0.405,0.443-0.644,1.057-0.716,1.841h4.434c0-0.81-0.181-1.431-0.542-1.86
				C190.188,318.939,189.672,318.725,189.002,318.725z"/>
			<path fill="#1E3557" d="M198.526,317.648c0.376,0,0.714,0.031,1.014,0.094l-0.178,1.191c-0.351-0.077-0.661-0.116-0.929-0.116
				c-0.686,0-1.273,0.278-1.76,0.836s-0.731,1.251-0.731,2.081v4.55h-1.284v-8.48h1.06l0.147,1.571h0.062
				c0.314-0.553,0.693-0.979,1.137-1.277S197.995,317.648,198.526,317.648z"/>
			<path fill="#1E3557" d="M206.93,326.284v-5.485c0-0.691-0.158-1.207-0.472-1.548s-0.807-0.511-1.478-0.511
				c-0.887,0-1.537,0.24-1.95,0.72s-0.619,1.271-0.619,2.375v4.449h-1.284v-8.48h1.044l0.209,1.161h0.062
				c0.263-0.418,0.632-0.742,1.106-0.971c0.475-0.23,1.003-0.346,1.586-0.346c1.021,0,1.79,0.247,2.306,0.74
				c0.516,0.492,0.773,1.279,0.773,2.363v5.532H206.93z"/>
			<path fill="#1E3557" d="M216.067,326.284l-0.255-1.207h-0.062c-0.423,0.531-0.845,0.892-1.265,1.079
				c-0.42,0.188-0.945,0.283-1.575,0.283c-0.841,0-1.5-0.217-1.977-0.65s-0.715-1.05-0.715-1.85c0-1.713,1.369-2.609,4.108-2.692
				l1.439-0.046v-0.527c0-0.664-0.143-1.156-0.429-1.473c-0.286-0.318-0.744-0.477-1.374-0.477c-0.707,0-1.506,0.217-2.398,0.65
				l-0.395-0.982c0.417-0.228,0.875-0.405,1.373-0.535c0.498-0.129,0.997-0.193,1.498-0.193c1.011,0,1.76,0.225,2.248,0.674
				s0.731,1.168,0.731,2.158v5.788H216.067z M213.166,325.379c0.799,0,1.428-0.219,1.884-0.658c0.457-0.438,0.685-1.052,0.685-1.841
				v-0.767l-1.284,0.055c-1.021,0.036-1.758,0.195-2.209,0.476c-0.451,0.281-0.677,0.719-0.677,1.312
				c0,0.465,0.141,0.818,0.421,1.061C212.267,325.258,212.661,325.379,213.166,325.379z"/>
		</g>
	</g>
	<g>
		<g>
			<path fill="#1E3557" d="M658.453,37.455c-1.242,0-2.225,0.414-2.943,1.242c-0.72,0.828-1.08,1.961-1.08,3.4
				c0,1.48,0.348,2.625,1.041,3.432c0.693,0.808,1.684,1.211,2.967,1.211c0.79,0,1.689-0.142,2.701-0.425v1.153
				c-0.784,0.294-1.752,0.441-2.902,0.441c-1.666,0-2.951-0.505-3.856-1.517c-0.905-1.011-1.358-2.448-1.358-4.31
				c0-1.166,0.219-2.187,0.654-3.064c0.436-0.876,1.064-1.552,1.888-2.027s1.792-0.712,2.905-0.712c1.187,0,2.224,0.217,3.111,0.65
				l-0.558,1.13C660.166,37.656,659.31,37.455,658.453,37.455z"/>
			<path fill="#1E3557" d="M668.628,47.753l-0.255-1.207h-0.063c-0.423,0.531-0.844,0.891-1.265,1.08
				c-0.421,0.188-0.945,0.282-1.575,0.282c-0.84,0-1.5-0.217-1.977-0.65c-0.477-0.434-0.715-1.05-0.715-1.849
				c0-1.713,1.369-2.61,4.107-2.693l1.439-0.046v-0.526c0-0.665-0.143-1.157-0.43-1.474c-0.285-0.317-0.744-0.476-1.373-0.476
				c-0.707,0-1.506,0.217-2.398,0.65l-0.395-0.982c0.418-0.227,0.875-0.405,1.373-0.534c0.498-0.129,0.997-0.193,1.498-0.193
				c1.01,0,1.76,0.225,2.247,0.673s0.731,1.168,0.731,2.159v5.788H668.628z M665.727,46.848c0.799,0,1.428-0.219,1.885-0.658
				c0.456-0.438,0.684-1.052,0.684-1.841v-0.766l-1.283,0.054c-1.021,0.036-1.758,0.195-2.21,0.476
				c-0.451,0.281-0.677,0.719-0.677,1.312c0,0.464,0.141,0.818,0.422,1.06C664.828,46.727,665.221,46.848,665.727,46.848z"/>
			<path fill="#1E3557" d="M671.197,51.56c-0.49,0-0.887-0.064-1.191-0.193v-1.044c0.355,0.103,0.707,0.155,1.052,0.155
				c0.402,0,0.698-0.11,0.886-0.329c0.188-0.219,0.283-0.553,0.283-1.002v-9.873h1.283v9.78
				C673.51,50.725,672.739,51.56,671.197,51.56z M672.117,36.975c0-0.294,0.072-0.509,0.217-0.646s0.325-0.205,0.542-0.205
				c0.206,0,0.384,0.07,0.534,0.209c0.149,0.139,0.225,0.354,0.225,0.642c0,0.289-0.075,0.504-0.225,0.646
				c-0.15,0.142-0.328,0.213-0.534,0.213c-0.217,0-0.397-0.071-0.542-0.213C672.189,37.479,672.117,37.264,672.117,36.975z"/>
			<path fill="#1E3557" d="M681.449,47.753l-0.256-1.207h-0.062c-0.423,0.531-0.845,0.891-1.265,1.08
				c-0.421,0.188-0.945,0.282-1.575,0.282c-0.841,0-1.5-0.217-1.978-0.65c-0.477-0.434-0.715-1.05-0.715-1.849
				c0-1.713,1.369-2.61,4.108-2.693l1.438-0.046v-0.526c0-0.665-0.143-1.157-0.429-1.474c-0.286-0.317-0.744-0.476-1.374-0.476
				c-0.706,0-1.506,0.217-2.398,0.65l-0.395-0.982c0.418-0.227,0.876-0.405,1.373-0.534c0.498-0.129,0.998-0.193,1.498-0.193
				c1.011,0,1.76,0.225,2.248,0.673c0.486,0.449,0.73,1.168,0.73,2.159v5.788H681.449z M678.547,46.848
				c0.8,0,1.428-0.219,1.885-0.658s0.685-1.052,0.685-1.841v-0.766l-1.284,0.054c-1.021,0.036-1.758,0.195-2.209,0.476
				c-0.451,0.281-0.678,0.719-0.678,1.312c0,0.464,0.141,0.818,0.422,1.06C677.648,46.727,678.042,46.848,678.547,46.848z"/>
			<path fill="#1E3557" d="M694.936,46.616h-0.07c-0.593,0.861-1.48,1.292-2.661,1.292c-1.109,0-1.972-0.379-2.589-1.137
				c-0.616-0.758-0.924-1.836-0.924-3.234s0.309-2.484,0.928-3.258c0.619-0.773,1.48-1.161,2.585-1.161
				c1.149,0,2.032,0.418,2.646,1.254h0.102l-0.055-0.611l-0.031-0.596v-3.451h1.285v12.04h-1.045L694.936,46.616z M692.366,46.833
				c0.877,0,1.513-0.238,1.907-0.716c0.395-0.477,0.592-1.247,0.592-2.31v-0.271c0-1.202-0.199-2.06-0.6-2.573
				c-0.399-0.513-1.038-0.77-1.914-0.77c-0.754,0-1.33,0.293-1.73,0.878c-0.399,0.585-0.6,1.412-0.6,2.479
				c0,1.083,0.199,1.901,0.596,2.453C691.015,46.557,691.598,46.833,692.366,46.833z"/>
			<path fill="#1E3557" d="M702.456,47.908c-1.253,0-2.243-0.382-2.968-1.145c-0.725-0.764-1.087-1.824-1.087-3.18
				c0-1.367,0.337-2.453,1.01-3.257c0.673-0.805,1.577-1.208,2.712-1.208c1.063,0,1.904,0.35,2.522,1.049
				c0.619,0.699,0.929,1.621,0.929,2.766v0.813h-5.842c0.025,0.996,0.277,1.751,0.754,2.267c0.478,0.516,1.149,0.773,2.016,0.773
				c0.914,0,1.816-0.191,2.709-0.572v1.145c-0.455,0.196-0.884,0.336-1.289,0.421C703.518,47.866,703.028,47.908,702.456,47.908z
				 M702.107,40.194c-0.681,0-1.224,0.222-1.629,0.666c-0.404,0.444-0.643,1.058-0.715,1.841h4.434c0-0.81-0.182-1.43-0.542-1.861
				C703.294,40.409,702.778,40.194,702.107,40.194z"/>
			<path fill="#1E3557" d="M709.048,47.753h-1.284v-12.04h1.284V47.753z"/>
			<path fill="#1E3557" d="M725.111,41.989c0,1.868-0.508,3.295-1.521,4.283c-1.014,0.988-2.472,1.482-4.375,1.482h-3.134V36.441
				h3.466c1.76,0,3.127,0.487,4.102,1.462C724.623,38.878,725.111,40.24,725.111,41.989z M723.718,42.036
				c0-1.476-0.37-2.587-1.11-3.335s-1.84-1.122-3.3-1.122h-1.911v9.038h1.602c1.568,0,2.747-0.386,3.536-1.157
				C723.323,44.688,723.718,43.547,723.718,42.036z"/>
			<path fill="#1E3557" d="M732.64,47.753l-3.838-10.028h-0.062c0.072,0.794,0.107,1.738,0.107,2.832v7.196h-1.215V36.441h1.981
				l3.583,9.331h0.061l3.614-9.331h1.966v11.312h-1.316v-7.289c0-0.836,0.037-1.744,0.109-2.724h-0.063l-3.869,10.012H732.64z"/>
			<path fill="#1E3557" d="M746.783,37.455c-1.242,0-2.225,0.414-2.943,1.242c-0.72,0.828-1.08,1.961-1.08,3.4
				c0,1.48,0.348,2.625,1.041,3.432c0.693,0.808,1.684,1.211,2.967,1.211c0.79,0,1.689-0.142,2.701-0.425v1.153
				c-0.784,0.294-1.752,0.441-2.902,0.441c-1.666,0-2.951-0.505-3.856-1.517c-0.905-1.011-1.358-2.448-1.358-4.31
				c0-1.166,0.219-2.187,0.654-3.064c0.436-0.876,1.064-1.552,1.888-2.027s1.792-0.712,2.905-0.712c1.187,0,2.224,0.217,3.111,0.65
				l-0.558,1.13C748.496,37.656,747.64,37.455,746.783,37.455z"/>
		</g>
	</g>
	<path fill="#BD475A" d="M249.875,276.722v26.329c0,0.203,0.092,0.396,0.25,0.525c0.122,0.098,0.272,0.15,0.424,0.15
		c0.047,0,0.095-0.008,0.143-0.017l21.669-4.655c0.312-0.068,0.533-0.342,0.533-0.659v-6.502l5.635-3.775
		c0.198-0.131,0.312-0.356,0.3-0.592c-0.012-0.238-0.147-0.452-0.357-0.563l-5.578-2.975v-7.267c0-0.372-0.3-0.674-0.676-0.674
		h-21.669C250.175,276.048,249.875,276.35,249.875,276.722z M254.387,288.238c0-0.733,0.595-1.331,1.333-1.331h3.416v-3.241
		c0-0.734,0.598-1.33,1.333-1.33h1.531c0.733,0,1.331,0.596,1.331,1.33v3.241h3.395c0.738,0,1.333,0.598,1.333,1.331v1.543
		c0,0.734-0.595,1.33-1.333,1.33h-3.395v3.222c0,0.733-0.598,1.329-1.331,1.329h-1.531c-0.736,0-1.333-0.596-1.333-1.329v-3.222
		h-3.416c-0.738,0-1.333-0.596-1.333-1.33V288.238z"/>
	<path fill="#BD475A" d="M600.283,21.485h-21.672c-0.375,0-0.674,0.301-0.674,0.674v7.266l-5.578,2.976
		c-0.21,0.112-0.346,0.324-0.357,0.563c-0.012,0.235,0.102,0.462,0.3,0.592l5.636,3.777v6.5c0,0.318,0.221,0.591,0.53,0.66
		l21.673,4.655c0.047,0.01,0.094,0.017,0.143,0.017c0.152,0,0.303-0.053,0.421-0.15c0.159-0.128,0.253-0.322,0.253-0.524V22.159
		C600.957,21.786,600.654,21.485,600.283,21.485z M596.443,35.219c0,0.734-0.596,1.329-1.332,1.329h-3.418v3.221
		c0,0.735-0.596,1.331-1.331,1.331h-1.53c-0.734,0-1.331-0.596-1.331-1.331v-3.221h-3.397c-0.736,0-1.331-0.595-1.331-1.329v-1.544
		c0-0.733,0.595-1.33,1.331-1.33h3.397v-3.241c0-0.735,0.597-1.331,1.331-1.331h1.53c0.735,0,1.331,0.596,1.331,1.331v3.241h3.418
		c0.736,0,1.332,0.597,1.332,1.33V35.219z"/>
</g>
<g>
</g>
<g>
</g>
<g>
</g>
<g>
</g>
<g>
</g>
<g>
</g>
</svg>
