<?xml version="1.0" encoding="utf-8"?>
<!-- Generator: Adobe Illustrator 16.0.0, SVG Export Plug-In . SVG Version: 6.00 Build 0)  -->
<!DOCTYPE svg PUBLIC "-//W3C//DTD SVG 1.1//EN" "http://www.w3.org/Graphics/SVG/1.1/DTD/svg11.dtd">
<svg version="1.1" id="Capa_1" xmlns="http://www.w3.org/2000/svg" xmlns:xlink="http://www.w3.org/1999/xlink" x="0px" y="0px"
	 width="16.667px" height="18px" viewBox="0 0 16.667 18" enable-background="new 0 0 16.667 18" xml:space="preserve">
<g>
	<g>
		<path fill="#BD475A" d="M14.616,6.102V2.469c0-0.186-0.15-0.335-0.337-0.335H3.448c-0.186,0-0.336,0.149-0.336,0.335v13.16
			c0,0.1,0.047,0.196,0.126,0.262c0.06,0.048,0.135,0.074,0.21,0.074c0.024,0,0.049-0.002,0.072-0.007l10.83-2.326
			c0.155-0.035,0.266-0.172,0.266-0.332v-3.247V6.102z"/>
	</g>
	<path fill="#FFFFFF" d="M11.236,11.566H6.493V10.86l1.9-1.91c0.58-0.586,0.96-1.003,1.145-1.254c0.184-0.25,0.323-0.494,0.415-0.73
		c0.093-0.237,0.138-0.492,0.138-0.765c0-0.385-0.116-0.69-0.351-0.916C9.507,5.061,9.183,4.948,8.768,4.948
		c-0.299,0-0.583,0.049-0.851,0.148C7.648,5.195,7.35,5.374,7.021,5.634L6.586,5.076c0.665-0.553,1.388-0.829,2.171-0.829
		c0.678,0,1.209,0.173,1.595,0.521c0.385,0.346,0.577,0.813,0.577,1.398c0,0.458-0.129,0.91-0.385,1.357S9.808,8.537,9.103,9.221
		l-1.579,1.545v0.04h3.712V11.566z"/>
</g>
<g>
</g>
<g>
</g>
<g>
</g>
<g>
</g>
<g>
</g>
<g>
</g>
</svg>
