<?xml version="1.0" encoding="utf-8"?>
<!-- Generator: Adobe Illustrator 19.2.1, SVG Export Plug-In . SVG Version: 6.00 Build 0)  -->
<svg version="1.2" baseProfile="tiny" xmlns="http://www.w3.org/2000/svg" xmlns:xlink="http://www.w3.org/1999/xlink" x="0px"
	 y="0px" viewBox="0 0 372 274" xml:space="preserve">
<g id="Capa_2">
	<g>
		<g>
			
				<path id="XMLID_105_" fill="none" stroke="#00335A" stroke-width="3.8247" stroke-linecap="round" stroke-linejoin="round" stroke-miterlimit="10" d="
				M244.3,1.1l-116.7,0c-7.4,0-13.4,6-13.4,13.4l0,244.3c0,7.4,6,13.4,13.4,13.4l116.7,0c7.4,0,13.4-6,13.4-13.4l0-244.3
				C257.7,7,251.7,1.1,244.3,1.1z"/>
			
				<path id="XMLID_104_" fill="none" stroke="#00335A" stroke-width="1.2778" stroke-linecap="round" stroke-linejoin="round" stroke-miterlimit="10" d="
				M238.3,7.9l-104.8,0c-6.7,0-12.1,5.4-12.1,12l0,233.4c0,6.6,5.4,12,12.1,12l104.8,0c6.7,0,12.1-5.4,12.1-12l0-233.4
				C250.4,13.3,245,7.9,238.3,7.9z"/>
		</g>
		<g>
			
				<polyline fill="none" stroke="#00335A" stroke-width="3.4075" stroke-linecap="round" stroke-linejoin="round" stroke-miterlimit="10" points="
				304.6,196 304.6,92.8 313.9,92.8 313.9,182.3 321.9,182.3 321.9,92.8 330.8,92.8 330.8,182.3 339.8,182.7 339.8,82.1 			"/>
			
				<rect x="332.5" y="52.9" fill="none" stroke="#00335A" stroke-width="3.4075" stroke-linecap="round" stroke-linejoin="round" stroke-miterlimit="10" width="14.9" height="23.2"/>
			
				<rect x="335.5" y="76.1" fill="none" stroke="#00335A" stroke-width="3.4075" stroke-linecap="round" stroke-linejoin="round" stroke-miterlimit="10" width="9.3" height="6"/>
			
				<rect x="334.4" y="42.6" fill="none" stroke="#00335A" stroke-width="1.2778" stroke-linecap="round" stroke-linejoin="round" stroke-miterlimit="10" width="11.4" height="10.2"/>
			
				<rect x="297.1" y="200.2" fill="none" stroke="#00335A" stroke-width="3.4075" stroke-linecap="round" stroke-linejoin="round" stroke-miterlimit="10" width="14.9" height="12.5"/>
			
				<rect x="299.7" y="197" fill="none" stroke="#00335A" stroke-width="3.4075" stroke-linecap="round" stroke-linejoin="round" stroke-miterlimit="10" width="9.3" height="3.2"/>
			
				<rect x="298.7" y="212.7" fill="none" stroke="#00335A" stroke-width="1.2778" stroke-linecap="round" stroke-linejoin="round" stroke-miterlimit="10" width="11.4" height="7"/>
			
				<rect x="337.1" y="45.5" fill="none" stroke="#00335A" stroke-width="0.5768" stroke-linecap="round" stroke-linejoin="round" stroke-miterlimit="10" width="1.4" height="2.8"/>
			
				<rect x="341.4" y="45.5" fill="none" stroke="#00335A" stroke-width="0.5768" stroke-linecap="round" stroke-linejoin="round" stroke-miterlimit="10" width="1.4" height="2.8"/>
			
				<line fill="none" stroke="#00335A" stroke-width="0.5768" stroke-linecap="round" stroke-linejoin="round" stroke-miterlimit="10" x1="301.5" y1="219.6" x2="301.5" y2="212.7"/>
			
				<line fill="none" stroke="#00335A" stroke-width="0.5768" stroke-linecap="round" stroke-linejoin="round" stroke-miterlimit="10" x1="306.9" y1="219.6" x2="306.9" y2="212.7"/>
		</g>
	</g>
</g>
<g id="Capa_Info">
	<g id="C_Bat_Ext" class="area" cursor="pointer" data-ref="1">
		<path fill="#E8435D" d="M216.7,64.2V46.4c0-0.3-0.2-0.6-0.6-0.6h-6l-2.4-4.6c-0.1-0.2-0.3-0.3-0.5-0.3c-0.2,0-0.4,0.1-0.5,0.2
			l-3.1,4.6h-5.3c-0.3,0-0.5,0.2-0.5,0.4L194,64.1c0,0,0,0.1,0,0.1c0,0.1,0,0.2,0.1,0.3c0.1,0.1,0.3,0.2,0.4,0.2h21.6
			C216.4,64.8,216.7,64.5,216.7,64.2z"/>
		<path fill="#FFFFFF" d="M205.4,61c-0.6,0-1.1-0.5-1.1-1.1v-2.8h-2.6c-0.6,0-1.1-0.5-1.1-1.1v-1.3c0-0.6,0.5-1.1,1.1-1.1h2.6v-2.8
			c0-0.6,0.5-1.1,1.1-1.1h1.3c0.6,0,1.1,0.5,1.1,1.1v2.8h2.7c0.6,0,1.1,0.5,1.1,1.1v1.3c0,0.6-0.5,1.1-1.1,1.1h-2.7V60
			c0,0.6-0.5,1.1-1.1,1.1H205.4z"/>
	</g>
	<g id="Cable_Datos" class="area" cursor="pointer" data-ref="2">
		<path fill="#E8435D" d="M346.9,231v-17.8c0-0.3-0.2-0.6-0.6-0.6h-6l-2.4-4.6c-0.1-0.2-0.3-0.3-0.5-0.3c-0.2,0-0.4,0.1-0.5,0.2
			l-3.1,4.6h-5.3c-0.3,0-0.5,0.2-0.5,0.4l-3.8,17.8c0,0,0,0.1,0,0.1c0,0.1,0,0.2,0.1,0.3c0.1,0.1,0.3,0.2,0.4,0.2h21.6
			C346.6,231.5,346.9,231.3,346.9,231z"/>
		<path fill="#FFFFFF" d="M335.6,227.8c-0.6,0-1.1-0.5-1.1-1.1v-2.8h-2.6c-0.6,0-1.1-0.5-1.1-1.1v-1.3c0-0.6,0.5-1.1,1.1-1.1h2.6
			v-2.8c0-0.6,0.5-1.1,1.1-1.1h1.3c0.6,0,1.1,0.5,1.1,1.1v2.8h2.7c0.6,0,1.1,0.5,1.1,1.1v1.3c0,0.6-0.5,1.1-1.1,1.1H338v2.8
			c0,0.6-0.5,1.1-1.1,1.1H335.6z"/>
	</g>
    </g>
<g id="Capa_3" display="none">
	<g display="inline">
		<polygon fill="#FFFFFF" points="20.7,101 216.2,101 216.2,65 0.2,65 		"/>
		<g>
			<rect x="30.9" y="76.1" fill="none" width="210" height="31"/>
			<path fill="#00335A" d="M36.1,77.5c-1,0-1.8,0.3-2.4,1c-0.6,0.7-0.9,1.6-0.9,2.8c0,1.2,0.3,2.2,0.9,2.8s1.4,1,2.4,1
				c0.6,0,1.4-0.1,2.2-0.3v0.9c-0.6,0.2-1.4,0.4-2.4,0.4c-1.4,0-2.4-0.4-3.2-1.2c-0.7-0.8-1.1-2-1.1-3.5c0-1,0.2-1.8,0.5-2.5
				c0.4-0.7,0.9-1.3,1.5-1.7c0.7-0.4,1.5-0.6,2.4-0.6c1,0,1.8,0.2,2.6,0.5L38.2,78C37.5,77.7,36.8,77.5,36.1,77.5z"/>
			<path fill="#00335A" d="M44.5,86l-0.2-1h-0.1c-0.3,0.4-0.7,0.7-1,0.9s-0.8,0.2-1.3,0.2c-0.7,0-1.2-0.2-1.6-0.5s-0.6-0.9-0.6-1.5
				c0-1.4,1.1-2.1,3.4-2.2l1.2,0v-0.4c0-0.5-0.1-0.9-0.4-1.2c-0.2-0.3-0.6-0.4-1.1-0.4c-0.6,0-1.2,0.2-2,0.5l-0.3-0.8
				c0.3-0.2,0.7-0.3,1.1-0.4c0.4-0.1,0.8-0.2,1.2-0.2c0.8,0,1.4,0.2,1.8,0.6c0.4,0.4,0.6,1,0.6,1.8V86H44.5z M42.1,85.2
				c0.7,0,1.2-0.2,1.5-0.5c0.4-0.4,0.6-0.9,0.6-1.5v-0.6l-1.1,0c-0.8,0-1.4,0.2-1.8,0.4s-0.6,0.6-0.6,1.1c0,0.4,0.1,0.7,0.3,0.9
				S41.7,85.2,42.1,85.2z"/>
			<path fill="#00335A" d="M50.6,78.9c0.3,0,0.6,0,0.8,0.1l-0.1,1c-0.3-0.1-0.5-0.1-0.8-0.1c-0.6,0-1,0.2-1.4,0.7
				c-0.4,0.5-0.6,1-0.6,1.7V86h-1.1v-7h0.9l0.1,1.3h0.1c0.3-0.5,0.6-0.8,0.9-1C49.7,79,50.1,78.9,50.6,78.9z"/>
			<path fill="#00335A" d="M58.4,79v0.7l-1.3,0.2c0.1,0.1,0.2,0.3,0.3,0.6s0.1,0.5,0.1,0.8c0,0.7-0.2,1.2-0.7,1.6s-1.1,0.6-1.9,0.6
				c-0.2,0-0.4,0-0.6-0.1c-0.4,0.2-0.7,0.5-0.7,0.9c0,0.2,0.1,0.3,0.2,0.4c0.2,0.1,0.4,0.1,0.8,0.1H56c0.8,0,1.3,0.2,1.7,0.5
				c0.4,0.3,0.6,0.8,0.6,1.4c0,0.8-0.3,1.4-0.9,1.8c-0.6,0.4-1.5,0.6-2.7,0.6c-0.9,0-1.6-0.2-2.1-0.5s-0.7-0.8-0.7-1.4
				c0-0.4,0.1-0.8,0.4-1.1c0.3-0.3,0.7-0.5,1.1-0.6c-0.2-0.1-0.3-0.2-0.4-0.4c-0.1-0.2-0.2-0.4-0.2-0.6c0-0.3,0.1-0.5,0.2-0.7
				c0.1-0.2,0.3-0.4,0.6-0.6c-0.4-0.1-0.7-0.4-0.9-0.8s-0.3-0.8-0.3-1.2c0-0.8,0.2-1.3,0.7-1.8c0.5-0.4,1.1-0.6,1.9-0.6
				c0.4,0,0.7,0,1,0.1H58.4z M52.9,87.1c0,0.4,0.2,0.7,0.5,0.9c0.3,0.2,0.8,0.3,1.4,0.3c0.9,0,1.5-0.1,2-0.4
				c0.4-0.3,0.6-0.6,0.6-1.1c0-0.4-0.1-0.6-0.3-0.8c-0.2-0.1-0.7-0.2-1.3-0.2h-1.3c-0.5,0-0.9,0.1-1.1,0.3S52.9,86.7,52.9,87.1z
				 M53.4,81.3c0,0.5,0.1,0.9,0.4,1.1c0.3,0.3,0.7,0.4,1.1,0.4c1,0,1.5-0.5,1.5-1.5c0-1-0.5-1.6-1.6-1.6c-0.5,0-0.9,0.1-1.1,0.4
				S53.4,80.7,53.4,81.3z"/>
			<path fill="#00335A" d="M64.1,86l-0.2-1h-0.1c-0.3,0.4-0.7,0.7-1,0.9s-0.8,0.2-1.3,0.2c-0.7,0-1.2-0.2-1.6-0.5s-0.6-0.9-0.6-1.5
				c0-1.4,1.1-2.1,3.4-2.2l1.2,0v-0.4c0-0.5-0.1-0.9-0.4-1.2c-0.2-0.3-0.6-0.4-1.1-0.4c-0.6,0-1.2,0.2-2,0.5l-0.3-0.8
				c0.3-0.2,0.7-0.3,1.1-0.4c0.4-0.1,0.8-0.2,1.2-0.2c0.8,0,1.4,0.2,1.8,0.6c0.4,0.4,0.6,1,0.6,1.8V86H64.1z M61.7,85.2
				c0.7,0,1.2-0.2,1.5-0.5c0.4-0.4,0.6-0.9,0.6-1.5v-0.6l-1.1,0c-0.8,0-1.4,0.2-1.8,0.4s-0.6,0.6-0.6,1.1c0,0.4,0.1,0.7,0.3,0.9
				S61.3,85.2,61.7,85.2z"/>
			<path fill="#00335A" d="M71.8,85L71.8,85c-0.5,0.7-1.3,1.1-2.2,1.1c-0.9,0-1.6-0.3-2.1-0.9c-0.5-0.6-0.8-1.5-0.8-2.7
				c0-1.1,0.3-2,0.8-2.7s1.2-1,2.1-1c0.9,0,1.7,0.3,2.2,1h0.1l0-0.5l0-0.5v-2.8h1.1V86h-0.9L71.8,85z M69.7,85.2
				c0.7,0,1.2-0.2,1.6-0.6c0.3-0.4,0.5-1,0.5-1.9v-0.2c0-1-0.2-1.7-0.5-2.1s-0.9-0.6-1.6-0.6c-0.6,0-1.1,0.2-1.4,0.7s-0.5,1.2-0.5,2
				c0,0.9,0.2,1.6,0.5,2S69.1,85.2,69.7,85.2z"/>
			<path fill="#00335A" d="M81,82.5c0,1.1-0.3,2-0.9,2.7c-0.6,0.6-1.4,1-2.4,1c-0.6,0-1.2-0.1-1.7-0.4c-0.5-0.3-0.9-0.7-1.1-1.3
				c-0.3-0.5-0.4-1.2-0.4-1.9c0-1.1,0.3-2,0.8-2.7c0.6-0.6,1.4-0.9,2.4-0.9c1,0,1.7,0.3,2.3,1C80.7,80.5,81,81.4,81,82.5z
				 M75.7,82.5c0,0.9,0.2,1.6,0.5,2c0.4,0.5,0.9,0.7,1.6,0.7s1.2-0.2,1.6-0.7c0.4-0.5,0.5-1.1,0.5-2c0-0.9-0.2-1.6-0.5-2
				s-0.9-0.7-1.6-0.7c-0.7,0-1.2,0.2-1.6,0.7S75.7,81.6,75.7,82.5z"/>
			<path fill="#00335A" d="M86.1,78.9c0.3,0,0.6,0,0.8,0.1l-0.1,1c-0.3-0.1-0.5-0.1-0.8-0.1c-0.6,0-1,0.2-1.4,0.7
				c-0.4,0.5-0.6,1-0.6,1.7V86h-1.1v-7h0.9l0.1,1.3h0.1c0.3-0.5,0.6-0.8,0.9-1C85.2,79,85.6,78.9,86.1,78.9z"/>
			<path fill="#00335A" d="M96.3,85L96.3,85c-0.5,0.7-1.3,1.1-2.2,1.1c-0.9,0-1.6-0.3-2.1-0.9c-0.5-0.6-0.8-1.5-0.8-2.7
				c0-1.1,0.3-2,0.8-2.7s1.2-1,2.1-1c0.9,0,1.7,0.3,2.2,1h0.1l0-0.5l0-0.5v-2.8h1.1V86h-0.9L96.3,85z M94.2,85.2
				c0.7,0,1.2-0.2,1.6-0.6c0.3-0.4,0.5-1,0.5-1.9v-0.2c0-1-0.2-1.7-0.5-2.1s-0.9-0.6-1.6-0.6c-0.6,0-1.1,0.2-1.4,0.7s-0.5,1.2-0.5,2
				c0,0.9,0.2,1.6,0.5,2S93.6,85.2,94.2,85.2z"/>
			<path fill="#00335A" d="M102.5,86.1c-1,0-1.8-0.3-2.4-0.9s-0.9-1.5-0.9-2.6c0-1.1,0.3-2,0.8-2.7c0.6-0.7,1.3-1,2.2-1
				c0.9,0,1.6,0.3,2.1,0.9s0.8,1.3,0.8,2.3v0.7h-4.8c0,0.8,0.2,1.4,0.6,1.9c0.4,0.4,0.9,0.6,1.7,0.6c0.8,0,1.5-0.2,2.2-0.5v0.9
				c-0.4,0.2-0.7,0.3-1.1,0.3C103.3,86.1,102.9,86.1,102.5,86.1z M102.2,79.8c-0.6,0-1,0.2-1.3,0.5c-0.3,0.4-0.5,0.9-0.6,1.5h3.6
				c0-0.7-0.1-1.2-0.4-1.5S102.7,79.8,102.2,79.8z"/>
			<path fill="#00335A" d="M113.4,78.9c0.9,0,1.6,0.3,2.1,0.9s0.8,1.5,0.8,2.7s-0.3,2-0.8,2.7s-1.2,0.9-2.1,0.9
				c-0.5,0-0.9-0.1-1.2-0.3c-0.4-0.2-0.7-0.4-0.9-0.8h-0.1L111,86h-0.8v-9.9h1.1v2.4c0,0.5,0,1-0.1,1.4h0.1
				C111.7,79.3,112.5,78.9,113.4,78.9z M113.3,79.8c-0.7,0-1.2,0.2-1.6,0.6c-0.3,0.4-0.5,1.1-0.5,2.1c0,1,0.2,1.7,0.5,2.1
				c0.3,0.4,0.8,0.6,1.6,0.6c0.6,0,1.1-0.2,1.4-0.7s0.5-1.2,0.5-2c0-0.9-0.2-1.6-0.5-2S113.9,79.8,113.3,79.8z"/>
			<path fill="#00335A" d="M122.4,86l-0.2-1h-0.1c-0.3,0.4-0.7,0.7-1,0.9s-0.8,0.2-1.3,0.2c-0.7,0-1.2-0.2-1.6-0.5s-0.6-0.9-0.6-1.5
				c0-1.4,1.1-2.1,3.4-2.2l1.2,0v-0.4c0-0.5-0.1-0.9-0.4-1.2c-0.2-0.3-0.6-0.4-1.1-0.4c-0.6,0-1.2,0.2-2,0.5l-0.3-0.8
				c0.3-0.2,0.7-0.3,1.1-0.4c0.4-0.1,0.8-0.2,1.2-0.2c0.8,0,1.4,0.2,1.8,0.6c0.4,0.4,0.6,1,0.6,1.8V86H122.4z M120.1,85.2
				c0.7,0,1.2-0.2,1.5-0.5c0.4-0.4,0.6-0.9,0.6-1.5v-0.6l-1.1,0c-0.8,0-1.4,0.2-1.8,0.4s-0.6,0.6-0.6,1.1c0,0.4,0.1,0.7,0.3,0.9
				S119.6,85.2,120.1,85.2z"/>
			<path fill="#00335A" d="M127.6,85.2c0.2,0,0.4,0,0.5,0c0.2,0,0.3-0.1,0.4-0.1v0.8c-0.1,0.1-0.3,0.1-0.5,0.1
				c-0.2,0-0.4,0.1-0.6,0.1c-1.3,0-2-0.7-2-2.1v-4.1h-1v-0.5l1-0.4l0.4-1.5h0.6V79h2v0.8h-2v4.1c0,0.4,0.1,0.7,0.3,1
				C127,85.1,127.3,85.2,127.6,85.2z"/>
			<path fill="#00335A" d="M132.9,86.1c-1,0-1.8-0.3-2.4-0.9s-0.9-1.5-0.9-2.6c0-1.1,0.3-2,0.8-2.7c0.6-0.7,1.3-1,2.2-1
				c0.9,0,1.6,0.3,2.1,0.9s0.8,1.3,0.8,2.3v0.7h-4.8c0,0.8,0.2,1.4,0.6,1.9c0.4,0.4,0.9,0.6,1.7,0.6c0.8,0,1.5-0.2,2.2-0.5v0.9
				c-0.4,0.2-0.7,0.3-1.1,0.3C133.8,86.1,133.4,86.1,132.9,86.1z M132.6,79.8c-0.6,0-1,0.2-1.3,0.5c-0.3,0.4-0.5,0.9-0.6,1.5h3.6
				c0-0.7-0.1-1.2-0.4-1.5S133.2,79.8,132.6,79.8z"/>
			<path fill="#00335A" d="M140.5,78.9c0.3,0,0.6,0,0.8,0.1l-0.1,1c-0.3-0.1-0.5-0.1-0.8-0.1c-0.6,0-1,0.2-1.4,0.7
				c-0.4,0.5-0.6,1-0.6,1.7V86h-1.1v-7h0.9l0.1,1.3h0.1c0.3-0.5,0.6-0.8,0.9-1C139.6,79,140,78.9,140.5,78.9z"/>
			<path fill="#00335A" d="M142.5,77.9c0.2-0.3,0.4-0.6,0.7-1c0.2-0.4,0.4-0.7,0.6-1h1.3v0.1c-0.2,0.3-0.5,0.6-0.8,1
				c-0.4,0.4-0.7,0.7-1,0.9h-0.7V77.9z M143.6,86h-1.1v-7h1.1V86z"/>
			<path fill="#00335A" d="M150.2,86l-0.2-1h-0.1c-0.3,0.4-0.7,0.7-1,0.9s-0.8,0.2-1.3,0.2c-0.7,0-1.2-0.2-1.6-0.5s-0.6-0.9-0.6-1.5
				c0-1.4,1.1-2.1,3.4-2.2l1.2,0v-0.4c0-0.5-0.1-0.9-0.4-1.2c-0.2-0.3-0.6-0.4-1.1-0.4c-0.6,0-1.2,0.2-2,0.5l-0.3-0.8
				c0.3-0.2,0.7-0.3,1.1-0.4c0.4-0.1,0.8-0.2,1.2-0.2c0.8,0,1.4,0.2,1.8,0.6c0.4,0.4,0.6,1,0.6,1.8V86H150.2z M147.8,85.2
				c0.7,0,1.2-0.2,1.5-0.5c0.4-0.4,0.6-0.9,0.6-1.5v-0.6l-1.1,0c-0.8,0-1.4,0.2-1.8,0.4s-0.6,0.6-0.6,1.1c0,0.4,0.1,0.7,0.3,0.9
				S147.4,85.2,147.8,85.2z"/>
			<path fill="#00335A" d="M159.4,86.1c-1,0-1.8-0.3-2.4-0.9s-0.9-1.5-0.9-2.6c0-1.1,0.3-2,0.8-2.7c0.6-0.7,1.3-1,2.2-1
				c0.9,0,1.6,0.3,2.1,0.9s0.8,1.3,0.8,2.3v0.7h-4.8c0,0.8,0.2,1.4,0.6,1.9c0.4,0.4,0.9,0.6,1.7,0.6c0.8,0,1.5-0.2,2.2-0.5v0.9
				c-0.4,0.2-0.7,0.3-1.1,0.3C160.3,86.1,159.9,86.1,159.4,86.1z M159.1,79.8c-0.6,0-1,0.2-1.3,0.5c-0.3,0.4-0.5,0.9-0.6,1.5h3.6
				c0-0.7-0.1-1.2-0.4-1.5S159.7,79.8,159.1,79.8z"/>
			<path fill="#00335A" d="M165.4,82.4L163,79h1.2l1.8,2.7l1.8-2.7h1.2l-2.4,3.4l2.5,3.6H168l-1.9-2.8l-2,2.8h-1.2L165.4,82.4z"/>
			<path fill="#00335A" d="M172.8,85.2c0.2,0,0.4,0,0.5,0c0.2,0,0.3-0.1,0.4-0.1v0.8c-0.1,0.1-0.3,0.1-0.5,0.1
				c-0.2,0-0.4,0.1-0.6,0.1c-1.3,0-2-0.7-2-2.1v-4.1h-1v-0.5l1-0.4l0.4-1.5h0.6V79h2v0.8h-2v4.1c0,0.4,0.1,0.7,0.3,1
				C172.2,85.1,172.5,85.2,172.8,85.2z"/>
			<path fill="#00335A" d="M178.1,86.1c-1,0-1.8-0.3-2.4-0.9s-0.9-1.5-0.9-2.6c0-1.1,0.3-2,0.8-2.7c0.6-0.7,1.3-1,2.2-1
				c0.9,0,1.6,0.3,2.1,0.9s0.8,1.3,0.8,2.3v0.7h-4.8c0,0.8,0.2,1.4,0.6,1.9c0.4,0.4,0.9,0.6,1.7,0.6c0.8,0,1.5-0.2,2.2-0.5v0.9
				c-0.4,0.2-0.7,0.3-1.1,0.3C179,86.1,178.6,86.1,178.1,86.1z M177.8,79.8c-0.6,0-1,0.2-1.3,0.5c-0.3,0.4-0.5,0.9-0.6,1.5h3.6
				c0-0.7-0.1-1.2-0.4-1.5S178.4,79.8,177.8,79.8z"/>
			<path fill="#00335A" d="M185.6,78.9c0.3,0,0.6,0,0.8,0.1l-0.1,1c-0.3-0.1-0.5-0.1-0.8-0.1c-0.6,0-1,0.2-1.4,0.7
				c-0.4,0.5-0.6,1-0.6,1.7V86h-1.1v-7h0.9l0.1,1.3h0.1c0.3-0.5,0.6-0.8,0.9-1C184.8,79,185.2,78.9,185.6,78.9z"/>
			<path fill="#00335A" d="M192.5,86v-4.5c0-0.6-0.1-1-0.4-1.3c-0.3-0.3-0.7-0.4-1.2-0.4c-0.7,0-1.3,0.2-1.6,0.6s-0.5,1-0.5,1.9V86
				h-1.1v-7h0.9l0.2,1h0.1c0.2-0.3,0.5-0.6,0.9-0.8c0.4-0.2,0.8-0.3,1.3-0.3c0.8,0,1.5,0.2,1.9,0.6s0.6,1,0.6,1.9V86H192.5z"/>
			<path fill="#00335A" d="M200,86l-0.2-1h-0.1c-0.3,0.4-0.7,0.7-1,0.9s-0.8,0.2-1.3,0.2c-0.7,0-1.2-0.2-1.6-0.5s-0.6-0.9-0.6-1.5
				c0-1.4,1.1-2.1,3.4-2.2l1.2,0v-0.4c0-0.5-0.1-0.9-0.4-1.2c-0.2-0.3-0.6-0.4-1.1-0.4c-0.6,0-1.2,0.2-2,0.5l-0.3-0.8
				c0.3-0.2,0.7-0.3,1.1-0.4c0.4-0.1,0.8-0.2,1.2-0.2c0.8,0,1.4,0.2,1.8,0.6c0.4,0.4,0.6,1,0.6,1.8V86H200z M197.7,85.2
				c0.7,0,1.2-0.2,1.5-0.5c0.4-0.4,0.6-0.9,0.6-1.5v-0.6l-1.1,0c-0.8,0-1.4,0.2-1.8,0.4s-0.6,0.6-0.6,1.1c0,0.4,0.1,0.7,0.3,0.9
				S197.2,85.2,197.7,85.2z"/>
		</g>
	</g>
</g>
<g id="Capa_4" display="none">
	<g display="inline">
		<polygon fill="#FFFFFF" points="150.6,267.5 346.1,267.5 346.1,231.5 130.1,231.5 		"/>
		<g>
			<rect x="160.8" y="242.7" fill="none" width="210" height="31"/>
			<path fill="#00335A" d="M166,244.1c-1,0-1.8,0.3-2.4,1c-0.6,0.7-0.9,1.6-0.9,2.8c0,1.2,0.3,2.2,0.9,2.8s1.4,1,2.4,1
				c0.6,0,1.4-0.1,2.2-0.3v0.9c-0.6,0.2-1.4,0.4-2.4,0.4c-1.4,0-2.4-0.4-3.2-1.2c-0.7-0.8-1.1-2-1.1-3.5c0-1,0.2-1.8,0.5-2.5
				c0.4-0.7,0.9-1.3,1.5-1.7c0.7-0.4,1.5-0.6,2.4-0.6c1,0,1.8,0.2,2.6,0.5l-0.5,0.9C167.4,244.3,166.7,244.1,166,244.1z"/>
			<path fill="#00335A" d="M174.4,252.5l-0.2-1h-0.1c-0.3,0.4-0.7,0.7-1,0.9s-0.8,0.2-1.3,0.2c-0.7,0-1.2-0.2-1.6-0.5
				s-0.6-0.9-0.6-1.5c0-1.4,1.1-2.1,3.4-2.2l1.2,0v-0.4c0-0.5-0.1-0.9-0.4-1.2c-0.2-0.3-0.6-0.4-1.1-0.4c-0.6,0-1.2,0.2-2,0.5
				l-0.3-0.8c0.3-0.2,0.7-0.3,1.1-0.4c0.4-0.1,0.8-0.2,1.2-0.2c0.8,0,1.4,0.2,1.8,0.6c0.4,0.4,0.6,1,0.6,1.8v4.7H174.4z M172,251.8
				c0.7,0,1.2-0.2,1.5-0.5c0.4-0.4,0.6-0.9,0.6-1.5v-0.6l-1.1,0c-0.8,0-1.4,0.2-1.8,0.4s-0.6,0.6-0.6,1.1c0,0.4,0.1,0.7,0.3,0.9
				S171.6,251.8,172,251.8z"/>
			<path fill="#00335A" d="M180.6,245.5c0.9,0,1.6,0.3,2.1,0.9s0.8,1.5,0.8,2.7s-0.3,2-0.8,2.7s-1.2,0.9-2.1,0.9
				c-0.5,0-0.9-0.1-1.2-0.3c-0.4-0.2-0.7-0.4-0.9-0.8h-0.1l-0.2,0.9h-0.8v-9.9h1.1v2.4c0,0.5,0,1-0.1,1.4h0.1
				C178.9,245.8,179.6,245.5,180.6,245.5z M180.4,246.4c-0.7,0-1.2,0.2-1.6,0.6c-0.3,0.4-0.5,1.1-0.5,2.1c0,1,0.2,1.7,0.5,2.1
				c0.3,0.4,0.8,0.6,1.6,0.6c0.6,0,1.1-0.2,1.4-0.7s0.5-1.2,0.5-2c0-0.9-0.2-1.6-0.5-2S181.1,246.4,180.4,246.4z"/>
			<path fill="#00335A" d="M186.3,252.5h-1.1v-9.9h1.1V252.5z"/>
			<path fill="#00335A" d="M191.5,252.7c-1,0-1.8-0.3-2.4-0.9s-0.9-1.5-0.9-2.6c0-1.1,0.3-2,0.8-2.7c0.6-0.7,1.3-1,2.2-1
				c0.9,0,1.6,0.3,2.1,0.9s0.8,1.3,0.8,2.3v0.7h-4.8c0,0.8,0.2,1.4,0.6,1.9c0.4,0.4,0.9,0.6,1.7,0.6c0.8,0,1.5-0.2,2.2-0.5v0.9
				c-0.4,0.2-0.7,0.3-1.1,0.3C192.4,252.6,192,252.7,191.5,252.7z M191.2,246.3c-0.6,0-1,0.2-1.3,0.5c-0.3,0.4-0.5,0.9-0.6,1.5h3.6
				c0-0.7-0.1-1.2-0.4-1.5S191.8,246.3,191.2,246.3z"/>
			<path fill="#00335A" d="M204,251.6L204,251.6c-0.5,0.7-1.3,1.1-2.2,1.1c-0.9,0-1.6-0.3-2.1-0.9c-0.5-0.6-0.8-1.5-0.8-2.7
				c0-1.1,0.3-2,0.8-2.7s1.2-1,2.1-1c0.9,0,1.7,0.3,2.2,1h0.1l0-0.5l0-0.5v-2.8h1.1v9.9h-0.9L204,251.6z M201.9,251.8
				c0.7,0,1.2-0.2,1.6-0.6c0.3-0.4,0.5-1,0.5-1.9v-0.2c0-1-0.2-1.7-0.5-2.1s-0.9-0.6-1.6-0.6c-0.6,0-1.1,0.2-1.4,0.7s-0.5,1.2-0.5,2
				c0,0.9,0.2,1.6,0.5,2S201.2,251.8,201.9,251.8z"/>
			<path fill="#00335A" d="M210.2,252.7c-1,0-1.8-0.3-2.4-0.9s-0.9-1.5-0.9-2.6c0-1.1,0.3-2,0.8-2.7c0.6-0.7,1.3-1,2.2-1
				c0.9,0,1.6,0.3,2.1,0.9s0.8,1.3,0.8,2.3v0.7h-4.8c0,0.8,0.2,1.4,0.6,1.9c0.4,0.4,0.9,0.6,1.7,0.6c0.8,0,1.5-0.2,2.2-0.5v0.9
				c-0.4,0.2-0.7,0.3-1.1,0.3C211,252.6,210.6,252.7,210.2,252.7z M209.9,246.3c-0.6,0-1,0.2-1.3,0.5c-0.3,0.4-0.5,0.9-0.6,1.5h3.6
				c0-0.7-0.1-1.2-0.4-1.5S210.4,246.3,209.9,246.3z"/>
			<path fill="#00335A" d="M222.6,251.6L222.6,251.6c-0.5,0.7-1.3,1.1-2.2,1.1c-0.9,0-1.6-0.3-2.1-0.9c-0.5-0.6-0.8-1.5-0.8-2.7
				c0-1.1,0.3-2,0.8-2.7s1.2-1,2.1-1c0.9,0,1.7,0.3,2.2,1h0.1l0-0.5l0-0.5v-2.8h1.1v9.9h-0.9L222.6,251.6z M220.5,251.8
				c0.7,0,1.2-0.2,1.6-0.6c0.3-0.4,0.5-1,0.5-1.9v-0.2c0-1-0.2-1.7-0.5-2.1s-0.9-0.6-1.6-0.6c-0.6,0-1.1,0.2-1.4,0.7s-0.5,1.2-0.5,2
				c0,0.9,0.2,1.6,0.5,2S219.9,251.8,220.5,251.8z"/>
			<path fill="#00335A" d="M230.1,252.5l-0.2-1h-0.1c-0.3,0.4-0.7,0.7-1,0.9s-0.8,0.2-1.3,0.2c-0.7,0-1.2-0.2-1.6-0.5
				s-0.6-0.9-0.6-1.5c0-1.4,1.1-2.1,3.4-2.2l1.2,0v-0.4c0-0.5-0.1-0.9-0.4-1.2c-0.2-0.3-0.6-0.4-1.1-0.4c-0.6,0-1.2,0.2-2,0.5
				l-0.3-0.8c0.3-0.2,0.7-0.3,1.1-0.4c0.4-0.1,0.8-0.2,1.2-0.2c0.8,0,1.4,0.2,1.8,0.6c0.4,0.4,0.6,1,0.6,1.8v4.7H230.1z
				 M227.7,251.8c0.7,0,1.2-0.2,1.5-0.5c0.4-0.4,0.6-0.9,0.6-1.5v-0.6l-1.1,0c-0.8,0-1.4,0.2-1.8,0.4s-0.6,0.6-0.6,1.1
				c0,0.4,0.1,0.7,0.3,0.9S227.3,251.8,227.7,251.8z"/>
			<path fill="#00335A" d="M235.3,251.8c0.2,0,0.4,0,0.5,0c0.2,0,0.3-0.1,0.4-0.1v0.8c-0.1,0.1-0.3,0.1-0.5,0.1
				c-0.2,0-0.4,0.1-0.6,0.1c-1.3,0-2-0.7-2-2.1v-4.1h-1v-0.5l1-0.4l0.4-1.5h0.6v1.6h2v0.8h-2v4.1c0,0.4,0.1,0.7,0.3,1
				C234.7,251.7,235,251.8,235.3,251.8z"/>
			<path fill="#00335A" d="M243.7,249.1c0,1.1-0.3,2-0.9,2.7c-0.6,0.6-1.4,1-2.4,1c-0.6,0-1.2-0.1-1.7-0.4c-0.5-0.3-0.9-0.7-1.1-1.3
				c-0.3-0.5-0.4-1.2-0.4-1.9c0-1.1,0.3-2,0.8-2.7c0.6-0.6,1.4-0.9,2.4-0.9c1,0,1.7,0.3,2.3,1C243.4,247.1,243.7,248,243.7,249.1z
				 M238.4,249.1c0,0.9,0.2,1.6,0.5,2c0.4,0.5,0.9,0.7,1.6,0.7s1.2-0.2,1.6-0.7c0.4-0.5,0.5-1.1,0.5-2c0-0.9-0.2-1.6-0.5-2
				s-0.9-0.7-1.6-0.7c-0.7,0-1.2,0.2-1.6,0.7S238.4,248.2,238.4,249.1z"/>
			<path fill="#00335A" d="M250,250.6c0,0.6-0.2,1.1-0.7,1.5c-0.5,0.4-1.2,0.5-2,0.5c-0.9,0-1.6-0.1-2.2-0.4v-1
				c0.3,0.2,0.7,0.3,1.1,0.4s0.8,0.1,1.1,0.1c0.6,0,1-0.1,1.3-0.3c0.3-0.2,0.4-0.4,0.4-0.8c0-0.3-0.1-0.5-0.4-0.7
				c-0.2-0.2-0.7-0.4-1.4-0.7c-0.6-0.2-1.1-0.5-1.4-0.6c-0.3-0.2-0.5-0.4-0.6-0.6c-0.1-0.2-0.2-0.5-0.2-0.8c0-0.6,0.2-1,0.7-1.3
				c0.5-0.3,1.1-0.5,1.9-0.5c0.7,0,1.5,0.2,2.2,0.5l-0.4,0.9c-0.7-0.3-1.3-0.4-1.9-0.4c-0.5,0-0.9,0.1-1.1,0.2s-0.4,0.4-0.4,0.6
				c0,0.2,0,0.3,0.1,0.5c0.1,0.1,0.2,0.3,0.5,0.4c0.2,0.1,0.6,0.3,1.2,0.5c0.8,0.3,1.4,0.6,1.7,0.9S250,250.2,250,250.6z"/>
			<path fill="#00335A" d="M254,245.6h1.1l1.5,4c0.3,0.9,0.5,1.6,0.6,2h0.1c0.1-0.2,0.2-0.6,0.3-1.1s0.8-2.1,1.7-4.8h1.1l-3,7.9
				c-0.3,0.8-0.6,1.3-1,1.7s-0.9,0.5-1.5,0.5c-0.3,0-0.6,0-1-0.1v-0.8c0.2,0.1,0.5,0.1,0.8,0.1c0.7,0,1.2-0.4,1.5-1.2l0.4-1
				L254,245.6z"/>
			<path fill="#00335A" d="M267.8,252.7c-1,0-1.8-0.3-2.3-0.9c-0.6-0.6-0.8-1.5-0.8-2.6c0-1.2,0.3-2.1,0.8-2.7s1.4-1,2.4-1
				c0.3,0,0.7,0,1,0.1c0.3,0.1,0.6,0.2,0.8,0.3l-0.3,0.9c-0.2-0.1-0.5-0.2-0.8-0.2s-0.5-0.1-0.7-0.1c-1.4,0-2.1,0.9-2.1,2.7
				c0,0.9,0.2,1.5,0.5,2s0.9,0.7,1.5,0.7c0.6,0,1.2-0.1,1.8-0.4v0.9C269.1,252.5,268.5,252.7,267.8,252.7z"/>
			<path fill="#00335A" d="M275.5,252.5l-0.2-1h-0.1c-0.3,0.4-0.7,0.7-1,0.9s-0.8,0.2-1.3,0.2c-0.7,0-1.2-0.2-1.6-0.5
				s-0.6-0.9-0.6-1.5c0-1.4,1.1-2.1,3.4-2.2l1.2,0v-0.4c0-0.5-0.1-0.9-0.4-1.2c-0.2-0.3-0.6-0.4-1.1-0.4c-0.6,0-1.2,0.2-2,0.5
				l-0.3-0.8c0.3-0.2,0.7-0.3,1.1-0.4c0.4-0.1,0.8-0.2,1.2-0.2c0.8,0,1.4,0.2,1.8,0.6c0.4,0.4,0.6,1,0.6,1.8v4.7H275.5z
				 M273.1,251.8c0.7,0,1.2-0.2,1.5-0.5c0.4-0.4,0.6-0.9,0.6-1.5v-0.6l-1.1,0c-0.8,0-1.4,0.2-1.8,0.4s-0.6,0.6-0.6,1.1
				c0,0.4,0.1,0.7,0.3,0.9S272.7,251.8,273.1,251.8z"/>
			<path fill="#00335A" d="M281.6,245.5c0.3,0,0.6,0,0.8,0.1l-0.1,1c-0.3-0.1-0.5-0.1-0.8-0.1c-0.6,0-1,0.2-1.4,0.7
				c-0.4,0.5-0.6,1-0.6,1.7v3.7h-1.1v-7h0.9l0.1,1.3h0.1c0.3-0.5,0.6-0.8,0.9-1C280.8,245.6,281.2,245.5,281.6,245.5z"/>
			<path fill="#00335A" d="M289.4,245.6v0.7l-1.3,0.2c0.1,0.1,0.2,0.3,0.3,0.6s0.1,0.5,0.1,0.8c0,0.7-0.2,1.2-0.7,1.6
				s-1.1,0.6-1.9,0.6c-0.2,0-0.4,0-0.6-0.1c-0.4,0.2-0.7,0.5-0.7,0.9c0,0.2,0.1,0.3,0.2,0.4c0.2,0.1,0.4,0.1,0.8,0.1h1.2
				c0.8,0,1.3,0.2,1.7,0.5c0.4,0.3,0.6,0.8,0.6,1.4c0,0.8-0.3,1.4-0.9,1.8c-0.6,0.4-1.5,0.6-2.7,0.6c-0.9,0-1.6-0.2-2.1-0.5
				s-0.7-0.8-0.7-1.4c0-0.4,0.1-0.8,0.4-1.1c0.3-0.3,0.7-0.5,1.1-0.6c-0.2-0.1-0.3-0.2-0.4-0.4c-0.1-0.2-0.2-0.4-0.2-0.6
				c0-0.3,0.1-0.5,0.2-0.7c0.1-0.2,0.3-0.4,0.6-0.6c-0.4-0.1-0.7-0.4-0.9-0.8s-0.3-0.8-0.3-1.2c0-0.8,0.2-1.3,0.7-1.8
				c0.5-0.4,1.1-0.6,1.9-0.6c0.4,0,0.7,0,1,0.1H289.4z M283.9,253.7c0,0.4,0.2,0.7,0.5,0.9c0.3,0.2,0.8,0.3,1.4,0.3
				c0.9,0,1.5-0.1,2-0.4c0.4-0.3,0.6-0.6,0.6-1.1c0-0.4-0.1-0.6-0.3-0.8c-0.2-0.1-0.7-0.2-1.3-0.2h-1.3c-0.5,0-0.9,0.1-1.1,0.3
				S283.9,253.3,283.9,253.7z M284.5,247.8c0,0.5,0.1,0.9,0.4,1.1c0.3,0.3,0.7,0.4,1.1,0.4c1,0,1.5-0.5,1.5-1.5c0-1-0.5-1.6-1.6-1.6
				c-0.5,0-0.9,0.1-1.1,0.4S284.5,247.3,284.5,247.8z"/>
			<path fill="#00335A" d="M295.2,252.5l-0.2-1h-0.1c-0.3,0.4-0.7,0.7-1,0.9s-0.8,0.2-1.3,0.2c-0.7,0-1.2-0.2-1.6-0.5
				s-0.6-0.9-0.6-1.5c0-1.4,1.1-2.1,3.4-2.2l1.2,0v-0.4c0-0.5-0.1-0.9-0.4-1.2c-0.2-0.3-0.6-0.4-1.1-0.4c-0.6,0-1.2,0.2-2,0.5
				l-0.3-0.8c0.3-0.2,0.7-0.3,1.1-0.4c0.4-0.1,0.8-0.2,1.2-0.2c0.8,0,1.4,0.2,1.8,0.6c0.4,0.4,0.6,1,0.6,1.8v4.7H295.2z
				 M292.8,251.8c0.7,0,1.2-0.2,1.5-0.5c0.4-0.4,0.6-0.9,0.6-1.5v-0.6l-1.1,0c-0.8,0-1.4,0.2-1.8,0.4s-0.6,0.6-0.6,1.1
				c0,0.4,0.1,0.7,0.3,0.9S292.4,251.8,292.8,251.8z"/>
			<path fill="#00335A" d="M302.8,251.6L302.8,251.6c-0.5,0.7-1.3,1.1-2.2,1.1c-0.9,0-1.6-0.3-2.1-0.9c-0.5-0.6-0.8-1.5-0.8-2.7
				c0-1.1,0.3-2,0.8-2.7s1.2-1,2.1-1c0.9,0,1.7,0.3,2.2,1h0.1l0-0.5l0-0.5v-2.8h1.1v9.9H303L302.8,251.6z M300.7,251.8
				c0.7,0,1.2-0.2,1.6-0.6c0.3-0.4,0.5-1,0.5-1.9v-0.2c0-1-0.2-1.7-0.5-2.1s-0.9-0.6-1.6-0.6c-0.6,0-1.1,0.2-1.4,0.7s-0.5,1.2-0.5,2
				c0,0.9,0.2,1.6,0.5,2S300.1,251.8,300.7,251.8z"/>
			<path fill="#00335A" d="M312.1,249.1c0,1.1-0.3,2-0.9,2.7c-0.6,0.6-1.4,1-2.4,1c-0.6,0-1.2-0.1-1.7-0.4c-0.5-0.3-0.9-0.7-1.1-1.3
				c-0.3-0.5-0.4-1.2-0.4-1.9c0-1.1,0.3-2,0.8-2.7c0.6-0.6,1.4-0.9,2.4-0.9c1,0,1.7,0.3,2.3,1C311.8,247.1,312.1,248,312.1,249.1z
				 M306.8,249.1c0,0.9,0.2,1.6,0.5,2c0.4,0.5,0.9,0.7,1.6,0.7s1.2-0.2,1.6-0.7c0.4-0.5,0.5-1.1,0.5-2c0-0.9-0.2-1.6-0.5-2
				s-0.9-0.7-1.6-0.7c-0.7,0-1.2,0.2-1.6,0.7S306.8,248.2,306.8,249.1z"/>
			<path fill="#00335A" d="M317.1,245.5c0.3,0,0.6,0,0.8,0.1l-0.1,1c-0.3-0.1-0.5-0.1-0.8-0.1c-0.6,0-1,0.2-1.4,0.7
				c-0.4,0.5-0.6,1-0.6,1.7v3.7h-1.1v-7h0.9l0.1,1.3h0.1c0.3-0.5,0.6-0.8,0.9-1C316.3,245.6,316.7,245.5,317.1,245.5z"/>
		</g>
	</g>
</g>

</svg>
