<?xml version="1.0" encoding="utf-8"?>
<!-- Generator: Adobe Illustrator 16.0.0, SVG Export Plug-In . SVG Version: 6.00 Build 0)  -->
<!DOCTYPE svg PUBLIC "-//W3C//DTD SVG 1.1//EN" "http://www.w3.org/Graphics/SVG/1.1/DTD/svg11.dtd">
<svg version="1.1" id="Capa_1" xmlns="http://www.w3.org/2000/svg" xmlns:xlink="http://www.w3.org/1999/xlink" x="0px" y="0px"
	 width="524px" height="278px" viewBox="0 0 524 278" enable-background="new 0 0 524 278" xml:space="preserve">
<g>
	<g>
		
			<polyline fill="none" stroke="#1E3557" stroke-width="3.4075" stroke-linecap="round" stroke-linejoin="round" stroke-miterlimit="10" points="
			419.113,165.35 419.113,62.163 428.5,62.163 428.5,151.668 436.498,151.668 436.498,62.163 445.396,62.163 445.396,151.668 
			454.352,152.099 454.352,51.531 		"/>
		
			<rect x="447.063" y="22.26" fill="none" stroke="#1E3557" stroke-width="3.4075" stroke-linecap="round" stroke-linejoin="round" stroke-miterlimit="10" width="14.916" height="23.228"/>
		
			<rect x="450.09" y="45.487" fill="none" stroke="#1E3557" stroke-width="3.4075" stroke-linecap="round" stroke-linejoin="round" stroke-miterlimit="10" width="9.326" height="6.006"/>
		
			<rect x="449" y="12.021" fill="none" stroke="#1E3557" stroke-width="1.2778" stroke-linecap="round" stroke-linejoin="round" stroke-miterlimit="10" width="11.391" height="10.239"/>
		
			<rect x="411.656" y="169.582" fill="none" stroke="#1E3557" stroke-width="3.4075" stroke-linecap="round" stroke-linejoin="round" stroke-miterlimit="10" width="14.916" height="12.494"/>
		
			<rect x="414.219" y="166.352" fill="none" stroke="#1E3557" stroke-width="3.4075" stroke-linecap="round" stroke-linejoin="round" stroke-miterlimit="10" width="9.322" height="3.23"/>
		
			<rect x="413.24" y="182.075" fill="none" stroke="#1E3557" stroke-width="1.2778" stroke-linecap="round" stroke-linejoin="round" stroke-miterlimit="10" width="11.393" height="6.954"/>
		
			<rect x="451.615" y="14.924" fill="none" stroke="#1E3557" stroke-width="0.5768" stroke-linecap="round" stroke-linejoin="round" stroke-miterlimit="10" width="1.438" height="2.81"/>
		
			<rect x="455.928" y="14.924" fill="none" stroke="#1E3557" stroke-width="0.5768" stroke-linecap="round" stroke-linejoin="round" stroke-miterlimit="10" width="1.438" height="2.81"/>
		
			<line fill="none" stroke="#1E3557" stroke-width="0.5768" stroke-linecap="round" stroke-linejoin="round" stroke-miterlimit="10" x1="416.1" y1="189.029" x2="416.1" y2="182.075"/>
		
			<line fill="none" stroke="#1E3557" stroke-width="0.5768" stroke-linecap="round" stroke-linejoin="round" stroke-miterlimit="10" x1="421.432" y1="189.029" x2="421.432" y2="182.075"/>
	</g>
	<g>
		<polygon opacity="0.8" fill="#FFFFFF" points="320.576,254.176 516.07,254.176 516.07,218.164 300.104,218.164 		"/>
		<g>
			<g>
				<path fill="#1E3557" d="M336.023,230.735c-1.021,0-1.825,0.34-2.416,1.02c-0.59,0.679-0.885,1.609-0.885,2.789
					c0,1.215,0.284,2.153,0.854,2.815s1.381,0.993,2.434,0.993c0.648,0,1.387-0.116,2.216-0.349v0.946
					c-0.644,0.24-1.437,0.361-2.38,0.361c-1.367,0-2.422-0.415-3.165-1.244c-0.742-0.829-1.114-2.008-1.114-3.535
					c0-0.957,0.18-1.795,0.537-2.514c0.357-0.72,0.874-1.274,1.549-1.664c0.675-0.389,1.469-0.584,2.383-0.584
					c0.974,0,1.824,0.178,2.553,0.533l-0.457,0.928C337.428,230.901,336.726,230.735,336.023,230.735z"/>
				<path fill="#1E3557" d="M344.37,239.185l-0.21-0.99h-0.051c-0.347,0.436-0.692,0.731-1.037,0.886s-0.775,0.231-1.292,0.231
					c-0.689,0-1.23-0.178-1.622-0.533s-0.587-0.861-0.587-1.518c0-1.404,1.124-2.141,3.37-2.209l1.182-0.037v-0.432
					c0-0.547-0.118-0.949-0.353-1.21c-0.235-0.26-0.61-0.39-1.127-0.39c-0.58,0-1.235,0.178-1.968,0.533l-0.324-0.807
					c0.344-0.187,0.719-0.332,1.127-0.438c0.408-0.106,0.818-0.159,1.229-0.159c0.829,0,1.444,0.185,1.844,0.552
					c0.4,0.369,0.6,0.959,0.6,1.771v4.748H344.37z M341.99,238.442c0.655,0,1.171-0.181,1.545-0.54
					c0.375-0.359,0.563-0.863,0.563-1.511v-0.629l-1.055,0.045c-0.838,0.029-1.441,0.16-1.812,0.391s-0.556,0.589-0.556,1.076
					c0,0.381,0.115,0.67,0.346,0.869S341.575,238.442,341.99,238.442z"/>
				<path fill="#1E3557" d="M350.56,232.113c0.914,0,1.624,0.313,2.13,0.937s0.758,1.508,0.758,2.65s-0.255,2.029-0.765,2.662
					s-1.218,0.949-2.123,0.949c-0.453,0-0.866-0.084-1.241-0.251c-0.374-0.167-0.688-0.424-0.942-0.771H348.3l-0.222,0.895h-0.756
					v-9.877h1.054v2.399c0,0.537-0.017,1.02-0.051,1.447h0.051C348.867,232.46,349.595,232.113,350.56,232.113z M350.407,232.995
					c-0.72,0-1.237,0.207-1.556,0.619c-0.316,0.413-0.476,1.107-0.476,2.086c0,0.977,0.163,1.677,0.489,2.098
					c0.325,0.421,0.848,0.631,1.567,0.631c0.647,0,1.13-0.235,1.447-0.707s0.476-1.15,0.476-2.035c0-0.905-0.158-1.58-0.476-2.024
					S351.071,232.995,350.407,232.995z"/>
				<path fill="#1E3557" d="M356.343,239.185h-1.054v-9.877h1.054V239.185z"/>
				<path fill="#1E3557" d="M361.517,239.312c-1.029,0-1.84-0.313-2.435-0.939s-0.892-1.496-0.892-2.609
					c0-1.121,0.275-2.012,0.828-2.672c0.552-0.66,1.294-0.99,2.225-0.99c0.872,0,1.562,0.287,2.069,0.86s0.762,1.329,0.762,2.269
					v0.667h-4.792c0.021,0.816,0.227,1.437,0.618,1.86c0.392,0.423,0.942,0.635,1.653,0.635c0.75,0,1.49-0.157,2.223-0.471v0.939
					c-0.373,0.161-0.726,0.276-1.058,0.347C362.387,239.276,361.985,239.312,361.517,239.312z M361.23,232.983
					c-0.559,0-1.004,0.182-1.336,0.545c-0.332,0.364-0.528,0.868-0.587,1.512h3.637c0-0.665-0.148-1.174-0.444-1.527
					S361.78,232.983,361.23,232.983z"/>
				<path fill="#1E3557" d="M373.983,238.251h-0.058c-0.486,0.707-1.214,1.061-2.184,1.061c-0.909,0-1.617-0.311-2.123-0.934
					c-0.506-0.621-0.758-1.506-0.758-2.652c0-1.147,0.254-2.038,0.762-2.673s1.214-0.952,2.119-0.952
					c0.944,0,1.668,0.343,2.172,1.028h0.082l-0.045-0.501l-0.025-0.489v-2.831h1.055v9.877h-0.857L373.983,238.251z
					 M371.876,238.429c0.72,0,1.241-0.195,1.564-0.587c0.324-0.392,0.485-1.022,0.485-1.895v-0.222c0-0.986-0.163-1.69-0.491-2.111
					s-0.852-0.631-1.571-0.631c-0.618,0-1.091,0.239-1.419,0.72s-0.491,1.159-0.491,2.034c0,0.889,0.162,1.56,0.488,2.013
					S371.245,238.429,371.876,238.429z"/>
				<path fill="#1E3557" d="M380.154,239.312c-1.029,0-1.84-0.313-2.435-0.939s-0.892-1.496-0.892-2.609
					c0-1.121,0.275-2.012,0.828-2.672c0.552-0.66,1.294-0.99,2.225-0.99c0.872,0,1.562,0.287,2.069,0.86s0.762,1.329,0.762,2.269
					v0.667h-4.792c0.021,0.816,0.227,1.437,0.618,1.86c0.392,0.423,0.942,0.635,1.653,0.635c0.75,0,1.49-0.157,2.223-0.471v0.939
					c-0.373,0.161-0.726,0.276-1.058,0.347C381.024,239.276,380.623,239.312,380.154,239.312z M379.868,232.983
					c-0.559,0-1.004,0.182-1.336,0.545c-0.332,0.364-0.528,0.868-0.587,1.512h3.637c0-0.665-0.148-1.174-0.444-1.527
					S380.418,232.983,379.868,232.983z"/>
				<path fill="#1E3557" d="M392.62,238.251h-0.058c-0.486,0.707-1.214,1.061-2.184,1.061c-0.909,0-1.617-0.311-2.123-0.934
					c-0.506-0.621-0.758-1.506-0.758-2.652c0-1.147,0.254-2.038,0.762-2.673s1.214-0.952,2.119-0.952
					c0.944,0,1.668,0.343,2.172,1.028h0.082l-0.045-0.501l-0.025-0.489v-2.831h1.055v9.877h-0.857L392.62,238.251z M390.513,238.429
					c0.72,0,1.241-0.195,1.564-0.587c0.324-0.392,0.485-1.022,0.485-1.895v-0.222c0-0.986-0.163-1.69-0.491-2.111
					s-0.852-0.631-1.571-0.631c-0.618,0-1.091,0.239-1.419,0.72s-0.491,1.159-0.491,2.034c0,0.889,0.162,1.56,0.488,2.013
					S389.882,238.429,390.513,238.429z"/>
				<path fill="#1E3557" d="M400.13,239.185l-0.21-0.99h-0.051c-0.347,0.436-0.692,0.731-1.037,0.886s-0.775,0.231-1.292,0.231
					c-0.689,0-1.23-0.178-1.622-0.533s-0.587-0.861-0.587-1.518c0-1.404,1.124-2.141,3.37-2.209l1.182-0.037v-0.432
					c0-0.547-0.118-0.949-0.353-1.21c-0.235-0.26-0.61-0.39-1.127-0.39c-0.58,0-1.235,0.178-1.968,0.533l-0.324-0.807
					c0.344-0.187,0.719-0.332,1.127-0.438c0.408-0.106,0.818-0.159,1.229-0.159c0.829,0,1.444,0.185,1.844,0.552
					c0.4,0.369,0.6,0.959,0.6,1.771v4.748H400.13z M397.75,238.442c0.655,0,1.171-0.181,1.545-0.54
					c0.375-0.359,0.563-0.863,0.563-1.511v-0.629l-1.055,0.045c-0.838,0.029-1.441,0.16-1.812,0.391s-0.556,0.589-0.556,1.076
					c0,0.381,0.115,0.67,0.346,0.869S397.335,238.442,397.75,238.442z"/>
				<path fill="#1E3557" d="M405.329,238.442c0.187,0,0.366-0.015,0.54-0.042c0.173-0.027,0.311-0.056,0.412-0.085v0.806
					c-0.114,0.055-0.282,0.101-0.505,0.137c-0.222,0.036-0.422,0.054-0.6,0.054c-1.346,0-2.019-0.709-2.019-2.127v-4.139h-0.996
					v-0.508l0.996-0.438l0.444-1.485h0.609v1.612h2.019v0.818h-2.019v4.095c0,0.419,0.1,0.74,0.298,0.965
					C404.709,238.33,404.982,238.442,405.329,238.442z"/>
				<path fill="#1E3557" d="M413.677,235.7c0,1.134-0.286,2.02-0.856,2.656c-0.572,0.637-1.361,0.955-2.368,0.955
					c-0.622,0-1.175-0.146-1.657-0.438c-0.482-0.293-0.854-0.711-1.117-1.258c-0.262-0.545-0.393-1.185-0.393-1.916
					c0-1.135,0.283-2.018,0.85-2.65c0.567-0.633,1.354-0.949,2.361-0.949c0.974,0,1.747,0.324,2.32,0.971
					C413.39,233.72,413.677,234.595,413.677,235.7z M408.377,235.7c0,0.889,0.178,1.565,0.533,2.031
					c0.355,0.465,0.878,0.697,1.567,0.697s1.214-0.231,1.571-0.694c0.357-0.464,0.536-1.142,0.536-2.034
					c0-0.885-0.179-1.557-0.536-2.016s-0.886-0.689-1.584-0.689c-0.689,0-1.21,0.227-1.562,0.68S408.377,234.803,408.377,235.7z"/>
				<path fill="#1E3557" d="M420.012,237.286c0,0.648-0.242,1.147-0.725,1.498c-0.482,0.352-1.159,0.527-2.031,0.527
					c-0.922,0-1.642-0.146-2.158-0.438v-0.979c0.335,0.17,0.693,0.303,1.076,0.4s0.752,0.146,1.107,0.146
					c0.551,0,0.974-0.088,1.27-0.264c0.297-0.176,0.445-0.443,0.445-0.803c0-0.271-0.118-0.503-0.353-0.695
					c-0.235-0.192-0.693-0.42-1.374-0.683c-0.648-0.241-1.108-0.452-1.381-0.632c-0.273-0.18-0.477-0.384-0.609-0.612
					c-0.134-0.229-0.2-0.501-0.2-0.819c0-0.566,0.23-1.014,0.692-1.342c0.461-0.328,1.094-0.492,1.897-0.492
					c0.749,0,1.481,0.152,2.196,0.457l-0.375,0.857c-0.697-0.288-1.33-0.432-1.897-0.432c-0.499,0-0.876,0.078-1.13,0.234
					s-0.381,0.372-0.381,0.647c0,0.187,0.048,0.345,0.143,0.476c0.096,0.132,0.249,0.257,0.461,0.375
					c0.211,0.118,0.617,0.29,1.219,0.514c0.824,0.301,1.382,0.604,1.672,0.908S420.012,236.825,420.012,237.286z"/>
				<path fill="#1E3557" d="M423.997,232.228h1.13l1.523,3.967c0.334,0.906,0.542,1.56,0.622,1.962h0.051
					c0.055-0.216,0.17-0.585,0.346-1.107s0.75-2.13,1.724-4.821h1.13l-2.989,7.922c-0.297,0.783-0.643,1.338-1.038,1.666
					s-0.882,0.492-1.457,0.492c-0.321,0-0.639-0.036-0.952-0.107v-0.845c0.232,0.051,0.493,0.076,0.781,0.076
					c0.723,0,1.239-0.406,1.549-1.219l0.387-0.99L423.997,232.228z"/>
				<path fill="#1E3557" d="M437.81,239.312c-1.007,0-1.787-0.31-2.339-0.93c-0.553-0.62-0.828-1.497-0.828-2.631
					c0-1.164,0.28-2.063,0.841-2.698s1.359-0.952,2.396-0.952c0.335,0,0.669,0.036,1.004,0.107c0.334,0.072,0.596,0.157,0.787,0.254
					l-0.324,0.896c-0.232-0.093-0.486-0.17-0.762-0.231s-0.519-0.092-0.73-0.092c-1.413,0-2.119,0.9-2.119,2.703
					c0,0.855,0.172,1.512,0.517,1.969s0.856,0.686,1.533,0.686c0.58,0,1.175-0.125,1.784-0.375v0.934
					C439.103,239.19,438.517,239.312,437.81,239.312z"/>
				<path fill="#1E3557" d="M445.497,239.185l-0.21-0.99h-0.051c-0.347,0.436-0.692,0.731-1.037,0.886s-0.775,0.231-1.292,0.231
					c-0.689,0-1.23-0.178-1.622-0.533s-0.587-0.861-0.587-1.518c0-1.404,1.124-2.141,3.37-2.209l1.182-0.037v-0.432
					c0-0.547-0.118-0.949-0.353-1.21c-0.235-0.26-0.61-0.39-1.127-0.39c-0.58,0-1.235,0.178-1.968,0.533l-0.324-0.807
					c0.344-0.187,0.719-0.332,1.127-0.438c0.408-0.106,0.818-0.159,1.229-0.159c0.829,0,1.444,0.185,1.844,0.552
					c0.4,0.369,0.6,0.959,0.6,1.771v4.748H445.497z M443.117,238.442c0.655,0,1.171-0.181,1.545-0.54
					c0.375-0.359,0.563-0.863,0.563-1.511v-0.629l-1.055,0.045c-0.838,0.029-1.441,0.16-1.812,0.391s-0.556,0.589-0.556,1.076
					c0,0.381,0.115,0.67,0.346,0.869S442.702,238.442,443.117,238.442z"/>
				<path fill="#1E3557" d="M451.623,232.101c0.309,0,0.586,0.025,0.832,0.076l-0.146,0.978c-0.288-0.063-0.542-0.095-0.762-0.095
					c-0.563,0-1.044,0.229-1.444,0.686c-0.399,0.457-0.6,1.025-0.6,1.707v3.732h-1.054v-6.957h0.869l0.121,1.289h0.051
					c0.258-0.453,0.569-0.803,0.934-1.048C450.787,232.224,451.188,232.101,451.623,232.101z"/>
				<path fill="#1E3557" d="M459.449,232.228v0.666l-1.288,0.152c0.118,0.148,0.225,0.342,0.317,0.581s0.14,0.509,0.14,0.81
					c0,0.682-0.232,1.225-0.698,1.631s-1.104,0.609-1.917,0.609c-0.207,0-0.402-0.017-0.584-0.051
					c-0.448,0.237-0.673,0.536-0.673,0.896c0,0.19,0.078,0.331,0.234,0.422c0.157,0.091,0.426,0.137,0.807,0.137h1.231
					c0.753,0,1.332,0.159,1.736,0.476c0.404,0.318,0.606,0.779,0.606,1.385c0,0.77-0.31,1.356-0.928,1.761
					c-0.617,0.404-1.519,0.606-2.703,0.606c-0.91,0-1.611-0.169-2.104-0.508s-0.739-0.816-0.739-1.435
					c0-0.423,0.135-0.789,0.406-1.099c0.271-0.309,0.651-0.518,1.143-0.628c-0.178-0.08-0.327-0.205-0.448-0.374
					c-0.12-0.17-0.181-0.366-0.181-0.591c0-0.254,0.067-0.476,0.203-0.667c0.136-0.189,0.35-0.374,0.641-0.552
					c-0.359-0.148-0.652-0.399-0.879-0.755s-0.34-0.762-0.34-1.219c0-0.762,0.229-1.35,0.686-1.762
					c0.457-0.413,1.105-0.619,1.943-0.619c0.363,0,0.691,0.042,0.983,0.127H459.449z M453.902,240.353
					c0,0.377,0.158,0.662,0.476,0.857c0.317,0.194,0.772,0.291,1.364,0.291c0.885,0,1.54-0.132,1.965-0.396
					c0.426-0.265,0.639-0.623,0.639-1.076c0-0.376-0.117-0.638-0.35-0.783c-0.232-0.146-0.671-0.219-1.314-0.219h-1.263
					c-0.479,0-0.851,0.113-1.117,0.342S453.902,239.925,453.902,240.353z M454.473,234.456c0,0.486,0.138,0.854,0.413,1.104
					c0.275,0.25,0.658,0.375,1.149,0.375c1.027,0,1.542-0.499,1.542-1.498c0-1.045-0.521-1.568-1.562-1.568
					c-0.495,0-0.876,0.134-1.143,0.4S454.473,233.931,454.473,234.456z"/>
				<path fill="#1E3557" d="M465.156,239.185l-0.21-0.99h-0.051c-0.347,0.436-0.692,0.731-1.037,0.886s-0.775,0.231-1.292,0.231
					c-0.689,0-1.23-0.178-1.622-0.533s-0.587-0.861-0.587-1.518c0-1.404,1.124-2.141,3.37-2.209l1.182-0.037v-0.432
					c0-0.547-0.118-0.949-0.353-1.21c-0.235-0.26-0.61-0.39-1.127-0.39c-0.58,0-1.235,0.178-1.968,0.533l-0.324-0.807
					c0.344-0.187,0.719-0.332,1.127-0.438c0.408-0.106,0.818-0.159,1.229-0.159c0.829,0,1.444,0.185,1.844,0.552
					c0.4,0.369,0.6,0.959,0.6,1.771v4.748H465.156z M462.776,238.442c0.655,0,1.171-0.181,1.545-0.54
					c0.375-0.359,0.563-0.863,0.563-1.511v-0.629l-1.055,0.045c-0.838,0.029-1.441,0.16-1.812,0.391s-0.556,0.589-0.556,1.076
					c0,0.381,0.115,0.67,0.346,0.869S462.361,238.442,462.776,238.442z"/>
				<path fill="#1E3557" d="M472.843,238.251h-0.058c-0.486,0.707-1.214,1.061-2.184,1.061c-0.909,0-1.617-0.311-2.123-0.934
					c-0.506-0.621-0.758-1.506-0.758-2.652c0-1.147,0.254-2.038,0.762-2.673s1.214-0.952,2.119-0.952
					c0.944,0,1.668,0.343,2.172,1.028h0.082l-0.045-0.501l-0.025-0.489v-2.831h1.055v9.877h-0.857L472.843,238.251z
					 M470.735,238.429c0.72,0,1.241-0.195,1.564-0.587c0.324-0.392,0.485-1.022,0.485-1.895v-0.222c0-0.986-0.163-1.69-0.491-2.111
					s-0.852-0.631-1.571-0.631c-0.618,0-1.091,0.239-1.419,0.72s-0.491,1.159-0.491,2.034c0,0.889,0.162,1.56,0.488,2.013
					S470.104,238.429,470.735,238.429z"/>
				<path fill="#1E3557" d="M482.079,235.7c0,1.134-0.286,2.02-0.856,2.656c-0.572,0.637-1.361,0.955-2.368,0.955
					c-0.622,0-1.175-0.146-1.657-0.438c-0.482-0.293-0.854-0.711-1.117-1.258c-0.262-0.545-0.393-1.185-0.393-1.916
					c0-1.135,0.283-2.018,0.85-2.65c0.567-0.633,1.354-0.949,2.361-0.949c0.974,0,1.747,0.324,2.32,0.971
					C481.792,233.72,482.079,234.595,482.079,235.7z M476.779,235.7c0,0.889,0.178,1.565,0.533,2.031
					c0.355,0.465,0.878,0.697,1.567,0.697s1.214-0.231,1.571-0.694c0.357-0.464,0.536-1.142,0.536-2.034
					c0-0.885-0.179-1.557-0.536-2.016s-0.886-0.689-1.584-0.689c-0.689,0-1.21,0.227-1.562,0.68S476.779,234.803,476.779,235.7z"/>
				<path fill="#1E3557" d="M487.1,232.101c0.309,0,0.586,0.025,0.832,0.076l-0.146,0.978c-0.288-0.063-0.542-0.095-0.762-0.095
					c-0.563,0-1.044,0.229-1.444,0.686c-0.399,0.457-0.6,1.025-0.6,1.707v3.732h-1.054v-6.957h0.869l0.121,1.289h0.051
					c0.258-0.453,0.569-0.803,0.934-1.048C486.264,232.224,486.664,232.101,487.1,232.101z"/>
			</g>
		</g>
	</g>
	<path fill="#BD475A" d="M427.233,219.17v-17.779c0-0.307-0.247-0.553-0.554-0.553h-5.96l-2.44-4.576
		c-0.092-0.172-0.268-0.283-0.462-0.293c-0.193-0.01-0.379,0.084-0.487,0.246l-3.097,4.623H408.9c-0.261,0-0.486,0.182-0.541,0.436
		l-3.819,17.779c-0.008,0.039-0.013,0.078-0.013,0.117c0,0.125,0.043,0.248,0.123,0.346c0.105,0.131,0.264,0.207,0.43,0.207h21.6
		C426.986,219.723,427.233,219.475,427.233,219.17z M415.967,216.02c-0.604,0-1.092-0.488-1.092-1.092v-2.805h-2.642
		c-0.603,0-1.091-0.488-1.091-1.092v-1.256c0-0.604,0.488-1.092,1.091-1.092h2.642v-2.787c0-0.604,0.488-1.092,1.092-1.092h1.266
		c0.603,0,1.092,0.488,1.092,1.092v2.787h2.659c0.604,0,1.092,0.488,1.092,1.092v1.256c0,0.604-0.488,1.092-1.092,1.092h-2.659
		v2.805c0,0.604-0.489,1.092-1.092,1.092H415.967z"/>
	<g>
		
			<polygon fill="none" stroke="#1E3557" stroke-width="3.4075" stroke-linecap="round" stroke-linejoin="round" stroke-miterlimit="10" points="
			223.816,182.113 121.435,156.621 203.07,54.467 292.46,69.997 		"/>
		
			<polygon fill="none" stroke="#1E3557" stroke-width="3.4075" stroke-linecap="round" stroke-linejoin="round" stroke-miterlimit="10" points="
			226.355,206.752 223.816,182.113 121.435,156.621 128.823,181.127 		"/>
		
			<polygon fill="none" stroke="#1E3557" stroke-width="3.4075" stroke-linecap="round" stroke-linejoin="round" stroke-miterlimit="10" points="
			212.95,196.932 211.188,185.648 195.199,181.127 197.924,192.989 		"/>
		
			<polygon fill="none" stroke="#1E3557" stroke-width="3.4075" stroke-linecap="round" stroke-linejoin="round" stroke-miterlimit="10" points="
			292.46,69.997 290.5,101.947 226.355,206.752 223.816,182.113 		"/>
	</g>
	<g>
		<polygon opacity="0.8" fill="#FFFFFF" points="25.682,268.316 221.176,268.316 221.176,232.305 5.209,232.305 		"/>
		<g>
			<g>
				<path fill="#1E3557" d="M40.699,245.829c-1.021,0-1.825,0.34-2.416,1.02c-0.59,0.679-0.885,1.609-0.885,2.789
					c0,1.215,0.284,2.153,0.854,2.815s1.381,0.993,2.434,0.993c0.648,0,1.387-0.116,2.216-0.349v0.946
					c-0.644,0.24-1.437,0.361-2.38,0.361c-1.367,0-2.422-0.415-3.165-1.244c-0.742-0.829-1.114-2.008-1.114-3.535
					c0-0.957,0.18-1.795,0.537-2.514c0.357-0.72,0.874-1.274,1.549-1.664c0.675-0.389,1.469-0.584,2.383-0.584
					c0.974,0,1.824,0.178,2.553,0.533l-0.457,0.928C42.104,245.995,41.401,245.829,40.699,245.829z"/>
				<path fill="#1E3557" d="M49.046,254.278l-0.21-0.99h-0.051c-0.347,0.436-0.692,0.731-1.037,0.886s-0.775,0.231-1.292,0.231
					c-0.689,0-1.23-0.178-1.622-0.533s-0.587-0.861-0.587-1.518c0-1.404,1.124-2.141,3.37-2.209l1.182-0.037v-0.432
					c0-0.547-0.118-0.949-0.353-1.21c-0.235-0.26-0.61-0.39-1.127-0.39c-0.58,0-1.235,0.178-1.968,0.533l-0.324-0.807
					c0.344-0.187,0.719-0.332,1.127-0.438c0.408-0.106,0.818-0.159,1.229-0.159c0.829,0,1.444,0.185,1.844,0.552
					c0.4,0.369,0.6,0.959,0.6,1.771v4.748H49.046z M46.666,253.536c0.655,0,1.171-0.181,1.545-0.54
					c0.375-0.359,0.563-0.863,0.563-1.511v-0.629l-1.055,0.045c-0.838,0.029-1.441,0.16-1.812,0.391s-0.556,0.589-0.556,1.076
					c0,0.381,0.115,0.67,0.346,0.869S46.251,253.536,46.666,253.536z"/>
				<path fill="#1E3557" d="M55.172,247.194c0.309,0,0.586,0.025,0.832,0.076l-0.146,0.978c-0.288-0.063-0.542-0.095-0.762-0.095
					c-0.563,0-1.044,0.229-1.444,0.686c-0.399,0.457-0.6,1.025-0.6,1.707v3.732h-1.054v-6.957h0.869l0.121,1.289h0.051
					c0.258-0.453,0.569-0.803,0.934-1.048C54.336,247.317,54.736,247.194,55.172,247.194z"/>
				<path fill="#1E3557" d="M62.998,247.321v0.666l-1.288,0.152c0.118,0.148,0.225,0.342,0.317,0.581s0.14,0.509,0.14,0.81
					c0,0.682-0.232,1.225-0.698,1.631s-1.104,0.609-1.917,0.609c-0.207,0-0.402-0.017-0.584-0.051
					c-0.448,0.237-0.673,0.536-0.673,0.896c0,0.19,0.078,0.331,0.234,0.422c0.157,0.091,0.426,0.137,0.807,0.137h1.231
					c0.753,0,1.332,0.159,1.736,0.476c0.404,0.318,0.606,0.779,0.606,1.385c0,0.77-0.31,1.356-0.928,1.761
					c-0.617,0.404-1.519,0.606-2.703,0.606c-0.91,0-1.611-0.169-2.104-0.508s-0.739-0.816-0.739-1.435
					c0-0.423,0.135-0.789,0.406-1.099c0.271-0.309,0.651-0.518,1.143-0.628c-0.178-0.08-0.327-0.205-0.448-0.374
					c-0.12-0.17-0.181-0.366-0.181-0.591c0-0.254,0.067-0.476,0.203-0.667c0.136-0.189,0.35-0.374,0.641-0.552
					c-0.359-0.148-0.652-0.399-0.879-0.755s-0.34-0.762-0.34-1.219c0-0.762,0.229-1.35,0.686-1.762
					c0.457-0.413,1.105-0.619,1.943-0.619c0.363,0,0.691,0.042,0.983,0.127H62.998z M57.451,255.446
					c0,0.377,0.158,0.662,0.476,0.857c0.317,0.194,0.772,0.291,1.364,0.291c0.885,0,1.54-0.132,1.965-0.396
					c0.426-0.265,0.639-0.623,0.639-1.076c0-0.376-0.117-0.638-0.35-0.783c-0.232-0.146-0.671-0.219-1.314-0.219h-1.263
					c-0.479,0-0.851,0.113-1.117,0.342S57.451,255.019,57.451,255.446z M58.021,249.55c0,0.486,0.138,0.854,0.413,1.104
					c0.275,0.25,0.658,0.375,1.149,0.375c1.027,0,1.542-0.499,1.542-1.498c0-1.045-0.521-1.568-1.562-1.568
					c-0.495,0-0.876,0.134-1.143,0.4S58.021,249.024,58.021,249.55z"/>
				<path fill="#1E3557" d="M68.705,254.278l-0.21-0.99h-0.051c-0.347,0.436-0.692,0.731-1.037,0.886s-0.775,0.231-1.292,0.231
					c-0.689,0-1.23-0.178-1.622-0.533s-0.587-0.861-0.587-1.518c0-1.404,1.124-2.141,3.37-2.209l1.182-0.037v-0.432
					c0-0.547-0.118-0.949-0.353-1.21c-0.235-0.26-0.61-0.39-1.127-0.39c-0.58,0-1.235,0.178-1.968,0.533l-0.324-0.807
					c0.344-0.187,0.719-0.332,1.127-0.438c0.408-0.106,0.818-0.159,1.229-0.159c0.829,0,1.444,0.185,1.844,0.552
					c0.4,0.369,0.6,0.959,0.6,1.771v4.748H68.705z M66.325,253.536c0.655,0,1.171-0.181,1.545-0.54
					c0.375-0.359,0.563-0.863,0.563-1.511v-0.629l-1.055,0.045c-0.838,0.029-1.441,0.16-1.812,0.391s-0.556,0.589-0.556,1.076
					c0,0.381,0.115,0.67,0.346,0.869S65.91,253.536,66.325,253.536z"/>
				<path fill="#1E3557" d="M76.392,253.345h-0.058c-0.486,0.707-1.214,1.061-2.184,1.061c-0.909,0-1.617-0.311-2.123-0.934
					c-0.506-0.621-0.758-1.506-0.758-2.652c0-1.147,0.254-2.038,0.762-2.673s1.214-0.952,2.119-0.952
					c0.944,0,1.668,0.343,2.172,1.028h0.082l-0.045-0.501l-0.025-0.489v-2.831h1.055v9.877h-0.857L76.392,253.345z M74.284,253.522
					c0.72,0,1.241-0.195,1.564-0.587c0.324-0.392,0.485-1.022,0.485-1.895v-0.222c0-0.986-0.163-1.69-0.491-2.111
					s-0.852-0.631-1.571-0.631c-0.618,0-1.091,0.239-1.419,0.72s-0.491,1.159-0.491,2.034c0,0.889,0.162,1.56,0.488,2.013
					S73.653,253.522,74.284,253.522z"/>
				<path fill="#1E3557" d="M85.628,250.794c0,1.134-0.286,2.02-0.856,2.656c-0.572,0.637-1.361,0.955-2.368,0.955
					c-0.622,0-1.175-0.146-1.657-0.438c-0.482-0.293-0.854-0.711-1.117-1.258c-0.262-0.545-0.393-1.185-0.393-1.916
					c0-1.135,0.283-2.018,0.85-2.65c0.567-0.633,1.354-0.949,2.361-0.949c0.974,0,1.747,0.324,2.32,0.971
					C85.341,248.813,85.628,249.688,85.628,250.794z M80.328,250.794c0,0.889,0.178,1.565,0.533,2.031
					c0.355,0.465,0.878,0.697,1.567,0.697s1.214-0.231,1.571-0.694c0.357-0.464,0.536-1.142,0.536-2.034
					c0-0.885-0.179-1.557-0.536-2.016s-0.886-0.689-1.584-0.689c-0.689,0-1.21,0.227-1.562,0.68S80.328,249.896,80.328,250.794z"/>
				<path fill="#1E3557" d="M90.648,247.194c0.309,0,0.586,0.025,0.832,0.076l-0.146,0.978c-0.288-0.063-0.542-0.095-0.762-0.095
					c-0.563,0-1.044,0.229-1.444,0.686c-0.399,0.457-0.6,1.025-0.6,1.707v3.732h-1.054v-6.957h0.869l0.121,1.289h0.051
					c0.258-0.453,0.569-0.803,0.934-1.048C89.813,247.317,90.213,247.194,90.648,247.194z"/>
				<path fill="#1E3557" d="M100.894,253.345h-0.058c-0.486,0.707-1.214,1.061-2.184,1.061c-0.909,0-1.617-0.311-2.123-0.934
					c-0.506-0.621-0.758-1.506-0.758-2.652c0-1.147,0.254-2.038,0.762-2.673s1.214-0.952,2.119-0.952
					c0.944,0,1.668,0.343,2.172,1.028h0.082l-0.045-0.501l-0.025-0.489v-2.831h1.055v9.877h-0.857L100.894,253.345z M98.786,253.522
					c0.72,0,1.241-0.195,1.564-0.587c0.324-0.392,0.485-1.022,0.485-1.895v-0.222c0-0.986-0.163-1.69-0.491-2.111
					s-0.852-0.631-1.571-0.631c-0.618,0-1.091,0.239-1.419,0.72s-0.491,1.159-0.491,2.034c0,0.889,0.162,1.56,0.488,2.013
					S98.155,253.522,98.786,253.522z"/>
				<path fill="#1E3557" d="M107.064,254.405c-1.029,0-1.84-0.313-2.435-0.939s-0.892-1.496-0.892-2.609
					c0-1.121,0.275-2.012,0.828-2.672c0.552-0.66,1.294-0.99,2.225-0.99c0.872,0,1.562,0.287,2.069,0.86s0.762,1.329,0.762,2.269
					v0.667h-4.792c0.021,0.816,0.227,1.437,0.618,1.86c0.392,0.423,0.942,0.635,1.653,0.635c0.75,0,1.49-0.157,2.223-0.471v0.939
					c-0.373,0.161-0.726,0.276-1.058,0.347C107.935,254.37,107.533,254.405,107.064,254.405z M106.778,248.077
					c-0.559,0-1.004,0.182-1.336,0.545c-0.332,0.364-0.528,0.868-0.587,1.512h3.637c0-0.665-0.148-1.174-0.444-1.527
					S107.328,248.077,106.778,248.077z"/>
				<path fill="#1E3557" d="M118.032,247.207c0.914,0,1.624,0.313,2.13,0.937s0.758,1.508,0.758,2.65s-0.255,2.029-0.765,2.662
					s-1.218,0.949-2.123,0.949c-0.453,0-0.866-0.084-1.241-0.251c-0.374-0.167-0.688-0.424-0.942-0.771h-0.076l-0.222,0.895h-0.756
					v-9.877h1.054v2.399c0,0.537-0.017,1.02-0.051,1.447h0.051C116.34,247.554,117.067,247.207,118.032,247.207z M117.88,248.089
					c-0.72,0-1.237,0.207-1.556,0.619c-0.316,0.413-0.476,1.107-0.476,2.086c0,0.977,0.163,1.677,0.489,2.098
					c0.325,0.421,0.848,0.631,1.567,0.631c0.647,0,1.13-0.235,1.447-0.707s0.476-1.15,0.476-2.035c0-0.905-0.158-1.58-0.476-2.024
					S118.544,248.089,117.88,248.089z"/>
				<path fill="#1E3557" d="M127.04,254.278l-0.21-0.99h-0.051c-0.347,0.436-0.692,0.731-1.037,0.886s-0.775,0.231-1.292,0.231
					c-0.689,0-1.23-0.178-1.622-0.533s-0.587-0.861-0.587-1.518c0-1.404,1.124-2.141,3.37-2.209l1.182-0.037v-0.432
					c0-0.547-0.118-0.949-0.353-1.21c-0.235-0.26-0.61-0.39-1.127-0.39c-0.58,0-1.235,0.178-1.968,0.533l-0.324-0.807
					c0.344-0.187,0.719-0.332,1.127-0.438c0.408-0.106,0.818-0.159,1.229-0.159c0.829,0,1.444,0.185,1.844,0.552
					c0.4,0.369,0.6,0.959,0.6,1.771v4.748H127.04z M124.66,253.536c0.655,0,1.171-0.181,1.545-0.54
					c0.375-0.359,0.563-0.863,0.563-1.511v-0.629l-1.055,0.045c-0.838,0.029-1.441,0.16-1.812,0.391s-0.556,0.589-0.556,1.076
					c0,0.381,0.115,0.67,0.346,0.869S124.245,253.536,124.66,253.536z"/>
				<path fill="#1E3557" d="M132.239,253.536c0.187,0,0.366-0.015,0.54-0.042c0.173-0.027,0.311-0.056,0.412-0.085v0.806
					c-0.114,0.055-0.282,0.101-0.505,0.137c-0.222,0.036-0.422,0.054-0.6,0.054c-1.346,0-2.019-0.709-2.019-2.127v-4.139h-0.996
					v-0.508l0.996-0.438l0.444-1.485h0.609v1.612h2.019v0.818h-2.019v4.095c0,0.419,0.1,0.74,0.298,0.965
					C131.619,253.424,131.893,253.536,132.239,253.536z"/>
				<path fill="#1E3557" d="M137.521,254.405c-1.029,0-1.84-0.313-2.435-0.939s-0.892-1.496-0.892-2.609
					c0-1.121,0.275-2.012,0.828-2.672c0.552-0.66,1.294-0.99,2.225-0.99c0.872,0,1.562,0.287,2.069,0.86s0.762,1.329,0.762,2.269
					v0.667h-4.792c0.021,0.816,0.227,1.437,0.618,1.86c0.392,0.423,0.942,0.635,1.653,0.635c0.75,0,1.49-0.157,2.223-0.471v0.939
					c-0.373,0.161-0.726,0.276-1.058,0.347C138.392,254.37,137.99,254.405,137.521,254.405z M137.235,248.077
					c-0.559,0-1.004,0.182-1.336,0.545c-0.332,0.364-0.528,0.868-0.587,1.512h3.637c0-0.665-0.148-1.174-0.444-1.527
					S137.785,248.077,137.235,248.077z"/>
				<path fill="#1E3557" d="M145.049,247.194c0.309,0,0.586,0.025,0.832,0.076l-0.146,0.978c-0.288-0.063-0.542-0.095-0.762-0.095
					c-0.563,0-1.044,0.229-1.444,0.686c-0.399,0.457-0.6,1.025-0.6,1.707v3.732h-1.054v-6.957h0.869l0.121,1.289h0.051
					c0.258-0.453,0.569-0.803,0.934-1.048C144.213,247.317,144.613,247.194,145.049,247.194z"/>
				<path fill="#1E3557" d="M147.137,246.242c0.203-0.263,0.423-0.58,0.657-0.952c0.235-0.372,0.42-0.696,0.556-0.971h1.282v0.133
					c-0.187,0.275-0.464,0.613-0.831,1.016c-0.369,0.402-0.688,0.713-0.959,0.934h-0.705V246.242z M148.235,254.278h-1.054v-6.957
					h1.054V254.278z"/>
				<path fill="#1E3557" d="M154.748,254.278l-0.21-0.99h-0.051c-0.347,0.436-0.692,0.731-1.037,0.886s-0.775,0.231-1.292,0.231
					c-0.689,0-1.23-0.178-1.622-0.533s-0.587-0.861-0.587-1.518c0-1.404,1.124-2.141,3.37-2.209l1.182-0.037v-0.432
					c0-0.547-0.118-0.949-0.353-1.21c-0.235-0.26-0.61-0.39-1.127-0.39c-0.58,0-1.235,0.178-1.968,0.533l-0.324-0.807
					c0.344-0.187,0.719-0.332,1.127-0.438c0.408-0.106,0.818-0.159,1.229-0.159c0.829,0,1.444,0.185,1.844,0.552
					c0.4,0.369,0.6,0.959,0.6,1.771v4.748H154.748z M152.368,253.536c0.655,0,1.171-0.181,1.545-0.54
					c0.375-0.359,0.563-0.863,0.563-1.511v-0.629l-1.055,0.045c-0.838,0.029-1.441,0.16-1.812,0.391s-0.556,0.589-0.556,1.076
					c0,0.381,0.115,0.67,0.346,0.869S151.953,253.536,152.368,253.536z"/>
				<path fill="#1E3557" d="M164.016,254.405c-1.029,0-1.84-0.313-2.435-0.939s-0.892-1.496-0.892-2.609
					c0-1.121,0.275-2.012,0.828-2.672c0.552-0.66,1.294-0.99,2.225-0.99c0.872,0,1.562,0.287,2.069,0.86s0.762,1.329,0.762,2.269
					v0.667h-4.792c0.021,0.816,0.227,1.437,0.618,1.86c0.392,0.423,0.942,0.635,1.653,0.635c0.75,0,1.49-0.157,2.223-0.471v0.939
					c-0.373,0.161-0.726,0.276-1.058,0.347C164.886,254.37,164.484,254.405,164.016,254.405z M163.729,248.077
					c-0.559,0-1.004,0.182-1.336,0.545c-0.332,0.364-0.528,0.868-0.587,1.512h3.637c0-0.665-0.148-1.174-0.444-1.527
					S164.279,248.077,163.729,248.077z"/>
				<path fill="#1E3557" d="M170.045,250.718l-2.418-3.396h1.199l1.834,2.666l1.828-2.666h1.188l-2.418,3.396l2.545,3.561h-1.193
					l-1.949-2.818l-1.967,2.818H167.5L170.045,250.718z"/>
				<path fill="#1E3557" d="M177.427,253.536c0.187,0,0.366-0.015,0.54-0.042c0.173-0.027,0.311-0.056,0.412-0.085v0.806
					c-0.114,0.055-0.282,0.101-0.505,0.137c-0.222,0.036-0.422,0.054-0.6,0.054c-1.346,0-2.019-0.709-2.019-2.127v-4.139h-0.996
					v-0.508l0.996-0.438l0.444-1.485h0.609v1.612h2.019v0.818h-2.019v4.095c0,0.419,0.1,0.74,0.298,0.965
					C176.807,253.424,177.08,253.536,177.427,253.536z"/>
				<path fill="#1E3557" d="M182.709,254.405c-1.029,0-1.84-0.313-2.435-0.939s-0.892-1.496-0.892-2.609
					c0-1.121,0.275-2.012,0.828-2.672c0.552-0.66,1.294-0.99,2.225-0.99c0.872,0,1.562,0.287,2.069,0.86s0.762,1.329,0.762,2.269
					v0.667h-4.792c0.021,0.816,0.227,1.437,0.618,1.86c0.392,0.423,0.942,0.635,1.653,0.635c0.75,0,1.49-0.157,2.223-0.471v0.939
					c-0.373,0.161-0.726,0.276-1.058,0.347C183.579,254.37,183.178,254.405,182.709,254.405z M182.423,248.077
					c-0.559,0-1.004,0.182-1.336,0.545c-0.332,0.364-0.528,0.868-0.587,1.512h3.637c0-0.665-0.148-1.174-0.444-1.527
					S182.973,248.077,182.423,248.077z"/>
				<path fill="#1E3557" d="M190.236,247.194c0.309,0,0.586,0.025,0.832,0.076l-0.146,0.978c-0.288-0.063-0.542-0.095-0.762-0.095
					c-0.563,0-1.044,0.229-1.444,0.686c-0.399,0.457-0.6,1.025-0.6,1.707v3.732h-1.054v-6.957h0.869l0.121,1.289h0.051
					c0.258-0.453,0.569-0.803,0.934-1.048C189.4,247.317,189.801,247.194,190.236,247.194z"/>
				<path fill="#1E3557" d="M197.13,254.278v-4.5c0-0.567-0.129-0.99-0.388-1.27c-0.258-0.279-0.662-0.42-1.212-0.42
					c-0.728,0-1.261,0.197-1.6,0.591s-0.508,1.043-0.508,1.948v3.65h-1.054v-6.957h0.857l0.171,0.952h0.051
					c0.216-0.343,0.519-0.608,0.907-0.797c0.39-0.188,0.823-0.282,1.302-0.282c0.838,0,1.469,0.202,1.892,0.606
					s0.635,1.05,0.635,1.938v4.539H197.13z"/>
				<path fill="#1E3557" d="M204.626,254.278l-0.21-0.99h-0.051c-0.347,0.436-0.692,0.731-1.037,0.886s-0.775,0.231-1.292,0.231
					c-0.689,0-1.23-0.178-1.622-0.533s-0.587-0.861-0.587-1.518c0-1.404,1.124-2.141,3.37-2.209l1.182-0.037v-0.432
					c0-0.547-0.118-0.949-0.353-1.21c-0.235-0.26-0.61-0.39-1.127-0.39c-0.58,0-1.235,0.178-1.968,0.533l-0.324-0.807
					c0.344-0.187,0.719-0.332,1.127-0.438c0.408-0.106,0.818-0.159,1.229-0.159c0.829,0,1.444,0.185,1.844,0.552
					c0.4,0.369,0.6,0.959,0.6,1.771v4.748H204.626z M202.246,253.536c0.655,0,1.171-0.181,1.545-0.54
					c0.375-0.359,0.563-0.863,0.563-1.511v-0.629l-1.055,0.045c-0.838,0.029-1.441,0.16-1.812,0.391s-0.556,0.589-0.556,1.076
					c0,0.381,0.115,0.67,0.346,0.869S201.831,253.536,202.246,253.536z"/>
			</g>
		</g>
	</g>
	<path fill="#BD475A" d="M215.427,233.839v-17.778c0-0.307-0.246-0.554-0.551-0.554h-5.962l-2.441-4.576
		c-0.091-0.172-0.265-0.283-0.462-0.293c-0.192-0.01-0.378,0.084-0.485,0.246l-3.099,4.623h-5.332c-0.26,0-0.485,0.182-0.541,0.437
		l-3.819,17.778c-0.009,0.039-0.013,0.078-0.013,0.117c0,0.125,0.043,0.248,0.123,0.347c0.105,0.13,0.264,0.206,0.43,0.206h21.602
		C215.181,234.392,215.427,234.145,215.427,233.839z M204.162,230.689c-0.604,0-1.091-0.488-1.091-1.093v-2.804h-2.644
		c-0.602,0-1.09-0.489-1.09-1.093v-1.256c0-0.603,0.488-1.092,1.09-1.092h2.644v-2.786c0-0.604,0.487-1.093,1.091-1.093h1.266
		c0.603,0,1.092,0.488,1.092,1.093v2.786h2.658c0.604,0,1.093,0.489,1.093,1.092v1.256c0,0.604-0.488,1.093-1.093,1.093h-2.658
		v2.804c0,0.604-0.489,1.093-1.092,1.093H204.162z"/>
</g>
<g>
</g>
<g>
</g>
<g>
</g>
<g>
</g>
<g>
</g>
<g>
</g>
</svg>
