<?xml version="1.0" encoding="utf-8"?>
<!-- Generator: Adobe Illustrator 16.0.0, SVG Export Plug-In . SVG Version: 6.00 Build 0)  -->
<!DOCTYPE svg PUBLIC "-//W3C//DTD SVG 1.1//EN" "http://www.w3.org/Graphics/SVG/1.1/DTD/svg11.dtd">
<svg version="1.1" id="Capa_1" xmlns="http://www.w3.org/2000/svg" xmlns:xlink="http://www.w3.org/1999/xlink" x="0px" y="0px"
	 width="118px" height="103px" viewBox="0 0 118 103" enable-background="new 0 0 118 103" xml:space="preserve">
<g>
	<g>
		
			<polygon fill-rule="evenodd" clip-rule="evenodd" fill="none" stroke="#FFFFFF" stroke-width="4" stroke-linecap="round" stroke-linejoin="round" stroke-miterlimit="10" points="
			15.488,77.411 103.645,77.411 59.564,7.874 		"/>
		<g>
			<path fill="#FFFFFF" d="M62.066,58.872c0,2.036-1.656,3.726-3.726,3.726c-2.07,0-3.725-1.689-3.725-3.726
				c0-2.071,1.654-3.726,3.725-3.726C60.41,55.146,62.066,56.801,62.066,58.872z M55.348,37.952h6.017v15.856h-6.017V37.952z"/>
		</g>
		<polyline fill="none" stroke="#FFFFFF" stroke-linecap="round" stroke-linejoin="round" stroke-miterlimit="10" points="
			32.386,70.229 89.701,70.229 68.961,35.214 		"/>
		<polyline fill="none" stroke="#FFFFFF" stroke-linecap="round" stroke-linejoin="round" stroke-miterlimit="10" points="
			65.17,29.546 59.502,19.156 27.256,70.229 		"/>
	</g>
	<g>
		<g>
			<path fill="#FFFFFF" d="M8.041,92.59v3.936h-0.63V87.49h2.15c1.121,0,1.949,0.207,2.484,0.621s0.804,1.038,0.804,1.87
				c0,0.605-0.16,1.116-0.479,1.532c-0.319,0.416-0.805,0.715-1.456,0.896l2.454,4.115h-0.754l-2.33-3.936H8.041z M8.041,92.045
				h1.724c0.762,0,1.354-0.17,1.773-0.51c0.42-0.34,0.63-0.841,0.63-1.504c0-0.688-0.206-1.189-0.618-1.502
				c-0.412-0.313-1.084-0.47-2.015-0.47H8.041V92.045z"/>
			<path fill="#FFFFFF" d="M17.49,96.649c-0.977,0-1.738-0.301-2.284-0.902s-0.819-1.444-0.819-2.527
				c0-1.071,0.264-1.929,0.791-2.574c0.527-0.645,1.238-0.967,2.132-0.967c0.791,0,1.415,0.276,1.872,0.828
				c0.458,0.552,0.686,1.302,0.686,2.249v0.494H15.03c0.008,0.924,0.224,1.628,0.646,2.114c0.422,0.485,1.027,0.729,1.814,0.729
				c0.383,0,0.72-0.027,1.01-0.08c0.291-0.055,0.658-0.17,1.103-0.347v0.556c-0.379,0.165-0.729,0.277-1.05,0.338
				C18.231,96.619,17.877,96.649,17.49,96.649z M17.311,90.223c-0.647,0-1.166,0.213-1.558,0.639
				c-0.392,0.428-0.62,1.042-0.686,1.846h4.153c0-0.779-0.169-1.388-0.506-1.826C18.376,90.441,17.908,90.223,17.311,90.223z"/>
			<path fill="#FFFFFF" d="M24.405,96.649c-0.96,0-1.711-0.303-2.255-0.908c-0.544-0.606-0.816-1.45-0.816-2.534
				c0-1.112,0.282-1.979,0.847-2.599s1.337-0.93,2.317-0.93c0.581,0,1.137,0.101,1.668,0.303L26,90.525
				c-0.581-0.193-1.086-0.291-1.514-0.291c-0.824,0-1.448,0.255-1.873,0.764s-0.637,1.241-0.637,2.197
				c0,0.906,0.212,1.615,0.637,2.129c0.424,0.513,1.018,0.77,1.78,0.77c0.61,0,1.176-0.109,1.7-0.328v0.568
				C25.664,96.545,25.102,96.649,24.405,96.649z"/>
			<path fill="#FFFFFF" d="M33.292,93.158c0,1.096-0.266,1.951-0.797,2.567c-0.532,0.616-1.265,0.924-2.2,0.924
				c-0.589,0-1.108-0.142-1.557-0.427c-0.449-0.283-0.793-0.691-1.032-1.223c-0.239-0.532-0.358-1.146-0.358-1.842
				c0-1.096,0.266-1.95,0.797-2.563c0.531-0.611,1.261-0.917,2.188-0.917c0.923,0,1.647,0.31,2.172,0.93
				S33.292,92.078,33.292,93.158z M27.99,93.158c0,0.922,0.203,1.643,0.609,2.16c0.406,0.517,0.979,0.775,1.721,0.775
				s1.315-0.259,1.721-0.775c0.406-0.518,0.608-1.238,0.608-2.16c0-0.928-0.205-1.646-0.615-2.157
				c-0.41-0.511-0.986-0.767-1.727-0.767c-0.742,0-1.313,0.255-1.715,0.764C28.191,91.507,27.99,92.227,27.99,93.158z"/>
			<path fill="#FFFFFF" d="M43.545,96.525v-4.406c0-0.654-0.128-1.133-0.383-1.434s-0.647-0.451-1.174-0.451
				c-0.688,0-1.197,0.189-1.526,0.568c-0.33,0.38-0.494,0.975-0.494,1.787v3.936h-0.624v-4.592c0-1.133-0.52-1.699-1.558-1.699
				c-0.705,0-1.217,0.205-1.539,0.615s-0.482,1.066-0.482,1.969v3.707h-0.612v-6.717h0.507l0.13,0.92h0.037
				c0.186-0.333,0.449-0.592,0.791-0.775c0.342-0.183,0.719-0.274,1.131-0.274c1.059,0,1.739,0.397,2.04,1.192h0.024
				c0.219-0.383,0.512-0.678,0.881-0.883c0.369-0.207,0.788-0.31,1.258-0.31c0.733,0,1.283,0.196,1.65,0.587
				c0.367,0.392,0.55,1.014,0.55,1.866v4.394H43.545z"/>
			<path fill="#FFFFFF" d="M49.039,96.649c-0.977,0-1.738-0.301-2.284-0.902s-0.819-1.444-0.819-2.527
				c0-1.071,0.264-1.929,0.791-2.574c0.527-0.645,1.238-0.967,2.132-0.967c0.791,0,1.415,0.276,1.872,0.828
				c0.458,0.552,0.686,1.302,0.686,2.249v0.494h-4.839c0.008,0.924,0.224,1.628,0.646,2.114c0.422,0.485,1.027,0.729,1.814,0.729
				c0.383,0,0.72-0.027,1.01-0.08c0.291-0.055,0.658-0.17,1.103-0.347v0.556c-0.379,0.165-0.729,0.277-1.05,0.338
				C49.78,96.619,49.426,96.649,49.039,96.649z M48.86,90.223c-0.647,0-1.166,0.213-1.558,0.639
				c-0.392,0.428-0.62,1.042-0.686,1.846h4.153c0-0.779-0.169-1.388-0.506-1.826C49.925,90.441,49.457,90.223,48.86,90.223z"/>
			<path fill="#FFFFFF" d="M57.957,96.525v-4.356c0-0.675-0.142-1.167-0.426-1.474s-0.725-0.461-1.323-0.461
				c-0.803,0-1.392,0.203-1.764,0.609c-0.373,0.406-0.56,1.064-0.56,1.975v3.707h-0.612v-6.717h0.52l0.117,0.92h0.037
				c0.437-0.699,1.213-1.05,2.33-1.05c1.524,0,2.287,0.817,2.287,2.453v4.394H57.957z"/>
			<path fill="#FFFFFF" d="M63.197,89.679c0.486,0,0.906,0.089,1.261,0.266s0.671,0.479,0.952,0.908h0.037
				c-0.025-0.519-0.037-1.028-0.037-1.526V86.91h0.605v9.615h-0.402L65.459,95.5H65.41c-0.512,0.766-1.245,1.149-2.201,1.149
				c-0.926,0-1.635-0.288-2.125-0.865s-0.736-1.417-0.736-2.521c0-1.161,0.244-2.05,0.73-2.663
				C61.563,89.985,62.27,89.679,63.197,89.679z M63.197,90.234c-0.733,0-1.285,0.258-1.653,0.773
				c-0.368,0.515-0.554,1.262-0.554,2.242c0,1.904,0.74,2.855,2.219,2.855c0.758,0,1.314-0.221,1.669-0.661s0.532-1.168,0.532-2.182
				v-0.104c0-1.039-0.175-1.785-0.523-2.24C64.539,90.463,63.976,90.234,63.197,90.234z"/>
			<path fill="#FFFFFF" d="M72.35,96.525l-0.154-1.063h-0.05c-0.338,0.433-0.685,0.738-1.042,0.918
				c-0.355,0.18-0.777,0.269-1.264,0.269c-0.658,0-1.172-0.169-1.538-0.507s-0.55-0.805-0.55-1.402c0-0.655,0.272-1.164,0.818-1.527
				c0.546-0.361,1.336-0.554,2.37-0.574l1.279-0.037v-0.445c0-0.639-0.13-1.12-0.39-1.445c-0.26-0.326-0.678-0.488-1.254-0.488
				c-0.623,0-1.268,0.173-1.935,0.52l-0.229-0.532c0.737-0.347,1.466-0.519,2.188-0.519c0.737,0,1.288,0.191,1.653,0.574
				c0.364,0.383,0.547,0.98,0.547,1.792v4.468H72.35z M69.877,96.094c0.717,0,1.283-0.205,1.697-0.615s0.621-0.979,0.621-1.709
				v-0.661l-1.174,0.05c-0.944,0.045-1.617,0.192-2.019,0.441c-0.401,0.25-0.603,0.638-0.603,1.165c0,0.421,0.129,0.747,0.387,0.979
				C69.044,95.977,69.408,96.094,69.877,96.094z"/>
			<path fill="#FFFFFF" d="M77.658,96.649c-0.961,0-1.712-0.303-2.256-0.908c-0.544-0.606-0.816-1.45-0.816-2.534
				c0-1.112,0.283-1.979,0.848-2.599s1.336-0.93,2.316-0.93c0.582,0,1.138,0.101,1.669,0.303l-0.167,0.544
				c-0.58-0.193-1.086-0.291-1.514-0.291c-0.824,0-1.448,0.255-1.873,0.764c-0.424,0.509-0.637,1.241-0.637,2.197
				c0,0.906,0.213,1.615,0.637,2.129c0.425,0.513,1.018,0.77,1.78,0.77c0.61,0,1.177-0.109,1.7-0.328v0.568
				C78.916,96.545,78.354,96.649,77.658,96.649z"/>
			<path fill="#FFFFFF" d="M80.902,87.941c0-0.395,0.13-0.593,0.39-0.593c0.128,0,0.228,0.052,0.3,0.155
				c0.072,0.103,0.107,0.248,0.107,0.438c0,0.186-0.035,0.332-0.107,0.439s-0.172,0.16-0.3,0.16
				C81.032,88.541,80.902,88.342,80.902,87.941z M81.601,96.525h-0.612v-6.717h0.612V96.525z"/>
			<path fill="#FFFFFF" d="M89.406,93.158c0,1.096-0.266,1.951-0.797,2.567c-0.532,0.616-1.266,0.924-2.201,0.924
				c-0.588,0-1.107-0.142-1.557-0.427c-0.449-0.283-0.793-0.691-1.032-1.223c-0.239-0.532-0.358-1.146-0.358-1.842
				c0-1.096,0.266-1.95,0.797-2.563c0.531-0.611,1.262-0.917,2.188-0.917c0.924,0,1.647,0.31,2.173,0.93
				S89.406,92.078,89.406,93.158z M84.104,93.158c0,0.922,0.203,1.643,0.609,2.16c0.405,0.517,0.979,0.775,1.721,0.775
				s1.314-0.259,1.721-0.775c0.406-0.518,0.609-1.238,0.609-2.16c0-0.928-0.205-1.646-0.615-2.157s-0.986-0.767-1.727-0.767
				c-0.742,0-1.314,0.255-1.716,0.764S84.104,92.227,84.104,93.158z"/>
			<path fill="#FFFFFF" d="M95.951,96.525v-4.356c0-0.675-0.143-1.167-0.427-1.474s-0.726-0.461-1.323-0.461
				c-0.803,0-1.391,0.203-1.764,0.609s-0.56,1.064-0.56,1.975v3.707h-0.612v-6.717h0.52l0.117,0.92h0.037
				c0.438-0.699,1.214-1.05,2.33-1.05c1.524,0,2.287,0.817,2.287,2.453v4.394H95.951z"/>
			<path fill="#FFFFFF" d="M101.445,96.649c-0.977,0-1.738-0.301-2.284-0.902s-0.819-1.444-0.819-2.527
				c0-1.071,0.264-1.929,0.791-2.574c0.527-0.645,1.238-0.967,2.133-0.967c0.791,0,1.415,0.276,1.872,0.828
				c0.458,0.552,0.687,1.302,0.687,2.249v0.494h-4.84c0.009,0.924,0.225,1.628,0.646,2.114c0.422,0.485,1.027,0.729,1.814,0.729
				c0.383,0,0.719-0.027,1.01-0.08c0.291-0.055,0.658-0.17,1.104-0.347v0.556c-0.379,0.165-0.729,0.277-1.051,0.338
				C102.186,96.619,101.832,96.649,101.445,96.649z M101.266,90.223c-0.646,0-1.166,0.213-1.558,0.639
				c-0.392,0.428-0.62,1.042-0.687,1.846h4.153c0-0.779-0.169-1.388-0.507-1.826C102.33,90.441,101.863,90.223,101.266,90.223z"/>
			<path fill="#FFFFFF" d="M109.844,94.777c0,0.602-0.229,1.063-0.687,1.387c-0.458,0.324-1.106,0.485-1.946,0.485
				c-0.898,0-1.611-0.138-2.139-0.414v-0.661c0.676,0.338,1.389,0.507,2.139,0.507c0.663,0,1.166-0.11,1.511-0.331
				c0.344-0.221,0.517-0.514,0.517-0.881c0-0.338-0.138-0.621-0.412-0.852c-0.273-0.231-0.724-0.458-1.35-0.681
				c-0.672-0.243-1.144-0.452-1.416-0.627c-0.271-0.175-0.477-0.373-0.614-0.593c-0.138-0.221-0.207-0.49-0.207-0.807
				c0-0.503,0.211-0.9,0.634-1.193c0.422-0.293,1.012-0.438,1.77-0.438c0.726,0,1.414,0.136,2.064,0.407l-0.229,0.557
				c-0.659-0.271-1.271-0.408-1.836-0.408c-0.547,0-0.982,0.091-1.303,0.272c-0.322,0.181-0.482,0.433-0.482,0.754
				c0,0.351,0.125,0.63,0.373,0.841c0.25,0.209,0.736,0.444,1.462,0.704c0.606,0.218,1.047,0.415,1.323,0.591
				c0.275,0.174,0.482,0.373,0.621,0.596C109.773,94.215,109.844,94.477,109.844,94.777z"/>
		</g>
	</g>
</g>
<g>
</g>
<g>
</g>
<g>
</g>
<g>
</g>
<g>
</g>
<g>
</g>
</svg>
