<?xml version="1.0" encoding="utf-8"?>
<!-- Generator: Adobe Illustrator 19.2.1, SVG Export Plug-In . SVG Version: 6.00 Build 0)  -->
<svg version="1.2" baseProfile="tiny" xmlns="http://www.w3.org/2000/svg" xmlns:xlink="http://www.w3.org/1999/xlink" x="0px"
	 y="0px" viewBox="0 0 650 280" xml:space="preserve">
<g id="Caja_cargador" display="none">
	<g display="inline">
		<polygon fill="#FFFFFF" points="21.6,278.3 198.8,278.3 198.8,218.9 3,218.9 		"/>
		<g>
			<path fill="#00335A" d="M48.9,237.2c-1,0-1.8,0.3-2.4,1c-0.6,0.7-0.9,1.6-0.9,2.8c0,1.2,0.3,2.2,0.9,2.8s1.4,1,2.4,1
				c0.6,0,1.4-0.1,2.2-0.3v0.9c-0.6,0.2-1.4,0.4-2.4,0.4c-1.4,0-2.4-0.4-3.2-1.2c-0.7-0.8-1.1-2-1.1-3.5c0-1,0.2-1.8,0.5-2.5
				s0.9-1.3,1.5-1.7c0.7-0.4,1.5-0.6,2.4-0.6c1,0,1.8,0.2,2.6,0.5l-0.5,0.9C50.3,237.3,49.6,237.2,48.9,237.2z"/>
			<path fill="#00335A" d="M57.2,245.6l-0.2-1h-0.1c-0.3,0.4-0.7,0.7-1,0.9s-0.8,0.2-1.3,0.2c-0.7,0-1.2-0.2-1.6-0.5
				s-0.6-0.9-0.6-1.5c0-1.4,1.1-2.1,3.4-2.2l1.2,0V241c0-0.5-0.1-0.9-0.4-1.2c-0.2-0.3-0.6-0.4-1.1-0.4c-0.6,0-1.2,0.2-2,0.5
				l-0.3-0.8c0.3-0.2,0.7-0.3,1.1-0.4s0.8-0.2,1.2-0.2c0.8,0,1.4,0.2,1.8,0.6c0.4,0.4,0.6,1,0.6,1.8v4.7H57.2z M54.8,244.9
				c0.7,0,1.2-0.2,1.5-0.5c0.4-0.4,0.6-0.9,0.6-1.5v-0.6l-1.1,0c-0.8,0-1.4,0.2-1.8,0.4s-0.6,0.6-0.6,1.1c0,0.4,0.1,0.7,0.3,0.9
				S54.4,244.9,54.8,244.9z"/>
			<path fill="#00335A" d="M59.3,248.7c-0.4,0-0.7-0.1-1-0.2v-0.9c0.3,0.1,0.6,0.1,0.9,0.1c0.3,0,0.6-0.1,0.7-0.3s0.2-0.5,0.2-0.8
				v-8.1h1.1v8C61.2,248,60.6,248.7,59.3,248.7z M60.1,236.8c0-0.2,0.1-0.4,0.2-0.5c0.1-0.1,0.3-0.2,0.4-0.2c0.2,0,0.3,0.1,0.4,0.2
				c0.1,0.1,0.2,0.3,0.2,0.5s-0.1,0.4-0.2,0.5c-0.1,0.1-0.3,0.2-0.4,0.2c-0.2,0-0.3-0.1-0.4-0.2C60.1,237.2,60.1,237,60.1,236.8z"/>
			<path fill="#00335A" d="M67.7,245.6l-0.2-1h-0.1c-0.3,0.4-0.7,0.7-1,0.9s-0.8,0.2-1.3,0.2c-0.7,0-1.2-0.2-1.6-0.5
				s-0.6-0.9-0.6-1.5c0-1.4,1.1-2.1,3.4-2.2l1.2,0V241c0-0.5-0.1-0.9-0.4-1.2c-0.2-0.3-0.6-0.4-1.1-0.4c-0.6,0-1.2,0.2-2,0.5
				l-0.3-0.8c0.3-0.2,0.7-0.3,1.1-0.4s0.8-0.2,1.2-0.2c0.8,0,1.4,0.2,1.8,0.6c0.4,0.4,0.6,1,0.6,1.8v4.7H67.7z M65.3,244.9
				c0.7,0,1.2-0.2,1.5-0.5c0.4-0.4,0.6-0.9,0.6-1.5v-0.6l-1.1,0c-0.8,0-1.4,0.2-1.8,0.4s-0.6,0.6-0.6,1.1c0,0.4,0.1,0.7,0.3,0.9
				S64.9,244.9,65.3,244.9z"/>
			<path fill="#00335A" d="M78.8,244.7L78.8,244.7c-0.5,0.7-1.3,1.1-2.2,1.1c-0.9,0-1.6-0.3-2.1-0.9c-0.5-0.6-0.8-1.5-0.8-2.7
				s0.3-2,0.8-2.7s1.2-1,2.1-1c0.9,0,1.7,0.3,2.2,1h0.1l0-0.5l0-0.5v-2.8h1.1v9.9h-0.9L78.8,244.7z M76.7,244.8
				c0.7,0,1.2-0.2,1.6-0.6c0.3-0.4,0.5-1,0.5-1.9v-0.2c0-1-0.2-1.7-0.5-2.1c-0.3-0.4-0.9-0.6-1.6-0.6c-0.6,0-1.1,0.2-1.4,0.7
				s-0.5,1.2-0.5,2c0,0.9,0.2,1.6,0.5,2S76.1,244.8,76.7,244.8z"/>
			<path fill="#00335A" d="M85,245.7c-1,0-1.8-0.3-2.4-0.9c-0.6-0.6-0.9-1.5-0.9-2.6c0-1.1,0.3-2,0.8-2.7c0.6-0.7,1.3-1,2.2-1
				c0.9,0,1.6,0.3,2.1,0.9c0.5,0.6,0.8,1.3,0.8,2.3v0.7h-4.8c0,0.8,0.2,1.4,0.6,1.9s0.9,0.6,1.7,0.6c0.8,0,1.5-0.2,2.2-0.5v0.9
				c-0.4,0.2-0.7,0.3-1.1,0.3C85.8,245.7,85.4,245.7,85,245.7z M84.7,239.4c-0.6,0-1,0.2-1.3,0.5c-0.3,0.4-0.5,0.9-0.6,1.5h3.6
				c0-0.7-0.1-1.2-0.4-1.5S85.2,239.4,84.7,239.4z"/>
			<path fill="#00335A" d="M90.4,245.6h-1.1v-9.9h1.1V245.6z"/>
			<path fill="#00335A" d="M98.8,245.7c-1,0-1.8-0.3-2.3-0.9c-0.6-0.6-0.8-1.5-0.8-2.6c0-1.2,0.3-2.1,0.8-2.7s1.4-1,2.4-1
				c0.3,0,0.7,0,1,0.1c0.3,0.1,0.6,0.2,0.8,0.3l-0.3,0.9c-0.2-0.1-0.5-0.2-0.8-0.2c-0.3-0.1-0.5-0.1-0.7-0.1c-1.4,0-2.1,0.9-2.1,2.7
				c0,0.9,0.2,1.5,0.5,2s0.9,0.7,1.5,0.7c0.6,0,1.2-0.1,1.8-0.4v0.9C100.1,245.6,99.5,245.7,98.8,245.7z"/>
			<path fill="#00335A" d="M106.4,245.6l-0.2-1h-0.1c-0.3,0.4-0.7,0.7-1,0.9s-0.8,0.2-1.3,0.2c-0.7,0-1.2-0.2-1.6-0.5
				s-0.6-0.9-0.6-1.5c0-1.4,1.1-2.1,3.4-2.2l1.2,0V241c0-0.5-0.1-0.9-0.4-1.2c-0.2-0.3-0.6-0.4-1.1-0.4c-0.6,0-1.2,0.2-2,0.5
				l-0.3-0.8c0.3-0.2,0.7-0.3,1.1-0.4s0.8-0.2,1.2-0.2c0.8,0,1.4,0.2,1.8,0.6c0.4,0.4,0.6,1,0.6,1.8v4.7H106.4z M104.1,244.9
				c0.7,0,1.2-0.2,1.5-0.5c0.4-0.4,0.6-0.9,0.6-1.5v-0.6l-1.1,0c-0.8,0-1.4,0.2-1.8,0.4s-0.6,0.6-0.6,1.1c0,0.4,0.1,0.7,0.3,0.9
				S103.7,244.9,104.1,244.9z"/>
			<path fill="#00335A" d="M112.6,238.5c0.3,0,0.6,0,0.8,0.1l-0.1,1c-0.3-0.1-0.5-0.1-0.8-0.1c-0.6,0-1,0.2-1.4,0.7
				c-0.4,0.5-0.6,1-0.6,1.7v3.7h-1.1v-7h0.9l0.1,1.3h0.1c0.3-0.5,0.6-0.8,0.9-1C111.7,238.6,112.1,238.5,112.6,238.5z"/>
			<path fill="#00335A" d="M120.4,238.6v0.7l-1.3,0.2c0.1,0.1,0.2,0.3,0.3,0.6c0.1,0.2,0.1,0.5,0.1,0.8c0,0.7-0.2,1.2-0.7,1.6
				s-1.1,0.6-1.9,0.6c-0.2,0-0.4,0-0.6-0.1c-0.4,0.2-0.7,0.5-0.7,0.9c0,0.2,0.1,0.3,0.2,0.4c0.2,0.1,0.4,0.1,0.8,0.1h1.2
				c0.8,0,1.3,0.2,1.7,0.5c0.4,0.3,0.6,0.8,0.6,1.4c0,0.8-0.3,1.4-0.9,1.8c-0.6,0.4-1.5,0.6-2.7,0.6c-0.9,0-1.6-0.2-2.1-0.5
				c-0.5-0.3-0.7-0.8-0.7-1.4c0-0.4,0.1-0.8,0.4-1.1c0.3-0.3,0.7-0.5,1.1-0.6c-0.2-0.1-0.3-0.2-0.4-0.4c-0.1-0.2-0.2-0.4-0.2-0.6
				c0-0.3,0.1-0.5,0.2-0.7c0.1-0.2,0.3-0.4,0.6-0.6c-0.4-0.1-0.7-0.4-0.9-0.8s-0.3-0.8-0.3-1.2c0-0.8,0.2-1.3,0.7-1.8
				s1.1-0.6,1.9-0.6c0.4,0,0.7,0,1,0.1H120.4z M114.9,246.8c0,0.4,0.2,0.7,0.5,0.9s0.8,0.3,1.4,0.3c0.9,0,1.5-0.1,2-0.4
				c0.4-0.3,0.6-0.6,0.6-1.1c0-0.4-0.1-0.6-0.3-0.8s-0.7-0.2-1.3-0.2h-1.3c-0.5,0-0.9,0.1-1.1,0.3S114.9,246.3,114.9,246.8z
				 M115.4,240.9c0,0.5,0.1,0.9,0.4,1.1c0.3,0.3,0.7,0.4,1.1,0.4c1,0,1.5-0.5,1.5-1.5c0-1-0.5-1.6-1.6-1.6c-0.5,0-0.9,0.1-1.1,0.4
				C115.6,240,115.4,240.3,115.4,240.9z"/>
			<path fill="#00335A" d="M126.1,245.6l-0.2-1h-0.1c-0.3,0.4-0.7,0.7-1,0.9s-0.8,0.2-1.3,0.2c-0.7,0-1.2-0.2-1.6-0.5
				s-0.6-0.9-0.6-1.5c0-1.4,1.1-2.1,3.4-2.2l1.2,0V241c0-0.5-0.1-0.9-0.4-1.2c-0.2-0.3-0.6-0.4-1.1-0.4c-0.6,0-1.2,0.2-2,0.5
				l-0.3-0.8c0.3-0.2,0.7-0.3,1.1-0.4s0.8-0.2,1.2-0.2c0.8,0,1.4,0.2,1.8,0.6c0.4,0.4,0.6,1,0.6,1.8v4.7H126.1z M123.7,244.9
				c0.7,0,1.2-0.2,1.5-0.5c0.4-0.4,0.6-0.9,0.6-1.5v-0.6l-1.1,0c-0.8,0-1.4,0.2-1.8,0.4s-0.6,0.6-0.6,1.1c0,0.4,0.1,0.7,0.3,0.9
				S123.3,244.9,123.7,244.9z"/>
			<path fill="#00335A" d="M133.8,244.7L133.8,244.7c-0.5,0.7-1.3,1.1-2.2,1.1c-0.9,0-1.6-0.3-2.1-0.9c-0.5-0.6-0.8-1.5-0.8-2.7
				s0.3-2,0.8-2.7s1.2-1,2.1-1c0.9,0,1.7,0.3,2.2,1h0.1l0-0.5l0-0.5v-2.8h1.1v9.9h-0.9L133.8,244.7z M131.7,244.8
				c0.7,0,1.2-0.2,1.6-0.6c0.3-0.4,0.5-1,0.5-1.9v-0.2c0-1-0.2-1.7-0.5-2.1c-0.3-0.4-0.9-0.6-1.6-0.6c-0.6,0-1.1,0.2-1.4,0.7
				s-0.5,1.2-0.5,2c0,0.9,0.2,1.6,0.5,2S131.1,244.8,131.7,244.8z"/>
			<path fill="#00335A" d="M143,242.1c0,1.1-0.3,2-0.9,2.7c-0.6,0.6-1.4,1-2.4,1c-0.6,0-1.2-0.1-1.7-0.4c-0.5-0.3-0.9-0.7-1.1-1.3
				c-0.3-0.5-0.4-1.2-0.4-1.9c0-1.1,0.3-2,0.8-2.7c0.6-0.6,1.4-0.9,2.4-0.9c1,0,1.7,0.3,2.3,1C142.7,240.1,143,241,143,242.1z
				 M137.7,242.1c0,0.9,0.2,1.6,0.5,2s0.9,0.7,1.6,0.7s1.2-0.2,1.6-0.7c0.4-0.5,0.5-1.1,0.5-2c0-0.9-0.2-1.6-0.5-2s-0.9-0.7-1.6-0.7
				c-0.7,0-1.2,0.2-1.6,0.7S137.7,241.2,137.7,242.1z"/>
			<path fill="#00335A" d="M148,238.5c0.3,0,0.6,0,0.8,0.1l-0.1,1c-0.3-0.1-0.5-0.1-0.8-0.1c-0.6,0-1,0.2-1.4,0.7
				c-0.4,0.5-0.6,1-0.6,1.7v3.7h-1.1v-7h0.9l0.1,1.3h0.1c0.3-0.5,0.6-0.8,0.9-1C147.2,238.6,147.6,238.5,148,238.5z"/>
			<path fill="#00335A" d="M49.5,260.3L49.5,260.3c-0.5,0.7-1.3,1.1-2.2,1.1c-0.9,0-1.6-0.3-2.1-0.9c-0.5-0.6-0.8-1.5-0.8-2.7
				s0.3-2,0.8-2.7s1.2-1,2.1-1c0.9,0,1.7,0.3,2.2,1h0.1l0-0.5l0-0.5v-2.8h1.1v9.9h-0.9L49.5,260.3z M47.4,260.4
				c0.7,0,1.2-0.2,1.6-0.6c0.3-0.4,0.5-1,0.5-1.9v-0.2c0-1-0.2-1.7-0.5-2.1c-0.3-0.4-0.9-0.6-1.6-0.6c-0.6,0-1.1,0.2-1.4,0.7
				s-0.5,1.2-0.5,2c0,0.9,0.2,1.6,0.5,2S46.7,260.4,47.4,260.4z"/>
			<path fill="#00335A" d="M55.6,261.3c-1,0-1.8-0.3-2.4-0.9c-0.6-0.6-0.9-1.5-0.9-2.6c0-1.1,0.3-2,0.8-2.7c0.6-0.7,1.3-1,2.2-1
				c0.9,0,1.6,0.3,2.1,0.9c0.5,0.6,0.8,1.3,0.8,2.3v0.7h-4.8c0,0.8,0.2,1.4,0.6,1.9s0.9,0.6,1.7,0.6c0.8,0,1.5-0.2,2.2-0.5v0.9
				c-0.4,0.2-0.7,0.3-1.1,0.3C56.5,261.3,56.1,261.3,55.6,261.3z M55.3,255c-0.6,0-1,0.2-1.3,0.5c-0.3,0.4-0.5,0.9-0.6,1.5h3.6
				c0-0.7-0.1-1.2-0.4-1.5S55.9,255,55.3,255z"/>
			<path fill="#00335A" d="M64.4,261.2h-1.1v-9.9h1.1V261.2z"/>
			<path fill="#00335A" d="M70.9,261.2l-0.2-1h-0.1c-0.3,0.4-0.7,0.7-1,0.9s-0.8,0.2-1.3,0.2c-0.7,0-1.2-0.2-1.6-0.5
				s-0.6-0.9-0.6-1.5c0-1.4,1.1-2.1,3.4-2.2l1.2,0v-0.4c0-0.5-0.1-0.9-0.4-1.2c-0.2-0.3-0.6-0.4-1.1-0.4c-0.6,0-1.2,0.2-2,0.5
				l-0.3-0.8c0.3-0.2,0.7-0.3,1.1-0.4s0.8-0.2,1.2-0.2c0.8,0,1.4,0.2,1.8,0.6c0.4,0.4,0.6,1,0.6,1.8v4.7H70.9z M68.6,260.5
				c0.7,0,1.2-0.2,1.5-0.5c0.4-0.4,0.6-0.9,0.6-1.5v-0.6l-1.1,0c-0.8,0-1.4,0.2-1.8,0.4s-0.6,0.6-0.6,1.1c0,0.4,0.1,0.7,0.3,0.9
				S68.1,260.5,68.6,260.5z"/>
			<path fill="#00335A" d="M80.5,254.1c0.9,0,1.6,0.3,2.1,0.9c0.5,0.6,0.8,1.5,0.8,2.7s-0.3,2-0.8,2.7s-1.2,0.9-2.1,0.9
				c-0.5,0-0.9-0.1-1.2-0.3c-0.4-0.2-0.7-0.4-0.9-0.8h-0.1l-0.2,0.9h-0.8v-9.9h1.1v2.4c0,0.5,0,1-0.1,1.4h0.1
				C78.8,254.5,79.5,254.1,80.5,254.1z M80.3,255c-0.7,0-1.2,0.2-1.6,0.6c-0.3,0.4-0.5,1.1-0.5,2.1c0,1,0.2,1.7,0.5,2.1
				c0.3,0.4,0.8,0.6,1.6,0.6c0.6,0,1.1-0.2,1.4-0.7c0.3-0.5,0.5-1.2,0.5-2c0-0.9-0.2-1.6-0.5-2C81.5,255.2,81,255,80.3,255z"/>
			<path fill="#00335A" d="M89.5,261.2l-0.2-1h-0.1c-0.3,0.4-0.7,0.7-1,0.9s-0.8,0.2-1.3,0.2c-0.7,0-1.2-0.2-1.6-0.5
				s-0.6-0.9-0.6-1.5c0-1.4,1.1-2.1,3.4-2.2l1.2,0v-0.4c0-0.5-0.1-0.9-0.4-1.2c-0.2-0.3-0.6-0.4-1.1-0.4c-0.6,0-1.2,0.2-2,0.5
				l-0.3-0.8c0.3-0.2,0.7-0.3,1.1-0.4s0.8-0.2,1.2-0.2c0.8,0,1.4,0.2,1.8,0.6c0.4,0.4,0.6,1,0.6,1.8v4.7H89.5z M87.1,260.5
				c0.7,0,1.2-0.2,1.5-0.5c0.4-0.4,0.6-0.9,0.6-1.5v-0.6l-1.1,0c-0.8,0-1.4,0.2-1.8,0.4s-0.6,0.6-0.6,1.1c0,0.4,0.1,0.7,0.3,0.9
				S86.7,260.5,87.1,260.5z"/>
			<path fill="#00335A" d="M94.7,260.5c0.2,0,0.4,0,0.5,0c0.2,0,0.3-0.1,0.4-0.1v0.8c-0.1,0.1-0.3,0.1-0.5,0.1
				c-0.2,0-0.4,0.1-0.6,0.1c-1.3,0-2-0.7-2-2.1v-4.1h-1v-0.5l1-0.4l0.4-1.5h0.6v1.6h2v0.8h-2v4.1c0,0.4,0.1,0.7,0.3,1
				C94.1,260.3,94.4,260.5,94.7,260.5z"/>
			<path fill="#00335A" d="M100,261.3c-1,0-1.8-0.3-2.4-0.9c-0.6-0.6-0.9-1.5-0.9-2.6c0-1.1,0.3-2,0.8-2.7c0.6-0.7,1.3-1,2.2-1
				c0.9,0,1.6,0.3,2.1,0.9c0.5,0.6,0.8,1.3,0.8,2.3v0.7h-4.8c0,0.8,0.2,1.4,0.6,1.9s0.9,0.6,1.7,0.6c0.8,0,1.5-0.2,2.2-0.5v0.9
				c-0.4,0.2-0.7,0.3-1.1,0.3C100.9,261.3,100.5,261.3,100,261.3z M99.7,255c-0.6,0-1,0.2-1.3,0.5c-0.3,0.4-0.5,0.9-0.6,1.5h3.6
				c0-0.7-0.1-1.2-0.4-1.5S100.2,255,99.7,255z"/>
			<path fill="#00335A" d="M107.5,254.1c0.3,0,0.6,0,0.8,0.1l-0.1,1c-0.3-0.1-0.5-0.1-0.8-0.1c-0.6,0-1,0.2-1.4,0.7
				c-0.4,0.5-0.6,1-0.6,1.7v3.7h-1.1v-7h0.9l0.1,1.3h0.1c0.3-0.5,0.6-0.8,0.9-1C106.7,254.2,107.1,254.1,107.5,254.1z"/>
			<path fill="#00335A" d="M109.6,253.2c0.2-0.3,0.4-0.6,0.7-1c0.2-0.4,0.4-0.7,0.6-1h1.3v0.1c-0.2,0.3-0.5,0.6-0.8,1
				c-0.4,0.4-0.7,0.7-1,0.9h-0.7V253.2z M110.7,261.2h-1.1v-7h1.1V261.2z"/>
			<path fill="#00335A" d="M117.2,261.2l-0.2-1H117c-0.3,0.4-0.7,0.7-1,0.9s-0.8,0.2-1.3,0.2c-0.7,0-1.2-0.2-1.6-0.5
				s-0.6-0.9-0.6-1.5c0-1.4,1.1-2.1,3.4-2.2l1.2,0v-0.4c0-0.5-0.1-0.9-0.4-1.2c-0.2-0.3-0.6-0.4-1.1-0.4c-0.6,0-1.2,0.2-2,0.5
				l-0.3-0.8c0.3-0.2,0.7-0.3,1.1-0.4s0.8-0.2,1.2-0.2c0.8,0,1.4,0.2,1.8,0.6c0.4,0.4,0.6,1,0.6,1.8v4.7H117.2z M114.8,260.5
				c0.7,0,1.2-0.2,1.5-0.5c0.4-0.4,0.6-0.9,0.6-1.5v-0.6l-1.1,0c-0.8,0-1.4,0.2-1.8,0.4s-0.6,0.6-0.6,1.1c0,0.4,0.1,0.7,0.3,0.9
				S114.4,260.5,114.8,260.5z"/>
			<path fill="#00335A" d="M126.5,261.3c-1,0-1.8-0.3-2.4-0.9c-0.6-0.6-0.9-1.5-0.9-2.6c0-1.1,0.3-2,0.8-2.7c0.6-0.7,1.3-1,2.2-1
				c0.9,0,1.6,0.3,2.1,0.9c0.5,0.6,0.8,1.3,0.8,2.3v0.7h-4.8c0,0.8,0.2,1.4,0.6,1.9s0.9,0.6,1.7,0.6c0.8,0,1.5-0.2,2.2-0.5v0.9
				c-0.4,0.2-0.7,0.3-1.1,0.3C127.4,261.3,126.9,261.3,126.5,261.3z M126.2,255c-0.6,0-1,0.2-1.3,0.5c-0.3,0.4-0.5,0.9-0.6,1.5h3.6
				c0-0.7-0.1-1.2-0.4-1.5S126.7,255,126.2,255z"/>
			<path fill="#00335A" d="M132.5,257.6l-2.4-3.4h1.2l1.8,2.7l1.8-2.7h1.2l-2.4,3.4l2.5,3.6h-1.2l-1.9-2.8l-2,2.8H130L132.5,257.6z"
				/>
			<path fill="#00335A" d="M139.9,260.5c0.2,0,0.4,0,0.5,0c0.2,0,0.3-0.1,0.4-0.1v0.8c-0.1,0.1-0.3,0.1-0.5,0.1
				c-0.2,0-0.4,0.1-0.6,0.1c-1.3,0-2-0.7-2-2.1v-4.1h-1v-0.5l1-0.4l0.4-1.5h0.6v1.6h2v0.8h-2v4.1c0,0.4,0.1,0.7,0.3,1
				C139.3,260.3,139.5,260.5,139.9,260.5z"/>
			<path fill="#00335A" d="M145.2,261.3c-1,0-1.8-0.3-2.4-0.9c-0.6-0.6-0.9-1.5-0.9-2.6c0-1.1,0.3-2,0.8-2.7c0.6-0.7,1.3-1,2.2-1
				c0.9,0,1.6,0.3,2.1,0.9c0.5,0.6,0.8,1.3,0.8,2.3v0.7h-4.8c0,0.8,0.2,1.4,0.6,1.9s0.9,0.6,1.7,0.6c0.8,0,1.5-0.2,2.2-0.5v0.9
				c-0.4,0.2-0.7,0.3-1.1,0.3C146,261.3,145.6,261.3,145.2,261.3z M144.9,255c-0.6,0-1,0.2-1.3,0.5c-0.3,0.4-0.5,0.9-0.6,1.5h3.6
				c0-0.7-0.1-1.2-0.4-1.5S145.4,255,144.9,255z"/>
			<path fill="#00335A" d="M152.7,254.1c0.3,0,0.6,0,0.8,0.1l-0.1,1c-0.3-0.1-0.5-0.1-0.8-0.1c-0.6,0-1,0.2-1.4,0.7
				c-0.4,0.5-0.6,1-0.6,1.7v3.7h-1.1v-7h0.9l0.1,1.3h0.1c0.3-0.5,0.6-0.8,0.9-1C151.9,254.2,152.3,254.1,152.7,254.1z"/>
			<path fill="#00335A" d="M159.6,261.2v-4.5c0-0.6-0.1-1-0.4-1.3c-0.3-0.3-0.7-0.4-1.2-0.4c-0.7,0-1.3,0.2-1.6,0.6
				c-0.3,0.4-0.5,1-0.5,1.9v3.7h-1.1v-7h0.9l0.2,1h0.1c0.2-0.3,0.5-0.6,0.9-0.8c0.4-0.2,0.8-0.3,1.3-0.3c0.8,0,1.5,0.2,1.9,0.6
				s0.6,1,0.6,1.9v4.5H159.6z"/>
			<path fill="#00335A" d="M167.1,261.2l-0.2-1h-0.1c-0.3,0.4-0.7,0.7-1,0.9s-0.8,0.2-1.3,0.2c-0.7,0-1.2-0.2-1.6-0.5
				s-0.6-0.9-0.6-1.5c0-1.4,1.1-2.1,3.4-2.2l1.2,0v-0.4c0-0.5-0.1-0.9-0.4-1.2c-0.2-0.3-0.6-0.4-1.1-0.4c-0.6,0-1.2,0.2-2,0.5
				l-0.3-0.8c0.3-0.2,0.7-0.3,1.1-0.4s0.8-0.2,1.2-0.2c0.8,0,1.4,0.2,1.8,0.6c0.4,0.4,0.6,1,0.6,1.8v4.7H167.1z M164.7,260.5
				c0.7,0,1.2-0.2,1.5-0.5c0.4-0.4,0.6-0.9,0.6-1.5v-0.6l-1.1,0c-0.8,0-1.4,0.2-1.8,0.4s-0.6,0.6-0.6,1.1c0,0.4,0.1,0.7,0.3,0.9
				S164.3,260.5,164.7,260.5z"/>
		</g>
	</g>
</g>
<g id="Caja_DMC" display="none">
	<g display="inline">
		<polygon fill="#FFFFFF" points="631.7,43.7 486.2,43.7 486.2,9.7 647,9.7 		"/>
		<g>
			<path fill="#00335A" d="M510.5,23.5c-1,0-1.8,0.3-2.4,1c-0.6,0.7-0.9,1.6-0.9,2.8c0,1.2,0.3,2.2,0.9,2.8s1.4,1,2.4,1
				c0.6,0,1.4-0.1,2.2-0.3v0.9c-0.6,0.2-1.4,0.4-2.4,0.4c-1.4,0-2.4-0.4-3.2-1.2c-0.7-0.8-1.1-2-1.1-3.5c0-1,0.2-1.8,0.5-2.5
				c0.4-0.7,0.9-1.3,1.5-1.7c0.7-0.4,1.5-0.6,2.4-0.6c1,0,1.8,0.2,2.6,0.5l-0.5,0.9C511.9,23.7,511.2,23.5,510.5,23.5z"/>
			<path fill="#00335A" d="M518.9,32l-0.2-1h-0.1c-0.3,0.4-0.7,0.7-1,0.9s-0.8,0.2-1.3,0.2c-0.7,0-1.2-0.2-1.6-0.5s-0.6-0.9-0.6-1.5
				c0-1.4,1.1-2.1,3.4-2.2l1.2,0v-0.4c0-0.5-0.1-0.9-0.4-1.2c-0.2-0.3-0.6-0.4-1.1-0.4c-0.6,0-1.2,0.2-2,0.5l-0.3-0.8
				c0.3-0.2,0.7-0.3,1.1-0.4c0.4-0.1,0.8-0.2,1.2-0.2c0.8,0,1.4,0.2,1.8,0.6c0.4,0.4,0.6,1,0.6,1.8V32H518.9z M516.5,31.2
				c0.7,0,1.2-0.2,1.5-0.5c0.4-0.4,0.6-0.9,0.6-1.5v-0.6l-1.1,0c-0.8,0-1.4,0.2-1.8,0.4s-0.6,0.6-0.6,1.1c0,0.4,0.1,0.7,0.3,0.9
				S516.1,31.2,516.5,31.2z"/>
			<path fill="#00335A" d="M521,35.1c-0.4,0-0.7-0.1-1-0.2v-0.9c0.3,0.1,0.6,0.1,0.9,0.1c0.3,0,0.6-0.1,0.7-0.3s0.2-0.5,0.2-0.8V25
				h1.1v8C522.9,34.4,522.2,35.1,521,35.1z M521.7,23.1c0-0.2,0.1-0.4,0.2-0.5s0.3-0.2,0.4-0.2c0.2,0,0.3,0.1,0.4,0.2
				c0.1,0.1,0.2,0.3,0.2,0.5c0,0.2-0.1,0.4-0.2,0.5c-0.1,0.1-0.3,0.2-0.4,0.2c-0.2,0-0.3-0.1-0.4-0.2S521.7,23.4,521.7,23.1z"/>
			<path fill="#00335A" d="M529.4,32l-0.2-1h-0.1c-0.3,0.4-0.7,0.7-1,0.9s-0.8,0.2-1.3,0.2c-0.7,0-1.2-0.2-1.6-0.5s-0.6-0.9-0.6-1.5
				c0-1.4,1.1-2.1,3.4-2.2l1.2,0v-0.4c0-0.5-0.1-0.9-0.4-1.2c-0.2-0.3-0.6-0.4-1.1-0.4c-0.6,0-1.2,0.2-2,0.5l-0.3-0.8
				c0.3-0.2,0.7-0.3,1.1-0.4c0.4-0.1,0.8-0.2,1.2-0.2c0.8,0,1.4,0.2,1.8,0.6c0.4,0.4,0.6,1,0.6,1.8V32H529.4z M527,31.2
				c0.7,0,1.2-0.2,1.5-0.5c0.4-0.4,0.6-0.9,0.6-1.5v-0.6l-1.1,0c-0.8,0-1.4,0.2-1.8,0.4s-0.6,0.6-0.6,1.1c0,0.4,0.1,0.7,0.3,0.9
				S526.6,31.2,527,31.2z"/>
			<path fill="#00335A" d="M540.5,31L540.5,31c-0.5,0.7-1.3,1.1-2.2,1.1c-0.9,0-1.6-0.3-2.1-0.9c-0.5-0.6-0.8-1.5-0.8-2.7
				c0-1.1,0.3-2,0.8-2.7s1.2-1,2.1-1c0.9,0,1.7,0.3,2.2,1h0.1l0-0.5l0-0.5v-2.8h1.1V32h-0.9L540.5,31z M538.3,31.2
				c0.7,0,1.2-0.2,1.6-0.6c0.3-0.4,0.5-1,0.5-1.9v-0.2c0-1-0.2-1.7-0.5-2.1s-0.9-0.6-1.6-0.6c-0.6,0-1.1,0.2-1.4,0.7s-0.5,1.2-0.5,2
				c0,0.9,0.2,1.6,0.5,2S537.7,31.2,538.3,31.2z"/>
			<path fill="#00335A" d="M546.6,32.1c-1,0-1.8-0.3-2.4-0.9s-0.9-1.5-0.9-2.6c0-1.1,0.3-2,0.8-2.7c0.6-0.7,1.3-1,2.2-1
				c0.9,0,1.6,0.3,2.1,0.9s0.8,1.3,0.8,2.3v0.7h-4.8c0,0.8,0.2,1.4,0.6,1.9c0.4,0.4,0.9,0.6,1.7,0.6c0.8,0,1.5-0.2,2.2-0.5v0.9
				c-0.4,0.2-0.7,0.3-1.1,0.3C547.5,32,547.1,32.1,546.6,32.1z M546.3,25.8c-0.6,0-1,0.2-1.3,0.5c-0.3,0.4-0.5,0.9-0.6,1.5h3.6
				c0-0.7-0.1-1.2-0.4-1.5S546.9,25.8,546.3,25.8z"/>
			<path fill="#00335A" d="M552,32H551v-9.9h1.1V32z"/>
			<path fill="#00335A" d="M565.2,27.2c0,1.5-0.4,2.7-1.2,3.5c-0.8,0.8-2,1.2-3.6,1.2h-2.6v-9.3h2.8c1.4,0,2.6,0.4,3.4,1.2
				C564.8,24.7,565.2,25.8,565.2,27.2z M564.1,27.3c0-1.2-0.3-2.1-0.9-2.7s-1.5-0.9-2.7-0.9h-1.6V31h1.3c1.3,0,2.3-0.3,2.9-0.9
				C563.7,29.4,564.1,28.5,564.1,27.3z"/>
			<path fill="#00335A" d="M571.4,32l-3.1-8.2h-0.1c0.1,0.7,0.1,1.4,0.1,2.3V32h-1v-9.3h1.6l2.9,7.7h0.1l3-7.7h1.6V32h-1.1v-6
				c0-0.7,0-1.4,0.1-2.2h-0.1l-3.2,8.2H571.4z"/>
			<path fill="#00335A" d="M583,23.5c-1,0-1.8,0.3-2.4,1c-0.6,0.7-0.9,1.6-0.9,2.8c0,1.2,0.3,2.2,0.9,2.8s1.4,1,2.4,1
				c0.6,0,1.4-0.1,2.2-0.3v0.9c-0.6,0.2-1.4,0.4-2.4,0.4c-1.4,0-2.4-0.4-3.2-1.2c-0.7-0.8-1.1-2-1.1-3.5c0-1,0.2-1.8,0.5-2.5
				c0.4-0.7,0.9-1.3,1.5-1.7c0.7-0.4,1.5-0.6,2.4-0.6c1,0,1.8,0.2,2.6,0.5l-0.5,0.9C584.4,23.7,583.7,23.5,583,23.5z"/>
		</g>
	</g>
</g>

<g id="Capa_5">
	<g id="obc4" class="area" cursor="pointer" data-ref="2">
		<path fill="#E8435D" d="M198.2,218.7v21.6c0,0.2,0.1,0.3,0.2,0.4c0.1,0.1,0.2,0.1,0.3,0.1c0,0,0.1,0,0.1,0l17.8-3.8
			c0.3-0.1,0.4-0.3,0.4-0.5v-5.3l4.6-3.1c0.2-0.1,0.3-0.3,0.2-0.5c0-0.2-0.1-0.4-0.3-0.5l-4.6-2.4v-6c0-0.3-0.2-0.6-0.6-0.6h-17.8
			C198.4,218.1,198.2,218.4,198.2,218.7z"/>
		<path fill="#FFFFFF" d="M201.9,228.1c0-0.6,0.5-1.1,1.1-1.1h2.8v-2.7c0-0.6,0.5-1.1,1.1-1.1h1.3c0.6,0,1.1,0.5,1.1,1.1v2.7h2.8
			c0.6,0,1.1,0.5,1.1,1.1v1.3c0,0.6-0.5,1.1-1.1,1.1h-2.8v2.6c0,0.6-0.5,1.1-1.1,1.1h-1.3c-0.6,0-1.1-0.5-1.1-1.1v-2.6H203
			c-0.6,0-1.1-0.5-1.1-1.1V228.1z"/>
	</g>
	<g id="obc3" class="area" cursor="pointer" data-ref="1">
		<path fill="#E8435D" d="M485.7,9.3h-17.8c-0.3,0-0.6,0.2-0.6,0.6v6l-4.6,2.4c-0.2,0.1-0.3,0.3-0.3,0.5c0,0.2,0.1,0.4,0.2,0.5
			l4.6,3.1v5.3c0,0.3,0.2,0.5,0.4,0.5l17.8,3.8c0,0,0.1,0,0.1,0c0.1,0,0.2,0,0.3-0.1c0.1-0.1,0.2-0.3,0.2-0.4V9.8
			C486.2,9.5,486,9.3,485.7,9.3z"/>
		<path fill="#FFFFFF" d="M482.5,20.5c0,0.6-0.5,1.1-1.1,1.1h-2.8v2.6c0,0.6-0.5,1.1-1.1,1.1h-1.3c-0.6,0-1.1-0.5-1.1-1.1v-2.6h-2.8
			c-0.6,0-1.1-0.5-1.1-1.1v-1.3c0-0.6,0.5-1.1,1.1-1.1h2.8v-2.7c0-0.6,0.5-1.1,1.1-1.1h1.3c0.6,0,1.1,0.5,1.1,1.1v2.7h2.8
			c0.6,0,1.1,0.5,1.1,1.1V20.5z"/>
	</g>
</g>
<g id="Capa_2">
	<g>
		
			<polygon fill="none" stroke="#00335A" stroke-width="3.4075" stroke-linecap="round" stroke-linejoin="round" stroke-miterlimit="10" points="
			427.5,122.4 420.3,195.6 301.5,94.5 296.5,28.2 		"/>
		
			<polygon fill="none" stroke="#00335A" stroke-width="3.4075" stroke-linecap="round" stroke-linejoin="round" stroke-miterlimit="10" points="
			509.2,152 526.4,80.7 427.5,122.4 420.3,195.6 		"/>
		
			<polygon fill="none" stroke="#00335A" stroke-width="3.4075" stroke-linecap="round" stroke-linejoin="round" stroke-miterlimit="10" points="
			296.5,28.2 384.9,1.7 526.4,80.7 427.5,122.4 		"/>
		
			<polygon fill="none" stroke="#00335A" stroke-width="3.4075" stroke-linecap="round" stroke-linejoin="round" stroke-miterlimit="10" points="
			255.1,206.1 351.1,162.5 252.3,76.8 167.2,108.3 		"/>
		
			<polygon fill="none" stroke="#00335A" stroke-width="3.4075" stroke-linecap="round" stroke-linejoin="round" stroke-miterlimit="10" points="
			261.7,249.8 255.1,206.1 351.1,162.5 352.1,205.1 		"/>
		
			<polygon fill="none" stroke="#00335A" stroke-width="3.4075" stroke-linecap="round" stroke-linejoin="round" stroke-miterlimit="10" points="
			167.2,108.3 178.3,151.4 261.7,249.8 255.1,206.1 		"/>
		<polygon fill="none" points="441.7,98.7 345.5,39.7 385.7,22.7 475.4,72.4 		"/>
		<g>
			<path fill="#00335A" d="M437.5,71.3c-0.1,0-0.1,0.1-0.1,0.1c0,0.1,0,0.1,0,0.2c0,0.1,0.1,0.1,0.1,0.2c0.1,0.1,0.1,0.1,0.2,0.2
				l2.6,1.5c0.1,0.1,0.2,0.1,0.3,0.1c0.1,0,0.2,0.1,0.3,0.1c0.1,0,0.2,0,0.3,0c0.1,0,0.2,0,0.2-0.1l3-2.2c0.1,0,0.1-0.1,0.1-0.1
				c0-0.1,0-0.1,0-0.2c0-0.1-0.1-0.1-0.1-0.2c-0.1-0.1-0.1-0.1-0.2-0.2l-2.5-1.5c-0.1-0.1-0.2-0.1-0.3-0.1c-0.1,0-0.2-0.1-0.3-0.1
				c-0.1,0-0.2,0-0.3,0c-0.1,0-0.2,0-0.2,0.1L437.5,71.3"/>
			<path fill="#00335A" d="M433.1,77.7C433.1,77.7,433.1,77.8,433.1,77.7c-0.1,0-0.1,0-0.1,0c0,0-0.1,0-0.1,0c0,0-0.1,0-0.1,0
				c0,0,0,0-0.1-0.1c0,0,0,0,0-0.1c0,0,0,0,0-0.1c0,0,0,0,0,0l0.7-0.5c0,0,0,0,0.1,0c0,0,0.1,0,0.1,0c0,0,0.1,0,0.1,0
				c0,0,0.1,0,0.1,0c0,0,0,0,0.1,0.1c0,0,0,0,0,0.1c0,0,0,0,0,0.1c0,0,0,0,0,0L433.1,77.7 M432.5,77.4
				C432.5,77.4,432.5,77.4,432.5,77.4c-0.1,0-0.1,0-0.1,0c0,0-0.1,0-0.1,0c0,0-0.1,0-0.1,0c0,0,0,0-0.1-0.1c0,0,0,0,0-0.1
				c0,0,0,0,0-0.1c0,0,0,0,0,0l0.7-0.5c0,0,0,0,0.1,0c0,0,0.1,0,0.1,0c0,0,0.1,0,0.1,0c0,0,0.1,0,0.1,0c0,0,0,0,0.1,0.1
				c0,0,0,0,0,0.1c0,0,0,0,0,0.1c0,0,0,0,0,0L432.5,77.4 M432.7,78C432.7,78.1,432.7,78.1,432.7,78c-0.1,0-0.1,0-0.1,0
				c0,0-0.1,0-0.1,0c0,0-0.1,0-0.1,0l-1.3-0.8c0,0,0,0-0.1-0.1c0,0,0,0,0-0.1c0,0,0,0,0-0.1c0,0,0,0,0,0l1.6-1.1c0,0,0,0,0.1,0
				c0,0,0.1,0,0.1,0c0,0,0.1,0,0.1,0c0,0,0.1,0,0.1,0l1.3,0.8c0,0,0,0,0.1,0c0,0,0,0,0,0.1c0,0,0,0,0,0.1c0,0,0,0,0,0c0,0,0,0-0.1,0
				c0,0-0.1,0-0.1,0c0,0-0.1,0-0.1,0c0,0-0.1,0-0.1,0l-1.1-0.7l-1.3,1l1.1,0.7c0,0,0,0,0.1,0.1c0,0,0,0,0,0.1
				C432.7,78,432.7,78,432.7,78C432.7,78,432.7,78,432.7,78 M447.7,65.7l-1,0.1l0.1-0.6l0.2,0.1l0,0l0.5-0.3c0,0,0.1,0,0.2-0.1
				c0.1,0,0.2,0,0.3,0c0.1,0,0.2,0,0.3,0.1c0.1,0,0.2,0.1,0.4,0.2c0.1,0.1,0.2,0.1,0.3,0.2c0.1,0.1,0.1,0.1,0.1,0.2
				c0,0.1,0,0.1,0,0.2c0,0,0,0.1-0.1,0.1l-0.9,0.7c0,0,0,0-0.1,0c0,0,0,0-0.1,0c0,0-0.1,0-0.1,0c0,0-0.1,0-0.1,0c0,0,0,0-0.1,0
				c0,0,0,0,0-0.1c0,0,0,0,0,0c0,0,0,0,0,0l0.9-0.7c0,0,0,0,0,0c0,0,0,0,0-0.1c0,0,0-0.1-0.1-0.1c0,0-0.1-0.1-0.2-0.1
				c-0.1,0-0.2-0.1-0.2-0.1c-0.1,0-0.1,0-0.2,0c-0.1,0-0.1,0-0.1,0c0,0-0.1,0-0.1,0l-0.4,0.3l0,0l0,0L447.7,65.7 M445.5,71.4
				l-3.9,2.9c-0.1,0.1-0.2,0.1-0.3,0.1c-0.1,0-0.2,0-0.4,0c-0.1,0-0.3,0-0.4-0.1c-0.1,0-0.3-0.1-0.4-0.2l-3.3-2
				c-0.1-0.1-0.2-0.2-0.3-0.2c-0.1-0.1-0.1-0.2-0.2-0.2c0-0.1,0-0.2,0-0.2c0-0.1,0.1-0.1,0.1-0.2l0,0c0,0,0,0,0,0c0,0,0,0,0,0l0,0
				l3.9-2.8c0.1,0,0.2-0.1,0.3-0.1c0.1,0,0.2,0,0.4,0c0.1,0,0.3,0,0.4,0.1c0.1,0,0.3,0.1,0.4,0.2l3.3,1.9c0.1,0.1,0.2,0.2,0.3,0.2
				c0.1,0.1,0.1,0.2,0.2,0.2c0,0.1,0.1,0.2,0,0.2C445.6,71.3,445.6,71.4,445.5,71.4 M447.1,61.4l-22.3,15.7l-54.1-33l25.2-11.4
				L447.1,61.4 M382.3,34.2L382.3,34.2L382.3,34.2C382.3,34.2,382.3,34.2,382.3,34.2L382.3,34.2l-6.4,2.8c-0.1,0-0.2,0.1-0.3,0.1
				s-0.2,0-0.3,0c-0.1,0-0.2,0-0.3,0c-0.1,0-0.2,0-0.2-0.1c-0.1,0-0.1-0.1-0.1-0.1c0,0,0-0.1,0-0.1c0,0,0.1-0.1,0.1-0.1
				c0.1,0,0.1-0.1,0.2-0.1l6.4-2.8c0.1,0,0.2-0.1,0.3-0.1c0.1,0,0.2,0,0.3,0c0.1,0,0.2,0,0.3,0c0.1,0,0.2,0,0.2,0.1
				c0.1,0,0.1,0.1,0.1,0.1c0,0,0,0.1,0,0.1c0,0,0,0.1-0.1,0.1C382.4,34.1,382.4,34.2,382.3,34.2 M369.9,40c-0.1,0.1-0.3,0.1-0.4,0.1
				c-0.2,0-0.3,0-0.5,0c-0.2,0-0.3,0-0.5-0.1c-0.2,0-0.3-0.1-0.4-0.2c-0.1-0.1-0.2-0.2-0.3-0.2c-0.1-0.1-0.1-0.2-0.1-0.3
				c0-0.1,0-0.2,0.1-0.2c0.1-0.1,0.1-0.1,0.3-0.2c0.1-0.1,0.3-0.1,0.4-0.1c0.2,0,0.3,0,0.5,0c0.2,0,0.3,0,0.5,0.1
				c0.2,0,0.3,0.1,0.4,0.2c0.1,0.1,0.2,0.2,0.3,0.2c0.1,0.1,0.1,0.2,0.1,0.3c0,0.1,0,0.2-0.1,0.2C370.1,39.9,370,39.9,369.9,40
				 M364.8,39.2c-0.4,0.2-0.7,0.4-0.8,0.6c-0.2,0.2-0.3,0.5-0.3,0.8c0,0.3,0.1,0.5,0.3,0.8c0.2,0.3,0.5,0.5,0.9,0.8l63.5,38.9
				c0.5,0.3,1.1,0.6,1.6,0.7c0.6,0.2,1.1,0.3,1.7,0.3c0.6,0,1.1,0,1.6-0.1c0.5-0.1,0.9-0.3,1.2-0.5l19.6-14.8
				c0.3-0.2,0.4-0.5,0.5-0.7c0.1-0.3,0-0.6-0.1-0.9c-0.1-0.3-0.4-0.6-0.7-0.9c-0.3-0.3-0.7-0.6-1.2-0.9L392.9,30
				c-0.4-0.2-0.8-0.4-1.3-0.5c-0.4-0.1-0.9-0.2-1.4-0.3c-0.5-0.1-0.9-0.1-1.3,0c-0.4,0-0.8,0.1-1.1,0.3L364.8,39.2"/>
			<path fill="#00335A" d="M429.5,82.5L429.5,82.5l-66-40.5c-0.4-0.2-0.7-0.5-0.8-0.7c-0.2-0.3-0.3-0.5-0.3-0.8
				c0-0.3,0.1-0.5,0.3-0.7c0.2-0.2,0.5-0.4,0.8-0.6L388,28.8c0.3-0.1,0.7-0.2,1.1-0.2c0.4,0,0.8,0,1.3,0c0.4,0,0.9,0.1,1.3,0.3
				s0.8,0.3,1.2,0.5l0,0l61.8,34.4c0.4,0.2,0.8,0.5,1.1,0.8c0.3,0.3,0.5,0.6,0.6,0.9s0.2,0.6,0.1,0.8c-0.1,0.3-0.2,0.5-0.5,0.7
				l-20.8,15.9c-0.3,0.2-0.7,0.4-1.2,0.5c-0.5,0.1-1,0.1-1.5,0.1c-0.5,0-1.1-0.1-1.6-0.3C430.5,83,430,82.8,429.5,82.5 M362.5,38.6
				c-0.5,0.2-0.9,0.5-1.1,0.8c-0.2,0.3-0.4,0.6-0.4,1c0,0.3,0.1,0.7,0.4,1c0.3,0.3,0.6,0.7,1.1,1L428.7,83l0,0l0,0
				c0.6,0.4,1.3,0.7,2.1,0.9c0.7,0.2,1.5,0.4,2.2,0.4c0.7,0,1.4,0,2-0.1c0.6-0.1,1.1-0.4,1.6-0.7l20.7-16c0.3-0.3,0.5-0.6,0.6-0.9
				c0.1-0.3,0-0.7-0.2-1.1c-0.2-0.4-0.5-0.8-0.9-1.2c-0.4-0.4-0.9-0.7-1.5-1.1L393.5,29l0,0l0,0c-0.5-0.3-1-0.5-1.6-0.6
				c-0.6-0.2-1.1-0.3-1.7-0.3c-0.6-0.1-1.1-0.1-1.7,0c-0.5,0.1-1,0.2-1.4,0.3L362.5,38.6"/>
		</g>
		
			<polygon fill="none" stroke="#00335A" stroke-width="1.2778" stroke-linecap="round" stroke-linejoin="round" stroke-miterlimit="10" points="
			213.9,140.6 278.8,162.6 293.2,157 298.6,137.8 242.4,116.7 233,120.8 		"/>
		
			<path fill="none" stroke="#00335A" stroke-width="1.2778" stroke-linecap="round" stroke-linejoin="round" stroke-miterlimit="10" d="
			M213.9,140.6l8.9-4.6c0,0,1.7-0.6,5.7-4.8c4.1-4.3,13.9-14.4,13.9-14.4"/>
		
			<line fill="none" stroke="#00335A" stroke-width="1.2778" stroke-linecap="round" stroke-linejoin="round" stroke-miterlimit="10" x1="224" y1="135.2" x2="293.2" y2="157"/>
		<polygon fill="#00335A" points="218.2,136.2 224.8,132.7 228.6,128.5 222.4,131.8 		"/>
		
			<line fill="none" stroke="#00335A" stroke-width="1.2778" stroke-linecap="round" stroke-linejoin="round" stroke-miterlimit="10" x1="306.1" y1="35.1" x2="298.6" y2="43.7"/>
		
			<line fill="none" stroke="#00335A" stroke-width="1.2778" stroke-linecap="round" stroke-linejoin="round" stroke-miterlimit="10" x1="318.1" y1="43.7" x2="299.3" y2="64.8"/>
		
			<line fill="none" stroke="#00335A" stroke-width="1.2778" stroke-linecap="round" stroke-linejoin="round" stroke-miterlimit="10" x1="332.7" y1="54.3" x2="300.7" y2="84.4"/>
		
			<line fill="none" stroke="#00335A" stroke-width="1.2778" stroke-linecap="round" stroke-linejoin="round" stroke-miterlimit="10" x1="347.4" y1="64.8" x2="306.4" y2="98.7"/>
		
			<line fill="none" stroke="#00335A" stroke-width="1.2778" stroke-linecap="round" stroke-linejoin="round" stroke-miterlimit="10" x1="363.7" y1="76.5" x2="318.1" y2="108.6"/>
		
			<line fill="none" stroke="#00335A" stroke-width="1.2778" stroke-linecap="round" stroke-linejoin="round" stroke-miterlimit="10" x1="381.9" y1="89.6" x2="331" y2="119.6"/>
		
			<line fill="none" stroke="#00335A" stroke-width="1.2778" stroke-linecap="round" stroke-linejoin="round" stroke-miterlimit="10" x1="399.5" y1="102.3" x2="343.6" y2="130.3"/>
		
			<line fill="none" stroke="#00335A" stroke-width="1.2778" stroke-linecap="round" stroke-linejoin="round" stroke-miterlimit="10" x1="416.7" y1="114.6" x2="356.7" y2="141.5"/>
		
			<line fill="none" stroke="#00335A" stroke-width="1.2778" stroke-linecap="round" stroke-linejoin="round" stroke-miterlimit="10" x1="426.5" y1="132.3" x2="371.5" y2="154.2"/>
		
			<line fill="none" stroke="#00335A" stroke-width="1.2778" stroke-linecap="round" stroke-linejoin="round" stroke-miterlimit="10" x1="424.4" y1="154.2" x2="386.7" y2="167"/>
		
			<line fill="none" stroke="#00335A" stroke-width="1.2778" stroke-linecap="round" stroke-linejoin="round" stroke-miterlimit="10" x1="421.9" y1="179.1" x2="405.1" y2="182.7"/>
		
			<line fill="none" stroke="#00335A" stroke-width="1.2778" stroke-linecap="round" stroke-linejoin="round" stroke-miterlimit="10" x1="177.4" y1="119.6" x2="172.3" y2="128"/>
		
			<line fill="none" stroke="#00335A" stroke-width="1.2778" stroke-linecap="round" stroke-linejoin="round" stroke-miterlimit="10" x1="190.5" y1="134.3" x2="178.3" y2="151.4"/>
		
			<line fill="none" stroke="#00335A" stroke-width="1.2778" stroke-linecap="round" stroke-linejoin="round" stroke-miterlimit="10" x1="183.3" y1="126.2" x2="174.8" y2="138"/>
		
			<line fill="none" stroke="#00335A" stroke-width="1.2778" stroke-linecap="round" stroke-linejoin="round" stroke-miterlimit="10" x1="199.5" y1="144.3" x2="186" y2="160.6"/>
		
			<line fill="none" stroke="#00335A" stroke-width="1.2778" stroke-linecap="round" stroke-linejoin="round" stroke-miterlimit="10" x1="209.8" y1="155.7" x2="195" y2="171.2"/>
		
			<line fill="none" stroke="#00335A" stroke-width="1.2778" stroke-linecap="round" stroke-linejoin="round" stroke-miterlimit="10" x1="219.9" y1="167" x2="204.8" y2="182.7"/>
		
			<line fill="none" stroke="#00335A" stroke-width="1.2778" stroke-linecap="round" stroke-linejoin="round" stroke-miterlimit="10" x1="230.8" y1="179.1" x2="213.9" y2="193.4"/>
		
			<line fill="none" stroke="#00335A" stroke-width="1.2778" stroke-linecap="round" stroke-linejoin="round" stroke-miterlimit="10" x1="250.3" y1="200.8" x2="230.8" y2="213.3"/>
		
			<line fill="none" stroke="#00335A" stroke-width="1.2778" stroke-linecap="round" stroke-linejoin="round" stroke-miterlimit="10" x1="256.2" y1="213.3" x2="240.5" y2="224.8"/>
		
			<line fill="none" stroke="#00335A" stroke-width="1.2778" stroke-linecap="round" stroke-linejoin="round" stroke-miterlimit="10" x1="258.6" y1="229.5" x2="248.4" y2="234.1"/>
		
			<line fill="none" stroke="#00335A" stroke-width="1.2778" stroke-linecap="round" stroke-linejoin="round" stroke-miterlimit="10" x1="221.9" y1="202.9" x2="239.6" y2="188.9"/>
	</g>
	<g>
	</g>
	<g>
	</g>
	<g>
	</g>
	<g>
	</g>
	<g>
	</g>
	<g>
	</g>
	<g>
	</g>
	<g>
	</g>
	<g>
	</g>
	<g>
	</g>
	<g>
	</g>
	<g>
	</g>
	<g>
	</g>
	<g>
	</g>
	<g>
	</g>
</g>
</svg>
