<?xml version="1.0" encoding="utf-8"?>
<!-- Generator: Adobe Illustrator 16.0.0, SVG Export Plug-In . SVG Version: 6.00 Build 0)  -->
<!DOCTYPE svg PUBLIC "-//W3C//DTD SVG 1.1//EN" "http://www.w3.org/Graphics/SVG/1.1/DTD/svg11.dtd">
<svg version="1.1" id="Capa_1" xmlns="http://www.w3.org/2000/svg" xmlns:xlink="http://www.w3.org/1999/xlink" x="0px" y="0px"
	 width="475px" height="455px" viewBox="0 0 475 455" enable-background="new 0 0 475 455" xml:space="preserve">
<g>
	<g>
		<g>
			<g>
				<path fill="#82B2AB" d="M194.237,408.728L194.237,408.728c-2.132,0.027-4.355-0.076-6.706-0.186
					c-1.972-0.094-4.06-0.192-6.311-0.224c-3.936-0.054-7.071-0.256-10.856-0.563c-11.353-0.918-22.864-2.15-33.993-3.343
					c-3.12-0.333-6.237-0.668-9.356-0.995c-8.983-0.944-18.127-1.774-26.974-2.579l-6.543-0.596
					c-10.437-0.955-21.399-2.561-30.875-7.788c-14.061-7.761-13.642-25.368-13.307-39.517c0.036-1.544,0.073-3.056,0.09-4.515
					c0.095-8.337,0.08-16.815,0.066-25.018l-0.032-28.993c-0.021-17.103-0.037-34.208-0.044-51.311
					c0-7.212,0.021-14.424,0.043-21.636c0.047-15.124,0.097-30.763-0.098-46.14c-0.009-6.485,0.016-12.963,0.041-19.438
					c0.042-11.421,0.085-23.228-0.061-34.835c-0.003-7.384-0.085-14.888-0.165-22.147c-0.15-13.763-0.303-27.996,0.073-41.981
					l0.02-0.753c0.187-6.488,1.091-15.85,6.753-22.169c5.125-5.718,13.151-8.568,24.539-8.712c6.28-0.08,12.626,0.642,18.229,1.276
					c1.468,0.167,2.881,0.328,4.221,0.464l5.941,0.617c5.472,0.569,10.95,1.138,16.429,1.652l7.559,0.759
					c19.744,1.981,40.158,4.028,60.144,6.879c6.512,0.928,11.72,3.079,15.932,6.573c5.194,4.314,8.37,10.488,9.183,17.855
					c0.889,7.907,0.837,16.02,0.787,23.867c-0.011,1.617-0.02,3.232-0.024,4.841c-0.001,7.173-0.057,14.368-0.111,21.569
					c-0.09,11.662-0.183,23.723-0.033,35.525l1.77,235.434c-0.489,12.223-6.067,20.65-16.146,24.412
					C201.383,408.148,198.244,408.678,194.237,408.728z M80.562,26.931c-10.923,0.138-18.566,2.813-23.376,8.182
					c-5.303,5.915-6.154,14.881-6.334,21.109l-0.019,0.748c-0.376,13.955-0.223,28.171-0.072,41.92
					c0.081,7.263,0.162,14.773,0.162,22.155c0.147,11.61,0.104,23.424,0.063,34.851c-0.024,6.474-0.048,12.946-0.041,19.419
					c0.195,15.381,0.146,31.026,0.099,46.159c-0.023,7.208-0.044,14.418-0.042,21.629c0.004,17.103,0.022,34.208,0.042,51.311
					l0.032,28.991c0.015,8.207,0.031,16.692-0.068,25.04c-0.016,1.466-0.052,2.982-0.086,4.534
					c-0.342,14.413-0.732,30.75,12.467,38.033c8.704,4.803,18.39,6.51,30.253,7.595l6.541,0.598c8.851,0.805,18.002,1.637,27,2.579
					c3.117,0.33,6.235,0.662,9.355,0.997c11.12,1.19,22.62,2.421,33.954,3.34c3.754,0.305,6.862,0.504,10.75,0.558
					c2.271,0.033,4.375,0.132,6.364,0.224c2.329,0.111,4.525,0.214,6.612,0.188c3.816-0.049,6.794-0.548,9.657-1.615
					c9.419-3.517,14.636-11.434,15.093-22.899l-1.772-235.39c-0.15-11.815-0.056-23.884,0.032-35.555
					c0.059-7.197,0.109-14.388,0.113-21.557c0.004-1.615,0.013-3.232,0.025-4.851c0.047-7.799,0.099-15.861-0.777-23.67
					c-0.764-6.932-3.738-12.728-8.601-16.766c-4.031-3.347-8.844-5.324-15.141-6.222c-19.954-2.846-40.352-4.892-60.079-6.87
					l-7.559-0.76c-5.477-0.514-10.956-1.084-16.437-1.654l-5.934-0.615c-1.35-0.138-2.768-0.299-4.244-0.467
					C93.04,27.567,86.744,26.853,80.562,26.931z"/>
			</g>
			<path fill="#82B2AB" d="M77.264,25.982l78.178,7.161l38.647,5.218c0,0,13.371,1.728,18.926,11.32
				c5.555,9.592,4.168,11.692,4.422,15.034c0.253,3.341,0.354,5.748,0.354,5.748l0.264,33.076v52.354v78.177l0.952,66.806
				l0.199,39.977l0.442,32.239c0,0,0.793,17.786-4.172,23.726c-4.965,5.938-6.179,10.068-17.989,10.793
				c-11.811,0.727-37.622-1.619-37.622-1.619l-41.929-4.479l-35.678-3.396c0,0-14.833-1.309-21.188-7.495
				c-6.354-6.188-2.606,0.447-5.596-5.896c-2.99-6.344-5.417-7.793-5.197-23.886c0.22-16.093,0.56-79.544,0.56-79.544V180.479
				L49.85,90.497V51.715c0,0,2.793-10.205,4.394-12.901c1.6-2.695,4.376-6.551,8.279-8.438
				C66.422,28.49,77.264,25.982,77.264,25.982z"/>
		</g>
		<g>
			<path fill="#1E3557" d="M194.237,408.728L194.237,408.728c-2.132,0.027-4.355-0.076-6.706-0.186
				c-1.972-0.094-4.06-0.192-6.311-0.224c-3.936-0.054-7.071-0.256-10.856-0.563c-11.353-0.918-22.864-2.15-33.993-3.343
				c-3.12-0.333-6.237-0.668-9.356-0.995c-8.983-0.944-18.127-1.774-26.974-2.579l-6.543-0.596
				c-10.437-0.955-21.399-2.561-30.875-7.788c-14.061-7.761-13.642-25.368-13.307-39.517c0.036-1.544,0.073-3.056,0.09-4.515
				c0.095-8.337,0.08-16.815,0.066-25.018l-0.032-28.993c-0.021-17.103-0.037-34.208-0.044-51.311
				c0-7.212,0.021-14.424,0.043-21.636c0.047-15.124,0.097-30.763-0.098-46.14c-0.009-6.485,0.016-12.963,0.041-19.438
				c0.042-11.421,0.085-23.228-0.061-34.835c-0.003-7.384-0.085-14.888-0.165-22.147c-0.15-13.763-0.303-27.996,0.073-41.981
				l0.02-0.753c0.187-6.488,1.091-15.85,6.753-22.169c5.125-5.718,13.151-8.568,24.539-8.712c6.28-0.08,12.626,0.642,18.229,1.276
				c1.468,0.167,2.881,0.328,4.221,0.464l5.941,0.617c5.472,0.569,10.95,1.138,16.429,1.652l7.559,0.759
				c19.744,1.981,40.158,4.028,60.144,6.879c6.512,0.928,11.72,3.079,15.932,6.573c5.194,4.314,8.37,10.488,9.183,17.855
				c0.889,7.907,0.837,16.02,0.787,23.867c-0.011,1.617-0.02,3.232-0.024,4.841c-0.001,7.173-0.057,14.368-0.111,21.569
				c-0.09,11.662-0.183,23.723-0.033,35.525l1.77,235.434c-0.489,12.223-6.067,20.65-16.146,24.412
				C201.383,408.148,198.244,408.678,194.237,408.728z M80.562,26.931c-10.923,0.138-18.566,2.813-23.376,8.182
				c-5.303,5.915-6.154,14.881-6.334,21.109l-0.019,0.748c-0.376,13.955-0.223,28.171-0.072,41.92
				c0.081,7.263,0.162,14.773,0.162,22.155c0.147,11.61,0.104,23.424,0.063,34.851c-0.024,6.474-0.048,12.946-0.041,19.419
				c0.195,15.381,0.146,31.026,0.099,46.159c-0.023,7.208-0.044,14.418-0.042,21.629c0.004,17.103,0.022,34.208,0.042,51.311
				l0.032,28.991c0.015,8.207,0.031,16.692-0.068,25.04c-0.016,1.466-0.052,2.982-0.086,4.534
				c-0.342,14.413-0.732,30.75,12.467,38.033c8.704,4.803,18.39,6.51,30.253,7.595l6.541,0.598c8.851,0.805,18.002,1.637,27,2.579
				c3.117,0.33,6.235,0.662,9.355,0.997c11.12,1.19,22.62,2.421,33.954,3.34c3.754,0.305,6.862,0.504,10.75,0.558
				c2.271,0.033,4.375,0.132,6.364,0.224c2.329,0.111,4.525,0.214,6.612,0.188c3.816-0.049,6.794-0.548,9.657-1.615
				c9.419-3.517,14.636-11.434,15.093-22.899l-1.772-235.39c-0.15-11.815-0.056-23.884,0.032-35.555
				c0.059-7.197,0.109-14.388,0.113-21.557c0.004-1.615,0.013-3.232,0.025-4.851c0.047-7.799,0.099-15.861-0.777-23.67
				c-0.764-6.932-3.738-12.728-8.601-16.766c-4.031-3.347-8.844-5.324-15.141-6.222c-19.954-2.846-40.352-4.892-60.079-6.87
				l-7.559-0.76c-5.477-0.514-10.956-1.084-16.437-1.654l-5.934-0.615c-1.35-0.138-2.768-0.299-4.244-0.467
				C93.04,27.567,86.744,26.853,80.562,26.931z"/>
		</g>
		<path fill="none" stroke="#1E3557" stroke-miterlimit="10" d="M211.125,370.896c-0.104-4.469-0.217-8.937-0.329-13.405
			c-0.356-14.077-0.725-28.632-0.741-42.961c-0.016-9.683-0.044-19.366-0.074-29.05l-0.14-49.414
			c0.001-1.338,0.233-134.045,0.456-159.346c0.052-6.041-1.072-16.981-9.187-22.381c-6.149-4.094-14.092-4.795-20.472-5.36
			c-4.162-0.367-8.265-0.851-12.23-1.319c-4.059-0.478-8.253-0.974-12.629-1.361l-0.406-0.037l-4.885,5.292l-44.909-4.024
			l-3.16-5.37c-0.253-0.43-0.471-0.799-7.063-1.335c-4.243-0.356-8.134-0.702-12.063-1.051c-3.444-0.307-6.917-0.615-10.684-0.935
			c-0.679-0.058-1.394-0.13-2.131-0.204c-2.132-0.215-4.55-0.459-6.915-0.429c-6.336,0.08-10.404,2.256-12.434,6.654
			c-2.153,4.663-2.117,9.925-2.083,15.013c0.012,1.602,0.021,3.186-0.038,4.723c-0.354,9.086-0.27,18.377-0.189,27.363
			c0.03,3.266,0.059,6.528,0.069,9.78c0.015,5.529-0.011,11.057-0.038,16.586l-0.032,7.2c0.007,2.026,0.641,202.883,0.471,232.263
			c-0.038,6.411,0.311,14.739,3.354,22.303c3.04,7.559,10.096,8.59,16.919,9.586l0.851,0.125c7.604,1.125,15.399,2.146,23.828,3.121
			c7.177,0.83,14.335,1.619,21.278,2.342l5.462,0.574c7.044,0.741,14.332,1.509,21.52,2.097c2.945,0.241,5.895,0.487,8.845,0.735
			c12.289,1.027,24.992,2.09,37.478,2.688c0.836,0.04,1.673,0.056,2.512,0.045c11.635-0.148,18.53-5.385,19.416-14.747
			C211.275,381.139,211.236,375.592,211.125,370.896z M209.109,386.503c-1.019,10.778-10.238,13.155-17.793,13.25
			c-0.804,0.011-1.608-0.005-2.413-0.043c-12.454-0.597-25.146-1.657-37.419-2.685c-2.95-0.248-5.901-0.494-8.848-0.733
			c-7.168-0.588-14.444-1.354-21.481-2.096l-5.465-0.573c-6.935-0.722-14.087-1.508-21.259-2.339
			c-8.411-0.976-16.188-1.993-23.776-3.116l-0.853-0.124c-6.655-0.973-12.941-1.892-15.628-8.567
			c-2.935-7.297-3.271-15.417-3.234-21.678c0.169-29.388-0.464-230.251-0.47-232.272l0.031-7.193
			c0.027-5.532,0.054-11.066,0.038-16.598c-0.011-3.257-0.039-6.521-0.068-9.791c-0.082-8.966-0.167-18.238,0.186-27.284
			c0.064-1.562,0.052-3.171,0.041-4.799c-0.033-4.908-0.066-9.982,1.931-14.31c1.761-3.813,5.242-5.624,10.957-5.696
			c2.272-0.029,4.64,0.21,6.728,0.421c0.747,0.075,1.47,0.148,2.157,0.206c3.764,0.32,7.235,0.628,10.675,0.935
			c3.935,0.349,7.829,0.695,12.207,1.062c4.16,0.338,5.409,0.608,5.756,0.71l3.477,5.908l46.563,4.171l4.888-5.291
			c4.207,0.38,8.257,0.858,12.178,1.32c3.977,0.47,8.091,0.954,12.276,1.325c6.195,0.547,13.904,1.229,19.705,5.088
			c7.467,4.969,8.5,15.285,8.45,20.992c-0.224,25.308-0.454,158.018-0.456,159.361l0.139,49.417
			c0.03,9.683,0.059,19.366,0.074,29.048c0.018,14.35,0.387,28.915,0.742,43.001c0.114,4.467,0.229,8.933,0.331,13.403
			C209.582,375.582,209.625,381.067,209.109,386.503z"/>
		<g>
			<path fill="#1E3557" d="M214.583,180.95h-0.024c-1.064-0.011-1.94-1.593-1.954-3.527l-0.41-66.452
				c-0.013-1.911,0.834-3.478,1.888-3.491c1.086,0.01,1.963,1.591,1.975,3.525l0.413,66.453
				C216.48,179.369,215.636,180.936,214.583,180.95z M214.116,109.131c-0.571,0.007-1.02,0.836-1.012,1.847l0.412,66.452
				c0.006,1.024,0.47,1.863,1.034,1.869l0.023,0.825l-0.01-0.825c0.557-0.007,1.004-0.837,0.999-1.849l-0.414-66.451
				C215.143,109.974,214.68,109.136,214.116,109.131z"/>
		</g>
		<g>
			<path fill="#1E3557" d="M193.323,46.859l-0.173-0.009l-24.808-2.843c-0.388-0.043-0.738-0.246-1.01-0.584
				c-0.419-0.528-0.612-1.371-0.509-2.252c0.156-1.393,0.977-2.413,1.947-2.426l0.169,0.009l24.813,2.841
				c0.392,0.044,0.742,0.249,1.01,0.589c0.419,0.529,0.61,1.369,0.508,2.248C195.113,45.824,194.294,46.846,193.323,46.859z
				 M168.756,40.394c0.031,0.03-0.225,0.355-0.293,0.963c-0.069,0.609,0.105,0.987,0.173,1.048l24.619,2.794
				c0.101-0.092,0.313-0.412,0.375-0.957c0.07-0.61-0.103-0.986-0.171-1.048L168.756,40.394z"/>
		</g>
		<g>
			<path fill="#1E3557" d="M191.456,64.483c-2.048,0.026-3.735-1.619-3.761-3.667c-0.026-2.049,1.62-3.736,3.667-3.762
				c2.047-0.026,3.736,1.619,3.761,3.667C195.15,62.77,193.503,64.457,191.456,64.483z M191.383,58.705
				c-1.139,0.014-2.052,0.952-2.038,2.09c0.016,1.139,0.952,2.052,2.091,2.038c1.138-0.015,2.052-0.952,2.037-2.091
				C193.458,59.604,192.521,58.69,191.383,58.705z"/>
		</g>
		<g>
			<path fill="#1E3557" d="M180.809,63.208c-1.345,0.017-2.453-1.063-2.47-2.408c-0.018-1.346,1.063-2.454,2.409-2.471
				c1.344-0.018,2.453,1.063,2.47,2.408C183.234,62.083,182.154,63.191,180.809,63.208z M180.76,59.413
				c-0.748,0.01-1.348,0.625-1.338,1.372c0.011,0.749,0.626,1.348,1.373,1.339s1.348-0.625,1.339-1.373
				C182.124,60.004,181.509,59.404,180.76,59.413z"/>
		</g>
		<g>
			<path fill="#BD475A" d="M223.408,50.964h-19.174c-0.331,0-0.597,0.266-0.597,0.594v6.43l-4.936,2.633
				c-0.186,0.098-0.306,0.285-0.317,0.499c-0.01,0.208,0.091,0.407,0.266,0.523l4.986,3.341v5.751c0,0.281,0.196,0.524,0.471,0.584
				l19.175,4.119c0.042,0.009,0.083,0.014,0.125,0.014c0.135,0,0.268-0.047,0.375-0.133c0.139-0.114,0.222-0.284,0.222-0.463V51.558
				C224.004,51.23,223.737,50.964,223.408,50.964z"/>
			<path fill="#FFFFFF" d="M216.705,59.97c0,0.639-0.179,1.162-0.537,1.567c-0.359,0.406-0.867,0.679-1.524,0.814v0.056
				c0.804,0.1,1.4,0.356,1.787,0.767c0.388,0.411,0.583,0.949,0.583,1.616c0,0.954-0.332,1.687-0.994,2.201
				c-0.662,0.513-1.602,0.77-2.821,0.77c-0.529,0-1.014-0.04-1.455-0.12c-0.439-0.08-0.868-0.221-1.284-0.421v-1.082
				c0.435,0.215,0.896,0.377,1.387,0.489c0.491,0.112,0.955,0.168,1.394,0.168c1.73,0,2.595-0.678,2.595-2.034
				c0-1.214-0.954-1.821-2.862-1.821h-0.985v-0.979h0.999c0.781,0,1.399-0.172,1.856-0.517c0.456-0.345,0.685-0.823,0.685-1.434
				c0-0.489-0.167-0.872-0.504-1.15c-0.334-0.279-0.791-0.418-1.365-0.418c-0.438,0-0.851,0.06-1.24,0.178
				c-0.388,0.119-0.83,0.338-1.328,0.658l-0.575-0.767c0.411-0.324,0.884-0.579,1.42-0.763c0.537-0.186,1.101-0.278,1.694-0.278
				c0.972,0,1.727,0.223,2.267,0.667C216.437,58.583,216.705,59.194,216.705,59.97z"/>
		</g>
		<g>
			<path fill="#BD475A" d="M172.091,13.859v19.174c0,0.331,0.266,0.598,0.595,0.598h6.429l2.634,4.935
				c0.097,0.186,0.285,0.306,0.497,0.316c0.208,0.011,0.408-0.09,0.523-0.265l3.343-4.986h5.75c0.28,0,0.523-0.196,0.583-0.472
				l4.12-19.174c0.01-0.042,0.014-0.084,0.014-0.126c0-0.135-0.047-0.268-0.134-0.374c-0.114-0.14-0.284-0.222-0.462-0.222h-23.298
				C172.357,13.263,172.091,13.529,172.091,13.859z"/>
			<path fill="#FFFFFF" d="M186.208,28.632h-6.579v-0.979l2.636-2.649c0.802-0.813,1.332-1.392,1.587-1.739
				c0.256-0.347,0.448-0.684,0.575-1.014c0.128-0.328,0.192-0.682,0.192-1.061c0-0.534-0.162-0.957-0.485-1.27
				c-0.324-0.313-0.774-0.469-1.35-0.469c-0.415,0-0.808,0.068-1.181,0.206c-0.371,0.137-0.786,0.385-1.243,0.746l-0.601-0.773
				c0.921-0.767,1.925-1.15,3.012-1.15c0.939,0,1.677,0.241,2.21,0.722c0.535,0.482,0.801,1.129,0.801,1.941
				c0,0.634-0.178,1.262-0.534,1.883c-0.355,0.621-1.022,1.406-1.999,2.355l-2.19,2.143v0.055h5.147V28.632z"/>
		</g>
		<g>
			<path fill="#1E3557" d="M92.277,35.822l-0.079,0c-2.772,0.015-4.869-1.14-4.876-2.688c-0.007-1.55,2.004-2.699,4.779-2.735
				c1.864-0.01,3.494,0.496,4.321,1.317c0.407,0.403,0.622,0.877,0.625,1.372C97.053,34.636,95.047,35.787,92.277,35.822z
				 M92.178,31.916c-2.096,0.027-3.341,0.8-3.34,1.212c0.001,0.42,1.277,1.188,3.352,1.178l0.078,0.757l-0.01-0.758
				c2.032-0.026,3.272-0.798,3.271-1.212c0.001-0.111-0.109-0.236-0.174-0.3C94.907,32.351,93.751,31.907,92.178,31.916
				L92.178,31.916z"/>
		</g>
		<path fill="#1E3557" d="M209.475,370.936c-0.102-4.471-0.217-8.937-0.331-13.403c-0.356-14.086-0.725-28.651-0.742-43.001
			c-0.015-9.682-0.044-19.365-0.074-29.048l-0.14-49.417c0.002-1.343,0.233-134.053,0.457-159.361
			c0.049-5.707-0.983-16.023-8.45-20.992c-5.8-3.86-13.509-4.542-19.705-5.088c-4.185-0.371-8.299-0.855-12.276-1.325
			c-3.922-0.462-7.972-0.94-12.18-1.32l-4.886,5.291l-46.563-4.171l-3.477-5.908c-0.347-0.102-1.596-0.372-5.756-0.71
			c-4.378-0.366-8.274-0.712-12.208-1.062c-3.44-0.306-6.911-0.614-10.675-0.935c-0.688-0.058-1.41-0.131-2.157-0.206
			c-2.088-0.211-4.456-0.45-6.728-0.421c-5.715,0.072-9.196,1.883-10.957,5.696c-1.998,4.328-1.964,9.402-1.931,14.31
			c0.012,1.628,0.023,3.237-0.041,4.799c-0.352,9.046-0.267,18.318-0.186,27.284c0.028,3.269,0.057,6.534,0.068,9.791
			c0.016,5.532-0.011,11.066-0.039,16.598l-0.03,7.193c0.006,2.021,0.639,202.884,0.47,232.272
			c-0.037,6.261,0.299,14.381,3.234,21.678c2.688,6.676,8.974,7.595,15.628,8.567l0.853,0.124
			c7.588,1.123,15.366,2.141,23.775,3.116c7.171,0.831,14.324,1.617,21.26,2.339l5.464,0.573c7.039,0.742,14.314,1.508,21.482,2.096
			c2.945,0.239,5.898,0.485,8.848,0.733c12.273,1.027,24.965,2.088,37.419,2.685c0.804,0.038,1.609,0.054,2.413,0.043
			c7.553-0.095,16.773-2.472,17.793-13.25C209.625,381.067,209.582,375.582,209.475,370.936z M202.057,81.19l-0.213,283.677
			L53.668,348.057l0-0.736l0.212-281.601l148.177,14.723L202.057,81.19z"/>
		<g>
			<path fill="#BD475A" d="M224.439,185.926v-19.175c0-0.331-0.266-0.598-0.595-0.598h-6.43l-2.633-4.936
				c-0.097-0.185-0.285-0.305-0.499-0.315c-0.207-0.011-0.407,0.09-0.522,0.266l-3.342,4.986h-5.751c-0.28,0-0.523,0.196-0.584,0.47
				l-4.118,19.176c-0.01,0.042-0.015,0.084-0.015,0.126c0,0.133,0.048,0.267,0.133,0.374c0.114,0.139,0.284,0.222,0.463,0.222
				h23.298C224.173,186.522,224.439,186.255,224.439,185.926z"/>
			<path fill="#FFFFFF" d="M213.752,176.579c1.054,0,1.884,0.26,2.489,0.783c0.604,0.523,0.908,1.237,0.908,2.146
				c0,1.037-0.331,1.85-0.99,2.437c-0.66,0.589-1.569,0.886-2.729,0.886c-1.126,0-1.987-0.182-2.58-0.542v-1.095
				c0.32,0.205,0.716,0.366,1.192,0.483c0.474,0.116,0.942,0.173,1.402,0.173c0.804,0,1.427-0.189,1.874-0.568
				c0.445-0.378,0.667-0.926,0.667-1.642c0-1.398-0.856-2.095-2.567-2.095c-0.434,0-1.014,0.066-1.74,0.197l-0.588-0.376
				l0.377-4.683h4.977v1.049h-4.005l-0.253,3.003C212.711,176.633,213.232,176.579,213.752,176.579z"/>
		</g>
		<g>
			<path fill="#BD475A" d="M190.582,90.92V71.746c0-0.331-0.265-0.597-0.593-0.597h-6.431l-2.633-4.936
				c-0.098-0.186-0.286-0.306-0.498-0.316c-0.208-0.01-0.409,0.091-0.524,0.266l-3.341,4.986h-5.752
				c-0.281,0-0.523,0.196-0.583,0.47l-4.119,19.175c-0.009,0.042-0.014,0.084-0.014,0.126c0,0.135,0.046,0.268,0.132,0.374
				c0.114,0.141,0.286,0.222,0.463,0.222h23.3C190.317,91.517,190.582,91.25,190.582,90.92z"/>
			<path fill="#FFFFFF" d="M182.058,83.956h-1.485v2.3h-1.088v-2.3h-4.868v-0.993l4.751-6.771h1.205v6.73h1.485V83.956z
				 M179.484,82.922v-3.328c0-0.653,0.022-1.389,0.068-2.211h-0.054c-0.219,0.438-0.425,0.801-0.616,1.088l-3.129,4.451H179.484z"/>
		</g>
		<g>
			<path fill="#BD475A" d="M139.515,74.167V54.992c0-0.331-0.266-0.598-0.595-0.598h-6.43l-2.633-4.936
				c-0.098-0.185-0.286-0.305-0.499-0.315c-0.208-0.011-0.408,0.09-0.523,0.265l-3.341,4.986h-5.752
				c-0.28,0-0.524,0.196-0.583,0.471L115.04,74.04c-0.009,0.042-0.014,0.084-0.014,0.126c0,0.135,0.046,0.268,0.132,0.374
				c0.114,0.14,0.285,0.222,0.464,0.222h23.298C139.249,74.762,139.515,74.496,139.515,74.167z"/>
			<path fill="#FFFFFF" d="M129.074,69.474h-1.109V62.34c0-0.593,0.019-1.154,0.055-1.683c-0.095,0.096-0.204,0.196-0.321,0.301
				c-0.119,0.105-0.662,0.549-1.629,1.335l-0.603-0.781l2.65-2.046h0.958V69.474z"/>
		</g>
		<g>
			<g>
				<g>
					<path fill="#82B2AB" d="M141.028,379.146l-22.222-1.768l0.542-6.796l11.451-3.402l10.769,5.174L141.028,379.146z
						 M120.499,376.093l19.06,1.517l0.355-4.454l-9.237-4.438l-9.823,2.92L120.499,376.093z"/>
				</g>
			</g>
		</g>
		<g>
			<path fill="#82B2AB" d="M83.394,373.829l-7.899-0.495c-0.68-0.049-1.2-0.568-1.155-1.165c0.045-0.593,0.634-1.034,1.314-0.984
				l7.726,0.49c0.201-0.029,2.092-0.242,2.231-2.137c0.142-1.89-1.615-2.385-1.972-2.465l-9.267-0.672
				c0.007,0.005,0.002,0.022,0.002,0.022l-0.149-0.006h-0.007l-0.107,1.42l-5.808-3.101l6.213-1.948l-0.12,1.436l0.003,0.001
				l0.122,0.007v0.018l9.466,0.704c1.635,0.316,4.33,1.685,4.099,4.768C87.859,372.805,84.916,373.753,83.394,373.829z"/>
		</g>
		<g>
			<g>
				<path fill="#82B2AB" d="M184.458,384.919l-9.955-0.82c-0.967-0.079-1.706-0.669-1.654-1.302
					c0.053-0.638,0.877-1.092,1.847-1.012l9.951,0.818c0.963,0.079,1.701,0.663,1.651,1.3
					C186.245,384.535,185.42,384.998,184.458,384.919z"/>
			</g>
			<g>
				<path fill="#82B2AB" d="M173.137,379.336c0.05-0.64,0.875-1.092,1.843-1.012l9.946,0.819c0.963,0.08,1.708,0.66,1.653,1.3
					c-0.054,0.636-0.879,1.085-1.844,1.005l-9.945-0.817C173.822,380.551,173.084,379.972,173.137,379.336z"/>
			</g>
			<g>
				<path fill="#82B2AB" d="M185.155,377.838l-9.949-0.819c-0.966-0.078-1.708-0.658-1.656-1.295c0.055-0.64,0.881-1.088,1.844-1.01
					l9.948,0.817c0.969,0.08,1.708,0.659,1.657,1.3C186.944,377.468,186.119,377.916,185.155,377.838z"/>
			</g>
		</g>
		<g>
			<path fill="#82B2AB" d="M128.48,394.813c-1.544,0.019-2.818-1.222-2.837-2.768c-0.02-1.545,1.222-2.817,2.767-2.838
				c1.543-0.019,2.815,1.222,2.835,2.767C131.265,393.519,130.024,394.793,128.48,394.813z M128.43,390.86
				c-0.634,0.009-1.144,0.53-1.136,1.164c0.008,0.637,0.53,1.146,1.166,1.138c0.634-0.008,1.143-0.531,1.135-1.167
				C129.585,391.361,129.064,390.852,128.43,390.86z"/>
		</g>
		<g>
			<path fill="#BD475A" d="M138.371,418.101v-19.175c0-0.329-0.265-0.596-0.594-0.596h-6.43l-2.633-4.937
				c-0.097-0.186-0.285-0.305-0.499-0.316c-0.206-0.011-0.407,0.092-0.523,0.267l-3.341,4.986H118.6c-0.28,0-0.523,0.196-0.583,0.47
				l-4.119,19.176c-0.009,0.042-0.013,0.084-0.013,0.125c0,0.136,0.045,0.269,0.132,0.374c0.114,0.141,0.284,0.223,0.464,0.223
				h23.297C138.106,418.697,138.371,418.432,138.371,418.101z"/>
			<path fill="#FFFFFF" d="M123.94,409.582c0-1.967,0.383-3.438,1.147-4.413c0.764-0.972,1.895-1.461,3.392-1.461
				c0.515,0,0.922,0.044,1.218,0.13v0.979c-0.352-0.114-0.754-0.172-1.205-0.172c-1.074,0-1.891,0.335-2.458,1.004
				c-0.566,0.669-0.876,1.72-0.931,3.152h0.082c0.502-0.786,1.295-1.179,2.382-1.179c0.899,0,1.608,0.274,2.126,0.816
				c0.518,0.543,0.776,1.279,0.776,2.21c0,1.042-0.284,1.858-0.853,2.456c-0.567,0.595-1.336,0.893-2.304,0.893
				c-1.036,0-1.856-0.39-2.464-1.166C124.244,412.052,123.94,410.971,123.94,409.582z M127.301,413.033
				c0.649,0,1.151-0.205,1.51-0.612c0.358-0.409,0.538-0.998,0.538-1.771c0-0.662-0.167-1.182-0.5-1.56
				c-0.333-0.378-0.831-0.568-1.493-0.568c-0.411,0-0.787,0.085-1.13,0.253c-0.341,0.17-0.615,0.4-0.816,0.698
				c-0.205,0.297-0.306,0.605-0.306,0.924c0,0.47,0.091,0.908,0.274,1.313c0.182,0.407,0.441,0.73,0.777,0.968
				C126.491,412.915,126.873,413.033,127.301,413.033z"/>
		</g>
	</g>
	<g>
		<g>
			<g>
				<path fill="#82B2AB" d="M392.556,423.893c-2.191,0.028-4.379-0.062-6.497-0.267c-3.966-0.364-96.255-8.837-113.591-13.659
					c-18.132-5.037-16.79-33.758-16.725-34.978c-0.001,0.022-1.016-205.88-1.016-206.095c-0.016-3.124-0.078-6.248-0.139-9.37
					c-0.038-1.945-0.076-3.89-0.104-5.836l-0.163-10.845c-0.271-18.039-0.556-36.691-0.595-55.04
					c-0.007-2.522-0.062-5.071-0.117-7.631c-0.146-6.753-0.298-13.737,0.465-20.472c2.315-20.453,18.518-23.02,30.507-23.172
					c2.61-0.033,5.447,0.055,8.67,0.27c6.661,0.442,13.33,0.825,19.996,1.208c5.525,0.318,11.052,0.635,16.573,0.986
					c23.432,1.489,51.211,3.521,79.583,7.301c24.183,3.224,23.762,28.144,23.456,46.339c-0.04,2.277-0.075,4.469-0.065,6.527
					l0.571,116.009c0.086,7.056,2.08,173.133-0.503,188.429c-0.443,2.631-1.567,5.234-3.251,7.523
					c-5.035,6.832-14.256,9.021-21.664,10.779l-0.282,0.067C402.542,423.185,397.46,423.831,392.556,423.893z M256.378,168.885
					c0,0.003,0.005,1.066,1.015,206.144c-0.017,0.334-1.336,28.663,15.516,33.348c17.195,4.78,109.341,13.242,113.256,13.601
					c6.855,0.662,13.885,0.099,21.12-1.616l0.283-0.066c7.518-1.785,16.04-3.808,20.714-10.151c1.532-2.083,2.554-4.442,2.953-6.822
					c2.56-15.149,0.502-186.411,0.48-188.139l-0.572-116.015c-0.009-2.069,0.027-4.273,0.065-6.563
					c0.314-18.555,0.703-41.646-22.021-44.675c-28.322-3.773-56.065-5.802-79.47-7.29c-5.52-0.351-11.041-0.668-16.562-0.985
					c-6.673-0.384-13.346-0.767-20.012-1.209c-3.18-0.211-5.974-0.298-8.541-0.266c-18.306,0.232-27.213,6.927-28.887,21.707
					c-0.749,6.625-0.6,13.551-0.456,20.25c0.058,2.569,0.112,5.129,0.118,7.663c0.04,18.339,0.323,36.986,0.597,55.019l0.162,10.848
					c0.027,1.941,0.065,3.884,0.102,5.826C256.299,162.622,256.361,165.753,256.378,168.885z"/>
			</g>
			<path fill="#82B2AB" d="M259.256,47.215c0,0,6.325-10.045,25.397-9.605c19.374,0.446,99.761,6.801,100.46,6.874
				s30.393,0.368,37.939,9.108c7.546,8.741,8.307,13.135,8.222,34.205c-0.084,21.069,0.907,175.308,0.907,175.308l1.041,91.613
				l-1.441,41.746c0,0,3.917,16.269-14.477,21.752c-7.932,2.366-10.8,2.964-15.919,3.714c-4.783,0.702-11.524,1.688-26.354,0.207
				c-30.702-3.066-93.566-11.35-93.566-11.35s-13.301-0.693-18.571-9.02c-5.27-8.328-5.858-16.757-6.014-23.171
				c-0.154-6.415-0.082-124.463-0.082-124.463l-2.916-143.72c0,0,1.085-51.342,1.87-54.373
				C256.536,53.011,259.256,47.215,259.256,47.215z"/>
		</g>
		<g>
			<path fill="#BD475A" d="M399.844,75.422V56.248c0-0.332-0.266-0.598-0.595-0.598h-6.43l-2.633-4.936
				c-0.099-0.186-0.287-0.306-0.499-0.316c-0.207-0.011-0.407,0.09-0.523,0.266l-3.342,4.986h-5.752
				c-0.279,0-0.523,0.196-0.582,0.471l-4.12,19.175c-0.009,0.042-0.014,0.084-0.014,0.126c0,0.135,0.047,0.267,0.133,0.374
				c0.113,0.14,0.285,0.222,0.464,0.222h23.298C399.578,76.018,399.844,75.752,399.844,75.422z"/>
			<path fill="#FFFFFF" d="M387.288,71.179l4.148-8.962h-5.457V61.17h6.661v0.911l-4.094,9.098H387.288z"/>
		</g>
		<g>
			<path fill="#BD475A" d="M344.508,189.97v-19.174c0-0.331-0.265-0.596-0.595-0.596h-6.43l-2.634-4.937
				c-0.097-0.186-0.286-0.305-0.497-0.317c-0.208-0.009-0.408,0.092-0.523,0.267l-3.343,4.987h-5.751
				c-0.279,0-0.524,0.196-0.583,0.47l-4.119,19.176c-0.011,0.042-0.015,0.083-0.015,0.125c0,0.135,0.046,0.267,0.134,0.375
				c0.112,0.14,0.284,0.222,0.463,0.222h23.298C344.243,190.566,344.508,190.299,344.508,189.97z"/>
			<g>
				<g>
					<path fill="#FFFFFF" d="M331.771,185.89h-1.11v-7.132c0-0.592,0.018-1.154,0.055-1.685c-0.095,0.097-0.202,0.196-0.32,0.302
						c-0.12,0.104-0.662,0.549-1.63,1.334l-0.603-0.78l2.649-2.047h0.959V185.89z"/>
				</g>
				<path fill="#FFFFFF" d="M337.631,185.89h-1.11v-7.132c0-0.592,0.019-1.154,0.055-1.685c-0.095,0.097-0.202,0.196-0.32,0.302
					c-0.12,0.104-0.662,0.549-1.63,1.334l-0.603-0.78l2.65-2.047h0.958V185.89z"/>
			</g>
		</g>
		<g>
			<g>
				<path fill="#1E3557" d="M311.037,43.325l-0.106,0l-15.463-0.949c-0.242-0.015-0.467-0.129-0.643-0.331
					c-0.278-0.313-0.424-0.828-0.388-1.378c0.049-0.867,0.522-1.527,1.123-1.566h0.106l15.471,0.949
					c0.241,0.014,0.463,0.129,0.642,0.333c0.278,0.313,0.42,0.828,0.388,1.375C312.115,42.625,311.641,43.285,311.037,43.325z
					 M295.607,40.123c0.021,0.017-0.129,0.227-0.149,0.606c-0.024,0.381,0.097,0.608,0.14,0.644l15.344,0.925
					c0.062-0.06,0.181-0.264,0.202-0.604c0.024-0.381-0.095-0.607-0.141-0.645L295.607,40.123z"/>
			</g>
		</g>
		<g>
			<g>
				<path fill="#1E3557" d="M335.062,163.684c-1.534,0.008-2.788-1.235-2.798-2.769c-0.007-1.533,1.238-2.788,2.77-2.795
					c1.535-0.007,2.786,1.233,2.793,2.766C337.834,162.421,336.595,163.677,335.062,163.684z M335.041,159.759
					c-0.632,0.002-1.142,0.518-1.137,1.147c0.003,0.63,0.518,1.142,1.148,1.138c0.629-0.003,1.14-0.52,1.135-1.149
					C336.187,160.265,335.67,159.756,335.041,159.759z"/>
			</g>
		</g>
		<g>
			<path fill="#1E3557" d="M392.508,423.145C392.507,423.145,392.508,423.145,392.508,423.145
				c-7.428,0.094-13.452-0.668-13.514-0.675c-3.69-0.347-91.265-8.628-107.971-13.427c-17.26-4.959-15.987-33.168-15.927-34.366
				c0-0.003-0.993-202.174-0.993-202.398c-0.016-3.05-0.076-6.103-0.135-9.153c-0.038-1.927-0.074-3.852-0.102-5.778l-0.154-10.506
				c-0.263-17.763-0.533-36.13-0.578-54.197c-0.005-2.5-0.058-5.025-0.111-7.56c-0.137-6.61-0.281-13.445,0.439-20.036
				c2.2-20.106,17.638-22.624,29.059-22.769c2.48-0.031,5.171,0.055,8.229,0.265c6.334,0.436,12.673,0.814,19.014,1.191
				c5.249,0.313,10.499,0.625,15.747,0.971c22.266,1.466,48.666,3.464,75.654,7.183c23.015,3.173,22.623,27.65,22.335,45.521
				c-0.035,2.238-0.069,4.393-0.061,6.414l0.064,13.444l-3.92,8.022l0.172,35.063l4.007,9.001l0.236,48.396
				c0.136,7.238,3.278,177.743-1.959,193.299C418.767,420.776,404.174,422.997,392.508,423.145z M255.753,172.27
				c0,0,0.005,0.627,0.994,202.445c-0.015,0.328-1.267,28.143,14.733,32.739c16.559,4.759,106.788,13.288,107.696,13.375
				c0.087,0.01,6.005,0.757,13.311,0.663c11.13-0.14,25.021-2.157,27.987-10.967c5.146-15.285,1.908-190.982,1.875-192.753
				l-0.236-48.06l-4.007-9.001l-0.175-35.797l3.919-8.022l-0.063-13.058c-0.01-2.032,0.025-4.199,0.062-6.449
				c0.292-18.215,0.657-40.886-20.909-43.858c-26.938-3.712-53.303-5.709-75.538-7.172c-5.246-0.346-10.491-0.658-15.737-0.97
				c-6.346-0.378-12.688-0.756-19.03-1.192c-3.013-0.208-5.657-0.293-8.092-0.262c-17.388,0.221-25.853,6.789-27.439,21.297
				c-0.706,6.484-0.565,13.266-0.43,19.823c0.054,2.545,0.108,5.08,0.111,7.59c0.045,18.057,0.317,36.418,0.579,54.176l0.154,10.507
				c0.025,1.923,0.063,3.846,0.101,5.769C255.68,166.152,255.738,169.213,255.753,172.27L255.753,172.27z"/>
		</g>
		<g>
			<path fill="#1E3557" d="M392.556,423.893c-2.191,0.028-4.379-0.062-6.497-0.267c-3.966-0.364-96.255-8.837-113.591-13.659
				c-18.132-5.037-16.79-33.758-16.725-34.978c-0.001,0.022-1.016-205.88-1.016-206.095c-0.016-3.124-0.078-6.248-0.139-9.37
				c-0.038-1.945-0.076-3.89-0.104-5.836l-0.163-10.845c-0.271-18.039-0.556-36.691-0.595-55.04
				c-0.007-2.522-0.062-5.071-0.117-7.631c-0.146-6.753-0.298-13.737,0.465-20.472c2.315-20.453,18.518-23.02,30.507-23.172
				c2.61-0.033,5.447,0.055,8.67,0.27c6.661,0.442,13.33,0.825,19.996,1.208c5.525,0.318,11.052,0.635,16.573,0.986
				c23.432,1.489,51.211,3.521,79.583,7.301c24.183,3.224,23.762,28.144,23.456,46.339c-0.04,2.277-0.075,4.469-0.065,6.527
				l0.571,116.009c0.086,7.056,2.08,173.133-0.503,188.429c-0.443,2.631-1.567,5.234-3.251,7.523
				c-5.035,6.832-14.256,9.021-21.664,10.779l-0.282,0.067C402.542,423.185,397.46,423.831,392.556,423.893z M256.378,168.885
				c0,0.003,0.005,1.066,1.015,206.144c-0.017,0.334-1.336,28.663,15.516,33.348c17.195,4.78,109.341,13.242,113.256,13.601
				c6.855,0.662,13.885,0.099,21.12-1.616l0.283-0.066c7.518-1.785,16.04-3.808,20.714-10.151c1.532-2.083,2.554-4.442,2.953-6.822
				c2.56-15.149,0.502-186.411,0.48-188.139l-0.572-116.015c-0.009-2.069,0.027-4.273,0.065-6.563
				c0.314-18.555,0.703-41.646-22.021-44.675c-28.322-3.773-56.065-5.802-79.47-7.29c-5.52-0.351-11.041-0.668-16.562-0.985
				c-6.673-0.384-13.346-0.767-20.012-1.209c-3.18-0.211-5.974-0.298-8.541-0.266c-18.306,0.232-27.213,6.927-28.887,21.707
				c-0.749,6.625-0.6,13.551-0.456,20.25c0.058,2.569,0.112,5.129,0.118,7.663c0.04,18.339,0.323,36.986,0.597,55.019l0.162,10.848
				c0.027,1.941,0.065,3.884,0.102,5.826C256.299,162.622,256.361,165.753,256.378,168.885z"/>
		</g>
		<g>
			<path fill="#1E3557" d="M345.298,150.283L345.298,150.283c-0.766,0.01-1.546-0.043-2.336-0.099
				c-1.086-0.075-2.089-0.15-3.092-0.236c-1.437-0.124-2.872-0.235-4.309-0.346c-2.65-0.206-5.394-0.417-8.088-0.707
				c-0.442-0.049-0.891-0.088-1.338-0.128c-3.719-0.332-7.937-0.708-8.754-5.854c-0.396-2.501-0.455-5.069-0.478-7.278
				c-0.042-4.206-0.065-8.409-0.088-12.614c-0.024-4.293-0.048-8.586-0.091-12.881c-0.054-5.104-0.042-11.135,0.449-17.147
				c0.34-4.168,4.902-4.226,6.401-4.245c0.578-0.007,1.173,0.009,1.769,0.041c1.31,0.071,2.615,0.13,3.924,0.19l3.038,0.144
				c4.485,0.229,9.794,0.542,15.192,1.121c5.222,0.563,5.122,5.153,5.061,7.895c-0.006,0.348-0.015,0.683-0.012,0.996l0.09,17.996
				c0.088,3.943,0.08,7.89,0.063,11.923c-0.008,1.692,0.039,3.38,0.086,5.068c0.054,1.943,0.109,3.953,0.081,5.941l-0.007,0.488
				c-0.039,3.014-0.083,6.431-3.021,8.437C348.564,149.859,347.164,150.259,345.298,150.283z M323.598,90.399
				c-4.018,0.051-4.67,1.408-4.777,2.728c-0.484,5.946-0.496,11.929-0.444,16.997c0.044,4.297,0.068,8.592,0.092,12.889
				c0.022,4.202,0.046,8.403,0.087,12.605c0.021,2.149,0.081,4.646,0.46,7.036c0.614,3.875,3.697,4.149,7.269,4.469
				c0.458,0.041,0.915,0.082,1.367,0.129c2.67,0.288,5.398,0.5,8.04,0.704c1.44,0.111,2.881,0.223,4.318,0.347
				c0.994,0.084,1.987,0.161,2.984,0.227c2.581,0.181,4.456,0.092,5.914-0.907c2.229-1.521,2.265-4.228,2.302-7.093l0.007-0.492
				c0.029-1.953-0.025-3.945-0.08-5.87c-0.047-1.706-0.095-3.411-0.087-5.12c0.018-4.022,0.026-7.958-0.063-11.895l-0.089-18.01
				c-0.001-0.328,0.006-0.678,0.014-1.041c0.075-3.406-0.14-5.845-3.585-6.216c-5.36-0.576-10.642-0.886-15.102-1.114l-3.029-0.143
				c-1.313-0.06-2.625-0.121-3.938-0.191C324.695,90.409,324.14,90.393,323.598,90.399z"/>
		</g>
		<g>
			<path fill="none" stroke="#1E3557" stroke-miterlimit="10" d="M342.146,128.13L342.146,128.13
				c-1.078,0.014-1.945-0.053-1.945-0.053c-0.484-0.027-12.312-0.689-14.598-1.09c-2.381-0.415-2.831-2.568-2.734-3.65
				l-0.088-16.647c-0.002-0.277-0.01-0.554-0.018-0.833l-0.028-1.277c-0.031-1.491-0.062-2.98-0.063-4.47
				c0-0.2-0.008-0.4-0.014-0.601c-0.018-0.588-0.036-1.195,0.076-1.82c0.448-2.453,3.547-2.492,4.564-2.505
				c0.387-0.005,0.787,0.004,1.192,0.02c0.872,0.037,1.745,0.067,2.616,0.097l2.061,0.073c3.012,0.117,6.58,0.276,10.214,0.577
				c3.783,0.312,3.702,3.059,3.657,4.535c-0.005,0.175-0.01,0.344-0.009,0.502l0.046,9.411c0.123,4.455,0.33,15.007-0.411,16.35
				C346.347,127.319,345.532,128.087,342.146,128.13z M324.432,106.682c0-0.001,0.084,16.724,0.084,16.724
				c-0.022,0.341-0.05,1.708,1.371,1.956c2.191,0.383,14.3,1.061,14.423,1.067c0.032,0.003,0.83,0.063,1.814,0.05
				c2.227-0.028,2.992-0.399,3.099-0.539c0.363-0.898,0.393-8.604,0.202-15.517l-0.047-9.43c-0.001-0.176,0.004-0.364,0.01-0.558
				c0.052-1.697-0.023-2.666-2.143-2.841c-3.603-0.297-7.148-0.456-10.141-0.571l-2.054-0.074c-0.876-0.03-1.753-0.061-2.629-0.096
				c-0.373-0.015-0.745-0.023-1.103-0.019c-2.757,0.035-2.905,0.844-2.959,1.149c-0.083,0.454-0.069,0.95-0.053,1.474
				c0.007,0.218,0.014,0.436,0.013,0.65c0.004,1.478,0.033,2.958,0.064,4.438l0.027,1.263
				C324.421,106.1,324.429,106.391,324.432,106.682L324.432,106.682z"/>
		</g>
		<g>
			<path fill="#1E3557" d="M398.239,421.369c-0.003-0.104-0.258-10.375-0.104-20.113c0.14-8.725-6.769-11.983-7.656-12.365
				l-35.374-5.237c-0.694-0.067-73.417-7.214-81.689-7.377c-7.526-0.13-8.323,5.632-8.354,5.878l-1.745,19.857l-1.643-0.145
				l1.745-19.883c0.011-0.099,0.944-7.25,9.517-7.359c0.167-0.002,0.339,0,0.51,0.004c8.342,0.161,78.863,7.09,81.862,7.385
				l35.698,5.307c0.089,0.039,8.944,3.673,8.781,13.961c-0.153,9.705,0.101,19.944,0.103,20.047L398.239,421.369z"/>
		</g>
		<g>
			<path fill="none" stroke="#1E3557" stroke-miterlimit="10" d="M341.27,144.026c-0.146,0.001-0.29-0.002-0.437-0.012
				l-12.712-0.854c-1.626-0.109-3.104-0.922-4.153-2.291c-1.026-1.336-1.527-3.049-1.406-4.821c0.241-3.663,3.116-6.519,6.459-6.305
				l12.716,0.854c1.483,0.099,2.868,0.802,3.898,1.981c1.185,1.356,1.791,3.226,1.659,5.13
				C347.065,141.21,344.419,143.985,341.27,144.026z M328.604,131.384c-2.29,0.029-4.22,2.126-4.396,4.775
				c-0.093,1.372,0.287,2.688,1.068,3.705c0.758,0.986,1.809,1.572,2.956,1.649l12.71,0.854c2.424,0.161,4.523-2.001,4.706-4.769
				c0.1-1.472-0.358-2.904-1.258-3.933c-0.737-0.846-1.721-1.349-2.766-1.419l-12.716-0.853
				C328.807,131.385,328.706,131.382,328.604,131.384z"/>
		</g>
		<g>
			<path fill="#1E3557" d="M426.024,158.712h-0.032c-1.2,0.003-2.281-0.869-3.042-2.453c-0.667-1.388-1.037-3.219-1.04-5.153
				l-0.016-16.632c-0.004-4.309,1.732-7.58,4.042-7.609c0.736-0.003,1.423,0.306,2.015,0.894c1.29,1.284,2.096,3.857,2.103,6.714
				l0.013,16.626C430.07,155.411,428.331,158.682,426.024,158.712z M425.971,128.516c-1.155,0.015-2.429,2.565-2.425,5.957
				l0.015,16.632c0.003,1.692,0.315,3.268,0.877,4.441c0.457,0.951,1.037,1.516,1.553,1.515l0.024,0.826l-0.012-0.826
				c1.14-0.014,2.415-2.566,2.413-5.959l-0.015-16.625c-0.006-2.726-0.815-4.749-1.615-5.545
				C426.509,128.654,426.235,128.515,425.971,128.516z"/>
		</g>
		<g>
			<path fill="#1E3557" d="M313.547,393.784c-0.129,0.001-0.258-0.004-0.391-0.015l-37.148-3.258
				c-2.142-0.189-3.73-2.083-3.541-4.224c0.184-2.132,2.015-3.733,4.222-3.545L313.836,386c1.038,0.09,1.979,0.581,2.648,1.378
				c0.671,0.799,0.99,1.81,0.899,2.848C317.205,392.229,315.555,393.76,313.547,393.784z M276.318,384.38
				c-1.158,0.014-2.108,0.896-2.21,2.052c-0.106,1.234,0.809,2.326,2.045,2.436l37.146,3.256c1.251,0.104,2.331-0.814,2.438-2.043
				c0.053-0.597-0.132-1.181-0.518-1.64c-0.387-0.461-0.929-0.743-1.528-0.794l-37.147-3.258
				C276.468,384.381,276.392,384.38,276.318,384.38z"/>
		</g>
		<g>
			<path fill="#1E3557" d="M387.675,49.702l-0.063,0c-2.265,0.012-3.976-0.931-3.981-2.194c-0.006-1.266,1.636-2.205,3.9-2.233
				c1.522-0.008,2.853,0.405,3.529,1.076c0.331,0.328,0.507,0.716,0.509,1.12C391.575,48.734,389.938,49.673,387.675,49.702z
				 M387.595,46.513c-1.712,0.022-2.729,0.653-2.728,0.99c0.002,0.343,1.044,0.971,2.737,0.962l0.063,0.619l-0.007-0.619
				c1.658-0.021,2.672-0.651,2.671-0.989c0-0.09-0.09-0.193-0.142-0.246C389.822,46.868,388.88,46.506,387.595,46.513
				L387.595,46.513z"/>
		</g>
		<g>
			<path fill="#BD475A" d="M305.185,123.901h19.174c0.33,0,0.598-0.266,0.598-0.594v-6.43l4.936-2.634
				c0.185-0.098,0.306-0.285,0.316-0.499c0.01-0.207-0.092-0.407-0.265-0.523l-4.987-3.342v-5.75c0-0.28-0.196-0.524-0.471-0.583
				l-19.176-4.12c-0.04-0.01-0.083-0.014-0.125-0.014c-0.136,0-0.269,0.046-0.375,0.133c-0.14,0.114-0.222,0.284-0.222,0.464v23.298
				C304.588,123.635,304.854,123.901,305.185,123.901z"/>
			<path fill="#FFFFFF" d="M314.429,107.556c0.912,0,1.637,0.212,2.17,0.637c0.535,0.424,0.801,1.01,0.801,1.759
				c0,0.493-0.153,0.943-0.459,1.348c-0.305,0.407-0.793,0.776-1.464,1.109c0.813,0.389,1.39,0.795,1.731,1.222
				c0.343,0.427,0.514,0.921,0.514,1.483c0,0.83-0.289,1.494-0.869,1.989s-1.375,0.742-2.383,0.742c-1.068,0-1.89-0.234-2.465-0.701
				c-0.575-0.469-0.863-1.131-0.863-1.989c0-1.145,0.699-2.038,2.096-2.676c-0.629-0.356-1.081-0.741-1.355-1.154
				c-0.275-0.414-0.41-0.875-0.41-1.387c0-0.726,0.268-1.304,0.805-1.735C312.812,107.771,313.529,107.556,314.429,107.556z
				 M312.265,115.183c0,0.548,0.191,0.974,0.572,1.281c0.38,0.305,0.917,0.458,1.605,0.458c0.68,0,1.209-0.16,1.588-0.479
				c0.379-0.319,0.568-0.757,0.568-1.314c0-0.442-0.179-0.836-0.533-1.181c-0.357-0.344-0.978-0.679-1.863-1.003
				c-0.68,0.292-1.172,0.615-1.479,0.969C312.418,114.267,312.265,114.69,312.265,115.183z M314.415,108.48
				c-0.571,0-1.019,0.137-1.342,0.411c-0.324,0.274-0.486,0.639-0.486,1.096c0,0.42,0.135,0.78,0.403,1.082
				c0.27,0.301,0.768,0.603,1.493,0.904c0.652-0.274,1.114-0.569,1.386-0.884c0.272-0.314,0.407-0.682,0.407-1.102
				c0-0.461-0.164-0.828-0.495-1.099C315.449,108.616,314.995,108.48,314.415,108.48z"/>
		</g>
		<g>
			<path fill="#BD475A" d="M365.089,127.56h-19.175c-0.332,0-0.598,0.266-0.598,0.594v6.43l-4.936,2.633
				c-0.186,0.099-0.306,0.286-0.316,0.499c-0.01,0.208,0.092,0.408,0.267,0.524l4.985,3.341v5.751c0,0.279,0.196,0.524,0.472,0.583
				l19.174,4.12c0.043,0.009,0.084,0.013,0.127,0.013c0.135,0,0.267-0.046,0.374-0.133c0.14-0.113,0.222-0.283,0.222-0.463v-23.298
				C365.685,127.826,365.418,127.56,365.089,127.56z"/>
			<path fill="#FFFFFF" d="M358.903,137.271c0,3.916-1.516,5.874-4.546,5.874c-0.529,0-0.949-0.045-1.261-0.136v-0.979
				c0.366,0.119,0.781,0.178,1.247,0.178c1.096,0,1.923-0.339,2.482-1.017c0.559-0.678,0.862-1.717,0.912-3.119h-0.081
				c-0.252,0.379-0.584,0.667-0.999,0.866c-0.416,0.199-0.884,0.299-1.404,0.299c-0.886,0-1.588-0.266-2.108-0.794
				c-0.521-0.53-0.781-1.269-0.781-2.219c0-1.041,0.292-1.862,0.874-2.465c0.581-0.602,1.347-0.903,2.296-0.903
				c0.681,0,1.275,0.174,1.785,0.524c0.508,0.348,0.899,0.858,1.173,1.526C358.767,135.574,358.903,136.362,358.903,137.271z
				 M355.534,133.827c-0.651,0-1.155,0.21-1.513,0.63c-0.355,0.42-0.533,1.004-0.533,1.752c0,0.658,0.164,1.174,0.493,1.551
				c0.327,0.376,0.828,0.564,1.498,0.564c0.416,0,0.799-0.084,1.146-0.253c0.351-0.168,0.625-0.399,0.825-0.691
				c0.201-0.293,0.301-0.599,0.301-0.918c0-0.479-0.093-0.922-0.278-1.328c-0.188-0.406-0.45-0.726-0.785-0.958
				C356.353,133.943,355.969,133.827,355.534,133.827z"/>
		</g>
		<g>
			<path fill="#BD475A" d="M450.082,137.102h-19.175c-0.33,0-0.597,0.266-0.597,0.594v6.431l-4.936,2.633
				c-0.186,0.099-0.306,0.286-0.316,0.498c-0.01,0.208,0.091,0.408,0.267,0.523l4.985,3.343v5.751c0,0.279,0.196,0.523,0.47,0.583
				l19.176,4.12c0.042,0.01,0.085,0.013,0.126,0.013c0.135,0,0.269-0.046,0.374-0.133c0.142-0.113,0.223-0.284,0.223-0.463v-23.299
				C450.679,137.367,450.412,137.102,450.082,137.102z"/>
			<g>
				<path fill="#FFFFFF" d="M438.661,153.282h-1.109v-7.134c0-0.594,0.019-1.155,0.055-1.685c-0.097,0.096-0.204,0.197-0.322,0.302
					s-0.662,0.549-1.63,1.334l-0.602-0.78l2.649-2.047h0.959V153.282z"/>
				<path fill="#FFFFFF" d="M446.943,148.263c0,1.729-0.272,3.021-0.817,3.875c-0.546,0.854-1.379,1.28-2.503,1.28
					c-1.076,0-1.896-0.438-2.457-1.311c-0.563-0.874-0.843-2.155-0.843-3.844c0-1.744,0.272-3.038,0.815-3.882
					c0.543-0.843,1.37-1.266,2.484-1.266c1.087,0,1.911,0.44,2.475,1.321C446.662,145.317,446.943,146.593,446.943,148.263z
					 M441.474,148.263c0,1.456,0.171,2.516,0.514,3.18c0.342,0.664,0.889,0.997,1.636,0.997c0.758,0,1.308-0.337,1.647-1.01
					c0.34-0.674,0.51-1.729,0.51-3.167s-0.17-2.491-0.51-3.159c-0.34-0.669-0.89-1.003-1.647-1.003
					c-0.747,0-1.294,0.329-1.636,0.989C441.645,145.749,441.474,146.807,441.474,148.263z"/>
			</g>
		</g>
		<g>
			<path fill="#BD475A" d="M307.169,413.62v-19.173c0-0.331-0.266-0.598-0.595-0.598h-6.43l-2.633-4.936
				c-0.099-0.186-0.285-0.306-0.499-0.316c-0.207-0.01-0.407,0.091-0.523,0.266l-3.342,4.986h-5.75c-0.28,0-0.523,0.196-0.584,0.472
				l-4.12,19.175c-0.01,0.041-0.013,0.083-0.013,0.124c0,0.138,0.046,0.269,0.133,0.376c0.113,0.139,0.283,0.223,0.463,0.223h23.298
				C306.903,414.219,307.169,413.951,307.169,413.62z"/>
			<g>
				<path fill="#FFFFFF" d="M294.199,409.613h-1.111v-7.132c0-0.595,0.02-1.156,0.057-1.685c-0.096,0.095-0.203,0.195-0.322,0.301
					c-0.119,0.104-0.661,0.548-1.63,1.335l-0.602-0.782l2.649-2.045h0.959V409.613z"/>
				<path fill="#FFFFFF" d="M303.506,409.613h-6.58v-0.979l2.636-2.648c0.804-0.813,1.333-1.392,1.587-1.738
					c0.257-0.349,0.448-0.687,0.576-1.014c0.128-0.328,0.191-0.683,0.191-1.061c0-0.536-0.161-0.957-0.485-1.271
					c-0.325-0.313-0.774-0.47-1.35-0.47c-0.414,0-0.809,0.067-1.181,0.204c-0.372,0.139-0.786,0.387-1.243,0.749l-0.601-0.774
					c0.921-0.767,1.925-1.151,3.012-1.151c0.939,0,1.678,0.241,2.211,0.723c0.535,0.483,0.802,1.129,0.802,1.941
					c0,0.635-0.179,1.262-0.535,1.882c-0.355,0.623-1.021,1.406-2,2.355l-2.189,2.145v0.054h5.149V409.613z"/>
			</g>
		</g>
		<ellipse fill="#1E3557" cx="334.729" cy="110.949" rx="5.424" ry="6.254"/>
	</g>
</g>
<g>
</g>
<g>
</g>
<g>
</g>
<g>
</g>
<g>
</g>
<g>
</g>
</svg>
