<?xml version="1.0" encoding="utf-8"?>
<!-- Generator: Adobe Illustrator 16.0.0, SVG Export Plug-In . SVG Version: 6.00 Build 0)  -->
<!DOCTYPE svg PUBLIC "-//W3C//DTD SVG 1.1//EN" "http://www.w3.org/Graphics/SVG/1.1/DTD/svg11.dtd">
<svg version="1.1" id="Capa_1" xmlns="http://www.w3.org/2000/svg" xmlns:xlink="http://www.w3.org/1999/xlink" x="0px" y="0px"
	 width="16.667px" height="18px" viewBox="0 0 16.667 18" enable-background="new 0 0 16.667 18" xml:space="preserve">
<g>
	<g>
		<path fill="#BD475A" d="M14.665,6.01V2.359c0-0.187-0.152-0.337-0.339-0.337H3.437c-0.187,0-0.338,0.15-0.338,0.337v13.229
			c0,0.102,0.046,0.198,0.125,0.262c0.061,0.05,0.136,0.076,0.212,0.076c0.024,0,0.048-0.002,0.072-0.007l10.888-2.339
			c0.156-0.034,0.268-0.172,0.268-0.332V9.982V6.01z"/>
	</g>
	<path fill="#FFFFFF" d="M8.868,7.626c0.764,0,1.364,0.189,1.803,0.568c0.438,0.378,0.657,0.897,0.657,1.555
		c0,0.75-0.239,1.339-0.717,1.766c-0.478,0.426-1.137,0.64-1.977,0.64c-0.817,0-1.44-0.131-1.87-0.393V10.97
		c0.231,0.148,0.519,0.266,0.863,0.35c0.344,0.084,0.683,0.126,1.017,0.126c0.583,0,1.035-0.138,1.358-0.413
		c0.322-0.273,0.482-0.671,0.482-1.19c0-1.012-0.62-1.518-1.86-1.518c-0.314,0-0.735,0.048-1.26,0.144L6.938,8.197L7.21,4.803h3.606
		v0.759H7.915L7.731,7.74C8.112,7.664,8.491,7.626,8.868,7.626z"/>
</g>
<g>
</g>
<g>
</g>
<g>
</g>
<g>
</g>
<g>
</g>
<g>
</g>
</svg>
