<?xml version="1.0" encoding="utf-8"?>
<!-- Generator: Adobe Illustrator 16.0.0, SVG Export Plug-In . SVG Version: 6.00 Build 0)  -->
<!DOCTYPE svg PUBLIC "-//W3C//DTD SVG 1.1//EN" "http://www.w3.org/Graphics/SVG/1.1/DTD/svg11.dtd">
<svg version="1.1" id="Capa_1" xmlns="http://www.w3.org/2000/svg" xmlns:xlink="http://www.w3.org/1999/xlink" x="0px" y="0px"
	 width="16.667px" height="18px" viewBox="0 0 16.667 18" enable-background="new 0 0 16.667 18" xml:space="preserve">
<g>
	<g>
		<path fill="#BD475A" d="M14.708,6.025V2.36c0-0.188-0.152-0.338-0.34-0.338H3.439c-0.188,0-0.34,0.151-0.34,0.338v13.278
			c0,0.103,0.047,0.2,0.126,0.265c0.061,0.049,0.137,0.075,0.214,0.075c0.024,0,0.048-0.002,0.072-0.007l10.928-2.349
			c0.157-0.034,0.269-0.173,0.269-0.333v-3.277V6.025z"/>
	</g>
	<path fill="#FFFFFF" d="M11.609,9.833h-1.08v1.673H9.737V9.833h-3.54V9.112l3.456-4.925h0.876v4.896h1.08V9.833z M9.737,9.083
		V6.661c0-0.474,0.017-1.011,0.05-1.609H9.748c-0.16,0.319-0.31,0.584-0.449,0.792L7.024,9.083H9.737z"/>
</g>
<g>
</g>
<g>
</g>
<g>
</g>
<g>
</g>
<g>
</g>
<g>
</g>
</svg>
