<?xml version="1.0" encoding="utf-8"?>
<!-- Generator: Adobe Illustrator 16.0.0, SVG Export Plug-In . SVG Version: 6.00 Build 0)  -->
<!DOCTYPE svg PUBLIC "-//W3C//DTD SVG 1.1//EN" "http://www.w3.org/Graphics/SVG/1.1/DTD/svg11.dtd">
<svg version="1.1" id="Capa_1" xmlns="http://www.w3.org/2000/svg" xmlns:xlink="http://www.w3.org/1999/xlink" x="0px" y="0px"
	 width="16.667px" height="18px" viewBox="0 0 16.667 18" enable-background="new 0 0 16.667 18" xml:space="preserve">
<g>
	<g>
		<path fill="#BD475A" d="M14.629,6.045V2.405c0-0.186-0.151-0.336-0.338-0.336H3.437c-0.187,0-0.338,0.15-0.338,0.336v13.189
			c0,0.101,0.046,0.198,0.126,0.263c0.06,0.049,0.135,0.075,0.212,0.075c0.023,0,0.047-0.003,0.071-0.008l10.855-2.333
			c0.156-0.033,0.267-0.171,0.267-0.33v-3.256V6.045z"/>
	</g>
	<path fill="#FFFFFF" d="M11.008,6.61c0,0.462-0.129,0.84-0.388,1.133C10.361,8.037,9.994,8.233,9.52,8.333v0.039
		c0.581,0.073,1.011,0.257,1.291,0.554c0.28,0.296,0.42,0.686,0.42,1.167c0,0.689-0.239,1.219-0.717,1.59
		c-0.479,0.371-1.158,0.556-2.039,0.556c-0.382,0-0.732-0.029-1.051-0.086c-0.318-0.058-0.627-0.159-0.927-0.304v-0.781
		c0.313,0.154,0.647,0.272,1.001,0.353c0.354,0.081,0.69,0.121,1.006,0.121c1.25,0,1.875-0.489,1.875-1.469
		c0-0.877-0.689-1.315-2.067-1.315H7.6V8.051h0.722c0.564,0,1.011-0.125,1.341-0.374c0.329-0.249,0.495-0.595,0.495-1.037
		c0-0.353-0.122-0.63-0.364-0.831C9.552,5.608,9.223,5.508,8.808,5.508c-0.317,0-0.615,0.043-0.896,0.129
		c-0.28,0.086-0.6,0.244-0.959,0.475L6.537,5.558c0.296-0.234,0.639-0.418,1.027-0.552c0.387-0.133,0.795-0.2,1.224-0.2
		c0.702,0,1.248,0.16,1.637,0.482C10.813,5.61,11.008,6.051,11.008,6.61z"/>
</g>
<g>
</g>
<g>
</g>
<g>
</g>
<g>
</g>
<g>
</g>
<g>
</g>
</svg>
