<?xml version="1.0" encoding="utf-8"?>
<!-- Generator: Adobe Illustrator 16.0.0, SVG Export Plug-In . SVG Version: 6.00 Build 0)  -->
<!DOCTYPE svg PUBLIC "-//W3C//DTD SVG 1.1//EN" "http://www.w3.org/Graphics/SVG/1.1/DTD/svg11.dtd">
<svg version="1.1" id="Capa_11" xmlns="http://www.w3.org/2000/svg" xmlns:xlink="http://www.w3.org/1999/xlink" x="0px" y="0px"
	 width="1091.289px" height="882.52px" viewBox="0 0 1091.289 882.52" style="enable-background:new 0 0 1091.289 882.52;"
	 xml:space="preserve">
<style type="text/css">
<![CDATA[
	.st0{
	fill:#919DB1;
	stroke:#A4266D; 
	stroke-width:9; 
	stroke-dasharray:1500;
	stroke-dashoffset:0;
	stroke-miterlimit:5;
	-webkit-animation: animacion 6s infinite 6s;
	-moz-animation: animacion 6s infinite 6s;
	animation: animacion 6s infinite 6s;	
	}

	@-webkit-keyframes animacion {
		from{
			stroke-dashoffset:1500;
		}
		to{
			stroke-dashoffset:0;
		}
	}

	@keyframes animacion {
		from{
			stroke-dashoffset:1500;
		}
		to{
			stroke-dashoffset:0;
		}
	}

	.st1{fill:#FFFFFF;}
	.st2{display:inline;}
	.st3{display:inline;fill:#A4266D;}
	.st4{display:none;}
]]>
</style>
<g id="Capa_19">
	<g id="ob7" fill="#CA8D3C" class="area" cursor="pointer" data-ref="7">
		<polygon class="st0" points="667.009,545.414 649.64,541.903 649.654,541.741 650.773,528.705 636.804,527.505 636.804,513.456 
			525.255,513.456 525.255,686.627 525.093,688.509 517.933,723.929 517.683,725.173 627.021,747.273 629.785,733.604 
			633.158,733.893 634.402,719.396 636.804,719.396 636.804,698.872 636.804,694.821 666.757,546.657 		"/>
		<path id="_x31__1_" class="st1" d="M667.007,545.429l-17.369-3.511l0.014-0.162l1.119-13.036l-13.969-1.198v-14.051H525.253
			v173.172l-0.162,1.883l-7.16,35.42l-0.25,1.244l109.338,22.1l2.764-13.669l3.373,0.289l1.246-14.496h2.4v-20.525v-4.051
			l29.953-148.164L667.007,545.429z M648.029,531.03l-0.877,10.22l-0.219,2.543l-10.131,117.995V541.745v-2.586v-9.093
			L648.029,531.03z M527.788,516.004h106.481v11.299v2.545v8.799v2.587v150.079v7.326v12.786v5.452h-1.104h-1.092h-1.492H527.788
			v-28.896v-1.228v-11.563v-18.065V516.004z M523.184,710.753l-1.093,12.739l-1.424-0.287L523.184,710.753z M625.039,744.303
			l-95.366-19.276l97.569,8.376L625.039,744.303z M630.289,731.119l-2.541-0.218l-102.99-8.842l0.496-5.788v3.142H630.07h1.787
			l-0.59,6.856L630.289,731.119z M638.203,675.132l11.217-130.672l14.602,2.952L638.203,675.132z"/>
	</g>
	<g id="ob6" fill="#CA8D3C" class="area" cursor="pointer" data-ref="6">
		<path class="st0" d="M779.14,515.759c-0.719-5.229-5.197-9.278-10.623-9.293c-0.943-0.002-1.883,0.119-2.791,0.359
			c-4.207,1.115-7.273,4.658-7.881,8.879h-0.109l-0.006,1.496l0,0v0.164l-0.561,227.646l-0.002,1.496l1.627,0.004
			c0.705,4.406,4.508,7.779,9.113,7.791s8.426-3.342,9.154-7.744l1.627,0.004l0.563-229.309l0.006-1.494L779.14,515.759
			L779.14,515.759z"/>
		<path class="st1" d="M779.14,515.759c-0.719-5.229-5.197-9.278-10.623-9.293c-0.943-0.002-1.883,0.119-2.791,0.359
			c-4.207,1.115-7.273,4.658-7.881,8.879h-0.109l-0.006,1.496l0,0v0.164l-0.561,227.646l-0.002,1.496l1.627,0.004
			c0.705,4.406,4.508,7.779,9.113,7.791s8.426-3.342,9.154-7.744l1.627,0.004l0.563-229.309l0.006-1.494L779.14,515.759
			L779.14,515.759z M766.492,509.718c0.656-0.174,1.336-0.262,2.02-0.26c3.771,0.01,6.918,2.719,7.609,6.291l-15.25-0.037
			C761.441,512.849,763.595,510.486,766.492,509.718z M775.705,743.56l-15.539-0.034l0.553-224.82l15.539,0.039L775.705,743.56z"/>
		<path class="st1" d="M765.343,594.876l5.916,0.016c0.492,0.002,0.896-0.399,0.898-0.893l0.17-69.844
			c0.002-0.492-0.4-0.896-0.893-0.896l-5.918-0.014c-0.49-0.002-0.895,0.397-0.895,0.891l-0.172,69.845
			C764.449,594.474,764.849,594.876,765.343,594.876z"/>
		<path class="st1" d="M768.019,709.625c2.002,0.006,3.631-1.615,3.637-3.615c0.004-2.006-1.613-3.631-3.619-3.637
			c-2.002-0.008-3.629,1.613-3.635,3.617C764.396,707.992,766.015,709.619,768.019,709.625z"/>
	</g>
	<g id="ob5" fill="#CA8D3C" class="area" cursor="pointer" data-ref="5">
		<path class="st0" d="M839.988,289.494c-7.766,0-14.082,6.317-14.082,14.081v433.513c0,7.764,6.316,14.082,14.082,14.082h200.271
			c7.766,0,14.082-6.318,14.082-14.082V303.575c0-7.764-6.316-14.081-14.082-14.081H839.988L839.988,289.494z"/>
		<path class="st1" d="M1040.261,754.298H839.988c-9.49,0-17.211-7.721-17.211-17.211V303.575c0-9.49,7.721-17.21,17.211-17.21
			h200.271c9.49,0,17.213,7.72,17.213,17.21v433.512C1057.472,746.578,1049.751,754.298,1040.261,754.298z M839.988,289.494
			c-7.766,0-14.082,6.317-14.082,14.082v433.512c0,7.764,6.316,14.082,14.082,14.082h200.271c7.766,0,14.082-6.318,14.082-14.082
			V303.575c0-7.764-6.316-14.082-14.082-14.082L839.988,289.494L839.988,289.494z"/>
		<path class="st1" d="M954.986,374.883h-25.033c-5.178,0-9.389-4.212-9.389-9.388v-24.252c0-5.176,4.211-9.387,9.389-9.387h25.033
			c5.176,0,9.387,4.211,9.387,9.387v24.252C964.373,370.671,960.162,374.883,954.986,374.883z M929.953,334.985
			c-3.451,0-6.26,2.808-6.26,6.258v24.252c0,3.45,2.809,6.259,6.26,6.259h25.033c3.449,0,6.258-2.809,6.258-6.259v-24.252
			c0-3.45-2.809-6.258-6.258-6.258H929.953z"/>
		<path class="st1" d="M896.312,364.712H884.58c-3.021,0-5.477-2.456-5.477-5.476v-11.734c0-3.02,2.455-5.476,5.477-5.476h11.732
			c3.021,0,5.479,2.456,5.479,5.476v11.734C901.789,362.256,899.332,364.712,896.312,364.712z M884.578,345.155
			c-1.293,0-2.346,1.053-2.346,2.347v11.734c0,1.294,1.053,2.348,2.346,2.348h11.734c1.295,0,2.348-1.054,2.348-2.348v-11.734
			c0-1.294-1.053-2.347-2.348-2.347H884.578z"/>
	</g>
	<g id="ob4" fill="#CA8D3C" class="area" cursor="pointer" data-ref="4">
		<path class="st0" d="M917.181,251.181h8.021v3.43c0,0.132,0.111,0.244,0.242,0.244h8.043c0.309,0,0.779-0.314,0.898-0.598
			l0.059-0.118l1.635-2.958h16.441c0.936,0,1.697-0.762,1.697-1.696V211.07c0-0.935-0.762-1.697-1.697-1.697H894.46
			c-0.936,0-1.697,0.762-1.697,1.697v43.541c0,0.132,0.111,0.244,0.242,0.244h21.582c0.313,0,0.783-0.314,0.902-0.6l0.057-0.116
			L917.181,251.181z"/>
		<path class="st1" d="M933.488,257.279h-8.043c-1.473,0-2.666-1.197-2.666-2.667v-1.005h-4.168l-0.914,1.658
			c-0.523,1.154-1.844,2.015-3.107,2.015h-21.582c-1.471,0-2.668-1.197-2.668-2.667V211.07c0-2.272,1.85-4.121,4.123-4.121h58.059
			c2.271,0,4.121,1.849,4.121,4.121v38.415c0,2.272-1.85,4.121-4.121,4.121h-15.012l-0.916,1.657
			C936.072,256.418,934.751,257.279,933.488,257.279z M917.181,251.182h8.021v3.429c0,0.132,0.111,0.244,0.242,0.244h8.043
			c0.311,0,0.779-0.313,0.9-0.598l0.057-0.118l1.635-2.958h16.441c0.938,0,1.697-0.762,1.697-1.697V211.07
			c0-0.935-0.762-1.697-1.697-1.697h-58.059c-0.938,0-1.697,0.762-1.697,1.697v43.541c0,0.132,0.109,0.244,0.242,0.244h21.582
			c0.311,0,0.781-0.313,0.902-0.599l0.057-0.116L917.181,251.182z"/>
		<path class="st1" d="M931.839,217.766v3.636h20.119v-3.636H931.839z M931.839,224.312v3.636h20.119v-3.636H931.839z
			 M931.839,211.221v3.635h20.119v-3.635H931.839z M951.958,243.946h-20.119v3.636h20.119V243.946z M931.839,237.401v3.635h20.119
			v-3.635H931.839z M931.839,230.855v3.637h20.119v-3.637H931.839z"/>
		<path class="st1" d="M896.285,253.884c1.512-6.169,2.398-13.672,2.398-21.771c0-8.099-0.889-15.6-2.398-21.771h-1.039
			c-0.396,0-0.729,0.333-0.729,0.728v42.814H896.285z"/>
	</g>
	<g id="ob3" fill="#CA8D3C" class="area" cursor="pointer" data-ref="3">
		<path class="st0" d="M750.958,240.998v-31.71h-34.285v31.71h-3.328v39.888c0,0.338,0.018,0.674,0.051,0.996
			c0.227,2.193,1.213,4.264,2.777,5.828c1.197,1.199,2.693,2.063,4.324,2.5c0.813,0.217,1.654,0.327,2.5,0.327h4.09v27.98h2.445
			v149.325h8.564V318.517h2.447v-27.98h4.09c0.771,0,1.545-0.092,2.297-0.274c1.713-0.419,3.277-1.301,4.525-2.549
			c1.566-1.565,2.555-3.636,2.779-5.832c0.031-0.333,0.051-0.669,0.051-0.997v-39.887H750.958z"/>
		<path class="st1" d="M750.941,241.003v-31.71h-34.285v31.71h-3.326v39.888c0,0.338,0.016,0.674,0.049,0.995
			c0.227,2.194,1.213,4.264,2.779,5.829c1.195,1.199,2.691,2.063,4.322,2.499c0.814,0.218,1.654,0.328,2.5,0.328h4.09v27.98h2.445
			v149.324h8.564V318.523h2.447v-27.98h4.092c0.77,0,1.543-0.092,2.295-0.274c1.713-0.419,3.277-1.302,4.527-2.55
			c1.564-1.565,2.553-3.635,2.777-5.831c0.033-0.333,0.051-0.669,0.051-0.998v-39.887H750.941L750.941,241.003z M719.082,211.717
			h29.436v29.229h-29.436V211.717z M735.658,465.422h-3.717V319.306h3.717V465.422z M738.103,316.098h-8.609v-25.234h8.609V316.098z
			 M751.847,280.89c0,0.248-0.014,0.501-0.039,0.752c-0.168,1.641-0.906,3.189-2.08,4.362c-0.938,0.935-2.107,1.596-3.387,1.909
			c-0.563,0.137-1.143,0.206-1.723,0.206H722.98c-0.633,0-1.266-0.082-1.875-0.245c-1.219-0.327-2.338-0.974-3.234-1.873
			c-1.174-1.172-1.912-2.721-2.08-4.364c-0.025-0.241-0.037-0.492-0.037-0.746v-37.465h36.094V280.89z"/>
		<path class="st1" d="M729.396,264.843v1.183c0,1.705,1.387,3.092,3.094,3.092c0.254,0,0.461,0.208,0.461,0.461v3.079
			c-0.863,0.356-1.475,1.209-1.475,2.199c0,1.313,1.068,2.378,2.381,2.378c1.311,0,2.379-1.065,2.379-2.378
			c0-0.99-0.609-1.843-1.475-2.199v-6.024c0-0.255,0.207-0.46,0.461-0.46c1.707,0,3.094-1.389,3.094-3.095v-0.968h0.455
			c0.377,0,0.68-0.305,0.68-0.68v-2.72c0-0.374-0.303-0.68-0.68-0.68h-2.721c-0.375,0-0.678,0.306-0.678,0.68v2.72
			c0,0.375,0.303,0.68,0.678,0.68h0.453v0.968c0,0.706-0.572,1.281-1.281,1.281c-0.156,0-0.311,0.016-0.461,0.047v-7.557h0.684
			c0.377,0,0.68-0.304,0.68-0.68c0-0.14-0.043-0.271-0.115-0.379l-1.563-2.708c-0.121-0.21-0.346-0.34-0.588-0.34
			s-0.469,0.13-0.592,0.34l-1.586,2.748c-0.119,0.21-0.119,0.469,0,0.679c0.123,0.21,0.348,0.34,0.592,0.34h0.678v10.502
			c-0.148-0.031-0.303-0.046-0.459-0.046c-0.707,0-1.281-0.575-1.281-1.28v-1.183c0.734-0.344,1.246-1.089,1.246-1.953
			c0-1.187-0.967-2.152-2.154-2.152c-1.186,0-2.152,0.966-2.152,2.152C728.146,263.754,728.66,264.499,729.396,264.843z"/>
		<path class="st1" d="M737.015,230.133h9.496v-7.354h-9.496V230.133z M739.437,225.204h4.65v2.506h-4.65V225.204z"/>
		<path class="st1" d="M721.085,230.133h9.498v-7.354h-9.498V230.133z M723.511,225.204h4.648v2.506h-4.648V225.204z"/>
	</g>
	<g id="ob2" fill="#CA8D3C" class="area" cursor="pointer" data-ref="2">
		<path class="st0" d="M633.265,260.638h-25.934v-19.835h25.934c0.748,0,1.357-0.609,1.357-1.36c0-0.749-0.609-1.357-1.357-1.357
			h-25.934v-12.384h-12.875v-8.034c0-6.064-4.934-10.999-10.996-10.999h-50.876c-6.064,0-10.998,4.934-10.998,10.999v85.567
			c0,6.064,4.934,10.997,10.998,10.997h28.892v27.658h2.447v87.478h8.564V341.89h2.447v-27.66h8.525
			c6.063,0,10.996-4.933,10.996-10.997v-27.252h12.875v-12.626h25.934c0.748,0,1.357-0.609,1.357-1.358
			S634.013,260.638,633.265,260.638z"/>
		<path id="_x31_" class="st1" d="M633.265,260.637h-25.934v-19.835h25.934c0.748,0,1.357-0.609,1.357-1.36
			c0-0.749-0.609-1.357-1.357-1.357h-25.934V225.7h-12.875v-8.034c0-6.064-4.934-10.999-10.996-10.999h-50.876
			c-6.064,0-10.998,4.934-10.998,10.999v85.567c0,6.064,4.935,10.997,10.998,10.997h28.892v27.658h2.447v87.479h8.566v-87.479h2.445
			V314.23h8.525c6.063,0,10.996-4.933,10.996-10.997v-27.252h12.875v-12.626h25.934c0.748,0,1.357-0.609,1.357-1.358
			C634.625,261.247,634.013,260.637,633.265,260.637z M570.064,426.941h-3.717v-85.053h3.717V426.941z M572.511,339.463h-0.021
			h-8.566h-0.021V314.23h8.609V339.463z M592.035,303.233c0,4.728-3.848,8.573-8.574,8.573h-8.525h-13.457h-28.893
			c-4.728,0-8.573-3.846-8.573-8.573v-85.567c0-4.728,3.847-8.575,8.573-8.575h50.875c4.727,0,8.574,3.847,8.574,8.575v8.034v50.281
			V303.233L592.035,303.233z M604.908,273.558h-10.451v-45.433h10.451V273.558z"/>
	</g>
	<g id="ob1" fill="#CA8D3C" class="area" cursor="pointer" data-ref="1">
		<g>
			<path class="st0" d="M222.449,202.138v506.021c-0.006,0.151-0.357,9.994,6.522,17.186c4.917,5.141,12.309,7.746,21.968,7.746
				c0.473,0,0.953-0.007,1.44-0.019l175.806-13.881c0.615-0.07,15.927-2.009,19.535-21.101V218.075
				c-0.174-1.302-2.608-16.906-19.643-21.213L244.8,179.207C243.469,179.261,227.17,180.387,222.449,202.138z"/>
			<path class="st0" d="M222.449,709.333H47.091c-9.927,0-18.003-8.076-18.003-18.004V225.027c0-9.927,8.076-18.003,18.003-18.003
				h175.358V709.333z"/>
		</g>
		<path class="st1" d="M254.896,730.339h-0.046c-0.177,0-17.814-0.251-23.019-21.937l-0.033-0.273V201.516l0.004-0.046
			c0.018-0.227,0.484-5.614,3.968-11.057c3.229-5.045,9.744-11.06,22.446-11.06l0.13,0.007l173.536,19.375l0.176,0.083
			c0.15,0.07,14.979,7.24,14.979,23.781v471.157c0.163,1.475,1.632,18.879-18.605,23.097l-0.148,0.021L254.896,730.339z
			 M234.146,707.99c4.721,19.389,19.576,19.984,20.666,20.003l173.216-13.454c18.762-3.95,16.77-19.874,16.675-20.551l-0.011-0.163
			V222.6c0-14.294-11.832-20.753-13.466-21.576L258.151,181.7c-21.799,0.037-23.887,18.623-24.005,19.915V707.99z"/>
		<path class="st1" d="M243.579,679.095V235.636l195.886,15.33v414.502l-1.092,0.076L243.579,679.095z M245.926,238.174v438.405
			l191.192-13.3V253.136L245.926,238.174z"/>
		<path class="st1" d="M329.688,709.309l-0.132-0.021c-2.74-0.438-8.059-2.985-8.558-9.483l-0.003-0.085
			c-0.017-3.519,1.777-10.284,8.674-10.713l31.759-1.968l0.063,0.003c0.071,0.003,7.218,0.433,7.291,9.45
			c0.503,2.309-0.049,7.251-5.646,10.414l-0.231,0.131l-0.266,0.018L329.688,709.309z M323.342,699.671
			c0.476,5.842,5.586,7.104,6.465,7.277l32.4-2.216c5.294-3.134,4.305-7.636,4.26-7.827l-0.033-0.277
			c0-6.552-4.43-7.185-5.004-7.237l-31.615,1.959C323.58,691.735,323.35,698.992,323.342,699.671z"/>
		<path class="st1" d="M250.855,735.408c-10.339,0-18.308-2.857-23.685-8.493c-7.571-7.934-7.172-18.398-7.151-18.84l-0.001-506.215
			l0.026-0.122c5.184-24.188,24.488-24.905,24.682-24.909l0.07-0.001l0.069,0.006l183.528,17.679l0.084,0.021
			c19.077,4.769,21.476,23.114,21.497,23.299l0.009,0.139V698.28l-0.021,0.105c-3.9,20.951-21.466,23.093-21.643,23.111
			l-175.901,13.888C251.849,735.402,251.348,735.408,250.855,735.408z M222.365,202.109V708.13
			c-0.006,0.152-0.357,9.994,6.522,17.187c4.917,5.14,12.309,7.745,21.968,7.745c0.473,0,0.953-0.007,1.44-0.019l175.806-13.881
			c0.615-0.07,15.926-2.008,19.535-21.1V218.046c-0.174-1.302-2.608-16.907-19.642-21.213l-183.278-17.655
			C243.384,179.232,227.086,180.357,222.365,202.109z"/>
		<path class="st1" d="M363.945,213.71l-38.643-3.435l-0.27-0.205c-0.313-0.238-3.047-2.396-2.782-4.998
			c0.147-1.453,1.151-2.636,2.985-3.516l0.3-0.144l38.431,4.056l0.205,0.112c0.257,0.141,2.518,1.436,2.661,3.678
			c0.097,1.489-0.755,2.899-2.532,4.191L363.945,213.71z M326.207,208l37.053,3.293c0.647-0.524,1.275-1.211,1.232-1.881
			c-0.046-0.72-0.85-1.382-1.267-1.661l-37.26-3.933c-0.646,0.35-1.315,0.859-1.38,1.492
			C324.494,206.225,325.518,207.397,326.207,208z"/>
		<path class="st1" d="M226.452,367.245c-1.459,0-2.646-1.187-2.646-2.646V285.5c0-1.459,1.187-2.646,2.646-2.646
			s2.646,1.188,2.646,2.646v79.098C229.098,366.058,227.911,367.245,226.452,367.245z M226.452,285.201
			c-0.165,0-0.299,0.134-0.299,0.299v79.098c0,0.165,0.134,0.3,0.299,0.3s0.299-0.135,0.299-0.3V285.5
			C226.751,285.335,226.617,285.201,226.452,285.201z"/>
		<path class="st1" d="M381.354,213.676c-1.824,0-3.311-1.635-3.311-3.646c0-2.011,1.485-3.646,3.311-3.646
			c1.826,0,3.312,1.635,3.312,3.646C384.665,212.041,383.179,213.676,381.354,213.676z M381.354,208.732
			c-0.521,0-0.963,0.595-0.963,1.298c0,0.703,0.441,1.299,0.963,1.299c0.522,0,0.965-0.595,0.965-1.299
			C382.318,209.326,381.876,208.732,381.354,208.732z"/>
		<path class="st1" d="M387.855,214.285c-1.825,0-3.311-1.635-3.311-3.646c0-2.01,1.485-3.645,3.311-3.645
			c1.824,0,3.311,1.635,3.311,3.645C391.166,212.649,389.681,214.285,387.855,214.285z M387.855,209.341
			c-0.522,0-0.964,0.595-0.964,1.298c0,0.704,0.441,1.298,0.964,1.298c0.521,0,0.964-0.595,0.964-1.298
			C388.819,209.936,388.378,209.341,387.855,209.341z"/>
		<path class="st1" d="M400.847,218.35c-3.054,0-5.539-2.957-5.539-6.59c0-3.633,2.485-6.591,5.539-6.591
			c3.055,0,5.538,2.957,5.538,6.591C406.385,215.394,403.9,218.35,400.847,218.35z M400.847,207.516
			c-1.761,0-3.191,1.904-3.191,4.244c0,2.34,1.431,4.244,3.191,4.244s3.191-1.904,3.191-4.244
			C404.038,209.42,402.606,207.516,400.847,207.516z"/>
		<path class="st1" d="M222.365,709.303H47.007c-9.927,0-18.002-8.076-18.002-18.004V224.998c0-9.927,8.075-18.003,18.002-18.003
			h175.358V709.303z M47.007,209.341c-8.633,0-15.656,7.024-15.656,15.657V691.3c0,8.633,7.023,15.656,15.656,15.656h173.011
			V209.341H47.007z"/>
		<path class="st1" d="M170.703,301.189h-26.927c-5.287,0-9.587-4.302-9.587-9.588v-26.086c0-5.287,4.301-9.587,9.587-9.587h26.927
			c5.287,0,9.588,4.301,9.588,9.587v26.086C180.292,296.887,175.99,301.189,170.703,301.189z M143.776,258.274
			c-3.992,0-7.241,3.249-7.241,7.241v26.086c0,3.993,3.249,7.241,7.241,7.241h26.927c3.993,0,7.242-3.249,7.242-7.241v-26.086
			c0-3.992-3.249-7.241-7.242-7.241H143.776z"/>
		<path class="st1" d="M166.075,296.14h-18.092c-5.287,0-9.588-4.302-9.588-9.589v-15.988c0-5.287,4.301-9.588,9.588-9.588h18.092
			c5.287,0,9.588,4.301,9.588,9.588v15.988C175.664,291.838,171.362,296.14,166.075,296.14z M147.983,263.322
			c-3.993,0-7.241,3.249-7.241,7.241v15.988c0,3.993,3.248,7.242,7.241,7.242h18.092c3.993,0,7.241-3.249,7.241-7.242v-15.988
			c0-3.993-3.248-7.241-7.241-7.241H147.983z"/>
		<path class="st1" d="M107.593,290.25H94.971c-2.967,0-5.38-2.414-5.38-5.38v-12.623c0-2.967,2.414-5.381,5.38-5.381h12.623
			c2.967,0,5.381,2.414,5.381,5.381v12.623C112.974,287.835,110.56,290.25,107.593,290.25z M94.971,269.212
			c-1.673,0-3.034,1.361-3.034,3.034v12.623c0,1.672,1.361,3.034,3.034,3.034h12.623c1.673,0,3.034-1.361,3.034-3.034v-12.623
			c0-1.673-1.361-3.034-3.034-3.034H94.971z"/>
		<path class="st1" d="M222.358,278.048h-21.316c-2.039,0-3.698-1.659-3.698-3.698s1.659-3.697,3.698-3.697h21.316V278.048z
			 M201.042,273c-0.745,0-1.351,0.606-1.351,1.351s0.606,1.351,1.351,1.351h18.969V273H201.042z"/>
		<path class="st1" d="M222.358,287.725h-21.316c-2.039,0-3.698-1.659-3.698-3.698s1.659-3.698,3.698-3.698h21.316V287.725z
			 M201.042,282.676c-0.745,0-1.351,0.606-1.351,1.351c0,0.745,0.606,1.351,1.351,1.351h18.969v-2.702H201.042L201.042,282.676z"/>
		<path class="st1" d="M31.351,390.666h-1.734c-2.967,0-5.381-2.413-5.381-5.381v-33.098c0-2.968,2.414-5.381,5.381-5.381h1.734
			V390.666z M29.004,349.214c-1.381,0.284-2.422,1.509-2.422,2.973v33.098c0,1.463,1.041,2.688,2.422,2.972V349.214z"/>
	</g>
</g>
<g id="Capa_18" class="st4">
	<path class="st3" d="M502.913,789.927c0-2.762,2.238-5,5-5h53.862l16.33-10.868l15.645,10.868h54.547c2.762,0,5,2.238,5,5V848
		c0,2.762-2.238,5-5,5H507.913c-2.762,0-5-2.238-5-5V789.927z"/>
	<g class="st2">
		<path class="st1" d="M519.749,813.488l-3.609-11.763h-0.092c0.13,2.395,0.195,3.989,0.195,4.789v6.974h-2.84v-14.991h4.327
			l3.548,11.464h0.062l3.764-11.464h4.326v14.991h-2.963v-7.097c0-0.335,0.005-0.721,0.017-1.157
			c0.01-0.438,0.056-1.601,0.138-3.486h-0.092l-3.866,11.74H519.749L519.749,813.488z"/>
		<path class="st1" d="M540.236,813.488l-0.605-1.56h-0.082c-0.525,0.663-1.067,1.123-1.625,1.379
			c-0.557,0.258-1.283,0.386-2.179,0.386c-1.101,0-1.967-0.314-2.6-0.943c-0.634-0.629-0.948-1.524-0.948-2.688
			c0-1.217,0.426-2.113,1.275-2.69c0.853-0.578,2.136-0.897,3.852-0.959l1.989-0.063v-0.502c0-1.161-0.596-1.743-1.784-1.743
			c-0.916,0-1.993,0.276-3.23,0.83l-1.036-2.111c1.319-0.69,2.782-1.035,4.39-1.035c1.538,0,2.717,0.335,3.538,1.004
			c0.819,0.671,1.229,1.689,1.229,3.057v7.64L540.236,813.488L540.236,813.488z M539.313,808.176l-1.21,0.041
			c-0.908,0.027-1.586,0.191-2.029,0.492c-0.444,0.301-0.667,0.759-0.667,1.374c0,0.882,0.506,1.322,1.518,1.322
			c0.725,0,1.304-0.208,1.738-0.625c0.434-0.417,0.65-0.972,0.65-1.661V808.176L539.313,808.176z"/>
		<path class="st1" d="M556.222,813.488h-3.127v-6.695c0-0.827-0.146-1.448-0.441-1.861c-0.293-0.414-0.762-0.621-1.404-0.621
			c-0.875,0-1.508,0.293-1.898,0.877c-0.389,0.586-0.584,1.555-0.584,2.907v5.395h-3.126v-11.464h2.39l0.42,1.466h0.174
			c0.348-0.554,0.828-0.973,1.439-1.256s1.309-0.427,2.088-0.427c1.332,0,2.344,0.361,3.033,1.082
			c0.691,0.723,1.037,1.764,1.037,3.123V813.488L556.222,813.488z"/>
		<path class="st1" d="M567.562,813.488l-0.42-1.467h-0.164c-0.334,0.532-0.809,0.944-1.424,1.235
			c-0.615,0.29-1.316,0.437-2.102,0.437c-1.348,0-2.363-0.36-3.045-1.082c-0.686-0.722-1.025-1.758-1.025-3.111v-7.476h3.127v6.695
			c0,0.827,0.146,1.447,0.441,1.86c0.293,0.414,0.762,0.62,1.404,0.62c0.875,0,1.508-0.292,1.896-0.876
			c0.391-0.585,0.584-1.555,0.584-2.907v-5.394h3.127v11.464L567.562,813.488L567.562,813.488z"/>
		<path class="st1" d="M580.525,813.488l-0.605-1.56h-0.082c-0.527,0.663-1.068,1.123-1.625,1.379
			c-0.557,0.258-1.283,0.386-2.18,0.386c-1.102,0-1.967-0.314-2.6-0.943s-0.947-1.524-0.947-2.688c0-1.217,0.426-2.113,1.275-2.69
			c0.852-0.578,2.135-0.897,3.852-0.959l1.988-0.063v-0.502c0-1.161-0.596-1.743-1.783-1.743c-0.916,0-1.994,0.276-3.23,0.83
			l-1.037-2.111c1.32-0.69,2.783-1.035,4.391-1.035c1.537,0,2.717,0.335,3.537,1.004c0.82,0.671,1.23,1.689,1.23,3.057v7.64
			L580.525,813.488L580.525,813.488z M579.601,808.176l-1.211,0.041c-0.908,0.027-1.586,0.191-2.029,0.492s-0.666,0.759-0.666,1.374
			c0,0.882,0.506,1.322,1.518,1.322c0.725,0,1.303-0.208,1.738-0.625c0.434-0.417,0.65-0.972,0.65-1.661V808.176L579.601,808.176z"
			/>
		<path class="st1" d="M589.054,813.488h-3.127v-15.955h3.127V813.488z"/>
		<path class="st1" d="M597.525,813.693c-1.846,0-3.287-0.51-4.326-1.527s-1.561-2.461-1.561-4.328c0-1.92,0.48-3.405,1.441-4.455
			c0.959-1.049,2.289-1.574,3.982-1.574c1.621,0,2.883,0.463,3.785,1.386s1.354,2.197,1.354,3.823v1.519h-7.393
			c0.033,0.89,0.297,1.583,0.789,2.082c0.494,0.499,1.184,0.748,2.072,0.748c0.689,0,1.342-0.071,1.957-0.215
			c0.615-0.145,1.258-0.372,1.928-0.688v2.42c-0.547,0.274-1.131,0.479-1.752,0.61C599.179,813.626,598.419,813.693,597.525,813.693
			z M597.083,804.034c-0.662,0-1.182,0.21-1.559,0.631c-0.375,0.42-0.592,1.017-0.646,1.789h4.389
			c-0.014-0.772-0.215-1.369-0.604-1.789C598.273,804.244,597.748,804.034,597.083,804.034z"/>
		<path class="st1" d="M612.742,810.083c0,1.176-0.408,2.071-1.227,2.687c-0.816,0.616-2.039,0.924-3.666,0.924
			c-0.834,0-1.545-0.058-2.133-0.169c-0.588-0.113-1.137-0.278-1.65-0.497v-2.584c0.58,0.272,1.234,0.502,1.965,0.687
			c0.727,0.186,1.369,0.276,1.922,0.276c1.135,0,1.701-0.328,1.701-0.984c0-0.246-0.074-0.445-0.227-0.6
			c-0.148-0.153-0.41-0.328-0.777-0.522c-0.369-0.194-0.861-0.422-1.479-0.683c-0.881-0.369-1.529-0.71-1.943-1.025
			c-0.412-0.313-0.715-0.675-0.9-1.081c-0.189-0.406-0.283-0.906-0.283-1.503c0-1.018,0.396-1.806,1.186-2.362
			c0.789-0.558,1.908-0.837,3.357-0.837c1.381,0,2.725,0.303,4.031,0.902l-0.943,2.256c-0.574-0.246-1.111-0.447-1.609-0.604
			c-0.5-0.157-1.01-0.235-1.529-0.235c-0.922,0-1.383,0.249-1.383,0.748c0,0.28,0.148,0.523,0.445,0.729
			c0.299,0.205,0.949,0.509,1.953,0.911c0.896,0.362,1.553,0.701,1.971,1.017c0.416,0.314,0.725,0.676,0.922,1.086
			S612.742,809.516,612.742,810.083z"/>
		<path class="st1" d="M624.267,813.693c-1.348,0-2.404-0.523-3.174-1.568c-0.77-1.047-1.152-2.495-1.152-4.348
			c0-1.881,0.391-3.346,1.174-4.396c0.783-1.049,1.859-1.574,3.234-1.574c1.441,0,2.543,0.563,3.303,1.683h0.102
			c-0.156-0.854-0.236-1.616-0.236-2.286v-3.671h3.139v15.955h-2.398l-0.605-1.486h-0.133
			C626.806,813.128,625.722,813.693,624.267,813.693z M625.365,811.201c0.799,0,1.385-0.231,1.758-0.697
			c0.373-0.464,0.576-1.254,0.609-2.368v-0.339c0-1.229-0.189-2.111-0.568-2.645s-0.996-0.802-1.852-0.802
			c-0.697,0-1.238,0.296-1.625,0.889c-0.387,0.591-0.58,1.45-0.58,2.579c0,1.127,0.195,1.974,0.584,2.536
			C624.083,810.919,624.64,811.201,625.365,811.201z"/>
		<path class="st1" d="M639.115,813.693c-1.846,0-3.287-0.51-4.326-1.527s-1.561-2.461-1.561-4.328c0-1.92,0.48-3.405,1.441-4.455
			c0.959-1.049,2.289-1.574,3.984-1.574c1.619,0,2.881,0.463,3.783,1.386s1.354,2.197,1.354,3.823v1.519h-7.393
			c0.033,0.89,0.297,1.583,0.789,2.082c0.494,0.499,1.184,0.748,2.072,0.748c0.689,0,1.342-0.071,1.957-0.215
			c0.615-0.145,1.258-0.372,1.928-0.688v2.42c-0.547,0.274-1.131,0.479-1.752,0.61C640.769,813.626,640.009,813.693,639.115,813.693
			z M638.673,804.034c-0.662,0-1.182,0.21-1.559,0.631c-0.375,0.42-0.59,1.017-0.646,1.789h4.391
			c-0.016-0.772-0.217-1.369-0.605-1.789C639.863,804.244,639.337,804.034,638.673,804.034z"/>
		<path class="st1" d="M540.042,826.127c-1.196,0-2.123,0.449-2.779,1.348c-0.655,0.899-0.983,2.152-0.983,3.759
			c0,3.344,1.254,5.015,3.763,5.015c1.053,0,2.328-0.263,3.825-0.79v2.666c-1.23,0.514-2.604,0.771-4.122,0.771
			c-2.181,0-3.849-0.661-5.004-1.984c-1.155-1.322-1.733-3.221-1.733-5.695c0-1.559,0.284-2.925,0.852-4.097
			c0.566-1.173,1.382-2.071,2.444-2.697c1.063-0.625,2.31-0.938,3.738-0.938c1.456,0,2.919,0.353,4.389,1.057l-1.024,2.584
			c-0.562-0.267-1.125-0.499-1.692-0.697C541.146,826.229,540.588,826.127,540.042,826.127z"/>
		<path class="st1" d="M557.226,832.936c0,1.865-0.49,3.325-1.477,4.379c-0.984,1.053-2.355,1.578-4.111,1.578
			c-1.102,0-2.07-0.24-2.912-0.723s-1.486-1.174-1.938-2.076c-0.451-0.901-0.677-1.955-0.677-3.158c0-1.873,0.488-3.328,1.466-4.369
			c0.977-1.037,2.352-1.559,4.121-1.559c1.102,0,2.07,0.24,2.912,0.719c0.842,0.479,1.486,1.165,1.938,2.062
			C557,830.684,557.226,831.733,557.226,832.936z M549.3,832.936c0,1.136,0.188,1.992,0.561,2.573
			c0.371,0.581,0.979,0.872,1.818,0.872c0.834,0,1.436-0.289,1.801-0.867c0.365-0.577,0.549-1.437,0.549-2.578
			c0-1.135-0.186-1.985-0.555-2.554c-0.369-0.567-0.975-0.851-1.814-0.851c-0.834,0-1.438,0.28-1.805,0.846
			C549.486,830.941,549.3,831.794,549.3,832.936z"/>
		<path class="st1" d="M570.392,838.688h-3.127v-6.694c0-0.827-0.146-1.448-0.439-1.861c-0.295-0.414-0.764-0.621-1.406-0.621
			c-0.875,0-1.506,0.293-1.896,0.877c-0.391,0.585-0.584,1.555-0.584,2.907v5.395h-3.127v-11.465h2.389l0.42,1.467h0.174
			c0.35-0.554,0.83-0.973,1.441-1.257c0.611-0.282,1.307-0.426,2.086-0.426c1.334,0,2.346,0.361,3.035,1.082
			c0.689,0.722,1.035,1.763,1.035,3.123V838.688L570.392,838.688z"/>
		<path class="st1" d="M581.611,835.284c0,1.176-0.408,2.071-1.227,2.687c-0.816,0.616-2.039,0.923-3.666,0.923
			c-0.834,0-1.545-0.057-2.133-0.169s-1.137-0.277-1.65-0.497v-2.584c0.58,0.273,1.234,0.503,1.965,0.688
			c0.727,0.185,1.367,0.276,1.922,0.276c1.135,0,1.701-0.328,1.701-0.984c0-0.246-0.074-0.445-0.227-0.6
			c-0.15-0.153-0.41-0.328-0.779-0.522c-0.367-0.195-0.859-0.422-1.477-0.683c-0.881-0.369-1.529-0.71-1.943-1.025
			c-0.414-0.313-0.715-0.675-0.9-1.081c-0.189-0.407-0.283-0.907-0.283-1.503c0-1.018,0.395-1.806,1.186-2.363
			c0.789-0.557,1.908-0.836,3.357-0.836c1.381,0,2.725,0.303,4.031,0.902l-0.943,2.256c-0.574-0.246-1.111-0.447-1.611-0.604
			c-0.498-0.157-1.008-0.235-1.527-0.235c-0.922,0-1.383,0.249-1.383,0.748c0,0.28,0.148,0.522,0.445,0.729
			c0.297,0.205,0.949,0.51,1.953,0.912c0.896,0.362,1.553,0.701,1.969,1.017c0.418,0.314,0.727,0.676,0.924,1.086
			S581.611,834.716,581.611,835.284z"/>
		<path class="st1" d="M592.171,838.688l-0.42-1.467h-0.164c-0.334,0.533-0.809,0.945-1.424,1.236
			c-0.615,0.29-1.316,0.436-2.104,0.436c-1.346,0-2.361-0.359-3.045-1.082c-0.684-0.721-1.023-1.758-1.023-3.11v-7.477h3.127v6.696
			c0,0.827,0.146,1.447,0.439,1.86c0.295,0.414,0.764,0.62,1.406,0.62c0.875,0,1.506-0.292,1.896-0.876
			c0.391-0.585,0.584-1.555,0.584-2.907v-5.395h3.127v11.465H592.171L592.171,838.688z"/>
		<path class="st1" d="M600.98,838.688h-3.127v-15.954h3.127V838.688z"/>
		<path class="st1" d="M609.091,836.401c0.547,0,1.203-0.119,1.969-0.358v2.327c-0.779,0.35-1.736,0.522-2.871,0.522
			c-1.25,0-2.162-0.315-2.732-0.947c-0.572-0.633-0.857-1.581-0.857-2.847v-5.525h-1.496v-1.323l1.723-1.046l0.902-2.42h2v2.439
			h3.209v2.35h-3.209v5.525c0,0.444,0.125,0.772,0.373,0.984C608.351,836.295,608.681,836.401,609.091,836.401z"/>
		<path class="st1" d="M620.658,838.688l-0.605-1.559h-0.082c-0.525,0.663-1.066,1.123-1.625,1.379
			c-0.557,0.257-1.281,0.385-2.178,0.385c-1.102,0-1.967-0.313-2.6-0.942c-0.635-0.629-0.949-1.524-0.949-2.688
			c0-1.217,0.426-2.113,1.277-2.69c0.852-0.578,2.135-0.897,3.85-0.959l1.99-0.063v-0.502c0-1.162-0.596-1.744-1.785-1.744
			c-0.916,0-1.992,0.277-3.23,0.831l-1.035-2.111c1.318-0.69,2.781-1.035,4.389-1.035c1.539,0,2.717,0.335,3.539,1.004
			c0.818,0.671,1.229,1.688,1.229,3.057v7.64h-2.184V838.688z M619.736,833.376l-1.211,0.041c-0.908,0.027-1.586,0.191-2.029,0.492
			c-0.445,0.301-0.668,0.759-0.668,1.374c0,0.882,0.506,1.322,1.518,1.322c0.727,0,1.305-0.208,1.738-0.625s0.652-0.972,0.652-1.661
			V833.376L619.736,833.376z"/>
	</g>
</g>
<g id="Capa_17" class="st4">
	<path class="st3" d="M878.507,789.927c0-2.762,2.238-5,5-5h43.855l16.332-10.868l15.643,10.868h44.541c2.762,0,5,2.238,5,5v34.058
		c0,2.762-2.238,5-5,5H883.507c-2.762,0-5-2.238-5-5V789.927z"/>
	<g class="st2">
		<path class="st1" d="M910.941,800.927c-1.197,0-2.123,0.449-2.779,1.349c-0.656,0.898-0.984,2.151-0.984,3.758
			c0,3.344,1.254,5.015,3.766,5.015c1.053,0,2.326-0.263,3.822-0.79v2.666c-1.229,0.515-2.604,0.771-4.121,0.771
			c-2.182,0-3.85-0.661-5.004-1.984c-1.156-1.322-1.732-3.221-1.732-5.695c0-1.559,0.283-2.925,0.852-4.097
			c0.566-1.173,1.383-2.071,2.445-2.697c1.063-0.625,2.309-0.938,3.736-0.938c1.455,0,2.92,0.353,4.391,1.057l-1.025,2.584
			c-0.561-0.267-1.125-0.499-1.691-0.697C912.046,801.029,911.488,800.927,910.941,800.927z"/>
		<path class="st1" d="M924.988,813.488l-0.604-1.56h-0.082c-0.525,0.663-1.068,1.123-1.627,1.379
			c-0.557,0.258-1.283,0.386-2.178,0.386c-1.102,0-1.967-0.314-2.6-0.943s-0.949-1.524-0.949-2.688c0-1.217,0.426-2.113,1.277-2.69
			c0.852-0.578,2.135-0.897,3.85-0.959l1.99-0.063v-0.502c0-1.161-0.596-1.743-1.785-1.743c-0.916,0-1.992,0.276-3.229,0.83
			l-1.037-2.111c1.32-0.69,2.783-1.035,4.391-1.035c1.539,0,2.717,0.335,3.537,1.004c0.82,0.671,1.23,1.689,1.23,3.057v7.64
			L924.988,813.488L924.988,813.488z M924.066,808.176l-1.211,0.041c-0.908,0.027-1.586,0.191-2.029,0.492
			c-0.445,0.301-0.666,0.759-0.666,1.374c0,0.882,0.506,1.322,1.518,1.322c0.725,0,1.305-0.208,1.736-0.625
			c0.436-0.417,0.652-0.972,0.652-1.661V808.176z"/>
		<path class="st1" d="M936.791,801.808c0.424,0,0.775,0.031,1.057,0.094l-0.234,2.933c-0.254-0.068-0.563-0.104-0.924-0.104
			c-0.998,0-1.775,0.258-2.332,0.77c-0.559,0.514-0.838,1.229-0.838,2.154v5.834h-3.127v-11.465h2.369l0.461,1.929h0.154
			c0.355-0.644,0.836-1.16,1.441-1.555C935.421,802.005,936.08,801.808,936.791,801.808z"/>
		<path class="st1" d="M944.583,813.693c-3.568,0-5.354-1.959-5.354-5.875c0-1.949,0.486-3.438,1.457-4.467s2.361-1.544,4.174-1.544
			c1.326,0,2.516,0.262,3.568,0.779l-0.924,2.42c-0.492-0.197-0.949-0.36-1.373-0.486c-0.424-0.127-0.848-0.188-1.271-0.188
			c-1.627,0-2.441,1.155-2.441,3.465c0,2.243,0.814,3.363,2.441,3.363c0.602,0,1.158-0.08,1.672-0.24
			c0.512-0.161,1.023-0.412,1.537-0.754v2.676c-0.506,0.322-1.018,0.544-1.533,0.667S945.371,813.693,944.583,813.693z"/>
		<path class="st1" d="M958.005,813.488l-0.604-1.56h-0.082c-0.525,0.663-1.068,1.123-1.625,1.379
			c-0.559,0.258-1.283,0.386-2.18,0.386c-1.102,0-1.967-0.314-2.6-0.943s-0.949-1.524-0.949-2.688c0-1.217,0.428-2.113,1.277-2.69
			c0.852-0.578,2.135-0.897,3.85-0.959l1.99-0.063v-0.502c0-1.161-0.596-1.743-1.785-1.743c-0.916,0-1.992,0.276-3.229,0.83
			l-1.035-2.111c1.32-0.69,2.783-1.035,4.389-1.035c1.539,0,2.717,0.335,3.537,1.004c0.82,0.671,1.23,1.689,1.23,3.057v7.64
			L958.005,813.488L958.005,813.488z M957.083,808.176l-1.211,0.041c-0.908,0.027-1.586,0.191-2.029,0.492s-0.666,0.759-0.666,1.374
			c0,0.882,0.506,1.322,1.518,1.322c0.725,0,1.305-0.208,1.736-0.625c0.436-0.417,0.652-0.972,0.652-1.661V808.176z"/>
		<path class="st1" d="M971.388,813.488h-9.055v-1.847l5.311-7.229h-4.992v-2.39h8.553v2.029l-5.168,7.045h5.352V813.488
			L971.388,813.488z"/>
		<path class="st1" d="M980.933,813.488l-0.604-1.56h-0.082c-0.525,0.663-1.068,1.123-1.625,1.379
			c-0.557,0.258-1.283,0.386-2.178,0.386c-1.104,0-1.969-0.314-2.602-0.943s-0.947-1.524-0.947-2.688
			c0-1.217,0.426-2.113,1.275-2.69c0.854-0.578,2.135-0.897,3.852-0.959l1.988-0.063v-0.502c0-1.161-0.596-1.743-1.783-1.743
			c-0.916,0-1.992,0.276-3.23,0.83l-1.035-2.111c1.32-0.69,2.783-1.035,4.389-1.035c1.539,0,2.719,0.335,3.537,1.004
			c0.82,0.671,1.23,1.689,1.23,3.057v7.64L980.933,813.488L980.933,813.488z M980.011,808.176l-1.211,0.041
			c-0.908,0.027-1.586,0.191-2.027,0.492c-0.445,0.301-0.668,0.759-0.668,1.374c0,0.882,0.506,1.322,1.518,1.322
			c0.725,0,1.305-0.208,1.738-0.625s0.65-0.972,0.65-1.661V808.176z"/>
	</g>
</g>
<g id="Capa_16" class="st4">
	<path class="st3" d="M722.796,789.927c0-2.762,2.238-5,5-5h23.842l16.332-10.868l15.645,10.868h24.527c2.764,0,5,2.238,5,5V848
		c0,2.762-2.236,5-5,5h-80.346c-2.762,0-5-2.238-5-5V789.927L722.796,789.927z"/>
	<g class="st2">
		<path class="st1" d="M742.611,813.488v-14.991h3.18v12.366h6.08v2.625H742.611z"/>
		<path class="st1" d="M761.509,813.488l-0.604-1.56h-0.082c-0.527,0.663-1.068,1.123-1.625,1.379
			c-0.559,0.258-1.283,0.386-2.182,0.386c-1.1,0-1.967-0.314-2.6-0.943c-0.631-0.629-0.947-1.524-0.947-2.688
			c0-1.217,0.428-2.113,1.275-2.69c0.852-0.578,2.135-0.897,3.852-0.959l1.988-0.063v-0.502c0-1.161-0.594-1.743-1.783-1.743
			c-0.916,0-1.992,0.276-3.229,0.83l-1.035-2.111c1.318-0.69,2.781-1.035,4.389-1.035c1.537,0,2.717,0.335,3.537,1.004
			c0.82,0.671,1.23,1.689,1.23,3.057v7.64L761.509,813.488L761.509,813.488z M760.585,808.176l-1.209,0.041
			c-0.91,0.027-1.586,0.191-2.031,0.492c-0.441,0.301-0.666,0.759-0.666,1.374c0,0.882,0.506,1.322,1.52,1.322
			c0.725,0,1.303-0.208,1.736-0.625c0.436-0.417,0.65-0.972,0.65-1.661V808.176z M757.111,800.763v-0.276
			c1.176-1.367,1.979-2.396,2.408-3.086h3.508v0.215c-0.355,0.354-0.963,0.884-1.82,1.584c-0.857,0.701-1.529,1.223-2.016,1.563
			H757.111L757.111,800.763z"/>
		<path class="st1" d="M773.208,813.693c-1.346,0-2.402-0.488-3.168-1.468h-0.164c0.109,0.958,0.164,1.512,0.164,1.662v4.646h-3.127
			v-16.509h2.543l0.439,1.486h0.145c0.73-1.135,1.814-1.703,3.25-1.703c1.354,0,2.414,0.523,3.18,1.569s1.148,2.499,1.148,4.358
			c0,1.224-0.18,2.286-0.539,3.188c-0.359,0.902-0.869,1.589-1.533,2.063C774.884,813.457,774.103,813.693,773.208,813.693z
			 M772.287,804.31c-0.773,0-1.338,0.238-1.693,0.714c-0.354,0.476-0.539,1.26-0.553,2.354v0.338c0,1.23,0.182,2.113,0.549,2.646
			c0.365,0.533,0.945,0.799,1.738,0.799c1.4,0,2.102-1.154,2.102-3.465c0-1.129-0.174-1.976-0.518-2.538
			C773.566,804.592,773.025,804.31,772.287,804.31z"/>
		<path class="st1" d="M780.068,799.06c0-1.018,0.568-1.526,1.703-1.526s1.701,0.51,1.701,1.526c0,0.486-0.143,0.863-0.426,1.135
			c-0.283,0.27-0.709,0.404-1.275,0.404C780.636,800.599,780.068,800.085,780.068,799.06z M783.33,813.488h-3.127v-11.464h3.127
			V813.488z"/>
		<path class="st1" d="M794.587,813.488h-9.053v-1.847l5.311-7.229h-4.994v-2.39h8.555v2.029l-5.168,7.045h5.352v2.391H794.587z"/>
		<path class="st1" d="M746.851,838.688h-3.18v-12.346h-4.07v-2.646h11.32v2.646h-4.07V838.688z"/>
		<path class="st1" d="M760.263,838.688l-0.604-1.559h-0.082c-0.527,0.663-1.068,1.123-1.625,1.379
			c-0.559,0.257-1.283,0.385-2.18,0.385c-1.102,0-1.969-0.313-2.602-0.942c-0.631-0.629-0.947-1.524-0.947-2.688
			c0-1.217,0.428-2.113,1.275-2.69c0.852-0.578,2.135-0.897,3.852-0.959l1.988-0.063v-0.502c0-1.162-0.594-1.744-1.783-1.744
			c-0.916,0-1.992,0.277-3.229,0.831l-1.035-2.111c1.318-0.69,2.781-1.035,4.389-1.035c1.537,0,2.717,0.335,3.537,1.004
			c0.82,0.671,1.23,1.688,1.23,3.057v7.64h-2.186V838.688z M759.339,833.376l-1.209,0.041c-0.91,0.027-1.586,0.191-2.031,0.492
			c-0.441,0.301-0.666,0.759-0.666,1.374c0,0.882,0.508,1.322,1.52,1.322c0.725,0,1.303-0.208,1.738-0.625
			c0.434-0.417,0.648-0.972,0.648-1.661V833.376z M755.865,825.963v-0.277c1.176-1.366,1.979-2.396,2.408-3.086h3.508v0.216
			c-0.355,0.354-0.963,0.884-1.82,1.584s-1.529,1.223-2.016,1.563H755.865L755.865,825.963z"/>
		<path class="st1" d="M770.322,838.893c-3.568,0-5.354-1.959-5.354-5.875c0-1.948,0.486-3.438,1.457-4.466s2.361-1.544,4.174-1.544
			c1.326,0,2.516,0.261,3.568,0.779l-0.924,2.42c-0.492-0.197-0.949-0.36-1.373-0.486c-0.424-0.127-0.85-0.188-1.271-0.188
			c-1.627,0-2.441,1.154-2.441,3.465c0,2.243,0.814,3.363,2.441,3.363c0.602,0,1.158-0.08,1.67-0.24
			c0.514-0.161,1.025-0.412,1.539-0.754v2.676c-0.506,0.322-1.018,0.544-1.533,0.667S771.109,838.893,770.322,838.893z"/>
		<path class="st1" d="M781.294,836.401c0.547,0,1.203-0.119,1.969-0.358v2.327c-0.779,0.35-1.736,0.522-2.871,0.522
			c-1.252,0-2.162-0.315-2.732-0.947c-0.57-0.633-0.855-1.581-0.855-2.847v-5.525h-1.498v-1.323l1.725-1.046l0.9-2.42h2v2.439h3.209
			v2.35h-3.209v5.525c0,0.444,0.125,0.772,0.375,0.984C780.554,836.295,780.884,836.401,781.294,836.401z"/>
		<path class="st1" d="M785.447,824.26c0-1.018,0.566-1.526,1.701-1.526s1.703,0.51,1.703,1.526c0,0.486-0.143,0.863-0.426,1.134
			c-0.285,0.271-0.709,0.405-1.277,0.405C786.013,825.799,785.447,825.286,785.447,824.26z M788.707,838.688h-3.127v-11.464h3.127
			V838.688z"/>
		<path class="st1" d="M795.117,838.688h-3.129v-15.954h3.129V838.688z"/>
	</g>
</g>
<g id="Capa_15" class="st4">
	<path class="st3" d="M985.75,169.589c0,2.762-2.238,5-5,5h-43.855l-16.332,10.868l-15.643-10.868H860.38c-2.762,0-5-2.238-5-5
		v-34.057c0-2.762,2.238-5,5-5H980.75c2.762,0,5,2.238,5,5V169.589z"/>
	<g class="st2">
		<path class="st1" d="M882.742,158.955l-3.609-11.762h-0.092c0.129,2.394,0.195,3.989,0.195,4.789v6.973h-2.842v-14.991h4.328
			l3.547,11.464h0.063l3.764-11.464h4.326v14.991h-2.963v-7.096c0-0.335,0.004-0.721,0.016-1.158c0.012-0.438,0.057-1.6,0.139-3.486
			h-0.094l-3.863,11.74H882.742z"/>
		<path class="st1" d="M895.816,144.527c0-1.018,0.566-1.527,1.701-1.527s1.703,0.51,1.703,1.527c0,0.486-0.143,0.863-0.426,1.134
			c-0.285,0.27-0.709,0.405-1.277,0.405C896.382,146.066,895.816,145.552,895.816,144.527z M899.076,158.955h-3.127v-11.464h3.127
			V158.955z"/>
		<path class="st1" d="M907.013,159.16c-3.566,0-5.354-1.959-5.354-5.875c0-1.949,0.486-3.438,1.457-4.466
			c0.971-1.029,2.361-1.544,4.174-1.544c1.326,0,2.516,0.261,3.566,0.779l-0.922,2.42c-0.492-0.197-0.949-0.36-1.375-0.486
			c-0.424-0.127-0.848-0.189-1.27-0.189c-1.627,0-2.441,1.155-2.441,3.465c0,2.243,0.814,3.363,2.441,3.363
			c0.602,0,1.158-0.08,1.67-0.24c0.514-0.161,1.025-0.412,1.539-0.754v2.676c-0.506,0.322-1.018,0.544-1.533,0.667
			C908.451,159.098,907.798,159.16,907.013,159.16z"/>
		<path class="st1" d="M919.554,147.275c0.424,0,0.775,0.031,1.057,0.093l-0.236,2.933c-0.252-0.068-0.561-0.103-0.922-0.103
			c-0.998,0-1.775,0.257-2.334,0.769c-0.557,0.514-0.834,1.23-0.834,2.154v5.834h-3.129v-11.464h2.369l0.461,1.928h0.152
			c0.355-0.643,0.836-1.16,1.441-1.554C918.185,147.472,918.843,147.275,919.554,147.275z"/>
		<path class="st1" d="M933.109,153.203c0,1.865-0.492,3.325-1.477,4.378c-0.984,1.053-2.355,1.579-4.111,1.579
			c-1.102,0-2.072-0.241-2.912-0.723c-0.842-0.482-1.486-1.174-1.938-2.076c-0.451-0.902-0.678-1.955-0.678-3.158
			c0-1.873,0.488-3.329,1.467-4.369c0.977-1.038,2.352-1.559,4.121-1.559c1.102,0,2.072,0.24,2.912,0.719
			c0.842,0.479,1.486,1.165,1.938,2.061S933.109,152,933.109,153.203z M925.183,153.203c0,1.135,0.188,1.992,0.561,2.573
			c0.371,0.581,0.979,0.872,1.82,0.872c0.834,0,1.434-0.289,1.799-0.867c0.363-0.577,0.549-1.438,0.549-2.578
			c0-1.135-0.186-1.986-0.555-2.554s-0.975-0.851-1.814-0.851c-0.834,0-1.436,0.281-1.805,0.846
			C925.367,151.208,925.183,152.061,925.183,153.203z"/>
		<path class="st1" d="M950.244,154.792c0,1.354-0.486,2.42-1.461,3.199c-0.975,0.779-2.33,1.169-4.066,1.169
			c-1.6,0-3.014-0.301-4.244-0.902v-2.953c1.012,0.451,1.867,0.77,2.568,0.953c0.699,0.186,1.342,0.277,1.922,0.277
			c0.697,0,1.232-0.133,1.605-0.4c0.371-0.266,0.559-0.662,0.559-1.188c0-0.293-0.082-0.555-0.246-0.784s-0.404-0.449-0.723-0.661
			s-0.967-0.55-1.943-1.016c-0.916-0.43-1.604-0.844-2.061-1.24c-0.459-0.396-0.824-0.857-1.098-1.385
			c-0.273-0.525-0.41-1.141-0.41-1.846c0-1.325,0.449-2.368,1.348-3.127c0.9-0.759,2.143-1.139,3.729-1.139
			c0.779,0,1.521,0.093,2.23,0.277c0.707,0.185,1.447,0.444,2.219,0.779l-1.023,2.471c-0.801-0.328-1.463-0.557-1.984-0.687
			c-0.523-0.13-1.037-0.194-1.543-0.194c-0.604,0-1.064,0.14-1.385,0.42s-0.482,0.646-0.482,1.098c0,0.28,0.066,0.524,0.195,0.732
			c0.131,0.209,0.336,0.41,0.621,0.605c0.281,0.194,0.953,0.545,2.014,1.051c1.402,0.67,2.363,1.342,2.883,2.015
			C949.984,152.989,950.244,153.814,950.244,154.792z"/>
		<path class="st1" d="M965.398,151.316c0,2.468-0.701,4.357-2.105,5.67c-1.406,1.313-3.434,1.969-6.086,1.969h-4.246v-14.991h4.707
			c2.447,0,4.348,0.646,5.701,1.938C964.722,147.193,965.398,148.998,965.398,151.316z M962.097,151.398
			c0-3.221-1.422-4.83-4.266-4.83h-1.691v9.762h1.363C960.566,156.33,962.097,154.686,962.097,151.398z"/>
	</g>
</g>
<g id="Capa_14" class="st4">
	<path class="st3" d="M797.376,169.589c0,2.762-2.238,5-5,5h-43.854l-16.332,10.868l-15.643-10.868h-44.541c-2.762,0-5-2.238-5-5
		V27.464c0-2.762,2.238-5,5-5h120.369c2.762,0,5,2.238,5,5V169.589L797.376,169.589z"/>
	<g class="st2">
		<path class="st1" d="M695.785,52.01c-1.195,0-2.123,0.449-2.779,1.348s-0.984,2.152-0.984,3.758c0,3.344,1.256,5.015,3.766,5.015
			c1.053,0,2.328-0.263,3.824-0.79v2.666c-1.23,0.514-2.605,0.77-4.121,0.77c-2.184,0-3.852-0.661-5.004-1.984
			c-1.156-1.322-1.734-3.221-1.734-5.695c0-1.559,0.285-2.925,0.852-4.097c0.568-1.173,1.383-2.071,2.445-2.697
			c1.063-0.625,2.311-0.938,3.738-0.938c1.455,0,2.918,0.353,4.389,1.057l-1.025,2.584c-0.561-0.267-1.125-0.499-1.691-0.697
			C696.888,52.109,696.332,52.01,695.785,52.01z"/>
		<path class="st1" d="M709.833,64.571l-0.605-1.559h-0.08c-0.527,0.663-1.068,1.123-1.627,1.379
			c-0.559,0.257-1.283,0.385-2.18,0.385c-1.1,0-1.967-0.314-2.6-0.943s-0.947-1.524-0.947-2.687c0-1.217,0.426-2.114,1.275-2.691
			c0.852-0.578,2.135-0.897,3.852-0.959l1.988-0.062v-0.502c0-1.162-0.594-1.744-1.783-1.744c-0.916,0-1.994,0.277-3.229,0.831
			l-1.037-2.112c1.318-0.69,2.781-1.035,4.389-1.035c1.539,0,2.719,0.335,3.539,1.004c0.82,0.671,1.229,1.689,1.229,3.057v7.639
			h-2.184V64.571z M708.91,59.259l-1.209,0.041c-0.91,0.027-1.586,0.191-2.031,0.492c-0.443,0.301-0.666,0.759-0.666,1.374
			c0,0.882,0.506,1.322,1.518,1.322c0.727,0,1.305-0.208,1.738-0.625c0.434-0.417,0.65-0.971,0.65-1.661V59.259z"/>
		<path class="st1" d="M721.615,52.891c1.354,0,2.412,0.528,3.178,1.585c0.766,1.056,1.148,2.504,1.148,4.343
			c0,1.894-0.395,3.359-1.184,4.398s-1.865,1.559-3.225,1.559c-1.35,0-2.404-0.488-3.17-1.467h-0.217l-0.521,1.262h-2.389V48.616
			h3.127v3.712c0,0.472-0.041,1.228-0.123,2.267h0.123C719.095,53.459,720.179,52.891,721.615,52.891z M720.609,55.393
			c-0.771,0-1.336,0.238-1.691,0.713c-0.354,0.476-0.539,1.26-0.553,2.354v0.338c0,1.23,0.182,2.113,0.547,2.646
			c0.367,0.533,0.945,0.799,1.738,0.799c0.643,0,1.154-0.295,1.533-0.887c0.379-0.591,0.568-1.451,0.568-2.578
			c0-1.129-0.191-1.975-0.574-2.538C721.796,55.675,721.273,55.393,720.609,55.393z"/>
		<path class="st1" d="M731.654,64.571h-3.129V48.616h3.129V64.571z"/>
		<path class="st1" d="M740.123,64.776c-1.846,0-3.287-0.509-4.326-1.527s-1.559-2.461-1.559-4.328c0-1.92,0.479-3.405,1.439-4.455
			c0.961-1.049,2.289-1.574,3.984-1.574c1.619,0,2.881,0.462,3.783,1.385c0.9,0.923,1.354,2.198,1.354,3.824v1.518h-7.393
			c0.031,0.89,0.297,1.583,0.789,2.082c0.49,0.499,1.182,0.748,2.07,0.748c0.689,0,1.344-0.071,1.957-0.215
			c0.615-0.144,1.258-0.372,1.93-0.688v2.42c-0.549,0.274-1.133,0.478-1.754,0.61C741.777,64.709,741.019,64.776,740.123,64.776z
			 M739.681,55.117c-0.662,0-1.182,0.21-1.559,0.631c-0.375,0.42-0.59,1.017-0.646,1.789h4.391
			c-0.016-0.772-0.217-1.369-0.605-1.789C740.871,55.327,740.345,55.117,739.681,55.117z"/>
		<path class="st1" d="M756.427,64.776c-1.348,0-2.404-0.523-3.174-1.568c-0.77-1.047-1.154-2.495-1.154-4.348
			c0-1.88,0.393-3.345,1.176-4.395c0.781-1.049,1.859-1.574,3.234-1.574c1.441,0,2.543,0.562,3.301,1.682h0.104
			c-0.156-0.854-0.234-1.616-0.234-2.286v-3.671h3.137v15.955h-2.398l-0.604-1.486h-0.135
			C758.966,64.211,757.882,64.776,756.427,64.776z M757.523,62.284c0.801,0,1.387-0.231,1.76-0.697
			c0.371-0.464,0.576-1.254,0.609-2.368V58.88c0-1.23-0.189-2.111-0.568-2.645c-0.379-0.533-0.996-0.801-1.852-0.801
			c-0.697,0-1.238,0.296-1.625,0.888c-0.387,0.591-0.58,1.45-0.58,2.579c0,1.127,0.195,1.974,0.584,2.537
			C756.242,62.002,756.798,62.284,757.523,62.284z"/>
		<path class="st1" d="M771.275,64.776c-1.848,0-3.289-0.509-4.328-1.527s-1.559-2.461-1.559-4.328c0-1.92,0.48-3.405,1.439-4.455
			c0.961-1.049,2.289-1.574,3.982-1.574c1.621,0,2.883,0.462,3.785,1.385c0.902,0.923,1.354,2.198,1.354,3.824v1.518h-7.395
			c0.035,0.89,0.299,1.583,0.791,2.082s1.184,0.748,2.07,0.748c0.689,0,1.344-0.071,1.959-0.215s1.258-0.372,1.928-0.688v2.42
			c-0.547,0.274-1.131,0.478-1.754,0.61C772.929,64.709,772.169,64.776,771.275,64.776z M770.833,55.117
			c-0.664,0-1.184,0.21-1.559,0.631c-0.377,0.42-0.592,1.017-0.646,1.789h4.389c-0.014-0.772-0.215-1.369-0.604-1.789
			C772.023,55.327,771.496,55.117,770.833,55.117z"/>
		<path class="st1" d="M707.423,82.132c0,2.468-0.703,4.357-2.105,5.67c-1.404,1.313-3.436,1.969-6.086,1.969h-4.244V74.78h4.705
			c2.447,0,4.348,0.646,5.701,1.938C706.748,78.009,707.423,79.814,707.423,82.132z M704.123,82.214c0-3.221-1.422-4.83-4.266-4.83
			h-1.693v9.762h1.365C702.591,87.146,704.123,85.502,704.123,82.214z"/>
		<path class="st1" d="M717.564,89.771l-0.604-1.559h-0.082c-0.527,0.663-1.068,1.123-1.627,1.379
			c-0.557,0.257-1.283,0.385-2.178,0.385c-1.102,0-1.967-0.314-2.6-0.943c-0.633-0.629-0.949-1.524-0.949-2.687
			c0-1.217,0.426-2.114,1.277-2.691c0.852-0.578,2.135-0.897,3.85-0.959l1.99-0.062v-0.502c0-1.162-0.596-1.744-1.785-1.744
			c-0.916,0-1.992,0.277-3.229,0.831l-1.037-2.112c1.32-0.69,2.783-1.035,4.391-1.035c1.539,0,2.717,0.335,3.537,1.004
			c0.82,0.671,1.23,1.689,1.23,3.057v7.639L717.564,89.771L717.564,89.771z M716.642,84.459l-1.211,0.041
			c-0.906,0.027-1.586,0.191-2.027,0.492c-0.445,0.301-0.668,0.759-0.668,1.374c0,0.882,0.506,1.322,1.518,1.322
			c0.725,0,1.305-0.208,1.738-0.625s0.65-0.971,0.65-1.661V84.459z"/>
		<path class="st1" d="M727.798,87.484c0.547,0,1.203-0.119,1.969-0.358v2.327c-0.777,0.35-1.734,0.523-2.869,0.523
			c-1.254,0-2.162-0.316-2.734-0.948c-0.57-0.633-0.855-1.581-0.855-2.846v-5.526h-1.496v-1.323l1.723-1.046l0.902-2.42h2v2.44
			h3.209v2.349h-3.209v5.526c0,0.444,0.123,0.772,0.373,0.984S727.388,87.484,727.798,87.484z"/>
		<path class="st1" d="M742.501,84.019c0,1.865-0.492,3.325-1.477,4.378s-2.354,1.579-4.111,1.579c-1.102,0-2.07-0.241-2.912-0.723
			c-0.84-0.482-1.486-1.174-1.938-2.076c-0.451-0.902-0.678-1.955-0.678-3.158c0-1.873,0.488-3.329,1.467-4.369
			c0.979-1.038,2.352-1.559,4.121-1.559c1.102,0,2.072,0.24,2.912,0.719c0.842,0.479,1.488,1.165,1.939,2.061
			S742.501,82.816,742.501,84.019z M734.576,84.019c0,1.135,0.186,1.992,0.559,2.573s0.98,0.872,1.82,0.872
			c0.834,0,1.434-0.289,1.799-0.867c0.367-0.577,0.549-1.437,0.549-2.578c0-1.135-0.184-1.986-0.553-2.554
			c-0.369-0.568-0.975-0.851-1.814-0.851c-0.834,0-1.436,0.281-1.805,0.846C734.761,82.024,734.576,82.877,734.576,84.019z"/>
		<path class="st1" d="M753.083,86.367c0,1.176-0.408,2.071-1.225,2.687c-0.816,0.615-2.039,0.923-3.666,0.923
			c-0.834,0-1.545-0.057-2.133-0.169c-0.588-0.113-1.139-0.278-1.65-0.497v-2.584c0.58,0.273,1.234,0.502,1.963,0.687
			s1.369,0.276,1.924,0.276c1.135,0,1.701-0.328,1.701-0.984c0-0.246-0.074-0.445-0.227-0.6c-0.148-0.153-0.408-0.328-0.777-0.522
			c-0.369-0.195-0.861-0.422-1.479-0.683c-0.881-0.369-1.529-0.71-1.941-1.025c-0.414-0.313-0.715-0.675-0.902-1.081
			c-0.188-0.407-0.283-0.907-0.283-1.503c0-1.018,0.396-1.806,1.188-2.363c0.789-0.557,1.908-0.836,3.355-0.836
			c1.381,0,2.727,0.302,4.029,0.902l-0.943,2.256c-0.572-0.246-1.109-0.447-1.607-0.604c-0.5-0.157-1.008-0.235-1.527-0.235
			c-0.924,0-1.385,0.249-1.385,0.748c0,0.28,0.146,0.523,0.445,0.729c0.299,0.205,0.947,0.509,1.953,0.912
			c0.896,0.362,1.553,0.701,1.969,1.016c0.418,0.315,0.725,0.676,0.924,1.086C752.986,85.313,753.083,85.799,753.083,86.367z"/>
		<path class="st1" d="M759.339,78.307h3.424l2.164,6.45c0.186,0.561,0.313,1.224,0.379,1.988h0.064
			c0.074-0.703,0.221-1.366,0.439-1.988l2.121-6.45h3.355l-4.85,12.931c-0.445,1.195-1.08,2.092-1.902,2.686
			c-0.824,0.596-1.787,0.893-2.887,0.893c-0.541,0-1.07-0.059-1.592-0.174V92.16c0.377,0.089,0.787,0.134,1.23,0.134
			c0.555,0,1.037-0.169,1.451-0.508c0.414-0.338,0.736-0.85,0.969-1.532l0.186-0.564L759.339,78.307z"/>
		<path class="st1" d="M694.796,102.411c-1.197,0-2.123,0.449-2.779,1.348c-0.654,0.899-0.982,2.152-0.982,3.758
			c0,3.344,1.254,5.015,3.762,5.015c1.053,0,2.328-0.263,3.826-0.79v2.666c-1.23,0.514-2.605,0.77-4.123,0.77
			c-2.18,0-3.848-0.661-5.004-1.984c-1.154-1.322-1.732-3.221-1.732-5.695c0-1.559,0.283-2.925,0.852-4.097
			c0.566-1.173,1.383-2.071,2.445-2.697c1.063-0.625,2.309-0.938,3.736-0.938c1.457,0,2.92,0.353,4.389,1.057l-1.023,2.584
			c-0.563-0.267-1.125-0.499-1.693-0.697C695.9,102.509,695.343,102.411,694.796,102.411z"/>
		<path class="st1" d="M708.843,114.971l-0.604-1.559h-0.082c-0.525,0.663-1.068,1.123-1.625,1.379
			c-0.559,0.257-1.283,0.385-2.18,0.385c-1.102,0-1.969-0.314-2.6-0.943c-0.633-0.629-0.949-1.524-0.949-2.687
			c0-1.217,0.428-2.114,1.277-2.691c0.852-0.578,2.135-0.897,3.85-0.959l1.99-0.062v-0.502c0-1.162-0.596-1.744-1.785-1.744
			c-0.916,0-1.99,0.277-3.229,0.831l-1.035-2.112c1.318-0.69,2.781-1.035,4.389-1.035c1.537,0,2.717,0.335,3.537,1.004
			c0.82,0.671,1.23,1.689,1.23,3.057v7.639L708.843,114.971L708.843,114.971z M707.921,109.66l-1.211,0.041
			c-0.908,0.027-1.586,0.191-2.029,0.492c-0.443,0.301-0.668,0.759-0.668,1.374c0,0.882,0.506,1.322,1.52,1.322
			c0.725,0,1.305-0.208,1.736-0.625c0.434-0.417,0.652-0.971,0.652-1.661V109.66L707.921,109.66z"/>
		<path class="st1" d="M720.646,103.292c0.424,0,0.775,0.031,1.057,0.093l-0.236,2.933c-0.254-0.068-0.561-0.103-0.924-0.103
			c-0.998,0-1.775,0.257-2.332,0.769c-0.557,0.514-0.836,1.23-0.836,2.154v5.834h-3.127v-11.464h2.369l0.461,1.928h0.154
			c0.354-0.643,0.834-1.16,1.439-1.554C719.277,103.489,719.935,103.292,720.646,103.292z"/>
		<path class="st1" d="M733.761,103.507v1.589l-1.795,0.462c0.328,0.513,0.492,1.087,0.492,1.723c0,1.229-0.43,2.188-1.287,2.876
			s-2.049,1.031-3.574,1.031l-0.563-0.031l-0.461-0.051c-0.32,0.246-0.482,0.52-0.482,0.82c0,0.451,0.574,0.676,1.725,0.676h1.947
			c1.258,0,2.217,0.271,2.877,0.811c0.658,0.54,0.988,1.333,0.988,2.379c0,1.34-0.559,2.379-1.676,3.117
			c-1.117,0.738-2.725,1.107-4.814,1.107c-1.6,0-2.822-0.278-3.666-0.836c-0.844-0.557-1.266-1.338-1.266-2.343
			c0-0.69,0.215-1.269,0.645-1.733c0.432-0.464,1.064-0.796,1.898-0.994c-0.322-0.137-0.604-0.36-0.842-0.672
			c-0.238-0.311-0.359-0.641-0.359-0.989c0-0.438,0.127-0.802,0.381-1.092c0.252-0.291,0.617-0.576,1.098-0.856
			c-0.604-0.26-1.08-0.677-1.432-1.251s-0.527-1.251-0.527-2.03c0-1.251,0.406-2.218,1.221-2.902
			c0.813-0.683,1.975-1.025,3.486-1.025c0.32,0,0.701,0.029,1.143,0.088c0.441,0.058,0.723,0.101,0.846,0.128h3.998V103.507z
			 M724.912,116.591c0,0.431,0.207,0.769,0.619,1.015c0.414,0.246,0.994,0.369,1.738,0.369c1.121,0,2-0.153,2.637-0.461
			c0.635-0.308,0.953-0.729,0.953-1.262c0-0.43-0.188-0.728-0.564-0.892c-0.375-0.164-0.957-0.246-1.742-0.246h-1.621
			c-0.572,0-1.055,0.135-1.439,0.405C725.103,115.79,724.912,116.147,724.912,116.591z M726.05,107.26
			c0,0.622,0.143,1.114,0.424,1.477c0.285,0.362,0.719,0.543,1.299,0.543c0.588,0,1.02-0.181,1.291-0.543
			c0.273-0.362,0.41-0.854,0.41-1.477c0-1.381-0.566-2.071-1.701-2.071C726.625,105.189,726.05,105.879,726.05,107.26z"/>
		<path class="st1" d="M742.927,114.971l-0.604-1.559h-0.082c-0.525,0.663-1.068,1.123-1.625,1.379
			c-0.559,0.257-1.283,0.385-2.18,0.385c-1.102,0-1.969-0.314-2.6-0.943c-0.633-0.629-0.949-1.524-0.949-2.687
			c0-1.217,0.428-2.114,1.277-2.691c0.852-0.578,2.135-0.897,3.85-0.959l1.99-0.062v-0.502c0-1.162-0.596-1.744-1.785-1.744
			c-0.916,0-1.99,0.277-3.229,0.831l-1.035-2.112c1.318-0.69,2.781-1.035,4.389-1.035c1.537,0,2.717,0.335,3.537,1.004
			c0.82,0.671,1.23,1.689,1.23,3.057v7.639L742.927,114.971L742.927,114.971z M742.005,109.66l-1.211,0.041
			c-0.908,0.027-1.586,0.191-2.029,0.492c-0.443,0.301-0.668,0.759-0.668,1.374c0,0.882,0.506,1.322,1.52,1.322
			c0.725,0,1.305-0.208,1.736-0.625c0.434-0.417,0.652-0.971,0.652-1.661V109.66L742.005,109.66z"/>
		<path class="st1" d="M757.416,115.176c-1.346,0-2.404-0.523-3.174-1.568c-0.768-1.047-1.152-2.495-1.152-4.348
			c0-1.88,0.393-3.345,1.174-4.395c0.783-1.049,1.861-1.574,3.234-1.574c1.443,0,2.543,0.562,3.303,1.682h0.104
			c-0.156-0.854-0.236-1.616-0.236-2.286v-3.671h3.139v15.955h-2.398l-0.605-1.486h-0.133
			C759.957,114.612,758.873,115.176,757.416,115.176z M758.513,112.684c0.801,0,1.387-0.231,1.758-0.697
			c0.373-0.464,0.576-1.254,0.611-2.368v-0.339c0-1.23-0.188-2.111-0.57-2.646c-0.379-0.533-0.994-0.801-1.85-0.801
			c-0.697,0-1.24,0.296-1.625,0.888c-0.387,0.591-0.58,1.45-0.58,2.579c0,1.127,0.195,1.974,0.584,2.537
			C757.232,112.403,757.789,112.684,758.513,112.684z"/>
		<path class="st1" d="M772.263,115.176c-1.846,0-3.287-0.509-4.326-1.527c-1.037-1.018-1.559-2.461-1.559-4.328
			c0-1.92,0.48-3.405,1.439-4.455c0.961-1.049,2.289-1.574,3.984-1.574c1.619,0,2.881,0.462,3.783,1.385
			c0.902,0.923,1.354,2.198,1.354,3.824v1.518h-7.393c0.033,0.89,0.297,1.583,0.789,2.082s1.184,0.748,2.072,0.748
			c0.688,0,1.342-0.071,1.957-0.215c0.615-0.144,1.258-0.372,1.928-0.688v2.42c-0.547,0.274-1.131,0.478-1.752,0.61
			C773.917,115.11,773.16,115.176,772.263,115.176z M771.824,105.517c-0.664,0-1.184,0.21-1.561,0.631
			c-0.375,0.42-0.59,1.017-0.645,1.789h4.389c-0.014-0.772-0.217-1.369-0.605-1.789
			C773.013,105.727,772.486,105.517,771.824,105.517z"/>
		<path class="st1" d="M695.605,125.179h4.666c2.125,0,3.67,0.303,4.629,0.907c0.961,0.605,1.441,1.567,1.441,2.887
			c0,0.896-0.211,1.631-0.631,2.205c-0.42,0.574-0.979,0.919-1.676,1.035v0.103c0.949,0.212,1.635,0.608,2.055,1.189
			c0.422,0.581,0.631,1.354,0.631,2.317c0,1.367-0.494,2.434-1.48,3.199c-0.988,0.766-2.33,1.148-4.025,1.148h-5.609V125.179
			L695.605,125.179z M698.785,131.116h1.846c0.861,0,1.484-0.133,1.871-0.399c0.387-0.267,0.58-0.708,0.58-1.323
			c0-0.574-0.211-0.985-0.631-1.235c-0.422-0.249-1.086-0.374-1.994-0.374h-1.672V131.116L698.785,131.116z M698.785,133.639v3.906
			h2.07c0.875,0,1.521-0.167,1.938-0.502c0.418-0.335,0.627-0.848,0.627-1.539c0-1.243-0.889-1.865-2.666-1.865H698.785z"/>
		<path class="st1" d="M716.75,140.17l-0.605-1.559h-0.08c-0.527,0.663-1.068,1.123-1.625,1.379
			c-0.559,0.257-1.283,0.385-2.182,0.385c-1.1,0-1.967-0.314-2.6-0.943c-0.631-0.629-0.947-1.524-0.947-2.687
			c0-1.217,0.426-2.114,1.275-2.691c0.852-0.578,2.135-0.897,3.852-0.959l1.988-0.062v-0.502c0-1.162-0.594-1.744-1.783-1.744
			c-0.916,0-1.992,0.277-3.229,0.831l-1.035-2.112c1.316-0.69,2.779-1.035,4.389-1.035c1.537,0,2.717,0.335,3.537,1.004
			c0.82,0.671,1.229,1.689,1.229,3.057v7.639L716.75,140.17L716.75,140.17z M715.826,134.859l-1.209,0.041
			c-0.91,0.027-1.586,0.191-2.031,0.492c-0.443,0.301-0.666,0.759-0.666,1.374c0,0.882,0.506,1.322,1.518,1.322
			c0.727,0,1.305-0.208,1.738-0.625c0.436-0.417,0.65-0.971,0.65-1.661V134.859z"/>
		<path class="st1" d="M726.982,137.883c0.547,0,1.203-0.119,1.969-0.358v2.327c-0.779,0.35-1.736,0.523-2.871,0.523
			c-1.25,0-2.162-0.316-2.732-0.948c-0.568-0.633-0.854-1.581-0.854-2.846v-5.526h-1.498v-1.323l1.723-1.046l0.902-2.42h2v2.44
			h3.209v2.349h-3.209v5.526c0,0.444,0.125,0.772,0.373,0.984C726.244,137.777,726.572,137.883,726.982,137.883z"/>
		<path class="st1" d="M736.457,140.375c-1.846,0-3.287-0.509-4.326-1.527s-1.559-2.461-1.559-4.328c0-1.92,0.479-3.405,1.439-4.455
			c0.961-1.049,2.289-1.574,3.984-1.574c1.619,0,2.881,0.462,3.783,1.385c0.9,0.923,1.354,2.198,1.354,3.824v1.518h-7.393
			c0.033,0.89,0.297,1.583,0.789,2.082c0.49,0.499,1.184,0.748,2.07,0.748c0.689,0,1.344-0.071,1.959-0.215s1.258-0.372,1.928-0.688
			v2.42c-0.547,0.274-1.133,0.478-1.752,0.61C738.111,140.309,737.353,140.375,736.457,140.375z M736.017,130.716
			c-0.664,0-1.184,0.21-1.559,0.631c-0.377,0.42-0.592,1.017-0.646,1.789h4.389c-0.014-0.771-0.215-1.369-0.605-1.789
			C737.207,130.926,736.679,130.716,736.017,130.716z"/>
		<path class="st1" d="M750.074,128.491c0.424,0,0.775,0.031,1.057,0.093l-0.236,2.933c-0.252-0.068-0.561-0.103-0.922-0.103
			c-0.998,0-1.775,0.257-2.334,0.769c-0.557,0.514-0.834,1.23-0.834,2.154v5.834h-3.129v-11.464h2.369l0.461,1.928h0.154
			c0.355-0.643,0.836-1.16,1.441-1.554C748.705,128.688,749.363,128.491,750.074,128.491z"/>
		<path class="st1" d="M753.058,127.446v-0.277c1.178-1.367,1.98-2.396,2.41-3.086h3.506v0.215
			c-0.354,0.355-0.961,0.884-1.818,1.584c-0.857,0.701-1.529,1.223-2.016,1.564H753.058z M756.339,140.17h-3.127v-11.464h3.127
			V140.17z"/>
		<path class="st1" d="M766.902,140.17l-0.605-1.559h-0.082c-0.525,0.663-1.066,1.123-1.625,1.379
			c-0.559,0.257-1.283,0.385-2.18,0.385c-1.102,0-1.967-0.314-2.6-0.943c-0.633-0.629-0.947-1.524-0.947-2.687
			c0-1.217,0.426-2.114,1.275-2.691c0.852-0.578,2.135-0.897,3.852-0.959l1.988-0.062v-0.502c0-1.162-0.596-1.744-1.783-1.744
			c-0.916,0-1.994,0.277-3.23,0.831l-1.035-2.112c1.318-0.69,2.781-1.035,4.389-1.035c1.539,0,2.719,0.335,3.539,1.004
			c0.818,0.671,1.229,1.689,1.229,3.057v7.639L766.902,140.17L766.902,140.17z M765.978,134.859l-1.209,0.041
			c-0.908,0.027-1.586,0.191-2.029,0.492c-0.445,0.301-0.666,0.759-0.666,1.374c0,0.882,0.506,1.322,1.518,1.322
			c0.725,0,1.303-0.208,1.736-0.625s0.65-0.971,0.65-1.661V134.859L765.978,134.859z"/>
	</g>
</g>
<g id="Capa_13" class="st4">
	<path class="st3" d="M651.541,169.589c0,2.762-2.24,5-5,5h-70.871l-16.332,10.868l-15.643-10.868h-71.559c-2.761,0-5-2.238-5-5
		V97.508c0-2.762,2.239-5,5-5h174.403c2.762,0,5,2.238,5,5v72.081H651.541z"/>
	<g class="st2">
		<path class="st1" d="M503.989,116.056c-1.196,0-2.123,0.449-2.779,1.348s-0.984,2.152-0.984,3.758
			c0,3.344,1.255,5.015,3.764,5.015c1.053,0,2.328-0.263,3.825-0.79v2.666c-1.23,0.514-2.604,0.771-4.122,0.771
			c-2.182,0-3.85-0.661-5.004-1.984c-1.155-1.322-1.733-3.221-1.733-5.695c0-1.559,0.284-2.925,0.851-4.097
			c0.567-1.173,1.383-2.071,2.445-2.697c1.063-0.625,2.309-0.938,3.738-0.938c1.456,0,2.919,0.353,4.389,1.057l-1.024,2.584
			c-0.562-0.267-1.125-0.499-1.692-0.697C505.094,116.158,504.536,116.056,503.989,116.056z"/>
		<path class="st1" d="M521.174,122.864c0,1.865-0.492,3.325-1.477,4.378c-0.985,1.053-2.355,1.579-4.112,1.579
			c-1.101,0-2.071-0.241-2.912-0.723s-1.487-1.174-1.938-2.076c-0.451-0.902-0.678-1.955-0.678-3.158
			c0-1.873,0.489-3.329,1.467-4.369c0.978-1.038,2.352-1.559,4.122-1.559c1.101,0,2.07,0.24,2.911,0.719
			c0.842,0.479,1.487,1.165,1.938,2.061S521.174,121.661,521.174,122.864z M513.248,122.864c0,1.135,0.186,1.992,0.559,2.573
			c0.372,0.581,0.979,0.872,1.82,0.872c0.834,0,1.434-0.289,1.799-0.867c0.366-0.577,0.549-1.437,0.549-2.578
			c0-1.135-0.185-1.986-0.554-2.554s-0.974-0.851-1.814-0.851c-0.834,0-1.437,0.281-1.806,0.846
			C513.433,120.869,513.248,121.723,513.248,122.864z"/>
		<path class="st1" d="M534.34,128.616h-3.127v-6.695c0-0.827-0.146-1.448-0.44-1.861c-0.294-0.414-0.763-0.621-1.405-0.621
			c-0.875,0-1.507,0.293-1.897,0.877c-0.39,0.585-0.584,1.554-0.584,2.907v5.394h-3.127v-11.464h2.39l0.42,1.466h0.174
			c0.349-0.553,0.829-0.972,1.44-1.256c0.611-0.283,1.308-0.426,2.086-0.426c1.333,0,2.346,0.361,3.035,1.082
			c0.69,0.722,1.036,1.763,1.036,3.123V128.616L534.34,128.616z"/>
		<path class="st1" d="M542.749,128.821c-1.846,0-3.288-0.509-4.327-1.527s-1.559-2.461-1.559-4.328c0-1.92,0.479-3.405,1.439-4.455
			c0.96-1.049,2.289-1.574,3.984-1.574c1.62,0,2.881,0.462,3.784,1.385c0.903,0.923,1.354,2.198,1.354,3.824v1.518h-7.393
			c0.034,0.89,0.297,1.583,0.79,2.082c0.492,0.499,1.183,0.748,2.07,0.748c0.69,0,1.344-0.071,1.958-0.215
			c0.615-0.144,1.259-0.372,1.928-0.688v2.42c-0.547,0.274-1.13,0.479-1.752,0.61C544.403,128.755,543.644,128.821,542.749,128.821z
			 M542.308,119.162c-0.663,0-1.183,0.21-1.559,0.631c-0.376,0.42-0.591,1.017-0.646,1.789h4.39
			c-0.015-0.772-0.215-1.369-0.605-1.789C543.497,119.372,542.971,119.162,542.308,119.162z"/>
		<path class="st1" d="M554.623,128.821c-3.568,0-5.354-1.959-5.354-5.875c0-1.949,0.486-3.438,1.457-4.466
			c0.971-1.029,2.361-1.544,4.172-1.544c1.326,0,2.518,0.261,3.568,0.779l-0.922,2.42c-0.492-0.197-0.951-0.36-1.375-0.486
			c-0.424-0.127-0.848-0.189-1.271-0.189c-1.627,0-2.439,1.155-2.439,3.465c0,2.243,0.813,3.363,2.439,3.363
			c0.604,0,1.16-0.08,1.672-0.24c0.514-0.161,1.025-0.412,1.539-0.754v2.676c-0.508,0.322-1.018,0.544-1.533,0.667
			C556.058,128.76,555.41,128.821,554.623,128.821z"/>
		<path class="st1" d="M565.593,126.329c0.547,0,1.203-0.119,1.969-0.358v2.327c-0.777,0.35-1.734,0.523-2.869,0.523
			c-1.252,0-2.162-0.316-2.734-0.948c-0.57-0.633-0.855-1.581-0.855-2.846v-5.526h-1.496v-1.323l1.723-1.046l0.902-2.42h2v2.44
			h3.209v2.349h-3.209v5.526c0,0.444,0.125,0.772,0.373,0.984C564.855,126.223,565.183,126.329,565.593,126.329z"/>
		<path class="st1" d="M580.298,122.864c0,1.865-0.492,3.325-1.477,4.378c-0.986,1.053-2.355,1.579-4.113,1.579
			c-1.1,0-2.07-0.241-2.912-0.723c-0.84-0.482-1.486-1.174-1.938-2.076s-0.678-1.955-0.678-3.158c0-1.873,0.49-3.329,1.467-4.369
			c0.979-1.038,2.352-1.559,4.121-1.559c1.102,0,2.072,0.24,2.912,0.719c0.842,0.479,1.488,1.165,1.939,2.061
			S580.298,121.661,580.298,122.864z M572.373,122.864c0,1.135,0.186,1.992,0.559,2.573c0.371,0.581,0.979,0.872,1.82,0.872
			c0.834,0,1.434-0.289,1.799-0.867c0.365-0.577,0.549-1.437,0.549-2.578c0-1.135-0.186-1.986-0.555-2.554s-0.973-0.851-1.814-0.851
			c-0.834,0-1.436,0.281-1.805,0.846C572.556,120.869,572.373,121.723,572.373,122.864z"/>
		<path class="st1" d="M589.281,116.937c0.424,0,0.775,0.031,1.057,0.093l-0.236,2.933c-0.254-0.068-0.561-0.103-0.924-0.103
			c-0.998,0-1.775,0.257-2.332,0.769c-0.557,0.514-0.836,1.23-0.836,2.154v5.834h-3.127v-11.464h2.369l0.461,1.928h0.154
			c0.355-0.643,0.836-1.16,1.441-1.554C587.912,117.134,588.57,116.937,589.281,116.937z"/>
		<path class="st1" d="M601.503,128.821c-1.348,0-2.404-0.523-3.174-1.568c-0.77-1.047-1.154-2.495-1.154-4.348
			c0-1.88,0.393-3.345,1.174-4.396c0.783-1.049,1.861-1.574,3.236-1.574c1.441,0,2.543,0.562,3.301,1.682h0.104
			c-0.156-0.854-0.236-1.616-0.236-2.286v-3.671h3.139v15.955h-2.398l-0.605-1.486h-0.133
			C604.042,128.257,602.958,128.821,601.503,128.821z M602.601,126.329c0.801,0,1.387-0.231,1.758-0.697
			c0.373-0.464,0.576-1.254,0.609-2.368v-0.339c0-1.23-0.188-2.111-0.568-2.645c-0.379-0.533-0.996-0.801-1.852-0.801
			c-0.697,0-1.238,0.296-1.625,0.888c-0.387,0.591-0.58,1.45-0.58,2.579c0,1.127,0.195,1.974,0.584,2.537
			C601.32,126.048,601.876,126.329,602.601,126.329z"/>
		<path class="st1" d="M616.351,128.821c-1.846,0-3.289-0.509-4.326-1.527c-1.039-1.018-1.561-2.461-1.561-4.328
			c0-1.92,0.48-3.405,1.441-4.455c0.959-1.049,2.289-1.574,3.982-1.574c1.621,0,2.881,0.462,3.785,1.385
			c0.902,0.923,1.354,2.198,1.354,3.824v1.518h-7.393c0.033,0.89,0.297,1.583,0.789,2.082c0.494,0.499,1.184,0.748,2.072,0.748
			c0.689,0,1.342-0.071,1.957-0.215s1.258-0.372,1.928-0.688v2.42c-0.547,0.274-1.131,0.479-1.752,0.61
			C618.005,128.755,617.248,128.821,616.351,128.821z M615.91,119.162c-0.662,0-1.184,0.21-1.559,0.631
			c-0.377,0.42-0.592,1.017-0.646,1.789h4.389c-0.014-0.772-0.215-1.369-0.604-1.789
			C617.099,119.372,616.574,119.162,615.91,119.162z"/>
		<path class="st1" d="M517.289,141.256c-1.196,0-2.123,0.449-2.779,1.348s-0.983,2.152-0.983,3.758
			c0,3.344,1.254,5.015,3.763,5.015c1.053,0,2.328-0.263,3.825-0.79v2.666c-1.23,0.514-2.604,0.77-4.122,0.77
			c-2.182,0-3.85-0.661-5.004-1.984c-1.155-1.322-1.733-3.221-1.733-5.695c0-1.559,0.284-2.925,0.852-4.097
			c0.566-1.173,1.382-2.071,2.444-2.697c1.063-0.625,2.31-0.938,3.738-0.938c1.456,0,2.919,0.353,4.389,1.057l-1.024,2.584
			c-0.562-0.267-1.125-0.499-1.692-0.697C518.394,141.358,517.835,141.256,517.289,141.256z"/>
		<path class="st1" d="M534.474,148.064c0,1.865-0.491,3.325-1.477,4.378c-0.985,1.053-2.355,1.579-4.112,1.579
			c-1.101,0-2.07-0.241-2.912-0.723c-0.841-0.482-1.486-1.174-1.938-2.076c-0.451-0.902-0.677-1.955-0.677-3.158
			c0-1.873,0.488-3.329,1.466-4.369c0.978-1.038,2.352-1.559,4.122-1.559c1.101,0,2.07,0.24,2.912,0.719
			c0.841,0.479,1.486,1.165,1.938,2.061S534.474,146.861,534.474,148.064z M526.548,148.064c0,1.135,0.187,1.992,0.56,2.573
			c0.371,0.581,0.979,0.872,1.819,0.872c0.834,0,1.435-0.289,1.799-0.867c0.366-0.577,0.55-1.437,0.55-2.578
			c0-1.135-0.186-1.986-0.555-2.554c-0.369-0.568-0.974-0.851-1.814-0.851c-0.834,0-1.437,0.281-1.806,0.846
			C526.732,146.069,526.548,146.923,526.548,148.064z"/>
		<path class="st1" d="M543.457,142.137c0.424,0,0.776,0.031,1.056,0.093l-0.235,2.933c-0.253-0.068-0.562-0.103-0.924-0.103
			c-0.997,0-1.775,0.257-2.332,0.769c-0.558,0.514-0.836,1.23-0.836,2.154v5.834h-3.127v-11.464h2.369l0.461,1.928h0.154
			c0.355-0.643,0.835-1.16,1.441-1.554C542.087,142.334,542.746,142.137,543.457,142.137z"/>
		<path class="st1" d="M552.994,142.137c0.424,0,0.775,0.031,1.055,0.093l-0.236,2.933c-0.252-0.068-0.561-0.103-0.922-0.103
			c-0.998,0-1.775,0.257-2.334,0.769c-0.557,0.514-0.834,1.23-0.834,2.154v5.834h-3.127v-11.464h2.369l0.461,1.928h0.154
			c0.354-0.643,0.834-1.16,1.439-1.554C551.625,142.334,552.283,142.137,552.994,142.137z"/>
		<path class="st1" d="M555.998,139.389c0-1.018,0.566-1.527,1.701-1.527s1.703,0.51,1.703,1.527c0,0.486-0.143,0.863-0.426,1.134
			c-0.283,0.27-0.709,0.405-1.277,0.405C556.564,140.928,555.998,140.414,555.998,139.389z M559.257,153.816h-3.127v-11.464h3.127
			V153.816z"/>
		<path class="st1" d="M567.728,154.021c-1.846,0-3.287-0.509-4.326-1.527c-1.039-1.018-1.561-2.461-1.561-4.328
			c0-1.92,0.48-3.405,1.441-4.455c0.959-1.049,2.289-1.574,3.982-1.574c1.621,0,2.881,0.462,3.785,1.385
			c0.902,0.923,1.354,2.198,1.354,3.824v1.518h-7.393c0.033,0.89,0.297,1.583,0.789,2.082c0.494,0.499,1.184,0.748,2.072,0.748
			c0.689,0,1.342-0.071,1.957-0.215s1.258-0.372,1.928-0.688v2.42c-0.547,0.274-1.131,0.478-1.752,0.61
			C569.382,153.955,568.623,154.021,567.728,154.021z M567.287,144.362c-0.662,0-1.184,0.21-1.559,0.631
			c-0.377,0.42-0.592,1.017-0.646,1.789h4.389c-0.014-0.772-0.215-1.369-0.604-1.789
			C568.476,144.572,567.951,144.362,567.287,144.362z"/>
		<path class="st1" d="M585.529,153.816h-3.127v-6.695c0-0.827-0.148-1.448-0.441-1.861c-0.295-0.414-0.762-0.621-1.406-0.621
			c-0.875,0-1.506,0.293-1.896,0.877c-0.391,0.585-0.584,1.554-0.584,2.907v5.394h-3.127v-11.464h2.389l0.42,1.466h0.174
			c0.35-0.553,0.83-0.972,1.441-1.256c0.611-0.283,1.307-0.426,2.086-0.426c1.334,0,2.346,0.361,3.035,1.082
			c0.689,0.722,1.037,1.763,1.037,3.123V153.816L585.529,153.816z"/>
		<path class="st1" d="M593.578,151.529c0.547,0,1.203-0.119,1.969-0.358v2.327c-0.779,0.35-1.736,0.523-2.871,0.523
			c-1.25,0-2.162-0.316-2.732-0.948c-0.57-0.633-0.855-1.581-0.855-2.846v-5.526h-1.498v-1.323l1.725-1.046l0.9-2.42h2v2.44h3.209
			v2.349h-3.209v5.526c0,0.444,0.125,0.772,0.375,0.984C592.837,151.423,593.167,151.529,593.578,151.529z"/>
		<path class="st1" d="M603.052,154.021c-1.846,0-3.289-0.509-4.328-1.527c-1.039-1.018-1.559-2.461-1.559-4.328
			c0-1.92,0.48-3.405,1.439-4.455c0.961-1.049,2.289-1.574,3.984-1.574c1.621,0,2.881,0.462,3.785,1.385
			c0.902,0.923,1.354,2.198,1.354,3.824v1.518h-7.393c0.033,0.89,0.297,1.583,0.789,2.082c0.494,0.499,1.184,0.748,2.072,0.748
			c0.689,0,1.342-0.071,1.957-0.215s1.258-0.372,1.928-0.688v2.42c-0.547,0.274-1.131,0.478-1.752,0.61
			C604.707,153.955,603.949,154.021,603.052,154.021z M602.611,144.362c-0.662,0-1.184,0.21-1.559,0.631
			c-0.377,0.42-0.592,1.017-0.646,1.789h4.389c-0.014-0.772-0.215-1.369-0.604-1.789C603.8,144.572,603.275,144.362,602.611,144.362
			z"/>
	</g>
</g>
<g id="Capa_12" class="st4">
	<path class="st3" d="M357.602,138.173c0,2.762-2.237,5-5,5h-33.847l-16.332,10.868l-15.644-10.868h-34.535c-2.761,0-5-2.238-5-5
		V86.104c0-2.762,2.239-5,5-5h100.356c2.763,0,5,2.238,5,5L357.602,138.173L357.602,138.173z"/>
	<g class="st2">
		<path class="st1" d="M289.995,113.042c0,3.056-0.87,5.396-2.609,7.021c-1.739,1.625-4.251,2.438-7.535,2.438h-5.256V103.94h5.827
			c3.03,0,5.383,0.8,7.059,2.399C289.157,107.938,289.995,110.173,289.995,113.042z M285.907,113.144
			c0-3.986-1.76-5.979-5.281-5.979h-2.095v12.086h1.688C284.011,119.25,285.907,117.215,285.907,113.144z"/>
		<path class="st1" d="M301.7,122.5l-4.469-14.562h-0.114c0.161,2.962,0.241,4.938,0.241,5.929v8.633h-3.517v-18.56h5.357
			l4.393,14.193h0.076l4.659-14.193h5.356v18.56h-3.669v-8.785c0-0.415,0.006-0.893,0.02-1.435c0.013-0.542,0.069-1.98,0.171-4.316
			h-0.114l-4.786,14.536H301.7z"/>
		<path class="st1" d="M326.24,106.949c-1.481,0-2.628,0.557-3.44,1.669c-0.813,1.113-1.219,2.664-1.219,4.653
			c0,4.139,1.553,6.208,4.659,6.208c1.303,0,2.882-0.326,4.734-0.978v3.301c-1.522,0.635-3.225,0.952-5.104,0.952
			c-2.7,0-4.766-0.818-6.195-2.457c-1.43-1.637-2.146-3.988-2.146-7.052c0-1.93,0.351-3.62,1.054-5.071
			c0.703-1.452,1.712-2.564,3.028-3.34c1.315-0.773,2.857-1.161,4.627-1.161c1.803,0,3.613,0.436,5.434,1.308l-1.27,3.199
			c-0.694-0.33-1.393-0.618-2.096-0.863C327.605,107.072,326.917,106.949,326.24,106.949z"/>
	</g>
</g>
</svg>
