<?xml version="1.0" encoding="utf-8"?>
<!-- Generator: Adobe Illustrator 16.0.0, SVG Export Plug-In . SVG Version: 6.00 Build 0)  -->
<!DOCTYPE svg PUBLIC "-//W3C//DTD SVG 1.1//EN" "http://www.w3.org/Graphics/SVG/1.1/DTD/svg11.dtd">
<svg version="1.1" id="Layer_1" xmlns="http://www.w3.org/2000/svg" xmlns:xlink="http://www.w3.org/1999/xlink" x="0px" y="0px"
	 width="290px" height="110px" viewBox="110 205 290 110" enable-background="new 110 205 290 110" xml:space="preserve">
<g>
	<path fill="#E63946" d="M393.359,298.012c0,5.522-4.477,10-10,10H126.641c-5.522,0-10-4.478-10-10v-76.023c0-5.522,4.478-10,10-10
		h256.719c5.523,0,10,4.478,10,10V298.012z"/>
	<path fill="#EC656F" d="M116.641,260v-38.012c0-5.522,4.478-10,10-10h256.719c5.523,0,10,4.478,10,10v38.011L116.641,260z"/>
	<g>
		<g>
			<path fill="#FFFFFF" d="M217.217,251.194l-4.844-12.657h-0.078c0.092,1.002,0.137,2.194,0.137,3.574v9.083h-1.533v-14.278h2.5
				l4.521,11.778h0.078l4.561-11.778h2.48v14.278h-1.66v-9.2c0-1.055,0.045-2.201,0.137-3.438h-0.078l-4.883,12.637H217.217z"/>
			<path fill="#FFFFFF" d="M237.949,245.833c0,1.744-0.439,3.106-1.318,4.086c-0.879,0.98-2.094,1.471-3.643,1.471
				c-0.957,0-1.807-0.225-2.549-0.674s-1.314-1.094-1.719-1.934s-0.605-1.823-0.605-2.949c0-1.745,0.436-3.104,1.309-4.078
				s2.084-1.46,3.633-1.46c1.498,0,2.688,0.498,3.57,1.494C237.508,242.786,237.949,244.133,237.949,245.833z M229.795,245.833
				c0,1.367,0.273,2.408,0.82,3.125c0.547,0.716,1.352,1.074,2.412,1.074s1.867-0.357,2.418-1.07
				c0.549-0.713,0.824-1.756,0.824-3.129c0-1.361-0.275-2.395-0.824-3.101c-0.551-0.707-1.363-1.06-2.438-1.06
				c-1.061,0-1.861,0.348-2.402,1.045S229.795,244.452,229.795,245.833z"/>
			<path fill="#FFFFFF" d="M248.076,249.759h-0.088c-0.748,1.087-1.869,1.631-3.359,1.631c-1.4,0-2.488-0.479-3.266-1.436
				c-0.779-0.957-1.168-2.318-1.168-4.082c0-1.765,0.391-3.135,1.172-4.112s1.869-1.465,3.262-1.465c1.451,0,2.564,0.527,3.34,1.582
				h0.127l-0.068-0.771l-0.039-0.752v-4.355h1.621v15.196h-1.318L248.076,249.759z M244.834,250.032c1.107,0,1.91-0.302,2.408-0.904
				c0.498-0.602,0.746-1.573,0.746-2.914v-0.342c0-1.518-0.252-2.6-0.756-3.248c-0.506-0.648-1.311-0.972-2.418-0.972
				c-0.951,0-1.678,0.37-2.182,1.108c-0.506,0.739-0.758,1.782-0.758,3.13c0,1.367,0.25,2.398,0.752,3.096
				C243.129,249.684,243.863,250.032,244.834,250.032z"/>
			<path fill="#FFFFFF" d="M252.91,237.59c0-0.371,0.092-0.643,0.273-0.815s0.41-0.259,0.684-0.259c0.26,0,0.484,0.088,0.674,0.264
				s0.283,0.446,0.283,0.811s-0.094,0.636-0.283,0.815s-0.414,0.269-0.674,0.269c-0.273,0-0.502-0.089-0.684-0.269
				S252.91,237.955,252.91,237.59z M254.668,251.194h-1.621v-10.704h1.621V251.194z"/>
			<path fill="#FFFFFF" d="M262.93,241.75h-2.725v9.444h-1.621v-9.444h-1.914v-0.732l1.914-0.586v-0.596
				c0-2.63,1.148-3.945,3.447-3.945c0.566,0,1.23,0.114,1.992,0.342l-0.42,1.299c-0.625-0.202-1.158-0.303-1.602-0.303
				c-0.611,0-1.064,0.204-1.357,0.61s-0.439,1.06-0.439,1.958v0.693h2.725V241.75z M264.746,237.59c0-0.371,0.092-0.643,0.273-0.815
				s0.41-0.259,0.684-0.259c0.26,0,0.484,0.088,0.674,0.264s0.283,0.446,0.283,0.811s-0.094,0.636-0.283,0.815
				s-0.414,0.269-0.674,0.269c-0.273,0-0.502-0.089-0.684-0.269S264.746,237.955,264.746,237.59z M266.504,251.194h-1.621v-10.704
				h1.621V251.194z"/>
			<path fill="#FFFFFF" d="M274.219,251.39c-1.549,0-2.748-0.478-3.598-1.432c-0.85-0.953-1.275-2.303-1.275-4.047
				c0-1.791,0.432-3.174,1.295-4.151c0.861-0.977,2.09-1.465,3.686-1.465c0.514,0,1.029,0.055,1.543,0.166s0.918,0.241,1.211,0.391
				l-0.498,1.377c-0.357-0.143-0.748-0.262-1.172-0.356s-0.797-0.142-1.123-0.142c-2.174,0-3.262,1.387-3.262,4.161
				c0,1.314,0.266,2.324,0.797,3.027c0.529,0.703,1.316,1.055,2.357,1.055c0.893,0,1.807-0.192,2.744-0.576v1.436
				C276.207,251.204,275.307,251.39,274.219,251.39z"/>
			<path fill="#FFFFFF" d="M286.045,251.194l-0.322-1.523h-0.078c-0.533,0.67-1.066,1.124-1.596,1.361
				c-0.531,0.238-1.193,0.357-1.988,0.357c-1.061,0-1.893-0.273-2.494-0.82c-0.604-0.547-0.904-1.325-0.904-2.334
				c0-2.162,1.729-3.295,5.186-3.399l1.816-0.059v-0.664c0-0.84-0.18-1.46-0.541-1.86s-0.939-0.601-1.734-0.601
				c-0.893,0-1.9,0.273-3.027,0.82l-0.498-1.24c0.527-0.287,1.105-0.511,1.734-0.674c0.627-0.163,1.258-0.244,1.889-0.244
				c1.275,0,2.223,0.283,2.838,0.85s0.922,1.475,0.922,2.725v7.305H286.045z M282.383,250.052c1.01,0,1.803-0.277,2.379-0.83
				c0.576-0.554,0.863-1.328,0.863-2.324v-0.967l-1.621,0.068c-1.289,0.045-2.219,0.245-2.787,0.6
				c-0.57,0.355-0.855,0.907-0.855,1.656c0,0.586,0.178,1.031,0.533,1.338C281.248,249.898,281.744,250.052,282.383,250.052z"/>
			<path fill="#FFFFFF" d="M295.469,240.295c0.475,0,0.902,0.039,1.279,0.117l-0.225,1.504c-0.443-0.098-0.834-0.146-1.172-0.146
				c-0.865,0-1.605,0.352-2.221,1.055s-0.924,1.579-0.924,2.627v5.743h-1.621v-10.704h1.338l0.186,1.982h0.078
				c0.396-0.697,0.875-1.234,1.436-1.611S294.799,240.295,295.469,240.295z"/>
			<path fill="#FFFFFF" d="M212.178,266.491v6.943c0,0.872,0.199,1.523,0.596,1.953s1.02,0.645,1.865,0.645
				c1.119,0,1.939-0.307,2.457-0.918c0.518-0.612,0.775-1.611,0.775-2.998v-5.625h1.621v10.703h-1.338l-0.234-1.436h-0.088
				c-0.332,0.527-0.793,0.931-1.381,1.211c-0.59,0.279-1.262,0.42-2.018,0.42c-1.303,0-2.277-0.31-2.924-0.928
				c-0.648-0.619-0.973-1.608-0.973-2.969v-7.002H212.178z"/>
			<path fill="#FFFFFF" d="M230.254,277.194v-6.924c0-0.873-0.199-1.523-0.596-1.953s-1.02-0.645-1.865-0.645
				c-1.119,0-1.939,0.303-2.461,0.908s-0.781,1.604-0.781,2.998v5.615h-1.621v-10.703h1.318l0.264,1.465h0.078
				c0.332-0.527,0.797-0.937,1.396-1.227c0.6-0.289,1.266-0.434,2.002-0.434c1.289,0,2.26,0.311,2.91,0.932
				c0.65,0.622,0.977,1.617,0.977,2.984v6.982H230.254z"/>
			<path fill="#FFFFFF" d="M242.744,277.194l-4.062-10.703h1.738l2.305,6.348c0.521,1.484,0.826,2.447,0.918,2.891h0.078
				c0.072-0.346,0.299-1.061,0.68-2.145s1.234-3.448,2.562-7.094h1.738l-4.062,10.703H242.744z"/>
			<path fill="#FFFFFF" d="M254.941,277.39c-1.582,0-2.83-0.482-3.744-1.445c-0.916-0.964-1.373-2.302-1.373-4.014
				c0-1.726,0.426-3.096,1.275-4.111s1.99-1.523,3.422-1.523c1.342,0,2.402,0.44,3.184,1.322c0.781,0.883,1.172,2.047,1.172,3.492
				v1.025h-7.373c0.033,1.256,0.35,2.21,0.953,2.861c0.602,0.65,1.449,0.977,2.543,0.977c1.152,0,2.291-0.241,3.418-0.723v1.445
				c-0.572,0.247-1.115,0.424-1.625,0.531C256.281,277.335,255.664,277.39,254.941,277.39z M254.502,267.653
				c-0.859,0-1.545,0.279-2.055,0.84c-0.512,0.56-0.812,1.334-0.904,2.324h5.596c0-1.022-0.229-1.806-0.684-2.35
				C256,267.925,255.348,267.653,254.502,267.653z"/>
			<path fill="#FFFFFF" d="M265.918,277.39c-1.549,0-2.748-0.478-3.598-1.432c-0.85-0.953-1.275-2.303-1.275-4.047
				c0-1.791,0.432-3.174,1.295-4.15c0.861-0.977,2.09-1.465,3.686-1.465c0.514,0,1.029,0.055,1.543,0.166
				c0.514,0.11,0.918,0.24,1.211,0.391l-0.498,1.377c-0.357-0.144-0.748-0.263-1.172-0.357c-0.424-0.094-0.797-0.141-1.123-0.141
				c-2.174,0-3.262,1.387-3.262,4.16c0,1.314,0.266,2.324,0.797,3.027c0.529,0.703,1.316,1.055,2.357,1.055
				c0.893,0,1.807-0.192,2.744-0.576v1.436C267.906,277.204,267.006,277.39,265.918,277.39z"/>
			<path fill="#FFFFFF" d="M274.619,276.052c0.287,0,0.562-0.021,0.83-0.064c0.268-0.042,0.479-0.086,0.635-0.131v1.24
				c-0.176,0.084-0.434,0.154-0.775,0.209c-0.342,0.056-0.65,0.084-0.924,0.084c-2.07,0-3.105-1.091-3.105-3.271v-6.367h-1.533
				v-0.781l1.533-0.674l0.684-2.285h0.938v2.48h3.105v1.26H272.9v6.299c0,0.645,0.152,1.139,0.459,1.484
				C273.666,275.879,274.086,276.052,274.619,276.052z"/>
			<path fill="#FFFFFF" d="M287.461,271.833c0,1.744-0.439,3.106-1.318,4.086c-0.879,0.98-2.094,1.471-3.643,1.471
				c-0.957,0-1.807-0.225-2.549-0.674s-1.314-1.094-1.719-1.934s-0.605-1.823-0.605-2.949c0-1.745,0.436-3.104,1.309-4.078
				c0.873-0.973,2.084-1.459,3.633-1.459c1.498,0,2.688,0.498,3.57,1.494C287.02,268.786,287.461,270.134,287.461,271.833z
				 M279.307,271.833c0,1.367,0.273,2.408,0.82,3.125c0.547,0.716,1.352,1.074,2.412,1.074s1.867-0.357,2.418-1.07
				c0.549-0.713,0.824-1.756,0.824-3.129c0-1.361-0.275-2.395-0.824-3.102c-0.551-0.706-1.363-1.059-2.438-1.059
				c-1.061,0-1.861,0.348-2.402,1.045C279.576,269.414,279.307,270.452,279.307,271.833z"/>
			<path fill="#FFFFFF" d="M295.186,266.296c0.475,0,0.902,0.039,1.279,0.117l-0.225,1.504c-0.443-0.098-0.834-0.146-1.172-0.146
				c-0.865,0-1.605,0.352-2.221,1.055s-0.924,1.578-0.924,2.627v5.742h-1.621v-10.703h1.338l0.186,1.982h0.078
				c0.396-0.697,0.875-1.234,1.436-1.611C293.9,266.484,294.516,266.296,295.186,266.296z"/>
		</g>
	</g>
	<g>
		<path fill="#AD2B35" d="M161.406,226.698c-18.468,0.078-33.239,14.975-33.161,33.441c0.078,18.468,14.975,33.24,33.442,33.162
			c18.466-0.078,33.239-14.975,33.161-33.443C194.771,241.392,179.873,226.62,161.406,226.698z"/>
		<path fill="#C9323D" d="M161.406,226.698c-18.468,0.078-33.239,14.975-33.161,33.441l66.604-0.281
			C194.771,241.392,179.873,226.62,161.406,226.698z"/>
		<path fill="#FFFFFF" d="M161.547,231.5c-15.805,0-28.5,12.695-28.5,28.5s12.695,28.5,28.5,28.5s28.5-12.695,28.5-28.5
			S177.352,231.5,161.547,231.5z M175.802,272.272c0,0.805-0.652,1.457-1.457,1.457h-24.223c-0.805,0-1.457-0.652-1.457-1.457
			V248.05c0-0.805,0.652-1.457,1.457-1.457s1.457,0.652,1.457,1.457v21.706l16.804-16.803h-5.745c-0.402,0-0.729-0.326-0.729-0.729
			c0-0.403,0.326-0.729,0.729-0.729h8.239v8.319c0,0.402-0.325,0.728-0.729,0.728c-0.402,0-0.729-0.325-0.729-0.728v-5.838
			l-16.839,16.839h21.764C175.149,270.815,175.802,271.468,175.802,272.272z M147.811,240.207c-0.334-0.332-0.334-0.874,0-1.208
			c0.333-0.332,0.874-0.332,1.208,0l1.104,1.104l1.104-1.104c0.334-0.334,0.873-0.334,1.207,0c0.334,0.333,0.334,0.876,0,1.208
			l-1.458,1.456v1.354c0,0.472-0.382,0.854-0.854,0.854c-0.473,0-0.854-0.382-0.854-0.854v-1.354L147.811,240.207z M182.544,273.372
			c0.333,0.334,0.333,0.873,0,1.205c-0.166,0.167-0.384,0.25-0.602,0.25c-0.219,0-0.437-0.083-0.603-0.25l-1.101-1.101l-1.103,1.101
			c-0.166,0.167-0.384,0.25-0.603,0.25c-0.217,0-0.436-0.083-0.603-0.25c-0.332-0.332-0.332-0.871,0-1.205l1.101-1.1l-1.101-1.101
			c-0.332-0.331-0.332-0.872,0-1.204c0.333-0.332,0.872-0.332,1.205,0l1.102,1.102l1.101-1.102c0.332-0.332,0.871-0.332,1.204,0
			s0.333,0.873,0,1.204l-1.102,1.101L182.544,273.372z"/>
	</g>
	<path fill="#AD2B35" d="M383.359,310.012H126.641c-6.617,0-12-5.383-12-12v-76.023c0-6.617,5.383-12,12-12h256.719
		c6.617,0,12,5.383,12,12v76.023C395.359,304.629,389.977,310.012,383.359,310.012z M126.641,213.988c-4.411,0-8,3.589-8,8v76.023
		c0,4.411,3.589,8,8,8h256.719c4.41,0,8-3.589,8-8v-76.023c0-4.411-3.59-8-8-8H126.641z"/>
</g>
</svg>
