<?xml version="1.0" encoding="utf-8"?>
<!-- Generator: Adobe Illustrator 20.0.0, SVG Export Plug-In . SVG Version: 6.00 Build 0)  -->
<svg version="1.1" id="Layer_1" xmlns="http://www.w3.org/2000/svg" xmlns:xlink="http://www.w3.org/1999/xlink" x="0px" y="0px"
	 viewBox="0 0 290 110" style="enable-background:new 0 0 290 110;" xml:space="preserve">
<style type="text/css">
	.st0{fill:#79BCA8;}
	.st1{fill:#90CABB;}
	.st2{fill:#FFFFFF;}
	.st3{fill:#5C8D80;}
	.st4{fill:#6AA393;}
	.st5{fill:none;stroke:#5C8D80;stroke-width:4;stroke-miterlimit:10;}
</style>
<g>
	<path class="st0" d="M283.4,93c0,5.5-4.5,10-10,10H16.6c-5.5,0-10-4.5-10-10V17c0-5.5,4.5-10,10-10h256.7c5.5,0,10,4.5,10,10V93z"
		/>
	<path class="st1" d="M6.6,55V17c0-5.5,4.5-10,10-10h256.7c5.5,0,10,4.5,10,10v38H6.6z"/>
	<g>
		<g>
			<path class="st2" d="M107,37.1c-1.6,0-2.8,0.5-3.7,1.6c-0.9,1-1.4,2.5-1.4,4.3c0,1.9,0.4,3.3,1.3,4.3c0.9,1,2.1,1.5,3.7,1.5
				c1,0,2.1-0.2,3.4-0.5v1.5c-1,0.4-2.2,0.6-3.7,0.6c-2.1,0-3.7-0.6-4.9-1.9c-1.1-1.3-1.7-3.1-1.7-5.4c0-1.5,0.3-2.8,0.8-3.9
				c0.6-1.1,1.3-2,2.4-2.6c1-0.6,2.3-0.9,3.7-0.9c1.5,0,2.8,0.3,3.9,0.8l-0.7,1.4C109.2,37.3,108.1,37.1,107,37.1z"/>
			<path class="st2" d="M122.5,44.7c0,1.7-0.4,3.1-1.3,4.1c-0.9,1-2.1,1.5-3.6,1.5c-1,0-1.8-0.2-2.5-0.7c-0.7-0.4-1.3-1.1-1.7-1.9
				c-0.4-0.8-0.6-1.8-0.6-2.9c0-1.7,0.4-3.1,1.3-4.1c0.9-1,2.1-1.5,3.6-1.5c1.5,0,2.7,0.5,3.6,1.5C122.1,41.7,122.5,43,122.5,44.7z
				 M114.4,44.7c0,1.4,0.3,2.4,0.8,3.1c0.5,0.7,1.4,1.1,2.4,1.1c1.1,0,1.9-0.4,2.4-1.1c0.6-0.7,0.8-1.8,0.8-3.1
				c0-1.4-0.3-2.4-0.8-3.1c-0.6-0.7-1.4-1.1-2.4-1.1c-1.1,0-1.9,0.3-2.4,1C114.6,42.3,114.4,43.3,114.4,44.7z"/>
			<path class="st2" d="M132.7,50.1v-6.9c0-0.9-0.2-1.5-0.6-2c-0.4-0.4-1-0.6-1.9-0.6c-1.1,0-1.9,0.3-2.5,0.9
				c-0.5,0.6-0.8,1.6-0.8,3v5.6h-1.6V39.4h1.3l0.3,1.5h0.1c0.3-0.5,0.8-0.9,1.4-1.2c0.6-0.3,1.3-0.4,2-0.4c1.3,0,2.3,0.3,2.9,0.9
				c0.7,0.6,1,1.6,1,3v7H132.7z"/>
			<path class="st2" d="M144.5,47.2c0,1-0.4,1.8-1.1,2.3c-0.7,0.5-1.8,0.8-3.1,0.8c-1.4,0-2.5-0.2-3.3-0.7v-1.5
				c0.5,0.3,1.1,0.5,1.7,0.6c0.6,0.1,1.2,0.2,1.7,0.2c0.8,0,1.5-0.1,2-0.4c0.5-0.3,0.7-0.7,0.7-1.2c0-0.4-0.2-0.8-0.5-1.1
				c-0.4-0.3-1.1-0.6-2.1-1c-1-0.4-1.7-0.7-2.1-1c-0.4-0.3-0.7-0.6-0.9-0.9c-0.2-0.4-0.3-0.8-0.3-1.3c0-0.9,0.4-1.6,1.1-2.1
				c0.7-0.5,1.7-0.8,2.9-0.8c1.2,0,2.3,0.2,3.4,0.7l-0.6,1.3c-1.1-0.4-2-0.7-2.9-0.7c-0.8,0-1.3,0.1-1.7,0.4c-0.4,0.2-0.6,0.6-0.6,1
				c0,0.3,0.1,0.5,0.2,0.7c0.1,0.2,0.4,0.4,0.7,0.6c0.3,0.2,1,0.4,1.9,0.8c1.3,0.5,2.1,0.9,2.6,1.4
				C144.3,45.9,144.5,46.4,144.5,47.2z"/>
			<path class="st2" d="M150.6,48.9c0.3,0,0.6,0,0.8-0.1c0.3,0,0.5-0.1,0.6-0.1V50c-0.2,0.1-0.4,0.2-0.8,0.2
				c-0.3,0.1-0.6,0.1-0.9,0.1c-2.1,0-3.1-1.1-3.1-3.3v-6.4h-1.5v-0.8l1.5-0.7l0.7-2.3h0.9v2.5h3.1v1.3h-3.1v6.3
				c0,0.6,0.2,1.1,0.5,1.5C149.7,48.8,150.1,48.9,150.6,48.9z"/>
			<path class="st2" d="M159.1,39.2c0.5,0,0.9,0,1.3,0.1l-0.2,1.5c-0.4-0.1-0.8-0.1-1.2-0.1c-0.9,0-1.6,0.4-2.2,1.1
				c-0.6,0.7-0.9,1.6-0.9,2.6v5.7h-1.6V39.4h1.3l0.2,2h0.1c0.4-0.7,0.9-1.2,1.4-1.6C157.8,39.4,158.4,39.2,159.1,39.2z"/>
			<path class="st2" d="M163.9,39.4v6.9c0,0.9,0.2,1.5,0.6,2c0.4,0.4,1,0.6,1.9,0.6c1.1,0,1.9-0.3,2.5-0.9c0.5-0.6,0.8-1.6,0.8-3
				v-5.6h1.6v10.7h-1.3l-0.2-1.4h-0.1c-0.3,0.5-0.8,0.9-1.4,1.2c-0.6,0.3-1.3,0.4-2,0.4c-1.3,0-2.3-0.3-2.9-0.9c-0.6-0.6-1-1.6-1-3
				v-7H163.9z"/>
			<path class="st2" d="M174.5,36.5c0-0.4,0.1-0.6,0.3-0.8c0.2-0.2,0.4-0.3,0.7-0.3c0.3,0,0.5,0.1,0.7,0.3c0.2,0.2,0.3,0.4,0.3,0.8
				c0,0.4-0.1,0.6-0.3,0.8c-0.2,0.2-0.4,0.3-0.7,0.3c-0.3,0-0.5-0.1-0.7-0.3C174.6,37.1,174.5,36.8,174.5,36.5z M176.3,50.1h-1.6
				V39.4h1.6V50.1z"/>
			<path class="st2" d="M184.6,39.2c0.5,0,0.9,0,1.3,0.1l-0.2,1.5c-0.4-0.1-0.8-0.1-1.2-0.1c-0.9,0-1.6,0.4-2.2,1.1
				c-0.6,0.7-0.9,1.6-0.9,2.6v5.7h-1.6V39.4h1.3l0.2,2h0.1c0.4-0.7,0.9-1.2,1.4-1.6C183.3,39.4,183.9,39.2,184.6,39.2z"/>
			<path class="st2" d="M194.6,39.4v6.9c0,0.9,0.2,1.5,0.6,2c0.4,0.4,1,0.6,1.9,0.6c1.1,0,1.9-0.3,2.5-0.9c0.5-0.6,0.8-1.6,0.8-3
				v-5.6h1.6v10.7h-1.3l-0.2-1.4h-0.1c-0.3,0.5-0.8,0.9-1.4,1.2c-0.6,0.3-1.3,0.4-2,0.4c-1.3,0-2.3-0.3-2.9-0.9c-0.6-0.6-1-1.6-1-3
				v-7H194.6z"/>
			<path class="st2" d="M212.7,50.1v-6.9c0-0.9-0.2-1.5-0.6-2c-0.4-0.4-1-0.6-1.9-0.6c-1.1,0-1.9,0.3-2.5,0.9
				c-0.5,0.6-0.8,1.6-0.8,3v5.6h-1.6V39.4h1.3l0.3,1.5h0.1c0.3-0.5,0.8-0.9,1.4-1.2c0.6-0.3,1.3-0.4,2-0.4c1.3,0,2.3,0.3,2.9,0.9
				c0.7,0.6,1,1.6,1,3v7H212.7z"/>
			<path class="st2" d="M224.2,50.1l-0.3-1.5h-0.1c-0.5,0.7-1.1,1.1-1.6,1.4c-0.5,0.2-1.2,0.4-2,0.4c-1.1,0-1.9-0.3-2.5-0.8
				c-0.6-0.5-0.9-1.3-0.9-2.3c0-2.2,1.7-3.3,5.2-3.4l1.8-0.1V43c0-0.8-0.2-1.5-0.5-1.9c-0.4-0.4-0.9-0.6-1.7-0.6
				c-0.9,0-1.9,0.3-3,0.8l-0.5-1.2c0.5-0.3,1.1-0.5,1.7-0.7c0.6-0.2,1.3-0.2,1.9-0.2c1.3,0,2.2,0.3,2.8,0.8s0.9,1.5,0.9,2.7v7.3
				H224.2z M220.6,48.9c1,0,1.8-0.3,2.4-0.8c0.6-0.6,0.9-1.3,0.9-2.3v-1l-1.6,0.1c-1.3,0-2.2,0.2-2.8,0.6c-0.6,0.4-0.9,0.9-0.9,1.7
				c0,0.6,0.2,1,0.5,1.3C219.4,48.8,219.9,48.9,220.6,48.9z"/>
			<path class="st2" d="M107.6,69.2c0,1-0.4,1.8-1.1,2.3c-0.7,0.5-1.8,0.8-3.1,0.8c-1.4,0-2.5-0.2-3.3-0.7v-1.5
				c0.5,0.3,1.1,0.5,1.7,0.6c0.6,0.1,1.2,0.2,1.7,0.2c0.8,0,1.5-0.1,2-0.4c0.5-0.3,0.7-0.7,0.7-1.2c0-0.4-0.2-0.8-0.5-1.1
				c-0.4-0.3-1.1-0.6-2.1-1c-1-0.4-1.7-0.7-2.1-1c-0.4-0.3-0.7-0.6-0.9-0.9c-0.2-0.4-0.3-0.8-0.3-1.3c0-0.9,0.4-1.6,1.1-2.1
				c0.7-0.5,1.7-0.8,2.9-0.8c1.2,0,2.3,0.2,3.4,0.7l-0.6,1.3c-1.1-0.4-2-0.7-2.9-0.7c-0.8,0-1.3,0.1-1.7,0.4c-0.4,0.2-0.6,0.6-0.6,1
				c0,0.3,0.1,0.5,0.2,0.7c0.1,0.2,0.4,0.4,0.7,0.6c0.3,0.2,1,0.4,1.9,0.8c1.3,0.5,2.1,0.9,2.6,1.4
				C107.3,67.9,107.6,68.4,107.6,69.2z"/>
			<path class="st2" d="M114.7,72.3c-1.6,0-2.8-0.5-3.7-1.4c-0.9-1-1.4-2.3-1.4-4c0-1.7,0.4-3.1,1.3-4.1c0.8-1,2-1.5,3.4-1.5
				c1.3,0,2.4,0.4,3.2,1.3c0.8,0.9,1.2,2,1.2,3.5v1h-7.4c0,1.3,0.4,2.2,1,2.9c0.6,0.7,1.5,1,2.5,1c1.2,0,2.3-0.2,3.4-0.7v1.4
				c-0.6,0.2-1.1,0.4-1.6,0.5C116.1,72.2,115.4,72.3,114.7,72.3z M114.3,62.5c-0.9,0-1.5,0.3-2.1,0.8c-0.5,0.6-0.8,1.3-0.9,2.3h5.6
				c0-1-0.2-1.8-0.7-2.3C115.8,62.8,115.1,62.5,114.3,62.5z"/>
			<path class="st2" d="M125.7,72.3c-1.5,0-2.7-0.5-3.6-1.4c-0.8-1-1.3-2.3-1.3-4c0-1.8,0.4-3.2,1.3-4.2c0.9-1,2.1-1.5,3.7-1.5
				c0.5,0,1,0.1,1.5,0.2c0.5,0.1,0.9,0.2,1.2,0.4l-0.5,1.4c-0.4-0.1-0.7-0.3-1.2-0.4c-0.4-0.1-0.8-0.1-1.1-0.1
				c-2.2,0-3.3,1.4-3.3,4.2c0,1.3,0.3,2.3,0.8,3c0.5,0.7,1.3,1.1,2.4,1.1c0.9,0,1.8-0.2,2.7-0.6v1.4
				C127.7,72.1,126.8,72.3,125.7,72.3z"/>
			<path class="st2" d="M132.5,61.4v6.9c0,0.9,0.2,1.5,0.6,2c0.4,0.4,1,0.6,1.9,0.6c1.1,0,1.9-0.3,2.5-0.9c0.5-0.6,0.8-1.6,0.8-3
				v-5.6h1.6v10.7h-1.3l-0.2-1.4h-0.1c-0.3,0.5-0.8,0.9-1.4,1.2c-0.6,0.3-1.3,0.4-2,0.4c-1.3,0-2.3-0.3-2.9-0.9c-0.6-0.6-1-1.6-1-3
				v-7H132.5z"/>
			<path class="st2" d="M147.7,72.3c-1.6,0-2.8-0.5-3.7-1.4c-0.9-1-1.4-2.3-1.4-4c0-1.7,0.4-3.1,1.3-4.1c0.8-1,2-1.5,3.4-1.5
				c1.3,0,2.4,0.4,3.2,1.3c0.8,0.9,1.2,2,1.2,3.5v1h-7.4c0,1.3,0.4,2.2,1,2.9c0.6,0.7,1.5,1,2.5,1c1.2,0,2.3-0.2,3.4-0.7v1.4
				c-0.6,0.2-1.1,0.4-1.6,0.5C149.1,72.2,148.5,72.3,147.7,72.3z M147.3,62.5c-0.9,0-1.5,0.3-2.1,0.8c-0.5,0.6-0.8,1.3-0.9,2.3h5.6
				c0-1-0.2-1.8-0.7-2.3C148.8,62.8,148.1,62.5,147.3,62.5z"/>
			<path class="st2" d="M161.8,72.1v-6.9c0-0.9-0.2-1.5-0.6-2c-0.4-0.4-1-0.6-1.9-0.6c-1.1,0-1.9,0.3-2.5,0.9
				c-0.5,0.6-0.8,1.6-0.8,3v5.6h-1.6V61.4h1.3l0.3,1.5h0.1c0.3-0.5,0.8-0.9,1.4-1.2c0.6-0.3,1.3-0.4,2-0.4c1.3,0,2.3,0.3,2.9,0.9
				c0.7,0.6,1,1.6,1,3v7H161.8z"/>
			<path class="st2" d="M171,72.3c-1.5,0-2.7-0.5-3.6-1.4c-0.8-1-1.3-2.3-1.3-4c0-1.8,0.4-3.2,1.3-4.2c0.9-1,2.1-1.5,3.7-1.5
				c0.5,0,1,0.1,1.5,0.2c0.5,0.1,0.9,0.2,1.2,0.4l-0.5,1.4c-0.4-0.1-0.7-0.3-1.2-0.4c-0.4-0.1-0.8-0.1-1.1-0.1
				c-2.2,0-3.3,1.4-3.3,4.2c0,1.3,0.3,2.3,0.8,3c0.5,0.7,1.3,1.1,2.4,1.1c0.9,0,1.8-0.2,2.7-0.6v1.4C173,72.1,172.1,72.3,171,72.3z"
				/>
			<path class="st2" d="M176.1,58.5c0-0.4,0.1-0.6,0.3-0.8c0.2-0.2,0.4-0.3,0.7-0.3c0.3,0,0.5,0.1,0.7,0.3c0.2,0.2,0.3,0.4,0.3,0.8
				c0,0.4-0.1,0.6-0.3,0.8c-0.2,0.2-0.4,0.3-0.7,0.3c-0.3,0-0.5-0.1-0.7-0.3C176.2,59.1,176.1,58.8,176.1,58.5z M177.9,72.1h-1.6
				V61.4h1.6V72.1z"/>
			<path class="st2" d="M187.9,72.1l-0.3-1.5h-0.1c-0.5,0.7-1.1,1.1-1.6,1.4c-0.5,0.2-1.2,0.4-2,0.4c-1.1,0-1.9-0.3-2.5-0.8
				c-0.6-0.5-0.9-1.3-0.9-2.3c0-2.2,1.7-3.3,5.2-3.4l1.8-0.1V65c0-0.8-0.2-1.5-0.5-1.9c-0.4-0.4-0.9-0.6-1.7-0.6
				c-0.9,0-1.9,0.3-3,0.8l-0.5-1.2c0.5-0.3,1.1-0.5,1.7-0.7c0.6-0.2,1.3-0.2,1.9-0.2c1.3,0,2.2,0.3,2.8,0.8c0.6,0.6,0.9,1.5,0.9,2.7
				v7.3H187.9z M184.2,70.9c1,0,1.8-0.3,2.4-0.8c0.6-0.6,0.9-1.3,0.9-2.3v-1l-1.6,0.1c-1.3,0-2.2,0.2-2.8,0.6
				c-0.6,0.4-0.9,0.9-0.9,1.7c0,0.6,0.2,1,0.5,1.3C183.1,70.8,183.6,70.9,184.2,70.9z"/>
		</g>
	</g>
	<g>
		<path class="st3" d="M51.5,21.7c-18.5,0-33.3,14.8-33.3,33.3c0,18.5,14.8,33.3,33.3,33.3C70,88.3,84.8,73.5,84.8,55
			C84.8,36.5,70,21.7,51.5,21.7z"/>
		<path class="st4" d="M51.5,21.7c-18.5,0-33.3,14.8-33.3,33.3h66.6C84.8,36.5,70,21.7,51.5,21.7z"/>
		<path class="st2" d="M51.5,26.8c-15.7,0-28.2,12.6-28.2,28.2c0,15.7,12.6,28.2,28.2,28.2c15.7,0,28.2-12.6,28.2-28.2
			C79.8,39.3,67.2,26.8,51.5,26.8z M44.9,58.1l-1.8,1.8c-0.5,0.5-1.3,0.5-1.8,0l-3.2-3.2c-2.1-2.1-3.2-4.7-3.2-7.7
			c0-5.9,4.9-10.8,10.8-10.8c2.8,0,5.6,1.2,7.7,3.2l3.2,3.2c0.5,0.5,0.5,1.3,0,1.8l-1.8,1.8c-0.5,0.5-1.3,0.5-1.8,0L49.8,45
			c-1-1-2.4-1.7-4-1.7c-3.1,0-5.6,2.6-5.6,5.6c0,1.5,0.6,3,1.7,4l3.2,3.2C45.3,56.8,45.3,57.6,44.9,58.1z M45.5,50.8l1.8-1.8
			c0.5-0.5,1.3-0.5,1.8,0l8.5,8.5c0.5,0.5,0.5,1.3,0,1.8L55.8,61c-0.5,0.5-1.3,0.5-1.8,0l-8.5-8.5C45,52,45,51.3,45.5,50.8z
			 M57.5,71.7c-2.8,0-5.6-1.2-7.7-3.2l-3.2-3.2c-0.5-0.5-0.5-1.3,0-1.8l1.8-1.8c0.5-0.5,1.3-0.5,1.8,0l3.2,3.2c1,1,2.4,1.7,4,1.7
			c3.1,0,5.6-2.6,5.6-5.6c0-1.5-0.6-3-1.7-4l-3.2-3.2c-0.5-0.5-0.5-1.3,0-1.8l1.8-1.8c0.5-0.5,1.3-0.5,1.8,0l3.2,3.2
			c2.1,2.1,3.2,4.7,3.2,7.7C68.2,66.8,63.4,71.7,57.5,71.7z"/>
	</g>
	<path class="st5" d="M283.4,93c0,5.5-4.5,10-10,10H16.6c-5.5,0-10-4.5-10-10V17c0-5.5,4.5-10,10-10h256.7c5.5,0,10,4.5,10,10V93z"
		/>
</g>
</svg>
