<?xml version="1.0" encoding="utf-8"?>
<!-- Generator: Adobe Illustrator 20.0.0, SVG Export Plug-In . SVG Version: 6.00 Build 0)  -->
<svg version="1.1" id="Layer_1" xmlns="http://www.w3.org/2000/svg" xmlns:xlink="http://www.w3.org/1999/xlink" x="0px" y="0px"
	 viewBox="0 0 290 110" style="enable-background:new 0 0 290 110;" xml:space="preserve">
<style type="text/css">
	.st0{fill:#EBB039;}
	.st1{fill:#EEC15E;}
	.st2{fill:#FFFFFF;}
	.st3{fill:#AF842D;}
	.st4{fill:#CD9A32;}
	.st5{fill:none;stroke:#AF842D;stroke-width:4;stroke-miterlimit:10;}
</style>
<g>
	<path class="st0" d="M283.4,93c0,5.5-4.5,10-10,10H16.6c-5.5,0-10-4.5-10-10V17c0-5.5,4.5-10,10-10h256.7c5.5,0,10,4.5,10,10
		L283.4,93L283.4,93z"/>
	<path class="st1" d="M6.6,55V17c0-5.5,4.5-10,10-10h256.7c5.5,0,10,4.5,10,10v38H6.6z"/>
	<g>
		<g>
			<path class="st2" d="M106.9,40.8h-8V26.6h8V28h-6.3v4.6h5.9v1.5h-5.9v5.3h6.3V40.8z"/>
			<path class="st2" d="M112.4,35.4l-3.7-5.2h1.8l2.8,4.1l2.8-4.1h1.8l-3.7,5.2l3.9,5.5h-1.8l-3-4.3l-3,4.3h-1.8L112.4,35.4z"/>
			<path class="st2" d="M124.5,41c-1.5,0-2.7-0.5-3.6-1.4c-0.8-1-1.3-2.3-1.3-4c0-1.8,0.4-3.2,1.3-4.2s2.1-1.5,3.7-1.5
				c0.5,0,1,0.1,1.5,0.2s0.9,0.2,1.2,0.4l-0.5,1.4c-0.4-0.1-0.7-0.3-1.2-0.4c-0.4-0.1-0.8-0.1-1.1-0.1c-2.2,0-3.3,1.4-3.3,4.2
				c0,1.3,0.3,2.3,0.8,3s1.3,1.1,2.4,1.1c0.9,0,1.8-0.2,2.7-0.6v1.4C126.5,40.8,125.6,41,124.5,41z"/>
			<path class="st2" d="M131.4,40.8h-1.6V25.6h1.6V40.8z"/>
			<path class="st2" d="M136.4,30.1V37c0,0.9,0.2,1.5,0.6,2c0.4,0.4,1,0.6,1.9,0.6c1.1,0,1.9-0.3,2.5-0.9c0.5-0.6,0.8-1.6,0.8-3
				v-5.6h1.6v10.7h-1.3l-0.2-1.4H142c-0.3,0.5-0.8,0.9-1.4,1.2c-0.6,0.3-1.3,0.4-2,0.4c-1.3,0-2.3-0.3-2.9-0.9c-0.6-0.6-1-1.6-1-3
				v-7C134.7,30.1,136.4,30.1,136.4,30.1z"/>
			<path class="st2" d="M147,27.2c0-0.4,0.1-0.6,0.3-0.8c0.2-0.2,0.4-0.3,0.7-0.3s0.5,0.1,0.7,0.3s0.3,0.4,0.3,0.8s-0.1,0.6-0.3,0.8
				c-0.2,0.2-0.4,0.3-0.7,0.3s-0.5-0.1-0.7-0.3C147.1,27.9,147,27.6,147,27.2z M148.7,40.8h-1.6V30.1h1.6V40.8z"/>
			<path class="st2" d="M157.1,29.9c0.5,0,0.9,0,1.3,0.1l-0.2,1.5c-0.4-0.1-0.8-0.1-1.2-0.1c-0.9,0-1.6,0.4-2.2,1.1
				c-0.6,0.7-0.9,1.6-0.9,2.6v5.7h-1.6V30.1h1.3l0.2,2h0.1c0.4-0.7,0.9-1.2,1.4-1.6C155.8,30.1,156.4,29.9,157.1,29.9z"/>
			<path class="st2" d="M167.2,40.8h-1.6V25.6h1.6V40.8z"/>
			<path class="st2" d="M179.8,35.5c0,1.7-0.4,3.1-1.3,4.1c-0.9,1-2.1,1.5-3.6,1.5c-1,0-1.8-0.2-2.5-0.7c-0.7-0.4-1.3-1.1-1.7-1.9
				c-0.4-0.8-0.6-1.8-0.6-2.9c0-1.7,0.4-3.1,1.3-4.1c0.9-1,2.1-1.5,3.6-1.5s2.7,0.5,3.6,1.5C179.4,32.4,179.8,33.8,179.8,35.5z
				 M171.7,35.5c0,1.4,0.3,2.4,0.8,3.1c0.5,0.7,1.4,1.1,2.4,1.1c1.1,0,1.9-0.4,2.4-1.1c0.6-0.7,0.8-1.8,0.8-3.1
				c0-1.4-0.3-2.4-0.8-3.1c-0.6-0.7-1.4-1.1-2.4-1.1c-1.1,0-1.9,0.3-2.4,1C171.9,33,171.7,34.1,171.7,35.5z"/>
			<path class="st2" d="M189.6,37.9c0,1-0.4,1.8-1.1,2.3c-0.7,0.5-1.8,0.8-3.1,0.8c-1.4,0-2.5-0.2-3.3-0.7v-1.5
				c0.5,0.3,1.1,0.5,1.7,0.6c0.6,0.1,1.2,0.2,1.7,0.2c0.8,0,1.5-0.1,2-0.4c0.5-0.3,0.7-0.7,0.7-1.2c0-0.4-0.2-0.8-0.5-1.1
				c-0.4-0.3-1.1-0.6-2.1-1s-1.7-0.7-2.1-1c-0.4-0.3-0.7-0.6-0.9-0.9c-0.2-0.4-0.3-0.8-0.3-1.3c0-0.9,0.4-1.6,1.1-2.1
				c0.7-0.5,1.7-0.8,2.9-0.8s2.3,0.2,3.4,0.7l-0.6,1.3c-1.1-0.4-2-0.7-2.9-0.7c-0.8,0-1.3,0.1-1.7,0.4c-0.4,0.2-0.6,0.6-0.6,1
				c0,0.3,0.1,0.5,0.2,0.7c0.1,0.2,0.4,0.4,0.7,0.6c0.3,0.2,1,0.4,1.9,0.8c1.3,0.5,2.1,0.9,2.6,1.4
				C189.3,36.6,189.6,37.2,189.6,37.9z"/>
			<path class="st2" d="M199.7,40.8l-4.1-10.7h1.7l2.3,6.3c0.5,1.5,0.8,2.4,0.9,2.9h0.1c0.1-0.3,0.3-1.1,0.7-2.1
				c0.4-1.1,1.2-3.4,2.6-7.1h1.7l-4.1,10.7H199.7z"/>
			<path class="st2" d="M214,40.8l-0.3-1.5h-0.1c-0.5,0.7-1.1,1.1-1.6,1.4c-0.5,0.2-1.2,0.4-2,0.4c-1.1,0-1.9-0.3-2.5-0.8
				s-0.9-1.3-0.9-2.3c0-2.2,1.7-3.3,5.2-3.4l1.8-0.1v-0.7c0-0.8-0.2-1.5-0.5-1.9c-0.4-0.4-0.9-0.6-1.7-0.6c-0.9,0-1.9,0.3-3,0.8
				l-0.5-1.2c0.5-0.3,1.1-0.5,1.7-0.7c0.6-0.2,1.3-0.2,1.9-0.2c1.3,0,2.2,0.3,2.8,0.8c0.6,0.6,0.9,1.5,0.9,2.7v7.3H214z M210.3,39.7
				c1,0,1.8-0.3,2.4-0.8c0.6-0.6,0.9-1.3,0.9-2.3v-1l-1.6,0.1c-1.3,0-2.2,0.2-2.8,0.6c-0.6,0.4-0.9,0.9-0.9,1.7c0,0.6,0.2,1,0.5,1.3
				C209.2,39.5,209.7,39.7,210.3,39.7z"/>
			<path class="st2" d="M220.2,40.8h-1.6V25.6h1.6V40.8z"/>
			<path class="st2" d="M232.8,35.5c0,1.7-0.4,3.1-1.3,4.1c-0.9,1-2.1,1.5-3.6,1.5c-1,0-1.8-0.2-2.5-0.7c-0.7-0.4-1.3-1.1-1.7-1.9
				c-0.4-0.8-0.6-1.8-0.6-2.9c0-1.7,0.4-3.1,1.3-4.1c0.9-1,2.1-1.5,3.6-1.5s2.7,0.5,3.6,1.5C232.4,32.4,232.8,33.8,232.8,35.5z
				 M224.7,35.5c0,1.4,0.3,2.4,0.8,3.1c0.5,0.7,1.4,1.1,2.4,1.1c1.1,0,1.9-0.4,2.4-1.1c0.6-0.7,0.8-1.8,0.8-3.1
				c0-1.4-0.3-2.4-0.8-3.1c-0.6-0.7-1.4-1.1-2.4-1.1c-1.1,0-1.9,0.3-2.4,1C225,33,224.7,34.1,224.7,35.5z"/>
			<path class="st2" d="M240.6,29.9c0.5,0,0.9,0,1.3,0.1l-0.2,1.5c-0.4-0.1-0.8-0.1-1.2-0.1c-0.9,0-1.6,0.4-2.2,1.1
				c-0.6,0.7-0.9,1.6-0.9,2.6v5.7h-1.6V30.1h1.3l0.2,2h0.1c0.4-0.7,0.9-1.2,1.4-1.6C239.3,30.1,239.9,29.9,240.6,29.9z"/>
			<path class="st2" d="M248.4,41c-1.6,0-2.8-0.5-3.7-1.4c-0.9-1-1.4-2.3-1.4-4s0.4-3.1,1.3-4.1c0.8-1,2-1.5,3.4-1.5
				c1.3,0,2.4,0.4,3.2,1.3s1.2,2,1.2,3.5v1H245c0,1.3,0.4,2.2,1,2.9s1.5,1,2.5,1c1.2,0,2.3-0.2,3.4-0.7v1.4
				c-0.6,0.2-1.1,0.4-1.6,0.5S249.1,41,248.4,41z M247.9,31.3c-0.9,0-1.5,0.3-2.1,0.8c-0.5,0.6-0.8,1.3-0.9,2.3h5.6
				c0-1-0.2-1.8-0.7-2.3C249.4,31.6,248.8,31.3,247.9,31.3z"/>
			<path class="st2" d="M262,37.9c0,1-0.4,1.8-1.1,2.3s-1.8,0.8-3.1,0.8c-1.4,0-2.5-0.2-3.3-0.7v-1.5c0.5,0.3,1.1,0.5,1.7,0.6
				c0.6,0.1,1.2,0.2,1.7,0.2c0.8,0,1.5-0.1,2-0.4c0.5-0.3,0.7-0.7,0.7-1.2c0-0.4-0.2-0.8-0.5-1.1c-0.4-0.3-1.1-0.6-2.1-1
				s-1.7-0.7-2.1-1s-0.7-0.6-0.9-0.9c-0.2-0.4-0.3-0.8-0.3-1.3c0-0.9,0.4-1.6,1.1-2.1c0.7-0.5,1.7-0.8,2.9-0.8s2.3,0.2,3.4,0.7
				l-0.6,1.3c-1.1-0.4-2-0.7-2.9-0.7c-0.8,0-1.3,0.1-1.7,0.4c-0.4,0.2-0.6,0.6-0.6,1c0,0.3,0.1,0.5,0.2,0.7s0.4,0.4,0.7,0.6
				c0.3,0.2,1,0.4,1.9,0.8c1.3,0.5,2.1,0.9,2.6,1.4C261.8,36.6,262,37.2,262,37.9z"/>
			<path class="st2" d="M100.2,50.1V57c0,0.9,0.2,1.5,0.6,2c0.4,0.4,1,0.6,1.9,0.6c1.1,0,1.9-0.3,2.5-0.9c0.5-0.6,0.8-1.6,0.8-3
				v-5.6h1.6v10.7h-1.3l-0.2-1.4H106c-0.3,0.5-0.8,0.9-1.4,1.2s-1.3,0.4-2,0.4c-1.3,0-2.3-0.3-2.9-0.9c-0.6-0.6-1-1.6-1-3v-7H100.2z
				"/>
			<path class="st2" d="M115.9,50c1.4,0,2.5,0.5,3.3,1.4c0.8,1,1.2,2.3,1.2,4.1s-0.4,3.1-1.2,4.1c-0.8,1-1.9,1.5-3.3,1.5
				c-0.7,0-1.3-0.1-1.9-0.4c-0.6-0.3-1.1-0.7-1.5-1.2h-0.1l-0.3,1.4h-1.2V45.6h1.6v3.7c0,0.8,0,1.6-0.1,2.2h0.1
				C113.3,50.5,114.4,50,115.9,50z M115.7,51.3c-1.1,0-1.9,0.3-2.4,1c-0.5,0.6-0.7,1.7-0.7,3.2s0.3,2.6,0.8,3.2c0.5,0.6,1.3,1,2.4,1
				c1,0,1.7-0.4,2.2-1.1c0.5-0.7,0.7-1.8,0.7-3.1c0-1.4-0.2-2.4-0.7-3.1C117.5,51.7,116.7,51.3,115.7,51.3z"/>
			<path class="st2" d="M123,47.2c0-0.4,0.1-0.6,0.3-0.8c0.2-0.2,0.4-0.3,0.7-0.3c0.3,0,0.5,0.1,0.7,0.3s0.3,0.4,0.3,0.8
				c0,0.4-0.1,0.6-0.3,0.8c-0.2,0.2-0.4,0.3-0.7,0.3c-0.3,0-0.5-0.1-0.7-0.3C123.1,47.9,123,47.6,123,47.2z M124.8,60.8h-1.6V50.1
				h1.6V60.8z"/>
			<path class="st2" d="M132.5,61c-1.5,0-2.7-0.5-3.6-1.4c-0.8-1-1.3-2.3-1.3-4c0-1.8,0.4-3.2,1.3-4.2c0.9-1,2.1-1.5,3.7-1.5
				c0.5,0,1,0.1,1.5,0.2c0.5,0.1,0.9,0.2,1.2,0.4l-0.5,1.4c-0.4-0.1-0.7-0.3-1.2-0.4c-0.4-0.1-0.8-0.1-1.1-0.1
				c-2.2,0-3.3,1.4-3.3,4.2c0,1.3,0.3,2.3,0.8,3s1.3,1.1,2.4,1.1c0.9,0,1.8-0.2,2.7-0.6v1.4C134.5,60.8,133.6,61,132.5,61z"/>
			<path class="st2" d="M144.3,60.8l-0.3-1.5h-0.1c-0.5,0.7-1.1,1.1-1.6,1.4c-0.5,0.2-1.2,0.4-2,0.4c-1.1,0-1.9-0.3-2.5-0.8
				s-0.9-1.3-0.9-2.3c0-2.2,1.7-3.3,5.2-3.4l1.8-0.1v-0.7c0-0.8-0.2-1.5-0.5-1.9c-0.4-0.4-0.9-0.6-1.7-0.6c-0.9,0-1.9,0.3-3,0.8
				l-0.5-1.2c0.5-0.3,1.1-0.5,1.7-0.7c0.6-0.2,1.3-0.2,1.9-0.2c1.3,0,2.2,0.3,2.8,0.8c0.6,0.6,0.9,1.5,0.9,2.7v7.3H144.3z
				 M140.7,59.7c1,0,1.8-0.3,2.4-0.8c0.6-0.6,0.9-1.3,0.9-2.3v-1l-1.6,0.1c-1.3,0-2.2,0.2-2.8,0.6c-0.6,0.4-0.9,0.9-0.9,1.7
				c0,0.6,0.2,1,0.5,1.3C139.6,59.5,140,59.7,140.7,59.7z"/>
			<path class="st2" d="M156.2,59.4L156.2,59.4c-0.8,1.1-2,1.6-3.4,1.6s-2.5-0.5-3.3-1.4c-0.8-1-1.2-2.3-1.2-4.1s0.4-3.1,1.2-4.1
				s1.9-1.5,3.3-1.5c1.5,0,2.6,0.5,3.3,1.6h0.1l-0.1-0.8v-0.8v-4.4h1.6v15.2h-1.3L156.2,59.4z M152.9,59.7c1.1,0,1.9-0.3,2.4-0.9
				c0.5-0.6,0.7-1.6,0.7-2.9v-0.3c0-1.5-0.3-2.6-0.8-3.2c-0.5-0.6-1.3-1-2.4-1c-1,0-1.7,0.4-2.2,1.1c-0.5,0.7-0.8,1.8-0.8,3.1
				c0,1.4,0.3,2.4,0.8,3.1C151.2,59.3,152,59.7,152.9,59.7z"/>
			<path class="st2" d="M170.4,55.5c0,1.7-0.4,3.1-1.3,4.1c-0.9,1-2.1,1.5-3.6,1.5c-1,0-1.8-0.2-2.5-0.7c-0.7-0.4-1.3-1.1-1.7-1.9
				c-0.4-0.8-0.6-1.8-0.6-2.9c0-1.7,0.4-3.1,1.3-4.1c0.9-1,2.1-1.5,3.6-1.5s2.7,0.5,3.6,1.5S170.4,53.8,170.4,55.5z M162.2,55.5
				c0,1.4,0.3,2.4,0.8,3.1c0.5,0.7,1.4,1.1,2.4,1.1c1.1,0,1.9-0.4,2.4-1.1c0.6-0.7,0.8-1.8,0.8-3.1c0-1.4-0.3-2.4-0.8-3.1
				c-0.6-0.7-1.4-1.1-2.4-1.1c-1.1,0-1.9,0.3-2.4,1C162.5,53,162.2,54.1,162.2,55.5z"/>
			<path class="st2" d="M180.1,57.9c0,1-0.4,1.8-1.1,2.3c-0.7,0.5-1.8,0.8-3.1,0.8c-1.4,0-2.5-0.2-3.3-0.7v-1.5
				c0.5,0.3,1.1,0.5,1.7,0.6c0.6,0.1,1.2,0.2,1.7,0.2c0.8,0,1.5-0.1,2-0.4c0.5-0.3,0.7-0.7,0.7-1.2c0-0.4-0.2-0.8-0.5-1.1
				c-0.4-0.3-1.1-0.6-2.1-1s-1.7-0.7-2.1-1c-0.4-0.3-0.7-0.6-0.9-0.9c-0.2-0.4-0.3-0.8-0.3-1.3c0-0.9,0.4-1.6,1.1-2.1
				c0.7-0.5,1.7-0.8,2.9-0.8s2.3,0.2,3.4,0.7l-0.6,1.3c-1.1-0.4-2-0.7-2.9-0.7c-0.8,0-1.3,0.1-1.7,0.4c-0.4,0.2-0.6,0.6-0.6,1
				c0,0.3,0.1,0.5,0.2,0.7c0.1,0.2,0.4,0.4,0.7,0.6c0.3,0.2,1,0.4,1.9,0.8c1.3,0.5,2.1,0.9,2.6,1.4
				C179.9,56.6,180.1,57.2,180.1,57.9z"/>
			<path class="st2" d="M192.5,61c-1.6,0-2.8-0.5-3.7-1.4c-0.9-1-1.4-2.3-1.4-4s0.4-3.1,1.3-4.1c0.8-1,2-1.5,3.4-1.5
				c1.3,0,2.4,0.4,3.2,1.3c0.8,0.9,1.2,2,1.2,3.5v1H189c0,1.3,0.4,2.2,1,2.9s1.5,1,2.5,1c1.2,0,2.3-0.2,3.4-0.7v1.4
				c-0.6,0.2-1.1,0.4-1.6,0.5C193.8,61,193.2,61,192.5,61z M192,51.3c-0.9,0-1.5,0.3-2.1,0.8c-0.5,0.6-0.8,1.3-0.9,2.3h5.6
				c0-1-0.2-1.8-0.7-2.3C193.5,51.6,192.9,51.3,192,51.3z"/>
			<path class="st2" d="M206.5,60.8v-6.9c0-0.9-0.2-1.5-0.6-2c-0.4-0.4-1-0.6-1.9-0.6c-1.1,0-1.9,0.3-2.5,0.9
				c-0.5,0.6-0.8,1.6-0.8,3v5.6h-1.6V50.1h1.3l0.3,1.5h0.1c0.3-0.5,0.8-0.9,1.4-1.2c0.6-0.3,1.3-0.4,2-0.4c1.3,0,2.3,0.3,2.9,0.9
				c0.7,0.6,1,1.6,1,3v7L206.5,60.8L206.5,60.8z"/>
			<path class="st2" d="M218.3,60.8h-1.6V45.6h1.6V60.8z"/>
			<path class="st2" d="M228.3,60.8l-0.3-1.5h-0.1c-0.5,0.7-1.1,1.1-1.6,1.4c-0.5,0.2-1.2,0.4-2,0.4c-1.1,0-1.9-0.3-2.5-0.8
				s-0.9-1.3-0.9-2.3c0-2.2,1.7-3.3,5.2-3.4l1.8-0.1v-0.7c0-0.8-0.2-1.5-0.5-1.9c-0.4-0.4-0.9-0.6-1.7-0.6c-0.9,0-1.9,0.3-3,0.8
				l-0.5-1.2c0.5-0.3,1.1-0.5,1.7-0.7c0.6-0.2,1.3-0.2,1.9-0.2c1.3,0,2.2,0.3,2.8,0.8c0.6,0.6,0.9,1.5,0.9,2.7v7.3H228.3z
				 M224.6,59.7c1,0,1.8-0.3,2.4-0.8c0.6-0.6,0.9-1.3,0.9-2.3v-1l-1.6,0.1c-1.3,0-2.2,0.2-2.8,0.6c-0.6,0.4-0.9,0.9-0.9,1.7
				c0,0.6,0.2,1,0.5,1.3C223.5,59.5,224,59.7,224.6,59.7z"/>
			<path class="st2" d="M239.7,57.9c0,1-0.4,1.8-1.1,2.3c-0.7,0.5-1.8,0.8-3.1,0.8c-1.4,0-2.5-0.2-3.3-0.7v-1.5
				c0.5,0.3,1.1,0.5,1.7,0.6c0.6,0.1,1.2,0.2,1.7,0.2c0.8,0,1.5-0.1,2-0.4c0.5-0.3,0.7-0.7,0.7-1.2c0-0.4-0.2-0.8-0.5-1.1
				c-0.4-0.3-1.1-0.6-2.1-1s-1.7-0.7-2.1-1c-0.4-0.3-0.7-0.6-0.9-0.9c-0.2-0.4-0.3-0.8-0.3-1.3c0-0.9,0.4-1.6,1.1-2.1
				c0.7-0.5,1.7-0.8,2.9-0.8s2.3,0.2,3.4,0.7l-0.6,1.3c-1.1-0.4-2-0.7-2.9-0.7c-0.8,0-1.3,0.1-1.7,0.4c-0.4,0.2-0.6,0.6-0.6,1
				c0,0.3,0.1,0.5,0.2,0.7c0.1,0.2,0.4,0.4,0.7,0.6c0.3,0.2,1,0.4,1.9,0.8c1.3,0.5,2.1,0.9,2.6,1.4
				C239.5,56.6,239.7,57.2,239.7,57.9z"/>
			<path class="st2" d="M103.6,81c-0.7,0-1.3-0.1-1.9-0.4s-1.1-0.7-1.5-1.2h-0.1c0.1,0.6,0.1,1.2,0.1,1.8v4.4h-1.6V70.1h1.3l0.2,1.5
				h0.1c0.4-0.6,0.9-1,1.5-1.3s1.2-0.4,1.9-0.4c1.4,0,2.5,0.5,3.3,1.5s1.2,2.3,1.2,4.1c0,1.8-0.4,3.1-1.2,4.1
				C106.1,80.5,105,81,103.6,81z M103.4,71.3c-1.1,0-1.9,0.3-2.4,0.9s-0.7,1.6-0.8,2.9v0.4c0,1.5,0.3,2.6,0.8,3.2s1.3,1,2.4,1
				c0.9,0,1.6-0.4,2.2-1.1c0.5-0.7,0.8-1.8,0.8-3.1c0-1.3-0.3-2.4-0.8-3.1C105.1,71.7,104.4,71.3,103.4,71.3z"/>
			<path class="st2" d="M120.1,75.5c0,1.7-0.4,3.1-1.3,4.1s-2.1,1.5-3.6,1.5c-1,0-1.8-0.2-2.5-0.7c-0.7-0.4-1.3-1.1-1.7-1.9
				c-0.4-0.8-0.6-1.8-0.6-2.9c0-1.7,0.4-3.1,1.3-4.1s2.1-1.5,3.6-1.5s2.7,0.5,3.6,1.5C119.7,72.4,120.1,73.8,120.1,75.5z M112,75.5
				c0,1.4,0.3,2.4,0.8,3.1s1.4,1.1,2.4,1.1c1.1,0,1.9-0.4,2.4-1.1c0.6-0.7,0.8-1.8,0.8-3.1c0-1.4-0.3-2.4-0.8-3.1
				c-0.6-0.7-1.4-1.1-2.4-1.1c-1.1,0-1.9,0.3-2.4,1S112,74.1,112,75.5z"/>
			<path class="st2" d="M129.9,77.9c0,1-0.4,1.8-1.1,2.3c-0.7,0.5-1.8,0.8-3.1,0.8c-1.4,0-2.5-0.2-3.3-0.7v-1.5
				c0.5,0.3,1.1,0.5,1.7,0.6s1.2,0.2,1.7,0.2c0.8,0,1.5-0.1,2-0.4c0.5-0.3,0.7-0.7,0.7-1.2c0-0.4-0.2-0.8-0.5-1.1
				c-0.4-0.3-1.1-0.6-2.1-1s-1.7-0.7-2.1-1s-0.7-0.6-0.9-0.9c-0.2-0.4-0.3-0.8-0.3-1.3c0-0.9,0.4-1.6,1.1-2.1s1.7-0.8,2.9-0.8
				c1.2,0,2.3,0.2,3.4,0.7l-0.6,1.3c-1.1-0.4-2-0.7-2.9-0.7c-0.8,0-1.3,0.1-1.7,0.4c-0.4,0.2-0.6,0.6-0.6,1c0,0.3,0.1,0.5,0.2,0.7
				s0.4,0.4,0.7,0.6c0.3,0.2,1,0.4,1.9,0.8c1.3,0.5,2.1,0.9,2.6,1.4C129.7,76.6,129.9,77.2,129.9,77.9z"/>
			<path class="st2" d="M132.4,67.2c0-0.4,0.1-0.6,0.3-0.8c0.2-0.2,0.4-0.3,0.7-0.3s0.5,0.1,0.7,0.3c0.2,0.2,0.3,0.4,0.3,0.8
				s-0.1,0.6-0.3,0.8c-0.2,0.2-0.4,0.3-0.7,0.3s-0.5-0.1-0.7-0.3C132.5,67.9,132.4,67.6,132.4,67.2z M134.2,80.8h-1.6V70.1h1.6V80.8
				z"/>
			<path class="st2" d="M141.9,81c-1.5,0-2.7-0.5-3.6-1.4c-0.8-1-1.3-2.3-1.3-4c0-1.8,0.4-3.2,1.3-4.2c0.9-1,2.1-1.5,3.7-1.5
				c0.5,0,1,0.1,1.5,0.2s0.9,0.2,1.2,0.4l-0.5,1.4c-0.4-0.1-0.7-0.3-1.2-0.4c-0.4-0.1-0.8-0.1-1.1-0.1c-2.2,0-3.3,1.4-3.3,4.2
				c0,1.3,0.3,2.3,0.8,3s1.3,1.1,2.4,1.1c0.9,0,1.8-0.2,2.7-0.6v1.4C143.9,80.8,143,81,141.9,81z"/>
			<path class="st2" d="M147,67.2c0-0.4,0.1-0.6,0.3-0.8c0.2-0.2,0.4-0.3,0.7-0.3s0.5,0.1,0.7,0.3c0.2,0.2,0.3,0.4,0.3,0.8
				s-0.1,0.6-0.3,0.8c-0.2,0.2-0.4,0.3-0.7,0.3s-0.5-0.1-0.7-0.3C147.1,67.9,147,67.6,147,67.2z M148.7,80.8h-1.6V70.1h1.6V80.8z"/>
			<path class="st2" d="M161.4,75.5c0,1.7-0.4,3.1-1.3,4.1c-0.9,1-2.1,1.5-3.6,1.5c-1,0-1.8-0.2-2.5-0.7c-0.7-0.4-1.3-1.1-1.7-1.9
				s-0.6-1.8-0.6-2.9c0-1.7,0.4-3.1,1.3-4.1c0.9-1,2.1-1.5,3.6-1.5s2.7,0.5,3.6,1.5C161,72.4,161.4,73.8,161.4,75.5z M153.3,75.5
				c0,1.4,0.3,2.4,0.8,3.1s1.4,1.1,2.4,1.1c1.1,0,1.9-0.4,2.4-1.1c0.6-0.7,0.8-1.8,0.8-3.1c0-1.4-0.3-2.4-0.8-3.1
				c-0.6-0.7-1.4-1.1-2.4-1.1c-1.1,0-1.9,0.3-2.4,1C153.5,73,153.3,74.1,153.3,75.5z"/>
			<path class="st2" d="M171.6,80.8v-6.9c0-0.9-0.2-1.5-0.6-2c-0.4-0.4-1-0.6-1.9-0.6c-1.1,0-1.9,0.3-2.5,0.9
				c-0.5,0.6-0.8,1.6-0.8,3v5.6h-1.6V70.1h1.3l0.3,1.5h0.1c0.3-0.5,0.8-0.9,1.4-1.2c0.6-0.3,1.3-0.4,2-0.4c1.3,0,2.3,0.3,2.9,0.9
				c0.7,0.6,1,1.6,1,3v7L171.6,80.8L171.6,80.8z"/>
			<path class="st2" d="M181,81c-1.6,0-2.8-0.5-3.7-1.4c-0.9-1-1.4-2.3-1.4-4s0.4-3.1,1.3-4.1s2-1.5,3.4-1.5c1.3,0,2.4,0.4,3.2,1.3
				s1.2,2,1.2,3.5v1h-7.4c0,1.3,0.4,2.2,1,2.9c0.6,0.7,1.5,1,2.5,1c1.2,0,2.3-0.2,3.4-0.7v1.4c-0.6,0.2-1.1,0.4-1.6,0.5
				C182.4,81,181.8,81,181,81z M180.6,71.3c-0.9,0-1.5,0.3-2.1,0.8c-0.5,0.6-0.8,1.3-0.9,2.3h5.6c0-1-0.2-1.8-0.7-2.3
				C182.1,71.6,181.5,71.3,180.6,71.3z"/>
			<path class="st2" d="M194.7,77.9c0,1-0.4,1.8-1.1,2.3c-0.7,0.5-1.8,0.8-3.1,0.8c-1.4,0-2.5-0.2-3.3-0.7v-1.5
				c0.5,0.3,1.1,0.5,1.7,0.6c0.6,0.1,1.2,0.2,1.7,0.2c0.8,0,1.5-0.1,2-0.4s0.7-0.7,0.7-1.2c0-0.4-0.2-0.8-0.5-1.1
				c-0.4-0.3-1.1-0.6-2.1-1s-1.7-0.7-2.1-1c-0.4-0.3-0.7-0.6-0.9-0.9c-0.2-0.4-0.3-0.8-0.3-1.3c0-0.9,0.4-1.6,1.1-2.1
				c0.7-0.5,1.7-0.8,2.9-0.8s2.3,0.2,3.4,0.7l-0.6,1.3c-1.1-0.4-2-0.7-2.9-0.7c-0.8,0-1.3,0.1-1.7,0.4c-0.4,0.2-0.6,0.6-0.6,1
				c0,0.3,0.1,0.5,0.2,0.7c0.1,0.2,0.4,0.4,0.7,0.6s1,0.4,1.9,0.8c1.3,0.5,2.1,0.9,2.6,1.4C194.4,76.6,194.7,77.2,194.7,77.9z"/>
			<path class="st2" d="M210.6,69.9c0,0.9-0.3,1.7-0.8,2.2c-0.5,0.6-1.2,1-2.2,1.2v0.1c1.1,0.1,2,0.5,2.5,1.1
				c0.6,0.6,0.8,1.4,0.8,2.3c0,1.4-0.5,2.4-1.4,3.1s-2.3,1.1-4,1.1c-0.8,0-1.4-0.1-2.1-0.2c-0.6-0.1-1.2-0.3-1.8-0.6v-1.5
				c0.6,0.3,1.3,0.5,2,0.7s1.4,0.2,2,0.2c2.5,0,3.7-1,3.7-2.9c0-1.7-1.4-2.6-4.1-2.6h-1.4v-1.4h1.4c1.1,0,2-0.2,2.6-0.7
				c0.7-0.5,1-1.2,1-2c0-0.7-0.2-1.2-0.7-1.6s-1.1-0.6-1.9-0.6c-0.6,0-1.2,0.1-1.8,0.3c-0.6,0.2-1.2,0.5-1.9,0.9l-0.8-1.1
				c0.6-0.5,1.3-0.8,2-1.1c0.8-0.3,1.6-0.4,2.4-0.4c1.4,0,2.5,0.3,3.2,1C210.2,67.9,210.6,68.8,210.6,69.9z"/>
			<path class="st2" d="M217.4,70.1h1.7l2.3,6.1c0.5,1.4,0.8,2.4,1,3h0.1c0.1-0.3,0.3-0.9,0.5-1.7c0.3-0.8,1.2-3.3,2.7-7.4h1.7
				l-4.6,12.2c-0.5,1.2-1,2.1-1.6,2.6s-1.4,0.8-2.2,0.8c-0.5,0-1-0.1-1.5-0.2v-1.3c0.4,0.1,0.8,0.1,1.2,0.1c1.1,0,1.9-0.6,2.4-1.9
				l0.6-1.5L217.4,70.1z"/>
			<path class="st2" d="M233.8,74.7c0-2.8,0.5-4.9,1.6-6.3s2.7-2.1,4.8-2.1c0.7,0,1.3,0.1,1.7,0.2v1.4c-0.5-0.2-1.1-0.2-1.7-0.2
				c-1.5,0-2.7,0.5-3.5,1.4c-0.8,1-1.2,2.5-1.3,4.5h0.1c0.7-1.1,1.8-1.7,3.4-1.7c1.3,0,2.3,0.4,3,1.2c0.7,0.8,1.1,1.8,1.1,3.2
				c0,1.5-0.4,2.7-1.2,3.5s-1.9,1.3-3.3,1.3c-1.5,0-2.6-0.6-3.5-1.7C234.2,78.2,233.8,76.7,233.8,74.7z M238.6,79.6
				c0.9,0,1.6-0.3,2.2-0.9c0.5-0.6,0.8-1.4,0.8-2.5c0-0.9-0.2-1.7-0.7-2.2s-1.2-0.8-2.1-0.8c-0.6,0-1.1,0.1-1.6,0.4
				c-0.5,0.2-0.9,0.6-1.2,1s-0.4,0.9-0.4,1.3c0,0.7,0.1,1.3,0.4,1.9c0.3,0.6,0.6,1,1.1,1.4C237.4,79.5,238,79.6,238.6,79.6z"/>
		</g>
	</g>
	<g>
		<path class="st3" d="M51.4,21.7c-18.5,0.1-33.2,15-33.2,33.4c0.1,18.5,15,33.2,33.4,33.2c18.5-0.1,33.2-15,33.2-33.4
			C84.8,36.4,69.9,21.6,51.4,21.7z"/>
		<path class="st4" d="M51.4,21.7c-18.5,0.1-33.2,15-33.2,33.4l66.6-0.3C84.8,36.4,69.9,21.6,51.4,21.7z"/>
		<path class="st2" d="M51.5,26.5C35.7,26.5,23,39.2,23,55s12.7,28.5,28.5,28.5S80,70.8,80,55S67.4,26.5,51.5,26.5z M67.1,69.2
			c0,0.8-0.5,1.3-1.3,1.3H37.3c-0.8,0-1.3-0.5-1.3-1.3V40.7c0-0.8,0.5-1.3,1.3-1.3h10.4c0.8,0,1.3,0.5,1.3,1.3v2.6
			c0,0.8-0.5,1.3-1.3,1.3h-5.8c-0.4,0-0.6,0.3-0.6,0.6v19.4c0,0.4,0.3,0.6,0.6,0.6h19.4c0.4,0,0.6-0.3,0.6-0.6v-5.8
			c0-0.8,0.5-1.3,1.3-1.3h2.6c0.8,0,1.3,0.5,1.3,1.3V69.2z M65.8,52.4h-2.6c-0.8,0-1.3-0.5-1.3-1.3v-1.3c0-0.5-0.6-0.9-1.2-0.5
			l-5.2,5.3c-0.5,0.5-1.3,0.5-1.8,0l-1.8-1.8c-0.5-0.5-0.5-1.3,0-1.8l5.2-5.3c0.4-0.4,0.1-1.2-0.5-1.2h-1.3c-0.8,0-1.3-0.5-1.3-1.3
			v-2.6c0-0.8,0.5-1.3,1.3-1.3h10.4c0.8,0,1.3,0.5,1.3,1.3v10.5C67,51.1,67,52.4,65.8,52.4z M42,54.1v-1.2h2.6v1.2H42z M48.9,56.1
			h-1.5V52v-0.7v-0.7c-0.2,0.2-0.4,0.4-0.5,0.5l-0.8,0.6l-0.7-0.9l2.3-1.8h1.2V56.1z M47.8,61.2v-1.1h2.4v1.1H47.8z M55.3,63.1h-4.5
			v-1l1.6-1.6c0.5-0.5,0.8-0.8,0.9-1c0.1-0.2,0.3-0.4,0.3-0.5c0.1-0.2,0.1-0.3,0.1-0.5c0-0.3-0.1-0.5-0.2-0.6
			c-0.1-0.1-0.3-0.2-0.6-0.2c-0.2,0-0.5,0.1-0.7,0.2c-0.2,0.1-0.5,0.3-0.7,0.5l-0.7-0.9c0.3-0.3,0.6-0.5,0.8-0.6s0.4-0.2,0.7-0.3
			c0.2-0.1,0.5-0.1,0.8-0.1c0.4,0,0.8,0.1,1.1,0.2c0.3,0.1,0.5,0.4,0.7,0.6c0.2,0.3,0.3,0.6,0.3,0.9c0,0.3-0.1,0.6-0.2,0.8
			c-0.1,0.3-0.3,0.5-0.5,0.8s-0.6,0.7-1.2,1.2l-0.8,0.8V62h2.8C55.3,62,55.3,63.1,55.3,63.1z"/>
	</g>
	<path class="st5" d="M283.4,93c0,5.5-4.5,10-10,10H16.6c-5.5,0-10-4.5-10-10V17c0-5.5,4.5-10,10-10h256.7c5.5,0,10,4.5,10,10
		L283.4,93L283.4,93z"/>
</g>
</svg>
