<?xml version="1.0" encoding="utf-8"?>
<!-- Generator: Adobe Illustrator 20.0.0, SVG Export Plug-In . SVG Version: 6.00 Build 0)  -->
<svg version="1.1" id="Layer_1" xmlns="http://www.w3.org/2000/svg" xmlns:xlink="http://www.w3.org/1999/xlink" x="0px" y="0px"
	 viewBox="0 0 290 110" style="enable-background:new 0 0 290 110;" xml:space="preserve">
<style type="text/css">
	.st0{fill:#639BBB;}
	.st1{fill:#80B0CA;}
	.st2{fill:#FFFFFF;}
	.st3{fill:#4C758C;}
	.st4{fill:#5787A3;}
	.st5{fill:none;stroke:#4C758C;stroke-width:4;stroke-miterlimit:10;}
</style>
<g>
	<path class="st0" d="M283.4,93c0,5.5-4.5,10-10,10H16.6c-5.5,0-10-4.5-10-10V17c0-5.5,4.5-10,10-10h256.7c5.5,0,10,4.5,10,10
		L283.4,93L283.4,93z"/>
	<path class="st1" d="M6.6,55V17c0-5.5,4.5-10,10-10h256.7c5.5,0,10,4.5,10,10v38H6.6z"/>
	<g>
		<g>
			<path class="st2" d="M108.9,49.2h-8V34.9h8v1.5h-6.3V41h5.9v1.5h-5.9v5.3h6.3V49.2z"/>
			<path class="st2" d="M114.4,43.7l-3.7-5.2h1.8l2.8,4.1l2.8-4.1h1.8l-3.7,5.2l3.9,5.5h-1.8l-3-4.3l-3,4.3h-1.8L114.4,43.7z"/>
			<path class="st2" d="M125.7,48.1c0.3,0,0.6,0,0.8-0.1c0.3,0,0.5-0.1,0.6-0.1v1.2c-0.2,0.1-0.4,0.2-0.8,0.2
				c-0.3,0.1-0.6,0.1-0.9,0.1c-2.1,0-3.1-1.1-3.1-3.3v-6.4h-1.5V39l1.5-0.7L123,36h0.9v2.5h3.1v1.3h-3V46c0,0.6,0.2,1.1,0.5,1.5
				S125.2,48.1,125.7,48.1z"/>
			<path class="st2" d="M134.2,38.3c0.5,0,0.9,0,1.3,0.1l-0.2,1.5c-0.4-0.1-0.8-0.1-1.2-0.1c-0.9,0-1.6,0.4-2.2,1.1
				c-0.6,0.7-0.9,1.6-0.9,2.6v5.7h-1.6V38.5h1.3l0.2,2h0.1c0.4-0.7,0.9-1.2,1.4-1.6C132.9,38.5,133.5,38.3,134.2,38.3z"/>
			<path class="st2" d="M144.1,49.2l-0.3-1.5h-0.1c-0.5,0.7-1.1,1.1-1.6,1.4c-0.5,0.2-1.2,0.4-2,0.4c-1.1,0-1.9-0.3-2.5-0.8
				s-0.9-1.3-0.9-2.3c0-2.2,1.7-3.3,5.2-3.4l1.8-0.1v-0.7c0-0.8-0.2-1.5-0.5-1.9c-0.4-0.4-0.9-0.6-1.7-0.6c-0.9,0-1.9,0.3-3,0.8
				l-0.5-1.2c0.5-0.3,1.1-0.5,1.7-0.7c0.6-0.2,1.3-0.2,1.9-0.2c1.3,0,2.2,0.3,2.8,0.8c0.6,0.6,0.9,1.5,0.9,2.7v7.3H144.1z
				 M140.4,48.1c1,0,1.8-0.3,2.4-0.8c0.6-0.6,0.9-1.3,0.9-2.3v-1H142c-1.3,0-2.2,0.2-2.8,0.6c-0.6,0.4-0.9,0.9-0.9,1.7
				c0,0.6,0.2,1,0.5,1.3C139.3,47.9,139.8,48.1,140.4,48.1z"/>
			<path class="st2" d="M153.1,49.4c-1.6,0-2.8-0.5-3.7-1.4c-0.9-1-1.4-2.3-1.4-4s0.4-3.1,1.3-4.1c0.8-1,2-1.5,3.4-1.5
				c1.3,0,2.4,0.4,3.2,1.3c0.8,0.9,1.2,2,1.2,3.5v1h-7.4c0,1.3,0.4,2.2,1,2.9s1.5,1,2.5,1c1.2,0,2.3-0.2,3.4-0.7v1.4
				c-0.6,0.2-1.1,0.4-1.6,0.5S153.8,49.4,153.1,49.4z M152.7,39.7c-0.9,0-1.5,0.3-2.1,0.8c-0.5,0.6-0.8,1.3-0.9,2.3h5.6
				c0-1-0.2-1.8-0.7-2.3C154.2,39.9,153.5,39.7,152.7,39.7z"/>
			<path class="st2" d="M164.7,38.3c0.5,0,0.9,0,1.3,0.1l-0.2,1.5c-0.4-0.1-0.8-0.1-1.2-0.1c-0.9,0-1.6,0.4-2.2,1.1
				c-0.6,0.7-0.9,1.6-0.9,2.6v5.7h-1.6V38.5h1.3l0.2,2h0.1c0.4-0.7,0.9-1.2,1.4-1.6C163.4,38.5,164,38.3,164.7,38.3z"/>
			<path class="st2" d="M177.7,49.4c-1.6,0-2.8-0.5-3.7-1.4c-0.9-1-1.4-2.3-1.4-4s0.4-3.1,1.3-4.1c0.8-1,2-1.5,3.4-1.5
				c1.3,0,2.4,0.4,3.2,1.3c0.8,0.9,1.2,2,1.2,3.5v1h-7.4c0,1.3,0.4,2.2,1,2.9s1.5,1,2.5,1c1.2,0,2.3-0.2,3.4-0.7v1.4
				c-0.6,0.2-1.1,0.4-1.6,0.5S178.4,49.4,177.7,49.4z M177.3,39.7c-0.9,0-1.5,0.3-2.1,0.8c-0.5,0.6-0.8,1.3-0.9,2.3h5.6
				c0-1-0.2-1.8-0.7-2.3C178.8,39.9,178.1,39.7,177.3,39.7z"/>
			<path class="st2" d="M186,49.2h-1.6V34h1.6V49.2z"/>
			<path class="st2" d="M201.6,46.3c0,1-0.4,1.8-1.1,2.3c-0.7,0.5-1.8,0.8-3.1,0.8c-1.4,0-2.5-0.2-3.3-0.7v-1.5
				c0.5,0.3,1.1,0.5,1.7,0.6c0.6,0.2,1.2,0.2,1.7,0.2c0.8,0,1.5-0.1,2-0.4c0.5-0.3,0.7-0.7,0.7-1.2c0-0.4-0.2-0.8-0.5-1.1
				c-0.4-0.3-1.1-0.6-2.1-1.1c-1-0.4-1.7-0.7-2.1-1c-0.4-0.3-0.7-0.6-0.9-0.9c-0.2-0.4-0.3-0.8-0.3-1.3c0-0.9,0.4-1.6,1.1-2.1
				c0.7-0.5,1.7-0.8,2.9-0.8s2.3,0.2,3.4,0.7l-0.6,1.3c-1.1-0.4-2-0.7-2.9-0.7c-0.8,0-1.3,0.1-1.7,0.4c-0.4,0.2-0.6,0.6-0.6,1
				c0,0.3,0.1,0.5,0.2,0.7c0.1,0.2,0.4,0.4,0.7,0.6c0.3,0.2,1,0.4,1.9,0.8c1.3,0.5,2.1,0.9,2.6,1.4C201.3,45,201.6,45.6,201.6,46.3z
				"/>
			<path class="st2" d="M208.7,49.4c-1.6,0-2.8-0.5-3.7-1.4c-0.9-1-1.4-2.3-1.4-4s0.4-3.1,1.3-4.1c0.8-1,2-1.5,3.4-1.5
				c1.3,0,2.4,0.4,3.2,1.3c0.8,0.9,1.2,2,1.2,3.5v1h-7.4c0,1.3,0.4,2.2,1,2.9s1.5,1,2.5,1c1.2,0,2.3-0.2,3.4-0.7v1.4
				c-0.6,0.2-1.1,0.4-1.6,0.5S209.4,49.4,208.7,49.4z M208.3,39.7c-0.9,0-1.5,0.3-2.1,0.8c-0.5,0.6-0.8,1.3-0.9,2.3h5.6
				c0-1-0.2-1.8-0.7-2.3C209.8,39.9,209.1,39.7,208.3,39.7z"/>
			<path class="st2" d="M224.2,38.5v1l-2,0.2c0.2,0.2,0.3,0.5,0.5,0.9c0.1,0.4,0.2,0.8,0.2,1.2c0,1-0.4,1.9-1.1,2.5
				c-0.7,0.6-1.7,0.9-2.9,0.9c-0.3,0-0.6,0-0.9-0.1c-0.7,0.4-1,0.8-1,1.4c0,0.3,0.1,0.5,0.4,0.7c0.2,0.1,0.7,0.2,1.2,0.2h1.9
				c1.2,0,2,0.2,2.7,0.7c0.6,0.5,0.9,1.2,0.9,2.1c0,1.2-0.5,2.1-1.4,2.7c-1,0.6-2.3,0.9-4.2,0.9c-1.4,0-2.5-0.3-3.2-0.8
				c-0.8-0.5-1.1-1.3-1.1-2.2c0-0.7,0.2-1.2,0.6-1.7c0.4-0.5,1-0.8,1.8-1c-0.3-0.1-0.5-0.3-0.7-0.6s-0.3-0.6-0.3-0.9
				c0-0.4,0.1-0.7,0.3-1s0.5-0.6,1-0.8c-0.6-0.2-1-0.6-1.4-1.2c-0.3-0.5-0.5-1.2-0.5-1.9c0-1.2,0.4-2.1,1.1-2.7c0.7-0.6,1.7-1,3-1
				c0.6,0,1.1,0.1,1.5,0.2h3.6V38.5z M215.6,51c0,0.6,0.2,1,0.7,1.3s1.2,0.4,2.1,0.4c1.4,0,2.4-0.2,3-0.6c0.7-0.4,1-1,1-1.7
				c0-0.6-0.2-1-0.5-1.2c-0.4-0.2-1-0.3-2-0.3H218c-0.7,0-1.3,0.2-1.7,0.5C215.8,49.8,215.6,50.3,215.6,51z M216.5,41.9
				c0,0.7,0.2,1.3,0.6,1.7c0.4,0.4,1,0.6,1.8,0.6c1.6,0,2.4-0.8,2.4-2.3c0-1.6-0.8-2.4-2.4-2.4c-0.8,0-1.3,0.2-1.8,0.6
				C216.7,40.5,216.5,41.1,216.5,41.9z"/>
			<path class="st2" d="M227.9,38.5v6.9c0,0.9,0.2,1.5,0.6,2c0.4,0.4,1,0.6,1.9,0.6c1.1,0,1.9-0.3,2.5-0.9c0.5-0.6,0.8-1.6,0.8-3
				v-5.6h1.6v10.7H234l-0.2-1.4h-0.1c-0.3,0.5-0.8,0.9-1.4,1.2c-0.6,0.3-1.3,0.4-2,0.4c-1.3,0-2.3-0.3-2.9-0.9c-0.6-0.6-1-1.6-1-3
				v-7H227.9z"/>
			<path class="st2" d="M246,49.2v-6.9c0-0.9-0.2-1.5-0.6-2c-0.4-0.4-1-0.6-1.9-0.6c-1.1,0-1.9,0.3-2.5,0.9s-0.8,1.6-0.8,3v5.6h-1.6
				V38.5h1.3l0.3,1.5h0.1c0.3-0.5,0.8-0.9,1.4-1.2c0.6-0.3,1.3-0.4,2-0.4c1.3,0,2.3,0.3,2.9,0.9c0.7,0.6,1,1.6,1,3v7L246,49.2
				L246,49.2z"/>
			<path class="st2" d="M258.2,47.8L258.2,47.8c-0.8,1.1-2,1.6-3.4,1.6s-2.5-0.5-3.3-1.4c-0.8-1-1.2-2.3-1.2-4.1s0.4-3.1,1.2-4.1
				s1.9-1.5,3.3-1.5c1.5,0,2.6,0.5,3.3,1.6h0.1l-0.1-0.8v-0.8V34h1.6v15.2h-1.3L258.2,47.8z M255,48c1.1,0,1.9-0.3,2.4-0.9
				c0.5-0.6,0.7-1.6,0.7-2.9v-0.3c0-1.5-0.3-2.6-0.8-3.2c-0.5-0.6-1.3-1-2.4-1c-1,0-1.7,0.4-2.2,1.1c-0.5,0.7-0.8,1.8-0.8,3.1
				c0,1.4,0.3,2.4,0.8,3.1C253.3,47.7,254,48,255,48z"/>
			<path class="st2" d="M272.4,43.8c0,1.7-0.4,3.1-1.3,4.1s-2.1,1.5-3.6,1.5c-1,0-1.8-0.2-2.5-0.7c-0.7-0.4-1.3-1.1-1.7-1.9
				c-0.4-0.8-0.6-1.8-0.6-2.9c0-1.7,0.4-3.1,1.3-4.1s2.1-1.5,3.6-1.5s2.7,0.5,3.6,1.5C272,40.8,272.4,42.1,272.4,43.8z M264.3,43.8
				c0,1.4,0.3,2.4,0.8,3.1c0.5,0.7,1.4,1.1,2.4,1.1c1.1,0,1.9-0.4,2.4-1.1c0.6-0.7,0.8-1.8,0.8-3.1c0-1.4-0.3-2.4-0.8-3.1
				c-0.6-0.7-1.4-1.1-2.4-1.1c-1.1,0-1.9,0.3-2.4,1C264.5,41.4,264.3,42.5,264.3,43.8z"/>
			<path class="st2" d="M103,73.2l-4.1-10.7h1.7l2.3,6.3c0.5,1.5,0.8,2.4,0.9,2.9h0.1c0.1-0.3,0.3-1.1,0.7-2.1
				c0.4-1.1,1.2-3.4,2.6-7.1h1.7l-4.1,10.7H103z"/>
			<path class="st2" d="M117.3,73.2l-0.3-1.5h-0.1c-0.5,0.7-1.1,1.1-1.6,1.4c-0.5,0.2-1.2,0.4-2,0.4c-1.1,0-1.9-0.3-2.5-0.8
				s-0.9-1.3-0.9-2.3c0-2.2,1.7-3.3,5.2-3.4l1.8-0.1v-0.7c0-0.8-0.2-1.5-0.5-1.9c-0.4-0.4-0.9-0.6-1.7-0.6c-0.9,0-1.9,0.3-3,0.8
				l-0.5-1.2c0.5-0.3,1.1-0.5,1.7-0.7s1.3-0.2,1.9-0.2c1.3,0,2.2,0.3,2.8,0.8c0.6,0.6,0.9,1.5,0.9,2.7v7.3H117.3z M113.6,72.1
				c1,0,1.8-0.3,2.4-0.8c0.6-0.6,0.9-1.3,0.9-2.3v-1l-1.6,0.1c-1.3,0-2.2,0.2-2.8,0.6c-0.6,0.4-0.9,0.9-0.9,1.7c0,0.6,0.2,1,0.5,1.3
				C112.5,71.9,113,72.1,113.6,72.1z"/>
			<path class="st2" d="M123.4,73.2h-1.6V58h1.6V73.2z"/>
			<path class="st2" d="M136.1,67.8c0,1.7-0.4,3.1-1.3,4.1c-0.9,1-2.1,1.5-3.6,1.5c-1,0-1.8-0.2-2.5-0.7c-0.7-0.4-1.3-1.1-1.7-1.9
				c-0.4-0.8-0.6-1.8-0.6-2.9c0-1.7,0.4-3.1,1.3-4.1s2.1-1.5,3.6-1.5s2.7,0.5,3.6,1.5C135.7,64.8,136.1,66.1,136.1,67.8z
				 M127.9,67.8c0,1.4,0.3,2.4,0.8,3.1s1.4,1.1,2.4,1.1c1.1,0,1.9-0.4,2.4-1.1c0.6-0.7,0.8-1.8,0.8-3.1c0-1.4-0.3-2.4-0.8-3.1
				c-0.6-0.7-1.4-1.1-2.4-1.1c-1.1,0-1.9,0.3-2.4,1C128.2,65.4,127.9,66.5,127.9,67.8z"/>
			<path class="st2" d="M143.8,62.3c0.5,0,0.9,0,1.3,0.1l-0.2,1.5c-0.4-0.1-0.8-0.1-1.2-0.1c-0.9,0-1.6,0.4-2.2,1.1
				c-0.6,0.7-0.9,1.6-0.9,2.6v5.7H139V62.5h1.3l0.2,2h0.1c0.4-0.7,0.9-1.2,1.4-1.6C142.5,62.5,143.1,62.3,143.8,62.3z"/>
			<path class="st2" d="M159.6,71.8L159.6,71.8c-0.8,1.1-2,1.6-3.4,1.6s-2.5-0.5-3.3-1.4c-0.8-1-1.2-2.3-1.2-4.1
				c0-1.8,0.4-3.1,1.2-4.1s1.9-1.5,3.3-1.5c1.5,0,2.6,0.5,3.3,1.6h0.1l-0.1-0.8v-0.8V58h1.6v15.2h-1.3L159.6,71.8z M156.3,72
				c1.1,0,1.9-0.3,2.4-0.9s0.7-1.6,0.7-2.9v-0.3c0-1.5-0.3-2.6-0.8-3.2s-1.3-1-2.4-1c-1,0-1.7,0.4-2.2,1.1s-0.8,1.8-0.8,3.1
				c0,1.4,0.3,2.4,0.8,3.1C154.6,71.7,155.4,72,156.3,72z"/>
			<path class="st2" d="M169.1,73.4c-1.6,0-2.8-0.5-3.7-1.4c-0.9-1-1.4-2.3-1.4-4s0.4-3.1,1.3-4.1c0.8-1,2-1.5,3.4-1.5
				c1.3,0,2.4,0.4,3.2,1.3s1.2,2,1.2,3.5v1h-7.4c0,1.3,0.4,2.2,1,2.9c0.6,0.7,1.5,1,2.5,1c1.2,0,2.3-0.2,3.4-0.7v1.4
				c-0.6,0.2-1.1,0.4-1.6,0.5C170.4,73.3,169.8,73.4,169.1,73.4z M168.6,63.7c-0.9,0-1.5,0.3-2.1,0.8c-0.5,0.6-0.8,1.3-0.9,2.3h5.6
				c0-1-0.2-1.8-0.7-2.3C170.1,63.9,169.5,63.7,168.6,63.7z"/>
			<path class="st2" d="M177.4,73.2h-1.6V58h1.6V73.2z"/>
			<path class="st2" d="M188.4,73.2l-4.1-10.7h1.7l2.3,6.3c0.5,1.5,0.8,2.4,0.9,2.9h0.1c0.1-0.3,0.3-1.1,0.7-2.1
				c0.4-1.1,1.2-3.4,2.6-7.1h1.7l-4.1,10.7H188.4z"/>
			<path class="st2" d="M200.6,73.4c-1.6,0-2.8-0.5-3.7-1.4c-0.9-1-1.4-2.3-1.4-4s0.4-3.1,1.3-4.1c0.8-1,2-1.5,3.4-1.5
				c1.3,0,2.4,0.4,3.2,1.3s1.2,2,1.2,3.5v1h-7.4c0,1.3,0.4,2.2,1,2.9c0.6,0.7,1.5,1,2.5,1c1.2,0,2.3-0.2,3.4-0.7v1.4
				c-0.6,0.2-1.1,0.4-1.6,0.5C201.9,73.3,201.3,73.4,200.6,73.4z M200.1,63.7c-0.9,0-1.5,0.3-2.1,0.8c-0.5,0.6-0.8,1.3-0.9,2.3h5.6
				c0-1-0.2-1.8-0.7-2.3C201.6,63.9,201,63.7,200.1,63.7z"/>
			<path class="st2" d="M211.5,73.4c-1.5,0-2.7-0.5-3.6-1.4c-0.8-1-1.3-2.3-1.3-4c0-1.8,0.4-3.2,1.3-4.2c0.9-1,2.1-1.5,3.7-1.5
				c0.5,0,1,0.1,1.5,0.2c0.5,0.1,0.9,0.2,1.2,0.4l-0.5,1.4c-0.4-0.1-0.7-0.3-1.2-0.4c-0.4-0.1-0.8-0.1-1.1-0.1
				c-2.2,0-3.3,1.4-3.3,4.2c0,1.3,0.3,2.3,0.8,3s1.3,1.1,2.4,1.1c0.9,0,1.8-0.2,2.7-0.6v1.4C213.5,73.2,212.6,73.4,211.5,73.4z"/>
			<path class="st2" d="M220.2,72.1c0.3,0,0.6,0,0.8-0.1c0.3,0,0.5-0.1,0.6-0.1v1.2c-0.2,0.1-0.4,0.2-0.8,0.2
				c-0.3,0.1-0.6,0.1-0.9,0.1c-2.1,0-3.1-1.1-3.1-3.3v-6.4h-1.5V63l1.5-0.7l0.7-2.3h0.9v2.5h3.1v1.3h-3.1V70c0,0.6,0.2,1.1,0.5,1.5
				C219.3,71.9,219.7,72.1,220.2,72.1z"/>
			<path class="st2" d="M233.1,67.8c0,1.7-0.4,3.1-1.3,4.1c-0.9,1-2.1,1.5-3.6,1.5c-1,0-1.8-0.2-2.5-0.7c-0.7-0.4-1.3-1.1-1.7-1.9
				s-0.6-1.8-0.6-2.9c0-1.7,0.4-3.1,1.3-4.1c0.9-1,2.1-1.5,3.6-1.5s2.7,0.5,3.6,1.5C232.6,64.8,233.1,66.1,233.1,67.8z M224.9,67.8
				c0,1.4,0.3,2.4,0.8,3.1s1.4,1.1,2.4,1.1c1.1,0,1.9-0.4,2.4-1.1c0.6-0.7,0.8-1.8,0.8-3.1c0-1.4-0.3-2.4-0.8-3.1
				c-0.6-0.7-1.4-1.1-2.4-1.1c-1.1,0-1.9,0.3-2.4,1C225.2,65.4,224.9,66.5,224.9,67.8z"/>
			<path class="st2" d="M240.8,62.3c0.5,0,0.9,0,1.3,0.1l-0.2,1.5c-0.4-0.1-0.8-0.1-1.2-0.1c-0.9,0-1.6,0.4-2.2,1.1
				c-0.6,0.7-0.9,1.6-0.9,2.6v5.7H236V62.5h1.3l0.2,2h0.1c0.4-0.7,0.9-1.2,1.4-1.6C239.5,62.5,240.1,62.3,240.8,62.3z"/>
		</g>
	</g>
	<g>
		<path class="st3" d="M51.4,21.7c-18.5,0.1-33.2,15-33.2,33.4c0.1,18.5,15,33.2,33.4,33.2c18.5-0.1,33.2-15,33.2-33.4
			C84.8,36.4,69.9,21.6,51.4,21.7z"/>
		<path class="st4" d="M51.4,21.7c-18.5,0.1-33.2,15-33.2,33.4l66.6-0.3C84.8,36.4,69.9,21.6,51.4,21.7z"/>
		<path class="st2" d="M51.5,26.5C35.7,26.5,23,39.2,23,55s12.7,28.5,28.5,28.5S80,70.8,80,55S67.4,26.5,51.5,26.5z M67.1,69.2
			c0,0.8-0.5,1.3-1.3,1.3H37.3c-0.8,0-1.3-0.5-1.3-1.3V40.7c0-0.8,0.5-1.3,1.3-1.3h10.4c0.8,0,1.3,0.5,1.3,1.3v2.6
			c0,0.8-0.5,1.3-1.3,1.3h-5.8c-0.4,0-0.6,0.3-0.6,0.6v19.4c0,0.4,0.3,0.6,0.6,0.6h19.4c0.4,0,0.6-0.3,0.6-0.6v-5.8
			c0-0.8,0.5-1.3,1.3-1.3h2.6c0.8,0,1.3,0.5,1.3,1.3V69.2z M65.8,52.4h-2.6c-0.8,0-1.3-0.5-1.3-1.3v-1.3c0-0.5-0.6-0.9-1.2-0.5
			l-5.2,5.3c-0.5,0.5-1.3,0.5-1.8,0l-1.8-1.8c-0.5-0.5-0.5-1.3,0-1.8l5.2-5.3c0.4-0.4,0.1-1.2-0.5-1.2h-1.3c-0.8,0-1.3-0.5-1.3-1.3
			v-2.6c0-0.8,0.5-1.3,1.3-1.3h10.4c0.8,0,1.3,0.5,1.3,1.3v10.5C67,51.1,67,52.4,65.8,52.4z M46.7,57.1H45v-4.7v-0.8v-0.8
			c-0.3,0.3-0.5,0.5-0.6,0.6l-0.9,0.8l-0.8-1l2.6-2.1h1.4V57.1z M53.6,63h-5v-1l1.8-1.8c0.5-0.5,0.9-0.9,1-1.1
			c0.2-0.2,0.3-0.4,0.4-0.6c0.1-0.2,0.1-0.4,0.1-0.6c0-0.3-0.1-0.5-0.2-0.6C51.5,57.1,51.3,57,51,57s-0.5,0.1-0.8,0.2
			c-0.3,0.1-0.5,0.3-0.8,0.5l-0.8-1c0.4-0.3,0.6-0.5,0.9-0.6c0.2-0.1,0.5-0.2,0.8-0.3s0.6-0.1,0.9-0.1c0.4,0,0.8,0.1,1.2,0.2
			c0.3,0.2,0.6,0.4,0.8,0.7s0.3,0.6,0.3,1c0,0.3-0.1,0.6-0.2,0.9c-0.1,0.3-0.3,0.6-0.5,0.9c-0.2,0.3-0.7,0.7-1.3,1.3l-0.9,0.9v0.1
			h3.1V63H53.6z"/>
	</g>
	<path class="st5" d="M283.4,93c0,5.5-4.5,10-10,10H16.6c-5.5,0-10-4.5-10-10V17c0-5.5,4.5-10,10-10h256.7c5.5,0,10,4.5,10,10
		L283.4,93L283.4,93z"/>
</g>
</svg>
