<?xml version="1.0" encoding="utf-8"?>
<!-- Generator: Adobe Illustrator 16.0.0, SVG Export Plug-In . SVG Version: 6.00 Build 0)  -->
<!DOCTYPE svg PUBLIC "-//W3C//DTD SVG 1.1//EN" "http://www.w3.org/Graphics/SVG/1.1/DTD/svg11.dtd">
<svg version="1.1" id="Capa_1" xmlns="http://www.w3.org/2000/svg" xmlns:xlink="http://www.w3.org/1999/xlink" x="0px" y="0px"
	 width="222px" height="385.75px" viewBox="0 0 222 385.75" enable-background="new 0 0 222 385.75" xml:space="preserve">
<g>
	<ellipse fill="#466EA2" cx="108.99" cy="361.006" rx="100.01" ry="9.401"/>
	<g>
		<g>
			<g>
				<g>
					<defs>
						<rect id="SVGID_1_" x="32.97" y="39.648" width="154.896" height="255.418"/>
					</defs>
					<clipPath id="SVGID_2_">
						<use xlink:href="#SVGID_1_"  overflow="visible"/>
					</clipPath>
					<g clip-path="url(#SVGID_2_)">
						
							<image overflow="visible" enable-background="new    " width="481" height="840" xlink:href="783D5284.jpeg"  transform="matrix(0.3178 0 0 0.3184 33.2417 27.5562)">
						</image>
					</g>
				</g>
			</g>
		</g>
		<g>
			<g>
				<g>
					<g>
						<path fill="#1E3557" d="M117.464,314.392h-15.571v-4.801l7.783-3.033l7.786,3.033v4.801H117.464z M102.999,313.395h13.354
							v-3.149l-6.678-2.601L103,310.245C103,310.245,103,313.395,102.999,313.395z"/>
					</g>
				</g>
				<g>
					<path fill="#1E3557" d="M171.008,15.105h-30.319l-11.511,4.168H85.133l-10.6-4.168H45.298
						c-11.313,0-20.485,8.807-20.485,19.666V308.3c0,10.86,9.171,19.667,20.485,19.667h125.71c11.313,0,20.486-8.806,20.486-19.667
						V34.771C191.493,23.912,182.32,15.105,171.008,15.105z M165.938,22.238c1.474,0,2.666,1.203,2.666,2.685
						c0,1.487-1.192,2.689-2.666,2.689c-1.472,0-2.668-1.203-2.668-2.689C163.27,23.439,164.466,22.238,165.938,22.238z
						 M174.148,22.674c0.644,0,1.169,0.526,1.169,1.177c0,0.654-0.525,1.179-1.169,1.179c-0.643,0-1.171-0.528-1.171-1.179
						C172.978,23.201,173.503,22.674,174.148,22.674z M67.804,313.717l-4.935,0.066c-0.422,0-0.77-0.345-0.77-0.778
						c0-0.428,0.346-0.776,0.77-0.776l4.826-0.062c0.126-0.031,1.29-0.285,1.29-1.657c0-1.367-1.114-1.629-1.34-1.669l-5.794,0.012
						c0.006,0.007,0.006,0.02,0.006,0.02l-0.097,0.005h-0.001l-0.001,1.025l-3.753-1.918l3.773-1.735l-0.009,1.04h0.001h0.079v0.013
						h5.917c1.033,0.14,2.769,0.98,2.769,3.21C70.531,312.74,68.747,313.581,67.804,313.717z M118.363,315.131h-17.266v-5.663
						l8.634-4.014l8.632,4.014V315.131z M156.728,314.182h-5.87c-0.57,0-1.034-0.354-1.034-0.785s0.462-0.779,1.034-0.779h5.87
						c0.568,0,1.031,0.349,1.031,0.779S157.296,314.182,156.728,314.182z M149.823,311.063c0-0.431,0.46-0.78,1.032-0.78h5.866
						c0.568,0,1.035,0.349,1.035,0.78c0,0.433-0.464,0.776-1.035,0.776h-5.866C150.283,311.839,149.823,311.494,149.823,311.063z
						 M156.796,309.395h-5.87c-0.571,0-1.031-0.348-1.031-0.775c0-0.434,0.46-0.783,1.031-0.783h5.87
						c0.57,0,1.029,0.348,1.029,0.783C157.825,309.047,157.366,309.395,156.796,309.395z M182.861,294.35H32.97V41.437h149.891
						V294.35z"/>
				</g>
				<g>
					<path fill="#1E3557" d="M171.008,334.801H45.298c-12.272,0-22.254-9.919-22.254-22.107V30.047
						c0-12.191,9.982-22.108,22.254-22.108h125.71c12.27,0,22.254,9.916,22.254,22.108v282.646
						C193.262,324.882,183.277,334.801,171.008,334.801z M45.298,11.51c-10.321,0-18.715,8.315-18.715,18.537v282.646
						c0,10.222,8.396,18.534,18.715,18.534h125.71c10.319,0,18.714-8.312,18.714-18.534V30.047c0-10.221-8.393-18.537-18.714-18.537
						H45.298z"/>
				</g>
				<g>
					<rect x="144.689" y="6.492" fill="#1E3557" width="21.248" height="3.196"/>
				</g>
				<g>
					<rect x="191.769" y="78.231" fill="#1E3557" width="3.168" height="60.258"/>
				</g>
			</g>
			<rect x="105.129" y="326.746" fill="#1E3557" width="12.335" height="1.968"/>
		</g>
	</g>
</g>
</svg>
