<?xml version="1.0" encoding="utf-8"?>
<!-- Generator: Adobe Illustrator 16.0.0, SVG Export Plug-In . SVG Version: 6.00 Build 0)  -->
<!DOCTYPE svg PUBLIC "-//W3C//DTD SVG 1.1//EN" "http://www.w3.org/Graphics/SVG/1.1/DTD/svg11.dtd">
<svg version="1.1" xmlns="http://www.w3.org/2000/svg" xmlns:xlink="http://www.w3.org/1999/xlink" x="0px" y="0px" width="800px"
	 height="800px" viewBox="0 0 800 800" enable-background="new 0 0 800 800" xml:space="preserve">
<symbol  id="separador_1_" viewBox="-0.5 -25.1 1 25.6">
	
		<line fill-rule="evenodd" clip-rule="evenodd" fill="none" stroke="#DC2677" stroke-linecap="round" stroke-linejoin="round" stroke-miterlimit="3" x1="0" y1="0" x2="0" y2="-24.6"/>
</symbol>
<g id="BG">
	
		<rect x="-78.34" y="-5997.207" fill="none" stroke="#FFFFFF" stroke-width="3" stroke-miterlimit="10" width="1041.34" height="9519.32"/>
</g>
<g id="Layer_6">
</g>
<g id="Layer_1">
	<path fill="#017A94" d="M400,111.231c159.719,0,289.197,129.479,289.197,289.199S559.719,689.63,400,689.63
		c-159.722,0-289.198-129.479-289.198-289.199S240.279,111.231,400,111.231z"/>
	<g id="barTOP">
		<g id="Layer_3_1_">
		</g>
		<g id="separador">
		</g>
	</g>
	<g>
		<g>
			<path fill="#FFFFFF" d="M227.034,214.25c0-13.988,11.335-25.326,25.323-25.326h185.701l105.511,88.633v308.092
				c0,13.991-11.336,25.324-25.322,25.324h-265.89c-13.987,0-25.323-11.333-25.323-25.324V214.25z"/>
		</g>
		<g>
			<path fill="#F0F1F1" d="M438.058,188.924v63.311c0,13.985,11.333,25.322,25.319,25.322h80.191L438.058,188.924z"/>
		</g>
		<rect x="257.407" y="318.715" fill="#E6E6E6" width="256.509" height="23.916"/>
		<rect x="257.407" y="372.523" fill="#E6E6E6" width="256.509" height="23.914"/>
		<rect x="257.407" y="426.332" fill="#E6E6E6" width="256.509" height="23.915"/>
		<rect x="257.407" y="480.143" fill="#E6E6E6" width="256.509" height="23.916"/>
		<rect x="257.407" y="533.952" fill="#E6E6E6" width="210.984" height="23.915"/>
		<g>
			<g opacity="0.2">
				<path fill="#231F20" d="M661.32,299.303l-64.029-64.025c-10.82-10.823-27.953-10.823-37.875,0l-31.562,31.562l-6.312,6.312
					L374.547,420.146l-17.134,84.769l-8.116,42.385l42.385-8.117l84.77-17.132l146.994-146.994l6.312-6.313l31.562-31.563
					C672.143,326.359,672.143,309.223,661.32,299.303z"/>
			</g>
			<g>
				<path fill="#C75C5C" d="M623.445,357.922c-10.821,10.821-27.957,10.821-37.876,0l-64.028-64.028
					c-10.822-10.821-10.822-27.956,0-37.876l37.875-37.877c10.822-10.821,27.957-10.821,37.875,0l64.029,64.029
					c10.822,10.822,10.822,27.959,0,37.877L623.445,357.922z"/>
			</g>
			<g>
				
					<rect x="445.879" y="230.794" transform="matrix(-0.7071 -0.7071 0.7071 -0.7071 552.259 906.7603)" fill="#E0995E" width="36.072" height="216.432"/>
			</g>
			<g>
				
					<rect x="459.182" y="266.508" transform="matrix(-0.7071 -0.7071 0.7071 -0.7071 574.0925 1005.2838)" fill="#F5CF87" width="72.143" height="234.464"/>
			</g>
			<g>
				
					<rect x="522.4" y="307.502" transform="matrix(-0.7071 -0.7072 0.7072 -0.7071 628.5732 1091.8253)" fill="#E0995E" width="36.071" height="216.43"/>
			</g>
			<g>
				<g>
					<polygon fill="#4F5D73" points="349.297,530.164 391.682,522.051 357.413,487.78 					"/>
				</g>
				<g>
					<polygon fill="#FFEED9" points="374.547,403.014 357.413,487.78 391.682,522.051 476.451,504.915 463.826,492.289 
						463.826,467.041 412.424,467.041 412.424,415.635 387.173,415.635 					"/>
				</g>
			</g>
		</g>
	</g>
</g>
</svg>
