<?xml version="1.0" encoding="utf-8"?>
<!-- Generator: Adobe Illustrator 19.2.1, SVG Export Plug-In . SVG Version: 6.00 Build 0)  -->
<svg version="1.1" id="Layer_1" xmlns="http://www.w3.org/2000/svg" xmlns:xlink="http://www.w3.org/1999/xlink" x="0px" y="0px"
	 width="150px" height="150px" viewBox="0 0 150 150" style="enable-background:new 0 0 150 150;" xml:space="preserve">
<style type="text/css">
	.st0{fill:#9F383B;}
	.st1{fill:#FFFFFF;}
	.st2{fill:#FFCA3A;}
	.st3{fill:#FFD666;}
	.st4{fill:#E6E6E6;}
</style>
<g>
	<path class="st0" d="M76.2,136.5c-33.6,0-61-27.4-61-61c0-33.6,27.4-61,61-61s61,27.4,61,61C137.2,109.1,109.9,136.5,76.2,136.5z"
		/>
	<path class="st1" d="M76.2,131.9c-31.1,0-56.5-25.3-56.5-56.5C19.8,44.3,45.1,19,76.2,19s56.5,25.3,56.5,56.5
		C132.7,106.6,107.4,131.9,76.2,131.9z"/>
	<circle class="st2" cx="76.2" cy="75.5" r="52.9"/>
	<path class="st3" d="M129.2,75.5c0,29.2-23.7,52.9-52.9,52.9V22.5C105.5,22.5,129.2,46.2,129.2,75.5z"/>
	<g>
		<path class="st1" d="M76.2,120.2c-5.2,0-9.4-4.2-9.4-9.4c0-5.2,4.2-9.4,9.4-9.4c5.2,0,9.4,4.2,9.4,9.4
			C85.7,116,81.4,120.2,76.2,120.2z"/>
		<path class="st1" d="M85.7,82.6c0,5.2-4.2,9.4-9.4,9.4c-5.2,0-9.4-4.2-9.4-9.4V44.9c0-5.2,4.2-9.4,9.4-9.4c5.2,0,9.4,4.2,9.4,9.4
			V82.6z"/>
	</g>
	<g>
		<path class="st4" d="M76.2,120.2c-5.2,0-9.4-4.2-9.4-9.4c0-5.2,4.2-9.4,9.4-9.4V120.2z"/>
		<path class="st4" d="M76.2,92c-5.2,0-9.4-4.2-9.4-9.4V44.9c0-5.2,4.2-9.4,9.4-9.4V92z"/>
	</g>
</g>
</svg>
