<?xml version="1.0" encoding="utf-8"?>
<!-- Generator: Adobe Illustrator 19.2.1, SVG Export Plug-In . SVG Version: 6.00 Build 0)  -->
<svg version="1.1" id="Layer_1" xmlns="http://www.w3.org/2000/svg" xmlns:xlink="http://www.w3.org/1999/xlink" x="0px" y="0px"
	 width="150px" height="150px" viewBox="0 0 150 150" style="enable-background:new 0 0 150 150;" xml:space="preserve">
<style type="text/css">
	.st0{fill:#34672D;}
	.st1{fill:#FFFFFF;}
	.st2{fill:#9AC03B;}
	.st3{fill:#B0DB43;}
	.st4{fill:#E6E6E6;}
</style>
<g>
	<path class="st0" d="M75.8,136.5c-33.6,0-61-27.4-61-61c0-33.6,27.4-61,61-61s61,27.4,61,61C136.8,109.1,109.4,136.5,75.8,136.5z"
		/>
	<path class="st1" d="M75.8,131.9c-31.1,0-56.5-25.3-56.5-56.5C19.3,44.3,44.6,19,75.8,19s56.5,25.3,56.5,56.5
		C132.3,106.6,106.9,131.9,75.8,131.9z"/>
	<circle class="st2" cx="75.8" cy="75.5" r="52.9"/>
	<path class="st3" d="M128.7,75.5c0,29.2-23.7,52.9-52.9,52.9V22.5C105,22.5,128.7,46.2,128.7,75.5z"/>
	<path class="st4" d="M103.9,48.4c-4.4-3.1-10.5-2.1-13.6,2.3L66.6,84l-7.7-5.4c-4.4-3.1-10.5-2-13.6,2.4c-3.1,4.4-2,10.5,2.4,13.6
		l15.7,10.9c1.7,1.2,3.6,1.7,5.6,1.7c3,0,6-1.4,7.9-4.1L106.2,62C109.3,57.6,108.3,51.5,103.9,48.4z"/>
	<path class="st1" d="M103.9,48.4c-4.4-3.1-10.5-2.1-13.6,2.3L75.8,71.1v33.3L106.2,62C109.3,57.6,108.3,51.5,103.9,48.4z"/>
</g>
</svg>
