<?xml version="1.0" encoding="UTF-8" standalone="no"?>
<!-- Created with Inkscape (http://www.inkscape.org/) -->

<svg
   xmlns:dc="http://purl.org/dc/elements/1.1/"
   xmlns:cc="http://creativecommons.org/ns#"
   xmlns:rdf="http://www.w3.org/1999/02/22-rdf-syntax-ns#"
   xmlns:svg="http://www.w3.org/2000/svg"
   xmlns="http://www.w3.org/2000/svg"
   xmlns:sodipodi="http://sodipodi.sourceforge.net/DTD/sodipodi-0.dtd"
   xmlns:inkscape="http://www.inkscape.org/namespaces/inkscape"
   id="svg2"
   version="1.1"
   inkscape:version="0.91 r13725"
   xml:space="preserve"
   width="508.21124"
   height="524.08252"
   viewBox="0 0 508.21124 524.08252"
   sodipodi:docname="aside_bkg.svg"><metadata
     id="metadata8"><rdf:RDF><cc:Work
         rdf:about=""><dc:format>image/svg+xml</dc:format><dc:type
           rdf:resource="http://purl.org/dc/dcmitype/StillImage" /><dc:title></dc:title></cc:Work></rdf:RDF></metadata><defs
     id="defs6"><clipPath
       clipPathUnits="userSpaceOnUse"
       id="clipPath16"><path
         d="m 0,419.266 406.569,0 L 406.569,0 0,0 0,419.266 Z"
         id="path18"
         inkscape:connector-curvature="0" /></clipPath></defs><sodipodi:namedview
     pagecolor="#ffffff"
     bordercolor="#666666"
     borderopacity="1"
     objecttolerance="10"
     gridtolerance="10"
     guidetolerance="10"
     inkscape:pageopacity="0"
     inkscape:pageshadow="2"
     inkscape:window-width="922"
     inkscape:window-height="726"
     id="namedview4"
     showgrid="false"
     inkscape:zoom="0.45031076"
     inkscape:cx="254.10562"
     inkscape:cy="262.04126"
     inkscape:window-x="0"
     inkscape:window-y="20"
     inkscape:window-maximized="0"
     inkscape:current-layer="g10" /><g
     id="g10"
     inkscape:groupmode="layer"
     inkscape:label="Alistamiento-hipermedia-vectores"
     transform="matrix(1.25,0,0,-1.25,0,524.0825)"><g
       id="g12"><g
         id="g14"
         clip-path="url(#clipPath16)"><g
           id="g20"
           transform="translate(199.7341,195.9058)"><path
             d="m 0,0 32.483,-75.467 59.774,23.243 6.077,27.96 c 0,0 10.713,-5.552 13.587,9.556 2.875,15.108 -8.599,13.612 -8.599,13.612 l 0.517,5.021 c 0,0 -30.934,10.877 -40.168,40.841 0,0 -7.763,-6.893 -22.218,1.309 l -8.4,-12.154 c 0,0 -8.231,6.278 -14.127,-0.652 -5.898,-6.928 0,-15.339 0,-15.339 L 0,0 Z"
             style="fill:#e38e2b;fill-opacity:1;fill-rule:nonzero;stroke:none"
             id="path22"
             inkscape:connector-curvature="0" /></g><g
           id="g24"
           transform="translate(145.9246,132.4502)"><path
             d="M 0,0 48.38,-26.328 81.752,-1.46 55.864,61.858 15.905,93.063 -9.815,84.09 -8.571,64.852 c 0,0 -16.253,-2.751 -11.328,-16.092 4.925,-13.341 14.283,-10.776 14.283,-10.776 L 0,0 Z"
             style="fill:#e3bb9e;fill-opacity:1;fill-rule:nonzero;stroke:none"
             id="path26"
             inkscape:connector-curvature="0" /></g><g
           id="g28"
           transform="translate(240.6658,7.9189)"><path
             d="m 0,0 19.762,-0.433 21.682,45.834 21.463,9.29 c 0,0 -2.094,12.64 -14.814,5.504 l 3.932,7.662 -38.781,2.237 -4.792,-43.5 7.402,-3.1 L 0,0 Z"
             style="fill:#e38e2b;fill-opacity:1;fill-rule:nonzero;stroke:none"
             id="path30"
             inkscape:connector-curvature="0" /></g><g
           id="g32"
           transform="translate(145.9246,132.4502)"><path
             d="m 0,0 48.38,-26.328 33.372,24.868 4.541,-10.551 59.773,23.242 -5.902,-31.685 -42.397,-2.494 -7.586,-73.122 13.827,6.37 -0.815,-8.238 7.402,-3.1 -15.854,-23.493 -132.663,0 0,55.466 L -13.479,-79.32 8.412,-49.007 0,0 Z"
             style="fill:#e2007a;fill-opacity:1;fill-rule:nonzero;stroke:none"
             id="path34"
             inkscape:connector-curvature="0" /></g><g
           id="g36"
           transform="translate(81.6726,7.2998)"><path
             d="m 0,0 -10.96,0 23.136,60.814 13.454,-4.729 0,-1.886 C 25.63,54.199 13.257,53.207 0,0"
             style="fill:#e2007a;fill-opacity:1;fill-rule:nonzero;stroke:none"
             id="path38"
             inkscape:connector-curvature="0" /></g><g
           id="g40"
           transform="translate(107.0056,185.8286)"><path
             d="m 0,0 20.357,4.641 c 0,0 0.928,7.08 9.991,6.832 L 24.192,83.558 53.877,123.717 0.499,133.693 0,0 Z"
             style="fill:#e3bb9e;fill-opacity:1;fill-rule:nonzero;stroke:none"
             id="path42"
             inkscape:connector-curvature="0" /></g><g
           id="g44"
           transform="translate(177.0798,330.4131)"><path
             d="m 0,0 30.694,40.741 54.843,-60.075 13.502,11.935 17.227,-22.9 c 2.787,6.204 9.683,18.424 22.402,23.518 1.088,4.013 1.679,8.232 1.679,12.589 0,26.522 -21.5,48.021 -48.023,48.021 -1.552,0 -3.083,-0.08 -4.597,-0.224 0.394,1.919 0.602,3.907 0.602,5.943 0,16.184 -13.118,29.305 -29.304,29.305 -13.553,0 -24.95,-9.202 -28.301,-21.696 -2.603,0.566 -5.3,0.871 -8.07,0.871 -20.869,0 -37.786,-16.917 -37.786,-37.786 C -15.132,17.872 -9.188,6.894 0,0"
             style="fill:#afe7ff;fill-opacity:1;fill-rule:nonzero;stroke:none"
             id="path46"
             inkscape:connector-curvature="0" /></g><g
           id="g48"
           transform="translate(108.0042,164.376)"><path
             d="m 0,0 -0.702,-100.991 -61.657,24.665 1.338,18.448 c 0,0 -33.766,7.868 9.137,43.349 l 2.03,10.324 c 0,0 8.023,0.99 10.881,13.016 0,0 8.936,-5.367 18.553,3.256 0,0 4.073,-11.832 20.42,-12.067"
             style="fill:#965100;fill-opacity:1;fill-rule:nonzero;stroke:none"
             id="path50"
             inkscape:connector-curvature="0" /></g><g
           id="g52"
           transform="translate(33.5032,7.9189)"><path
             d="m 0,0 -31.258,82.627 c 0,0 19.455,9.227 18.458,-21.701 L 13.14,67.881 13.48,25.508 6.655,17.276 26.11,-0.619 0,0 Z"
             style="fill:#965100;fill-opacity:1;fill-rule:nonzero;stroke:none"
             id="path54"
             inkscape:connector-curvature="0" /></g><g
           id="g56"
           transform="translate(54.6238,309.6577)"><path
             d="m 0,0 -9.139,-7.49 0,20.804 L 0,20.805 0,0 Z"
             style="fill:#0e6d96;fill-opacity:1;fill-rule:nonzero;stroke:none"
             id="path58"
             inkscape:connector-curvature="0" /></g><g
           id="g60"
           transform="translate(69.0349,319.0908)"><path
             d="m 0,0 -9.138,-7.49 0,20.803 L 0,20.804 0,0 Z"
             style="fill:#0e6d96;fill-opacity:1;fill-rule:nonzero;stroke:none"
             id="path62"
             inkscape:connector-curvature="0" /></g><g
           id="g64"
           transform="translate(83.448,330.0205)"><path
             d="m 0,0 -9.138,-7.49 0,20.803 L 0,20.803 0,0 Z"
             style="fill:#0e6d96;fill-opacity:1;fill-rule:nonzero;stroke:none"
             id="path66"
             inkscape:connector-curvature="0" /></g><g
           id="g68"
           transform="translate(97.8601,340.2012)"><path
             d="m 0,0 -9.137,-7.491 0,20.804 L 0,20.804 0,0 Z"
             style="fill:#0e6d96;fill-opacity:1;fill-rule:nonzero;stroke:none"
             id="path70"
             inkscape:connector-curvature="0" /></g><g
           id="g72"
           transform="translate(54.6238,277.4248)"><path
             d="m 0,0 -9.139,-7.49 0,20.803 L 0,20.804 0,0 Z"
             style="fill:#0e6d96;fill-opacity:1;fill-rule:nonzero;stroke:none"
             id="path74"
             inkscape:connector-curvature="0" /></g><g
           id="g76"
           transform="translate(69.0349,286.8564)"><path
             d="m 0,0 -9.138,-7.49 0,20.804 L 0,20.804 0,0 Z"
             style="fill:#0e6d96;fill-opacity:1;fill-rule:nonzero;stroke:none"
             id="path78"
             inkscape:connector-curvature="0" /></g><g
           id="g80"
           transform="translate(83.448,297.7866)"><path
             d="m 0,0 -9.138,-7.491 0,20.805 L 0,20.803 0,0 Z"
             style="fill:#0e6d96;fill-opacity:1;fill-rule:nonzero;stroke:none"
             id="path82"
             inkscape:connector-curvature="0" /></g><g
           id="g84"
           transform="translate(97.8601,307.9678)"><path
             d="m 0,0 -9.137,-7.491 0,20.804 L 0,20.803 0,0 Z"
             style="fill:#0e6d96;fill-opacity:1;fill-rule:nonzero;stroke:none"
             id="path86"
             inkscape:connector-curvature="0" /></g><g
           id="g88"
           transform="translate(54.6238,242.7207)"><path
             d="m 0,0 -9.139,-7.489 0,20.803 L 0,20.804 0,0 Z"
             style="fill:#0e6d96;fill-opacity:1;fill-rule:nonzero;stroke:none"
             id="path90"
             inkscape:connector-curvature="0" /></g><g
           id="g92"
           transform="translate(69.0349,252.1523)"><path
             d="m 0,0 -9.138,-7.489 0,20.803 L 0,20.804 0,0 Z"
             style="fill:#0e6d96;fill-opacity:1;fill-rule:nonzero;stroke:none"
             id="path94"
             inkscape:connector-curvature="0" /></g><g
           id="g96"
           transform="translate(83.448,263.0825)"><path
             d="m 0,0 -9.138,-7.49 0,20.804 L 0,20.804 0,0 Z"
             style="fill:#0e6d96;fill-opacity:1;fill-rule:nonzero;stroke:none"
             id="path98"
             inkscape:connector-curvature="0" /></g><g
           id="g100"
           transform="translate(97.8601,273.2627)"><path
             d="m 0,0 -9.137,-7.489 0,20.803 L 0,20.806 0,0 Z"
             style="fill:#0e6d96;fill-opacity:1;fill-rule:nonzero;stroke:none"
             id="path102"
             inkscape:connector-curvature="0" /></g><g
           id="g104"
           transform="translate(207.7742,371.1538)"><path
             d="M 0,0 31.337,-80.858 54.843,-60.075 0,0 Z"
             style="fill:#0e6d96;fill-opacity:1;fill-rule:nonzero;stroke:none"
             id="path106"
             inkscape:connector-curvature="0" /></g><g
           id="g108"
           transform="translate(207.7742,371.1538)"><path
             d="M 0,0 -38.761,-51.453 -1.995,-28.186 0.87,-47.108 6.984,-30.741 40.407,-54.753 25.013,-26.162 0,0 Z"
             style="fill:#ffffff;fill-opacity:1;fill-rule:nonzero;stroke:none"
             id="path110"
             inkscape:connector-curvature="0" /></g><g
           id="g112"
           transform="translate(108.0022,378.6357)"><path
             d="m 0,0 0,-60.046 38.503,-6.403 0.036,53.728 L 0,0 Z"
             style="fill:#0e6d96;fill-opacity:1;fill-rule:nonzero;stroke:none"
             id="path114"
             inkscape:connector-curvature="0" /></g><g
           id="g116"
           transform="translate(56.1199,148.9126)"><path
             d="m 0,0 c 0,0 -22.946,-19.955 -21.95,-28.933 0.998,-8.98 13.969,-13.981 13.969,-13.981 l -3.008,-18.944 62.871,-24.444 0,178.591 c 0,0 -26.939,17.459 -32.426,-14.468 0,0 -20.453,11.474 -25.441,-20.452 0,0 -13.47,3.491 -18.956,-10.477 -5.488,-13.967 10.975,-29.834 10.975,-29.834 0,0 -6.486,-20.053 13.966,-17.058 z"
             style="fill:none;stroke:#00335a;stroke-width:4.48999977;stroke-linecap:round;stroke-linejoin:round;stroke-miterlimit:10;stroke-dasharray:none;stroke-opacity:1"
             id="path118"
             inkscape:connector-curvature="0" /></g><g
           id="g120"
           transform="translate(93.8484,68.1143)"><path
             d="m 0,0 -22.762,-60.628 36.916,0 0,55.124 L 0,0 Z"
             style="fill:none;stroke:#00335a;stroke-width:4.48999977;stroke-linecap:round;stroke-linejoin:round;stroke-miterlimit:10;stroke-dasharray:none;stroke-opacity:1"
             id="path122"
             inkscape:connector-curvature="0" /></g><g
           id="g124"
           transform="translate(33.6711,7.4863)"><path
             d="m 0,0 25.942,0 -19.455,16.913 6.485,8.275 0,43.402 L -22.447,57.615 0,0 Z"
             style="fill:none;stroke:#00335a;stroke-width:4.48999977;stroke-linecap:round;stroke-linejoin:round;stroke-miterlimit:10;stroke-dasharray:none;stroke-opacity:1"
             id="path126"
             inkscape:connector-curvature="0" /></g><g
           id="g128"
           transform="translate(11.2244,65.1016)"><path
             d="m 0,0 -8.979,25.441 c 0,0 19.084,9.516 18.698,-22.428 L 0,0 Z"
             style="fill:none;stroke:#00335a;stroke-width:4.48999977;stroke-linecap:round;stroke-linejoin:round;stroke-miterlimit:10;stroke-dasharray:none;stroke-opacity:1"
             id="path130"
             inkscape:connector-curvature="0" /></g><g
           id="g132"
           transform="translate(108.0022,241.2012)"><path
             d="M 0,0 0,136.597 -69.84,92.788 -67.167,-35.447"
             style="fill:none;stroke:#00335a;stroke-width:4.48999977;stroke-linecap:round;stroke-linejoin:round;stroke-miterlimit:10;stroke-dasharray:none;stroke-opacity:1"
             id="path134"
             inkscape:connector-curvature="0" /></g><g
           id="g136"
           transform="translate(108.0022,319.0234)"><path
             d="m 0,0 53.378,-9.478 -29.931,-40.907 5.987,-72.333 c 0,0 -11.475,1.495 -11.475,-13.469 0,-14.967 14.467,-11.973 14.467,-11.973 L 46.394,-235.958 23.946,-266.39 0,-256.413"
             style="fill:none;stroke:#00335a;stroke-width:4.48999977;stroke-linecap:round;stroke-linejoin:round;stroke-miterlimit:10;stroke-dasharray:none;stroke-opacity:1"
             id="path138"
             inkscape:connector-curvature="0" /></g><g
           id="g140"
           transform="translate(108.0022,377.7983)"><path
             d="m 0,0 38.503,-11.707 0,-53.905"
             style="fill:none;stroke:#00335a;stroke-width:4.48999977;stroke-linecap:round;stroke-linejoin:round;stroke-miterlimit:10;stroke-dasharray:none;stroke-opacity:1"
             id="path142"
             inkscape:connector-curvature="0" /></g><g
           id="g144"
           transform="translate(161.3806,309.5454)"><path
             d="M 0,0 46.399,61.736 100.968,2.641"
             style="fill:none;stroke:#00335a;stroke-width:4.48999977;stroke-linecap:round;stroke-linejoin:round;stroke-miterlimit:10;stroke-dasharray:none;stroke-opacity:1"
             id="path146"
             inkscape:connector-curvature="0" /></g><g
           id="g148"
           transform="translate(133.6443,242.1206)"><path
             d="m 0,0 c 0,0 0.591,10.197 15.692,3.845 15.102,-6.351 27.371,-5.409 22.654,12.996 0,0 37.044,-25.542 -36.223,-42.502 L 0,0 Z"
             style="fill:none;stroke:#00335a;stroke-width:4.48999977;stroke-linecap:round;stroke-linejoin:round;stroke-miterlimit:10;stroke-dasharray:none;stroke-opacity:1"
             id="path150"
             inkscape:connector-curvature="0" /></g><g
           id="g152"
           transform="translate(161.3806,224.3828)"><path
             d="m 0,0 39.868,-29.602 26.428,-63.711 -33.149,-25.071 -48.022,26.669"
             style="fill:none;stroke:#00335a;stroke-width:4.48999977;stroke-linecap:round;stroke-linejoin:round;stroke-miterlimit:10;stroke-dasharray:none;stroke-opacity:1"
             id="path154"
             inkscape:connector-curvature="0" /></g><g
           id="g156"
           transform="translate(212.0955,119.2842)"><path
             d="M 0,0 2.425,-111.798"
             style="fill:none;stroke:#00335a;stroke-width:4.48999977;stroke-linecap:round;stroke-linejoin:round;stroke-miterlimit:10;stroke-dasharray:none;stroke-opacity:1"
             id="path158"
             inkscape:connector-curvature="0" /></g><g
           id="g160"
           transform="translate(179.6296,237.7119)"><path
             d="m 0,0 96.489,85.302 16.462,-22.65"
             style="fill:none;stroke:#00335a;stroke-width:4.48999977;stroke-linecap:round;stroke-linejoin:round;stroke-miterlimit:10;stroke-dasharray:none;stroke-opacity:1"
             id="path162"
             inkscape:connector-curvature="0" /></g><g
           id="g164"
           transform="translate(259.655,7.4863)"><path
             d="M 0,0 32.926,68.59 -4.635,70.526 -10.887,27.185 -3.136,23.692 -19.455,0 0,0 Z"
             style="fill:none;stroke:#00335a;stroke-width:4.48999977;stroke-linecap:round;stroke-linejoin:round;stroke-miterlimit:10;stroke-dasharray:none;stroke-opacity:1"
             id="path166"
             inkscape:connector-curvature="0" /></g><g
           id="g168"
           transform="translate(283.7927,57.7666)"><path
             d="m 0,0 27.998,56.662 -68.598,-4.929 -7.088,-71.7 13.428,5.992"
             style="fill:none;stroke:#00335a;stroke-width:4.48999977;stroke-linecap:round;stroke-linejoin:round;stroke-miterlimit:10;stroke-dasharray:none;stroke-opacity:1"
             id="path170"
             inkscape:connector-curvature="0" /></g><g
           id="g172"
           transform="translate(311.7908,114.4287)"><path
             d="M 0,0 -19.1,26.001 -25.702,-1.846 0,0 Z"
             style="fill:none;stroke:#00335a;stroke-width:4.48999977;stroke-linecap:round;stroke-linejoin:round;stroke-miterlimit:10;stroke-dasharray:none;stroke-opacity:1"
             id="path174"
             inkscape:connector-curvature="0" /></g><g
           id="g176"
           transform="translate(281.3279,52.6333)"><path
             d="m 0,0 22.726,9.977 c 0,0 -3.361,13.004 -15.15,5.504 L 0,0 Z"
             style="fill:none;stroke:#00335a;stroke-width:4.48999977;stroke-linecap:round;stroke-linejoin:round;stroke-miterlimit:10;stroke-dasharray:none;stroke-opacity:1"
             id="path178"
             inkscape:connector-curvature="0" /></g><g
           id="g180"
           transform="translate(308.031,173.3711)"><path
             d="m 0,0 17.972,-97.295 c 0,0 -9.685,-10.439 -25.045,-7.962"
             style="fill:none;stroke:#00335a;stroke-width:4.48999977;stroke-linecap:round;stroke-linejoin:round;stroke-miterlimit:10;stroke-dasharray:none;stroke-opacity:1"
             id="path182"
             inkscape:connector-curvature="0" /></g><g
           id="g184"
           transform="translate(131.948,52.6333)"><path
             d="M 0,0 5.986,-51.885"
             style="fill:none;stroke:#00335a;stroke-width:1.49699998;stroke-linecap:round;stroke-linejoin:round;stroke-miterlimit:10;stroke-dasharray:none;stroke-opacity:1"
             id="path186"
             inkscape:connector-curvature="0" /></g><g
           id="g188"
           transform="translate(123.6882,31.106)"><path
             d="M 0,0 22.236,10.546"
             style="fill:none;stroke:#00335a;stroke-width:1.49699998;stroke-linecap:round;stroke-linejoin:round;stroke-miterlimit:10;stroke-dasharray:none;stroke-opacity:1"
             id="path190"
             inkscape:connector-curvature="0" /></g><g
           id="g192"
           transform="translate(128.4958,29.3027)"><path
             d="M 0,0 15.225,3.004"
             style="fill:none;stroke:#00335a;stroke-width:1.49699998;stroke-linecap:round;stroke-linejoin:round;stroke-miterlimit:10;stroke-dasharray:none;stroke-opacity:1"
             id="path194"
             inkscape:connector-curvature="0" /></g><g
           id="g196"
           transform="translate(194.5281,105.999)"><path
             d="M 0,0 -0.223,-101.756"
             style="fill:none;stroke:#00335a;stroke-width:1.49699998;stroke-linecap:round;stroke-linejoin:round;stroke-miterlimit:10;stroke-dasharray:none;stroke-opacity:1"
             id="path198"
             inkscape:connector-curvature="0" /></g><g
           id="g200"
           transform="translate(81.0652,7.4863)"><path
             d="M 0,0 C 0,0 14.465,54.478 26.937,54.052"
             style="fill:none;stroke:#00335a;stroke-width:1.49699998;stroke-linecap:round;stroke-linejoin:round;stroke-miterlimit:10;stroke-dasharray:none;stroke-opacity:1"
             id="path202"
             inkscape:connector-curvature="0" /></g><g
           id="g204"
           transform="translate(303.0559,194.7812)"><path
             d="m 0,0 8.481,42.931 -49.188,23.94 -29.562,-32.353 c -1.844,1.686 -4.294,2.726 -6.99,2.726 -5.73,0 -10.375,-4.646 -10.375,-10.377 0,-3.033 1.309,-5.754 3.384,-7.652 L -101.807,0 l 30.969,-75.497 60.363,24.638 5.986,27.936 c 0,0 10.975,-3.491 12.97,8.481 C 10.477,-2.47 0,0 0,0 Z"
             style="fill:none;stroke:#00335a;stroke-width:4.48999977;stroke-linecap:round;stroke-linejoin:round;stroke-miterlimit:10;stroke-dasharray:none;stroke-opacity:1"
             id="path206"
             inkscape:connector-curvature="0" /></g><g
           id="g208"
           transform="translate(262.3489,261.6523)"><path
             d="M 0,0 C 0,0 -4.688,-45.324 41.705,-61.822"
             style="fill:none;stroke:#00335a;stroke-width:4.48999977;stroke-linecap:round;stroke-linejoin:round;stroke-miterlimit:10;stroke-dasharray:none;stroke-opacity:1"
             id="path210"
             inkscape:connector-curvature="0" /></g><g
           id="g212"
           transform="translate(243.1785,240.6714)"><path
             d="M 0,0 C 0,0 9.982,-5.517 21.46,0"
             style="fill:none;stroke:#00335a;stroke-width:4.48999977;stroke-linecap:round;stroke-linejoin:round;stroke-miterlimit:10;stroke-dasharray:none;stroke-opacity:1"
             id="path214"
             inkscape:connector-curvature="0" /></g><g
           id="g216"
           transform="translate(220.7996,230.7417)"><path
             d="m 0,0 c 0,0 -6.972,22.287 15.306,24.426 0,0 4.343,55.589 52.983,33.032 0,0 11.973,50.278 54.625,34.814 42.652,-15.464 6.135,-69.34 6.135,-69.34 0,0 32.776,-4.086 32.776,-37.214 0,-33.127 -25.693,-54.547 -56.621,-43.089 0,0 16.38,-28.078 -10.641,-39.686"
             style="fill:none;stroke:#00335a;stroke-width:4.48999977;stroke-linecap:round;stroke-linejoin:round;stroke-miterlimit:10;stroke-dasharray:none;stroke-opacity:1"
             id="path218"
             inkscape:connector-curvature="0" /></g><g
           id="g220"
           transform="translate(108.0022,291.7764)"><path
             d="M 0,0 45.191,6.58"
             style="fill:none;stroke:#00335a;stroke-width:1.49699998;stroke-linecap:round;stroke-linejoin:round;stroke-miterlimit:10;stroke-dasharray:none;stroke-opacity:1"
             id="path222"
             inkscape:connector-curvature="0" /></g><g
           id="g224"
           transform="translate(122.7742,316.4004)"><path
             d="M 0,0 0,-22.474"
             style="fill:none;stroke:#00335a;stroke-width:1.49699998;stroke-linecap:round;stroke-linejoin:round;stroke-miterlimit:10;stroke-dasharray:none;stroke-opacity:1"
             id="path226"
             inkscape:connector-curvature="0" /></g><g
           id="g228"
           transform="translate(138.9309,312.1865)"><path
             d="M 0,0 0,-15.831"
             style="fill:none;stroke:#00335a;stroke-width:1.49699998;stroke-linecap:round;stroke-linejoin:round;stroke-miterlimit:10;stroke-dasharray:none;stroke-opacity:1"
             id="path230"
             inkscape:connector-curvature="0" /></g><g
           id="g232"
           transform="translate(119.3572,293.4287)"><path
             d="m 0,0 3.417,-8.825 7.823,0 L -4.072,-23.792 0,-31.776"
             style="fill:none;stroke:#00335a;stroke-width:1.49699998;stroke-linecap:round;stroke-linejoin:round;stroke-miterlimit:10;stroke-dasharray:none;stroke-opacity:1"
             id="path234"
             inkscape:connector-curvature="0" /></g><g
           id="g236"
           transform="translate(127.363,190.4678)"><path
             d="M 0,0 -19.361,-4.639"
             style="fill:none;stroke:#00335a;stroke-width:1.49699998;stroke-linecap:round;stroke-linejoin:round;stroke-miterlimit:10;stroke-dasharray:none;stroke-opacity:1"
             id="path238"
             inkscape:connector-curvature="0" /></g><g
           id="g240"
           transform="translate(108.0022,163.6289)"><path
             d="M 0,0 22.595,8.806"
             style="fill:none;stroke:#00335a;stroke-width:1.49699998;stroke-linecap:round;stroke-linejoin:round;stroke-miterlimit:10;stroke-dasharray:none;stroke-opacity:1"
             id="path242"
             inkscape:connector-curvature="0" /></g><g
           id="g244"
           transform="translate(168.5056,319.0234)"><path
             d="M 0,0 37.523,24.069 39.768,3.99 46.015,21.39 80.278,-2.623 60.568,29.197"
             style="fill:none;stroke:#00335a;stroke-width:1.49699998;stroke-linecap:round;stroke-linejoin:round;stroke-miterlimit:10;stroke-dasharray:none;stroke-opacity:1"
             id="path246"
             inkscape:connector-curvature="0" /></g><g
           id="g248"
           transform="translate(299.405,243.6157)"><path
             d="M 0,0 53.288,108.83"
             style="fill:none;stroke:#00335a;stroke-width:1.49699998;stroke-linecap:round;stroke-linejoin:round;stroke-miterlimit:10;stroke-dasharray:none;stroke-opacity:1"
             id="path250"
             inkscape:connector-curvature="0" /></g><g
           id="g252"
           transform="translate(327.1912,300.3643)"><path
             d="M 0,0 -10.417,44.628"
             style="fill:none;stroke:#00335a;stroke-width:1.49699998;stroke-linecap:round;stroke-linejoin:round;stroke-miterlimit:10;stroke-dasharray:none;stroke-opacity:1"
             id="path254"
             inkscape:connector-curvature="0" /></g><g
           id="g256"
           transform="translate(306.5989,193.1558)"><path
             d="M 0,0 99.222,37.586"
             style="fill:none;stroke:#00335a;stroke-width:1.49699998;stroke-linecap:round;stroke-linejoin:round;stroke-miterlimit:10;stroke-dasharray:none;stroke-opacity:1"
             id="path258"
             inkscape:connector-curvature="0" /></g><g
           id="g260"
           transform="translate(370.1882,217.2422)"><path
             d="M 0,0 12.437,28.724"
             style="fill:none;stroke:#003366;stroke-width:1.49699998;stroke-linecap:round;stroke-linejoin:round;stroke-miterlimit:10;stroke-dasharray:none;stroke-opacity:1"
             id="path262"
             inkscape:connector-curvature="0" /></g><g
           id="g264"
           transform="translate(279.0955,253.501)"><path
             d="M 0,0 -35.917,56.044"
             style="fill:none;stroke:#00335a;stroke-width:1.49699998;stroke-linecap:round;stroke-linejoin:round;stroke-miterlimit:10;stroke-dasharray:none;stroke-opacity:1"
             id="path266"
             inkscape:connector-curvature="0" /></g><g
           id="g268"
           transform="translate(261.1365,281.5229)"><path
             d="M 0,0 -17.958,6.677"
             style="fill:none;stroke:#00335a;stroke-width:1.49699998;stroke-linecap:round;stroke-linejoin:round;stroke-miterlimit:10;stroke-dasharray:none;stroke-opacity:1"
             id="path270"
             inkscape:connector-curvature="0" /></g><g
           id="g272"
           transform="translate(232.7869,229.2988)"><path
             d="M 0,0 -28.255,20.259"
             style="fill:none;stroke:#00335a;stroke-width:1.49699998;stroke-linecap:round;stroke-linejoin:round;stroke-miterlimit:10;stroke-dasharray:none;stroke-opacity:1"
             id="path274"
             inkscape:connector-curvature="0" /></g><g
           id="g276"
           transform="translate(219.7751,237.7119)"><path
             d="M 0,0 -11.131,0"
             style="fill:none;stroke:#00335a;stroke-width:1.49699998;stroke-linecap:round;stroke-linejoin:round;stroke-miterlimit:10;stroke-dasharray:none;stroke-opacity:1"
             id="path278"
             inkscape:connector-curvature="0" /></g><g
           id="g280"
           transform="translate(232.2175,119.2842)"><path
             d="M 0,0 -17.697,-111.798"
             style="fill:none;stroke:#00335a;stroke-width:1.49699998;stroke-linecap:round;stroke-linejoin:round;stroke-miterlimit:10;stroke-dasharray:none;stroke-opacity:1"
             id="path282"
             inkscape:connector-curvature="0" /></g><g
           id="g284"
           transform="translate(253.9099,62.6104)"><path
             d="M 0,0 20.037,0"
             style="fill:none;stroke:#00335a;stroke-width:1.49699998;stroke-linecap:round;stroke-linejoin:round;stroke-miterlimit:10;stroke-dasharray:none;stroke-opacity:1"
             id="path286"
             inkscape:connector-curvature="0" /></g><g
           id="g288"
           transform="translate(250.7209,48.208)"><path
             d="M 0,0 19.414,0"
             style="fill:none;stroke:#00335a;stroke-width:1.49699998;stroke-linecap:round;stroke-linejoin:round;stroke-miterlimit:10;stroke-dasharray:none;stroke-opacity:1"
             id="path290"
             inkscape:connector-curvature="0" /></g><g
           id="g292"
           transform="translate(46.6433,57.6206)"><path
             d="M 0,0 -22.446,0"
             style="fill:none;stroke:#00335a;stroke-width:1.49699998;stroke-linecap:round;stroke-linejoin:round;stroke-miterlimit:10;stroke-dasharray:none;stroke-opacity:1"
             id="path294"
             inkscape:connector-curvature="0" /></g><g
           id="g296"
           transform="translate(46.6433,42.75)"><path
             d="M 0,0 -16.584,0"
             style="fill:none;stroke:#00335a;stroke-width:1.49699998;stroke-linecap:round;stroke-linejoin:round;stroke-miterlimit:10;stroke-dasharray:none;stroke-opacity:1"
             id="path298"
             inkscape:connector-curvature="0" /></g><g
           id="g300"
           transform="translate(137.9343,188.4565)"><path
             d="m 0,0 c 0,0 -6.61,2.484 -6.735,-5.623 -0.124,-8.106 7.358,-2.618 7.358,-2.618 0,0 -4.239,8.357 -2.742,-4.49"
             style="fill:none;stroke:#00335a;stroke-width:1.49699998;stroke-linecap:round;stroke-linejoin:round;stroke-miterlimit:10;stroke-dasharray:none;stroke-opacity:1"
             id="path302"
             inkscape:connector-curvature="0" /></g><g
           id="g304"
           transform="translate(56.1199,148.9126)"><path
             d="m 0,0 2.051,11.383 c 0,0 7.514,0.71 10.86,12.783 0,0 10.27,-5.148 18.613,3.551 0,0 4.497,-12.937 20.358,-11.439"
             style="fill:none;stroke:#00335a;stroke-width:1.49699998;stroke-linecap:round;stroke-linejoin:round;stroke-miterlimit:10;stroke-dasharray:none;stroke-opacity:1"
             id="path306"
             inkscape:connector-curvature="0" /></g><g
           id="g308"
           transform="translate(50.8923,163.6289)"><path
             d="M 0,0 C 0,0 3.952,-6.416 11.03,-1.767"
             style="fill:none;stroke:#00335a;stroke-width:1.49699998;stroke-linecap:round;stroke-linejoin:round;stroke-miterlimit:10;stroke-dasharray:none;stroke-opacity:1"
             id="path310"
             inkscape:connector-curvature="0" /></g><g
           id="g312"
           transform="translate(61.9226,178.6572)"><path
             d="M 0,0 C 0,0 3.426,-5.612 12.63,-7.016"
             style="fill:none;stroke:#00335a;stroke-width:1.49699998;stroke-linecap:round;stroke-linejoin:round;stroke-miterlimit:10;stroke-dasharray:none;stroke-opacity:1"
             id="path314"
             inkscape:connector-curvature="0" /></g><g
           id="g316"
           transform="translate(46.9832,98.7236)"><path
             d="m 0,0 c 0,0 22.794,-11.358 42.561,12.025 l -1.933,3.68 0,-2.743"
             style="fill:none;stroke:#00335a;stroke-width:1.49699998;stroke-linecap:round;stroke-linejoin:round;stroke-miterlimit:10;stroke-dasharray:none;stroke-opacity:1"
             id="path318"
             inkscape:connector-curvature="0" /></g><g
           id="g320"
           transform="translate(64.0408,144.0488)"><path
             d="M 0,0 C 0,0 -1.871,11.598 7.857,11.598 17.585,11.598 16.275,0 16.275,0"
             style="fill:none;stroke:#00335a;stroke-width:1.49699998;stroke-linecap:round;stroke-linejoin:round;stroke-miterlimit:10;stroke-dasharray:none;stroke-opacity:1"
             id="path322"
             inkscape:connector-curvature="0" /></g><g
           id="g324"
           transform="translate(143.1208,247.855)"><path
             d="M 0,0 -8.243,-16.25"
             style="fill:none;stroke:#00335a;stroke-width:1.49699998;stroke-linecap:round;stroke-linejoin:round;stroke-miterlimit:10;stroke-dasharray:none;stroke-opacity:1"
             id="path326"
             inkscape:connector-curvature="0" /></g><g
           id="g328"
           transform="translate(149.3362,245.9658)"><path
             d="M 0,0 -14.022,-24.023"
             style="fill:none;stroke:#00335a;stroke-width:1.49699998;stroke-linecap:round;stroke-linejoin:round;stroke-miterlimit:10;stroke-dasharray:none;stroke-opacity:1"
             id="path330"
             inkscape:connector-curvature="0" /></g><g
           id="g332"
           transform="translate(156.7507,243.9653)"><path
             d="M 0,0 -16.442,-25.467"
             style="fill:none;stroke:#00335a;stroke-width:1.49699998;stroke-linecap:round;stroke-linejoin:round;stroke-miterlimit:10;stroke-dasharray:none;stroke-opacity:1"
             id="path334"
             inkscape:connector-curvature="0" /></g><g
           id="g336"
           transform="translate(162.866,241.9805)"><path
             d="M 0,0 -11.543,-20.787"
             style="fill:none;stroke:#00335a;stroke-width:1.49699998;stroke-linecap:round;stroke-linejoin:round;stroke-miterlimit:10;stroke-dasharray:none;stroke-opacity:1"
             id="path338"
             inkscape:connector-curvature="0" /></g><g
           id="g340"
           transform="translate(169.0129,243.6157)"><path
             d="M 0,0 -7.632,-19.233"
             style="fill:none;stroke:#00335a;stroke-width:1.49699998;stroke-linecap:round;stroke-linejoin:round;stroke-miterlimit:10;stroke-dasharray:none;stroke-opacity:1"
             id="path342"
             inkscape:connector-curvature="0" /></g><g
           id="g344"
           transform="translate(175.3484,252.1748)"><path
             d="M 0,0 -4.444,-22.876"
             style="fill:none;stroke:#00335a;stroke-width:1.49699998;stroke-linecap:round;stroke-linejoin:round;stroke-miterlimit:10;stroke-dasharray:none;stroke-opacity:1"
             id="path346"
             inkscape:connector-curvature="0" /></g><g
           id="g348"
           transform="translate(154.8943,185.8286)"><path
             d="m 0,0 c 0,0 -4.911,13.78 3.493,14.002 6.81,0.18 8.48,-9.363 8.48,-9.363"
             style="fill:none;stroke:#00335a;stroke-width:1.49699998;stroke-linecap:round;stroke-linejoin:round;stroke-miterlimit:10;stroke-dasharray:none;stroke-opacity:1"
             id="path350"
             inkscape:connector-curvature="0" /></g><g
           id="g352"
           transform="translate(181.3533,197.3018)"><path
             d="M 0,0 C 0,0 -1.017,15.041 6.717,2.531"
             style="fill:none;stroke:#00335a;stroke-width:1.49699998;stroke-linecap:round;stroke-linejoin:round;stroke-miterlimit:10;stroke-dasharray:none;stroke-opacity:1"
             id="path354"
             inkscape:connector-curvature="0" /></g><g
           id="g356"
           transform="translate(174.2078,195.9058)"><path
             d="m 0,0 c 0,0 6.556,-22.019 27.041,-18.094 l -11.562,-9.78 c 0,0 7.629,-4.827 9.375,-11.148 0,0 -8.72,-13.912 -39.677,-2.597 l 0,4.121 0.784,-1.743"
             style="fill:none;stroke:#00335a;stroke-width:1.49699998;stroke-linecap:round;stroke-linejoin:round;stroke-miterlimit:10;stroke-dasharray:none;stroke-opacity:1"
             id="path358"
             inkscape:connector-curvature="0" /></g><g
           id="g360"
           transform="translate(262.2166,214.2573)"><path
             d="m 0,0 c 0,0 -13.194,1.096 -22.284,-19.121 l 13.977,-7.68 2.61,6.426 -4.755,2.023"
             style="fill:none;stroke:#00335a;stroke-width:1.49699998;stroke-linecap:round;stroke-linejoin:round;stroke-miterlimit:10;stroke-dasharray:none;stroke-opacity:1"
             id="path362"
             inkscape:connector-curvature="0" /></g><g
           id="g364"
           transform="translate(222.3796,193.1558)"><path
             d="m 0,0 c 0,0 14.152,-32.459 60.757,-19.785 l -0.887,3.741 -0.94,-1.567"
             style="fill:none;stroke:#00335a;stroke-width:1.49699998;stroke-linecap:round;stroke-linejoin:round;stroke-miterlimit:10;stroke-dasharray:none;stroke-opacity:1"
             id="path366"
             inkscape:connector-curvature="0" /></g><g
           id="g368"
           transform="translate(241.1873,224.3828)"><path
             d="m 0,0 c 0,0 4.259,7.106 9.889,4.916 5.627,-2.19 5.443,-7.989 5.443,-7.989"
             style="fill:none;stroke:#00335a;stroke-width:1.49699998;stroke-linecap:round;stroke-linejoin:round;stroke-miterlimit:10;stroke-dasharray:none;stroke-opacity:1"
             id="path370"
             inkscape:connector-curvature="0" /></g><g
           id="g372"
           transform="translate(274.7273,208.6143)"><path
             d="M 0,0 C 0,0 11.755,8.004 13.949,-7.752"
             style="fill:none;stroke:#00335a;stroke-width:1.49699998;stroke-linecap:round;stroke-linejoin:round;stroke-miterlimit:10;stroke-dasharray:none;stroke-opacity:1"
             id="path374"
             inkscape:connector-curvature="0" /></g><g
           id="g376"
           transform="translate(228.6492,225.5127)"><path
             d="m 0,0 c 0,0 -4.39,4.362 -7.053,0 -2.665,-4.361 2.821,-6.397 2.821,-6.397 0,0 1.529,6.583 -4.642,0"
             style="fill:none;stroke:#00335a;stroke-width:1.49699998;stroke-linecap:round;stroke-linejoin:round;stroke-miterlimit:10;stroke-dasharray:none;stroke-opacity:1"
             id="path378"
             inkscape:connector-curvature="0" /></g><g
           id="g380"
           transform="translate(301.9968,187.4565)"><path
             d="m 0,0 c 0,0 5.651,-0.28 4.602,-5.663 -1.048,-5.381 -5.641,-3.325 -5.641,-3.325 0,0 3.657,5.613 1.413,-2.618"
             style="fill:none;stroke:#00335a;stroke-width:1.49699998;stroke-linecap:round;stroke-linejoin:round;stroke-miterlimit:10;stroke-dasharray:none;stroke-opacity:1"
             id="path382"
             inkscape:connector-curvature="0" /></g><g
           id="g384"
           transform="translate(255.2468,170.9316)"><path
             d="m 0,0 c 0,0 -1.327,8.1 -5.631,9.222 -4.303,1.121 -5.446,-3.179 -8.429,-1.496 -2.982,1.683 -1.783,4.466 -6.873,0.547 0,0 -1.909,-10.65 7.632,-12.894 C -3.76,-6.867 0,0 0,0 Z"
             style="fill:none;stroke:#00335a;stroke-width:1.49699998;stroke-linecap:round;stroke-linejoin:round;stroke-miterlimit:10;stroke-dasharray:none;stroke-opacity:1"
             id="path386"
             inkscape:connector-curvature="0" /></g><g
           id="g388"
           transform="translate(269.4041,258.2187)"><path
             d="M 0,0 C 0,0 1.562,-39.282 36.066,-51.224"
             style="fill:none;stroke:#00335a;stroke-width:1.49699998;stroke-linecap:round;stroke-linejoin:round;stroke-miterlimit:10;stroke-dasharray:none;stroke-opacity:1"
             id="path390"
             inkscape:connector-curvature="0" /></g><g
           id="g392"
           transform="translate(306.5989,214.2666)"><path
             d="M 0,0 C 0,0 -22.219,5.046 -29.218,39.686"
             style="fill:none;stroke:#00335a;stroke-width:1.49699998;stroke-linecap:round;stroke-linejoin:round;stroke-miterlimit:10;stroke-dasharray:none;stroke-opacity:1"
             id="path394"
             inkscape:connector-curvature="0" /></g><g
           id="g396"
           transform="translate(286.2639,250.0122)"><path
             d="M 0,0 C 0,0 6.027,-24.131 22.01,-28.819"
             style="fill:none;stroke:#00335a;stroke-width:1.49699998;stroke-linecap:round;stroke-linejoin:round;stroke-miterlimit:10;stroke-dasharray:none;stroke-opacity:1"
             id="path398"
             inkscape:connector-curvature="0" /></g><g
           id="g400"
           transform="translate(297.2693,244.6572)"><path
             d="M 0,0 C 0,0 4.708,-12.792 12.606,-15.358"
             style="fill:none;stroke:#00335a;stroke-width:1.49699998;stroke-linecap:round;stroke-linejoin:round;stroke-miterlimit:10;stroke-dasharray:none;stroke-opacity:1"
             id="path402"
             inkscape:connector-curvature="0" /></g><g
           id="g404"
           transform="translate(251.7649,250.0693)"><path
             d="M 0,0 C 0,0 3.693,-2.232 10.852,1.104"
             style="fill:none;stroke:#00335a;stroke-width:1.49699998;stroke-linecap:round;stroke-linejoin:round;stroke-miterlimit:10;stroke-dasharray:none;stroke-opacity:1"
             id="path406"
             inkscape:connector-curvature="0" /></g><g
           id="g408"
           transform="translate(246.8181,244.6572)"><path
             d="M 0,0 C 0,0 9.44,-2.735 16.587,1.309"
             style="fill:none;stroke:#00335a;stroke-width:1.49699998;stroke-linecap:round;stroke-linejoin:round;stroke-miterlimit:10;stroke-dasharray:none;stroke-opacity:1"
             id="path410"
             inkscape:connector-curvature="0" /></g><g
           id="g412"
           transform="translate(303.573,170.4346)"><path
             d="M 0,0 14.204,-99.992"
             style="fill:none;stroke:#00335a;stroke-width:1.49699998;stroke-linecap:round;stroke-linejoin:round;stroke-miterlimit:10;stroke-dasharray:none;stroke-opacity:1"
             id="path414"
             inkscape:connector-curvature="0" /></g><g
           id="g416"
           transform="translate(297.2693,165.8594)"><path
             d="M 0,0 3.688,-36.683"
             style="fill:none;stroke:#00335a;stroke-width:1.49699998;stroke-linecap:round;stroke-linejoin:round;stroke-miterlimit:10;stroke-dasharray:none;stroke-opacity:1"
             id="path418"
             inkscape:connector-curvature="0" /></g><g
           id="g420"
           transform="translate(304.0535,98.7749)"><path
             d="M 0,0 2.545,-30.661"
             style="fill:none;stroke:#00335a;stroke-width:1.49699998;stroke-linecap:round;stroke-linejoin:round;stroke-miterlimit:10;stroke-dasharray:none;stroke-opacity:1"
             id="path422"
             inkscape:connector-curvature="0" /></g><g
           id="g424"
           transform="translate(297.2693,83.4434)"><path
             d="M 0,0 0,-13.001"
             style="fill:none;stroke:#00335a;stroke-width:1.49699998;stroke-linecap:round;stroke-linejoin:round;stroke-miterlimit:10;stroke-dasharray:none;stroke-opacity:1"
             id="path426"
             inkscape:connector-curvature="0" /></g></g></g></g></svg>