<?xml version="1.0" encoding="utf-8"?>
<!-- Generator: Adobe Illustrator 16.0.0, SVG Export Plug-In . SVG Version: 6.00 Build 0)  -->
<!DOCTYPE svg PUBLIC "-//W3C//DTD SVG 1.1//EN" "http://www.w3.org/Graphics/SVG/1.1/DTD/svg11.dtd">
<svg version="1.1" id="Capa_1" xmlns="http://www.w3.org/2000/svg" xmlns:xlink="http://www.w3.org/1999/xlink" x="0px" y="0px"
	 width="200.2px" height="200px" viewBox="0 0 200.2 200" enable-background="new 0 0 200.2 200" xml:space="preserve">
<g>
	<g>
		<path fill="#B51E4F" d="M177.413,88.948c0,42.698-34.617,77.315-77.315,77.315c-42.693,0-77.311-34.617-77.311-77.315
			c0-42.699,34.617-77.313,77.311-77.313C142.795,11.636,177.413,46.249,177.413,88.948z"/>
	</g>
	<g>
		<g>
			<path fill="#F3AB1C" d="M66.737,82.776l6.239,31.724c0.803,4.085,7.902,18.775,12.039,18.305
				c4.128-0.473,4.254-13.163,3.344-17.231l-5.745-22.154C79.318,80.716,71.142,81.77,66.737,82.776z"/>
			<polygon fill="#E4CFA4" points="88.441,124.401 84.869,178.041 86.691,180.117 123.331,180.117 126.54,131.771 			"/>
			<polygon fill="#F7D4B4" points="125.321,137.31 125.44,180.117 87.102,180.117 86.721,179.689 86.625,140.726 			"/>
			<polygon fill="#FFFFFF" points="128.905,156.271 131.547,188.364 81.404,188.364 84.204,156.271 			"/>
			<path fill="#F7D4B4" d="M67.083,84.332l5.893,30.168c0.799,4.085,7.494,22.463,11.627,21.99
				c4.134-0.473,4.666-16.849,3.756-20.917l-5.745-22.154c-2.832-10.91-9.263-11.672-13.813-11.033
				C66.944,82.648,66.773,82.743,67.083,84.332z"/>
			<path fill="#F7D4B4" d="M93.163,36.926l-0.031,37.632c3.623-5.181,12.65-2.198,13.392,4.546
				c2.982-5.819,11.713-3.708,13.578,2.272c3.627-4.912,12.531-1.572,12.512,5.362l-0.098,31.765
				c-0.051,15.892-9.354,31.398-28.768,31.507c-14.63,0.081-24.338-14.519-24.445-24.632l-0.206-88.259
				C78.978,25.933,93.313,27.734,93.163,36.926z"/>
			<path fill="#D1A481" d="M120.534,92.501c0,0,0.145-6.3,0.248-11.896c-0.24,0.23-0.473,0.487-0.68,0.771
				c-0.168-0.525-0.385-1.02-0.645-1.483C119.901,85.589,120.534,92.501,120.534,92.501z M93.238,74.412
				c0.334-0.451,0.713-0.838,1.125-1.16c-0.141,6.271-0.616,16.983-0.616,16.983s-0.576-11.011-0.615-15.677
				C93.132,74.629,93.171,74.564,93.238,74.412z M105.721,76.429c0.412,0.805,0.695,1.701,0.803,2.676
				c0.197-0.387,0.422-0.738,0.668-1.055c-0.059,6.193-0.166,13.864-0.166,13.864S106.124,82.366,105.721,76.429z"/>
			<path fill="#FAEFE6" d="M92.238,36.502l-0.015,3.41c-4.054,3.063-8.104,2.883-12.153,0l-0.048-3.26
				C79.919,27.785,92.37,29.213,92.238,36.502z"/>
			<path fill="#FAEFE6" d="M66.954,83.917l1.825,9.253c2.397-1.649,1.132-6.862-0.021-10.779
				C67.46,82.577,66.723,82.752,66.954,83.917z"/>
		</g>
	</g>
</g>
</svg>
