<?xml version="1.0" encoding="utf-8"?>
<!-- Generator: Adobe Illustrator 16.0.0, SVG Export Plug-In . SVG Version: 6.00 Build 0)  -->
<!DOCTYPE svg PUBLIC "-//W3C//DTD SVG 1.1//EN" "http://www.w3.org/Graphics/SVG/1.1/DTD/svg11.dtd" [
	<!ENTITY ns_flows "http://ns.adobe.com/Flows/1.0/">
	<!ENTITY ns_extend "http://ns.adobe.com/Extensibility/1.0/">
	<!ENTITY ns_ai "http://ns.adobe.com/AdobeIllustrator/10.0/">
	<!ENTITY ns_graphs "http://ns.adobe.com/Graphs/1.0/">
]>
<svg version="1.1" id="Capa_1" xmlns:x="&ns_extend;" xmlns:i="&ns_ai;" xmlns:graph="&ns_graphs;"
	 xmlns="http://www.w3.org/2000/svg" xmlns:xlink="http://www.w3.org/1999/xlink" xmlns:a="http://ns.adobe.com/AdobeSVGViewerExtensions/3.0/"
	 x="0px" y="0px" width="894.6px" height="324.4px" viewBox="26 117.8 894.6 324.4" enable-background="new 26 117.8 894.6 324.4"
	 xml:space="preserve">
<g id="base">
	<path id="XMLID_42_" fill="#878787" d="M762.3,125.6c-68.1,0-510,0-578,0C96.9,125.6,26,196.5,26,283.9
		c0,87.4,70.9,158.3,158.3,158.3c68.1,0,510,0,578,0c87.4,0,158.3-70.9,158.3-158.3C920.7,196.5,849.8,125.6,762.3,125.6z"/>
	<path id="XMLID_82_" fill="#F6F6F6" d="M762.3,117.8c-68.1,0-510,0-578,0C96.9,117.8,26,188.7,26,276.1
		c0,87.4,70.9,158.3,158.3,158.3c68.1,0,510,0,578,0c87.4,0,158.3-70.9,158.3-158.3C920.7,188.7,849.8,117.8,762.3,117.8z"/>
	<path id="XMLID_81_" fill="#9D9D9C" d="M184.3,390.5c-63.1,0-114.4-51.3-114.4-114.4c0-63.1,51.3-114.4,114.4-114.4h578
		c63.1,0,114.4,51.3,114.4,114.4c0,63.1-51.3,114.4-114.4,114.4H184.3z"/>
	<path id="XMLID_80_" fill="#1E75BB" d="M184.3,385.7c-60.4,0-109.6-49.2-109.6-109.6c0-60.4,49.2-109.6,109.6-109.6h578
		c60.4,0,109.6,49.2,109.6,109.6c0,60.4-49.2,109.6-109.6,109.6H184.3z"/>
	<g id="XMLID_5_" enable-background="new    ">
		<path fill="#FFFFFF" d="M682,306.5c0,10.7-3.9,19.2-11.8,25.4c-7.9,6.3-18.3,9.4-31.3,9.4c-15.7,0-27.7-1.7-36-5.2v-8.9
			c9.2,3.9,21,5.9,35.3,5.9c10.5,0,18.9-2.4,25-7.2c6.2-4.8,9.2-11.1,9.2-19c0-4.8-1-8.9-3.1-12c-2-3.2-5.4-6.1-10-8.7
			c-4.6-2.6-11.4-5.5-20.3-8.5c-13-4.7-22-9.5-27-14.7s-7.5-12.2-7.5-20.9c0-9.6,3.8-17.4,11.3-23.4s17.2-9.1,29-9.1
			c12,0,23.3,2.3,33.9,6.8l-3.2,7.7c-10.6-4.4-20.8-6.7-30.5-6.7c-9.5,0-17,2.2-22.6,6.6c-5.6,4.4-8.4,10.3-8.4,17.9
			c0,4.7,0.9,8.6,2.6,11.7c1.7,3,4.5,5.8,8.5,8.2c3.9,2.4,10.6,5.3,20.2,8.7c10,3.4,17.5,6.8,22.5,10s8.7,6.9,11,11
			C680.9,295.6,682,300.6,682,306.5z"/>
		<path fill="#FFFFFF" d="M705.7,217.8c0-5.6,1.8-8.4,5.5-8.4c1.8,0,3.2,0.7,4.2,2.2s1.5,3.5,1.5,6.2c0,2.6-0.5,4.7-1.5,6.2
			s-2.4,2.3-4.2,2.3C707.5,226.3,705.7,223.5,705.7,217.8z M715.6,339.5h-8.7v-95.2h8.7V339.5z"/>
	</g>
	<g id="XMLID_43_" enable-background="new    ">
		<path fill="#FFFFFF" d="M295.4,339.5h-9l-75.9-113.7h-0.7c0.7,13.6,1.1,23.8,1.1,30.7v83.1h-8.6V211.4h8.9L287,324.9h0.5
			c-0.5-10.5-0.8-20.5-0.8-30v-83.6h8.7V339.5L295.4,339.5z"/>
		<path fill="#FFFFFF" d="M408.2,291.7c0,15.5-3.8,27.7-11.3,36.4c-7.5,8.7-17.9,13.1-31.2,13.1c-8.4,0-15.7-2-22.1-6
			s-11.2-9.8-14.6-17.3s-5.1-16.2-5.1-26.1c0-15.5,3.8-27.6,11.3-36.3s17.9-13,31-13c13.1,0,23.4,4.4,30.8,13.2
			C404.5,264.4,408.2,276.4,408.2,291.7z M333.1,291.7c0,13.1,2.9,23.3,8.6,30.6c5.8,7.3,13.9,11,24.4,11s18.6-3.7,24.4-11
			s8.6-17.5,8.6-30.6c0-13.1-2.9-23.3-8.7-30.6c-5.8-7.2-14-10.9-24.5-10.9s-18.6,3.6-24.3,10.8
			C335.9,268.3,333.1,278.5,333.1,291.7z"/>
	</g>
</g>
</svg>
