<?xml version="1.0" encoding="utf-8"?>
<!-- Generator: Adobe Illustrator 16.0.0, SVG Export Plug-In . SVG Version: 6.00 Build 0)  -->
<!DOCTYPE svg PUBLIC "-//W3C//DTD SVG 1.1//EN" "http://www.w3.org/Graphics/SVG/1.1/DTD/svg11.dtd">
<svg version="1.1" id="Capa_1" xmlns="http://www.w3.org/2000/svg" xmlns:xlink="http://www.w3.org/1999/xlink" x="0px" y="0px"
	 width="1226.504px" height="2179.579px" viewBox="0 0 1226.504 2179.579" enable-background="new 0 0 1226.504 2179.579"
	 xml:space="preserve">
<g opacity="0.15">
	<polygon fill="#030104" points="467.802,183.966 466.101,206.616 479.398,209.183 479.398,189.992 473.677,189.992 
		473.677,183.966 	"/>
	<polygon fill="#030104" points="463.972,234.939 479.398,237.664 479.398,211.05 465.963,208.452 	"/>
	<polygon fill="#030104" points="461.811,263.686 462.203,264.134 462.203,263.371 462.884,263.974 462.598,260.259 
		463.638,261.605 464.177,259.151 464.715,261.605 465.755,260.259 465.467,263.974 466.15,263.371 466.15,264.134 467.584,262.488 
		467.261,266.021 466.544,268.068 468.661,266.986 468.339,268.351 469.235,267.827 469.235,268.583 471.522,267.925 
		471.167,267.399 471.635,267.399 471.167,265.753 471.635,265.992 473.293,267.415 474.476,267.074 474.611,266.315 
		473.356,264.385 473.142,263.06 475.581,264.826 476.622,265.189 473.965,262.016 473.142,258.523 475.293,260.089 
		474.433,257.439 476.549,259.125 476.335,257.642 477.481,258.885 475.616,255.591 475.616,253.867 476.515,254.388 
		476.19,253.023 478.307,254.107 477.589,252.058 477.267,248.525 478.701,250.171 478.701,249.408 479.384,250.011 
		479.096,246.297 479.398,246.685 479.398,239.611 463.825,236.865 	"/>
	<polygon fill="#030104" points="458.057,271.796 458.061,271.794 458.057,271.787 	"/>
	<polygon fill="#030104" points="461.492,267.906 461.808,268.068 461.539,267.299 	"/>
	<polygon fill="#030104" points="458.114,271.549 458.135,271.562 458.147,271.417 	"/>
	<rect x="482.148" y="158.107" fill="#030104" width="6.379" height="4.946"/>
	<polygon fill="#030104" points="499.14,259.983 497.423,237.117 482.469,239.496 482.469,249.567 482.649,249.408 482.649,250.171 
		484.083,248.525 483.763,252.058 483.043,254.107 485.161,253.023 484.836,254.388 485.735,253.867 485.735,255.591 
		483.869,258.885 485.017,257.642 484.803,259.125 486.919,257.439 486.058,260.089 488.211,258.523 487.386,262.016 
		485.902,263.791 488.06,263.169 488.211,263.06 488.198,263.129 	"/>
	<path fill="#030104" d="M1152.881-889.718c-3.557-2.238-7.504-3.333-11.293-3.348c-3.748-12.25-16.186-18.915-26.275-13.986
		c-11.699,5.712-14.869,22.339-11.896,34.028c0,0,0,0.005,0.002,0.005c-3.512,1.963-6.637,5.404-8.949,10.531
		c-1.02,2.264-1.582,4.673-1.76,7.107c-0.02,0.274-0.037,0.549-0.047,0.823c-0.008,0.193-0.008,0.384-0.01,0.576
		c-0.004,0.164-0.006,0.33-0.006,0.493c0.002,0.193,0.008,0.385,0.016,0.579c0.002,0.163,0.012,0.327,0.021,0.49
		c0.008,0.191,0.02,0.386,0.033,0.577c0.014,0.166,0.027,0.33,0.045,0.496c0.02,0.186,0.037,0.377,0.059,0.566
		c0.021,0.197,0.051,0.391,0.08,0.584c0.045,0.304,0.09,0.607,0.148,0.909c0.031,0.171,0.059,0.339,0.092,0.513
		c0.039,0.178,0.08,0.359,0.119,0.544c0.037,0.167,0.074,0.333,0.117,0.5c0.043,0.175,0.088,0.354,0.135,0.531
		c0.047,0.17,0.096,0.341,0.143,0.509c0.051,0.171,0.098,0.337,0.148,0.506c0.066,0.206,0.135,0.41,0.201,0.618
		c0.08,0.229,0.162,0.46,0.246,0.689c0.078,0.204,0.15,0.408,0.232,0.607c0.061,0.153,0.123,0.301,0.188,0.449
		c0.074,0.176,0.148,0.352,0.225,0.525c0.07,0.148,0.135,0.296,0.207,0.441c0.082,0.178,0.166,0.353,0.252,0.526
		c0.07,0.138,0.137,0.272,0.207,0.408c0.109,0.209,0.223,0.413,0.336,0.617c0.055,0.098,0.105,0.194,0.158,0.286
		c0.164,0.286,0.336,0.566,0.512,0.842c0.068,0.11,0.141,0.215,0.209,0.314c0.117,0.187,0.238,0.365,0.361,0.542
		c0.078,0.112,0.158,0.221,0.238,0.332c0.123,0.171,0.248,0.342,0.377,0.505c0.076,0.103,0.154,0.204,0.236,0.306
		c0.148,0.187,0.301,0.371,0.459,0.55c0.061,0.073,0.117,0.145,0.18,0.213c0.215,0.245,0.436,0.486,0.662,0.72
		c0.057,0.059,0.121,0.118,0.182,0.179c0.168,0.173,0.34,0.341,0.518,0.505c0.082,0.076,0.168,0.152,0.252,0.229
		c0.162,0.143,0.324,0.283,0.486,0.421c0.088,0.071,0.176,0.146,0.262,0.217c0.18,0.144,0.363,0.283,0.545,0.419
		c0.074,0.051,0.145,0.107,0.217,0.16c0.258,0.182,0.518,0.361,0.779,0.527c0.047,0.025,0.088,0.048,0.127,0.074
		c0.225,0.138,0.453,0.272,0.682,0.396c0.09,0.048,0.18,0.094,0.271,0.139c0.184,0.098,0.375,0.192,0.564,0.282
		c0.102,0.046,0.197,0.089,0.295,0.133c0.195,0.084,0.395,0.168,0.594,0.242c0.09,0.036,0.178,0.069,0.27,0.1
		c0.283,0.104,0.576,0.199,0.869,0.283c7.293,2.047,13.563-2.331,17.336-8.595c0.15,0.4,0.273,0.755,0.361,1.053l-25.805,44.335
		l-44.086-34.945l-52.133,54.601c-0.076-0.766-0.191-1.535-0.357-2.291c-1.854-8.394-7.975-12.304-13.529-12.327
		c-2.236-7.302-9.65-11.273-15.662-8.335c-6.887,3.361-8.809,13.057-7.15,20.007c-3.057-5.424-9.258-8.02-14.434-5.493
		c-6.975,3.405-8.865,13.315-7.09,20.283c0,0,0,0.001,0,0.005c-2.094,1.169-3.959,3.221-5.336,6.273
		c-0.607,1.351-0.943,2.787-1.049,4.239c-0.012,0.161-0.023,0.327-0.027,0.487c-0.004,0.116-0.004,0.232-0.008,0.345
		c0,0.1-0.004,0.196,0,0.296c0,0.115,0.004,0.229,0.008,0.345c0.002,0.097,0.004,0.194,0.012,0.291
		c0.006,0.115,0.01,0.229,0.021,0.345c0.008,0.097,0.018,0.194,0.025,0.292c0.012,0.114,0.021,0.226,0.035,0.341
		c0.014,0.114,0.031,0.232,0.047,0.347c0.025,0.182,0.057,0.363,0.09,0.542c0.018,0.104,0.033,0.205,0.057,0.303
		c0.021,0.11,0.045,0.217,0.068,0.327c0.023,0.099,0.049,0.196,0.072,0.296c0.021,0.107,0.051,0.215,0.078,0.32
		c0.025,0.101,0.055,0.204,0.086,0.305c0.029,0.1,0.055,0.199,0.09,0.302c0.037,0.122,0.078,0.245,0.121,0.367
		c0.045,0.138,0.094,0.273,0.145,0.409c0.045,0.125,0.09,0.245,0.137,0.365c0.035,0.087,0.074,0.176,0.111,0.268
		c0.045,0.103,0.09,0.21,0.135,0.312c0.041,0.09,0.082,0.177,0.123,0.266c0.049,0.103,0.098,0.209,0.152,0.312
		c0.037,0.082,0.08,0.163,0.123,0.242c0.063,0.125,0.133,0.248,0.201,0.368c0.029,0.061,0.059,0.114,0.09,0.168
		c0.102,0.171,0.203,0.34,0.309,0.505c0.039,0.066,0.08,0.125,0.123,0.191c0.07,0.105,0.143,0.215,0.215,0.319
		c0.047,0.066,0.094,0.133,0.141,0.199c0.074,0.103,0.148,0.199,0.229,0.299c0.043,0.063,0.092,0.122,0.139,0.184
		c0.09,0.109,0.18,0.22,0.271,0.327c0.037,0.043,0.072,0.086,0.111,0.127c0.127,0.145,0.258,0.289,0.395,0.426
		c0.035,0.038,0.07,0.074,0.104,0.109c0.105,0.104,0.209,0.204,0.311,0.301c0.051,0.044,0.102,0.09,0.152,0.133
		c0.096,0.09,0.191,0.174,0.289,0.256c0.051,0.045,0.104,0.088,0.156,0.126c0.105,0.087,0.217,0.171,0.324,0.251
		c0.043,0.03,0.086,0.063,0.129,0.094c0.154,0.111,0.309,0.215,0.465,0.314c0.025,0.015,0.053,0.03,0.074,0.046
		c0.137,0.081,0.271,0.16,0.408,0.234c0.053,0.03,0.105,0.056,0.16,0.082c0.111,0.061,0.225,0.117,0.338,0.167
		c0.061,0.028,0.117,0.057,0.176,0.079c0.117,0.051,0.234,0.1,0.354,0.146c0.053,0.023,0.107,0.044,0.162,0.062
		c0.17,0.062,0.342,0.117,0.516,0.168c4.346,1.218,8.084-1.391,10.334-5.124c0.15,0.396,0.256,0.722,0.295,0.937
		c0.113,0.604,0.027,7.81-0.117,16.36l-22.451,23.516h-1.4v1.465l-13.041,13.657l-3.361,0.105
		c-0.059-6.506-0.117-12.935-0.117-14.196c1.316,1.028,2.902,1.659,4.748,1.73c5.117,0.196,8.793-7.047,7.426-13.244
		c-1.146-5.188-4.93-7.605-8.361-7.621c-1.381-4.512-5.961-6.965-9.676-5.147c-4.311,2.103-5.48,8.226-4.385,12.531v0.003
		c-1.293,0.722-2.443,1.99-3.295,3.879c-0.377,0.835-0.584,1.723-0.648,2.619c-0.008,0.097-0.014,0.199-0.018,0.301
		c-0.004,0.071-0.004,0.141-0.004,0.212c-0.004,0.062-0.004,0.124-0.004,0.184c0,0.069,0.004,0.144,0.008,0.212
		c0,0.061,0.004,0.123,0.006,0.181c0.004,0.069,0.008,0.14,0.016,0.212c0.004,0.061,0.008,0.119,0.016,0.181
		c0.006,0.071,0.012,0.141,0.021,0.21c0.01,0.073,0.018,0.145,0.029,0.217c0.014,0.112,0.031,0.222,0.053,0.331
		c0.014,0.064,0.023,0.125,0.035,0.191c0.014,0.066,0.029,0.133,0.045,0.199c0.014,0.064,0.025,0.123,0.043,0.184
		c0.016,0.066,0.031,0.131,0.049,0.199c0.016,0.062,0.035,0.123,0.053,0.187c0.02,0.061,0.037,0.123,0.055,0.186
		c0.023,0.074,0.049,0.153,0.076,0.225c0.027,0.089,0.057,0.171,0.088,0.258c0.029,0.071,0.059,0.148,0.084,0.222
		c0.023,0.057,0.049,0.11,0.07,0.166c0.025,0.063,0.057,0.128,0.084,0.194c0.023,0.054,0.049,0.106,0.074,0.16
		c0.031,0.066,0.063,0.131,0.096,0.194c0.023,0.051,0.049,0.102,0.076,0.15c0.039,0.079,0.08,0.15,0.121,0.228
		c0.021,0.035,0.041,0.071,0.061,0.106c0.061,0.105,0.121,0.207,0.188,0.312c0.025,0.039,0.049,0.075,0.076,0.115
		c0.043,0.066,0.088,0.135,0.135,0.196c0.029,0.044,0.059,0.084,0.086,0.123c0.045,0.063,0.094,0.125,0.139,0.189
		c0.031,0.036,0.059,0.074,0.088,0.109c0.055,0.069,0.111,0.139,0.168,0.202c0.023,0.028,0.045,0.056,0.068,0.083
		c0.08,0.088,0.158,0.177,0.244,0.262c0.02,0.022,0.043,0.046,0.064,0.066c0.063,0.063,0.127,0.127,0.191,0.186
		c0.031,0.028,0.064,0.057,0.094,0.085c0.061,0.054,0.119,0.104,0.18,0.155c0.031,0.025,0.063,0.054,0.096,0.079
		c0.064,0.057,0.135,0.107,0.201,0.156c0.025,0.02,0.053,0.04,0.08,0.059c0.094,0.066,0.189,0.133,0.287,0.193
		c0.014,0.008,0.031,0.019,0.045,0.028c0.084,0.051,0.168,0.1,0.25,0.146c0.035,0.018,0.068,0.033,0.1,0.05
		c0.07,0.036,0.141,0.069,0.211,0.104c0.035,0.019,0.072,0.031,0.109,0.049c0.072,0.03,0.146,0.059,0.217,0.087
		c0.033,0.016,0.066,0.025,0.1,0.038c0.105,0.039,0.213,0.074,0.32,0.103c2.686,0.755,4.996-0.855,6.387-3.165
		c0.092,0.245,0.156,0.446,0.18,0.579c0.086,0.454-0.01,6.963-0.135,13.655l-24.842,0.766v-68.53v-1.292v-10.734h-6.438v-41.88
		h-3.373v41.88h-6.436v10.734h-16.248v43.228h-10.656v-14.734h-21.285v-4.359h0.234v-2.965h0.777v-3.916h-1.012v-2.263
		c0.689-0.57,1.145-1.552,1.145-2.672c0-1.759-1.121-3.188-2.506-3.188c-1.387,0-2.508,1.429-2.508,3.188
		c0,1.12,0.457,2.103,1.145,2.672v1.434c-2.857-0.689-5.871-3.229-8.219-7.123h0.02c-0.518-0.863-1.018-1.767-1.463-2.753
		c-0.268-0.587-0.502-1.177-0.723-1.774c0.373-0.827,0.592-1.746,0.592-2.723c0-2.624-3.348-5.816-5.082-9.372
		c-0.217-0.441-0.6-0.712-1.008-0.712h-0.021c-0.418,0-0.807,0.276-1.027,0.725c-1.736,3.551-5.078,6.738-5.078,9.359
		c0,0.886,0.182,1.72,0.492,2.491c-0.277,0.793-0.578,1.587-0.932,2.369c-0.385,0.85-0.807,1.635-1.246,2.391h0.012
		c-2.289,3.941-5.252,6.559-8.098,7.386v-1.697c0.688-0.57,1.145-1.552,1.145-2.672c0-1.759-1.125-3.188-2.51-3.188
		s-2.506,1.429-2.506,3.188c0,1.12,0.459,2.103,1.141,2.672v2.263h-1.141v3.916h1.111v2.965h0.029v38.792h-2.652v-13.675h-12.949
		v-54.416l-21.887-13.925h-41.035v11.255H607.176v-55.764h-4.165h-2.603h-3.018h-2.185v-23.179h-31.75v33.112h-1.712h-2.028h-2.352
		h-2.027h-2.809v1.218h-1.139v-52.305h-8.459v-60.296h-2.742v60.296h-5.478v-51.581h-2.743v51.581h-6.279v52.305h-8.908v38.324
		H497.38v-7.008h-1.564v-57.338h-24.203h-61.485v168.679h-8.967l-3.375,2.149v-66.055l-13.567-25.309
		c0.692-0.206,1.208-0.992,1.208-1.934c0-1.101-0.702-1.994-1.567-1.994h-0.347v-17.278h-2.089v17.278h-0.176
		c-0.862,0-1.566,0.894-1.566,1.994c0,0.967,0.545,1.775,1.266,1.952l-11.709,25.29v52.543h-16.433
		c-4.643-14.03-15.127-39.48-35.038-60.539l-4.473-11.124h1.909l-4.365-12.687h2.456l-3.548-10.033h2.183l-4.911-9.69h3.002
		l-4.91-12.455h1.908l-3.819-10.957h2.729l-4.367-9.456h3.002l-5.183-9.339h2.455l-5.73-15.915l-5.73,15.915h2.458l-5.184,9.339h3
		l-4.365,9.456h2.728l-3.82,10.957h1.909l-4.909,12.455h3l-4.91,9.69h2.18l-2.588,7.319c-2.808-1.162-5.719-2.212-8.722-3.154
		l-2.095-4.127h1.761l-2.879-7.313h1.119l-2.241-6.426h1.602l-2.563-5.551h1.76l-3.04-5.48h1.44l-3.361-9.341l-3.363,9.341h1.441
		l-3.042,5.48h1.761l-2.561,5.551h1.599l-2.241,6.426h1.122l-2.881,7.313h1.759l-0.295,0.582
		c-16.356-2.593-35.21-1.846-56.912,3.744c0,0-14.789-113.092-128.732-147.113l-1.375-3.483h1.908l-3.817-10.955h2.728l-4.366-9.456
		h3.001l-5.184-9.344h2.456l-5.729-15.916L54.2-949.444h2.454l-5.182,9.344h3l-4.367,9.456h2.73l-3.266,9.369
		c-14.994-2.895-31.47-4.503-49.569-4.503V310.787h2.533V207.255l97.713-14.896l106.291-69.575l1.909,2.451
		c1.31-1.716,3.253-2.808,5.429-2.808h4.08c3.944,0,7.142-3.576,7.142-7.992v-9.131c0-4.414,3.197-7.991,7.14-7.991
		c3.943,0,7.138-3.575,7.138-7.989v-2.283c0-4.414,3.199-7.991,7.143-7.991h39.78c4.507,0,8.16,4.089,8.16,9.132
		s3.653,9.132,8.16,9.132h2.04c4.507,0,8.158,4.089,8.158,9.132v6.851c0,5.042,3.656,9.132,8.163,9.132h3.06
		c4.508,0,8.161,4.089,8.161,9.131V175c0,17.651,12.787,31.962,28.561,31.962V176.65c0-8.51,6.165-15.412,13.77-15.412
		c7.606,0,13.77,6.902,13.77,15.412v17.49c0,14.39,10.426,26.056,23.285,26.056c5.167,0,9.356,4.688,9.356,10.472v37.112
		l5.387,2.921l-0.244-2.677l1.338,1.534v-0.709l0.635,0.561l-0.268-3.465l0.971,1.254l0.502-2.289l0.501,2.289l0.97-1.254
		l-0.267,3.465l0.636-0.561v0.709l1.339-1.534l-0.3,3.296l-0.67,1.911l1.974-1.011l-0.3,1.272l0.836-0.487v1.611l-0.102,0.182
		l4.758,2.58l3.112-0.895l-0.073-0.26l0.348,0.18l2.399-0.689l-0.559-0.855l-0.216-1.327l2.377,1.724l0.615-0.178l-2.168-2.59
		l-0.824-3.491l2.152,1.563l-0.862-2.647l2.119,1.685l-0.215-1.483l1.147,1.243l-1.865-3.292v-1.726l0.896,0.52l-0.321-1.365
		l2.115,1.084l-0.717-2.048l-0.322-3.532l1.435,1.645v-0.762l0.681,0.603l-0.287-3.714l1.039,1.345l0.54-2.456l0.537,2.456
		l1.041-1.345l-0.285,3.714l0.679-0.603v0.762l1.437-1.645l-0.322,3.532l-0.718,2.048l2.117-1.084l-0.324,1.365l0.898-0.52v1.726
		l-1.865,3.292l1.147-1.243l-0.216,1.483l2.119-1.685l-0.862,2.647l1.742-1.265l2.476-32.968l-1.098-0.193l0.267-1.902l0.978,0.172
		l1.993-26.538l-1.344-0.261l0.281-1.809l1.202,0.229l1.658-22.059h-0.552v-16.377h-1.25v-3.361h3.628v-6.121h-5.63v-3.438h5.63
		v-4.788h-5.013l11.53-5.595v-20.029h1.229v2.549h5.232v1.848h3.306v6.046h-5.846v-1.845h-2.693v10.838l6.756-3.277l18.651,9.466
		h-5.014v4.788h6.267v3.438h-6.267v6.121h4.264v3.361h-1.25v16.377h-1.188l1.683,22.391l3.25-0.566l0.253,1.82l-3.365,0.587
		l1.991,26.515l3.026-0.481l0.244,1.905l-3.125,0.496l1.692,22.484l60.367-17.358c0,0,106.082-86.629,109.143-87.772
		c3.06-1.141,89.14-34.246,89.14-34.246l23.131,11.99c3.643-2.289,7.848-3.601,12.326-3.601V68.133
		c0-9.747,7.059-17.649,15.768-17.649s15.77,7.902,15.77,17.649v44.509c0,4.388,3.18,7.942,7.1,7.942
		c3.918,0,7.094-3.555,7.094-7.942V32.395c0-2.193,1.59-3.97,3.549-3.97s3.549-1.778,3.549-3.971V-9.959
		c0-2.192,1.586-3.973,3.549-3.973c6.313,0,11.432-5.727,11.432-12.793v-14.117c0-2.194,1.588-3.971,3.547-3.971h15.375
		c15.242,0,27.598,13.828,27.598,30.881c6.533,0,11.826,5.928,11.826,13.238v100.885c0,8.285,6.002,15.002,13.406,15.002V104.31
		c0-9.432,6.83-17.075,15.256-17.075c5.508,0,9.973-4.995,9.973-11.161c0-14.133,10.24-25.59,22.867-25.59h8.674
		c16.547,0,29.961,15.014,29.961,33.532v85.418l0.666-0.587v2.07l3.893-4.468l-0.875,9.584l-1.947,5.554l5.742-2.939l-0.875,3.703
		l2.432-1.416v4.682l-5.061,8.932l3.115-3.377l-0.584,4.029l5.742-4.572l-2.336,7.189l5.838-4.25l-2.238,9.477l-4.566,5.457
		l1.912,0.916l4.893-3.543l-0.582,3.594l-1,1.537l5.773,2.766l1.162-0.6l-0.289,1.018l183.191,87.813v-1318.296L1152.881-889.718z
		 M960.334-732.423c-0.057-6.289-0.102-11.307-0.104-12.657c2.133,1.665,4.701,2.688,7.689,2.8c0.674,0.025,1.334-0.035,1.979-0.163
		L960.334-732.423z M981.844-754.957c-0.018-2.289-0.027-3.945-0.029-4.64c0.873,0.684,1.824,1.25,2.842,1.697L981.844-754.957z"/>
	<polygon fill="#030104" points="482.469,210.961 482.469,237.55 497.278,235.198 495.288,208.726 	"/>
	<polygon fill="#030104" points="482.935,183.966 482.935,189.992 482.469,189.992 482.469,209.098 495.15,206.888 493.428,183.966 
			"/>
</g>
<g opacity="0.15">
	<polygon fill="#030104" points="467.779,2977.455 466.078,3000.103 479.374,3002.669 479.374,2983.48 473.653,2983.48 
		473.653,2977.455 	"/>
	<polygon fill="#030104" points="463.949,3028.427 479.374,3031.15 479.374,3004.539 465.94,3001.939 	"/>
	<polygon fill="#030104" points="461.788,3057.173 462.18,3057.623 462.18,3056.859 462.861,3057.46 462.575,3053.748 
		463.615,3055.093 464.154,3052.638 464.692,3055.093 465.732,3053.748 465.444,3057.46 466.127,3056.859 466.127,3057.623 
		467.561,3055.976 467.238,3059.507 466.521,3061.554 468.638,3060.472 468.316,3061.837 469.212,3061.314 469.212,3062.07 
		471.499,3061.412 471.144,3060.886 471.612,3060.886 471.144,3059.24 471.612,3059.48 473.27,3060.902 474.453,3060.562 
		474.588,3059.802 473.333,3057.873 473.119,3056.546 475.558,3058.314 476.599,3058.675 473.941,3055.503 473.119,3052.009 
		475.27,3053.576 474.409,3050.927 476.526,3052.611 476.312,3051.128 477.458,3052.373 475.592,3049.08 475.592,3047.355 
		476.491,3047.875 476.167,3046.509 478.283,3047.593 477.565,3045.544 477.243,3042.013 478.678,3043.658 478.678,3042.896 
		479.36,3043.498 479.072,3039.785 479.374,3040.171 479.374,3033.097 463.802,3030.351 	"/>
	<polygon fill="#030104" points="458.034,3065.283 458.038,3065.281 458.034,3065.273 	"/>
	<polygon fill="#030104" points="461.47,3061.394 461.786,3061.554 461.516,3060.787 	"/>
	<polygon fill="#030104" points="458.092,3065.037 458.113,3065.048 458.124,3064.904 	"/>
	<rect x="482.125" y="2951.595" fill="#030104" width="6.378" height="4.945"/>
	<polygon fill="#030104" points="499.115,3053.47 497.398,3030.603 482.445,3032.982 482.445,3043.054 482.625,3042.896 
		482.625,3043.658 484.06,3042.013 483.739,3045.544 483.02,3047.593 485.136,3046.509 484.812,3047.875 485.711,3047.355 
		485.711,3049.08 483.845,3052.373 484.993,3051.128 484.779,3052.611 486.895,3050.927 486.034,3053.576 488.187,3052.009 
		487.362,3055.503 485.878,3057.277 488.036,3056.658 488.187,3056.546 488.174,3056.617 	"/>
	<path fill="#030104" d="M1152.823,1903.77c-3.557-2.238-7.503-3.334-11.292-3.35c-3.748-12.25-16.185-18.914-26.273-13.984
		c-11.699,5.711-14.87,22.338-11.896,34.027c0,0,0,0.006,0.002,0.006c-3.511,1.963-6.636,5.402-8.949,10.531
		c-1.019,2.264-1.582,4.672-1.759,7.107c-0.021,0.273-0.038,0.549-0.048,0.822c-0.008,0.193-0.008,0.385-0.01,0.576
		c-0.004,0.164-0.005,0.33-0.004,0.492c0,0.193,0.006,0.385,0.014,0.58c0.002,0.162,0.01,0.326,0.021,0.49
		c0.007,0.191,0.02,0.385,0.033,0.576c0.014,0.166,0.028,0.33,0.046,0.496c0.019,0.186,0.036,0.377,0.058,0.566
		c0.023,0.195,0.052,0.391,0.08,0.584c0.045,0.303,0.091,0.607,0.148,0.908c0.031,0.172,0.059,0.34,0.092,0.514
		c0.039,0.178,0.081,0.359,0.119,0.543c0.038,0.168,0.076,0.334,0.117,0.5c0.043,0.176,0.089,0.355,0.135,0.531
		c0.047,0.172,0.096,0.342,0.143,0.51c0.051,0.172,0.099,0.338,0.148,0.506c0.066,0.207,0.134,0.41,0.203,0.617
		c0.077,0.23,0.159,0.461,0.245,0.689c0.077,0.205,0.15,0.408,0.232,0.607c0.058,0.154,0.122,0.301,0.187,0.449
		c0.075,0.176,0.148,0.352,0.225,0.525c0.07,0.148,0.135,0.297,0.206,0.441c0.082,0.18,0.169,0.354,0.253,0.527
		c0.07,0.137,0.137,0.271,0.208,0.408c0.108,0.209,0.222,0.412,0.335,0.617c0.055,0.098,0.104,0.193,0.159,0.285
		c0.165,0.287,0.336,0.566,0.511,0.842c0.068,0.111,0.14,0.215,0.209,0.314c0.118,0.188,0.238,0.365,0.362,0.541
		c0.076,0.113,0.157,0.223,0.237,0.332c0.124,0.172,0.248,0.342,0.377,0.506c0.076,0.102,0.156,0.203,0.235,0.307
		c0.149,0.186,0.302,0.369,0.459,0.549c0.062,0.072,0.119,0.145,0.18,0.213c0.217,0.246,0.437,0.486,0.663,0.721
		c0.057,0.059,0.12,0.117,0.182,0.178c0.168,0.174,0.341,0.342,0.517,0.506c0.084,0.076,0.169,0.152,0.253,0.23
		c0.162,0.143,0.324,0.283,0.485,0.42c0.09,0.072,0.176,0.146,0.264,0.217c0.18,0.145,0.362,0.283,0.544,0.42
		c0.073,0.051,0.145,0.107,0.217,0.16c0.258,0.182,0.519,0.359,0.78,0.525c0.045,0.025,0.087,0.049,0.125,0.074
		c0.227,0.139,0.454,0.273,0.683,0.396c0.089,0.047,0.18,0.094,0.27,0.139c0.186,0.098,0.376,0.191,0.567,0.281
		c0.101,0.047,0.197,0.09,0.294,0.133c0.195,0.084,0.395,0.168,0.594,0.242c0.088,0.037,0.178,0.07,0.268,0.1
		c0.285,0.105,0.577,0.199,0.87,0.283c7.293,2.047,13.562-2.33,17.336-8.596c0.15,0.4,0.272,0.756,0.361,1.055l-25.804,44.334
		l-44.084-34.945l-52.129,54.601c-0.076-0.766-0.193-1.533-0.359-2.289c-1.854-8.394-7.974-12.304-13.528-12.327
		c-2.234-7.303-9.648-11.273-15.661-8.336c-6.887,3.361-8.808,13.057-7.15,20.007c-3.055-5.423-9.257-8.019-14.431-5.493
		c-6.974,3.405-8.866,13.315-7.092,20.284v0.004c-2.093,1.17-3.958,3.221-5.335,6.273c-0.607,1.352-0.942,2.787-1.049,4.24
		c-0.012,0.16-0.022,0.326-0.028,0.486c-0.003,0.115-0.003,0.232-0.006,0.346c-0.001,0.1-0.004,0.195-0.001,0.295
		c0,0.115,0.004,0.23,0.007,0.346c0.002,0.096,0.006,0.193,0.013,0.291c0.005,0.115,0.011,0.229,0.021,0.344
		c0.009,0.098,0.017,0.193,0.026,0.291c0.013,0.115,0.021,0.227,0.035,0.342s0.031,0.232,0.047,0.348
		c0.027,0.182,0.056,0.361,0.09,0.541c0.017,0.105,0.034,0.205,0.057,0.303c0.021,0.111,0.046,0.219,0.068,0.328
		c0.022,0.1,0.049,0.195,0.071,0.295c0.023,0.107,0.054,0.215,0.08,0.32c0.024,0.102,0.054,0.203,0.086,0.305
		c0.028,0.1,0.055,0.199,0.089,0.303c0.037,0.121,0.079,0.244,0.12,0.367c0.046,0.137,0.095,0.273,0.146,0.408
		c0.045,0.125,0.091,0.244,0.137,0.365c0.036,0.086,0.074,0.176,0.111,0.268c0.045,0.102,0.091,0.209,0.134,0.311
		c0.042,0.09,0.081,0.178,0.124,0.266c0.049,0.104,0.099,0.209,0.152,0.313c0.039,0.082,0.08,0.162,0.123,0.242
		c0.064,0.125,0.133,0.248,0.201,0.367c0.029,0.061,0.06,0.115,0.091,0.168c0.101,0.172,0.202,0.34,0.307,0.506
		c0.04,0.066,0.081,0.125,0.124,0.191c0.07,0.105,0.144,0.215,0.215,0.318c0.047,0.066,0.094,0.133,0.142,0.199
		c0.074,0.104,0.147,0.199,0.227,0.299c0.044,0.064,0.093,0.123,0.14,0.184c0.089,0.109,0.181,0.221,0.273,0.328
		c0.036,0.043,0.07,0.086,0.108,0.127c0.129,0.145,0.259,0.289,0.395,0.426c0.036,0.039,0.072,0.074,0.105,0.109
		c0.104,0.105,0.207,0.205,0.311,0.301c0.051,0.045,0.101,0.09,0.151,0.133c0.096,0.09,0.192,0.174,0.29,0.256
		c0.051,0.047,0.103,0.09,0.156,0.127c0.105,0.088,0.214,0.172,0.323,0.252c0.045,0.029,0.086,0.063,0.129,0.094
		c0.154,0.109,0.311,0.215,0.466,0.314c0.025,0.014,0.052,0.029,0.075,0.045c0.135,0.082,0.27,0.16,0.405,0.234
		c0.054,0.031,0.107,0.057,0.16,0.082c0.112,0.063,0.226,0.117,0.339,0.168c0.06,0.029,0.117,0.057,0.177,0.08
		c0.116,0.051,0.233,0.1,0.353,0.145c0.052,0.023,0.107,0.045,0.162,0.063c0.169,0.061,0.342,0.117,0.517,0.168
		c4.345,1.217,8.083-1.391,10.333-5.125c0.15,0.396,0.255,0.723,0.295,0.938c0.113,0.604,0.027,7.809-0.118,16.359l-22.45,23.516
		h-1.399v1.465l-13.039,13.658l-3.362,0.104c-0.06-6.506-0.119-12.934-0.119-14.195c1.318,1.029,2.904,1.658,4.749,1.73
		c5.116,0.197,8.792-7.047,7.426-13.244c-1.146-5.188-4.931-7.605-8.361-7.621c-1.38-4.512-5.961-6.965-9.675-5.146
		c-4.311,2.104-5.48,8.225-4.384,12.531v0.002c-1.294,0.723-2.445,1.99-3.295,3.879c-0.376,0.836-0.584,1.723-0.649,2.619
		c-0.007,0.098-0.014,0.199-0.018,0.301c-0.003,0.072-0.003,0.141-0.004,0.213c-0.002,0.061-0.002,0.123-0.002,0.184
		c0,0.068,0.003,0.143,0.006,0.211c0,0.063,0.004,0.123,0.005,0.182c0.006,0.068,0.009,0.141,0.016,0.213
		c0.004,0.061,0.009,0.119,0.017,0.18c0.007,0.072,0.013,0.141,0.021,0.211c0.011,0.072,0.02,0.145,0.029,0.217
		c0.015,0.111,0.032,0.221,0.056,0.33c0.011,0.064,0.021,0.125,0.033,0.191c0.015,0.066,0.03,0.133,0.044,0.199
		c0.015,0.064,0.027,0.123,0.044,0.184c0.016,0.066,0.031,0.131,0.049,0.199c0.016,0.063,0.035,0.123,0.053,0.188
		c0.019,0.061,0.036,0.123,0.056,0.186c0.022,0.074,0.05,0.154,0.075,0.225c0.027,0.09,0.057,0.172,0.089,0.258
		c0.027,0.072,0.058,0.148,0.083,0.223c0.023,0.057,0.049,0.109,0.07,0.166c0.026,0.063,0.055,0.127,0.084,0.193
		c0.024,0.055,0.05,0.107,0.075,0.16c0.031,0.066,0.061,0.131,0.096,0.195c0.022,0.051,0.047,0.102,0.075,0.15
		c0.04,0.078,0.08,0.15,0.123,0.227c0.02,0.035,0.039,0.072,0.059,0.107c0.061,0.105,0.123,0.207,0.188,0.311
		c0.024,0.039,0.05,0.074,0.075,0.115c0.043,0.066,0.089,0.135,0.133,0.197c0.03,0.043,0.061,0.084,0.088,0.123
		c0.046,0.063,0.092,0.125,0.139,0.188c0.031,0.037,0.059,0.074,0.089,0.109c0.054,0.07,0.109,0.139,0.167,0.203
		c0.022,0.027,0.045,0.055,0.068,0.082c0.08,0.088,0.159,0.178,0.244,0.262c0.021,0.023,0.043,0.047,0.064,0.066
		c0.063,0.064,0.126,0.127,0.192,0.186c0.029,0.029,0.063,0.057,0.093,0.086c0.061,0.053,0.118,0.104,0.18,0.154
		c0.031,0.025,0.064,0.055,0.096,0.08c0.065,0.057,0.133,0.107,0.2,0.156c0.026,0.02,0.055,0.039,0.081,0.059
		c0.094,0.066,0.189,0.133,0.288,0.193c0.014,0.008,0.029,0.018,0.043,0.027c0.085,0.051,0.169,0.1,0.252,0.146
		c0.034,0.018,0.067,0.033,0.1,0.051c0.069,0.035,0.139,0.068,0.211,0.104c0.035,0.02,0.072,0.031,0.107,0.049
		c0.073,0.031,0.146,0.059,0.218,0.088c0.032,0.016,0.067,0.025,0.101,0.037c0.104,0.039,0.212,0.074,0.319,0.104
		c2.686,0.754,4.996-0.855,6.385-3.166c0.093,0.246,0.157,0.447,0.182,0.58c0.086,0.453-0.01,6.963-0.137,13.654l-24.84,0.766
		v-68.529v-1.293v-10.734h-6.437v-41.88h-3.373v41.88h-6.435v10.734h-16.248v43.229h-10.655v-14.734H823.34v-4.359h0.234v-2.965
		h0.776v-3.916h-1.011v-2.264c0.689-0.57,1.145-1.553,1.145-2.672c0-1.76-1.121-3.188-2.506-3.188c-1.386,0-2.508,1.428-2.508,3.188
		c0,1.119,0.458,2.102,1.146,2.672v1.434c-2.858-0.689-5.871-3.229-8.22-7.123h0.021c-0.519-0.863-1.018-1.766-1.464-2.754
		c-0.268-0.586-0.502-1.176-0.722-1.773c0.372-0.826,0.592-1.746,0.592-2.723c0-2.625-3.349-5.816-5.083-9.373
		c-0.217-0.441-0.599-0.711-1.007-0.711h-0.021c-0.419,0-0.806,0.275-1.026,0.725c-1.737,3.551-5.079,6.738-5.079,9.359
		c0,0.885,0.181,1.719,0.492,2.49c-0.279,0.793-0.578,1.588-0.933,2.369c-0.384,0.85-0.806,1.635-1.246,2.391h0.012
		c-2.287,3.941-5.25,6.559-8.097,7.387v-1.697c0.688-0.57,1.145-1.553,1.145-2.672c0-1.76-1.124-3.188-2.509-3.188
		s-2.508,1.428-2.508,3.188c0,1.119,0.46,2.102,1.143,2.672v2.264h-1.143v3.916h1.113v2.965h0.029v38.791h-2.652v-13.674h-12.947
		V2030.4l-21.887-13.926h-41.034v11.256H607.146v-55.765h-4.165h-2.603h-3.018h-2.185v-23.18h-31.748v33.113h-1.712h-2.028h-2.352
		h-2.027H552.5v1.217h-1.139v-52.305h-8.458v-60.297h-2.742v60.297h-5.478v-51.58h-2.743v51.58h-6.278v52.305h-8.907v38.325h-19.4
		v-7.008h-1.564v-57.339h-24.202h-61.482v168.679h-8.967l-3.375,2.15v-66.055l-13.567-25.309c0.692-0.207,1.208-0.992,1.208-1.934
		c0-1.102-0.702-1.994-1.567-1.994h-0.347v-17.279h-2.089v17.279h-0.176c-0.862,0-1.566,0.893-1.566,1.994
		c0,0.967,0.545,1.775,1.266,1.951l-11.708,25.291v52.543h-16.433c-4.643-14.031-15.126-39.48-35.036-60.539l-4.473-11.123h1.909
		l-4.364-12.688h2.455l-3.548-10.033h2.183l-4.911-9.689h3.001l-4.91-12.456h1.908l-3.819-10.957h2.729l-4.367-9.455h3.002
		l-5.183-9.34h2.455l-5.73-15.914l-5.729,15.914h2.457l-5.183,9.34h3l-4.365,9.455h2.728l-3.819,10.957h1.908l-4.909,12.456h3.001
		l-4.91,9.689h2.18l-2.588,7.32c-2.808-1.162-5.719-2.213-8.722-3.154l-2.095-4.127h1.761l-2.88-7.313h1.119l-2.241-6.427h1.603
		l-2.563-5.551h1.76l-3.04-5.48h1.44l-3.361-9.34l-3.363,9.34h1.441l-3.042,5.48h1.761l-2.561,5.551h1.599l-2.241,6.427h1.122
		l-2.881,7.313h1.759l-0.295,0.582c-16.355-2.594-35.208-1.846-56.909,3.744c0,0-14.788-113.093-128.726-147.114l-1.374-3.482h1.908
		l-3.816-10.955h2.728l-4.366-9.455h3.001l-5.183-9.344h2.456l-5.729-15.916l-5.73,15.916h2.454l-5.181,9.344h3l-4.367,9.455h2.729
		l-3.265,9.369c-14.994-2.895-31.469-4.502-49.567-4.502v1236.565h2.533v-103.531l97.708-14.898l106.286-69.574l1.909,2.451
		c1.31-1.715,3.253-2.809,5.428-2.809h4.08c3.944,0,7.141-3.574,7.141-7.99v-9.133c0-4.412,3.197-7.99,7.139-7.99
		c3.943,0,7.138-3.576,7.138-7.988v-2.285c0-4.412,3.199-7.99,7.143-7.99h39.778c4.507,0,8.16,4.088,8.16,9.131
		c0,5.045,3.653,9.133,8.159,9.133h2.041c4.506,0,8.158,4.088,8.158,9.131v6.852c0,5.043,3.656,9.131,8.162,9.131h3.059
		c4.508,0,8.161,4.09,8.161,9.133v43.441c0,17.65,12.786,31.961,28.56,31.961v-30.313c0-8.51,6.165-15.41,13.769-15.41
		c7.605,0,13.77,6.9,13.77,15.41v17.49c0,14.391,10.425,26.057,23.284,26.057c5.167,0,9.356,4.688,9.356,10.471v37.113l5.387,2.922
		l-0.244-2.678l1.338,1.533v-0.709l0.635,0.563l-0.268-3.467l0.971,1.256l0.503-2.289l0.501,2.289l0.969-1.256l-0.267,3.467
		l0.636-0.563v0.709l1.338-1.533l-0.3,3.295l-0.67,1.912l1.974-1.012l-0.3,1.273l0.836-0.486v1.609l-0.103,0.182l4.757,2.58
		l3.112-0.893l-0.073-0.26l0.348,0.178l2.399-0.689l-0.559-0.854l-0.216-1.328l2.377,1.723l0.615-0.176l-2.168-2.59l-0.824-3.492
		l2.151,1.564l-0.861-2.648l2.119,1.684l-0.215-1.482l1.146,1.242l-1.865-3.291v-1.727l0.896,0.521l-0.321-1.365l2.115,1.084
		l-0.717-2.049l-0.322-3.533l1.435,1.646v-0.764l0.682,0.604l-0.287-3.715l1.039,1.346l0.541-2.455l0.537,2.455l1.04-1.346
		l-0.285,3.715l0.679-0.604v0.764l1.437-1.646l-0.322,3.533l-0.718,2.049l2.117-1.084l-0.324,1.365l0.898-0.521v1.727l-1.865,3.291
		l1.147-1.242l-0.216,1.482l2.119-1.684l-0.862,2.648l1.742-1.266l2.477-32.967l-1.098-0.195l0.267-1.9l0.977,0.17l1.993-26.537
		l-1.344-0.26l0.281-1.811l1.202,0.23l1.658-22.059h-0.552v-16.379h-1.25v-3.361h3.628v-6.119h-5.63v-3.439h5.63v-4.787h-5.013
		l11.529-5.594v-20.031h1.229v2.551h5.232v1.848h3.307v6.045h-5.846v-1.844h-2.693v10.836l6.756-3.277l18.65,9.467h-5.014v4.787
		h6.267v3.439h-6.267v6.119h4.264v3.361h-1.25v16.379h-1.188l1.683,22.391l3.25-0.568l0.253,1.82l-3.365,0.588l1.991,26.514
		l3.026-0.48l0.244,1.906l-3.125,0.494l1.692,22.486l60.364-17.359c0,0,106.076-86.629,109.137-87.773
		c3.06-1.141,89.137-34.246,89.137-34.246l23.128,11.99c3.645-2.289,7.848-3.6,12.326-3.6v-59.996
		c0-9.746,7.059-17.648,15.767-17.648c8.709,0,15.77,7.902,15.77,17.648v44.508c0,4.389,3.179,7.943,7.098,7.943
		c3.918,0,7.095-3.555,7.095-7.943v-80.246c0-2.193,1.59-3.969,3.55-3.969c1.958,0,3.548-1.779,3.548-3.973v-34.414
		c0-2.191,1.586-3.971,3.548-3.971c6.313,0,11.433-5.727,11.433-12.795v-14.115c0-2.195,1.586-3.973,3.547-3.973h15.375
		c15.24,0,27.595,13.828,27.595,30.883c6.532,0,11.826,5.926,11.826,13.238v100.885c0,8.285,6.001,15.002,13.405,15.002v-10.883
		c0-9.434,6.829-17.076,15.255-17.076c5.508,0,9.972-4.996,9.972-11.162c0-14.131,10.239-25.588,22.866-25.588h8.673
		c16.548,0,29.961,15.012,29.961,33.531v85.418l0.665-0.588v2.07l3.893-4.467l-0.876,9.584l-1.946,5.555l5.742-2.941l-0.876,3.703
		l2.433-1.416v4.684l-5.061,8.93l3.116-3.377l-0.586,4.031l5.741-4.574l-2.335,7.189l5.838-4.25l-2.236,9.477l-4.568,5.457
		l1.913,0.916l4.892-3.541l-0.583,3.592l-0.999,1.537l5.774,2.768l1.16-0.6l-0.287,1.018l183.182,87.813V1777.193L1152.823,1903.77z
		 M960.286,2061.064c-0.058-6.289-0.1-11.307-0.103-12.656c2.132,1.664,4.7,2.688,7.688,2.799c0.676,0.025,1.336-0.035,1.979-0.162
		L960.286,2061.064z M981.796,2038.531c-0.018-2.289-0.028-3.945-0.03-4.641c0.873,0.684,1.824,1.25,2.842,1.697L981.796,2038.531z"
		/>
	<polygon fill="#030104" points="482.445,3004.449 482.445,3031.039 497.253,3028.685 495.264,3002.212 	"/>
	<polygon fill="#030104" points="482.91,2977.455 482.91,2983.48 482.445,2983.48 482.445,3002.585 495.126,3000.375 
		493.403,2977.455 	"/>
</g>
<g>
</g>
<g>
</g>
<g>
</g>
<g>
</g>
<g>
</g>
<g>
</g>
</svg>
