<?xml version="1.0" encoding="utf-8"?>
<!-- Generator: Adobe Illustrator 16.0.0, SVG Export Plug-In . SVG Version: 6.00 Build 0)  -->
<!DOCTYPE svg PUBLIC "-//W3C//DTD SVG 1.1//EN" "http://www.w3.org/Graphics/SVG/1.1/DTD/svg11.dtd">
<svg version="1.1" id="Capa_1" xmlns="http://www.w3.org/2000/svg" xmlns:xlink="http://www.w3.org/1999/xlink" x="0px" y="0px"
	 width="1226.504px" height="689.572px" viewBox="0 0 1226.504 689.572" enable-background="new 0 0 1226.504 689.572"
	 xml:space="preserve">
<g opacity="0.15">
	<polygon fill="#030104" points="467.779,1426.89 466.078,1449.54 479.374,1452.107 479.374,1432.916 473.653,1432.916 
		473.653,1426.89 	"/>
	<polygon fill="#030104" points="463.949,1477.863 479.374,1480.587 479.374,1453.974 465.94,1451.375 	"/>
	<polygon fill="#030104" points="461.788,1506.61 462.18,1507.058 462.18,1506.294 462.861,1506.898 462.575,1503.183 
		463.615,1504.529 464.154,1502.075 464.692,1504.529 465.732,1503.183 465.444,1506.898 466.127,1506.294 466.127,1507.058 
		467.561,1505.412 467.238,1508.945 466.521,1510.992 468.638,1509.91 468.316,1511.275 469.212,1510.75 469.212,1511.507 
		471.499,1510.849 471.144,1510.323 471.612,1510.323 471.144,1508.677 471.612,1508.916 473.27,1510.338 474.453,1509.998 
		474.588,1509.239 473.333,1507.309 473.119,1505.984 475.558,1507.75 476.599,1508.113 473.941,1504.94 473.119,1501.447 
		475.27,1503.013 474.409,1500.363 476.526,1502.048 476.312,1500.566 477.458,1501.809 475.592,1498.515 475.592,1496.791 
		476.491,1497.312 476.167,1495.947 478.283,1497.031 477.565,1494.982 477.243,1491.449 478.678,1493.095 478.678,1492.332 
		479.36,1492.935 479.072,1489.221 479.374,1489.609 479.374,1482.535 463.802,1479.789 	"/>
	<polygon fill="#030104" points="458.034,1514.72 458.038,1514.718 458.034,1514.71 	"/>
	<polygon fill="#030104" points="461.47,1510.83 461.786,1510.992 461.516,1510.223 	"/>
	<polygon fill="#030104" points="458.092,1514.473 458.113,1514.486 458.124,1514.34 	"/>
	<rect x="482.125" y="1401.031" fill="#030104" width="6.378" height="4.946"/>
	<polygon fill="#030104" points="499.115,1502.907 497.398,1480.041 482.445,1482.419 482.445,1492.491 482.625,1492.332 
		482.625,1493.095 484.06,1491.449 483.739,1494.982 483.02,1497.031 485.137,1495.947 484.812,1497.312 485.711,1496.791 
		485.711,1498.515 483.845,1501.809 484.993,1500.566 484.779,1502.048 486.895,1500.363 486.034,1503.013 488.187,1501.447 
		487.362,1504.94 485.878,1506.714 488.036,1506.093 488.187,1505.984 488.174,1506.053 	"/>
	<path fill="#030104" d="M1152.823,353.207c-3.557-2.238-7.503-3.334-11.292-3.349c-3.748-12.251-16.185-18.915-26.273-13.985
		c-11.698,5.711-14.87,22.338-11.896,34.027c0,0,0,0.006,0.002,0.006c-3.511,1.963-6.636,5.403-8.949,10.531
		c-1.019,2.264-1.582,4.673-1.759,7.107c-0.021,0.273-0.038,0.549-0.047,0.822c-0.009,0.193-0.009,0.385-0.011,0.576
		c-0.004,0.164-0.005,0.33-0.004,0.492c0,0.193,0.006,0.385,0.015,0.58c0.002,0.162,0.01,0.326,0.021,0.49
		c0.007,0.191,0.02,0.385,0.033,0.576c0.014,0.166,0.028,0.33,0.046,0.496c0.019,0.186,0.036,0.377,0.058,0.566
		c0.022,0.196,0.052,0.391,0.08,0.584c0.045,0.303,0.091,0.607,0.148,0.908c0.031,0.172,0.059,0.34,0.092,0.514
		c0.039,0.178,0.081,0.359,0.119,0.544c0.038,0.167,0.076,0.333,0.117,0.5c0.043,0.175,0.089,0.354,0.136,0.531
		c0.046,0.171,0.095,0.341,0.142,0.509c0.051,0.172,0.099,0.338,0.148,0.506c0.066,0.207,0.134,0.41,0.203,0.618
		c0.077,0.229,0.159,0.46,0.245,0.688c0.077,0.205,0.15,0.408,0.232,0.607c0.059,0.154,0.122,0.301,0.187,0.449
		c0.075,0.176,0.148,0.352,0.225,0.525c0.07,0.148,0.135,0.297,0.206,0.441c0.082,0.179,0.169,0.354,0.253,0.527
		c0.07,0.137,0.137,0.271,0.208,0.408c0.108,0.209,0.222,0.412,0.335,0.617c0.055,0.098,0.104,0.193,0.159,0.285
		c0.165,0.287,0.336,0.566,0.511,0.842c0.068,0.111,0.14,0.215,0.21,0.314c0.117,0.188,0.237,0.365,0.361,0.542
		c0.076,0.112,0.157,0.222,0.237,0.331c0.124,0.172,0.248,0.342,0.377,0.506c0.076,0.102,0.156,0.203,0.235,0.306
		c0.15,0.187,0.302,0.37,0.459,0.55c0.062,0.072,0.119,0.145,0.18,0.213c0.217,0.246,0.437,0.486,0.663,0.721
		c0.056,0.059,0.12,0.117,0.182,0.179c0.168,0.173,0.341,0.341,0.517,0.505c0.084,0.076,0.169,0.152,0.253,0.23
		c0.162,0.143,0.324,0.283,0.485,0.42c0.09,0.072,0.176,0.146,0.264,0.217c0.18,0.145,0.362,0.283,0.544,0.42
		c0.073,0.051,0.145,0.107,0.217,0.16c0.258,0.182,0.519,0.36,0.78,0.526c0.045,0.024,0.087,0.048,0.125,0.073
		c0.227,0.139,0.454,0.273,0.683,0.396c0.089,0.048,0.18,0.094,0.271,0.139c0.185,0.098,0.375,0.192,0.566,0.281
		c0.101,0.047,0.197,0.09,0.294,0.133c0.195,0.084,0.395,0.168,0.594,0.242c0.089,0.037,0.178,0.07,0.269,0.1
		c0.284,0.105,0.576,0.199,0.869,0.283c7.293,2.047,13.562-2.33,17.336-8.595c0.15,0.399,0.272,0.755,0.361,1.054l-25.804,44.334
		l-44.084-34.945l-52.129,54.602c-0.076-0.766-0.193-1.535-0.359-2.291c-1.854-8.393-7.974-12.303-13.528-12.326
		c-2.234-7.303-9.648-11.273-15.661-8.336c-6.887,3.361-8.808,13.057-7.149,20.008c-3.056-5.424-9.258-8.02-14.432-5.494
		c-6.974,3.406-8.866,13.316-7.092,20.283c0,0,0,0.002,0,0.006c-2.093,1.168-3.958,3.221-5.335,6.273
		c-0.607,1.35-0.942,2.787-1.049,4.238c-0.012,0.162-0.022,0.328-0.028,0.488c-0.003,0.115-0.003,0.232-0.006,0.344
		c-0.001,0.1-0.004,0.197-0.001,0.297c0,0.115,0.004,0.229,0.007,0.344c0.002,0.098,0.006,0.195,0.013,0.291
		c0.005,0.115,0.011,0.23,0.021,0.346c0.009,0.096,0.018,0.193,0.026,0.291c0.013,0.113,0.021,0.227,0.035,0.342
		c0.014,0.113,0.031,0.232,0.047,0.346c0.027,0.182,0.056,0.363,0.089,0.542c0.018,0.104,0.035,0.204,0.058,0.304
		c0.021,0.109,0.046,0.217,0.068,0.326c0.022,0.1,0.049,0.197,0.071,0.297c0.023,0.107,0.054,0.215,0.08,0.319
		c0.024,0.101,0.055,0.204,0.086,0.306c0.028,0.1,0.055,0.199,0.089,0.301c0.037,0.123,0.079,0.246,0.12,0.367
		c0.046,0.139,0.095,0.273,0.146,0.409c0.045,0.124,0.091,0.245,0.138,0.364c0.035,0.088,0.073,0.176,0.11,0.268
		c0.045,0.104,0.091,0.211,0.134,0.313c0.042,0.09,0.082,0.176,0.124,0.266c0.049,0.102,0.099,0.209,0.152,0.311
		c0.039,0.082,0.08,0.164,0.123,0.242c0.064,0.125,0.133,0.248,0.201,0.369c0.029,0.061,0.06,0.113,0.091,0.168
		c0.101,0.17,0.202,0.34,0.307,0.505c0.04,0.066,0.081,0.126,0.124,0.19c0.07,0.105,0.144,0.215,0.215,0.32
		c0.047,0.066,0.094,0.133,0.142,0.199c0.074,0.103,0.148,0.199,0.227,0.299c0.044,0.063,0.093,0.121,0.14,0.184
		c0.089,0.109,0.181,0.22,0.273,0.326c0.036,0.044,0.07,0.086,0.108,0.128c0.129,0.146,0.26,0.288,0.395,0.427
		c0.036,0.037,0.072,0.073,0.105,0.109c0.104,0.104,0.207,0.203,0.311,0.301c0.051,0.043,0.101,0.09,0.151,0.133
		c0.096,0.09,0.192,0.174,0.29,0.256c0.051,0.045,0.103,0.088,0.156,0.127c0.105,0.086,0.215,0.17,0.323,0.25
		c0.045,0.031,0.086,0.064,0.129,0.094c0.154,0.111,0.311,0.215,0.466,0.314c0.025,0.016,0.052,0.031,0.075,0.047
		c0.135,0.08,0.27,0.16,0.405,0.234c0.054,0.029,0.107,0.057,0.16,0.082c0.112,0.061,0.226,0.117,0.339,0.168
		c0.06,0.027,0.117,0.057,0.177,0.078c0.116,0.051,0.233,0.1,0.353,0.146c0.052,0.023,0.107,0.043,0.162,0.061
		c0.169,0.063,0.342,0.117,0.517,0.168c4.345,1.219,8.083-1.391,10.333-5.123c0.15,0.395,0.255,0.721,0.295,0.936
		c0.113,0.605,0.027,7.811-0.118,16.36l-22.45,23.517h-1.399v1.465l-13.039,13.656l-3.362,0.105
		c-0.06-6.506-0.119-12.936-0.119-14.195c1.318,1.027,2.904,1.658,4.749,1.73c5.117,0.195,8.792-7.047,7.426-13.244
		c-1.146-5.189-4.931-7.605-8.361-7.621c-1.38-4.512-5.961-6.965-9.675-5.147c-4.311,2.103-5.48,8.226-4.384,12.53v0.004
		c-1.294,0.721-2.445,1.99-3.295,3.879c-0.377,0.834-0.584,1.723-0.649,2.619c-0.007,0.096-0.014,0.199-0.018,0.301
		c-0.003,0.07-0.003,0.141-0.004,0.211c-0.002,0.063-0.002,0.124-0.002,0.184c0,0.07,0.003,0.145,0.006,0.213
		c0,0.061,0.004,0.123,0.005,0.182c0.006,0.068,0.009,0.139,0.016,0.211c0.004,0.061,0.009,0.119,0.017,0.182
		c0.007,0.07,0.013,0.141,0.021,0.209c0.011,0.074,0.02,0.145,0.029,0.217c0.015,0.113,0.032,0.223,0.056,0.332
		c0.011,0.064,0.021,0.125,0.033,0.191c0.015,0.066,0.03,0.133,0.044,0.199c0.015,0.064,0.027,0.123,0.044,0.184
		c0.016,0.066,0.031,0.131,0.049,0.199c0.016,0.061,0.035,0.123,0.053,0.187c0.019,0.062,0.036,0.122,0.056,0.187
		c0.022,0.074,0.05,0.152,0.075,0.225c0.027,0.089,0.057,0.17,0.089,0.258c0.027,0.07,0.058,0.147,0.083,0.221
		c0.023,0.057,0.049,0.11,0.07,0.166c0.026,0.064,0.056,0.129,0.084,0.195c0.024,0.053,0.05,0.105,0.075,0.16
		c0.031,0.066,0.061,0.131,0.096,0.193c0.022,0.051,0.047,0.102,0.075,0.15c0.04,0.08,0.08,0.15,0.123,0.229
		c0.02,0.035,0.039,0.07,0.059,0.105c0.061,0.105,0.123,0.207,0.188,0.313c0.024,0.039,0.05,0.074,0.075,0.115
		c0.043,0.066,0.089,0.135,0.134,0.195c0.029,0.045,0.06,0.084,0.087,0.123c0.046,0.064,0.093,0.125,0.139,0.189
		c0.031,0.035,0.059,0.074,0.089,0.109c0.054,0.068,0.109,0.139,0.167,0.201c0.022,0.029,0.046,0.057,0.068,0.083
		c0.08,0.089,0.159,0.177,0.244,0.263c0.021,0.021,0.043,0.045,0.065,0.066c0.063,0.063,0.125,0.127,0.191,0.186
		c0.029,0.027,0.063,0.057,0.093,0.084c0.061,0.055,0.118,0.105,0.18,0.156c0.031,0.025,0.063,0.053,0.096,0.078
		c0.065,0.057,0.134,0.107,0.2,0.156c0.026,0.02,0.055,0.041,0.081,0.06c0.094,0.066,0.189,0.133,0.288,0.192
		c0.014,0.008,0.029,0.02,0.043,0.029c0.085,0.051,0.169,0.1,0.252,0.146c0.034,0.018,0.067,0.032,0.1,0.05
		c0.069,0.037,0.139,0.07,0.211,0.105c0.035,0.018,0.072,0.031,0.107,0.049c0.073,0.029,0.146,0.059,0.218,0.086
		c0.032,0.016,0.067,0.025,0.101,0.039c0.104,0.038,0.212,0.074,0.319,0.102c2.686,0.756,4.996-0.855,6.385-3.164
		c0.093,0.244,0.157,0.445,0.182,0.578c0.086,0.455-0.01,6.963-0.136,13.655l-24.841,0.766v-68.53v-1.291v-10.734h-6.437v-41.881
		h-3.373v41.881h-6.435v10.734H855.28v43.227h-10.656v-14.734H823.34v-4.359h0.234v-2.965h0.776v-3.916h-1.011v-2.263
		c0.689-0.569,1.145-1.552,1.145-2.673c0-1.758-1.121-3.188-2.506-3.188c-1.386,0-2.508,1.43-2.508,3.188
		c0,1.121,0.458,2.104,1.146,2.673v1.435c-2.858-0.689-5.871-3.229-8.22-7.123h0.021c-0.519-0.863-1.018-1.768-1.464-2.754
		c-0.268-0.588-0.501-1.178-0.722-1.774c0.372-0.827,0.592-1.745,0.592-2.724c0-2.623-3.349-5.816-5.083-9.371
		c-0.217-0.441-0.599-0.713-1.007-0.713h-0.021c-0.418,0-0.806,0.276-1.026,0.725c-1.737,3.552-5.079,6.738-5.079,9.359
		c0,0.887,0.181,1.721,0.492,2.492c-0.278,0.793-0.578,1.586-0.933,2.368c-0.384,0.85-0.806,1.636-1.246,2.392h0.013
		c-2.288,3.94-5.251,6.559-8.098,7.385v-1.696c0.688-0.569,1.145-1.552,1.145-2.673c0-1.758-1.124-3.188-2.509-3.188
		s-2.507,1.43-2.507,3.188c0,1.121,0.459,2.104,1.142,2.673v2.263h-1.142v3.916h1.112v2.965h0.029v38.793h-2.652v-13.676h-12.947
		v-54.416l-21.887-13.925h-41.034v11.255H607.146v-55.764h-4.165h-2.602h-3.019h-2.185v-23.179h-31.748v33.112h-1.712h-2.028h-2.352
		h-2.027H552.5v1.217h-1.139v-52.305h-8.458v-60.297h-2.742v60.297h-5.478v-51.58h-2.743v51.58h-6.278v52.305h-8.907v38.324h-19.4
		v-7.008h-1.564v-57.338h-24.202h-61.482v168.68h-8.967l-3.375,2.148v-66.055l-13.567-25.309c0.692-0.205,1.208-0.992,1.208-1.934
		c0-1.1-0.702-1.994-1.567-1.994h-0.348v-17.277h-2.089v17.277h-0.176c-0.862,0-1.566,0.895-1.566,1.994
		c0,0.967,0.545,1.775,1.266,1.953l-11.708,25.289v52.543h-16.433c-4.643-14.029-15.126-39.48-35.036-60.538l-4.473-11.124h1.909
		l-4.364-12.687h2.455l-3.548-10.032h2.183l-4.911-9.691h3.001l-4.91-12.455h1.908l-3.819-10.957h2.729l-4.367-9.455h3.002
		l-5.183-9.34h2.455l-5.73-15.914l-5.729,15.914h2.457l-5.183,9.34h3l-4.365,9.455h2.728l-3.819,10.957h1.908l-4.909,12.455h3.001
		l-4.91,9.691h2.18l-2.588,7.318c-2.808-1.161-5.719-2.211-8.722-3.154l-2.095-4.127h1.761l-2.88-7.313h1.119l-2.241-6.426h1.602
		l-2.563-5.551h1.76l-3.04-5.48h1.44l-3.361-9.34l-3.363,9.34h1.441l-3.042,5.48h1.761l-2.561,5.551h1.599l-2.241,6.426h1.122
		l-2.881,7.313h1.759l-0.295,0.582c-16.355-2.592-35.208-1.846-56.909,3.744c0,0-14.788-113.092-128.726-147.113l-1.374-3.482h1.908
		l-3.816-10.955h2.728l-4.366-9.456h3.001l-5.183-9.344h2.456l-5.729-15.916l-5.729,15.916h2.454l-5.181,9.344h3l-4.367,9.456h2.729
		l-3.265,9.369c-14.994-2.895-31.469-4.502-49.567-4.502V1553.71h2.533v-103.531l97.708-14.896l106.286-69.575l1.909,2.451
		c1.31-1.716,3.253-2.808,5.428-2.808h4.08c3.944,0,7.141-3.576,7.141-7.992v-9.131c0-4.414,3.197-7.991,7.139-7.991
		c3.943,0,7.138-3.575,7.138-7.989v-2.283c0-4.414,3.199-7.991,7.143-7.991h39.778c4.507,0,8.16,4.089,8.16,9.132
		s3.653,9.132,8.159,9.132h2.041c4.507,0,8.158,4.089,8.158,9.132v6.851c0,5.042,3.656,9.132,8.162,9.132h3.059
		c4.508,0,8.161,4.089,8.161,9.131v43.442c0,17.651,12.786,31.962,28.56,31.962v-30.313c0-8.51,6.165-15.412,13.769-15.412
		c7.605,0,13.77,6.902,13.77,15.412v17.49c0,14.39,10.425,26.056,23.284,26.056c5.167,0,9.356,4.688,9.356,10.472v37.112
		l5.387,2.921l-0.244-2.677l1.338,1.534v-0.709l0.635,0.561l-0.268-3.465l0.971,1.254l0.503-2.289l0.501,2.289l0.969-1.254
		l-0.267,3.465l0.636-0.561v0.709l1.338-1.534l-0.3,3.296l-0.67,1.911l1.974-1.011l-0.3,1.272l0.836-0.487v1.611l-0.103,0.182
		l4.757,2.58l3.112-0.895l-0.073-0.26l0.348,0.18l2.399-0.689l-0.559-0.855l-0.216-1.327l2.377,1.724l0.615-0.178l-2.168-2.59
		l-0.824-3.491l2.152,1.563l-0.862-2.647l2.119,1.685l-0.215-1.483l1.146,1.243l-1.865-3.292v-1.726l0.896,0.52l-0.321-1.365
		l2.115,1.084l-0.717-2.048l-0.322-3.532l1.435,1.645v-0.762l0.682,0.603l-0.287-3.714l1.039,1.345l0.541-2.456l0.537,2.456
		l1.04-1.345l-0.285,3.714l0.679-0.603v0.762l1.437-1.645l-0.322,3.532l-0.718,2.048l2.117-1.084l-0.324,1.365l0.898-0.52v1.726
		l-1.865,3.292l1.147-1.243l-0.216,1.483l2.119-1.685l-0.862,2.647l1.742-1.265l2.477-32.968l-1.098-0.193l0.267-1.902l0.977,0.172
		l1.993-26.538l-1.344-0.261l0.281-1.809l1.202,0.229l1.658-22.059h-0.552v-16.377h-1.25v-3.361h3.628v-6.121h-5.63v-3.438h5.63
		v-4.788h-5.013l11.529-5.595v-20.029h1.229v2.549h5.232v1.848h3.307v6.046h-5.846v-1.845h-2.693v10.838l6.756-3.277l18.65,9.466
		h-5.014v4.788h6.267v3.438h-6.267v6.121h4.264v3.361h-1.25v16.377h-1.188l1.683,22.391l3.25-0.566l0.253,1.82l-3.365,0.587
		l1.991,26.515l3.026-0.481l0.244,1.905l-3.125,0.496l1.692,22.484l60.364-17.358c0,0,106.076-86.629,109.137-87.772
		c3.06-1.141,89.137-34.246,89.137-34.246l23.128,11.99c3.645-2.289,7.848-3.601,12.326-3.601v-59.996
		c0-9.747,7.059-17.649,15.768-17.649c8.708,0,15.769,7.902,15.769,17.649v44.509c0,4.388,3.179,7.942,7.098,7.942
		c3.918,0,7.095-3.555,7.095-7.942v-80.247c0-2.193,1.59-3.97,3.55-3.97c1.958,0,3.548-1.778,3.548-3.971v-34.414
		c0-2.192,1.586-3.973,3.548-3.973c6.313,0,11.433-5.727,11.433-12.793v-14.117c0-2.194,1.586-3.971,3.547-3.971h15.375
		c15.24,0,27.595,13.828,27.595,30.881c6.532,0,11.826,5.928,11.826,13.238v100.885c0,8.285,6.001,15.002,13.405,15.002v-10.883
		c0-9.432,6.829-17.075,15.255-17.075c5.508,0,9.972-4.995,9.972-11.161c0-14.133,10.239-25.59,22.866-25.59h8.673
		c16.548,0,29.961,15.014,29.961,33.532v85.418l0.665-0.587v2.07l3.893-4.468l-0.876,9.584l-1.946,5.554l5.742-2.939l-0.876,3.703
		l2.433-1.416v4.682l-5.061,8.932l3.116-3.377l-0.586,4.029l5.741-4.572l-2.335,7.189l5.838-4.25l-2.236,9.477l-4.568,5.457
		l1.913,0.916l4.892-3.543l-0.583,3.594l-0.999,1.537l5.774,2.766l1.16-0.6l-0.287,1.018l183.182,87.813V226.629L1152.823,353.207z
		 M960.286,510.501c-0.058-6.289-0.1-11.307-0.103-12.658c2.132,1.665,4.7,2.688,7.688,2.801c0.676,0.025,1.336-0.035,1.979-0.164
		L960.286,510.501z M981.796,487.966c-0.018-2.289-0.028-3.945-0.03-4.639c0.873,0.684,1.824,1.25,2.842,1.697L981.796,487.966z"/>
	<polygon fill="#030104" points="482.445,1453.885 482.445,1480.474 497.253,1478.122 495.264,1451.65 	"/>
	<polygon fill="#030104" points="482.911,1426.89 482.911,1432.916 482.445,1432.916 482.445,1452.022 495.126,1449.812 
		493.403,1426.89 	"/>
</g>
<g>
</g>
<g>
</g>
<g>
</g>
<g>
</g>
<g>
</g>
<g>
</g>
</svg>
