<?xml version="1.0" encoding="utf-8"?>
<!-- Generator: Adobe Illustrator 16.0.0, SVG Export Plug-In . SVG Version: 6.00 Build 0)  -->
<!DOCTYPE svg PUBLIC "-//W3C//DTD SVG 1.1//EN" "http://www.w3.org/Graphics/SVG/1.1/DTD/svg11.dtd">
<svg version="1.1" id="Capa_1" xmlns="http://www.w3.org/2000/svg" xmlns:xlink="http://www.w3.org/1999/xlink" x="0px" y="0px"
	 width="1226.504px" height="689.572px" viewBox="0 0 1226.504 689.572" enable-background="new 0 0 1226.504 689.572"
	 xml:space="preserve">
<g opacity="0.15">
	<path d="M553.176,39.286l-96.968,60.199h-34.307V77.401h-17.515V64.64h-8.361v-9.19h-22.35v9.19h-8.36v45.596h-5.595V82.474h-8.999
		V57.261h-9.674V39.286h-2.565v17.975h-9.673v25.213h-9v27.762h-12.409v71.398h-3.629v-43.393h1.447v-3.922h-12.56V51.21h-38.083
		v40.467h-19.92v30.704h-27.247v92.031h-8.533v-34.08h-31.376v41.733c-26.237,1.651-49.393,14.643-64.619,34.137h-5.596v8.043
		c-0.982,1.589-1.896,3.224-2.778,4.877c-0.338-0.028-0.677-0.06-1.018-0.06c-0.751,0-1.495,0.089-2.229,0.224
		c-5.916-5.592-13.436-9.498-21.806-10.943L52.688,234.41c-0.478-0.684-1.034-1.282-1.647-1.794
		c-0.614-0.514-1.287-0.94-1.996-1.282c-0.355-0.172-0.72-0.32-1.092-0.448c-1.116-0.386-2.297-0.578-3.478-0.578
		s-2.364,0.192-3.479,0.578c-0.373,0.128-0.737,0.276-1.092,0.448c-0.71,0.342-1.381,0.769-1.995,1.282
		c-0.614,0.512-1.17,1.11-1.649,1.794L23.66,252.397L1.141,284.549L0,282.182V728.12h1227.009V39.286H553.176z M245.004,194.674
		h-28.712V192.6h2.676v-9.794h4.531v9.794h4.803v-9.794h4.53v9.794h4.802v-9.794h4.531v9.794h2.839V194.674z M245.004,178.621
		h-28.712v-2.075h2.676v-9.796h4.531v9.796h4.803v-9.796h4.53v9.796h4.802v-9.796h4.531v9.796h2.839V178.621z M245.004,162.564
		h-28.712v-2.072h2.676v-9.796h4.531v9.796h4.803v-9.796h4.53v9.796h4.802v-9.796h4.531v9.796h2.839V162.564z M245.004,146.512
		h-28.712v-2.075h2.676v-9.796h4.531v9.796h4.803v-9.796h4.53v9.796h4.802v-9.796h4.531v9.796h2.839V146.512z M272.168,126.935
		h-8.687v-3.176h8.687V126.935z M272.168,119.266h-8.687v-3.178h8.687V119.266z M272.168,111.594h-8.687v-3.178h8.687V111.594z
		 M272.168,103.925h-8.687v-3.178h8.687V103.925z M272.168,96.255h-8.687v-3.177h8.687V96.255z M272.168,88.584h-8.687v-3.178h8.687
		V88.584z M272.168,80.915h-8.687v-3.178h8.687V80.915z M272.168,73.245h-8.687v-3.177h8.687V73.245z M272.168,65.574h-8.687v-3.177
		h8.687V65.574z M284.574,126.935h-8.688v-3.176h8.688V126.935z M284.574,119.266h-8.688v-3.178h8.688V119.266z M284.574,111.594
		h-8.688v-3.178h8.688V111.594z M284.574,103.925h-8.688v-3.178h8.688V103.925z M284.574,96.255h-8.688v-3.177h8.688V96.255z
		 M284.574,88.584h-8.688v-3.178h8.688V88.584z M284.574,80.915h-8.688v-3.178h8.688V80.915z M284.574,73.245h-8.688v-3.177h8.688
		V73.245z M284.574,65.574h-8.688v-3.177h8.688V65.574z M332.51,106.601h-0.66h-6.302h-0.659v-1.187h0.659v-3.385h6.302v3.385h0.66
		V106.601z M332.51,100.164h-0.66h-6.302h-0.659v-1.1h0.659v-3.473h6.302v3.473h0.66V100.164z M332.51,93.983h-0.66h-6.302h-0.659
		v-1.186h0.659v-3.387h6.302v3.387h0.66V93.983z M343.331,106.601h-0.66h-6.303h-0.659v-1.187h0.659v-3.385h6.303v3.385h0.66
		V106.601z M343.331,100.164h-0.66h-6.303h-0.659v-1.1h0.659v-3.473h6.303v3.473h0.66V100.164z M343.331,93.983h-0.66h-6.303h-0.659
		v-1.186h0.659v-3.387h6.303v3.387h0.66V93.983z M353.977,106.601h-0.658h-6.302h-0.66v-1.187h0.66v-3.385h6.302v3.385h0.658
		V106.601z M353.977,100.164h-0.658h-6.302h-0.66v-1.1h0.66v-3.473h6.302v3.473h0.658V100.164z M353.977,93.983h-0.658h-6.302h-0.66
		v-1.186h0.66v-3.387h6.302v3.387h0.658V93.983z"/>
</g>
</svg>
