<?xml version="1.0" encoding="utf-8"?>
<!-- Generator: Adobe Illustrator 16.0.0, SVG Export Plug-In . SVG Version: 6.00 Build 0)  -->
<!DOCTYPE svg PUBLIC "-//W3C//DTD SVG 1.1//EN" "http://www.w3.org/Graphics/SVG/1.1/DTD/svg11.dtd">
<svg version="1.1" id="Capa_1" xmlns="http://www.w3.org/2000/svg" xmlns:xlink="http://www.w3.org/1999/xlink" x="0px" y="0px"
	 width="1226.504px" height="775.44px" viewBox="0 0 1226.504 775.44" enable-background="new 0 0 1226.504 775.44"
	 xml:space="preserve">
<g opacity="0.15">
	<polygon fill="#030104" points="467.779,873.308 466.078,897.523 479.374,900.267 479.374,879.75 473.653,879.75 473.653,873.308 	
		"/>
	<polygon fill="#030104" points="463.949,927.806 479.374,930.717 479.374,902.265 465.94,899.486 	"/>
	<polygon fill="#030104" points="461.788,958.541 462.18,959.021 462.18,958.204 462.861,958.847 462.575,954.877 463.615,956.316 
		464.154,953.692 464.692,956.316 465.732,954.877 465.444,958.847 466.127,958.204 466.127,959.021 467.561,957.26 
		467.238,961.036 466.521,963.224 468.638,962.068 468.316,963.527 469.212,962.967 469.212,963.775 471.499,963.072 
		471.144,962.509 471.612,962.509 471.144,960.75 471.612,961.006 473.27,962.527 474.453,962.164 474.588,961.351 473.333,959.289 
		473.119,957.871 475.558,959.759 476.599,960.146 473.941,956.754 473.119,953.019 475.27,954.694 474.409,951.862 
		476.526,953.662 476.312,952.078 477.458,953.408 475.592,949.887 475.592,948.042 476.491,948.598 476.167,947.139 
		478.283,948.298 477.565,946.107 477.243,942.332 478.678,944.089 478.678,943.275 479.36,943.918 479.072,939.949 
		479.374,940.363 479.374,932.799 463.802,929.863 	"/>
	<polygon fill="#030104" points="458.034,967.21 458.038,967.208 458.034,967.201 	"/>
	<polygon fill="#030104" points="461.47,963.053 461.786,963.224 461.516,962.404 	"/>
	<polygon fill="#030104" points="458.092,966.947 458.113,966.96 458.124,966.805 	"/>
	<rect x="482.125" y="845.66" fill="#030104" width="6.378" height="5.287"/>
	<polygon fill="#030104" points="499.115,954.582 497.398,930.132 482.445,932.675 482.445,943.445 482.625,943.275 
		482.625,944.089 484.06,942.332 483.739,946.107 483.02,948.298 485.136,947.139 484.812,948.598 485.711,948.042 485.711,949.887 
		483.845,953.408 484.993,952.078 484.779,953.662 486.895,951.862 486.034,954.694 488.187,953.019 487.362,956.754 
		485.878,958.652 488.036,957.99 488.187,957.871 488.174,957.945 	"/>
	<path fill="#030104" d="M1152.823-274.642c-3.557-2.393-7.503-3.564-11.292-3.581c-3.748-13.097-16.185-20.223-26.273-14.952
		c-11.699,6.106-14.87,23.883-11.896,36.381c0,0,0,0.006,0.002,0.006c-3.511,2.099-6.636,5.776-8.949,11.26
		c-1.019,2.42-1.582,4.995-1.759,7.599c-0.021,0.292-0.038,0.587-0.048,0.879c-0.008,0.207-0.008,0.411-0.01,0.616
		c-0.004,0.175-0.005,0.353-0.004,0.526c0,0.207,0.006,0.412,0.014,0.621c0.002,0.173,0.01,0.349,0.021,0.524
		c0.007,0.205,0.02,0.412,0.033,0.616c0.014,0.177,0.028,0.353,0.046,0.53c0.019,0.198,0.036,0.403,0.058,0.605
		c0.023,0.209,0.052,0.418,0.08,0.625c0.045,0.324,0.091,0.649,0.148,0.971c0.031,0.184,0.059,0.363,0.092,0.549
		c0.039,0.19,0.081,0.384,0.119,0.581c0.038,0.179,0.076,0.357,0.117,0.534c0.043,0.188,0.089,0.38,0.135,0.568
		c0.047,0.184,0.096,0.366,0.143,0.545c0.051,0.184,0.099,0.361,0.148,0.541c0.066,0.221,0.134,0.438,0.203,0.659
		c0.077,0.247,0.159,0.493,0.245,0.738c0.077,0.219,0.15,0.436,0.232,0.649c0.058,0.165,0.122,0.321,0.187,0.48
		c0.075,0.188,0.148,0.376,0.225,0.562c0.07,0.158,0.135,0.317,0.206,0.472c0.082,0.192,0.169,0.378,0.253,0.563
		c0.07,0.146,0.137,0.291,0.208,0.437c0.108,0.223,0.222,0.44,0.335,0.66c0.055,0.104,0.104,0.207,0.159,0.305
		c0.165,0.307,0.336,0.605,0.511,0.9c0.068,0.119,0.14,0.23,0.209,0.336c0.118,0.201,0.238,0.391,0.362,0.579
		c0.076,0.121,0.157,0.238,0.237,0.355c0.124,0.184,0.248,0.365,0.377,0.541c0.076,0.109,0.156,0.218,0.235,0.328
		c0.149,0.199,0.302,0.395,0.459,0.587c0.062,0.077,0.119,0.154,0.18,0.228c0.217,0.263,0.437,0.52,0.663,0.771
		c0.057,0.063,0.12,0.125,0.182,0.19c0.168,0.186,0.341,0.366,0.517,0.541c0.084,0.081,0.169,0.163,0.253,0.247
		c0.162,0.152,0.324,0.303,0.485,0.449c0.09,0.077,0.176,0.156,0.264,0.231c0.18,0.155,0.362,0.303,0.544,0.449
		c0.073,0.054,0.145,0.115,0.217,0.171c0.258,0.194,0.519,0.384,0.78,0.562c0.045,0.027,0.087,0.052,0.125,0.08
		c0.227,0.148,0.454,0.292,0.683,0.424c0.089,0.05,0.18,0.101,0.27,0.148c0.186,0.104,0.376,0.204,0.567,0.301
		c0.101,0.05,0.197,0.096,0.294,0.142c0.195,0.09,0.395,0.18,0.594,0.259c0.088,0.04,0.178,0.075,0.268,0.106
		c0.285,0.113,0.577,0.213,0.87,0.303c7.293,2.188,13.562-2.492,17.336-9.19c0.15,0.428,0.272,0.808,0.361,1.128l-25.804,47.4
		l-44.084-37.363l-52.129,58.377c-0.076-0.819-0.193-1.64-0.359-2.447c-1.854-8.974-7.974-13.155-13.528-13.18
		c-2.234-7.808-9.648-12.053-15.661-8.913c-6.887,3.594-8.808,13.96-7.15,21.391c-3.055-5.798-9.257-8.573-14.431-5.873
		c-6.974,3.641-8.866,14.236-7.092,21.687v0.004c-2.093,1.251-3.958,3.444-5.335,6.708c-0.607,1.445-0.942,2.98-1.049,4.533
		c-0.012,0.171-0.022,0.349-0.028,0.52c-0.003,0.124-0.003,0.249-0.006,0.37c-0.001,0.106-0.004,0.208-0.001,0.315
		c0,0.124,0.004,0.247,0.007,0.37c0.002,0.102,0.006,0.207,0.013,0.311c0.005,0.124,0.011,0.245,0.021,0.368
		c0.009,0.104,0.017,0.207,0.026,0.312c0.013,0.123,0.021,0.242,0.035,0.365c0.014,0.124,0.031,0.249,0.047,0.372
		c0.027,0.194,0.056,0.387,0.09,0.579c0.017,0.113,0.034,0.219,0.057,0.324c0.021,0.119,0.046,0.234,0.068,0.351
		c0.022,0.106,0.049,0.209,0.071,0.315c0.023,0.115,0.054,0.229,0.08,0.342c0.024,0.109,0.054,0.218,0.086,0.326
		c0.028,0.107,0.055,0.213,0.089,0.324c0.037,0.129,0.079,0.261,0.12,0.393c0.046,0.146,0.095,0.292,0.146,0.437
		c0.045,0.134,0.091,0.261,0.137,0.391c0.036,0.092,0.074,0.188,0.111,0.286c0.045,0.109,0.091,0.224,0.134,0.332
		c0.042,0.096,0.081,0.19,0.124,0.284c0.049,0.111,0.099,0.224,0.152,0.334c0.039,0.087,0.08,0.173,0.123,0.259
		c0.064,0.134,0.133,0.266,0.201,0.393c0.029,0.065,0.06,0.124,0.091,0.18c0.101,0.184,0.202,0.363,0.307,0.541
		c0.04,0.071,0.081,0.133,0.124,0.204c0.07,0.113,0.144,0.23,0.215,0.34c0.047,0.072,0.094,0.143,0.142,0.213
		c0.074,0.111,0.147,0.213,0.227,0.319c0.044,0.069,0.093,0.132,0.14,0.197c0.089,0.116,0.181,0.236,0.273,0.351
		c0.036,0.046,0.07,0.092,0.108,0.136c0.129,0.154,0.259,0.309,0.395,0.455c0.036,0.042,0.072,0.08,0.105,0.117
		c0.104,0.113,0.207,0.219,0.311,0.321c0.051,0.048,0.101,0.096,0.151,0.143c0.096,0.096,0.192,0.186,0.29,0.273
		c0.051,0.05,0.103,0.096,0.156,0.136c0.105,0.094,0.214,0.184,0.323,0.27c0.045,0.031,0.086,0.067,0.129,0.101
		c0.154,0.116,0.311,0.229,0.466,0.335c0.025,0.015,0.052,0.032,0.075,0.048c0.135,0.088,0.27,0.171,0.405,0.251
		c0.054,0.033,0.107,0.06,0.16,0.087c0.112,0.067,0.226,0.125,0.339,0.18c0.06,0.031,0.117,0.061,0.177,0.085
		c0.116,0.055,0.233,0.106,0.353,0.154c0.052,0.025,0.107,0.048,0.162,0.067c0.169,0.064,0.342,0.125,0.517,0.179
		c4.345,1.301,8.083-1.486,10.333-5.479c0.15,0.424,0.255,0.773,0.295,1.002c0.113,0.645,0.027,8.349-0.118,17.491l-22.45,25.142
		h-1.399v1.566l-13.039,14.603l-3.362,0.111c-0.06-6.956-0.119-13.828-0.119-15.177c1.318,1.1,2.904,1.772,4.749,1.85
		c5.116,0.211,8.792-7.534,7.426-14.16c-1.146-5.546-4.931-8.132-8.361-8.148c-1.38-4.824-5.961-7.447-9.675-5.502
		c-4.311,2.249-5.48,8.793-4.384,13.398v0.002c-1.294,0.772-2.445,2.128-3.295,4.147c-0.376,0.894-0.584,1.842-0.649,2.8
		c-0.007,0.104-0.014,0.213-0.018,0.321c-0.003,0.078-0.003,0.151-0.004,0.228c-0.002,0.065-0.002,0.132-0.002,0.196
		c0,0.073,0.003,0.153,0.006,0.226c0,0.066,0.004,0.131,0.005,0.194c0.006,0.073,0.009,0.15,0.016,0.228
		c0.004,0.064,0.009,0.127,0.017,0.192c0.007,0.078,0.013,0.15,0.021,0.226c0.011,0.077,0.02,0.154,0.029,0.232
		c0.015,0.119,0.032,0.236,0.056,0.353c0.011,0.069,0.021,0.134,0.033,0.205c0.015,0.071,0.03,0.143,0.044,0.213
		c0.015,0.069,0.027,0.131,0.044,0.196c0.016,0.071,0.031,0.14,0.049,0.213c0.016,0.066,0.035,0.131,0.053,0.201
		c0.019,0.064,0.036,0.131,0.056,0.198c0.022,0.079,0.05,0.165,0.075,0.24c0.027,0.096,0.057,0.184,0.089,0.275
		c0.027,0.078,0.058,0.159,0.083,0.238c0.023,0.06,0.049,0.117,0.07,0.177c0.026,0.067,0.055,0.136,0.084,0.207
		c0.024,0.058,0.05,0.114,0.075,0.171c0.031,0.071,0.061,0.14,0.096,0.208c0.022,0.054,0.047,0.108,0.075,0.161
		c0.04,0.084,0.08,0.161,0.123,0.242c0.02,0.038,0.039,0.078,0.059,0.115c0.061,0.113,0.123,0.222,0.188,0.332
		c0.024,0.042,0.05,0.08,0.075,0.124c0.043,0.071,0.089,0.144,0.133,0.211c0.03,0.046,0.061,0.09,0.088,0.131
		c0.046,0.067,0.092,0.134,0.139,0.2c0.031,0.04,0.059,0.08,0.089,0.117c0.054,0.076,0.109,0.148,0.167,0.217
		c0.022,0.029,0.045,0.059,0.068,0.087c0.08,0.094,0.159,0.19,0.244,0.28c0.021,0.025,0.043,0.05,0.064,0.071
		c0.063,0.069,0.126,0.136,0.192,0.199c0.029,0.031,0.063,0.06,0.093,0.092c0.061,0.056,0.118,0.11,0.18,0.165
		c0.031,0.027,0.064,0.059,0.096,0.086c0.065,0.061,0.133,0.115,0.2,0.167c0.026,0.021,0.055,0.042,0.081,0.063
		c0.094,0.071,0.189,0.142,0.288,0.207c0.014,0.008,0.029,0.019,0.043,0.029c0.085,0.055,0.169,0.106,0.252,0.157
		c0.034,0.019,0.067,0.036,0.1,0.055c0.069,0.038,0.139,0.073,0.211,0.11c0.035,0.021,0.072,0.034,0.107,0.052
		c0.073,0.033,0.146,0.063,0.218,0.094c0.032,0.017,0.067,0.027,0.101,0.04c0.104,0.042,0.212,0.079,0.319,0.11
		c2.686,0.806,4.996-0.915,6.385-3.385c0.093,0.263,0.157,0.478,0.182,0.621c0.086,0.484-0.01,7.444-0.137,14.599l-24.84,0.818
		v-73.27v-1.382v-11.477h-6.437v-44.776h-3.373v44.776h-6.435v11.477h-16.248v46.219h-10.655v-15.753H823.34v-4.661h0.234v-3.17
		h0.776v-4.187h-1.011v-2.42c0.689-0.61,1.145-1.66,1.145-2.857c0-1.881-1.121-3.408-2.506-3.408c-1.386,0-2.508,1.527-2.508,3.408
		c0,1.197,0.458,2.247,1.146,2.857v1.532c-2.858-0.737-5.871-3.452-8.22-7.615h0.021c-0.519-0.923-1.018-1.888-1.464-2.945
		c-0.268-0.626-0.502-1.257-0.722-1.896c0.372-0.883,0.592-1.867,0.592-2.911c0-2.807-3.349-6.219-5.083-10.022
		c-0.217-0.472-0.599-0.76-1.007-0.76h-0.021c-0.419,0-0.806,0.294-1.026,0.775c-1.737,3.796-5.079,7.204-5.079,10.007
		c0,0.946,0.181,1.837,0.492,2.662c-0.279,0.848-0.578,1.698-0.933,2.533c-0.384,0.909-0.806,1.748-1.246,2.557h0.012
		c-2.287,4.214-5.25,7.012-8.097,7.897v-1.814c0.688-0.61,1.145-1.66,1.145-2.857c0-1.881-1.124-3.408-2.509-3.408
		s-2.508,1.527-2.508,3.408c0,1.197,0.46,2.247,1.143,2.857v2.42h-1.143v4.187h1.113v3.17h0.029v41.474h-2.652v-14.62h-12.947
		v-58.18l-21.887-14.889h-41.034v12.035H607.146v-59.622h-4.165h-2.603h-3.018h-2.185v-24.783h-31.748v35.403h-1.712h-2.028h-2.352
		h-2.027H552.5v1.301h-1.139v-55.922h-8.458v-64.467h-2.742v64.467h-5.478v-55.147h-2.743v55.147h-6.278v55.922h-8.907v40.977h-19.4
		v-7.493h-1.564v-61.305h-24.202h-61.482L401.14-37.283l-3.375,2.299v-70.623l-13.567-27.06c0.692-0.222,1.208-1.061,1.208-2.067
		c0-1.178-0.702-2.132-1.567-2.132h-0.347v-18.475l-2.089,18.475h-0.176c-0.862,0-1.021,4.03-0.3,4.218l-67.649,6.599l-2.455-13.565
		h2.455l-3.548-10.728h2.183l-4.911-10.359h3.001l-4.91-13.318h1.908l-3.819-11.715h2.729l-4.367-10.109h3.002l-5.183-9.986h2.455
		l-5.73-17.015l-5.729,17.015h2.457l-5.183,9.986h3l-4.365,10.109h2.728l-3.819,11.715h1.908l-4.909,13.318h3.001l-4.91,10.359h2.18
		l-2.588,7.827c-2.808-1.243-5.719-2.366-8.722-3.373l-2.095-4.413h1.761l-2.88-7.818h1.119l-2.241-6.872h1.603l-2.563-5.935h1.76
		l-3.04-5.859h1.44l-3.361-9.986l-3.363,9.986h1.441l-3.042,5.859h1.761l-2.561,5.935h1.599l-2.241,6.872h1.122l-2.881,7.818h1.759
		l-0.295,0.623c-16.355-2.773-35.208-1.974-56.909,4.002c0,0-14.788-120.915-128.726-157.29l-1.374-3.724h1.908L67.021-318.4h2.728
		l-4.366-10.109h3.001L63.2-338.5h2.456l-5.729-17.017l-5.73,17.017h2.454l-5.181,9.99h3L50.103-318.4h2.729l-3.265,10.017
		c-14.994-3.095-31.469-4.813-49.567-4.813V1008.9h2.533V898.208l97.708-15.929l106.286-74.387l1.909,2.62
		c1.31-1.833,3.253-3.002,5.428-3.002h4.08c3.944,0,7.141-3.822,7.141-8.544v-9.764c0-4.718,3.197-8.544,7.139-8.544
		c3.943,0,7.138-3.822,7.138-8.54v-2.443c0-4.717,3.199-8.543,7.143-8.543h39.778c4.507,0,8.16,4.371,8.16,9.763
		c0,5.394,3.653,9.764,8.159,9.764h2.041c4.506,0,8.158,4.372,8.158,9.764v7.325c0,5.392,3.656,9.763,8.162,9.763h3.059
		c4.508,0,8.161,4.372,8.161,9.764v46.447c0,18.871,12.786,34.171,28.56,34.171v-32.409c0-9.098,6.165-16.476,13.769-16.476
		c7.605,0,13.77,7.378,13.77,16.476v18.7c0,15.387,10.425,27.858,23.284,27.858c5.167,0,9.356,5.012,9.356,11.195v39.68l5.387,3.125
		l-0.244-2.863l1.338,1.64v-0.759l0.635,0.602l-0.268-3.706l0.971,1.342l0.503-2.446l0.501,2.446l0.969-1.342l-0.267,3.706
		l0.636-0.602v0.759l1.338-1.64l-0.3,3.522l-0.67,2.045l1.974-1.082l-0.3,1.361l0.836-0.52v1.721l-0.103,0.194l4.757,2.759
		l3.112-0.954l-0.073-0.278l0.348,0.189l2.399-0.736l-0.559-0.912l-0.216-1.421l2.377,1.843l0.615-0.188l-2.168-2.769l-0.824-3.734
		l2.151,1.672l-0.861-2.83l2.119,1.8l-0.215-1.586l1.146,1.329l-1.865-3.52v-1.846l0.896,0.558l-0.321-1.46l2.115,1.159l-0.717-2.19
		l-0.322-3.777l1.435,1.76v-0.816l0.682,0.646l-0.287-3.972l1.039,1.438l0.541-2.625l0.537,2.625l1.04-1.438l-0.285,3.972
		l0.679-0.646v0.816l1.437-1.76l-0.322,3.777l-0.718,2.19l2.117-1.159l-0.324,1.46l0.898-0.558v1.846l-1.865,3.52l1.147-1.329
		l-0.216,1.586l2.119-1.8l-0.862,2.83l1.742-1.352l2.477-35.247l-1.098-0.21l0.267-2.032l0.977,0.183l1.993-28.373l-1.344-0.278
		l0.281-1.936l1.202,0.247l1.658-23.584h-0.552v-17.513h-1.25v-3.594h3.628v-6.542h-5.63v-3.677h5.63v-5.119h-5.013l11.529-5.98
		v-21.416h1.229v2.727h5.232v1.976h3.307v6.463h-5.846v-1.972h-2.693v11.585l6.756-3.503l18.65,10.121h-5.014v5.119h6.267v3.677
		h-6.267v6.542h4.264v3.594h-1.25v17.513h-1.188l1.683,23.938l3.25-0.607l0.253,1.946l-3.365,0.629l1.991,28.348l3.026-0.515
		l0.244,2.038l-3.125,0.529l1.692,24.041l60.364-18.561c0,0,106.077-92.62,109.137-93.844c3.06-1.219,89.137-36.614,89.137-36.614
		l23.128,12.818c3.645-2.446,7.848-3.848,12.326-3.848v-64.146c0-10.42,7.059-18.869,15.767-18.869
		c8.709,0,15.77,8.449,15.77,18.869v47.586c0,4.693,3.179,8.493,7.098,8.493c3.918,0,7.095-3.8,7.095-8.493v-85.796
		c0-2.345,1.59-4.243,3.55-4.243c1.958,0,3.548-1.902,3.548-4.247v-36.795c0-2.343,1.586-4.245,3.548-4.245
		c6.313,0,11.433-6.123,11.433-13.681V632.95c0-2.348,1.586-4.248,3.547-4.248h15.375c15.24,0,27.595,14.785,27.595,33.02
		c6.532,0,11.826,6.335,11.826,14.153v107.863c0,8.857,6.001,16.04,13.405,16.04v-11.637c0-10.085,6.829-18.257,15.255-18.257
		c5.508,0,9.972-5.341,9.972-11.935c0-15.108,10.239-27.357,22.866-27.357h8.673c16.548,0,29.961,16.051,29.961,35.851v91.327
		l0.665-0.63v2.214l3.893-4.775l-0.876,10.247l-1.946,5.938l5.742-3.145l-0.876,3.959l2.433-1.515v5.008l-5.061,9.548l3.116-3.611
		l-0.586,4.311l5.741-4.891l-2.335,7.687l5.838-4.543l-2.236,10.131l-4.568,5.836l1.913,0.979l4.892-3.786l-0.583,3.841
		l-0.999,1.644l5.774,2.959l1.16-0.642l-0.287,1.088l183.182,93.887V-409.974L1152.823-274.642z M960.286-106.468
		c-0.058-6.724-0.1-12.089-0.103-13.532c2.132,1.779,4.7,2.874,7.688,2.993c0.676,0.027,1.336-0.038,1.979-0.173L960.286-106.468z
		 M981.796-130.56c-0.018-2.447-0.028-4.218-0.03-4.962c0.873,0.731,1.824,1.337,2.842,1.815L981.796-130.56z"/>
	<polygon fill="#030104" points="482.445,902.169 482.445,930.598 497.253,928.082 495.264,899.778 	"/>
	<polygon fill="#030104" points="482.91,873.308 482.91,879.75 482.445,879.75 482.445,900.176 495.126,897.813 493.403,873.308 	
		"/>
</g>
<line fill="#030104" x1="415.297" y1="1483.509" x2="401.14" y2="1481.7"/>
<g>
</g>
<g>
</g>
<g>
</g>
<g>
</g>
<g>
</g>
<g>
</g>
</svg>
