<?xml version="1.0" encoding="utf-8"?>
<!-- Generator: Adobe Illustrator 16.0.0, SVG Export Plug-In . SVG Version: 6.00 Build 0)  -->
<!DOCTYPE svg PUBLIC "-//W3C//DTD SVG 1.1//EN" "http://www.w3.org/Graphics/SVG/1.1/DTD/svg11.dtd">
<svg version="1.1" id="Capa_1" xmlns="http://www.w3.org/2000/svg" xmlns:xlink="http://www.w3.org/1999/xlink" x="0px" y="0px"
	 width="1226.504px" height="775.441px" viewBox="0 0 1226.504 775.441" enable-background="new 0 0 1226.504 775.441"
	 xml:space="preserve">
<g opacity="0.15">
	<polygon fill="#030104" points="467.771,763.386 466.07,790.212 479.366,793.252 479.366,770.525 473.645,770.525 473.645,763.386 
			"/>
	<polygon fill="#030104" points="463.941,823.761 479.366,826.986 479.366,795.465 465.931,792.388 	"/>
	<polygon fill="#030104" points="461.78,857.811 462.171,858.341 462.171,857.438 462.853,858.148 462.567,853.753 463.607,855.345 
		464.146,852.438 464.684,855.345 465.724,853.753 465.436,858.148 466.119,857.438 466.119,858.341 467.552,856.39 467.23,860.575 
		466.513,862.998 468.629,861.717 468.308,863.333 469.204,862.714 469.204,863.607 471.491,862.83 471.136,862.206 
		471.604,862.206 471.136,860.257 471.604,860.543 473.261,862.226 474.445,861.824 474.58,860.923 473.325,858.639 
		473.111,857.068 475.549,859.159 476.59,859.588 473.933,855.832 473.111,851.692 475.261,853.547 474.401,850.41 476.518,852.405 
		476.304,850.65 477.45,852.124 475.583,848.222 475.583,846.18 476.483,846.793 476.159,845.177 478.275,846.464 477.556,844.034 
		477.235,839.854 478.669,841.801 478.669,840.896 479.352,841.612 479.064,837.214 479.366,837.672 479.366,829.294 
		463.793,826.04 	"/>
	<polygon fill="#030104" points="458.026,867.415 458.03,867.413 458.026,867.404 	"/>
	<polygon fill="#030104" points="461.461,862.808 461.778,862.998 461.507,862.09 	"/>
	<polygon fill="#030104" points="458.083,867.123 458.105,867.138 458.116,866.964 	"/>
	<rect x="482.117" y="732.757" fill="#030104" width="6.378" height="5.857"/>
	<polygon fill="#030104" points="499.107,853.424 497.39,826.339 482.437,829.155 482.437,841.087 482.617,840.896 482.617,841.801 
		484.052,839.854 483.731,844.034 483.011,846.464 485.127,845.177 484.804,846.793 485.703,846.18 485.703,848.222 
		483.836,852.124 484.985,850.65 484.771,852.405 486.886,850.41 486.026,853.547 488.179,851.692 487.354,855.832 485.87,857.933 
		488.028,857.2 488.179,857.068 488.166,857.15 	"/>
	<path fill="#030104" d="M1152.814-508.35c-3.561-2.651-7.502-3.948-11.291-3.967c-3.748-14.509-16.189-22.404-26.273-16.564
		c-11.699,6.764-14.871,26.458-11.896,40.305c0,0,0,0.007,0.002,0.007c-3.51,2.325-6.635,6.398-8.949,12.474
		c-1.018,2.682-1.582,5.534-1.758,8.419c-0.021,0.324-0.039,0.651-0.049,0.974c-0.012,0.229-0.012,0.457-0.014,0.684
		c-0.004,0.193-0.004,0.391-0.004,0.582c0,0.229,0.008,0.457,0.018,0.688c0.002,0.191,0.01,0.385,0.021,0.579
		c0.008,0.228,0.021,0.457,0.033,0.683c0.014,0.196,0.027,0.393,0.045,0.587c0.02,0.219,0.037,0.446,0.059,0.67
		c0.023,0.232,0.055,0.463,0.08,0.692c0.045,0.358,0.092,0.718,0.148,1.076c0.031,0.203,0.059,0.402,0.092,0.608
		c0.039,0.21,0.08,0.426,0.119,0.644c0.037,0.198,0.076,0.395,0.117,0.592c0.043,0.208,0.088,0.421,0.135,0.629
		c0.047,0.204,0.096,0.404,0.143,0.604c0.051,0.204,0.102,0.4,0.148,0.599c0.063,0.245,0.133,0.485,0.203,0.73
		c0.076,0.274,0.156,0.546,0.244,0.817c0.074,0.243,0.146,0.484,0.229,0.72c0.063,0.182,0.123,0.354,0.189,0.531
		c0.072,0.208,0.145,0.417,0.225,0.623c0.07,0.175,0.135,0.354,0.207,0.524c0.082,0.211,0.168,0.417,0.252,0.624
		c0.07,0.162,0.137,0.322,0.209,0.485c0.107,0.247,0.221,0.487,0.334,0.731c0.055,0.115,0.105,0.228,0.16,0.338
		c0.164,0.34,0.336,0.67,0.51,0.996c0.068,0.132,0.143,0.254,0.209,0.374c0.119,0.222,0.238,0.433,0.363,0.641
		c0.076,0.134,0.156,0.264,0.236,0.393c0.125,0.204,0.248,0.405,0.377,0.598c0.074,0.12,0.154,0.242,0.232,0.363
		c0.148,0.219,0.303,0.439,0.459,0.65c0.063,0.084,0.119,0.171,0.184,0.253c0.217,0.291,0.436,0.577,0.662,0.854
		c0.057,0.07,0.117,0.138,0.182,0.209c0.168,0.207,0.342,0.405,0.518,0.599c0.084,0.091,0.17,0.181,0.254,0.274
		c0.162,0.167,0.322,0.336,0.484,0.496c0.09,0.086,0.176,0.173,0.266,0.257c0.182,0.17,0.359,0.335,0.543,0.497
		c0.072,0.06,0.145,0.127,0.219,0.189c0.258,0.216,0.52,0.426,0.779,0.623c0.045,0.03,0.088,0.059,0.125,0.089
		c0.229,0.164,0.451,0.322,0.684,0.469c0.09,0.056,0.18,0.111,0.271,0.165c0.188,0.115,0.375,0.225,0.566,0.333
		c0.102,0.054,0.197,0.106,0.293,0.156c0.195,0.1,0.396,0.199,0.594,0.288c0.088,0.043,0.182,0.082,0.271,0.116
		c0.285,0.125,0.576,0.237,0.869,0.337c7.293,2.424,13.563-2.76,17.338-10.181c0.146,0.474,0.27,0.896,0.357,1.25l-25.805,52.511
		l-44.084-41.391l-52.129,64.672c-0.076-0.906-0.193-1.817-0.359-2.711c-1.854-9.942-7.973-14.572-13.523-14.601
		c-2.234-8.651-9.648-13.353-15.662-9.874c-6.889,3.981-8.811,15.465-7.148,23.699c-3.057-6.424-9.258-9.499-14.432-6.506
		c-6.977,4.034-8.865,15.771-7.092,24.026v0.004c-2.096,1.386-3.959,3.815-5.336,7.431c-0.605,1.6-0.941,3.3-1.051,5.022
		c-0.012,0.189-0.021,0.386-0.025,0.576c-0.004,0.136-0.004,0.276-0.008,0.41c0,0.118-0.004,0.23,0,0.349
		c0,0.136,0.004,0.272,0.008,0.409c0.002,0.114,0.006,0.229,0.014,0.345c0.004,0.138,0.01,0.271,0.02,0.408
		c0.01,0.115,0.02,0.229,0.025,0.345c0.014,0.137,0.02,0.268,0.033,0.404c0.016,0.136,0.031,0.275,0.049,0.411
		c0.025,0.216,0.057,0.429,0.09,0.642c0.02,0.124,0.033,0.243,0.059,0.357c0.021,0.132,0.047,0.259,0.066,0.39
		c0.021,0.116,0.049,0.231,0.07,0.348c0.021,0.128,0.055,0.255,0.08,0.38c0.021,0.12,0.055,0.241,0.086,0.36
		c0.027,0.118,0.055,0.237,0.09,0.359c0.037,0.143,0.078,0.291,0.119,0.436c0.047,0.162,0.096,0.325,0.146,0.484
		c0.045,0.148,0.094,0.289,0.139,0.433c0.035,0.102,0.072,0.208,0.109,0.316c0.045,0.121,0.092,0.248,0.135,0.368
		c0.041,0.107,0.08,0.209,0.123,0.314c0.051,0.123,0.102,0.25,0.15,0.371c0.039,0.096,0.08,0.191,0.123,0.287
		c0.064,0.149,0.135,0.295,0.201,0.436c0.029,0.071,0.061,0.136,0.092,0.2c0.104,0.204,0.201,0.402,0.309,0.599
		c0.039,0.078,0.08,0.147,0.123,0.226c0.068,0.125,0.146,0.254,0.217,0.378c0.047,0.078,0.094,0.158,0.143,0.235
		c0.074,0.123,0.146,0.236,0.229,0.354c0.045,0.077,0.094,0.146,0.141,0.217c0.088,0.129,0.182,0.261,0.271,0.39
		c0.035,0.05,0.068,0.102,0.105,0.149c0.129,0.171,0.26,0.343,0.396,0.504c0.035,0.048,0.068,0.089,0.104,0.13
		c0.104,0.125,0.207,0.244,0.313,0.356c0.053,0.053,0.102,0.106,0.148,0.159c0.1,0.106,0.191,0.206,0.291,0.301
		c0.051,0.055,0.104,0.107,0.156,0.15c0.104,0.104,0.213,0.204,0.322,0.301c0.045,0.034,0.086,0.073,0.129,0.111
		c0.152,0.129,0.311,0.254,0.467,0.371c0.023,0.018,0.051,0.036,0.074,0.055c0.135,0.097,0.271,0.19,0.404,0.278
		c0.055,0.037,0.105,0.067,0.158,0.096c0.111,0.074,0.229,0.139,0.34,0.2c0.063,0.034,0.117,0.068,0.178,0.095
		c0.115,0.061,0.232,0.118,0.354,0.17c0.053,0.028,0.107,0.055,0.162,0.074c0.17,0.071,0.344,0.14,0.52,0.199
		c4.346,1.442,8.084-1.646,10.334-6.07c0.146,0.469,0.254,0.855,0.295,1.11c0.111,0.714,0.023,9.25-0.117,19.377l-22.451,27.853
		h-1.398v1.735l-13.039,16.179l-3.359,0.122c-0.063-7.706-0.119-15.319-0.119-16.813c1.316,1.218,2.904,1.961,4.75,2.049
		c5.115,0.234,8.791-8.346,7.426-15.687c-1.146-6.145-4.932-9.009-8.359-9.025c-1.381-5.344-5.961-8.25-9.676-6.096
		c-4.313,2.49-5.479,9.742-4.385,14.841v0.004c-1.295,0.854-2.445,2.356-3.295,4.593c-0.377,0.991-0.584,2.04-0.648,3.103
		c-0.008,0.115-0.016,0.236-0.02,0.355c-0.002,0.086-0.002,0.167-0.004,0.253c-0.002,0.072-0.002,0.146-0.002,0.217
		c0,0.082,0.004,0.169,0.006,0.251c0,0.073,0.004,0.145,0.006,0.214c0.006,0.082,0.01,0.165,0.018,0.253
		c0.006,0.071,0.01,0.141,0.018,0.211c0.008,0.086,0.014,0.166,0.021,0.251c0.014,0.084,0.021,0.17,0.029,0.256
		c0.016,0.131,0.031,0.26,0.057,0.391c0.012,0.076,0.02,0.149,0.033,0.227c0.016,0.078,0.027,0.159,0.043,0.236
		c0.018,0.075,0.025,0.145,0.045,0.217c0.018,0.079,0.029,0.155,0.051,0.236c0.016,0.073,0.033,0.146,0.053,0.221
		c0.02,0.071,0.035,0.146,0.055,0.221c0.023,0.086,0.053,0.182,0.076,0.266c0.027,0.106,0.059,0.203,0.088,0.305
		c0.027,0.085,0.063,0.175,0.084,0.263c0.023,0.066,0.051,0.129,0.07,0.196c0.025,0.075,0.055,0.151,0.084,0.229
		c0.021,0.064,0.049,0.126,0.074,0.19c0.029,0.078,0.061,0.156,0.096,0.231c0.021,0.061,0.047,0.12,0.076,0.177
		c0.039,0.093,0.08,0.179,0.123,0.269c0.02,0.043,0.039,0.086,0.059,0.127c0.063,0.125,0.123,0.246,0.188,0.368
		c0.021,0.047,0.051,0.088,0.074,0.137c0.043,0.078,0.09,0.16,0.135,0.233c0.027,0.052,0.061,0.1,0.088,0.146
		c0.045,0.074,0.092,0.148,0.139,0.222c0.031,0.044,0.061,0.088,0.088,0.129c0.059,0.084,0.109,0.164,0.168,0.241
		c0.021,0.032,0.045,0.065,0.068,0.098c0.08,0.104,0.158,0.21,0.244,0.31c0.02,0.027,0.043,0.056,0.063,0.079
		c0.063,0.075,0.125,0.15,0.191,0.219c0.029,0.035,0.063,0.066,0.094,0.102c0.063,0.062,0.117,0.123,0.18,0.183
		c0.031,0.03,0.064,0.065,0.1,0.095c0.063,0.069,0.133,0.127,0.199,0.184c0.023,0.024,0.055,0.046,0.08,0.07
		c0.096,0.08,0.188,0.158,0.287,0.229c0.016,0.01,0.027,0.021,0.045,0.032c0.084,0.063,0.168,0.118,0.252,0.173
		c0.031,0.022,0.064,0.04,0.1,0.061c0.07,0.042,0.139,0.082,0.211,0.123c0.035,0.023,0.072,0.037,0.107,0.058
		c0.07,0.036,0.146,0.07,0.219,0.105c0.031,0.018,0.063,0.03,0.1,0.043c0.105,0.046,0.213,0.088,0.32,0.122
		c2.686,0.893,4.996-1.013,6.385-3.75c0.092,0.292,0.156,0.53,0.186,0.687c0.086,0.536-0.014,8.248-0.141,16.174l-24.84,0.906
		v-81.173v-1.533v-12.714h-6.438v-49.606h-3.373v49.606h-6.438v12.714h-16.252v51.203h-10.66v-17.453h-21.289v-5.163h0.234v-3.512
		h0.771v-4.64h-1.01v-2.681c0.689-0.675,1.146-1.839,1.146-3.165c0-2.084-1.121-3.776-2.508-3.776c-1.389,0-2.51,1.691-2.51,3.776
		c0,1.326,0.457,2.49,1.146,3.165v1.697c-2.859-0.816-5.871-3.824-8.223-8.436h0.021c-0.52-1.022-1.018-2.092-1.463-3.262
		c-0.27-0.694-0.502-1.394-0.723-2.101c0.371-0.978,0.592-2.068,0.592-3.223c0-3.11-3.352-6.89-5.082-11.103
		c-0.219-0.523-0.604-0.842-1.008-0.842h-0.021c-0.418,0-0.805,0.326-1.023,0.857c-1.736,4.207-5.078,7.982-5.078,11.087
		c0,1.047,0.182,2.035,0.49,2.949c-0.277,0.939-0.576,1.879-0.934,2.805c-0.385,1.007-0.807,1.937-1.246,2.833h0.012
		c-2.285,4.668-5.25,7.768-8.098,8.748v-2.009c0.688-0.675,1.146-1.839,1.146-3.165c0-2.084-1.125-3.776-2.512-3.776
		c-1.385,0-2.508,1.691-2.508,3.776c0,1.326,0.459,2.49,1.145,3.165v2.681h-1.145v4.64h1.113v3.512h0.027v45.948h-2.65v-16.197
		h-12.947v-64.453l-21.887-16.495h-41.035v13.333H607.139v-66.054h-4.165h-2.604h-3.019h-2.188v-27.454h-31.748v39.22h-1.712h-2.026
		h-2.354h-2.027h-2.805v1.441h-1.14v-61.952h-8.458v-71.42h-2.741v71.42h-5.479v-61.095h-2.74v61.095h-6.277v61.952h-8.907v45.396
		h-19.397v-8.301h-1.563v-67.916h-24.204h-61.479l-8.97,199.794l-3.375,2.547v-78.239l-13.568-29.977
		c0.688-0.245,1.208-1.175,1.208-2.289c0-1.305-0.702-2.363-1.567-2.363h-0.347v-20.467l-2.089,20.467h-0.177
		c-0.861,0-1.021,4.466-0.303,4.674l-67.646,7.311l-2.455-15.028h2.455l-3.548-11.884h2.183l-4.913-11.476h3.001l-4.909-14.754
		h1.907l-3.819-12.979h2.729l-4.367-11.199h3.002l-5.183-11.063h2.455l-5.73-18.85l-5.729,18.85h2.457l-5.185,11.063h3
		l-4.365,11.199h2.729l-3.818,12.979h1.907l-4.909,14.754h3.002l-4.91,11.476h2.181l-2.589,8.67
		c-2.809-1.376-5.719-2.621-8.723-3.736l-2.095-4.889h1.761l-2.88-8.661h1.119l-2.241-7.612h1.604l-2.563-6.575h1.761l-3.041-6.491
		h1.44L262.632-411l-3.362,11.062h1.439l-3.042,6.491h1.762l-2.562,6.575h1.599l-2.24,7.612h1.121l-2.881,8.661h1.76l-0.295,0.69
		c-16.354-3.072-35.209-2.187-56.91,4.434c0,0-14.786-133.953-128.725-174.25l-1.375-4.125h1.908l-3.816-12.975h2.729l-4.368-11.2
		h3.001l-5.183-11.068h2.455l-5.729-18.854l-5.73,18.854h2.454l-5.182,11.067h3l-4.367,11.199h2.729l-3.266,11.097
		c-14.992-3.428-31.469-5.333-49.565-5.333V913.598h2.532V790.972l97.709-17.646l106.285-82.408l1.908,2.901
		c1.312-2.029,3.254-3.325,5.428-3.325h4.08c3.945,0,7.143-4.235,7.143-9.465v-10.817c0-5.228,3.196-9.467,7.14-9.467
		s7.137-4.233,7.137-9.459v-2.706c0-5.227,3.199-9.464,7.145-9.464h39.777c4.507,0,8.16,4.842,8.16,10.813
		c0,5.979,3.652,10.82,8.158,10.82h2.041c4.507,0,8.158,4.841,8.158,10.816v8.113c0,5.975,3.655,10.815,8.162,10.815h3.059
		c4.511,0,8.161,4.842,8.161,10.815v51.456c0,20.904,12.786,37.854,28.563,37.854v-35.903c0-10.077,6.165-18.253,13.77-18.253
		s13.771,8.176,13.771,18.253v20.717c0,17.047,10.426,30.862,23.284,30.862c5.167,0,9.354,5.554,9.354,12.399v43.962l5.387,3.462
		l-0.241-3.172l1.338,1.814v-0.84l0.636,0.666l-0.27-4.104l0.972,1.486l0.504-2.713l0.501,2.713l0.969-1.486l-0.267,4.104
		l0.636-0.666v0.84l1.338-1.814l-0.3,3.901l-0.67,2.265l1.974-1.198l-0.3,1.507l0.836-0.574v1.906l-0.104,0.214l4.757,3.059
		l3.109-1.06l-0.07-0.308l0.349,0.21l2.398-0.816l-0.562-1.01l-0.216-1.574l2.377,2.043l0.615-0.209l-2.168-3.067l-0.824-4.138
		l2.15,1.854l-0.86-3.136l2.119,1.995l-0.216-1.758l1.146,1.473l-1.865-3.899v-2.046l0.896,0.62l-0.321-1.618l2.115,1.284
		l-0.718-2.427l-0.321-4.185l1.435,1.95v-0.904l0.686,0.717l-0.287-4.4l1.039,1.594l0.541-2.908l0.537,2.908l1.04-1.594l-0.285,4.4
		l0.679-0.717v0.904l1.438-1.95l-0.321,4.185l-0.718,2.427l2.113-1.284l-0.32,1.618l0.896-0.62v2.046l-1.863,3.899l1.146-1.473
		l-0.216,1.758l2.119-1.995l-0.862,3.136l1.741-1.498l2.478-39.046l-1.098-0.235l0.267-2.249l0.979,0.201l1.993-31.433l-1.347-0.307
		l0.281-2.146l1.202,0.271l1.657-26.127h-0.555v-19.399h-1.25v-3.984h3.631v-7.246h-5.633v-4.073h5.633v-5.672h-5.016l11.529-6.623
		v-23.726h1.229v3.021h5.232v2.188h3.307v7.16h-5.846v-2.188h-2.693v12.832l6.759-3.88l18.647,11.214h-5.014v5.672h6.267v4.07
		h-6.267v7.248h4.264v3.982h-1.25v19.401h-1.188l1.684,26.521l3.25-0.674l0.253,2.157l-3.365,0.696l1.991,31.403l3.026-0.571
		l0.243,2.261l-3.125,0.583l1.689,26.634l60.364-20.563c0,0,106.077-102.604,109.137-103.965
		c3.063-1.35,89.139-40.561,89.139-40.561l23.129,14.198c3.645-2.708,7.848-4.265,12.322-4.265v-71.062
		c0-11.545,7.063-20.904,15.771-20.904s15.77,9.357,15.77,20.904v52.717c0,5.196,3.182,9.407,7.102,9.407
		c3.918,0,7.094-4.211,7.094-9.407v-95.05c0-2.601,1.59-4.698,3.551-4.698c1.957,0,3.547-2.106,3.547-4.706v-40.763
		c0-2.595,1.586-4.701,3.551-4.701c6.313,0,11.434-6.784,11.434-15.158V497.1c0-2.602,1.586-4.706,3.547-4.706h15.375
		c15.24,0,27.596,16.381,27.596,36.582c6.531,0,11.826,7.019,11.826,15.679v119.494c0,9.813,6,17.769,13.404,17.769v-12.886
		c0-11.171,6.83-20.226,15.256-20.226c5.508,0,9.971-5.919,9.971-13.224c0-16.735,10.24-30.307,22.867-30.307h8.672
		c16.549,0,29.961,17.779,29.961,39.718v101.174l0.666-0.697v2.452l3.896-5.288l-0.877,11.353l-1.945,6.579l5.742-3.485
		l-0.877,4.387l2.434-1.68v5.548l-5.063,10.579l3.115-4l-0.586,4.773l5.74-5.418l-2.336,8.519l5.838-5.033l-2.234,11.224
		l-4.566,6.467l1.914,1.084l4.893-4.192l-0.584,4.254l-0.998,1.823l5.773,3.277l1.158-0.712l-0.285,1.205l183.182,104.013V-658.273
		L1152.814-508.35z M960.277-322.042c-0.059-7.449-0.104-13.392-0.104-14.99c2.135,1.971,4.699,3.183,7.688,3.314
		c0.676,0.03,1.336-0.041,1.979-0.193L960.277-322.042z M981.787-348.731c-0.018-2.711-0.027-4.674-0.029-5.498
		c0.873,0.81,1.824,1.481,2.846,2.011L981.787-348.731z"/>
	<polygon fill="#030104" points="482.437,795.36 482.437,826.854 497.245,824.066 495.255,792.709 	"/>
	<polygon fill="#030104" points="482.902,763.386 482.902,770.525 482.437,770.525 482.437,793.151 495.118,790.532 
		493.395,763.386 	"/>
</g>
<line fill="none" x1="415.297" y1="1483.509" x2="401.14" y2="1481.701"/>
</svg>
