<?xml version="1.0" encoding="utf-8"?>
<!-- Generator: Adobe Illustrator 16.0.0, SVG Export Plug-In . SVG Version: 6.00 Build 0)  -->
<!DOCTYPE svg PUBLIC "-//W3C//DTD SVG 1.1//EN" "http://www.w3.org/Graphics/SVG/1.1/DTD/svg11.dtd">
<svg version="1.1" id="Capa_1" xmlns="http://www.w3.org/2000/svg" xmlns:xlink="http://www.w3.org/1999/xlink" x="0px" y="0px"
	 width="1226.504px" height="775.441px" viewBox="0 0 1226.504 775.441" enable-background="new 0 0 1226.504 775.441"
	 xml:space="preserve">
<g opacity="0.15">
	<polygon fill="#030104" points="1704.779,1134.386 1703.078,1161.212 1716.374,1164.252 1716.374,1141.525 1710.653,1141.525 
		1710.653,1134.386 	"/>
	<polygon fill="#030104" points="1700.949,1194.761 1716.374,1197.986 1716.374,1166.465 1702.94,1163.388 	"/>
	<polygon fill="#030104" points="1698.788,1228.811 1699.18,1229.341 1699.18,1228.438 1699.861,1229.148 1699.575,1224.753 
		1700.615,1226.345 1701.154,1223.438 1701.692,1226.345 1702.732,1224.753 1702.444,1229.148 1703.127,1228.438 1703.127,1229.341 
		1704.561,1227.39 1704.238,1231.575 1703.521,1233.998 1705.638,1232.717 1705.316,1234.333 1706.212,1233.714 1706.212,1234.607 
		1708.499,1233.83 1708.144,1233.206 1708.612,1233.206 1708.144,1231.257 1708.612,1231.543 1710.27,1233.226 1711.453,1232.824 
		1711.588,1231.923 1710.333,1229.639 1710.119,1228.068 1712.558,1230.159 1713.599,1230.588 1710.941,1226.832 1710.119,1222.692 
		1712.27,1224.547 1711.409,1221.41 1713.526,1223.405 1713.313,1221.65 1714.458,1223.124 1712.592,1219.222 1712.592,1217.18 
		1713.491,1217.793 1713.167,1216.177 1715.283,1217.464 1714.565,1215.034 1714.243,1210.854 1715.678,1212.801 1715.678,1211.896 
		1716.36,1212.612 1716.072,1208.214 1716.374,1208.672 1716.374,1200.294 1700.802,1197.04 	"/>
	<polygon fill="#030104" points="1695.034,1238.415 1695.038,1238.413 1695.034,1238.404 	"/>
	<polygon fill="#030104" points="1698.47,1233.808 1698.786,1233.998 1698.516,1233.09 	"/>
	<polygon fill="#030104" points="1695.092,1238.123 1695.113,1238.138 1695.124,1237.964 	"/>
	<rect x="1719.125" y="1103.757" fill="#030104" width="6.378" height="5.857"/>
	<polygon fill="#030104" points="1736.115,1224.424 1734.398,1197.339 1719.445,1200.155 1719.445,1212.087 1719.625,1211.896 
		1719.625,1212.801 1721.06,1210.854 1720.739,1215.034 1720.02,1217.464 1722.136,1216.177 1721.813,1217.793 1722.711,1217.18 
		1722.711,1219.222 1720.845,1223.124 1721.993,1221.65 1721.779,1223.405 1723.895,1221.41 1723.034,1224.547 1725.188,1222.692 
		1724.362,1226.832 1722.878,1228.933 1725.036,1228.2 1725.188,1228.068 1725.174,1228.15 	"/>
	<path fill="#030104" d="M2389.823-137.35c-3.56-2.651-7.503-3.948-11.292-3.967c-3.748-14.509-16.188-22.404-26.273-16.564
		c-11.699,6.764-14.87,26.458-11.896,40.305c0,0,0,0.007,0.002,0.007c-3.511,2.325-6.636,6.398-8.949,12.474
		c-1.019,2.682-1.582,5.534-1.759,8.419c-0.021,0.324-0.038,0.651-0.048,0.974c-0.011,0.229-0.011,0.457-0.013,0.684
		c-0.004,0.193-0.005,0.391-0.004,0.582c0,0.229,0.006,0.457,0.017,0.688c0.002,0.191,0.01,0.385,0.021,0.579
		c0.007,0.228,0.021,0.457,0.033,0.683c0.014,0.196,0.027,0.393,0.046,0.587c0.019,0.219,0.036,0.446,0.058,0.67
		c0.023,0.232,0.055,0.463,0.08,0.692c0.045,0.358,0.091,0.718,0.148,1.076c0.031,0.203,0.059,0.402,0.092,0.608
		c0.039,0.21,0.081,0.426,0.119,0.644c0.038,0.198,0.076,0.395,0.117,0.592c0.043,0.208,0.089,0.421,0.135,0.629
		c0.047,0.204,0.096,0.404,0.143,0.604c0.051,0.204,0.102,0.4,0.148,0.599c0.063,0.245,0.134,0.485,0.203,0.73
		c0.076,0.274,0.156,0.546,0.244,0.817c0.075,0.243,0.148,0.484,0.23,0.72c0.061,0.182,0.122,0.354,0.188,0.531
		c0.073,0.208,0.146,0.417,0.226,0.623c0.069,0.175,0.135,0.353,0.206,0.524c0.082,0.211,0.169,0.417,0.253,0.624
		c0.07,0.162,0.137,0.322,0.208,0.485c0.108,0.247,0.222,0.487,0.335,0.731c0.055,0.115,0.104,0.228,0.159,0.338
		c0.165,0.34,0.336,0.67,0.511,0.996c0.068,0.132,0.142,0.254,0.209,0.374c0.118,0.222,0.238,0.433,0.362,0.641
		c0.076,0.134,0.157,0.264,0.237,0.393c0.124,0.204,0.248,0.405,0.377,0.598c0.075,0.12,0.155,0.242,0.232,0.363
		c0.149,0.219,0.304,0.439,0.459,0.65c0.063,0.084,0.119,0.171,0.183,0.253c0.217,0.291,0.437,0.577,0.662,0.854
		c0.058,0.07,0.119,0.138,0.183,0.209c0.168,0.207,0.341,0.405,0.517,0.599c0.084,0.091,0.169,0.181,0.253,0.274
		c0.162,0.167,0.324,0.336,0.485,0.496c0.09,0.086,0.176,0.173,0.265,0.257c0.182,0.17,0.361,0.335,0.543,0.497
		c0.073,0.06,0.146,0.127,0.22,0.189c0.258,0.216,0.519,0.426,0.778,0.623c0.046,0.03,0.089,0.059,0.125,0.089
		c0.229,0.164,0.453,0.322,0.685,0.469c0.089,0.056,0.18,0.111,0.27,0.165c0.188,0.115,0.376,0.225,0.567,0.333
		c0.101,0.054,0.197,0.106,0.294,0.156c0.195,0.1,0.396,0.199,0.594,0.288c0.088,0.043,0.18,0.082,0.271,0.116
		c0.284,0.125,0.575,0.237,0.868,0.337c7.293,2.424,13.563-2.76,17.338-10.181c0.147,0.474,0.271,0.896,0.358,1.25l-25.804,52.511
		l-44.084-41.391l-52.129,64.672c-0.076-0.906-0.193-1.817-0.359-2.711c-1.854-9.942-7.974-14.572-13.525-14.601
		c-2.234-8.651-9.648-13.353-15.661-9.874c-6.889,3.981-8.811,15.465-7.15,23.699c-3.055-6.424-9.257-9.499-14.431-6.506
		c-6.977,4.034-8.866,15.771-7.092,24.026v0.004c-2.096,1.386-3.958,3.815-5.336,7.431c-0.606,1.6-0.941,3.3-1.051,5.022
		c-0.012,0.189-0.021,0.386-0.025,0.576c-0.003,0.136-0.003,0.276-0.008,0.41c0,0.118-0.004,0.23,0,0.349
		c0,0.136,0.005,0.272,0.008,0.409c0.002,0.114,0.006,0.229,0.013,0.345c0.005,0.138,0.011,0.271,0.021,0.408
		c0.01,0.115,0.018,0.229,0.024,0.345c0.014,0.137,0.021,0.268,0.035,0.404c0.014,0.136,0.031,0.275,0.047,0.411
		c0.027,0.216,0.057,0.429,0.09,0.642c0.02,0.124,0.034,0.243,0.06,0.357c0.021,0.132,0.046,0.259,0.065,0.39
		c0.022,0.116,0.05,0.231,0.071,0.348c0.021,0.128,0.054,0.255,0.08,0.38c0.022,0.12,0.054,0.241,0.086,0.36
		c0.027,0.118,0.055,0.237,0.089,0.359c0.037,0.143,0.079,0.291,0.12,0.436c0.046,0.162,0.095,0.325,0.146,0.484
		c0.045,0.148,0.093,0.289,0.139,0.433c0.036,0.102,0.072,0.208,0.109,0.316c0.045,0.121,0.092,0.248,0.136,0.368
		c0.041,0.107,0.08,0.209,0.123,0.314c0.05,0.123,0.1,0.25,0.15,0.371c0.039,0.096,0.08,0.191,0.123,0.287
		c0.064,0.149,0.134,0.295,0.201,0.436c0.029,0.071,0.061,0.136,0.091,0.2c0.104,0.204,0.202,0.402,0.31,0.599
		c0.038,0.078,0.079,0.147,0.123,0.226c0.068,0.125,0.145,0.254,0.216,0.378c0.047,0.078,0.094,0.158,0.142,0.235
		c0.074,0.123,0.147,0.236,0.229,0.354c0.044,0.077,0.093,0.146,0.14,0.217c0.089,0.129,0.182,0.261,0.273,0.39
		c0.034,0.05,0.067,0.102,0.105,0.149c0.129,0.171,0.26,0.343,0.396,0.504c0.035,0.048,0.069,0.089,0.104,0.13
		c0.104,0.125,0.207,0.244,0.313,0.356c0.051,0.053,0.101,0.106,0.148,0.159c0.099,0.106,0.192,0.206,0.29,0.301
		c0.052,0.055,0.104,0.107,0.156,0.15c0.104,0.104,0.214,0.204,0.323,0.301c0.045,0.034,0.086,0.073,0.129,0.111
		c0.152,0.129,0.311,0.254,0.466,0.371c0.025,0.018,0.052,0.036,0.075,0.055c0.135,0.097,0.271,0.19,0.405,0.278
		c0.054,0.037,0.104,0.067,0.158,0.096c0.111,0.074,0.228,0.139,0.339,0.2c0.062,0.034,0.117,0.068,0.179,0.095
		c0.114,0.061,0.231,0.118,0.353,0.17c0.053,0.028,0.107,0.055,0.162,0.074c0.169,0.071,0.343,0.14,0.519,0.199
		c4.346,1.442,8.084-1.646,10.334-6.07c0.147,0.469,0.255,0.855,0.295,1.11c0.111,0.714,0.024,9.25-0.118,19.377l-22.45,27.853
		h-1.398v1.735l-13.039,16.179l-3.36,0.122c-0.062-7.706-0.119-15.319-0.119-16.813c1.317,1.218,2.904,1.961,4.749,2.049
		c5.116,0.234,8.792-8.346,7.426-15.687c-1.146-6.145-4.931-9.009-8.359-9.025c-1.381-5.344-5.962-8.25-9.676-6.096
		c-4.312,2.49-5.479,9.742-4.385,14.841v0.004c-1.294,0.854-2.444,2.356-3.295,4.593c-0.376,0.991-0.584,2.04-0.648,3.103
		c-0.008,0.115-0.015,0.236-0.019,0.355c-0.003,0.086-0.003,0.167-0.004,0.253c-0.002,0.072-0.002,0.146-0.002,0.217
		c0,0.082,0.003,0.169,0.006,0.251c0,0.073,0.004,0.145,0.005,0.214c0.006,0.082,0.01,0.165,0.018,0.253
		c0.005,0.071,0.01,0.141,0.018,0.211c0.007,0.086,0.013,0.166,0.021,0.251c0.013,0.084,0.021,0.17,0.028,0.256
		c0.016,0.131,0.032,0.26,0.057,0.391c0.013,0.076,0.021,0.149,0.033,0.227c0.017,0.078,0.029,0.159,0.044,0.236
		c0.017,0.075,0.026,0.145,0.044,0.217c0.018,0.079,0.03,0.155,0.051,0.236c0.016,0.073,0.033,0.146,0.053,0.221
		c0.019,0.071,0.036,0.146,0.056,0.221c0.022,0.086,0.052,0.182,0.075,0.266c0.027,0.106,0.058,0.203,0.089,0.305
		c0.027,0.085,0.061,0.175,0.083,0.263c0.023,0.066,0.05,0.129,0.07,0.196c0.025,0.075,0.055,0.151,0.084,0.229
		c0.022,0.064,0.05,0.126,0.075,0.19c0.029,0.078,0.061,0.156,0.096,0.231c0.021,0.061,0.047,0.12,0.075,0.177
		c0.04,0.093,0.08,0.179,0.123,0.269c0.02,0.043,0.039,0.086,0.059,0.127c0.063,0.125,0.123,0.246,0.188,0.368
		c0.021,0.047,0.05,0.088,0.073,0.137c0.043,0.078,0.091,0.16,0.135,0.233c0.027,0.052,0.061,0.1,0.088,0.146
		c0.046,0.074,0.092,0.148,0.139,0.222c0.031,0.044,0.061,0.088,0.089,0.129c0.057,0.084,0.109,0.164,0.167,0.241
		c0.022,0.032,0.045,0.065,0.068,0.098c0.08,0.104,0.159,0.21,0.244,0.31c0.021,0.027,0.043,0.056,0.063,0.079
		c0.063,0.075,0.126,0.15,0.192,0.219c0.028,0.035,0.063,0.066,0.093,0.102c0.063,0.062,0.118,0.123,0.181,0.183
		c0.03,0.03,0.063,0.065,0.098,0.095c0.063,0.069,0.133,0.127,0.2,0.184c0.023,0.024,0.055,0.046,0.08,0.07
		c0.095,0.08,0.188,0.158,0.287,0.229c0.016,0.01,0.028,0.021,0.045,0.032c0.085,0.063,0.169,0.118,0.252,0.173
		c0.032,0.022,0.064,0.04,0.1,0.061c0.069,0.042,0.139,0.082,0.211,0.123c0.035,0.023,0.072,0.037,0.107,0.058
		c0.07,0.036,0.146,0.07,0.218,0.105c0.032,0.018,0.064,0.03,0.101,0.043c0.104,0.046,0.212,0.088,0.319,0.122
		c2.686,0.893,4.996-1.013,6.385-3.75c0.093,0.292,0.157,0.53,0.185,0.687c0.086,0.536-0.013,8.248-0.14,16.174l-24.84,0.906V20.288
		v-1.533V6.041h-6.437v-49.606h-3.373V6.041h-6.438v12.714h-16.251v51.203h-10.66V52.505h-21.29v-5.163h0.234V43.83h0.773v-4.64
		h-1.011v-2.681c0.689-0.675,1.146-1.839,1.146-3.165c0-2.084-1.121-3.776-2.507-3.776c-1.388,0-2.51,1.691-2.51,3.776
		c0,1.326,0.458,2.49,1.146,3.165v1.697c-2.858-0.816-5.871-3.824-8.221-8.436h0.021c-0.519-1.022-1.018-2.092-1.464-3.262
		c-0.269-0.694-0.502-1.394-0.722-2.101c0.371-0.978,0.592-2.068,0.592-3.223c0-3.11-3.351-6.89-5.083-11.103
		c-0.217-0.523-0.602-0.842-1.007-0.842h-0.021c-0.419,0-0.806,0.326-1.023,0.857c-1.737,4.207-5.079,7.982-5.079,11.087
		c0,1.047,0.181,2.035,0.491,2.949c-0.278,0.939-0.577,1.879-0.935,2.805c-0.384,1.007-0.806,1.937-1.246,2.833h0.013
		c-2.285,4.668-5.25,7.768-8.098,8.748v-2.009c0.688-0.675,1.146-1.839,1.146-3.165c0-2.084-1.124-3.776-2.511-3.776
		c-1.386,0-2.509,1.691-2.509,3.776c0,1.326,0.46,2.49,1.146,3.165v2.681h-1.146v4.64h1.113v3.512h0.029V93.29h-2.652V77.093
		h-12.947V12.64l-21.887-16.495h-41.034V9.478h-100.435v-66.054h-4.165h-2.604h-3.018h-2.188V-84.03h-31.748v39.22h-1.712h-2.026
		h-2.354h-2.027h-2.805v1.441h-1.139v-61.952h-8.458v-71.42h-2.742v71.42h-5.479v-61.095h-2.74v61.095h-6.278v61.952h-8.907V2.027
		h-19.397v-8.301h-1.564V-74.19h-24.204h-61.479l-8.97,199.794l-3.375,2.547V49.912L1621.2,19.935
		c0.689-0.245,1.208-1.175,1.208-2.289c0-1.305-0.702-2.363-1.567-2.363h-0.347V-5.184l-2.089,20.467h-0.176
		c-0.862,0-1.021,4.466-0.303,4.674l-67.646,7.311l-2.455-15.028h2.455l-3.548-11.884h2.183l-4.913-11.476h3.001l-4.909-14.754
		h1.907l-3.819-12.979h2.729l-4.367-11.199h3.002l-5.183-11.063h2.455l-5.73-18.85l-5.729,18.85h2.457l-5.184,11.063h3
		l-4.365,11.199h2.729l-3.818,12.979h1.907l-4.909,14.754h3.002l-4.91,11.476h2.18l-2.588,8.67
		c-2.809-1.376-5.719-2.621-8.723-3.736l-2.095-4.889h1.761l-2.88-8.661h1.119l-2.241-7.612h1.604l-2.563-6.575h1.761l-3.041-6.491
		h1.44L1499.641-40l-3.363,11.062h1.44l-3.042,6.491h1.762l-2.562,6.575h1.599l-2.24,7.612h1.121l-2.881,8.661h1.76l-0.295,0.69
		c-16.355-3.072-35.209-2.187-56.91,4.434c0,0-14.787-133.953-128.725-174.25l-1.375-4.125h1.908l-3.816-12.975h2.729l-4.368-11.2
		h3.001l-5.183-11.068h2.456l-5.729-18.854l-5.731,18.854h2.455l-5.182,11.067h3l-4.367,11.199h2.729l-3.265,11.097
		c-14.993-3.428-31.469-5.333-49.566-5.333v1464.661h2.533v-122.626l97.708-17.647l106.286-82.408l1.908,2.901
		c1.311-2.029,3.254-3.325,5.428-3.325h4.08c3.945,0,7.142-4.235,7.142-9.465v-10.817c0-5.228,3.197-9.467,7.14-9.467
		s7.137-4.233,7.137-9.459v-2.706c0-5.227,3.199-9.464,7.144-9.464h39.778c4.507,0,8.16,4.842,8.16,10.813
		c0,5.979,3.652,10.82,8.158,10.82h2.041c4.507,0,8.158,4.841,8.158,10.816v8.113c0,5.975,3.656,10.816,8.162,10.816h3.059
		c4.511,0,8.161,4.842,8.161,10.815v51.456c0,20.905,12.786,37.854,28.563,37.854v-35.903c0-10.078,6.165-18.253,13.769-18.253
		c7.605,0,13.771,8.175,13.771,18.253v20.716c0,17.047,10.425,30.863,23.284,30.863c5.167,0,9.354,5.553,9.354,12.399v43.962
		l5.387,3.462l-0.241-3.172l1.338,1.814v-0.84l0.635,0.667l-0.269-4.104l0.972,1.486l0.503-2.712l0.501,2.712l0.969-1.486
		l-0.267,4.104l0.636-0.667v0.84l1.338-1.814l-0.3,3.901l-0.67,2.265l1.974-1.198l-0.3,1.507l0.836-0.575v1.906l-0.103,0.214
		l4.757,3.059l3.109-1.06l-0.07-0.307l0.348,0.21l2.399-0.816l-0.562-1.01l-0.216-1.575l2.377,2.043l0.615-0.209l-2.168-3.067
		l-0.824-4.138l2.151,1.854l-0.861-3.136l2.119,1.995l-0.215-1.758l1.146,1.473l-1.865-3.899v-2.046l0.896,0.62l-0.321-1.618
		l2.115,1.284l-0.717-2.427l-0.322-4.184l1.435,1.95v-0.904l0.685,0.716l-0.287-4.4l1.039,1.594l0.541-2.908l0.537,2.908l1.04-1.594
		l-0.285,4.4l0.679-0.716v0.904l1.438-1.95l-0.322,4.184l-0.718,2.427l2.114-1.284l-0.321,1.618l0.896-0.62v2.046l-1.863,3.899
		l1.146-1.473l-0.216,1.758l2.119-1.995l-0.862,3.136l1.742-1.498l2.477-39.046l-1.098-0.235l0.267-2.249l0.979,0.201l1.993-31.433
		l-1.347-0.307l0.281-2.146l1.202,0.271l1.658-26.127h-0.555v-19.399h-1.25v-3.984h3.631v-7.246h-5.633v-4.074h5.633v-5.671h-5.016
		l11.529-6.624v-23.725h1.229v3.021h5.232v2.189h3.307v7.16h-5.846v-2.188h-2.693v12.833l6.759-3.88l18.647,11.213h-5.014v5.672
		h6.267v4.071h-6.267v7.248h4.264v3.982h-1.25v19.401h-1.188l1.683,26.521l3.25-0.674l0.253,2.157l-3.365,0.696l1.991,31.404
		l3.026-0.571l0.244,2.26l-3.125,0.583l1.689,26.634l60.364-20.563c0,0,106.077-102.605,109.137-103.965
		c3.063-1.35,89.139-40.561,89.139-40.561l23.129,14.198c3.645-2.708,7.848-4.264,12.323-4.264v-71.062
		c0-11.545,7.062-20.904,15.77-20.904c8.709,0,15.77,9.357,15.77,20.904v52.717c0,5.196,3.182,9.407,7.101,9.407
		c3.918,0,7.095-4.211,7.095-9.407v-95.05c0-2.6,1.59-4.698,3.55-4.698c1.958,0,3.548-2.107,3.548-4.706v-40.763
		c0-2.595,1.586-4.701,3.549-4.701c6.313,0,11.435-6.784,11.435-15.158V868.1c0-2.602,1.586-4.706,3.547-4.706h15.375
		c15.24,0,27.595,16.38,27.595,36.582c6.532,0,11.826,7.018,11.826,15.678v119.494c0,9.813,6.001,17.769,13.405,17.769v-12.886
		c0-11.171,6.829-20.225,15.255-20.225c5.508,0,9.972-5.919,9.972-13.224c0-16.735,10.239-30.307,22.866-30.307h8.673
		c16.548,0,29.961,17.78,29.961,39.718v101.174l0.665-0.697v2.452l3.896-5.288l-0.876,11.352l-1.946,6.579l5.742-3.485l-0.876,4.387
		l2.433-1.68v5.548l-5.063,10.579l3.115-4l-0.586,4.774l5.741-5.418l-2.335,8.518l5.838-5.033l-2.236,11.224l-4.565,6.466
		l1.913,1.084l4.892-4.192l-0.583,4.254l-0.999,1.823l5.774,3.277l1.158-0.711l-0.285,1.205l183.182,104.012v-1561.47
		L2389.823-137.35z M2197.286,48.958c-0.058-7.449-0.103-13.392-0.104-14.99c2.135,1.971,4.7,3.183,7.688,3.314
		c0.676,0.03,1.336-0.041,1.979-0.193L2197.286,48.958z M2218.796,22.269c-0.018-2.711-0.028-4.674-0.03-5.498
		c0.873,0.81,1.824,1.481,2.845,2.011L2218.796,22.269z"/>
	<polygon fill="#030104" points="1719.445,1166.36 1719.445,1197.854 1734.253,1195.066 1732.264,1163.709 	"/>
	<polygon fill="#030104" points="1719.91,1134.386 1719.91,1141.525 1719.445,1141.525 1719.445,1164.151 1732.126,1161.532 
		1730.403,1134.386 	"/>
</g>
<line fill="none" x1="415.297" y1="1483.509" x2="401.14" y2="1481.701"/>
</svg>
