<svg id="Capa_1" data-name="Capa 1" xmlns="http://www.w3.org/2000/svg" viewBox="0 0 1920 376.64"><defs><style>.cls-1{fill:#0c5b7e;}</style></defs><title>bk_03</title><path class="cls-1" d="M1536.27,1068.93l4.4-4.12a21.48,21.48,0,0,1-4.45-2.38C1536.23,1063.41,1536.24,1065.73,1536.27,1068.93Z" transform="translate(0.49 -703.36)"/><path class="cls-1" d="M1786.53,875.6c-5.87-17.15-25.36-26.48-41.16-19.58-18.33,8-23.3,31.27-18.64,47.63h0c-5.5,2.75-10.4,7.56-14,14.74a26.88,26.88,0,0,0-2.76,10c0,0.38-.06.77-0.07,1.15s0,0.54,0,.81,0,0.46,0,.69,0,0.54,0,.81,0,0.46,0,.69,0,0.54.05,0.81,0,0.46.07,0.69l0.09,0.79c0,0.27.08,0.55,0.12,0.82,0.07,0.43.14,0.85,0.23,1.27,0,0.24.09,0.48,0.15,0.72l0.19,0.76c0.06,0.23.12,0.47,0.18,0.7s0.14,0.5.21,0.75l0.22,0.71,0.23,0.71,0.32,0.86c0.12,0.32.25,0.64,0.38,1s0.24,0.57.36,0.85,0.19,0.42.29,0.63l0.35,0.74c0.11,0.21.21,0.41,0.32,0.62l0.4,0.74,0.32,0.57q0.26,0.44.53,0.87l0.25,0.4q0.39,0.6.8,1.18l0.33,0.44c0.19,0.26.37,0.51,0.57,0.76l0.37,0.46c0.2,0.24.39,0.48,0.59,0.71l0.37,0.43q0.35,0.4.72,0.77l0.28,0.3c0.34,0.34.68,0.68,1,1l0.29,0.25c0.26,0.24.53,0.48,0.81,0.71l0.4,0.32,0.76,0.59,0.41,0.3,0.85,0.59,0.34,0.23c0.4,0.25.81,0.5,1.22,0.74l0.2,0.1c0.36,0.19.71,0.38,1.07,0.56l0.42,0.2,0.89,0.39,0.46,0.19,0.93,0.34,0.42,0.14c0.45,0.15.9,0.28,1.36,0.4,11.43,2.87,21.25-3.26,27.16-12,0.24,0.56.43,1.06,0.57,1.48L1718.39,1012l-69.07-48.92-81.67,76.43a25.16,25.16,0,0,0-.56-3.21c-2.9-11.75-12.49-17.22-21.19-17.26-3.5-10.22-15.12-15.78-24.54-11.67-10.79,4.7-13.8,18.28-11.2,28-4.79-7.59-14.5-11.23-22.61-7.69-10.92,4.77-13.89,18.64-11.11,28.39h0a19,19,0,0,0-8.36,8.78,16,16,0,0,0-1.64,5.93c0,0.23,0,.46,0,0.69s0,0.32,0,.48,0,0.28,0,.41,0,0.32,0,.48,0,0.27,0,.41,0,0.32,0,.48l0,0.41c0,0.16,0,.32.05,0.48s0.05,0.32.08,0.48,0.09,0.51.14,0.76,0.06,0.28.09,0.42,0.07,0.3.11,0.46l0.11,0.41c0,0.15.08,0.3,0.12,0.45s0.09,0.29.14,0.43,0.09,0.28.14,0.42l0.19,0.51c0.07,0.19.15,0.38,0.23,0.57L1468,1080h451.48V703.36l-115.3,176.93A36.58,36.58,0,0,0,1786.53,875.6Zm-250.25,193.33c0-3.21,0-5.52,0-6.49a21.48,21.48,0,0,0,4.45,2.38Z" transform="translate(0.49 -703.36)"/><polygon class="cls-1" points="1389.45 361.42 1389.45 346.39 1379.37 346.39 1379.37 287.77 1374.08 287.77 1374.08 346.39 1364 346.39 1364 361.42 1338.55 361.42 1338.55 376.64 1389.45 376.64 1389.45 363.23 1389.45 361.42"/><path class="cls-1" d="M491.23,1080l-2.32-5.16h3l-6.84-17.76h3.85l-5.56-14h3.42l-7.69-13.57h4.7L476.09,1012h3l-6-15.34h4.27l-6.84-13.24h4.7l-8.12-13.07H471l-9-22.28-9,22.28h3.85l-8.12,13.07h4.7L446.6,996.7h4.28l-6,15.34h3l-7.69,17.44h4.7L437.19,1043h3.42l-4.06,10.25q-6.6-2.44-13.66-4.42l-3.28-5.78h2.76l-4.51-10.23h1.75l-3.51-9h2.51l-4-7.77h2.76l-4.76-7.67h2.26l-5.27-13.08-5.27,13.08h2.26l-4.77,7.67h2.76l-4,7.77h2.5l-3.51,9h1.76l-4.51,10.23h2.76l-0.46.82c-25.63-3.63-55.16-2.58-89.16,5.24,0,0-23.17-158.31-201.67-205.93l-2.15-4.88h3l-6-15.33h4.27l-6.84-13.24h4.7l-8.12-13.07H101l-9-22.27-9,22.27h3.84l-8.12,13.07h4.7L76.6,823h4.27l-5.11,13.11A455.51,455.51,0,0,0-.49,829.83V1080H491.23Z" transform="translate(0.49 -703.36)"/><path class="cls-1" d="M601.92,1063.47a2.64,2.64,0,0,0-2.46-2.79h-0.55v-24.19h-3.27v24.19h-0.27a2.64,2.64,0,0,0-2.46,2.79,2.72,2.72,0,0,0,2,2.73l-7.15,13.8h20.57L600,1066.18A2.74,2.74,0,0,0,601.92,1063.47Z" transform="translate(0.49 -703.36)"/><path class="cls-1" d="M1270.91,1077.8a36,36,0,0,1-2.29-3.85c-0.42-.82-0.78-1.65-1.13-2.49a8.38,8.38,0,0,0,.93-3.81c0-3.67-5.24-8.14-8-13.12a1.82,1.82,0,0,0-1.58-1h0a1.86,1.86,0,0,0-1.61,1c-2.72,5-8,9.43-8,13.1a8.42,8.42,0,0,0,.77,3.49c-0.44,1.11-.91,2.22-1.46,3.32a35.42,35.42,0,0,1-2,3.35h0c-0.5.77-1,1.5-1.57,2.2h27.43c-0.56-.7-1.11-1.42-1.63-2.2h0Z" transform="translate(0.49 -703.36)"/><path class="cls-1" d="M1285.89,1077.56a3.9,3.9,0,0,0-3.48,2.44h7A3.89,3.89,0,0,0,1285.89,1077.56Z" transform="translate(0.49 -703.36)"/><polygon class="cls-1" points="1171.44 334.69 1107.16 334.69 1107.16 350.45 949.8 350.45 949.8 272.39 943.28 272.39 939.2 272.39 934.47 272.39 931.05 272.39 931.05 239.94 881.31 239.94 881.31 286.3 878.62 286.3 875.45 286.3 871.76 286.3 868.59 286.3 864.19 286.3 864.19 288 862.4 288 862.4 214.78 849.15 214.78 849.15 130.37 844.86 130.37 844.86 214.78 836.27 214.78 836.27 142.57 831.98 142.57 831.98 214.78 822.14 214.78 822.14 288 808.19 288 808.19 341.65 777.79 341.65 777.79 331.84 775.34 331.84 775.34 251.57 737.43 251.57 641.1 251.57 641.1 376.64 1205.73 376.64 1205.73 354.19 1171.44 334.69"/><path class="cls-1" d="M1231.83,1077.56a3.89,3.89,0,0,0-3.48,2.44h7A3.9,3.9,0,0,0,1231.83,1077.56Z" transform="translate(0.49 -703.36)"/></svg>