<?xml version="1.0" encoding="utf-8"?>
<!-- Generator: Adobe Illustrator 16.0.0, SVG Export Plug-In . SVG Version: 6.00 Build 0)  -->
<!DOCTYPE svg PUBLIC "-//W3C//DTD SVG 1.1//EN" "http://www.w3.org/Graphics/SVG/1.1/DTD/svg11.dtd">
<svg version="1.1" id="Capa_1" xmlns="http://www.w3.org/2000/svg" xmlns:xlink="http://www.w3.org/1999/xlink" x="0px" y="0px"
	 width="1226.504px" height="689.572px" viewBox="0 0 1226.504 689.572" enable-background="new 0 0 1226.504 689.572"
	 xml:space="preserve">
<g opacity="0.15">
	<polygon fill="#030104" points="659.985,575.593 660.13,575.332 659.84,575.332 	"/>
	<polygon fill="#030104" points="735.369,564.234 736.217,563.686 735.065,563.686 	"/>
	<path fill="#030104" d="M1039.467,341.814c0.023-0.045,0.038-0.091,0.063-0.134l1.207-2.181h-2.55L1039.467,341.814z"/>
	<path fill="#030104" d="M1043.282,348.71l6.528,11.8l11.662-7.557v-4.231h-18.047
		C1043.378,348.722,1043.331,348.713,1043.282,348.71z"/>
	<polygon fill="#030104" points="1004.209,390.054 1010.735,385.827 1004.209,385.827 	"/>
	<polygon fill="#030104" points="1028.771,374.14 1036.41,369.194 1028.771,369.194 	"/>
	<path fill="#030104" d="M1222.403,130.676c-0.234-0.51-0.487-0.987-0.759-1.433c-0.543-0.89-1.151-1.655-1.807-2.29
		c-1.64-1.592-3.575-2.388-5.511-2.388s-3.872,0.795-5.51,2.388c-0.656,0.635-1.264,1.4-1.806,2.29
		c-0.271,0.446-0.525,0.923-0.762,1.433l-7.846,16.974l-52.697,113.997l-3.085-5.577c-0.405-0.735-1.115-1.104-1.827-1.104
		c-0.709,0-1.42,0.369-1.825,1.104l-10.803,19.527c-0.811,1.467,0.203,3.3,1.827,3.3h2.813l-8.166,14.76l-5.93-10.718
		c-0.461-0.836-1.272-1.255-2.082-1.255s-1.62,0.419-2.083,1.255l-12.315,22.262c-0.925,1.672,0.231,3.764,2.082,3.764h3.208
		l-11.595,20.961c-0.171,0.31-0.29,0.624-0.365,0.943l-5.982,3.875l-8.694-15.717h3.298c2.66,0,4.324-3.005,2.993-5.411
		l-11.595-20.96h3.206c1.851,0,3.008-2.093,2.082-3.764l-12.313-22.263c-0.463-0.837-1.275-1.255-2.083-1.255
		c-0.812,0-1.621,0.418-2.084,1.255l-12.315,22.263c-0.926,1.671,0.233,3.764,2.084,3.764h3.208l-11.597,20.96
		c-1.331,2.406,0.333,5.411,2.994,5.411h3.297l-7.955,14.383l-11.222-20.283h3.206c1.851,0,3.008-2.094,2.083-3.765l-12.315-22.261
		c-0.463-0.838-1.272-1.258-2.082-1.258c-0.812,0-1.62,0.419-2.084,1.258l-12.315,22.261c-0.925,1.671,0.232,3.765,2.083,3.765
		h3.208l-4.402,7.956l-8.926-16.135c-0.457-0.824-1.255-1.236-2.053-1.236c-0.797,0-1.597,0.412-2.052,1.236l-12.132,21.934
		c-0.913,1.647,0.227,3.708,2.052,3.708h3.158l-11.424,20.651c-1.312,2.369,0.327,5.331,2.95,5.331h3.248l-12.345,22.316
		c-1.706,3.082,0.428,6.938,3.839,6.938h17.78v10.608l-39.217,25.408l-2.396-13.555l-23.184-0.994l-4.656,15.822
		c-0.486,1.582-2.182,2.854-3.771,2.825l-1.797-0.019l0.159-4.035c0.672-0.489,1.134-1.277,1.17-2.198l0.133-3.389
		c0.036-0.92-0.361-1.749-0.993-2.292l0.122-3.108l-3.298-4.896c-0.515-0.77-1.528-0.955-2.264-0.417
		c-0.732,0.541-0.909,1.6-0.394,2.363l2.664,3.956l-0.078,1.963c-0.674,0.485-1.132,1.277-1.169,2.198l-0.133,3.389
		c-0.038,0.919,0.358,1.747,0.991,2.288l-0.162,4.142l-6.704-0.075c-4.295-0.185-6.058,2.287-6.218,6.396l-0.146,3.665
		c-0.685,0.362-1.344,0.772-1.943,1.282l0.802,1.035c-0.16,0.137-0.318,0.277-0.475,0.426c-1.556,1.496-2.534,3.402-2.924,5.416
		l-1.253-0.267c-0.413,2.132-0.24,4.325,0.5,6.349l1.192-0.475c0.318,0.872,0.755,1.709,1.314,2.481l-13.188-9.476v-12.291
		l-1.088-3.275l4.063,10.081c0.301,0.747,0.992,1.196,1.722,1.193c0.242,0,0.486-0.049,0.723-0.151
		c0.949-0.417,1.395-1.561,0.996-2.551l-5.845-14.498l-0.064-19.704h0.098c1.006,0,1.819-0.85,1.819-1.899
		c0-1.044-0.813-1.896-1.819-1.896h-11.223l-19.468-18.744l-19.468,18.744h-11.678c-1.006,0-1.818,0.852-1.818,1.896
		c0,1.05,0.813,1.899,1.818,1.899h0.854l-0.061,19.134l-5.85,14.648c-0.397,0.994,0.053,2.135,1.004,2.548
		c0.949,0.411,2.045-0.057,2.439-1.05l1.613-4.037v72.942l-19.43,12.588l-7.516-13.589c-0.439-0.793-1.208-1.188-1.976-1.188
		c-0.767,0-1.535,0.395-1.973,1.188l-11.676,21.105c-0.877,1.585,0.219,3.566,1.975,3.566h3.04l-0.566,1.027l-18.229,11.81
		l-2.234-4.04c-0.345-0.624-0.951-0.936-1.556-0.936s-1.208,0.312-1.555,0.936l-6.47,11.695l-18.404,11.923
		c-0.014-0.284-0.08-0.571-0.231-0.846l-9.196-16.626c-0.346-0.626-0.949-0.94-1.554-0.94s-1.21,0.314-1.556,0.94l-9.198,16.626
		c-0.69,1.249,0.173,2.811,1.556,2.811h2.395l-6.787,12.268l-3.679-6.65h2.892c2.334,0,3.793-2.637,2.626-4.748l-10.171-18.383
		h2.813c1.625,0,2.638-1.837,1.827-3.302l-10.803-19.527c-0.404-0.732-1.116-1.102-1.827-1.102c-0.709,0-1.421,0.369-1.826,1.102
		l-10.802,19.527c-0.811,1.465,0.204,3.302,1.828,3.302h2.813l-4.063,7.345l-8.458-15.29c-0.406-0.732-1.115-1.101-1.826-1.101
		c-0.709,0-1.42,0.368-1.827,1.101l-10.801,19.527c-0.813,1.464,0.203,3.303,1.826,3.303h2.814l-4.811,8.693l-9.541-17.244
		c-0.405-0.734-1.117-1.103-1.826-1.103c-0.709,0-1.42,0.368-1.827,1.103l-10.801,19.525c-0.812,1.466,0.203,3.3,1.826,3.3h2.814
		l-10.172,18.388c-1.167,2.108,0.292,4.745,2.628,4.745h2.892l-1.166,2.107h64.693h5.276h40.5h13.426h7.468h457.095V139.545
		L1222.403,130.676z M659.985,575.593l-0.145-0.262h0.29L659.985,575.593z M735.369,564.234l-0.304-0.548h1.151L735.369,564.234z
		 M864.772,423.375h-15.815v-4.427h15.815V423.375z M864.772,416.654h-15.815v-16.501h15.815V416.654z M947.271,426.944
		c-6.54,0.701-12.936,3.776-15.795,9.534l-1.678-0.073l3.809-23.919l14.3,0.615l2.259,11.969L947.271,426.944z M1004.209,390.054
		v-4.228h6.526L1004.209,390.054z M1028.771,374.14v-4.946h7.639L1028.771,374.14z M1039.529,341.68
		c-0.024,0.043-0.039,0.089-0.063,0.134l-1.28-2.314h2.55L1039.529,341.68z M1061.473,352.954l-11.662,7.557l-6.528-11.8
		c0.049,0.003,0.096,0.012,0.144,0.012h18.047V352.954z"/>
	<path fill="#030104" d="M626.343,590.62c1.231,0,2.001-1.389,1.385-2.503l-5.36-9.693h1.483c0.856,0,1.39-0.965,0.963-1.738
		l-5.693-10.296c-0.214-0.386-0.588-0.581-0.961-0.581c-0.375,0-0.75,0.195-0.964,0.581l-5.692,10.296
		c-0.427,0.773,0.108,1.738,0.962,1.738h1.484l-5.36,9.693c-0.615,1.114,0.153,2.503,1.384,2.503h1.524l-5.503,9.952h24.331
		l-5.505-9.952H626.343z"/>
</g>
<g opacity="0.15">
	<polygon fill="#030104" points="659.985,747.733 660.13,749.287 659.84,749.287 	"/>
	<polygon fill="#030104" points="735.369,814.651 736.217,817.899 735.065,817.899 	"/>
	<path fill="#030104" d="M1039.467,2124.924c0.023,0.291,0.038,0.569,0.063,0.819l1.207,12.822h-2.55L1039.467,2124.924z"/>
	<path fill="#030104" d="M1043.282,2084.332l6.528-69.541l11.662,44.533v24.925h-18.047
		C1043.378,2084.249,1043.331,2084.304,1043.282,2084.332z"/>
	<polygon fill="#030104" points="1004.209,1840.762 1010.735,1865.66 1004.209,1865.66 	"/>
	<polygon fill="#030104" points="1028.771,1934.507 1036.41,1963.636 1028.771,1963.636 	"/>
	<path fill="#030104" d="M1222.403,3368.779c-0.234,2.997-0.487,5.828-0.759,8.465c-0.543,5.218-1.151,9.729-1.807,13.462
		c-1.64,9.381-3.575,14.058-5.511,14.058s-3.872-4.677-5.51-14.058c-0.656-3.733-1.264-8.244-1.806-13.462
		c-0.271-2.637-0.525-5.468-0.762-8.465l-7.846-99.99l-52.697-671.561l-3.085,32.835c-0.405,4.357-1.115,6.522-1.827,6.522
		c-0.709,0-1.42-2.165-1.825-6.522l-10.803-115.033c-0.811-8.618,0.203-19.429,1.827-19.429h2.813l-8.166-86.973l-5.93,63.144
		c-0.461,4.927-1.272,7.397-2.082,7.397s-1.62-2.471-2.083-7.397l-12.315-131.131c-0.925-9.867,0.231-22.19,2.082-22.19h3.208
		l-11.595-123.485c-0.171-1.804-0.29-3.649-0.365-5.551l-5.982-22.829l-8.694,92.593h3.298c2.66,0,4.324,17.708,2.993,31.877
		l-11.595,123.485h3.206c1.851,0,3.008,12.323,2.082,22.19l-12.313,131.132c-0.463,4.926-1.275,7.396-2.083,7.396
		c-0.812,0-1.621-2.471-2.084-7.396l-12.315-131.132c-0.926-9.867,0.233-22.19,2.084-22.19h3.208l-11.597-123.485
		c-1.331-14.169,0.333-31.877,2.994-31.877h3.297l-7.955-84.71l-11.222,119.46h3.206c1.851,0,3.008,12.365,2.083,22.19
		l-12.315,131.132c-0.463,4.968-1.272,7.425-2.082,7.425c-0.812,0-1.62-2.457-2.084-7.425l-12.315-131.132
		c-0.925-9.825,0.232-22.19,2.083-22.19h3.208l-4.402-46.865l-8.926,95.063c-0.457,4.844-1.255,7.272-2.053,7.272
		c-0.797,0-1.597-2.429-2.052-7.272l-12.132-129.202c-0.913-9.7,0.227-21.857,2.052-21.857h3.158l-11.424-121.639
		c-1.312-13.976,0.327-31.434,2.95-31.434h3.248l-12.345-131.45c-1.706-18.166,0.428-40.884,3.839-40.884h17.78v-62.479
		l-39.217-149.7l-2.396,79.854l-23.184,5.843l-4.656-93.176c-0.486-9.326-2.182-16.834-3.771-16.682l-1.797,0.125l0.159,23.787
		c0.672,2.872,1.134,7.521,1.17,12.934l0.133,19.971c0.036,5.426-0.361,10.311-0.993,13.517l0.122,18.277l-3.298,28.838
		c-0.515,4.565-1.528,5.635-2.264,2.47c-0.732-3.164-0.909-9.408-0.394-13.933l2.664-23.287l-0.078-11.588
		c-0.674-2.831-1.132-7.508-1.169-12.935l-0.133-19.97c-0.038-5.412,0.358-10.27,0.991-13.476l-0.162-24.397l-6.704,0.458
		c-4.295,1.055-6.058-13.489-6.218-37.678l-0.146-21.608c-0.685-2.137-1.344-4.565-1.943-7.563l0.802-6.079
		c-0.16-0.818-0.318-1.638-0.475-2.512c-1.556-8.826-2.534-20.039-2.924-31.919l-1.253,1.568c-0.413-12.532-0.24-25.466,0.5-37.387
		l1.192,2.789c0.318-5.135,0.755-10.062,1.314-14.613l-13.188,55.83v72.415l-1.088,19.276l4.063-59.369
		c0.301-4.428,0.992-7.064,1.722-7.064c0.242,0,0.486,0.292,0.723,0.902c0.949,2.47,1.395,9.201,0.996,15.044l-5.845,85.403
		l-0.064,116.088h0.098c1.006,0,1.819,4.969,1.819,11.186c0,6.162-0.813,11.172-1.819,11.172h-11.223l-19.468,110.426
		l-19.468-110.426h-11.678c-1.006,0-1.818-5.01-1.818-11.172c0-6.217,0.813-11.186,1.818-11.186h0.854l-0.061-112.716l-5.85-86.319
		c-0.397-5.829,0.053-12.573,1.004-14.988c0.949-2.429,2.045,0.333,2.439,6.162l1.613,23.786v-429.712l-19.43-74.149l-7.516,80.061
		c-0.439,4.649-1.208,6.995-1.976,6.995c-0.767,0-1.535-2.346-1.973-6.995l-11.676-124.345c-0.877-9.326,0.219-20.997,1.975-20.997
		h3.04l-0.566-6.078l-18.229-69.542l-2.234,23.786c-0.345,3.691-0.951,5.496-1.556,5.496s-1.208-1.805-1.555-5.496l-6.47-68.903
		l-18.404-70.249c-0.014,1.679-0.08,3.372-0.231,4.982l-9.196,97.977c-0.346,3.65-0.949,5.538-1.554,5.538s-1.21-1.888-1.556-5.538
		l-9.198-97.977c-0.69-7.355,0.173-16.515,1.556-16.515h2.395l-6.787-72.304l-3.679,39.191h2.892c2.334,0,3.793,15.515,2.626,27.978
		l-10.171,108.274h2.813c1.625,0,2.638,10.811,1.827,19.442l-10.803,115.062c-0.404,4.315-1.116,6.494-1.827,6.494
		c-0.709,0-1.421-2.179-1.826-6.494l-10.802-115.062c-0.811-8.632,0.204-19.442,1.828-19.442h2.813l-4.063-43.243l-8.458,90.039
		c-0.406,4.316-1.115,6.495-1.826,6.495c-0.709,0-1.42-2.179-1.827-6.495l-10.801-115.02c-0.813-8.632,0.203-19.484,1.826-19.484
		h2.814l-4.811-51.182l-9.541,101.6c-0.405,4.316-1.117,6.481-1.826,6.481c-0.709,0-1.42-2.165-1.827-6.481l-10.801-115.033
		c-0.812-8.659,0.203-19.429,1.826-19.429h2.814l-10.172-108.33c-1.167-12.448,0.292-27.978,2.628-27.978h2.892l-1.166-12.407
		h64.693h5.276h40.5h13.426h7.468h457.095v2715.942L1222.403,3368.779z M659.985,747.733l-0.145,1.554h0.29L659.985,747.733z
		 M735.369,814.651l-0.304,3.248h1.151L735.369,814.651z M864.772,1644.433h-15.815v26.09h15.815V1644.433z M864.772,1684.041
		h-15.815v97.241h15.815V1684.041z M947.271,1623.45c-6.54-4.149-12.936-22.26-15.795-56.205l-1.678,0.458l3.809,140.901l14.3-3.608
		l2.259-70.541L947.271,1623.45z M1004.209,1840.762v24.897h6.526L1004.209,1840.762z M1028.771,1934.507v29.129h7.639
		L1028.771,1934.507z M1039.529,2125.744c-0.024-0.25-0.039-0.528-0.063-0.819l-1.28,13.642h2.55L1039.529,2125.744z
		 M1061.473,2059.324l-11.662-44.533l-6.528,69.541c0.049-0.027,0.096-0.083,0.144-0.083h18.047V2059.324z"/>
	<path fill="#030104" d="M626.343,659.192c1.231,0,2.001,8.174,1.385,14.752l-5.36,57.107h1.483c0.856,0,1.39,5.662,0.963,10.228
		l-5.693,60.674c-0.214,2.263-0.588,3.4-0.961,3.4c-0.375,0-0.75-1.138-0.964-3.4l-5.692-60.674
		c-0.427-4.565,0.108-10.228,0.962-10.228h1.484l-5.36-57.107c-0.615-6.578,0.153-14.752,1.384-14.752h1.524l-5.503-58.62h24.331
		l-5.505,58.62H626.343z"/>
</g>
<g>
</g>
<g>
</g>
<g>
</g>
<g>
</g>
<g>
</g>
<g>
</g>
</svg>
