<?xml version="1.0" encoding="utf-8"?>
<!-- Generator: Adobe Illustrator 16.0.0, SVG Export Plug-In . SVG Version: 6.00 Build 0)  -->
<!DOCTYPE svg PUBLIC "-//W3C//DTD SVG 1.1//EN" "http://www.w3.org/Graphics/SVG/1.1/DTD/svg11.dtd">
<svg version="1.1" id="Capa_1" xmlns="http://www.w3.org/2000/svg" xmlns:xlink="http://www.w3.org/1999/xlink" x="0px" y="0px"
	 width="1226.504px" height="775.441px" viewBox="0 0 1226.504 775.441" enable-background="new 0 0 1226.504 775.441"
	 xml:space="preserve">
<g opacity="0.15">
	<polygon fill="#030104" points="467.779,1158.115 466.078,1188.865 479.374,1192.35 479.374,1166.294 473.653,1166.294 
		473.653,1158.115 	"/>
	<polygon fill="#030104" points="463.949,1227.323 479.374,1231.019 479.374,1194.887 465.94,1191.356 	"/>
	<polygon fill="#030104" points="461.788,1266.353 462.18,1266.964 462.18,1265.924 462.861,1266.743 462.575,1261.701 
		463.615,1263.529 464.154,1260.196 464.692,1263.529 465.732,1261.701 465.444,1266.743 466.127,1265.924 466.127,1266.964 
		467.561,1264.726 467.238,1269.521 466.521,1272.301 468.638,1270.831 468.316,1272.683 469.212,1271.974 469.212,1272.999 
		471.499,1272.105 471.144,1271.393 471.612,1271.393 471.144,1269.158 471.612,1269.484 473.27,1271.415 474.453,1270.954 
		474.588,1269.922 473.333,1267.302 473.119,1265.501 475.558,1267.9 476.599,1268.393 473.941,1264.083 473.119,1259.341 
		475.27,1261.468 474.409,1257.871 476.526,1260.157 476.313,1258.145 477.458,1259.833 475.592,1255.364 475.592,1253.021 
		476.491,1253.726 476.167,1251.874 478.283,1253.345 477.565,1250.564 477.243,1245.768 478.678,1248 478.678,1246.965 
		479.36,1247.784 479.072,1242.741 479.374,1243.266 479.374,1233.663 463.802,1229.932 	"/>
	<polygon fill="#030104" points="458.034,1277.363 458.038,1277.36 458.034,1277.349 	"/>
	<polygon fill="#030104" points="461.47,1272.083 461.786,1272.301 461.516,1271.257 	"/>
	<polygon fill="#030104" points="458.092,1277.027 458.113,1277.045 458.124,1276.848 	"/>
	<rect x="482.125" y="1123" fill="#030104" width="6.378" height="6.715"/>
	<polygon fill="#030104" points="499.115,1261.325 497.398,1230.276 482.445,1233.505 482.445,1247.18 482.625,1246.965 
		482.625,1248 484.06,1245.768 483.739,1250.564 483.02,1253.345 485.136,1251.874 484.813,1253.726 485.711,1253.021 
		485.711,1255.364 483.845,1259.833 484.993,1258.145 484.779,1260.157 486.895,1257.871 486.034,1261.468 488.188,1259.341 
		487.362,1264.083 485.878,1266.493 488.036,1265.652 488.188,1265.501 488.174,1265.594 	"/>
	<path fill="#030104" d="M1152.823-299.708c-3.558-3.039-7.503-4.526-11.292-4.548c-3.748-16.631-16.186-25.681-26.273-18.988
		c-11.699,7.755-14.87,30.331-11.896,46.204c0,0,0,0.007,0.002,0.007c-3.511,2.666-6.636,7.335-8.949,14.3
		c-1.019,3.074-1.582,6.343-1.759,9.65c-0.021,0.372-0.038,0.747-0.048,1.116c-0.009,0.263-0.009,0.524-0.011,0.784
		c-0.004,0.222-0.005,0.448-0.004,0.667c0,0.262,0.006,0.523,0.015,0.788c0.002,0.221,0.01,0.442,0.021,0.664
		c0.007,0.261,0.021,0.523,0.033,0.782c0.014,0.225,0.027,0.449,0.046,0.674c0.019,0.251,0.036,0.511,0.058,0.768
		c0.023,0.266,0.053,0.531,0.08,0.794c0.045,0.411,0.091,0.824,0.148,1.233c0.031,0.234,0.059,0.461,0.092,0.698
		c0.039,0.24,0.081,0.488,0.119,0.737c0.038,0.228,0.076,0.452,0.117,0.679c0.043,0.238,0.089,0.482,0.135,0.721
		c0.047,0.234,0.096,0.464,0.143,0.692c0.051,0.233,0.1,0.459,0.148,0.687c0.065,0.281,0.134,0.556,0.203,0.837
		c0.076,0.314,0.158,0.626,0.244,0.936c0.077,0.28,0.15,0.555,0.232,0.826c0.059,0.208,0.122,0.407,0.188,0.608
		c0.074,0.238,0.147,0.478,0.225,0.713c0.07,0.201,0.135,0.404,0.206,0.601c0.082,0.242,0.169,0.479,0.253,0.715
		c0.07,0.186,0.137,0.37,0.208,0.557c0.108,0.283,0.222,0.559,0.335,0.838c0.055,0.133,0.104,0.262,0.159,0.388
		c0.165,0.39,0.336,0.768,0.511,1.141c0.068,0.151,0.141,0.292,0.209,0.429c0.118,0.254,0.238,0.497,0.362,0.734
		c0.076,0.154,0.157,0.302,0.237,0.451c0.124,0.233,0.248,0.463,0.377,0.686c0.076,0.136,0.156,0.276,0.234,0.416
		c0.149,0.251,0.303,0.503,0.459,0.745c0.063,0.097,0.119,0.195,0.181,0.29c0.217,0.334,0.437,0.661,0.663,0.979
		c0.057,0.08,0.119,0.159,0.182,0.24c0.168,0.238,0.341,0.465,0.517,0.687c0.084,0.104,0.169,0.207,0.253,0.314
		c0.162,0.192,0.324,0.385,0.485,0.569c0.09,0.099,0.176,0.197,0.265,0.294c0.18,0.195,0.361,0.385,0.543,0.57
		c0.073,0.068,0.146,0.146,0.218,0.217c0.258,0.247,0.519,0.488,0.78,0.715c0.045,0.034,0.087,0.066,0.125,0.102
		c0.227,0.187,0.453,0.369,0.683,0.538c0.089,0.063,0.18,0.126,0.27,0.188c0.187,0.132,0.376,0.257,0.567,0.382
		c0.101,0.063,0.197,0.122,0.294,0.179c0.195,0.114,0.396,0.229,0.594,0.331c0.088,0.049,0.179,0.093,0.269,0.133
		c0.285,0.143,0.576,0.271,0.869,0.385c7.293,2.779,13.563-3.163,17.337-11.67c0.149,0.544,0.271,1.028,0.36,1.433l-25.804,60.194
		l-44.084-47.447l-52.129,74.136c-0.076-1.04-0.193-2.084-0.359-3.108c-1.854-11.397-7.974-16.705-13.527-16.738
		c-2.234-9.917-9.648-15.306-15.661-11.318c-6.888,4.564-8.809,17.729-7.15,27.166c-3.055-7.364-9.257-10.888-14.431-7.458
		c-6.975,4.624-8.866,18.08-7.092,27.542v0.005c-2.094,1.588-3.958,4.374-5.335,8.519c-0.607,1.833-0.942,3.783-1.05,5.756
		c-0.012,0.218-0.021,0.443-0.027,0.66c-0.003,0.156-0.003,0.316-0.007,0.47c0,0.135-0.004,0.265,0,0.4
		c0,0.156,0.004,0.313,0.007,0.469c0.002,0.131,0.006,0.263,0.013,0.396c0.005,0.157,0.011,0.311,0.021,0.467
		c0.009,0.131,0.017,0.262,0.025,0.395c0.013,0.156,0.021,0.308,0.035,0.464c0.014,0.156,0.031,0.315,0.047,0.471
		c0.027,0.248,0.056,0.491,0.09,0.735c0.018,0.142,0.034,0.279,0.058,0.41c0.021,0.151,0.046,0.297,0.067,0.447
		c0.022,0.134,0.049,0.265,0.071,0.399c0.022,0.146,0.054,0.292,0.08,0.436c0.023,0.136,0.054,0.277,0.086,0.412
		c0.028,0.136,0.055,0.272,0.089,0.412c0.037,0.165,0.079,0.333,0.12,0.5c0.046,0.184,0.095,0.372,0.146,0.554
		c0.045,0.17,0.092,0.332,0.138,0.497c0.036,0.117,0.073,0.239,0.11,0.363c0.045,0.139,0.092,0.285,0.135,0.422
		c0.042,0.122,0.081,0.24,0.124,0.359c0.049,0.141,0.099,0.286,0.151,0.425c0.039,0.11,0.08,0.22,0.123,0.329
		c0.064,0.17,0.133,0.338,0.201,0.5c0.029,0.081,0.06,0.156,0.091,0.228c0.102,0.234,0.202,0.461,0.308,0.687
		c0.039,0.089,0.08,0.169,0.124,0.259c0.069,0.142,0.144,0.291,0.215,0.433c0.047,0.091,0.094,0.183,0.142,0.271
		c0.074,0.141,0.147,0.271,0.228,0.405c0.044,0.087,0.093,0.167,0.14,0.249c0.089,0.148,0.181,0.299,0.273,0.447
		c0.035,0.057,0.069,0.116,0.107,0.171c0.129,0.195,0.259,0.394,0.396,0.577c0.036,0.056,0.071,0.102,0.104,0.149
		c0.104,0.144,0.207,0.28,0.312,0.409c0.051,0.061,0.101,0.122,0.15,0.181c0.097,0.123,0.192,0.237,0.29,0.346
		c0.051,0.063,0.104,0.123,0.156,0.172c0.104,0.119,0.214,0.234,0.323,0.343c0.045,0.039,0.086,0.084,0.129,0.128
		c0.153,0.148,0.311,0.291,0.466,0.425c0.025,0.021,0.052,0.041,0.075,0.062c0.135,0.112,0.27,0.219,0.405,0.319
		c0.054,0.042,0.106,0.077,0.159,0.111c0.112,0.085,0.227,0.158,0.339,0.229c0.061,0.04,0.117,0.078,0.178,0.11
		c0.115,0.069,0.232,0.134,0.353,0.195c0.052,0.031,0.107,0.062,0.162,0.085c0.169,0.081,0.342,0.16,0.517,0.227
		c4.346,1.654,8.084-1.887,10.334-6.958c0.149,0.538,0.255,0.98,0.295,1.272c0.112,0.82,0.026,10.604-0.118,22.212l-22.45,31.929
		h-1.399v1.989l-13.039,18.545l-3.361,0.14c-0.061-8.833-0.119-17.561-0.119-19.274c1.317,1.397,2.904,2.25,4.749,2.35
		c5.116,0.268,8.792-9.567,7.426-17.982c-1.146-7.045-4.931-10.328-8.361-10.348c-1.38-6.125-5.961-9.457-9.675-6.987
		c-4.311,2.855-5.479,11.167-4.384,17.014v0.003c-1.294,0.979-2.445,2.701-3.295,5.266c-0.376,1.136-0.584,2.339-0.649,3.557
		c-0.007,0.131-0.014,0.27-0.018,0.406c-0.003,0.1-0.003,0.191-0.004,0.291c-0.002,0.081-0.002,0.167-0.002,0.249
		c0,0.093,0.003,0.194,0.006,0.287c0,0.085,0.004,0.166,0.005,0.247c0.006,0.092,0.009,0.188,0.016,0.289
		c0.005,0.082,0.01,0.161,0.018,0.243c0.007,0.099,0.013,0.19,0.021,0.287c0.012,0.097,0.021,0.196,0.029,0.294
		c0.015,0.149,0.032,0.298,0.056,0.447c0.012,0.088,0.021,0.17,0.033,0.261c0.016,0.089,0.03,0.182,0.044,0.271
		c0.016,0.086,0.027,0.166,0.044,0.249c0.017,0.091,0.031,0.178,0.05,0.271c0.016,0.084,0.034,0.168,0.053,0.254
		c0.019,0.081,0.036,0.167,0.056,0.253c0.022,0.099,0.05,0.208,0.075,0.304c0.027,0.122,0.057,0.234,0.089,0.349
		c0.027,0.098,0.059,0.201,0.083,0.302c0.023,0.076,0.049,0.147,0.07,0.225c0.025,0.085,0.055,0.172,0.084,0.262
		c0.023,0.074,0.05,0.146,0.075,0.217c0.03,0.091,0.061,0.179,0.096,0.266c0.021,0.07,0.047,0.138,0.075,0.204
		c0.04,0.106,0.08,0.204,0.123,0.307c0.02,0.05,0.039,0.099,0.059,0.146c0.062,0.143,0.123,0.282,0.188,0.421
		c0.023,0.053,0.05,0.102,0.074,0.156c0.043,0.09,0.09,0.185,0.134,0.268c0.029,0.059,0.061,0.114,0.088,0.167
		c0.046,0.085,0.092,0.171,0.139,0.254c0.031,0.051,0.06,0.102,0.089,0.148c0.055,0.097,0.109,0.188,0.167,0.276
		c0.022,0.037,0.045,0.075,0.068,0.112c0.08,0.12,0.159,0.241,0.244,0.355c0.021,0.031,0.043,0.063,0.063,0.09
		c0.063,0.086,0.126,0.172,0.192,0.252c0.029,0.039,0.063,0.075,0.093,0.116c0.062,0.071,0.118,0.14,0.18,0.21
		c0.031,0.034,0.064,0.074,0.097,0.109c0.064,0.078,0.133,0.145,0.2,0.21c0.025,0.027,0.055,0.054,0.08,0.08
		c0.095,0.092,0.189,0.182,0.288,0.263c0.015,0.011,0.029,0.025,0.044,0.037c0.085,0.07,0.169,0.135,0.252,0.198
		c0.033,0.025,0.066,0.046,0.1,0.07c0.069,0.048,0.139,0.094,0.211,0.141c0.035,0.026,0.072,0.042,0.107,0.066
		c0.072,0.042,0.146,0.08,0.218,0.12c0.032,0.021,0.066,0.035,0.101,0.049c0.104,0.052,0.212,0.101,0.319,0.141
		c2.686,1.023,4.996-1.162,6.385-4.299c0.093,0.334,0.157,0.607,0.183,0.788c0.086,0.615-0.011,9.455-0.138,18.542l-24.84,1.038
		v-93.047v-1.757v-14.575h-6.437v-56.863h-3.373v56.863h-6.436v14.575h-16.248v58.695H844.63v-20.006h-21.29v-5.918h0.234v-4.025
		h0.775v-5.318h-1.011v-3.073c0.689-0.773,1.146-2.107,1.146-3.628c0-2.389-1.121-4.328-2.506-4.328
		c-1.387,0-2.509,1.939-2.509,4.328c0,1.521,0.458,2.855,1.146,3.628v1.945c-2.858-0.936-5.871-4.383-8.22-9.67h0.021
		c-0.519-1.172-1.018-2.398-1.464-3.738c-0.268-0.796-0.502-1.598-0.722-2.408c0.372-1.122,0.592-2.371,0.592-3.696
		c0-3.565-3.349-7.898-5.083-12.728c-0.217-0.599-0.6-0.965-1.007-0.965h-0.021c-0.419,0-0.806,0.374-1.025,0.983
		c-1.737,4.822-5.079,9.149-5.079,12.709c0,1.2,0.181,2.333,0.492,3.38c-0.279,1.077-0.578,2.155-0.934,3.215
		c-0.384,1.154-0.806,2.22-1.246,3.248h0.013c-2.287,5.352-5.25,8.905-8.098,10.028v-2.304c0.688-0.773,1.146-2.107,1.146-3.628
		c0-2.389-1.124-4.328-2.509-4.328c-1.386,0-2.509,1.939-2.509,4.328c0,1.521,0.46,2.855,1.144,3.628v3.073h-1.144v5.318h1.113
		v4.025h0.029v52.669h-2.652v-18.566h-12.947v-73.885l-21.887-18.908h-41.034v15.284H607.146v-75.718h-4.165h-2.604h-3.018h-2.186
		v-31.472h-31.748v44.96h-1.712h-2.027h-2.353h-2.027H552.5v1.651h-1.139v-71.017h-8.458v-81.869h-2.742v81.869h-5.479v-70.034
		h-2.742v70.034h-6.278v71.017h-8.907v52.039h-19.399v-9.515h-1.564v-77.854h-24.202h-61.481L401.14,1.726l-3.375,2.919v-89.687
		l-13.566-34.366c0.691-0.281,1.208-1.347,1.208-2.624c0-1.496-0.702-2.708-1.567-2.708h-0.347v-23.463l-2.089,23.463h-0.176
		c-0.862,0-1.021,5.119-0.301,5.357l-67.648,8.38l-2.455-17.226h2.455l-3.548-13.623h2.183l-4.911-13.155h3.001l-4.91-16.914h1.908
		l-3.819-14.876h2.729l-4.367-12.838h3.002l-5.183-12.68h2.455l-5.73-21.608l-5.729,21.608h2.457l-5.183,12.68h3l-4.365,12.838
		h2.728l-3.819,14.876h1.908l-4.909,16.914h3.001l-4.91,13.155h2.18l-2.588,9.938c-2.808-1.577-5.719-3.003-8.722-4.283
		l-2.095-5.604h1.761l-2.88-9.927h1.119l-2.241-8.726h1.603l-2.563-7.537h1.76l-3.04-7.441h1.44l-3.361-12.681l-3.363,12.681h1.441
		l-3.042,7.441h1.761l-2.561,7.537h1.599l-2.241,8.726h1.122l-2.881,9.927h1.759l-0.295,0.792
		c-16.355-3.521-35.208-2.506-56.909,5.082c0,0-14.788-153.552-128.726-199.746l-1.374-4.729h1.908l-3.816-14.874h2.728
		l-4.366-12.838h3.001l-5.183-12.687h2.456l-5.729-21.611l-5.73,21.611h2.454l-5.181,12.687h3l-4.367,12.838h2.729l-3.265,12.721
		c-14.994-3.931-31.469-6.112-49.567-6.112v1678.97h2.533v-140.571l97.708-20.229l106.286-94.466l1.909,3.328
		c1.31-2.329,3.253-3.813,5.428-3.813h4.08c3.944,0,7.141-4.853,7.141-10.851v-12.398c0-5.993,3.197-10.853,7.139-10.853
		c3.943,0,7.138-4.853,7.138-10.843v-3.104c0-5.99,3.199-10.849,7.143-10.849h39.778c4.507,0,8.16,5.551,8.16,12.399
		s3.653,12.397,8.159,12.397h2.041c4.506,0,8.158,5.552,8.158,12.399v9.303c0,6.848,3.656,12.398,8.162,12.398h3.06
		c4.508,0,8.16,5.552,8.16,12.399v58.984c0,23.966,12.786,43.396,28.561,43.396v-41.159c0-11.554,6.165-20.923,13.769-20.923
		c7.605,0,13.771,9.369,13.771,20.923v23.75c0,19.54,10.425,35.377,23.284,35.377c5.167,0,9.355,6.364,9.355,14.217v50.39
		l5.387,3.97l-0.243-3.636l1.338,2.083v-0.965l0.635,0.766l-0.268-4.707l0.971,1.703l0.503-3.105l0.501,3.105l0.969-1.703
		l-0.267,4.707l0.636-0.766v0.965l1.338-2.083l-0.3,4.472l-0.67,2.599l1.974-1.375l-0.3,1.728l0.836-0.66v2.186l-0.103,0.247
		l4.757,3.503l3.111-1.211l-0.072-0.354l0.348,0.242l2.396-0.937l-0.56-1.158l-0.216-1.803l2.377,2.339l0.615-0.238l-2.168-3.516
		l-0.824-4.742l2.151,2.124l-0.861-3.594l2.119,2.284l-0.215-2.015l1.146,1.69l-1.865-4.471v-2.346l0.896,0.71l-0.321-1.855
		l2.115,1.474l-0.717-2.781l-0.322-4.797l1.435,2.234v-1.037l0.683,0.822l-0.287-5.046l1.039,1.827l0.541-3.333l0.537,3.333
		l1.04-1.827l-0.285,5.046l0.679-0.822v1.037l1.438-2.234l-0.322,4.797l-0.718,2.781l2.117-1.474l-0.324,1.855l0.897-0.71v2.346
		l-1.864,4.471l1.146-1.69l-0.216,2.015l2.119-2.284l-0.862,3.594l1.742-1.718l2.477-44.761l-1.098-0.268l0.267-2.58l0.978,0.232
		l1.993-36.031l-1.345-0.354l0.281-2.459l1.202,0.314l1.658-29.949h-0.552v-22.241h-1.25v-4.564h3.628V1123h-5.631v-4.668h5.631
		v-6.501h-5.014l11.529-7.595v-27.196h1.229v3.462h5.232v2.511h3.307v8.207h-5.846v-2.504h-2.693v14.712l6.757-4.449l18.649,12.853
		h-5.014v6.501h6.267v4.671h-6.267v8.307h4.264v4.565h-1.25v22.24h-1.188l1.683,30.4l3.25-0.771l0.253,2.472l-3.365,0.798l1.991,36
		l3.026-0.653l0.244,2.588l-3.125,0.672l1.691,30.53l60.364-23.571c0,0,106.077-117.621,109.137-119.176
		c3.061-1.549,89.138-46.498,89.138-46.498l23.128,16.279c3.645-3.106,7.848-4.886,12.326-4.886v-81.462
		c0-13.233,7.059-23.963,15.767-23.963c8.709,0,15.77,10.729,15.77,23.963v60.431c0,5.96,3.18,10.785,7.099,10.785
		c3.918,0,7.095-4.825,7.095-10.785V952.312c0-2.978,1.59-5.389,3.55-5.389c1.958,0,3.548-2.416,3.548-5.394v-46.727
		c0-2.977,1.586-5.392,3.548-5.392c6.313,0,11.434-7.775,11.434-17.373v-19.165c0-2.981,1.586-5.395,3.547-5.395h15.375
		c15.24,0,27.595,18.776,27.595,41.933c6.532,0,11.826,8.046,11.826,17.975v136.978c0,11.248,6.001,20.37,13.405,20.37v-14.777
		c0-12.809,6.829-23.187,15.255-23.187c5.508,0,9.972-6.782,9.972-15.157c0-19.185,10.239-34.74,22.866-34.74h8.673
		c16.548,0,29.961,20.384,29.961,45.527v115.98l0.665-0.801v2.813l3.894-6.063l-0.876,13.012l-1.946,7.542l5.742-3.996l-0.876,5.028
		l2.433-1.923v6.36l-5.061,12.123l3.115-4.585l-0.586,5.476l5.741-6.212l-2.335,9.762l5.838-5.77l-2.236,12.867l-4.567,7.411
		l1.913,1.243l4.892-4.81l-0.583,4.88l-0.999,2.086l5.774,3.758l1.16-0.813l-0.287,1.381l183.182,119.229V-471.567L1152.823-299.708
		z M960.286-86.138c-0.058-8.538-0.101-15.352-0.104-17.183c2.133,2.259,4.7,3.648,7.688,3.799c0.676,0.035,1.336-0.046,1.979-0.22
		L960.286-86.138z M981.796-116.731c-0.018-3.108-0.028-5.357-0.03-6.301c0.873,0.928,1.824,1.697,2.843,2.305L981.796-116.731z"/>
	<polygon fill="#030104" points="482.445,1194.764 482.445,1230.867 497.253,1227.672 495.264,1191.728 	"/>
	<polygon fill="#030104" points="482.91,1158.115 482.91,1166.294 482.445,1166.294 482.445,1192.234 495.126,1189.233 
		493.403,1158.115 	"/>
</g>
<line fill="none" x1="415.297" y1="1483.509" x2="401.14" y2="1481.701"/>
</svg>
