<?xml version="1.0" encoding="utf-8"?>
<!-- Generator: Adobe Illustrator 16.0.0, SVG Export Plug-In . SVG Version: 6.00 Build 0)  -->
<!DOCTYPE svg PUBLIC "-//W3C//DTD SVG 1.1//EN" "http://www.w3.org/Graphics/SVG/1.1/DTD/svg11.dtd">
<svg version="1.1" id="Capa_1" xmlns="http://www.w3.org/2000/svg" xmlns:xlink="http://www.w3.org/1999/xlink" x="0px" y="0px"
	 width="1226.504px" height="689.572px" viewBox="0 0 1226.504 689.572" enable-background="new 0 0 1226.504 689.572"
	 xml:space="preserve">
<g opacity="0.15">
	<path fill="#030104" d="M986.489,677.884l2.827-4.688c-1.023-0.716-1.979-1.619-2.858-2.71
		C986.461,671.595,986.471,674.234,986.489,677.884z"/>
	<path fill="#030104" d="M1147.135,457.591c-3.768-19.539-16.276-30.167-26.423-22.306c-11.764,9.11-14.955,35.63-11.964,54.275
		c0,0,0,0.007,0.002,0.007c-3.53,3.132-6.674,8.617-9.001,16.797c-1.024,3.61-1.591,7.455-1.77,11.338
		c-0.019,0.438-0.037,0.872-0.047,1.313c-0.009,0.31-0.009,0.615-0.009,0.919c-0.004,0.263-0.007,0.525-0.006,0.784
		c0.002,0.312,0.007,0.613,0.015,0.923c0.003,0.262,0.012,0.524,0.021,0.784c0.008,0.307,0.021,0.615,0.034,0.922
		c0.014,0.263,0.027,0.52,0.044,0.788c0.021,0.297,0.039,0.6,0.06,0.9c0.022,0.313,0.052,0.628,0.08,0.935
		c0.045,0.484,0.091,0.966,0.148,1.45c0.032,0.273,0.062,0.544,0.095,0.815c0.037,0.288,0.079,0.578,0.118,0.869
		c0.039,0.268,0.077,0.536,0.118,0.797c0.042,0.281,0.089,0.567,0.136,0.851c0.047,0.271,0.096,0.544,0.144,0.813
		c0.052,0.272,0.099,0.538,0.149,0.807c0.066,0.328,0.136,0.656,0.204,0.984c0.077,0.366,0.161,0.731,0.246,1.097
		c0.076,0.329,0.151,0.654,0.234,0.973c0.059,0.242,0.122,0.479,0.188,0.716c0.074,0.281,0.148,0.563,0.227,0.841
		c0.068,0.234,0.134,0.472,0.206,0.703c0.083,0.283,0.17,0.56,0.256,0.838c0.068,0.219,0.138,0.435,0.208,0.65
		c0.108,0.334,0.222,0.662,0.337,0.984c0.054,0.156,0.104,0.31,0.16,0.456c0.166,0.456,0.338,0.907,0.514,1.345
		c0.07,0.175,0.14,0.34,0.211,0.5c0.118,0.297,0.239,0.584,0.362,0.865c0.079,0.179,0.158,0.354,0.238,0.528
		c0.127,0.272,0.25,0.544,0.38,0.805c0.077,0.165,0.158,0.327,0.238,0.486c0.148,0.3,0.302,0.594,0.459,0.878
		c0.063,0.116,0.12,0.235,0.183,0.343c0.218,0.393,0.438,0.773,0.666,1.146c0.058,0.097,0.122,0.19,0.183,0.284
		c0.17,0.28,0.343,0.548,0.521,0.807c0.083,0.124,0.17,0.247,0.253,0.369c0.164,0.228,0.327,0.453,0.49,0.669
		c0.089,0.115,0.176,0.234,0.264,0.347c0.182,0.231,0.364,0.45,0.548,0.669c0.073,0.081,0.145,0.169,0.219,0.256
		c0.258,0.291,0.521,0.574,0.784,0.842c0.044,0.037,0.086,0.074,0.125,0.115c0.228,0.222,0.458,0.435,0.686,0.633
		c0.091,0.078,0.182,0.148,0.272,0.224c0.187,0.156,0.378,0.307,0.569,0.447c0.102,0.075,0.199,0.144,0.297,0.212
		c0.197,0.135,0.396,0.27,0.596,0.388c0.09,0.057,0.18,0.109,0.271,0.159c0.287,0.166,0.579,0.316,0.873,0.45
		c7.335,3.267,13.641-3.716,17.436-13.712c0.151,0.641,0.274,1.206,0.364,1.685l-25.95,70.714l-44.337-55.738l-52.427,87.093
		c-0.077-1.226-0.193-2.448-0.36-3.654c-1.864-13.391-8.019-19.627-13.605-19.661c-2.248-11.649-9.704-17.982-15.75-13.297
		c-6.927,5.36-8.858,20.824-7.191,31.914c-3.073-8.652-9.31-12.791-14.513-8.765c-7.013,5.433-8.918,21.239-7.134,32.354
		c0,0,0,0.003,0,0.01c-2.102,1.862-3.979,5.136-5.364,10.007c-0.611,2.152-0.947,4.443-1.055,6.76
		c-0.012,0.259-0.023,0.521-0.029,0.781c-0.003,0.181-0.003,0.365-0.005,0.545c-0.002,0.158-0.006,0.314-0.002,0.471
		c0,0.185,0.004,0.369,0.007,0.554c0.002,0.152,0.006,0.308,0.013,0.462c0.005,0.185,0.012,0.369,0.021,0.551
		c0.009,0.156,0.018,0.31,0.025,0.466c0.015,0.181,0.022,0.359,0.036,0.547c0.015,0.181,0.033,0.368,0.049,0.55
		c0.025,0.291,0.055,0.578,0.087,0.866c0.018,0.165,0.037,0.321,0.06,0.48c0.021,0.179,0.046,0.348,0.069,0.522
		c0.023,0.159,0.048,0.315,0.07,0.474c0.023,0.167,0.054,0.339,0.081,0.51c0.025,0.161,0.056,0.326,0.087,0.486
		c0.026,0.159,0.055,0.318,0.087,0.48c0.039,0.194,0.081,0.388,0.122,0.585c0.046,0.219,0.095,0.438,0.146,0.653
		c0.034,0.144,0.066,0.284,0.101,0.422h289.819V261.332l-74.012,201.603C1154.915,459.363,1150.946,457.616,1147.135,457.591z
		 M986.489,677.884c-0.019-3.65-0.028-6.289-0.031-7.398c0.88,1.091,1.835,1.994,2.858,2.71L986.489,677.884z"/>
	<polygon fill="#030104" points="891.929,673.154 891.929,656.033 885.457,656.033 885.457,589.232 882.063,589.232 
		882.063,656.033 875.592,656.033 875.592,673.154 859.254,673.154 859.254,690.494 891.929,690.494 891.929,675.218 	"/>
	<path fill="#030104" d="M315.65,690.494l-1.491-5.877h1.92l-4.39-20.238h2.469l-3.568-16.001h2.196l-4.937-15.46h3.017
		l-4.938-19.866h1.921l-3.843-17.476h2.744l-4.392-15.083h3.019l-5.213-14.897h2.47l-5.763-25.389l-5.763,25.389h2.471
		l-5.213,14.897h3.017l-4.39,15.083h2.745l-3.842,17.476h1.919l-4.938,19.866h3.019l-4.938,15.46h2.193l-2.604,11.675
		c-2.824-1.854-5.752-3.532-8.771-5.033l-2.106-6.586h1.771l-2.896-11.658h1.125l-2.253-10.253h1.61l-2.577-8.855h1.771
		l-3.059-8.739h1.448l-3.38-14.9l-3.382,14.9h1.45l-3.061,8.739h1.772l-2.575,8.855h1.608l-2.253,10.253h1.128l-2.897,11.658h1.77
		l-0.296,0.932c-16.451-4.135-35.409-2.941-57.234,5.971c0,0-14.872-180.391-129.46-234.653l-1.381-5.558h1.919L66.5,397.652h2.743
		l-4.39-15.082h3.019l-5.212-14.895h2.468l-5.76-25.374l-5.763,25.374h2.467l-5.21,14.895h3.017l-4.391,15.082h2.744l-3.283,14.944
		c-14.827-4.542-31.104-7.08-48.947-7.165v285.063H315.65z"/>
	<path fill="#030104" d="M386.7,671.658c0-1.757-0.706-3.181-1.576-3.181h-0.351v-27.558h-2.101v27.558h-0.176
		c-0.867,0-1.576,1.424-1.576,3.181c0,1.544,0.548,2.835,1.273,3.116l-4.589,15.72h13.204l-5.324-15.748
		C386.181,674.415,386.7,673.162,386.7,671.658z"/>
	<path fill="#030104" d="M816.145,687.99c-0.521-1.375-1.022-2.814-1.472-4.392c-0.269-0.937-0.504-1.875-0.728-2.832
		c0.377-1.319,0.597-2.782,0.597-4.342c0-4.185-3.368-9.276-5.111-14.947c-0.217-0.706-0.603-1.135-1.013-1.135h-0.021
		c-0.421,0-0.811,0.438-1.033,1.153c-1.748,5.664-5.107,10.747-5.107,14.929c0,1.41,0.183,2.746,0.495,3.974
		c-0.279,1.269-0.582,2.533-0.938,3.778c-0.387,1.354-0.811,2.607-1.253,3.813h0.013c-0.322,0.882-0.662,1.71-1.008,2.504h17.609
		c-0.361-0.794-0.714-1.619-1.05-2.504H816.145z"/>
	<path fill="#030104" d="M825.763,687.718c-0.98,0-1.819,1.135-2.237,2.775h4.469C827.577,688.853,826.739,687.718,825.763,687.718z
		"/>
	<polygon fill="#030104" points="751.984,642.705 710.717,642.705 710.717,660.66 609.703,660.66 609.703,571.708 605.516,571.708 
		602.898,571.708 599.864,571.708 597.667,571.708 597.667,534.738 565.736,534.738 565.736,587.553 564.015,587.553 
		561.977,587.553 559.61,587.553 557.573,587.553 554.748,587.553 554.748,589.498 553.602,589.498 553.602,506.062 
		545.095,506.062 545.095,409.889 542.338,409.889 542.338,506.062 536.828,506.062 536.828,423.792 534.071,423.792 
		534.071,506.062 527.756,506.062 527.756,589.498 518.798,589.498 518.798,650.625 499.288,650.625 499.288,639.447 
		497.715,639.447 497.715,547.988 473.375,547.988 411.542,547.988 411.542,690.494 773.995,690.494 773.995,664.916 	"/>
	<path fill="#030104" d="M791.057,687.718c-0.978,0-1.817,1.135-2.234,2.775h4.47C792.874,688.853,792.034,687.718,791.057,687.718z
		"/>
</g>
<g>
</g>
<g>
</g>
<g>
</g>
<g>
</g>
<g>
</g>
<g>
</g>
</svg>
