<svg id="Capa_1" data-name="Capa 1" xmlns="http://www.w3.org/2000/svg" viewBox="0 0 1920 1077.87"><defs><style>.cls-1{fill:#2185b0;}</style></defs><title>bk_02</title><path class="cls-1" d="M865.61,2.13L713.88,96.32H660.2V61.77H632.79v-20H619.71V27.42h-35V41.8H571.65v71.35H562.9V69.71H548.81V30.25H533.68V2.13h-4V30.25H514.53V69.71H500.44v43.44H481V224.87h-5.68V157h2.26v-6.14H458v-130H398.37V84.11H367.19v48H324.56v144H311.21V222.83h-49.1v65.3A139.27,139.27,0,0,0,161,341.55h-8.76v12.58c-1.54,2.49-3,5-4.35,7.63-0.53,0-1.06-.09-1.59-0.09a19.28,19.28,0,0,0-3.49.35,66,66,0,0,0-34.12-17.12L82.46,307.45a14.42,14.42,0,0,0-2.58-2.81,15,15,0,0,0-3.12-2,15.43,15.43,0,0,0-1.71-.7,16.83,16.83,0,0,0-10.89,0,15.54,15.54,0,0,0-1.71.7,15,15,0,0,0-3.12,2,14.43,14.43,0,0,0-2.58,2.81L37,335.6,1.8,385.91,0,382.21V1080H1920V2.13H865.61ZM383.39,245.27H338.46V242h4.19V226.7h7.09V242h7.51V226.7h7.09V242h7.51V226.7h7.09V242h4.44v3.25Zm0-25.12H338.46v-3.25h4.19V201.58h7.09v15.33h7.51V201.58h7.09v15.33h7.51V201.58h7.09v15.33h4.44v3.25Zm0-25.12H338.46v-3.24h4.19V176.46h7.09v15.33h7.51V176.46h7.09v15.33h7.51V176.46h7.09v15.33h4.44V195Zm0-25.12H338.46v-3.25h4.19V151.34h7.09v15.33h7.51V151.34h7.09v15.33h7.51V151.34h7.09v15.33h4.44v3.25Zm42.51-30.63H412.3v-5H425.9v5Zm0-12H412.3v-5H425.9v5Zm0-12H412.3v-5H425.9v5Zm0-12H412.3v-5H425.9v5Zm0-12H412.3v-5H425.9v5Zm0-12H412.3v-5H425.9v5Zm0-12H412.3v-5H425.9v5Zm0-12H412.3v-5H425.9v5Zm0-12H412.3v-5H425.9v5Zm19.41,96h-13.6v-5h13.6v5Zm0-12h-13.6v-5h13.6v5Zm0-12h-13.6v-5h13.6v5Zm0-12h-13.6v-5h13.6v5Zm0-12h-13.6v-5h13.6v5Zm0-12h-13.6v-5h13.6v5Zm0-12h-13.6v-5h13.6v5Zm0-12h-13.6v-5h13.6v5Zm0-12h-13.6v-5h13.6v5Zm75,64.2H508.39V105.6h1v-5.3h9.86v5.3h1v1.86Zm0-10.07H508.39V95.67h1V90.23h9.86v5.43h1v1.72Zm0-9.67H508.39V85.86h1v-5.3h9.86v5.3h1v1.86Zm16.93,19.74H525.33V105.6h1v-5.3h9.86v5.3h1v1.86Zm0-10.07H525.33V95.67h1V90.23h9.86v5.43h1v1.72Zm0-9.67H525.33V85.86h1v-5.3h9.86v5.3h1v1.86Zm16.66,19.74H542V105.6h1v-5.3h9.86v5.3h1v1.86Zm0-10.07H542V95.67h1V90.23h9.86v5.43h1v1.72Zm0-9.67H542V85.86h1v-5.3h9.86v5.3h1v1.86Z" transform="translate(-0.01 -2.13)"/></svg>