<?xml version="1.0" encoding="utf-8"?>
<!-- Generator: Adobe Illustrator 16.0.0, SVG Export Plug-In . SVG Version: 6.00 Build 0)  -->
<!DOCTYPE svg PUBLIC "-//W3C//DTD SVG 1.1//EN" "http://www.w3.org/Graphics/SVG/1.1/DTD/svg11.dtd">
<svg version="1.1" id="Capa_1" xmlns="http://www.w3.org/2000/svg" xmlns:xlink="http://www.w3.org/1999/xlink" x="0px" y="0px"
	 width="1226.504px" height="689.572px" viewBox="0 0 1226.504 689.572" enable-background="new 0 0 1226.504 689.572"
	 xml:space="preserve">
<g opacity="0.15">
	<polygon fill="#030104" points="468.773,242.261 467.072,264.911 480.368,267.479 480.368,248.287 474.647,248.287 
		474.647,242.261 	"/>
	<polygon fill="#030104" points="464.943,293.234 480.368,295.958 480.368,269.345 466.935,266.747 	"/>
	<polygon fill="#030104" points="462.782,321.981 463.174,322.429 463.174,321.666 463.855,322.269 463.569,318.554 464.609,319.9 
		465.148,317.446 465.688,319.9 466.727,318.554 466.438,322.269 467.121,321.666 467.121,322.429 468.555,320.783 468.232,324.316 
		467.516,326.363 469.632,325.281 469.311,326.646 470.206,326.122 470.206,326.878 472.493,326.22 472.138,325.694 
		472.606,325.694 472.138,324.048 472.606,324.287 474.264,325.709 475.447,325.369 475.582,324.61 474.327,322.68 474.113,321.355 
		476.552,323.121 477.593,323.484 474.936,320.311 474.113,316.818 476.264,318.384 475.403,315.734 477.521,317.419 
		477.307,315.938 478.452,317.18 476.586,313.886 476.586,312.162 477.485,312.683 477.161,311.318 479.277,312.402 478.56,310.354 
		478.237,306.82 479.672,308.466 479.672,307.703 480.354,308.306 480.066,304.592 480.368,304.98 480.368,297.906 464.796,295.16 	
		"/>
	<polygon fill="#030104" points="459.028,330.091 459.032,330.089 459.028,330.082 	"/>
	<polygon fill="#030104" points="462.464,326.201 462.78,326.363 462.51,325.594 	"/>
	<polygon fill="#030104" points="459.086,329.844 459.107,329.857 459.118,329.711 	"/>
	<rect x="483.119" y="216.402" fill="#030104" width="6.378" height="4.944"/>
	<polygon fill="#030104" points="500.109,318.278 498.393,295.412 483.439,297.791 483.439,307.862 483.619,307.703 
		483.619,308.466 485.054,306.82 484.733,310.354 484.014,312.402 486.131,311.318 485.807,312.683 486.705,312.162 
		486.705,313.886 484.839,317.18 485.987,315.938 485.773,317.419 487.889,315.734 487.028,318.384 489.182,316.818 
		488.356,320.311 486.872,322.085 489.03,321.464 489.182,321.355 489.168,321.424 	"/>
	<path fill="#030104" d="M1153.817-831.422c-3.561-2.238-7.503-3.334-11.292-3.349c-3.748-12.251-16.188-18.915-26.273-13.985
		c-11.697,5.711-14.87,22.338-11.896,34.027c0,0,0,0.006,0.002,0.006c-3.513,1.963-6.638,5.403-8.949,10.531
		c-1.021,2.264-1.582,4.673-1.759,7.107c-0.021,0.273-0.038,0.549-0.047,0.822c-0.013,0.191-0.013,0.385-0.015,0.576
		c-0.004,0.164-0.005,0.33-0.004,0.492c0,0.193,0.006,0.385,0.018,0.58c0.002,0.162,0.011,0.326,0.021,0.49
		c0.007,0.191,0.021,0.385,0.033,0.576c0.014,0.166,0.026,0.33,0.046,0.496c0.02,0.186,0.036,0.377,0.058,0.563
		c0.022,0.196,0.054,0.394,0.08,0.584c0.045,0.303,0.091,0.607,0.147,0.908c0.029,0.172,0.06,0.34,0.093,0.514
		c0.039,0.178,0.081,0.359,0.119,0.544c0.038,0.167,0.075,0.333,0.115,0.5c0.043,0.175,0.091,0.354,0.138,0.531
		c0.046,0.171,0.095,0.341,0.142,0.509c0.052,0.172,0.101,0.338,0.147,0.506c0.063,0.207,0.135,0.41,0.202,0.618
		c0.077,0.229,0.159,0.46,0.245,0.688c0.075,0.205,0.148,0.408,0.23,0.607c0.061,0.154,0.122,0.301,0.188,0.449
		c0.074,0.176,0.147,0.352,0.228,0.525c0.067,0.146,0.135,0.297,0.206,0.439c0.082,0.179,0.169,0.354,0.253,0.527
		c0.069,0.137,0.137,0.271,0.208,0.408c0.107,0.209,0.223,0.412,0.335,0.617c0.056,0.098,0.104,0.193,0.159,0.285
		c0.165,0.287,0.336,0.566,0.511,0.842c0.068,0.111,0.142,0.215,0.21,0.314c0.117,0.188,0.237,0.365,0.361,0.542
		c0.076,0.112,0.154,0.222,0.234,0.331c0.125,0.172,0.248,0.342,0.377,0.506c0.075,0.102,0.155,0.203,0.234,0.306
		c0.148,0.187,0.302,0.37,0.459,0.55c0.063,0.072,0.119,0.145,0.182,0.213c0.219,0.246,0.438,0.486,0.661,0.721
		c0.06,0.059,0.12,0.117,0.185,0.179c0.168,0.173,0.342,0.341,0.518,0.505c0.084,0.076,0.169,0.152,0.253,0.23
		c0.162,0.143,0.324,0.283,0.485,0.42c0.09,0.072,0.176,0.146,0.264,0.217c0.182,0.145,0.362,0.283,0.544,0.42
		c0.073,0.051,0.146,0.107,0.218,0.16c0.26,0.182,0.521,0.36,0.779,0.526c0.045,0.024,0.088,0.048,0.125,0.073
		c0.229,0.139,0.454,0.273,0.686,0.396c0.09,0.048,0.181,0.094,0.271,0.139c0.188,0.098,0.375,0.192,0.566,0.281
		c0.101,0.047,0.195,0.09,0.294,0.133c0.192,0.084,0.395,0.168,0.594,0.242c0.089,0.037,0.178,0.07,0.271,0.1
		c0.282,0.105,0.575,0.199,0.868,0.283c7.293,2.047,13.563-2.33,17.337-8.595c0.148,0.399,0.271,0.755,0.359,1.054l-25.804,44.334
		l-44.084-34.945l-52.129,54.602c-0.076-0.766-0.193-1.535-0.359-2.291c-1.854-8.393-7.974-12.303-13.526-12.326
		c-2.232-7.303-9.646-11.273-15.66-8.336c-6.89,3.361-8.811,13.059-7.148,20.008c-3.056-5.424-9.258-8.02-14.432-5.494
		c-6.978,3.406-8.866,13.316-7.094,20.283c0,0,0,0.002,0,0.006c-2.095,1.168-3.959,3.221-5.337,6.273
		c-0.604,1.35-0.938,2.787-1.049,4.238c-0.012,0.162-0.021,0.328-0.025,0.488c-0.004,0.115-0.004,0.232-0.007,0.344
		c-0.003,0.1-0.006,0.197-0.003,0.297c0,0.115,0.006,0.229,0.01,0.344c0.003,0.098,0.007,0.195,0.014,0.291
		c0.005,0.115,0.011,0.23,0.021,0.346c0.013,0.096,0.021,0.193,0.026,0.291c0.013,0.113,0.021,0.227,0.035,0.342
		c0.014,0.113,0.029,0.232,0.047,0.346c0.025,0.182,0.056,0.363,0.089,0.542c0.02,0.104,0.035,0.204,0.06,0.304
		c0.021,0.109,0.048,0.217,0.066,0.326c0.021,0.1,0.049,0.197,0.071,0.297c0.021,0.107,0.054,0.215,0.08,0.319
		c0.021,0.101,0.055,0.204,0.086,0.306c0.026,0.1,0.055,0.199,0.089,0.301c0.037,0.123,0.079,0.246,0.12,0.367
		c0.046,0.139,0.095,0.273,0.146,0.409c0.045,0.124,0.093,0.245,0.142,0.364c0.031,0.088,0.069,0.176,0.106,0.268
		c0.045,0.104,0.091,0.211,0.134,0.313c0.044,0.09,0.082,0.176,0.125,0.266c0.051,0.102,0.102,0.209,0.151,0.311
		c0.039,0.082,0.08,0.164,0.123,0.242c0.063,0.125,0.133,0.248,0.201,0.369c0.027,0.063,0.06,0.113,0.091,0.168
		c0.102,0.17,0.202,0.34,0.307,0.505c0.04,0.066,0.081,0.126,0.124,0.19c0.07,0.105,0.146,0.215,0.217,0.32
		c0.048,0.064,0.096,0.133,0.144,0.199c0.074,0.103,0.146,0.199,0.229,0.299c0.044,0.063,0.095,0.121,0.142,0.184
		c0.089,0.109,0.181,0.22,0.271,0.326c0.036,0.044,0.07,0.086,0.108,0.128c0.129,0.146,0.26,0.288,0.396,0.427
		c0.034,0.037,0.07,0.073,0.104,0.109c0.104,0.104,0.207,0.203,0.311,0.301c0.054,0.043,0.104,0.09,0.151,0.133
		c0.096,0.09,0.19,0.174,0.29,0.256c0.051,0.045,0.104,0.088,0.155,0.127c0.104,0.086,0.216,0.17,0.321,0.25
		c0.046,0.031,0.087,0.063,0.13,0.094c0.152,0.111,0.313,0.215,0.467,0.313c0.022,0.016,0.053,0.031,0.074,0.047
		c0.137,0.08,0.271,0.16,0.403,0.234c0.057,0.029,0.106,0.057,0.16,0.082c0.111,0.061,0.228,0.117,0.339,0.168
		c0.063,0.027,0.117,0.057,0.179,0.078c0.114,0.051,0.231,0.1,0.354,0.146c0.052,0.022,0.105,0.043,0.162,0.062
		c0.169,0.063,0.342,0.117,0.517,0.168c4.347,1.219,8.083-1.391,10.333-5.123c0.15,0.396,0.256,0.721,0.295,0.937
		c0.113,0.604,0.027,7.811-0.116,16.36l-22.448,23.517h-1.399v1.465l-13.039,13.656l-3.359,0.105
		c-0.063-6.506-0.118-12.936-0.118-14.195c1.314,1.027,2.9,1.658,4.748,1.73c5.116,0.195,8.793-7.047,7.427-13.244
		c-1.146-5.189-4.932-7.605-8.361-7.621c-1.38-4.512-5.961-6.965-9.675-5.146c-4.312,2.103-5.479,8.226-4.384,12.53v0.004
		c-1.294,0.721-2.445,1.99-3.295,3.879c-0.377,0.834-0.584,1.723-0.649,2.619c-0.007,0.096-0.014,0.199-0.018,0.301
		c-0.003,0.07-0.003,0.141-0.004,0.211c-0.003,0.063-0.003,0.124-0.003,0.184c0,0.07,0.003,0.145,0.007,0.213
		c0,0.063,0.004,0.123,0.005,0.182c0.006,0.068,0.009,0.139,0.016,0.211c0.004,0.061,0.009,0.119,0.021,0.182
		c0.007,0.07,0.013,0.141,0.021,0.209c0.012,0.074,0.021,0.145,0.029,0.217c0.015,0.113,0.032,0.223,0.056,0.332
		c0.013,0.064,0.021,0.125,0.033,0.191c0.015,0.064,0.03,0.133,0.044,0.199c0.016,0.064,0.027,0.123,0.044,0.184
		c0.02,0.066,0.031,0.131,0.049,0.199c0.02,0.061,0.035,0.123,0.057,0.187c0.019,0.063,0.034,0.122,0.056,0.188
		c0.022,0.074,0.05,0.151,0.075,0.225c0.024,0.089,0.057,0.17,0.089,0.258c0.027,0.07,0.058,0.147,0.083,0.221
		c0.023,0.057,0.049,0.11,0.07,0.166c0.022,0.063,0.056,0.129,0.084,0.195c0.021,0.053,0.05,0.105,0.071,0.16
		c0.031,0.066,0.063,0.131,0.1,0.193c0.021,0.051,0.047,0.102,0.075,0.149c0.039,0.08,0.077,0.15,0.12,0.229
		c0.021,0.035,0.039,0.07,0.062,0.104c0.061,0.105,0.123,0.207,0.188,0.313c0.024,0.039,0.054,0.074,0.075,0.115
		c0.043,0.066,0.089,0.135,0.134,0.195c0.029,0.045,0.063,0.084,0.091,0.123c0.046,0.064,0.093,0.125,0.139,0.189
		c0.031,0.035,0.059,0.074,0.089,0.109c0.054,0.068,0.109,0.139,0.167,0.201c0.021,0.029,0.046,0.057,0.068,0.083
		c0.08,0.089,0.155,0.177,0.243,0.263c0.021,0.021,0.044,0.045,0.063,0.066c0.063,0.063,0.125,0.127,0.191,0.187
		c0.025,0.027,0.063,0.057,0.093,0.084c0.061,0.055,0.118,0.104,0.18,0.156c0.031,0.025,0.063,0.053,0.1,0.078
		c0.063,0.057,0.134,0.107,0.196,0.156c0.026,0.02,0.059,0.041,0.081,0.06c0.095,0.066,0.189,0.133,0.288,0.192
		c0.014,0.008,0.029,0.02,0.043,0.029c0.085,0.051,0.169,0.1,0.252,0.146c0.034,0.018,0.067,0.032,0.104,0.05
		c0.065,0.037,0.139,0.07,0.211,0.105c0.035,0.018,0.068,0.031,0.104,0.049c0.073,0.029,0.146,0.059,0.222,0.086
		c0.028,0.016,0.063,0.025,0.101,0.039c0.104,0.038,0.212,0.074,0.319,0.103c2.686,0.756,4.995-0.855,6.385-3.164
		c0.093,0.244,0.157,0.445,0.182,0.578c0.086,0.455-0.01,6.963-0.136,13.655l-24.841,0.766v-68.53v-1.291v-10.734h-6.438v-41.881
		h-3.373v41.881h-6.435v10.734h-16.261v43.227h-10.656v-14.733h-21.284v-4.359h0.234v-2.965h0.772v-3.916h-1.011v-2.263
		c0.689-0.569,1.146-1.552,1.146-2.673c0-1.758-1.12-3.188-2.506-3.188c-1.389,0-2.511,1.43-2.511,3.188
		c0,1.121,0.458,2.104,1.146,2.673v1.435c-2.858-0.688-5.871-3.229-8.222-7.123h0.021c-0.521-0.863-1.02-1.768-1.464-2.754
		c-0.27-0.588-0.501-1.178-0.724-1.774c0.372-0.827,0.594-1.745,0.594-2.724c0-2.623-3.352-5.816-5.083-9.371
		c-0.219-0.441-0.603-0.713-1.009-0.713h-0.021c-0.418,0-0.806,0.276-1.024,0.725c-1.735,3.552-5.078,6.738-5.078,9.359
		c0,0.887,0.182,1.721,0.491,2.492c-0.276,0.793-0.577,1.586-0.935,2.368c-0.384,0.85-0.806,1.636-1.246,2.392h0.015
		c-2.288,3.94-5.252,6.559-8.1,7.385v-1.696c0.688-0.569,1.146-1.552,1.146-2.673c0-1.758-1.125-3.188-2.513-3.188
		c-1.385,0-2.507,1.43-2.507,3.188c0,1.121,0.459,2.104,1.144,2.673v2.263h-1.144v3.916h1.112v2.965h0.027v38.79h-2.65v-13.676
		H771.51v-54.416l-21.887-13.925h-41.034v11.255H608.141v-55.764h-4.165h-2.604h-3.019h-2.188v-23.179h-31.748v33.112h-1.712h-2.026
		h-2.354H556.3h-2.807v1.217h-1.14v-52.305h-8.457v-60.297h-2.742v60.297h-5.479v-51.58h-2.741v51.58h-6.276v52.305h-8.907v38.324
		h-19.398v-7.008h-1.563v-57.338h-24.202h-61.479v168.68h-8.971l-3.375,2.146v-66.055l-13.563-25.309
		c0.688-0.205,1.208-0.992,1.208-1.934c0-1.1-0.702-1.994-1.567-1.994h-0.348v-17.277H382.4v17.277h-0.178
		c-0.86,0-1.564,0.896-1.564,1.994c0,0.967,0.545,1.775,1.266,1.953l-11.708,25.289v52.543h-16.433
		c-4.646-14.029-15.126-39.48-35.036-60.538l-4.473-11.124h1.905l-4.36-12.687h2.455l-3.552-10.032h2.187l-4.911-9.69h3.001
		l-4.91-12.455h1.908l-3.819-10.957h2.729l-4.367-9.455h3.002l-5.183-9.34h2.455l-5.73-15.914l-5.729,15.914h2.457l-5.183,9.34h3
		l-4.365,9.455h2.728l-3.819,10.957h1.908l-4.909,12.455h3.001l-4.91,9.69h2.18l-2.588,7.317c-2.808-1.161-5.719-2.211-8.722-3.154
		l-2.095-4.127h1.761l-2.88-7.313h1.119l-2.241-6.426h1.602l-2.563-5.551h1.76l-3.04-5.48h1.44l-3.361-9.34l-3.363,9.34h1.441
		l-3.042,5.48h1.761l-2.561,5.551h1.599l-2.241,6.426h1.122l-2.881,7.313h1.759l-0.295,0.582
		c-16.355-2.592-35.208-1.846-56.909,3.744c0,0-14.788-113.092-128.726-147.113l-1.374-3.481h1.908l-3.816-10.955h2.728
		l-4.366-9.456h3.001l-5.183-9.344h2.456l-5.729-15.916l-5.729,15.916h2.454l-5.181,9.344h3l-4.367,9.456h2.729l-3.265,9.369
		c-14.994-2.895-31.469-4.502-49.567-4.502V369.082h2.533V265.55l97.708-14.896l106.286-69.575l1.909,2.451
		c1.31-1.716,3.253-2.81,5.428-2.81h4.08c3.944,0,7.141-3.575,7.141-7.991v-9.132c0-4.414,3.197-7.99,7.139-7.99
		c3.943,0,7.138-3.574,7.138-7.988v-2.283c0-4.414,3.199-7.991,7.143-7.991h39.778c4.507,0,8.16,4.089,8.16,9.132
		s3.653,9.133,8.159,9.133h2.041c4.507,0,8.158,4.09,8.158,9.133v6.851c0,5.042,3.656,9.132,8.162,9.132h3.059
		c4.512,0,8.161,4.089,8.161,9.133v43.44c0,17.651,12.786,31.962,28.563,31.962v-30.313c0-8.512,6.165-15.412,13.769-15.412
		c7.605,0,13.771,6.9,13.771,15.412v17.488c0,14.392,10.425,26.058,23.282,26.058c5.166,0,9.354,4.688,9.354,10.472v37.112
		l5.387,2.921l-0.243-2.677l1.34,1.532v-0.709l0.636,0.563l-0.271-3.465l0.975,1.254l0.503-2.289l0.501,2.289l0.969-1.254
		l-0.267,3.465l0.636-0.563v0.709l1.338-1.532l-0.3,3.296l-0.67,1.911l1.974-1.013l-0.3,1.272l0.836-0.487v1.611l-0.104,0.182
		l4.759,2.58l3.108-0.895l-0.069-0.262l0.348,0.182l2.397-0.689l-0.561-0.854l-0.216-1.327l2.377,1.724l0.615-0.178l-2.168-2.59
		l-0.824-3.491l2.15,1.563l-0.86-2.646l2.119,1.685l-0.217-1.481l1.146,1.243l-1.865-3.292v-1.728l0.896,0.521l-0.321-1.365
		l2.115,1.084l-0.719-2.048l-0.32-3.532l1.435,1.646v-0.764l0.686,0.604l-0.287-3.714l1.039,1.345l0.541-2.456l0.536,2.456
		l1.04-1.345l-0.284,3.714l0.679-0.604v0.764l1.438-1.646l-0.32,3.532l-0.72,2.048l2.115-1.084l-0.321,1.365l0.896-0.521v1.728
		l-1.865,3.292l1.147-1.243l-0.216,1.481l2.117-1.685l-0.86,2.646l1.742-1.265l2.477-32.968l-1.098-0.193l0.267-1.9l0.979,0.172
		l1.991-26.538l-1.346-0.263l0.281-1.809l1.202,0.229l1.657-22.061h-0.555v-16.377h-1.25v-3.361h3.63v-6.121h-5.632v-3.438h5.632
		v-4.788h-5.015l11.529-5.595v-20.028h1.229v2.549h5.232v1.85h3.307v6.046h-5.846v-1.845h-2.693v10.838l6.757-3.277l18.649,9.466
		h-5.015v4.788h6.268v3.438h-6.268v6.12h4.265v3.36h-1.25v16.377h-1.188l1.685,22.393l3.25-0.566l0.253,1.82l-3.365,0.587
		l1.991,26.515l3.025-0.479l0.243,1.903l-3.125,0.496l1.69,22.484l60.364-17.358c0,0,106.074-86.629,109.137-87.771
		c3.062-1.143,89.138-34.246,89.138-34.246l23.13,11.989c3.645-2.289,7.848-3.604,12.322-3.604v-59.994
		c0-9.747,7.063-17.647,15.771-17.647c8.708,0,15.769,7.9,15.769,17.647v44.511c0,4.388,3.183,7.94,7.102,7.94
		c3.918,0,7.095-3.555,7.095-7.94v-80.25c0-2.193,1.59-3.972,3.55-3.972c1.958,0,3.548-1.776,3.548-3.971V48.336
		c0-2.192,1.586-3.973,3.548-3.973c6.313,0,11.437-5.729,11.437-12.793V17.453c0-2.194,1.586-3.971,3.547-3.971h15.375
		c15.24,0,27.595,13.826,27.595,30.881c6.532,0,11.826,5.928,11.826,13.236v100.887c0,8.283,6.001,15.002,13.405,15.002v-10.884
		c0-9.432,6.829-17.073,15.255-17.073c5.508,0,9.972-4.995,9.972-11.161c0-14.133,10.239-25.59,22.866-25.59h8.673
		c16.548,0,29.961,15.014,29.961,33.53v85.418l0.665-0.587v2.07l3.896-4.468l-0.875,9.584l-1.946,5.554l5.741-2.939l-0.875,3.703
		l2.433-1.416v4.684l-5.063,8.932l3.114-3.377l-0.586,4.029l5.741-4.572l-2.335,7.189l5.838-4.25l-2.236,9.477l-4.564,5.457
		l1.912,0.916l4.893-3.543l-0.583,3.594l-0.999,1.537l5.772,2.766l1.159-0.6l-0.286,1.018l183.184,87.813V-958L1153.817-831.422z
		 M961.28-674.127c-0.06-6.289-0.104-11.307-0.104-12.658c2.134,1.665,4.7,2.688,7.688,2.801c0.676,0.025,1.336-0.035,1.979-0.164
		L961.28-674.127z M982.79-696.663c-0.019-2.289-0.028-3.945-0.03-4.639c0.873,0.684,1.824,1.25,2.844,1.697L982.79-696.663z"/>
	<polygon fill="#030104" points="483.439,269.256 483.439,295.845 498.247,293.493 496.258,267.021 	"/>
	<polygon fill="#030104" points="483.905,242.261 483.905,248.287 483.439,248.287 483.439,267.393 496.12,265.183 494.397,242.261 
			"/>
</g>
<g opacity="0.15">
	<polygon fill="#030104" points="467.776,1703.714 466.075,1727.929 479.371,1730.673 479.371,1710.155 473.65,1710.155 
		473.65,1703.714 	"/>
	<polygon fill="#030104" points="463.946,1758.212 479.371,1761.122 479.371,1732.671 465.938,1729.89 	"/>
	<polygon fill="#030104" points="461.785,1788.946 462.177,1789.427 462.177,1788.608 462.858,1789.253 462.572,1785.282 
		463.612,1786.722 464.151,1784.097 464.689,1786.722 465.729,1785.282 465.441,1789.253 466.124,1788.608 466.124,1789.427 
		467.558,1787.665 467.235,1791.439 466.519,1793.63 468.635,1792.472 468.313,1793.931 469.209,1793.372 469.209,1794.179 
		471.496,1793.476 471.141,1792.915 471.609,1792.915 471.141,1791.155 471.609,1791.411 473.267,1792.931 474.45,1792.569 
		474.585,1791.757 473.33,1789.694 473.116,1788.276 475.555,1790.165 476.596,1790.552 473.938,1787.159 473.116,1783.425 
		475.267,1785.099 474.406,1782.267 476.523,1784.067 476.31,1782.483 477.455,1783.813 475.589,1780.292 475.589,1778.448 
		476.488,1779.003 476.164,1777.544 478.28,1778.704 477.563,1776.513 477.24,1772.737 478.675,1774.495 478.675,1773.679 
		479.357,1774.323 479.069,1770.354 479.371,1770.767 479.371,1763.204 463.799,1760.267 	"/>
	<polygon fill="#030104" points="458.031,1797.616 458.035,1797.614 458.031,1797.604 	"/>
	<polygon fill="#030104" points="461.467,1793.458 461.783,1793.63 461.513,1792.808 	"/>
	<polygon fill="#030104" points="458.089,1797.351 458.11,1797.366 458.121,1797.21 	"/>
	<rect x="482.122" y="1676.063" fill="#030104" width="6.378" height="5.287"/>
	<polygon fill="#030104" points="499.112,1784.987 497.396,1760.538 482.442,1763.081 482.442,1773.849 482.622,1773.679 
		482.622,1774.495 484.057,1772.737 483.736,1776.513 483.017,1778.704 485.133,1777.544 484.81,1779.003 485.708,1778.448 
		485.708,1780.292 483.842,1783.813 484.99,1782.483 484.776,1784.067 486.892,1782.267 486.031,1785.099 488.185,1783.425 
		487.359,1787.159 485.875,1789.056 488.033,1788.395 488.185,1788.276 488.171,1788.349 	"/>
	<path fill="#030104" d="M1152.82,555.763c-3.559-2.393-7.504-3.563-11.292-3.581c-3.748-13.097-16.187-20.223-26.273-14.951
		c-11.699,6.105-14.87,23.883-11.896,36.383c0,0,0,0.006,0.002,0.006c-3.512,2.099-6.637,5.774-8.949,11.26
		c-1.02,2.421-1.582,4.994-1.759,7.599c-0.021,0.294-0.038,0.589-0.048,0.88c-0.01,0.207-0.01,0.411-0.012,0.616
		c-0.004,0.176-0.005,0.354-0.004,0.525c0,0.206,0.006,0.411,0.016,0.62c0.002,0.174,0.01,0.349,0.021,0.522
		c0.007,0.205,0.021,0.412,0.033,0.616c0.014,0.178,0.026,0.354,0.046,0.53c0.019,0.197,0.036,0.402,0.058,0.604
		c0.023,0.209,0.054,0.418,0.08,0.625c0.045,0.322,0.091,0.647,0.148,0.972c0.03,0.184,0.059,0.362,0.092,0.549
		c0.039,0.189,0.081,0.385,0.119,0.58c0.038,0.18,0.076,0.356,0.116,0.535c0.043,0.188,0.09,0.379,0.136,0.566
		c0.047,0.186,0.096,0.365,0.143,0.545c0.051,0.186,0.101,0.361,0.148,0.541c0.064,0.223,0.134,0.438,0.202,0.659
		c0.076,0.247,0.158,0.493,0.244,0.736c0.077,0.221,0.15,0.438,0.232,0.65c0.059,0.164,0.122,0.319,0.188,0.479
		c0.074,0.188,0.147,0.376,0.226,0.563c0.069,0.157,0.135,0.317,0.206,0.473c0.082,0.191,0.169,0.378,0.253,0.563
		c0.07,0.146,0.137,0.291,0.208,0.438c0.108,0.223,0.222,0.438,0.335,0.66c0.055,0.104,0.104,0.205,0.159,0.305
		c0.165,0.307,0.336,0.604,0.511,0.898c0.068,0.118,0.142,0.229,0.209,0.338c0.118,0.198,0.238,0.391,0.362,0.577
		c0.076,0.121,0.157,0.237,0.237,0.354c0.124,0.185,0.248,0.364,0.377,0.54c0.075,0.107,0.155,0.218,0.233,0.328
		c0.149,0.197,0.303,0.396,0.459,0.586c0.063,0.076,0.119,0.154,0.182,0.229c0.217,0.265,0.437,0.521,0.662,0.771
		c0.058,0.063,0.119,0.125,0.183,0.188c0.168,0.188,0.341,0.366,0.517,0.541c0.084,0.082,0.169,0.163,0.253,0.247
		c0.162,0.151,0.324,0.304,0.485,0.448c0.09,0.078,0.176,0.155,0.265,0.231c0.181,0.153,0.361,0.304,0.543,0.448
		c0.073,0.056,0.146,0.115,0.219,0.172c0.258,0.193,0.519,0.384,0.779,0.563c0.046,0.026,0.087,0.053,0.125,0.08
		c0.228,0.147,0.453,0.291,0.684,0.424c0.089,0.05,0.18,0.101,0.27,0.147c0.188,0.104,0.376,0.203,0.567,0.302
		c0.101,0.049,0.197,0.096,0.294,0.141c0.194,0.091,0.396,0.182,0.594,0.262c0.088,0.038,0.179,0.072,0.27,0.104
		c0.284,0.112,0.575,0.214,0.868,0.304c7.293,2.188,13.563-2.489,17.338-9.188c0.148,0.428,0.271,0.809,0.359,1.128l-25.804,47.399
		l-44.084-37.361l-52.129,58.377c-0.076-0.818-0.193-1.641-0.359-2.447c-1.854-8.975-7.974-13.154-13.526-13.18
		c-2.234-7.811-9.648-12.053-15.661-8.913c-6.889,3.594-8.81,13.96-7.15,21.392c-3.055-5.799-9.257-8.573-14.431-5.873
		c-6.976,3.642-8.866,14.236-7.092,21.688v0.004c-2.095,1.251-3.958,3.443-5.336,6.708c-0.606,1.444-0.941,2.979-1.05,4.532
		c-0.012,0.172-0.021,0.35-0.026,0.521c-0.003,0.123-0.003,0.249-0.008,0.37c0,0.105-0.004,0.208,0,0.314
		c0,0.123,0.005,0.246,0.008,0.369c0.002,0.104,0.006,0.206,0.013,0.312c0.005,0.124,0.011,0.245,0.021,0.368
		c0.01,0.104,0.018,0.207,0.025,0.312c0.013,0.123,0.021,0.242,0.035,0.365s0.031,0.248,0.047,0.371
		c0.027,0.194,0.056,0.387,0.09,0.579c0.019,0.111,0.034,0.22,0.059,0.322c0.021,0.118,0.046,0.233,0.066,0.353
		c0.022,0.104,0.049,0.209,0.071,0.313c0.021,0.114,0.054,0.229,0.08,0.344c0.022,0.106,0.054,0.218,0.086,0.324
		c0.028,0.106,0.055,0.215,0.089,0.323c0.037,0.129,0.079,0.263,0.12,0.395c0.046,0.146,0.095,0.293,0.146,0.437
		c0.045,0.136,0.093,0.263,0.139,0.392c0.036,0.093,0.072,0.188,0.109,0.287c0.045,0.107,0.093,0.224,0.136,0.332
		c0.042,0.096,0.081,0.188,0.124,0.281c0.049,0.111,0.099,0.227,0.15,0.335c0.039,0.087,0.08,0.175,0.123,0.261
		c0.064,0.133,0.133,0.266,0.201,0.393c0.029,0.064,0.06,0.123,0.091,0.18c0.103,0.185,0.202,0.363,0.309,0.541
		c0.038,0.07,0.079,0.133,0.124,0.204c0.068,0.112,0.144,0.229,0.215,0.341c0.047,0.071,0.094,0.145,0.142,0.213
		c0.074,0.111,0.147,0.214,0.229,0.319c0.044,0.069,0.093,0.132,0.14,0.196c0.089,0.117,0.181,0.236,0.273,0.352
		c0.034,0.045,0.068,0.092,0.106,0.135c0.129,0.154,0.259,0.312,0.396,0.455c0.036,0.043,0.07,0.08,0.104,0.117
		c0.104,0.113,0.207,0.222,0.313,0.322c0.051,0.048,0.101,0.096,0.149,0.143c0.098,0.097,0.192,0.188,0.29,0.272
		c0.052,0.05,0.104,0.097,0.156,0.136c0.104,0.094,0.214,0.185,0.323,0.271c0.045,0.03,0.086,0.065,0.129,0.102
		c0.153,0.116,0.311,0.229,0.466,0.335c0.025,0.018,0.052,0.032,0.075,0.049c0.135,0.09,0.27,0.174,0.405,0.251
		c0.054,0.033,0.105,0.062,0.158,0.087c0.112,0.067,0.228,0.125,0.34,0.182c0.061,0.031,0.116,0.061,0.178,0.086
		c0.115,0.055,0.231,0.104,0.353,0.154c0.053,0.023,0.107,0.049,0.162,0.065c0.169,0.064,0.342,0.126,0.518,0.179
		c4.346,1.303,8.084-1.484,10.334-5.479c0.148,0.424,0.255,0.771,0.295,1.002c0.111,0.646,0.025,8.35-0.118,17.491l-22.45,25.142
		h-1.398v1.566l-13.039,14.604l-3.361,0.11c-0.062-6.956-0.119-13.828-0.119-15.178c1.317,1.101,2.904,1.771,4.749,1.851
		c5.116,0.211,8.792-7.534,7.426-14.16c-1.146-5.547-4.931-8.132-8.36-8.146c-1.381-4.824-5.961-7.447-9.676-5.502
		c-4.311,2.248-5.479,8.793-4.384,13.396v0.003c-1.294,0.771-2.444,2.127-3.295,4.146c-0.376,0.896-0.584,1.843-0.648,2.802
		c-0.008,0.104-0.015,0.213-0.019,0.319c-0.003,0.078-0.003,0.15-0.004,0.229c-0.002,0.063-0.002,0.131-0.002,0.195
		c0,0.073,0.003,0.153,0.006,0.227c0,0.066,0.004,0.131,0.005,0.194c0.006,0.072,0.009,0.147,0.017,0.228
		c0.005,0.064,0.01,0.127,0.018,0.191c0.007,0.078,0.013,0.149,0.021,0.227c0.012,0.076,0.021,0.154,0.028,0.231
		c0.016,0.117,0.032,0.234,0.057,0.353c0.012,0.069,0.021,0.135,0.032,0.205c0.017,0.07,0.03,0.145,0.044,0.215
		c0.017,0.066,0.027,0.131,0.044,0.194c0.018,0.071,0.031,0.142,0.051,0.213c0.016,0.066,0.033,0.134,0.053,0.2
		c0.019,0.063,0.036,0.132,0.056,0.199c0.022,0.077,0.05,0.164,0.075,0.239c0.027,0.097,0.057,0.185,0.089,0.274
		c0.027,0.077,0.06,0.158,0.083,0.238c0.023,0.06,0.049,0.115,0.07,0.177c0.025,0.067,0.055,0.136,0.084,0.207
		c0.023,0.059,0.05,0.114,0.075,0.171c0.03,0.071,0.061,0.142,0.096,0.209c0.021,0.056,0.047,0.108,0.075,0.16
		c0.04,0.084,0.08,0.161,0.123,0.242c0.02,0.039,0.039,0.078,0.059,0.115c0.063,0.111,0.123,0.222,0.188,0.332
		c0.022,0.041,0.05,0.08,0.073,0.123c0.044,0.069,0.091,0.145,0.135,0.211c0.028,0.047,0.061,0.09,0.088,0.131
		c0.046,0.066,0.092,0.135,0.139,0.201c0.031,0.039,0.061,0.08,0.089,0.115c0.056,0.076,0.109,0.148,0.167,0.219
		c0.022,0.027,0.045,0.059,0.068,0.088c0.08,0.094,0.159,0.188,0.244,0.278c0.021,0.024,0.043,0.052,0.063,0.071
		c0.063,0.067,0.126,0.136,0.192,0.198c0.029,0.031,0.063,0.06,0.093,0.092c0.063,0.056,0.118,0.109,0.18,0.165
		c0.031,0.026,0.064,0.059,0.098,0.086c0.063,0.063,0.133,0.114,0.2,0.166c0.024,0.021,0.055,0.042,0.079,0.063
		c0.096,0.07,0.189,0.143,0.288,0.206c0.016,0.009,0.029,0.021,0.044,0.028c0.086,0.057,0.17,0.106,0.253,0.156
		c0.032,0.02,0.065,0.036,0.1,0.055c0.069,0.038,0.139,0.074,0.211,0.111c0.035,0.021,0.072,0.032,0.107,0.052
		c0.071,0.033,0.146,0.063,0.218,0.095c0.032,0.018,0.065,0.027,0.101,0.039c0.104,0.041,0.212,0.079,0.319,0.11
		c2.686,0.806,4.996-0.915,6.385-3.385c0.093,0.263,0.157,0.478,0.184,0.619c0.086,0.483-0.012,7.444-0.139,14.601l-24.84,0.817
		v-73.271v-1.383v-11.477h-6.438v-44.777h-3.372v44.777h-6.437v11.477h-16.248v46.219h-10.655v-15.754h-21.29v-4.66h0.234v-3.17
		h0.775v-4.188h-1.012v-2.42c0.689-0.609,1.146-1.66,1.146-2.857c0-1.881-1.121-3.408-2.506-3.408c-1.387,0-2.509,1.527-2.509,3.408
		c0,1.197,0.458,2.248,1.146,2.857v1.53c-2.857-0.735-5.871-3.45-8.22-7.614h0.021c-0.519-0.922-1.018-1.889-1.464-2.943
		c-0.268-0.627-0.502-1.258-0.722-1.896c0.372-0.884,0.592-1.867,0.592-2.91c0-2.808-3.349-6.219-5.083-10.021
		c-0.217-0.472-0.6-0.76-1.007-0.76h-0.021c-0.419,0-0.806,0.294-1.024,0.773c-1.737,3.797-5.079,7.205-5.079,10.008
		c0,0.944,0.181,1.838,0.492,2.662c-0.279,0.849-0.578,1.696-0.935,2.531c-0.384,0.909-0.806,1.748-1.245,2.559h0.013
		c-2.287,4.214-5.25,7.012-8.099,7.896V712.7c0.688-0.608,1.146-1.659,1.146-2.856c0-1.881-1.124-3.408-2.509-3.408
		c-1.386,0-2.509,1.527-2.509,3.408c0,1.197,0.46,2.248,1.144,2.856v2.42h-1.144v4.188h1.112v3.17h0.029v41.475h-2.652v-14.619
		h-12.946v-58.181l-21.888-14.89h-41.034v12.035H607.144v-59.623h-4.165h-2.604h-3.018h-2.187v-24.782h-31.748v35.403h-1.712h-2.027
		h-2.353h-2.027h-2.808v1.301h-1.139v-55.922H542.9v-64.468h-2.742v64.468h-5.479v-55.146h-2.741v55.146h-6.278v55.922h-8.907
		v40.979h-19.398v-7.493h-1.564v-61.306h-24.202h-61.48l-8.969,180.348l-3.375,2.299V724.8l-13.565-27.061
		c0.69-0.223,1.208-1.063,1.208-2.066c0-1.178-0.702-2.133-1.567-2.133h-0.347v-18.475L381.4,693.54h-0.177
		c-0.861,0-1.021,4.031-0.301,4.219l-67.647,6.601l-2.455-13.565h2.455l-3.549-10.728h2.184l-4.911-10.358H310l-4.91-13.318h1.908
		l-3.819-11.715h2.729l-4.367-10.108h3.002l-5.183-9.984h2.455l-5.73-17.016l-5.729,17.016h2.457l-5.183,9.984h3l-4.365,10.108
		h2.728l-3.819,11.715h1.908l-4.909,13.318h3.001l-4.91,10.358h2.18l-2.588,7.825c-2.808-1.241-5.719-2.364-8.722-3.372
		l-2.095-4.413h1.761l-2.88-7.816h1.119l-2.241-6.871h1.603l-2.563-5.935h1.76l-3.04-5.859h1.44l-3.361-9.985l-3.363,9.985h1.441
		l-3.042,5.859h1.761l-2.561,5.935h1.599l-2.241,6.871h1.122l-2.881,7.816h1.759l-0.295,0.623
		c-16.355-2.771-35.208-1.974-56.909,4.002c0,0-14.788-120.913-128.726-157.288l-1.374-3.725h1.908l-3.816-11.712h2.728
		l-4.366-10.109h3.001l-5.183-9.989h2.456l-5.729-17.019l-5.73,17.019h2.454l-5.181,9.989h3l-4.367,10.109h2.729l-3.265,10.019
		c-14.994-3.097-31.469-4.813-49.567-4.813v1322.093h2.533v-110.69l97.708-15.931l106.286-74.387l1.909,2.621
		c1.31-1.834,3.253-3.002,5.428-3.002h4.08c3.944,0,7.141-3.822,7.141-8.545v-9.765c0-4.719,3.197-8.545,7.139-8.545
		c3.943,0,7.138-3.819,7.138-8.539v-2.442c0-4.717,3.199-8.543,7.143-8.543h39.778c4.507,0,8.16,4.371,8.16,9.764
		c0,5.396,3.653,9.764,8.159,9.764h2.041c4.505,0,8.158,4.371,8.158,9.765v7.326c0,5.391,3.656,9.762,8.162,9.762h3.06
		c4.509,0,8.16,4.373,8.16,9.764v46.447c0,18.871,12.786,34.172,28.562,34.172v-32.41c0-9.098,6.165-16.475,13.769-16.475
		c7.605,0,13.771,7.377,13.771,16.475v18.701c0,15.388,10.425,27.857,23.283,27.857c5.168,0,9.355,5.012,9.355,11.194v39.681
		l5.387,3.125l-0.243-2.863l1.339,1.642v-0.761l0.635,0.604l-0.269-3.707l0.972,1.342l0.503-2.445l0.501,2.445l0.969-1.342
		l-0.267,3.707l0.636-0.604v0.761l1.338-1.642l-0.3,3.521l-0.67,2.047l1.974-1.082l-0.3,1.358l0.836-0.52v1.721l-0.103,0.195
		l4.757,2.758l3.11-0.953l-0.071-0.279l0.348,0.189l2.396-0.736l-0.56-0.912l-0.216-1.42l2.377,1.842l0.615-0.188l-2.168-2.768
		l-0.824-3.734l2.15,1.672l-0.86-2.83l2.119,1.799l-0.216-1.586l1.146,1.33l-1.865-3.52v-1.849l0.896,0.56l-0.321-1.459l2.115,1.157
		l-0.717-2.188l-0.322-3.777l1.435,1.76v-0.815l0.684,0.646l-0.287-3.973l1.039,1.439l0.541-2.625l0.537,2.625l1.04-1.439
		l-0.285,3.973l0.679-0.646v0.815l1.438-1.76l-0.321,3.777l-0.718,2.188l2.116-1.157l-0.323,1.459l0.896-0.56v1.849l-1.864,3.52
		l1.146-1.33l-0.216,1.586l2.119-1.799l-0.862,2.83l1.742-1.352l2.477-35.248l-1.098-0.209l0.267-2.033l0.979,0.184l1.992-28.373
		l-1.345-0.276l0.281-1.938l1.202,0.248l1.658-23.584h-0.553V1686.2h-1.25v-3.595h3.628v-6.543h-5.631v-3.676h5.631v-5.119h-5.014
		l11.529-5.979v-21.416h1.229v2.727h5.232v1.978h3.307v6.463h-5.846v-1.971h-2.693v11.584l6.757-3.504l18.649,10.121h-5.014v5.118
		h6.267v3.679h-6.267v6.541h4.264v3.596h-1.25v17.512h-1.188l1.684,23.939l3.25-0.607l0.253,1.945l-3.365,0.629l1.991,28.348
		l3.026-0.514l0.243,2.037l-3.125,0.528l1.691,24.041l60.364-18.561c0,0,106.077-92.621,109.137-93.844
		c3.062-1.222,89.138-36.615,89.138-36.615l23.128,12.817c3.646-2.444,7.849-3.848,12.326-3.848v-64.146
		c0-10.421,7.06-18.869,15.768-18.869c8.709,0,15.77,8.448,15.77,18.869v47.586c0,4.692,3.181,8.494,7.1,8.494
		c3.918,0,7.095-3.802,7.095-8.494v-85.795c0-2.347,1.59-4.244,3.55-4.244c1.958,0,3.548-1.902,3.548-4.246v-36.795
		c0-2.345,1.586-4.246,3.548-4.246c6.313,0,11.435-6.123,11.435-13.681v-15.092c0-2.348,1.586-4.248,3.547-4.248h15.375
		c15.24,0,27.595,14.785,27.595,33.021c6.532,0,11.826,6.336,11.826,14.153v107.861c0,8.857,6.001,16.041,13.405,16.041v-11.637
		c0-10.086,6.828-18.258,15.255-18.258c5.508,0,9.972-5.34,9.972-11.937c0-15.106,10.239-27.354,22.866-27.354h8.673
		c16.548,0,29.961,16.051,29.961,35.85v91.328l0.665-0.631v2.215l3.894-4.775l-0.875,10.246l-1.946,5.939l5.741-3.146l-0.875,3.959
		l2.433-1.514v5.008l-5.062,9.547l3.115-3.609l-0.586,4.312l5.741-4.891l-2.335,7.686l5.838-4.543l-2.236,10.133l-4.566,5.837
		l1.912,0.979l4.893-3.787l-0.583,3.842l-0.999,1.646l5.773,2.959l1.16-0.644l-0.287,1.089l183.183,93.887V420.433L1152.82,555.763z
		 M960.283,723.938c-0.059-6.725-0.102-12.09-0.104-13.531c2.134,1.778,4.7,2.873,7.688,2.992c0.676,0.026,1.336-0.037,1.979-0.175
		L960.283,723.938z M981.793,699.846c-0.018-2.446-0.028-4.219-0.03-4.962c0.873,0.73,1.824,1.337,2.844,1.814L981.793,699.846z"/>
	<polygon fill="#030104" points="482.442,1732.575 482.442,1761.003 497.25,1758.487 495.261,1730.183 	"/>
	<polygon fill="#030104" points="482.907,1703.714 482.907,1710.155 482.442,1710.155 482.442,1730.581 495.123,1728.218 
		493.4,1703.714 	"/>
</g>
</svg>
