<svg id="Capa_1" data-name="Capa 1" xmlns="http://www.w3.org/2000/svg" viewBox="0 0 1152.83 847.39"><defs><style>.cls-1{fill:#2185b0;}</style></defs><title>bk_01</title><polygon class="cls-1" points="100.31 802.93 100.58 802.46 100.04 802.46 100.31 802.93"/><polygon class="cls-1" points="240.36 782.7 241.94 781.73 239.8 781.73 240.36 782.7"/><path class="cls-1" d="M1572.51,619.36c0-.08.07-0.16,0.12-0.24l2.24-3.88h-4.74Z" transform="translate(-767.17 -232.61)"/><path class="cls-1" d="M1579.6,631.63l12.13,21,21.67-13.45v-7.53h-33.53Z" transform="translate(-767.17 -232.61)"/><polygon class="cls-1" points="739.84 472.63 751.96 465.1 739.84 465.1 739.84 472.63"/><polygon class="cls-1" points="785.47 444.3 799.66 435.49 785.47 435.49 785.47 444.3"/><path class="cls-1" d="M1912.38,243.48a25.18,25.18,0,0,0-1.41-2.55,20.69,20.69,0,0,0-3.36-4.08,14.46,14.46,0,0,0-20.48,0,20.68,20.68,0,0,0-3.35,4.08,25.48,25.48,0,0,0-1.41,2.55l-14.58,30.22-97.9,202.94-5.73-9.93a3.91,3.91,0,0,0-6.79,0l-20.07,34.76a3.92,3.92,0,0,0,3.39,5.88h5.23l-15.17,26.28-11-19.08a4.47,4.47,0,0,0-7.74,0l-22.88,39.63a4.47,4.47,0,0,0,3.87,6.7h6l-21.54,37.32a6.5,6.5,0,0,0-.68,1.68l-11.11,6.9-16.15-28h6.13a6.42,6.42,0,0,0,5.56-9.64l-21.54-37.32h6a4.47,4.47,0,0,0,3.87-6.7l-22.88-39.63a4.47,4.47,0,0,0-7.74,0l-22.88,39.63a4.47,4.47,0,0,0,3.87,6.7h6l-21.54,37.32a6.42,6.42,0,0,0,5.56,9.64h6.13l-14.78,25.6-20.85-36.11h6a4.47,4.47,0,0,0,3.87-6.7L1547.22,522a4.47,4.47,0,0,0-7.74,0l-22.88,39.63a4.47,4.47,0,0,0,3.87,6.7h6l-8.18,14.17-16.58-28.73a4.4,4.4,0,0,0-7.63,0l-22.54,39a4.4,4.4,0,0,0,3.81,6.6h5.87L1460,636.14a6.33,6.33,0,0,0,5.48,9.49h6l-22.93,39.73a8.23,8.23,0,0,0,7.13,12.35h33v18.89l-72.86,45.23-4.45-24.13-43.07-1.77-8.65,28.17a7.7,7.7,0,0,1-7,5l-3.34,0,0.29-7.18a5,5,0,0,0,2.17-3.91l0.25-6a5,5,0,0,0-1.84-4.08l0.23-5.54-6.13-8.72a3,3,0,1,0-4.94,3.47l5,7-0.14,3.49a5,5,0,0,0-2.17,3.91l-0.25,6a5,5,0,0,0,1.84,4.08l-0.3,7.37-12.45-.13c-8-.33-11.25,4.07-11.55,11.39L1319,786.8a20.2,20.2,0,0,0-3.61,2.28l1.49,1.84c-0.3.24-.59,0.49-0.88,0.76a17.89,17.89,0,0,0-5.43,9.64l-2.33-.47a20.35,20.35,0,0,0,.93,11.3l2.22-.85a17.83,17.83,0,0,0,2.44,4.42l-24.5-16.87V777l-2-5.83,7.55,17.95a3.47,3.47,0,0,0,6.39-2.69l-10.86-25.81-0.12-35.08h0.18a3.38,3.38,0,0,0,0-6.76H1269.6l-36.17-33.37-36.17,33.37h-21.7a3.38,3.38,0,0,0,0,6.76h1.59L1177,759.58l-10.87,26.08a3.47,3.47,0,1,0,6.4,2.67l3-7.18V911l-36.09,22.41-14-24.19a4.24,4.24,0,0,0-7.34,0l-21.69,37.57a4.23,4.23,0,0,0,3.67,6.35h5.65l-1.05,1.82-33.87,21-4.15-7.19a3.34,3.34,0,0,0-5.78,0l-12,20.82-34.19,21.23a3.27,3.27,0,0,0-.43-1.51l-17.09-29.6a3.33,3.33,0,0,0-5.78,0l-17.09,29.6a3.34,3.34,0,0,0,2.89,5h4.45l-12.61,21.84-6.83-11.84h5.37a5.63,5.63,0,0,0,4.88-8.45l-18.89-32.73h5.23a3.92,3.92,0,0,0,3.39-5.88l-20.07-34.76a3.92,3.92,0,0,0-6.79,0L915.3,977.28a3.92,3.92,0,0,0,3.4,5.88h5.23l-7.55,13.08L900.66,969a3.92,3.92,0,0,0-6.79,0l-20.07,34.76a3.92,3.92,0,0,0,3.39,5.88h5.23l-8.94,15.48-17.72-30.7a3.91,3.91,0,0,0-6.79,0l-20.07,34.76a3.92,3.92,0,0,0,3.39,5.88h5.23l-18.9,32.73a5.63,5.63,0,0,0,4.88,8.45h5.37l-2.17,3.75H1920V259.27ZM867.48,1035.53l-0.27-.47h0.54Zm140.05-20.22-0.56-1h2.14Zm240.42-250.76h-29.38v-7.88h29.38v7.88Zm0-12h-29.38V723.21h29.38v29.38Zm153.27,18.32c-12.15,1.25-24,6.72-29.34,17l-3.12-.13,7.08-42.58,26.57,1.09,4.2,21.31ZM1507,705.23v-7.53h12.12Zm45.64-28.33v-8.81h14.19Zm20-57.79c0,0.08-.08.16-0.12,0.24l-2.38-4.12h4.74Zm40.77,20.07-21.67,13.45-12.13-21,0.26,0h33.53v7.53Z" transform="translate(-767.17 -232.61)"/><path class="cls-1" d="M805,1062.28a3,3,0,0,0,2.57-4.46l-10-17.26h2.75a2.06,2.06,0,0,0,1.79-3.1l-10.58-18.33a2.06,2.06,0,0,0-3.58,0l-10.57,18.33a2.06,2.06,0,0,0,1.79,3.1H782l-10,17.26a3,3,0,0,0,2.57,4.46h2.83L767.17,1080h45.2l-10.23-17.72H805Z" transform="translate(-767.17 -232.61)"/></svg>