<?xml version="1.0" encoding="utf-8"?>
<!-- Generator: Adobe Illustrator 16.0.0, SVG Export Plug-In . SVG Version: 6.00 Build 0)  -->
<!DOCTYPE svg PUBLIC "-//W3C//DTD SVG 1.1//EN" "http://www.w3.org/Graphics/SVG/1.1/DTD/svg11.dtd">
<svg version="1.1" id="Capa_1" xmlns="http://www.w3.org/2000/svg" xmlns:xlink="http://www.w3.org/1999/xlink" x="0px" y="0px"
	 width="1226.504px" height="689.572px" viewBox="0 0 1226.504 689.572" enable-background="new 0 0 1226.504 689.572"
	 xml:space="preserve">
<g opacity="0.15">
	<polygon fill="#030104" points="467.779,989.953 466.078,1018.73 479.374,1021.992 479.374,997.609 473.653,997.609 
		473.653,989.953 	"/>
	<polygon fill="#030104" points="463.949,1054.716 479.374,1058.177 479.374,1024.364 465.94,1021.063 	"/>
	<polygon fill="#030104" points="461.788,1091.239 462.18,1091.808 462.18,1090.839 462.861,1091.604 462.575,1086.885 
		463.615,1088.596 464.154,1085.478 464.692,1088.596 465.732,1086.885 465.444,1091.604 466.127,1090.839 466.127,1091.808 
		467.561,1089.719 467.238,1094.206 466.521,1096.807 468.638,1095.433 468.316,1097.166 469.212,1096.501 469.212,1097.461 
		471.499,1096.625 471.144,1095.957 471.612,1095.957 471.144,1093.865 471.612,1094.17 473.27,1095.976 474.453,1095.544 
		474.588,1094.58 473.333,1092.128 473.119,1090.444 475.558,1092.688 476.599,1093.149 473.941,1089.116 473.119,1084.68 
		475.27,1086.669 474.409,1083.303 476.526,1085.443 476.313,1083.562 477.458,1085.14 475.592,1080.954 475.592,1078.764 
		476.491,1079.425 476.167,1077.691 478.283,1079.069 477.565,1076.466 477.243,1071.978 478.678,1074.068 478.678,1073.1 
		479.36,1073.864 479.072,1069.146 479.374,1069.64 479.374,1060.651 463.802,1057.164 	"/>
	<polygon fill="#030104" points="458.034,1101.544 458.038,1101.541 458.034,1101.532 	"/>
	<polygon fill="#030104" points="461.47,1096.602 461.786,1096.807 461.516,1095.829 	"/>
	<polygon fill="#030104" points="458.092,1101.229 458.113,1101.247 458.124,1101.061 	"/>
	<rect x="482.125" y="957.101" fill="#030104" width="6.378" height="6.28"/>
	<polygon fill="#030104" points="499.115,1086.534 497.398,1057.483 482.445,1060.505 482.445,1073.301 482.625,1073.1 
		482.625,1074.068 484.06,1071.978 483.739,1076.466 483.02,1079.069 485.137,1077.691 484.813,1079.425 485.711,1078.764 
		485.711,1080.954 483.845,1085.14 484.993,1083.562 484.779,1085.443 486.895,1083.303 486.034,1086.669 488.188,1084.68 
		487.362,1089.116 485.878,1091.371 488.036,1090.583 488.188,1090.444 488.174,1090.532 	"/>
	<path fill="#030104" d="M1152.823-374.18c-3.56-2.843-7.503-4.235-11.292-4.255c-3.748-15.565-16.188-24.032-26.273-17.768
		c-11.697,7.255-14.87,28.38-11.896,43.232c0,0,0,0.007,0.002,0.007c-3.511,2.495-6.636,6.865-8.949,13.38
		c-1.019,2.876-1.582,5.937-1.759,9.03c-0.021,0.346-0.038,0.697-0.047,1.044c-0.012,0.245-0.012,0.489-0.014,0.731
		c-0.004,0.208-0.005,0.419-0.004,0.625c0,0.245,0.006,0.489,0.018,0.737c0.002,0.206,0.01,0.414,0.021,0.623
		c0.007,0.243,0.021,0.489,0.033,0.732c0.014,0.21,0.028,0.419,0.046,0.63c0.02,0.235,0.036,0.479,0.058,0.717
		c0.022,0.25,0.055,0.499,0.08,0.743c0.045,0.385,0.091,0.771,0.148,1.154c0.03,0.218,0.059,0.431,0.092,0.653
		c0.039,0.227,0.081,0.456,0.119,0.691c0.038,0.212,0.076,0.423,0.117,0.635c0.043,0.223,0.089,0.45,0.136,0.674
		c0.046,0.218,0.095,0.434,0.142,0.647c0.052,0.218,0.102,0.429,0.148,0.643c0.063,0.263,0.134,0.521,0.203,0.785
		c0.077,0.292,0.159,0.585,0.245,0.875c0.074,0.261,0.147,0.519,0.229,0.771c0.062,0.195,0.122,0.383,0.188,0.57
		c0.073,0.224,0.146,0.448,0.226,0.668c0.069,0.188,0.135,0.377,0.206,0.56c0.082,0.228,0.169,0.45,0.253,0.67
		c0.07,0.174,0.137,0.344,0.208,0.519c0.108,0.265,0.223,0.523,0.335,0.784c0.056,0.124,0.104,0.246,0.159,0.362
		c0.165,0.365,0.336,0.719,0.511,1.07c0.068,0.141,0.142,0.272,0.21,0.398c0.117,0.239,0.237,0.463,0.361,0.688
		c0.076,0.143,0.156,0.282,0.235,0.42c0.125,0.219,0.248,0.435,0.377,0.644c0.075,0.129,0.155,0.257,0.234,0.389
		c0.15,0.237,0.302,0.469,0.459,0.698c0.063,0.092,0.119,0.185,0.182,0.271c0.218,0.313,0.438,0.618,0.661,0.916
		c0.059,0.075,0.12,0.149,0.185,0.228c0.168,0.22,0.341,0.433,0.517,0.642c0.084,0.096,0.169,0.192,0.253,0.292
		c0.162,0.182,0.324,0.359,0.485,0.534c0.09,0.091,0.176,0.185,0.264,0.275c0.182,0.184,0.362,0.36,0.544,0.534
		c0.073,0.065,0.146,0.136,0.218,0.203c0.26,0.232,0.521,0.458,0.779,0.668c0.045,0.032,0.088,0.063,0.125,0.094
		c0.229,0.176,0.454,0.347,0.686,0.503c0.089,0.061,0.18,0.121,0.271,0.177c0.188,0.124,0.375,0.244,0.566,0.356
		c0.101,0.06,0.196,0.115,0.294,0.169c0.193,0.107,0.395,0.213,0.594,0.308c0.089,0.047,0.178,0.088,0.271,0.127
		c0.281,0.133,0.574,0.253,0.867,0.359c7.293,2.601,13.563-2.96,17.338-10.92c0.147,0.507,0.271,0.958,0.358,1.339l-25.804,56.327
		l-44.084-44.399l-52.129,69.374c-0.076-0.973-0.193-1.951-0.359-2.911c-1.854-10.664-7.974-15.632-13.525-15.66
		c-2.234-9.279-9.648-14.324-15.661-10.591c-6.89,4.269-8.811,16.589-7.149,25.42c-3.056-6.892-9.258-10.189-14.432-6.981
		c-6.977,4.328-8.866,16.918-7.092,25.771c0,0,0,0.003,0,0.008c-2.096,1.484-3.959,4.092-5.338,7.97
		c-0.604,1.715-0.939,3.541-1.049,5.384c-0.012,0.206-0.021,0.417-0.025,0.621c-0.003,0.146-0.003,0.295-0.006,0.437
		c-0.004,0.126-0.007,0.25-0.004,0.377c0,0.146,0.007,0.292,0.01,0.437c0.002,0.125,0.006,0.247,0.013,0.37
		c0.005,0.146,0.011,0.292,0.021,0.439c0.012,0.122,0.021,0.246,0.026,0.371c0.013,0.143,0.021,0.287,0.035,0.434
		c0.014,0.144,0.031,0.295,0.047,0.44c0.027,0.231,0.056,0.461,0.089,0.688c0.021,0.132,0.035,0.259,0.061,0.386
		c0.021,0.138,0.046,0.276,0.065,0.415c0.022,0.127,0.049,0.25,0.071,0.377c0.021,0.136,0.054,0.274,0.08,0.405
		c0.021,0.129,0.055,0.26,0.086,0.389c0.027,0.127,0.055,0.253,0.089,0.382c0.037,0.157,0.079,0.313,0.12,0.466
		c0.046,0.177,0.095,0.347,0.146,0.52c0.045,0.157,0.094,0.311,0.141,0.462c0.032,0.112,0.07,0.224,0.107,0.34
		c0.045,0.132,0.091,0.269,0.134,0.398c0.045,0.114,0.082,0.224,0.125,0.338c0.051,0.13,0.101,0.265,0.151,0.395
		c0.039,0.104,0.08,0.209,0.123,0.308c0.064,0.159,0.133,0.315,0.201,0.469c0.028,0.077,0.06,0.144,0.091,0.214
		c0.102,0.216,0.202,0.432,0.307,0.641c0.04,0.084,0.081,0.16,0.124,0.242c0.07,0.133,0.146,0.272,0.218,0.406
		c0.047,0.084,0.094,0.169,0.142,0.254c0.074,0.13,0.148,0.252,0.229,0.379c0.044,0.08,0.093,0.154,0.14,0.234
		c0.089,0.138,0.181,0.28,0.271,0.414c0.036,0.056,0.07,0.11,0.108,0.163c0.129,0.186,0.26,0.365,0.396,0.542
		c0.034,0.047,0.07,0.093,0.104,0.138c0.104,0.133,0.207,0.258,0.311,0.383c0.054,0.055,0.104,0.114,0.151,0.169
		c0.096,0.114,0.192,0.222,0.29,0.326c0.051,0.057,0.104,0.112,0.156,0.161c0.104,0.109,0.215,0.216,0.321,0.317
		c0.047,0.04,0.088,0.08,0.131,0.12c0.151,0.142,0.311,0.272,0.466,0.398c0.022,0.021,0.052,0.04,0.075,0.061
		c0.135,0.101,0.27,0.203,0.402,0.296c0.057,0.038,0.107,0.074,0.16,0.104c0.112,0.079,0.229,0.149,0.339,0.213
		c0.063,0.036,0.117,0.074,0.179,0.099c0.114,0.065,0.231,0.127,0.354,0.187c0.052,0.027,0.107,0.055,0.162,0.077
		c0.169,0.08,0.342,0.148,0.517,0.213c4.348,1.549,8.083-1.767,10.333-6.51c0.15,0.504,0.256,0.917,0.295,1.192
		c0.113,0.766,0.027,9.923-0.115,20.785l-22.45,29.878h-1.399v1.861l-13.039,17.35l-3.359,0.134
		c-0.063-8.266-0.119-16.435-0.119-18.035c1.315,1.305,2.901,2.107,4.749,2.198c5.117,0.248,8.792-8.953,7.426-16.827
		c-1.146-6.593-4.931-9.662-8.361-9.682c-1.38-5.732-5.961-8.849-9.675-6.538c-4.311,2.671-5.479,10.451-4.384,15.919v0.005
		c-1.294,0.916-2.445,2.528-3.295,4.928c-0.377,1.059-0.584,2.189-0.649,3.328c-0.007,0.122-0.014,0.252-0.018,0.382
		c-0.003,0.089-0.003,0.179-0.004,0.269c-0.002,0.079-0.002,0.158-0.002,0.232c0,0.09,0.003,0.185,0.006,0.272
		c0,0.078,0.004,0.155,0.005,0.23c0.006,0.087,0.009,0.177,0.016,0.269c0.004,0.077,0.009,0.151,0.02,0.231
		c0.007,0.089,0.013,0.179,0.021,0.266c0.013,0.094,0.021,0.184,0.029,0.275c0.015,0.143,0.032,0.284,0.056,0.422
		c0.014,0.082,0.021,0.159,0.033,0.243c0.015,0.083,0.03,0.169,0.044,0.252c0.017,0.081,0.027,0.156,0.044,0.234
		c0.019,0.083,0.031,0.166,0.049,0.252c0.019,0.079,0.035,0.157,0.056,0.238c0.019,0.079,0.036,0.155,0.056,0.238
		c0.022,0.093,0.05,0.193,0.075,0.285c0.026,0.113,0.057,0.216,0.089,0.328c0.027,0.088,0.058,0.187,0.083,0.281
		c0.023,0.072,0.049,0.139,0.07,0.211c0.023,0.08,0.056,0.165,0.084,0.248c0.021,0.066,0.05,0.133,0.072,0.203
		c0.031,0.085,0.063,0.167,0.099,0.246c0.021,0.064,0.047,0.13,0.075,0.19c0.04,0.102,0.079,0.19,0.122,0.291
		c0.021,0.044,0.039,0.088,0.06,0.133c0.061,0.133,0.123,0.263,0.188,0.398c0.023,0.049,0.052,0.094,0.074,0.146
		c0.043,0.083,0.089,0.171,0.135,0.248c0.028,0.057,0.062,0.106,0.089,0.156c0.046,0.082,0.093,0.159,0.139,0.24
		c0.031,0.044,0.059,0.094,0.089,0.138c0.054,0.086,0.109,0.177,0.167,0.256c0.021,0.036,0.046,0.073,0.068,0.105
		c0.08,0.113,0.156,0.225,0.244,0.334c0.021,0.026,0.043,0.058,0.063,0.084c0.063,0.081,0.125,0.162,0.191,0.238
		c0.026,0.034,0.063,0.072,0.093,0.106c0.061,0.07,0.118,0.132,0.18,0.198c0.031,0.032,0.063,0.068,0.099,0.099
		c0.063,0.073,0.134,0.136,0.197,0.199c0.026,0.025,0.058,0.052,0.081,0.076c0.096,0.083,0.189,0.169,0.288,0.244
		c0.015,0.011,0.029,0.025,0.043,0.038c0.085,0.064,0.169,0.127,0.252,0.186c0.034,0.023,0.067,0.041,0.103,0.063
		c0.066,0.047,0.139,0.089,0.211,0.133c0.035,0.023,0.07,0.04,0.104,0.062c0.073,0.038,0.146,0.076,0.221,0.11
		c0.029,0.021,0.064,0.032,0.101,0.049c0.104,0.048,0.212,0.094,0.319,0.131c2.686,0.96,4.996-1.086,6.385-4.02
		c0.093,0.309,0.157,0.565,0.182,0.733c0.086,0.579-0.01,8.847-0.136,17.349l-24.841,0.973v-87.068v-1.641v-13.638h-6.438v-53.21
		h-3.373v53.21h-6.435v13.638H855.28v54.92h-10.656v-18.719H823.34v-5.538h0.234v-3.768h0.773v-4.975h-1.011v-2.875
		c0.689-0.723,1.146-1.972,1.146-3.396c0-2.233-1.121-4.051-2.507-4.051c-1.388,0-2.51,1.817-2.51,4.051
		c0,1.424,0.458,2.673,1.146,3.396v1.823c-2.858-0.873-5.871-4.102-8.221-9.049h0.021c-0.519-1.096-1.018-2.247-1.464-3.5
		c-0.269-0.747-0.501-1.497-0.722-2.253c0.371-1.051,0.592-2.217,0.592-3.462c0-3.332-3.351-7.388-5.083-11.905
		c-0.217-0.561-0.602-0.907-1.007-0.907h-0.021c-0.418,0-0.806,0.351-1.023,0.922c-1.737,4.513-5.079,8.56-5.079,11.889
		c0,1.127,0.181,2.187,0.491,3.167c-0.277,1.007-0.577,2.015-0.935,3.008c-0.384,1.081-0.806,2.079-1.246,3.04h0.015
		c-2.287,5.006-5.252,8.333-8.1,9.382v-2.154c0.688-0.724,1.146-1.972,1.146-3.396c0-2.234-1.124-4.051-2.512-4.051
		c-1.385,0-2.507,1.817-2.507,4.051c0,1.424,0.459,2.672,1.145,3.396v2.875h-1.145v4.975h1.112v3.768h0.029v49.283h-2.652v-17.376
		h-12.947v-69.136l-21.887-17.692h-41.034v14.3H607.146v-70.849h-4.165h-2.604h-3.019h-2.188v-29.45h-31.748v42.069h-1.712h-2.025
		h-2.354h-2.026H552.5v1.547h-1.139v-66.455h-8.458v-76.609h-2.742v76.609h-5.479v-65.534h-2.74v65.534h-6.278v66.455h-8.907v48.691
		h-19.397v-8.903h-1.564v-72.85H471.59H410.11V-92.12h-8.97l-3.375,2.729v-83.923L384.2-205.47c0.689-0.261,1.208-1.261,1.208-2.458
		c0-1.397-0.702-2.533-1.567-2.533h-0.348v-21.951h-2.089v21.951h-0.176c-0.862,0-1.566,1.137-1.566,2.533
		c0,1.229,0.545,2.255,1.266,2.48l-11.708,32.131v66.757h-16.433c-4.646-17.824-15.126-50.161-35.036-76.915l-4.473-14.132h1.906
		l-4.361-16.12h2.455l-3.55-12.746h2.185l-4.911-12.312h3.001l-4.91-15.824h1.908l-3.819-13.921h2.729l-4.367-12.012h3.002
		l-5.183-11.868h2.455l-5.73-20.219l-5.729,20.219h2.457l-5.183,11.868h3l-4.365,12.012h2.728l-3.819,13.921h1.908l-4.909,15.824
		h3.001l-4.91,12.312h2.18l-2.588,9.298c-2.808-1.476-5.719-2.81-8.722-4.007l-2.095-5.244h1.761l-2.88-9.291h1.119l-2.241-8.166
		h1.602l-2.563-7.052h1.76l-3.04-6.962H266l-3.361-11.867l-3.363,11.867h1.441l-3.042,6.962h1.761l-2.561,7.052h1.599l-2.241,8.166
		h1.122l-2.881,9.291h1.759l-0.295,0.74c-16.355-3.293-35.208-2.346-56.909,4.756c0,0-14.788-143.686-128.726-186.91l-1.374-4.423
		h1.908l-3.816-13.918h2.728l-4.366-12.014h3.001l-5.183-11.871h2.456l-5.729-20.222l-5.729,20.222h2.454l-5.181,11.872h3
		l-4.367,12.013h2.729l-3.265,11.903c-14.994-3.678-31.469-5.719-49.567-5.719v1571.078h2.533v-131.539l97.708-18.926
		l106.286-88.396l1.909,3.115c1.31-2.181,3.253-3.572,5.428-3.572h4.08c3.944,0,7.141-4.543,7.141-10.153v-11.602
		c0-5.608,3.197-10.15,7.139-10.15c3.943,0,7.138-4.541,7.138-10.148v-2.901c0-5.607,3.199-10.153,7.143-10.153h39.778
		c4.507,0,8.16,5.195,8.16,11.603s3.653,11.604,8.159,11.604h2.041c4.507,0,8.158,5.196,8.158,11.604v8.704
		c0,6.406,3.656,11.602,8.162,11.602h3.06c4.51,0,8.16,5.195,8.16,11.605v55.19c0,22.426,12.786,40.607,28.563,40.607v-38.512
		c0-10.815,6.165-19.582,13.769-19.582c7.605,0,13.771,8.767,13.771,19.582v22.218c0,18.286,10.425,33.106,23.284,33.106
		c5.166,0,9.354,5.957,9.354,13.306v47.151l5.388,3.712l-0.243-3.401l1.339,1.945v-0.9l0.635,0.715l-0.27-4.401l0.973,1.594
		l0.503-2.908l0.501,2.908l0.969-1.594l-0.267,4.401l0.636-0.715v0.9l1.338-1.945l-0.3,4.188l-0.67,2.429l1.974-1.289l-0.3,1.617
		l0.836-0.619v2.048l-0.103,0.229l4.757,3.279l3.11-1.137l-0.071-0.334l0.348,0.231l2.399-0.875l-0.562-1.085l-0.216-1.687
		l2.377,2.19l0.615-0.226l-2.168-3.291l-0.824-4.436l2.152,1.986l-0.862-3.361l2.119,2.14l-0.215-1.881l1.146,1.579l-1.865-4.184
		v-2.195l0.896,0.664l-0.321-1.735l2.115,1.377l-0.717-2.603l-0.322-4.487l1.435,2.092v-0.971l0.685,0.769l-0.287-4.72l1.039,1.709
		l0.541-3.12l0.537,3.12l1.04-1.709l-0.285,4.72l0.679-0.769v0.971l1.438-2.092l-0.322,4.487l-0.718,2.603l2.114-1.377l-0.321,1.735
		l0.896-0.664v2.195l-1.864,4.184l1.146-1.579l-0.216,1.881l2.119-2.14l-0.862,3.361l1.742-1.607l2.477-41.886l-1.098-0.247
		l0.267-2.412l0.979,0.217l1.993-33.716l-1.347-0.335l0.281-2.298l1.202,0.291l1.658-28.029h-0.555v-20.807h-1.25v-4.271h3.631
		v-7.777h-5.633v-4.367h5.633v-6.084h-5.016l11.529-7.107v-25.449h1.229v3.239h5.232v2.351h3.307v7.683h-5.846v-2.345h-2.693v13.77
		l6.758-4.162l18.648,12.025h-5.014v6.083h6.267v4.369h-6.267v7.774h4.264v4.27h-1.25v20.808h-1.188l1.683,28.45l3.25-0.719
		l0.253,2.313l-3.365,0.746l1.991,33.688l3.026-0.608l0.244,2.417l-3.125,0.631l1.689,28.567l60.364-22.055
		c0,0,106.076-110.064,109.137-111.515c3.063-1.453,89.138-43.511,89.138-43.511l23.13,15.233c3.645-2.908,7.848-4.577,12.323-4.577
		v-76.227c0-12.384,7.062-22.42,15.771-22.42c8.708,0,15.769,10.036,15.769,22.42v56.552c0,5.576,3.182,10.089,7.101,10.089
		c3.918,0,7.095-4.518,7.095-10.089V797.382c0-2.785,1.59-5.046,3.55-5.046c1.958,0,3.548-2.256,3.548-5.045v-43.724
		c0-2.786,1.586-5.048,3.548-5.048c6.313,0,11.436-7.279,11.436-16.254V704.33c0-2.788,1.586-5.047,3.547-5.047h15.375
		c15.24,0,27.595,17.566,27.595,39.236c6.532,0,11.826,7.531,11.826,16.815v128.18c0,10.522,6.001,19.061,13.405,19.061v-13.83
		c0-11.982,6.829-21.69,15.255-21.69c5.508,0,9.972-6.347,9.972-14.182c0-17.955,10.239-32.511,22.866-32.511h8.673
		c16.548,0,29.961,19.074,29.961,42.599v108.525l0.665-0.746v2.631l3.895-5.677l-0.875,12.177l-1.946,7.057l5.741-3.735
		l-0.875,4.705l2.433-1.799v5.951l-5.063,11.349l3.116-4.29l-0.586,5.118l5.741-5.81l-2.335,9.133l5.838-5.398l-2.236,12.041
		l-4.565,6.933l1.912,1.165l4.893-4.502l-0.583,4.566l-0.999,1.952l5.771,3.515l1.16-0.763l-0.287,1.293l183.185,111.569V-535
		L1152.823-374.18z M960.286-174.334c-0.058-7.99-0.103-14.365-0.104-16.082c2.135,2.116,4.7,3.416,7.688,3.559
		c0.676,0.032,1.336-0.044,1.979-0.208L960.286-174.334z M981.796-202.967c-0.018-2.908-0.028-5.012-0.03-5.893
		c0.873,0.868,1.824,1.587,2.845,2.156L981.796-202.967z"/>
	<polygon fill="#030104" points="482.445,1024.252 482.445,1058.032 497.253,1055.045 495.264,1021.412 	"/>
	<polygon fill="#030104" points="482.911,989.953 482.911,997.609 482.445,997.609 482.445,1021.885 495.126,1019.075 
		493.403,989.953 	"/>
</g>
</svg>
