<?xml version="1.0" encoding="utf-8"?>
<!-- Generator: Adobe Illustrator 16.0.0, SVG Export Plug-In . SVG Version: 6.00 Build 0)  -->
<!DOCTYPE svg PUBLIC "-//W3C//DTD SVG 1.1//EN" "http://www.w3.org/Graphics/SVG/1.1/DTD/svg11.dtd">
<svg version="1.1" id="Capa_1" xmlns="http://www.w3.org/2000/svg" xmlns:xlink="http://www.w3.org/1999/xlink" x="0px" y="0px"
	 width="1226.504px" height="775.441px" viewBox="0 0 1226.504 775.441" enable-background="new 0 0 1226.504 775.441"
	 xml:space="preserve">
<g opacity="0.15">
	<polygon fill="#030104" points="467.779,266.909 466.078,291.124 479.374,293.868 479.374,273.351 473.653,273.351 
		473.653,266.909 	"/>
	<polygon fill="#030104" points="463.949,321.407 479.374,324.318 479.374,295.866 465.94,293.086 	"/>
	<polygon fill="#030104" points="461.788,352.141 462.18,352.622 462.18,351.804 462.861,352.448 462.575,348.478 463.615,349.917 
		464.154,347.292 464.692,349.917 465.732,348.478 465.444,352.448 466.127,351.804 466.127,352.622 467.561,350.861 
		467.238,354.636 466.521,356.825 468.638,355.668 468.316,357.127 469.212,356.568 469.212,357.375 471.499,356.672 
		471.144,356.11 471.612,356.11 471.144,354.35 471.612,354.607 473.27,356.127 474.453,355.764 474.588,354.952 473.333,352.889 
		473.119,351.471 475.558,353.36 476.599,353.747 473.941,350.355 473.119,346.62 475.27,348.294 474.409,345.462 476.526,347.262 
		476.313,345.678 477.458,347.008 475.592,343.488 475.592,341.643 476.491,342.199 476.167,340.74 478.283,341.899 
		477.565,339.708 477.243,335.932 478.678,337.69 478.678,336.875 479.36,337.519 479.072,333.549 479.374,333.963 479.374,326.4 
		463.802,323.463 	"/>
	<polygon fill="#030104" points="458.034,360.811 458.038,360.809 458.034,360.801 	"/>
	<polygon fill="#030104" points="461.47,356.654 461.786,356.825 461.516,356.004 	"/>
	<polygon fill="#030104" points="458.092,360.547 458.113,360.561 458.124,360.406 	"/>
	<rect x="482.125" y="239.26" fill="#030104" width="6.378" height="5.287"/>
	<polygon fill="#030104" points="499.115,348.182 497.398,323.733 482.445,326.276 482.445,337.045 482.625,336.875 482.625,337.69 
		484.06,335.932 483.739,339.708 483.02,341.899 485.136,340.74 484.813,342.199 485.711,341.643 485.711,343.488 483.845,347.008 
		484.993,345.678 484.779,347.262 486.895,345.462 486.034,348.294 488.188,346.62 487.362,350.355 485.878,352.252 488.036,351.59 
		488.188,351.471 488.174,351.545 	"/>
	<path fill="#030104" d="M1152.823-881.042c-3.559-2.393-7.503-3.564-11.292-3.581c-3.748-13.097-16.187-20.223-26.273-14.952
		c-11.699,6.106-14.87,23.883-11.896,36.382c0,0,0,0.006,0.002,0.006c-3.511,2.099-6.636,5.776-8.949,11.26
		c-1.019,2.421-1.582,4.995-1.759,7.599c-0.021,0.293-0.038,0.588-0.048,0.879c-0.01,0.207-0.01,0.412-0.012,0.617
		c-0.004,0.175-0.005,0.353-0.004,0.525c0,0.207,0.006,0.412,0.016,0.621c0.002,0.173,0.01,0.348,0.021,0.523
		c0.007,0.205,0.021,0.412,0.033,0.616c0.014,0.177,0.027,0.353,0.046,0.53c0.019,0.198,0.036,0.403,0.058,0.604
		c0.023,0.209,0.054,0.418,0.08,0.625c0.045,0.323,0.091,0.648,0.148,0.971c0.031,0.184,0.059,0.363,0.092,0.549
		c0.039,0.188,0.081,0.385,0.119,0.581c0.038,0.179,0.076,0.356,0.117,0.534c0.043,0.188,0.089,0.38,0.135,0.568
		c0.047,0.184,0.096,0.365,0.143,0.545c0.051,0.184,0.101,0.361,0.148,0.541c0.064,0.221,0.134,0.438,0.203,0.659
		c0.076,0.247,0.157,0.493,0.244,0.737c0.076,0.22,0.149,0.437,0.231,0.65c0.06,0.164,0.122,0.32,0.188,0.479
		c0.073,0.188,0.146,0.376,0.225,0.562c0.07,0.158,0.135,0.318,0.206,0.473c0.082,0.191,0.169,0.377,0.253,0.563
		c0.07,0.146,0.137,0.291,0.208,0.438c0.108,0.223,0.222,0.44,0.335,0.66c0.055,0.104,0.104,0.206,0.159,0.305
		c0.165,0.307,0.336,0.604,0.511,0.897c0.068,0.119,0.142,0.229,0.209,0.337c0.118,0.2,0.238,0.391,0.362,0.578
		c0.076,0.121,0.157,0.238,0.237,0.355c0.124,0.184,0.248,0.365,0.377,0.54c0.076,0.106,0.156,0.218,0.233,0.328
		c0.149,0.198,0.304,0.396,0.459,0.587c0.063,0.076,0.119,0.154,0.182,0.228c0.217,0.263,0.437,0.521,0.663,0.771
		c0.057,0.063,0.119,0.125,0.182,0.189c0.168,0.188,0.341,0.366,0.517,0.541c0.084,0.082,0.169,0.163,0.253,0.247
		c0.162,0.151,0.324,0.303,0.485,0.448c0.09,0.078,0.176,0.156,0.265,0.232c0.181,0.154,0.361,0.303,0.543,0.449
		c0.073,0.054,0.146,0.115,0.219,0.171c0.258,0.194,0.519,0.384,0.779,0.563c0.046,0.027,0.088,0.053,0.125,0.08
		c0.228,0.146,0.453,0.291,0.684,0.424c0.089,0.05,0.18,0.1,0.27,0.148c0.188,0.104,0.376,0.203,0.567,0.301
		c0.101,0.049,0.197,0.096,0.294,0.141c0.195,0.09,0.396,0.18,0.594,0.26c0.088,0.039,0.18,0.074,0.27,0.105
		c0.285,0.113,0.576,0.214,0.869,0.304c7.293,2.188,13.563-2.491,17.337-9.19c0.148,0.428,0.271,0.809,0.359,1.128l-25.804,47.398
		l-44.084-37.362l-52.129,58.377c-0.076-0.818-0.193-1.641-0.359-2.447c-1.854-8.975-7.974-13.154-13.526-13.18
		c-2.234-7.809-9.648-12.053-15.661-8.913c-6.888,3.594-8.81,13.96-7.15,21.392c-3.055-5.799-9.257-8.574-14.431-5.873
		c-6.976,3.641-8.866,14.236-7.092,21.688v0.004c-2.095,1.251-3.958,3.444-5.335,6.708c-0.607,1.444-0.942,2.979-1.051,4.533
		c-0.012,0.171-0.021,0.349-0.026,0.52c-0.003,0.123-0.003,0.249-0.007,0.37c0,0.106-0.004,0.208,0,0.315
		c0,0.123,0.004,0.246,0.007,0.369c0.002,0.103,0.006,0.207,0.013,0.311c0.005,0.124,0.011,0.245,0.021,0.368
		c0.009,0.104,0.017,0.207,0.024,0.312c0.014,0.123,0.021,0.242,0.035,0.365s0.031,0.248,0.047,0.371
		c0.027,0.195,0.057,0.387,0.09,0.579c0.019,0.112,0.034,0.22,0.059,0.323c0.021,0.119,0.046,0.234,0.066,0.352
		c0.022,0.104,0.05,0.209,0.071,0.314c0.022,0.115,0.054,0.23,0.08,0.343c0.023,0.107,0.054,0.218,0.086,0.325
		c0.028,0.107,0.055,0.214,0.089,0.324c0.037,0.129,0.079,0.262,0.12,0.394c0.046,0.146,0.095,0.293,0.146,0.437
		c0.045,0.134,0.092,0.261,0.138,0.391c0.036,0.092,0.073,0.188,0.11,0.286c0.045,0.109,0.092,0.224,0.135,0.332
		c0.042,0.096,0.081,0.189,0.124,0.283c0.049,0.111,0.099,0.225,0.15,0.335c0.039,0.087,0.08,0.173,0.123,0.259
		c0.064,0.134,0.134,0.266,0.201,0.393c0.029,0.064,0.061,0.123,0.091,0.18c0.103,0.184,0.202,0.363,0.309,0.541
		c0.039,0.07,0.08,0.133,0.124,0.204c0.068,0.112,0.144,0.229,0.215,0.341c0.047,0.071,0.094,0.144,0.142,0.213
		c0.074,0.111,0.147,0.213,0.229,0.319c0.044,0.069,0.093,0.132,0.14,0.196c0.089,0.117,0.182,0.236,0.273,0.352
		c0.035,0.045,0.068,0.092,0.106,0.135c0.129,0.154,0.26,0.311,0.396,0.455c0.036,0.043,0.07,0.08,0.104,0.117
		c0.104,0.113,0.207,0.22,0.313,0.322c0.051,0.048,0.101,0.096,0.149,0.143c0.098,0.096,0.192,0.188,0.29,0.272
		c0.052,0.05,0.104,0.097,0.156,0.136c0.104,0.094,0.214,0.184,0.323,0.27c0.045,0.031,0.086,0.066,0.129,0.101
		c0.153,0.116,0.311,0.229,0.466,0.335c0.025,0.016,0.052,0.032,0.075,0.049c0.135,0.088,0.271,0.172,0.405,0.251
		c0.054,0.033,0.105,0.061,0.159,0.087c0.111,0.067,0.227,0.125,0.339,0.18c0.061,0.031,0.117,0.061,0.178,0.086
		c0.115,0.055,0.232,0.105,0.353,0.154c0.053,0.025,0.107,0.049,0.162,0.067c0.169,0.064,0.343,0.126,0.518,0.179
		c4.346,1.302,8.084-1.486,10.334-5.479c0.148,0.424,0.255,0.771,0.295,1.002c0.112,0.645,0.025,8.35-0.118,17.491l-22.45,25.142
		h-1.398v1.566l-13.039,14.604l-3.361,0.11c-0.061-6.956-0.119-13.828-0.119-15.177c1.317,1.1,2.904,1.771,4.749,1.85
		c5.116,0.211,8.792-7.534,7.426-14.16c-1.146-5.547-4.931-8.132-8.36-8.148c-1.38-4.824-5.961-7.447-9.675-5.502
		c-4.312,2.248-5.479,8.793-4.385,13.397v0.003c-1.294,0.771-2.444,2.127-3.295,4.146c-0.376,0.895-0.584,1.842-0.648,2.801
		c-0.008,0.104-0.015,0.213-0.019,0.32c-0.003,0.078-0.003,0.151-0.004,0.229c-0.002,0.064-0.002,0.131-0.002,0.195
		c0,0.074,0.003,0.153,0.006,0.227c0,0.066,0.004,0.131,0.005,0.194c0.006,0.073,0.01,0.147,0.017,0.228
		c0.005,0.064,0.01,0.127,0.018,0.191c0.007,0.078,0.013,0.15,0.021,0.227c0.012,0.076,0.021,0.154,0.028,0.231
		c0.016,0.118,0.032,0.235,0.057,0.353c0.012,0.069,0.021,0.134,0.033,0.205c0.016,0.07,0.029,0.144,0.044,0.213
		c0.016,0.068,0.026,0.131,0.044,0.196c0.017,0.071,0.03,0.14,0.05,0.213c0.016,0.066,0.034,0.132,0.053,0.2
		c0.019,0.064,0.036,0.132,0.056,0.199c0.022,0.078,0.051,0.164,0.075,0.24c0.027,0.096,0.058,0.184,0.089,0.275
		c0.027,0.077,0.06,0.158,0.083,0.238c0.023,0.06,0.05,0.116,0.07,0.177c0.025,0.067,0.055,0.136,0.084,0.207
		c0.023,0.058,0.05,0.114,0.075,0.171c0.03,0.071,0.061,0.141,0.096,0.209c0.021,0.055,0.047,0.108,0.075,0.16
		c0.04,0.084,0.08,0.161,0.123,0.242c0.02,0.039,0.039,0.078,0.059,0.115c0.063,0.113,0.123,0.222,0.188,0.332
		c0.022,0.042,0.05,0.08,0.074,0.123c0.043,0.071,0.09,0.146,0.134,0.211c0.028,0.047,0.061,0.09,0.088,0.132
		c0.046,0.067,0.092,0.134,0.139,0.2c0.031,0.04,0.061,0.08,0.089,0.117c0.056,0.076,0.109,0.148,0.167,0.217
		c0.022,0.029,0.045,0.059,0.068,0.088c0.08,0.094,0.159,0.19,0.244,0.28c0.021,0.024,0.043,0.05,0.063,0.071
		c0.063,0.068,0.126,0.136,0.192,0.198c0.029,0.031,0.063,0.06,0.093,0.092c0.063,0.056,0.118,0.11,0.181,0.165
		c0.03,0.027,0.063,0.059,0.097,0.086c0.063,0.061,0.133,0.114,0.2,0.166c0.024,0.021,0.055,0.042,0.08,0.063
		c0.095,0.072,0.188,0.143,0.288,0.207c0.015,0.009,0.028,0.021,0.044,0.029c0.085,0.055,0.169,0.106,0.252,0.156
		c0.033,0.02,0.065,0.036,0.1,0.055c0.069,0.038,0.139,0.074,0.211,0.111c0.035,0.021,0.072,0.033,0.107,0.052
		c0.071,0.033,0.146,0.063,0.218,0.095c0.032,0.018,0.065,0.027,0.101,0.039c0.104,0.041,0.212,0.079,0.319,0.11
		c2.686,0.806,4.996-0.915,6.385-3.385c0.093,0.263,0.157,0.478,0.184,0.62c0.086,0.484-0.012,7.445-0.139,14.6l-24.84,0.818v-73.27
		v-1.383v-11.478h-6.437v-44.776h-3.373v44.776h-6.437v11.478H855.29v46.219h-10.66v-15.754h-21.29v-4.66h0.234v-3.17h0.774v-4.188
		h-1.011v-2.42c0.689-0.609,1.146-1.66,1.146-2.857c0-1.881-1.121-3.408-2.506-3.408c-1.388,0-2.51,1.527-2.51,3.408
		c0,1.197,0.458,2.248,1.146,2.857v1.532c-2.858-0.737-5.871-3.452-8.22-7.615h0.021c-0.519-0.923-1.018-1.888-1.464-2.944
		c-0.268-0.627-0.502-1.258-0.722-1.896c0.372-0.883,0.592-1.867,0.592-2.91c0-2.807-3.35-6.219-5.083-10.022
		c-0.217-0.472-0.601-0.76-1.007-0.76h-0.021c-0.419,0-0.806,0.294-1.024,0.773c-1.737,3.797-5.079,7.205-5.079,10.008
		c0,0.945,0.181,1.837,0.492,2.662c-0.279,0.848-0.578,1.697-0.935,2.532c-0.384,0.909-0.806,1.748-1.246,2.557h0.013
		c-2.286,4.214-5.25,7.012-8.098,7.897v-1.814c0.688-0.609,1.146-1.66,1.146-2.857c0-1.881-1.124-3.408-2.51-3.408
		s-2.509,1.527-2.509,3.408c0,1.197,0.46,2.248,1.145,2.857v2.42h-1.145v4.188h1.113v3.17h0.029v41.474h-2.652v-14.62h-12.947
		v-58.18l-21.887-14.889h-41.034v12.035H607.146v-59.623h-4.165h-2.604h-3.018h-2.187v-24.782h-31.748v35.403h-1.712h-2.026h-2.354
		h-2.027H552.5v1.301h-1.139v-55.922h-8.458v-64.468h-2.742v64.468h-5.479v-55.148h-2.741v55.148h-6.278v55.922h-8.907v40.977
		h-19.398v-7.493h-1.564v-61.305H471.59h-61.48l-8.969,180.347l-3.375,2.299v-70.623L384.2-739.066
		c0.69-0.221,1.208-1.061,1.208-2.066c0-1.178-0.702-2.133-1.567-2.133h-0.347v-18.476l-2.089,18.476h-0.176
		c-0.862,0-1.021,4.031-0.302,4.219l-67.647,6.599l-2.455-13.564h2.455l-3.548-10.728h2.183l-4.911-10.358h3.001l-4.91-13.318h1.908
		l-3.819-11.715h2.729l-4.367-10.109h3.002l-5.183-9.984h2.455l-5.73-17.016l-5.729,17.016h2.457l-5.183,9.984h3l-4.365,10.109
		h2.728l-3.819,11.715h1.908l-4.909,13.318h3.001l-4.91,10.358h2.18l-2.588,7.826c-2.808-1.242-5.719-2.365-8.722-3.372
		l-2.095-4.413h1.761l-2.88-7.817h1.119l-2.241-6.871h1.603l-2.563-5.936h1.76l-3.04-5.858h1.44l-3.361-9.985l-3.363,9.985h1.441
		l-3.042,5.858h1.761l-2.561,5.936h1.599l-2.241,6.871h1.122l-2.881,7.817h1.759l-0.295,0.623
		c-16.355-2.771-35.208-1.974-56.909,4.002c0,0-14.788-120.914-128.726-157.289l-1.374-3.724h1.908l-3.816-11.712h2.728
		l-4.366-10.109h3.001l-5.183-9.99h2.456l-5.729-17.018l-5.73,17.018h2.454l-5.181,9.99h3l-4.367,10.109h2.729l-3.265,10.017
		c-14.994-3.095-31.469-4.813-49.567-4.813V402.5h2.533V291.808l97.708-15.929l106.286-74.387l1.909,2.62
		c1.31-1.833,3.253-3.002,5.428-3.002h4.08c3.944,0,7.141-3.822,7.141-8.544v-9.764c0-4.718,3.197-8.544,7.139-8.544
		c3.943,0,7.138-3.822,7.138-8.54v-2.443c0-4.717,3.199-8.543,7.143-8.543h39.778c4.507,0,8.16,4.371,8.16,9.763
		c0,5.394,3.653,9.764,8.159,9.764h2.041c4.506,0,8.158,4.372,8.158,9.764v7.325c0,5.392,3.656,9.763,8.162,9.763h3.061
		c4.508,0,8.16,4.372,8.16,9.764v46.447c0,18.871,12.785,34.171,28.561,34.171v-32.409c0-9.098,6.165-16.476,13.769-16.476
		c7.605,0,13.771,7.378,13.771,16.476v18.7c0,15.387,10.425,27.858,23.284,27.858c5.167,0,9.354,5.012,9.354,11.195v39.68
		l5.388,3.125l-0.243-2.863l1.338,1.64v-0.759l0.635,0.602l-0.268-3.706l0.971,1.342l0.503-2.446l0.501,2.446l0.969-1.342
		l-0.267,3.706l0.636-0.602v0.759l1.338-1.64l-0.3,3.522l-0.67,2.045l1.974-1.082l-0.3,1.361l0.836-0.52v1.721l-0.103,0.194
		l4.757,2.759l3.111-0.954l-0.072-0.278l0.348,0.189L444.4,365l-0.561-0.912l-0.216-1.421l2.377,1.843l0.615-0.188l-2.168-2.77
		l-0.824-3.734l2.151,1.672l-0.861-2.83l2.119,1.8l-0.215-1.586l1.146,1.329l-1.865-3.52v-1.846l0.896,0.558l-0.321-1.46
		l2.115,1.159l-0.717-2.19l-0.322-3.777l1.435,1.76v-0.816l0.684,0.646l-0.287-3.972l1.039,1.438l0.541-2.625l0.537,2.625
		l1.04-1.438l-0.285,3.972l0.679-0.646v0.816l1.438-1.76l-0.322,3.777l-0.718,2.19l2.116-1.159l-0.323,1.46l0.896-0.558v1.846
		l-1.864,3.52l1.146-1.329l-0.216,1.586l2.119-1.8l-0.862,2.83l1.742-1.352l2.477-35.247l-1.098-0.21l0.267-2.032l0.979,0.183
		l1.993-28.373l-1.346-0.278l0.281-1.936l1.202,0.247l1.658-23.584h-0.553v-17.513h-1.25v-3.594h3.628v-6.542h-5.631v-3.677h5.631
		v-5.119h-5.014l11.529-5.98v-21.416h1.229v2.727h5.232v1.976h3.307v6.463h-5.846v-1.972h-2.693v11.585l6.758-3.503l18.648,10.121
		h-5.014v5.119h6.267v3.677h-6.267v6.542h4.264v3.594h-1.25v17.513h-1.188l1.683,23.938l3.25-0.607l0.253,1.946l-3.365,0.629
		l1.991,28.348l3.026-0.515l0.244,2.038l-3.125,0.529l1.69,24.041l60.364-18.561c0,0,106.077-92.62,109.137-93.844
		c3.062-1.219,89.139-36.614,89.139-36.614l23.128,12.818c3.645-2.446,7.848-3.848,12.325-3.848v-64.146
		c0-10.42,7.06-18.869,15.768-18.869c8.709,0,15.77,8.449,15.77,18.869v47.586c0,4.693,3.181,8.493,7.1,8.493
		c3.918,0,7.095-3.8,7.095-8.493v-85.796c0-2.345,1.59-4.243,3.55-4.243c1.958,0,3.548-1.902,3.548-4.247V59.567
		c0-2.343,1.586-4.245,3.548-4.245c6.313,0,11.435-6.123,11.435-13.681V26.55c0-2.348,1.586-4.248,3.547-4.248h15.375
		c15.24,0,27.595,14.785,27.595,33.021c6.532,0,11.826,6.335,11.826,14.153v107.862c0,8.857,6.001,16.04,13.405,16.04v-11.637
		c0-10.085,6.829-18.257,15.255-18.257c5.508,0,9.972-5.341,9.972-11.935c0-15.108,10.239-27.357,22.866-27.357h8.673
		c16.548,0,29.961,16.051,29.961,35.851v91.327l0.665-0.63v2.214l3.895-4.775l-0.876,10.247l-1.946,5.938l5.742-3.146l-0.876,3.959
		l2.433-1.515v5.008l-5.061,9.548l3.114-3.611l-0.586,4.311l5.741-4.891l-2.335,7.687l5.838-4.543l-2.236,10.131l-4.566,5.836
		l1.913,0.979l4.892-3.786l-0.583,3.841l-0.999,1.644l5.774,2.959l1.16-0.642l-0.287,1.088l183.182,93.886v-1409.48
		L1152.823-881.042z M960.286-712.868c-0.058-6.724-0.102-12.089-0.104-13.531c2.134,1.779,4.7,2.873,7.688,2.992
		c0.676,0.027,1.336-0.037,1.979-0.174L960.286-712.868z M981.796-736.959c-0.018-2.447-0.028-4.219-0.03-4.962
		c0.873,0.731,1.824,1.337,2.844,1.815L981.796-736.959z"/>
	<polygon fill="#030104" points="482.445,295.77 482.445,324.199 497.253,321.682 495.264,293.378 	"/>
	<polygon fill="#030104" points="482.91,266.909 482.91,273.351 482.445,273.351 482.445,293.777 495.126,291.414 493.403,266.909 	
		"/>
</g>
<line fill="none" x1="415.297" y1="1483.509" x2="401.14" y2="1481.701"/>
<g opacity="0.15">
	<polygon fill="#030104" points="467.779,1749.998 466.078,1774.21 479.374,1776.957 479.374,1756.439 473.653,1756.439 
		473.653,1749.998 	"/>
	<polygon fill="#030104" points="463.949,1804.496 479.374,1807.406 479.374,1778.955 465.939,1776.173 	"/>
	<polygon fill="#030104" points="461.788,1835.229 462.18,1835.708 462.18,1834.892 462.861,1835.537 462.575,1831.566 
		463.615,1833.003 464.154,1830.38 464.691,1833.003 465.732,1831.566 465.444,1835.537 466.127,1834.892 466.127,1835.708 
		467.561,1833.949 467.238,1837.724 466.521,1839.914 468.638,1838.755 468.316,1840.214 469.212,1839.656 469.212,1840.462 
		471.499,1839.759 471.145,1839.199 471.611,1839.199 471.145,1837.438 471.611,1837.695 473.27,1839.214 474.453,1838.851 
		474.588,1838.041 473.332,1835.976 473.119,1834.558 475.558,1836.449 476.599,1836.833 473.941,1833.443 473.119,1829.708 
		475.27,1831.382 474.409,1828.55 476.525,1830.349 476.313,1828.765 477.458,1830.095 475.592,1826.576 475.592,1824.73 
		476.491,1825.287 476.166,1823.828 478.283,1824.988 477.565,1822.794 477.243,1819.02 478.678,1820.779 478.678,1819.962 
		479.36,1820.607 479.072,1816.636 479.374,1817.05 479.374,1809.488 463.802,1806.55 	"/>
	<polygon fill="#030104" points="458.034,1843.9 458.037,1843.896 458.034,1843.888 	"/>
	<polygon fill="#030104" points="461.47,1839.742 461.785,1839.914 461.516,1839.091 	"/>
	<polygon fill="#030104" points="458.092,1843.634 458.113,1843.65 458.124,1843.494 	"/>
	<rect x="482.125" y="1722.347" fill="#030104" width="6.378" height="5.287"/>
	<polygon fill="#030104" points="499.115,1831.27 497.398,1806.822 482.445,1809.365 482.445,1820.132 482.625,1819.962 
		482.625,1820.779 484.061,1819.02 483.738,1822.794 483.02,1824.988 485.137,1823.828 484.813,1825.287 485.711,1824.73 
		485.711,1826.576 483.846,1830.095 484.992,1828.765 484.779,1830.349 486.895,1828.55 486.033,1831.382 488.188,1829.708 
		487.361,1833.443 485.879,1835.339 488.036,1834.677 488.188,1834.558 488.174,1834.632 	"/>
	<path fill="#030104" d="M1152.823,602.046c-3.559-2.393-7.503-3.563-11.292-3.582c-3.748-13.096-16.187-20.223-26.273-14.951
		c-11.699,6.105-14.87,23.884-11.896,36.382c0,0,0,0.008,0.002,0.008c-3.511,2.098-6.636,5.774-8.949,11.26
		c-1.019,2.42-1.582,4.994-1.759,7.598c-0.021,0.293-0.038,0.588-0.048,0.879c-0.01,0.207-0.01,0.412-0.012,0.617
		c-0.004,0.176-0.005,0.354-0.004,0.525c0,0.207,0.006,0.412,0.016,0.621c0.002,0.174,0.01,0.348,0.021,0.522
		c0.007,0.205,0.021,0.412,0.033,0.615c0.014,0.178,0.027,0.354,0.046,0.531c0.019,0.197,0.036,0.401,0.058,0.604
		c0.023,0.209,0.054,0.418,0.08,0.625c0.045,0.324,0.091,0.648,0.148,0.974c0.031,0.184,0.059,0.36,0.092,0.549
		c0.039,0.188,0.081,0.385,0.119,0.58c0.038,0.18,0.076,0.354,0.117,0.535c0.043,0.188,0.089,0.379,0.135,0.565
		c0.047,0.187,0.096,0.365,0.143,0.545c0.051,0.187,0.101,0.361,0.148,0.541c0.064,0.224,0.134,0.439,0.203,0.66
		c0.076,0.246,0.157,0.492,0.244,0.736c0.076,0.221,0.149,0.438,0.231,0.649c0.06,0.164,0.122,0.32,0.188,0.479
		c0.073,0.188,0.146,0.377,0.225,0.563c0.07,0.158,0.135,0.318,0.206,0.474c0.082,0.19,0.169,0.377,0.253,0.563
		c0.07,0.146,0.137,0.291,0.208,0.439c0.108,0.223,0.222,0.438,0.335,0.66c0.055,0.104,0.104,0.205,0.159,0.305
		c0.165,0.307,0.336,0.604,0.511,0.898c0.068,0.118,0.142,0.229,0.209,0.336c0.118,0.2,0.238,0.393,0.362,0.577
		c0.076,0.121,0.157,0.238,0.237,0.355c0.124,0.184,0.248,0.365,0.377,0.541c0.076,0.106,0.156,0.217,0.233,0.328
		c0.149,0.197,0.304,0.395,0.459,0.586c0.063,0.076,0.119,0.154,0.182,0.229c0.217,0.265,0.437,0.521,0.663,0.771
		c0.057,0.063,0.119,0.125,0.182,0.188c0.168,0.188,0.341,0.367,0.517,0.541c0.084,0.082,0.169,0.164,0.253,0.248
		c0.162,0.15,0.324,0.304,0.485,0.447c0.09,0.078,0.176,0.156,0.265,0.232c0.181,0.153,0.361,0.303,0.543,0.448
		c0.073,0.056,0.146,0.115,0.219,0.17c0.258,0.195,0.519,0.386,0.779,0.563c0.046,0.027,0.088,0.053,0.125,0.08
		c0.228,0.147,0.453,0.291,0.684,0.424c0.089,0.051,0.18,0.1,0.27,0.148c0.188,0.104,0.376,0.202,0.567,0.301
		c0.101,0.049,0.197,0.096,0.294,0.141c0.195,0.09,0.396,0.183,0.594,0.261c0.088,0.038,0.18,0.073,0.27,0.104
		c0.285,0.113,0.576,0.215,0.869,0.305c7.293,2.188,13.563-2.491,17.337-9.188c0.148,0.428,0.271,0.809,0.359,1.127l-25.804,47.399
		l-44.084-37.36l-52.129,58.377c-0.076-0.818-0.193-1.642-0.359-2.447c-1.854-8.975-7.974-13.154-13.526-13.18
		c-2.234-7.812-9.648-12.056-15.661-8.914c-6.888,3.594-8.81,13.961-7.15,21.393c-3.055-5.799-9.257-8.574-14.431-5.873
		c-6.976,3.642-8.866,14.236-7.092,21.688v0.004c-2.095,1.25-3.958,3.443-5.335,6.707c-0.607,1.445-0.942,2.979-1.051,4.533
		c-0.012,0.172-0.021,0.35-0.026,0.52c-0.003,0.123-0.003,0.25-0.007,0.371c0,0.105-0.004,0.207,0,0.314
		c0,0.123,0.004,0.245,0.007,0.368c0.002,0.104,0.006,0.207,0.013,0.312c0.005,0.125,0.011,0.246,0.021,0.369
		c0.009,0.104,0.017,0.207,0.024,0.311c0.014,0.123,0.021,0.242,0.035,0.365s0.031,0.248,0.047,0.371
		c0.027,0.195,0.057,0.387,0.09,0.58c0.019,0.11,0.034,0.219,0.059,0.322c0.021,0.118,0.046,0.233,0.066,0.352
		c0.022,0.104,0.05,0.209,0.071,0.314c0.022,0.114,0.054,0.229,0.08,0.344c0.023,0.106,0.054,0.217,0.086,0.324
		c0.028,0.106,0.055,0.215,0.089,0.323c0.037,0.129,0.079,0.263,0.12,0.394c0.046,0.146,0.095,0.293,0.146,0.438
		c0.045,0.133,0.092,0.263,0.138,0.392c0.036,0.092,0.073,0.188,0.11,0.287c0.045,0.106,0.092,0.223,0.135,0.329
		c0.042,0.099,0.081,0.189,0.124,0.283c0.049,0.111,0.099,0.228,0.15,0.336c0.039,0.086,0.08,0.172,0.123,0.261
		c0.064,0.133,0.134,0.266,0.201,0.393c0.029,0.064,0.061,0.123,0.091,0.18c0.103,0.185,0.202,0.363,0.309,0.541
		c0.039,0.07,0.08,0.133,0.124,0.203c0.068,0.113,0.144,0.23,0.215,0.342c0.047,0.07,0.094,0.144,0.142,0.213
		c0.074,0.111,0.147,0.214,0.229,0.318c0.044,0.07,0.093,0.133,0.14,0.197c0.089,0.117,0.182,0.234,0.273,0.352
		c0.035,0.045,0.068,0.092,0.106,0.136c0.129,0.153,0.26,0.311,0.396,0.454c0.036,0.044,0.07,0.08,0.104,0.117
		c0.104,0.113,0.207,0.22,0.313,0.322c0.051,0.047,0.101,0.096,0.149,0.143c0.098,0.097,0.192,0.187,0.29,0.271
		c0.052,0.051,0.104,0.098,0.156,0.137c0.104,0.095,0.214,0.185,0.323,0.271c0.045,0.031,0.086,0.065,0.129,0.102
		c0.153,0.115,0.311,0.229,0.466,0.334c0.025,0.019,0.052,0.033,0.075,0.049c0.135,0.089,0.271,0.173,0.405,0.253
		c0.054,0.032,0.105,0.061,0.159,0.086c0.111,0.067,0.227,0.125,0.339,0.182c0.061,0.029,0.117,0.061,0.178,0.086
		c0.115,0.055,0.232,0.105,0.353,0.152c0.053,0.024,0.107,0.051,0.162,0.067c0.169,0.064,0.343,0.125,0.518,0.179
		c4.346,1.303,8.084-1.484,10.334-5.479c0.148,0.424,0.255,0.771,0.295,1.002c0.112,0.646,0.025,8.35-0.118,17.492l-22.45,25.141
		h-1.398v1.566l-13.039,14.604l-3.361,0.111c-0.061-6.957-0.119-13.828-0.119-15.178c1.317,1.1,2.904,1.771,4.749,1.85
		c5.116,0.211,8.792-7.533,7.426-14.16c-1.146-5.547-4.931-8.131-8.36-8.146c-1.38-4.824-5.961-7.447-9.675-5.502
		c-4.312,2.248-5.479,8.793-4.385,13.396v0.002c-1.294,0.771-2.444,2.127-3.295,4.146c-0.376,0.895-0.584,1.842-0.648,2.801
		c-0.008,0.104-0.015,0.213-0.019,0.32c-0.003,0.078-0.003,0.149-0.004,0.229c-0.002,0.064-0.002,0.131-0.002,0.195
		c0,0.074,0.003,0.152,0.006,0.227c0,0.066,0.004,0.132,0.005,0.195c0.006,0.072,0.01,0.148,0.017,0.228
		c0.005,0.063,0.01,0.127,0.018,0.19c0.007,0.078,0.013,0.15,0.021,0.228c0.012,0.075,0.021,0.153,0.028,0.231
		c0.016,0.117,0.032,0.234,0.057,0.353c0.012,0.069,0.021,0.135,0.033,0.204c0.016,0.07,0.029,0.146,0.044,0.214
		c0.016,0.067,0.026,0.133,0.044,0.196c0.017,0.07,0.03,0.142,0.05,0.213c0.016,0.066,0.034,0.132,0.053,0.199
		c0.019,0.064,0.036,0.133,0.056,0.199c0.022,0.078,0.051,0.164,0.075,0.24c0.027,0.096,0.058,0.184,0.089,0.274
		c0.027,0.076,0.06,0.158,0.083,0.238c0.023,0.059,0.05,0.115,0.07,0.176c0.025,0.068,0.055,0.138,0.084,0.207
		c0.023,0.06,0.05,0.115,0.075,0.172c0.03,0.07,0.061,0.142,0.096,0.209c0.021,0.056,0.047,0.107,0.075,0.16
		c0.04,0.084,0.08,0.16,0.123,0.242c0.02,0.039,0.039,0.078,0.059,0.115c0.063,0.11,0.123,0.221,0.188,0.332
		c0.022,0.041,0.05,0.078,0.074,0.121c0.043,0.071,0.09,0.146,0.134,0.213c0.028,0.047,0.061,0.09,0.088,0.131
		c0.046,0.065,0.092,0.135,0.139,0.201c0.031,0.039,0.061,0.077,0.089,0.114c0.056,0.076,0.109,0.148,0.167,0.22
		c0.022,0.026,0.045,0.059,0.068,0.088c0.08,0.094,0.159,0.188,0.244,0.278c0.021,0.023,0.043,0.052,0.063,0.07
		c0.063,0.068,0.126,0.137,0.192,0.199c0.029,0.031,0.063,0.059,0.093,0.092c0.063,0.055,0.118,0.109,0.181,0.164
		c0.03,0.027,0.063,0.059,0.097,0.086c0.063,0.061,0.133,0.115,0.2,0.166c0.024,0.021,0.055,0.043,0.08,0.064
		c0.095,0.069,0.188,0.143,0.288,0.204c0.015,0.011,0.028,0.021,0.044,0.029c0.085,0.055,0.169,0.107,0.252,0.156
		c0.033,0.02,0.065,0.037,0.1,0.055c0.069,0.039,0.139,0.074,0.211,0.111c0.035,0.021,0.072,0.033,0.107,0.053
		c0.071,0.033,0.146,0.063,0.218,0.094c0.032,0.019,0.065,0.027,0.101,0.039c0.104,0.041,0.212,0.08,0.319,0.111
		c2.686,0.805,4.996-0.916,6.385-3.385c0.093,0.262,0.157,0.477,0.184,0.619c0.086,0.483-0.012,7.444-0.139,14.6l-24.84,0.818
		v-73.271v-1.383V731.48h-6.437v-44.777h-3.373v44.777h-6.437v11.477H855.29v46.219h-10.66v-15.754h-21.29v-4.66h0.234v-3.17h0.774
		v-4.188h-1.011v-2.42c0.689-0.609,1.146-1.66,1.146-2.857c0-1.881-1.121-3.408-2.506-3.408c-1.388,0-2.51,1.527-2.51,3.408
		c0,1.197,0.458,2.248,1.146,2.857v1.53c-2.858-0.735-5.871-3.45-8.22-7.612h0.021c-0.519-0.924-1.018-1.89-1.464-2.945
		c-0.268-0.627-0.502-1.258-0.722-1.896c0.372-0.883,0.592-1.864,0.592-2.907c0-2.81-3.35-6.222-5.083-10.023
		c-0.217-0.471-0.601-0.76-1.007-0.76h-0.021c-0.419,0-0.806,0.295-1.024,0.772c-1.737,3.8-5.079,7.205-5.079,10.011
		c0,0.942,0.181,1.836,0.492,2.662c-0.279,0.848-0.578,1.694-0.935,2.53c-0.384,0.908-0.806,1.748-1.246,2.558h0.013
		c-2.286,4.215-5.25,7.012-8.098,7.896v-1.813c0.688-0.609,1.146-1.66,1.146-2.857c0-1.881-1.124-3.408-2.51-3.408
		s-2.509,1.527-2.509,3.408c0,1.197,0.46,2.248,1.145,2.857v2.42h-1.145v4.188h1.113v3.17h0.029v41.476h-2.652v-14.621h-12.947
		v-58.181l-21.887-14.889h-41.034v12.035H607.146V674.96h-4.165h-2.604h-3.018h-2.188v-24.783h-31.748v35.404h-1.712h-2.028h-2.352
		h-2.026h-2.81v1.301h-1.139V630.96h-8.458v-64.469h-2.741v64.469h-5.479v-55.15h-2.741v55.148h-6.278v55.922h-8.906v40.978h-19.399
		v-7.492h-1.563v-61.308h-24.202h-61.479l-8.969,180.349l-3.375,2.299v-70.623l-13.565-27.061c0.69-0.222,1.208-1.062,1.208-2.066
		c0-1.178-0.702-2.133-1.567-2.133h-0.347v-18.476l-2.089,18.476h-0.176c-0.862,0-1.021,4.031-0.302,4.219l-67.647,6.6
		l-2.455-13.563h2.455l-3.548-10.729h2.183l-4.911-10.356h3.001l-4.91-13.318h1.908l-3.819-11.715h2.729l-4.367-10.109h3.002
		l-5.183-9.983h2.455l-5.73-17.017l-5.729,17.017h2.457l-5.183,9.983h3l-4.365,10.109h2.728l-3.819,11.715h1.908l-4.909,13.318
		h3.001l-4.91,10.356h2.18l-2.588,7.826c-2.808-1.242-5.719-2.365-8.722-3.371l-2.095-4.414h1.761l-2.88-7.815h1.119l-2.241-6.871
		h1.603l-2.563-5.937h1.76l-3.04-5.858h1.44l-3.361-9.984l-3.363,9.984h1.441l-3.042,5.858h1.761l-2.561,5.937h1.599l-2.241,6.871
		h1.122l-2.881,7.815h1.759l-0.295,0.623c-16.355-2.771-35.208-1.973-56.909,4.002c0,0-14.788-120.914-128.726-157.289L68.929,570
		h1.908l-3.816-11.711h2.728l-4.366-10.109h3.001l-5.183-9.989h2.456l-5.729-17.019l-5.73,17.019h2.454l-5.181,9.989h3
		l-4.367,10.109h2.729l-3.265,10.016c-14.995-3.094-31.47-4.813-49.568-4.813V1885.59h2.533v-110.69l97.708-15.931l106.286-74.387
		l1.909,2.619c1.31-1.832,3.253-3.002,5.428-3.002h4.08c3.944,0,7.141-3.822,7.141-8.543v-9.764c0-4.72,3.197-8.546,7.139-8.546
		c3.943,0,7.138-3.821,7.138-8.538v-2.443c0-4.717,3.199-8.543,7.143-8.543h39.778c4.507,0,8.16,4.371,8.16,9.762
		c0,5.396,3.653,9.766,8.159,9.766h2.041c4.506,0,8.158,4.371,8.158,9.765v7.324c0,5.393,3.656,9.764,8.162,9.764h3.059
		c4.51,0,8.161,4.371,8.161,9.764v46.447c0,18.871,12.786,34.17,28.562,34.17v-32.407c0-9.099,6.165-16.478,13.769-16.478
		c7.605,0,13.771,7.379,13.771,16.478v18.698c0,15.388,10.425,27.859,23.284,27.859c5.167,0,9.354,5.012,9.354,11.192v39.683
		l5.387,3.125l-0.242-2.863l1.339,1.64v-0.759l0.636,0.603l-0.271-3.705l0.974,1.342l0.502-2.447l0.502,2.447l0.969-1.342
		l-0.268,3.705l0.637-0.603v0.759l1.338-1.64l-0.3,3.521l-0.67,2.045l1.974-1.082l-0.3,1.36l0.836-0.52v1.721l-0.103,0.193
		l4.758,2.76l3.109-0.955l-0.071-0.277l0.349,0.189l2.398-0.736l-0.561-0.912l-0.216-1.422l2.377,1.845l0.615-0.188l-2.169-2.77
		l-0.823-3.734l2.151,1.672l-0.861-2.83l2.119,1.801l-0.215-1.586l1.146,1.328l-1.865-3.52v-1.846l0.896,0.559l-0.321-1.461
		l2.115,1.16l-0.718-2.191l-0.322-3.777l1.437,1.763v-0.816l0.683,0.646l-0.287-3.973l1.039,1.438l0.54-2.625l0.536,2.625
		l1.041-1.438l-0.285,3.973l0.679-0.646v0.816l1.438-1.763l-0.322,3.777l-0.718,2.191l2.116-1.16l-0.323,1.461l0.896-0.559v1.846
		l-1.862,3.52l1.146-1.328l-0.217,1.586l2.119-1.801l-0.862,2.83l1.741-1.352l2.477-35.246l-1.098-0.211l0.268-2.031l0.979,0.182
		l1.994-28.373l-1.346-0.276l0.28-1.937l1.202,0.246l1.657-23.584h-0.554v-17.512h-1.25v-3.596h3.63v-6.541h-5.632v-3.679h5.632
		v-5.119h-5.015l11.529-5.979v-21.416h1.229v2.727h5.232v1.978h3.307v6.463h-5.846v-1.973h-2.693v11.584l6.758-3.502l18.648,10.121
		h-5.014v5.118h6.267v3.677h-6.267v6.543h4.264v3.594h-1.249V1750h-1.188l1.684,23.938l3.249-0.606l0.253,1.947l-3.365,0.629
		l1.992,28.348l3.025-0.516l0.244,2.039l-3.125,0.526l1.689,24.041l60.365-18.561c0,0,106.076-92.619,109.137-93.844
		c3.062-1.22,89.139-36.613,89.139-36.613l23.128,12.815c3.645-2.444,7.848-3.848,12.325-3.848v-64.146
		c0-10.422,7.06-18.868,15.768-18.868c8.709,0,15.77,8.446,15.77,18.868v47.586c0,4.691,3.181,8.492,7.1,8.492
		c3.918,0,7.095-3.801,7.095-8.492v-85.797c0-2.346,1.59-4.241,3.55-4.241c1.958,0,3.548-1.902,3.548-4.248v-36.796
		c0-2.344,1.586-4.243,3.548-4.243c6.313,0,11.435-6.123,11.435-13.683v-15.092c0-2.348,1.586-4.248,3.547-4.248h15.375
		c15.24,0,27.595,14.785,27.595,33.021c6.532,0,11.826,6.334,11.826,14.151v107.863c0,8.856,6.001,16.039,13.405,16.039v-11.638
		c0-10.084,6.829-18.256,15.255-18.256c5.508,0,9.972-5.342,9.972-11.936c0-15.107,10.239-27.357,22.866-27.357h8.673
		c16.548,0,29.961,16.051,29.961,35.853v91.326l0.665-0.63v2.214l3.895-4.775l-0.876,10.248l-1.946,5.938l5.742-3.146l-0.876,3.959
		l2.433-1.516v5.008l-5.061,9.549l3.114-3.611l-0.586,4.312l5.741-4.891l-2.335,7.688l5.838-4.543l-2.236,10.131l-4.566,5.836
		l1.913,0.979l4.892-3.785l-0.583,3.84l-0.999,1.646l5.774,2.959l1.16-0.644l-0.287,1.088l183.182,93.89V466.714L1152.823,602.046z
		 M960.286,770.22c-0.058-6.725-0.102-12.09-0.104-13.53c2.134,1.778,4.7,2.872,7.688,2.991c0.676,0.027,1.336-0.037,1.979-0.174
		L960.286,770.22z M981.796,746.128c-0.018-2.447-0.028-4.219-0.03-4.963c0.873,0.731,1.824,1.338,2.844,1.815L981.796,746.128z"/>
	<polygon fill="#030104" points="482.445,1778.859 482.445,1807.287 497.254,1804.77 495.264,1776.466 	"/>
	<polygon fill="#030104" points="482.91,1749.998 482.91,1756.439 482.445,1756.439 482.445,1776.865 495.126,1774.501 
		493.403,1749.998 	"/>
</g>
</svg>
