<?xml version="1.0" encoding="utf-8"?>
<!-- Generator: Adobe Illustrator 16.0.0, SVG Export Plug-In . SVG Version: 6.00 Build 0)  -->
<!DOCTYPE svg PUBLIC "-//W3C//DTD SVG 1.1//EN" "http://www.w3.org/Graphics/SVG/1.1/DTD/svg11.dtd">
<svg version="1.1" id="Capa_1" xmlns="http://www.w3.org/2000/svg" xmlns:xlink="http://www.w3.org/1999/xlink" x="0px" y="0px"
	 width="1226.504px" height="2179.579px" viewBox="0 0 1226.504 2179.579" enable-background="new 0 0 1226.504 2179.579"
	 xml:space="preserve">
<g opacity="0.15">
	<polygon fill="#030104" points="467.802,523 466.101,545.65 479.398,548.217 479.398,529.026 473.677,529.026 473.677,523 	"/>
	<polygon fill="#030104" points="463.972,573.973 479.398,576.698 479.398,550.083 465.963,547.486 	"/>
	<polygon fill="#030104" points="461.811,602.72 462.203,603.167 462.203,602.405 462.884,603.008 462.598,599.292 463.638,600.639 
		464.177,598.185 464.715,600.639 465.755,599.292 465.467,603.008 466.15,602.405 466.15,603.167 467.584,601.522 467.261,605.055 
		466.544,607.102 468.661,606.02 468.339,607.385 469.235,606.861 469.235,607.617 471.522,606.958 471.167,606.433 
		471.635,606.433 471.167,604.787 471.635,605.026 473.293,606.449 474.476,606.108 474.611,605.349 473.356,603.418 
		473.142,602.094 475.581,603.86 476.622,604.223 473.965,601.05 473.142,597.557 475.293,599.123 474.433,596.473 476.549,598.159 
		476.335,596.676 477.481,597.918 475.616,594.625 475.616,592.901 476.515,593.422 476.19,592.057 478.307,593.141 
		477.589,591.092 477.267,587.559 478.701,589.205 478.701,588.442 479.384,589.044 479.096,585.331 479.398,585.719 
		479.398,578.645 463.825,575.899 	"/>
	<polygon fill="#030104" points="458.057,610.83 458.061,610.828 458.057,610.821 	"/>
	<polygon fill="#030104" points="461.492,606.94 461.808,607.102 461.539,606.333 	"/>
	<polygon fill="#030104" points="458.114,610.583 458.135,610.596 458.147,610.451 	"/>
	<rect x="482.148" y="497.141" fill="#030104" width="6.379" height="4.946"/>
	<polygon fill="#030104" points="499.14,599.017 497.423,576.151 482.469,578.53 482.469,588.601 482.649,588.442 482.649,589.205 
		484.083,587.559 483.763,591.092 483.043,593.141 485.161,592.057 484.836,593.422 485.735,592.901 485.735,594.625 
		483.869,597.918 485.017,596.676 484.803,598.159 486.919,596.473 486.058,599.123 488.211,597.557 487.386,601.05 
		485.902,602.825 488.06,602.203 488.211,602.094 488.198,602.163 	"/>
	<path fill="#030104" d="M1152.881-550.684c-3.557-2.238-7.504-3.333-11.293-3.348c-3.748-12.25-16.186-18.915-26.275-13.986
		c-11.698,5.712-14.868,22.339-11.896,34.028c0,0,0,0.005,0.002,0.005c-3.512,1.963-6.637,5.404-8.949,10.531
		c-1.02,2.264-1.582,4.673-1.76,7.107c-0.021,0.274-0.037,0.549-0.047,0.823c-0.008,0.193-0.008,0.384-0.01,0.576
		c-0.005,0.164-0.007,0.33-0.007,0.493c0.002,0.193,0.009,0.385,0.017,0.579c0.002,0.163,0.012,0.327,0.021,0.49
		c0.009,0.191,0.021,0.386,0.033,0.577c0.014,0.166,0.027,0.33,0.045,0.496c0.021,0.186,0.037,0.377,0.06,0.566
		c0.021,0.197,0.051,0.391,0.079,0.584c0.046,0.304,0.091,0.607,0.148,0.909c0.031,0.171,0.059,0.339,0.092,0.513
		c0.039,0.178,0.08,0.359,0.119,0.544c0.037,0.167,0.074,0.333,0.117,0.5c0.043,0.175,0.088,0.354,0.135,0.531
		c0.047,0.17,0.096,0.341,0.143,0.509c0.052,0.171,0.099,0.337,0.148,0.506c0.066,0.206,0.135,0.41,0.201,0.618
		c0.08,0.229,0.162,0.46,0.246,0.689c0.078,0.204,0.149,0.408,0.231,0.606c0.062,0.153,0.123,0.301,0.188,0.449
		c0.074,0.176,0.147,0.352,0.225,0.525c0.07,0.147,0.135,0.296,0.207,0.44c0.082,0.178,0.166,0.354,0.252,0.526
		c0.07,0.138,0.137,0.272,0.207,0.408c0.109,0.209,0.224,0.413,0.336,0.617c0.056,0.098,0.105,0.194,0.158,0.286
		c0.164,0.286,0.336,0.566,0.512,0.842c0.068,0.11,0.142,0.215,0.209,0.314c0.117,0.187,0.238,0.365,0.361,0.542
		c0.078,0.112,0.158,0.221,0.238,0.332c0.123,0.171,0.248,0.342,0.377,0.505c0.076,0.104,0.154,0.204,0.235,0.306
		c0.148,0.187,0.302,0.371,0.459,0.55c0.062,0.073,0.117,0.145,0.181,0.213c0.215,0.245,0.436,0.486,0.662,0.72
		c0.057,0.059,0.121,0.118,0.182,0.179c0.168,0.173,0.34,0.341,0.518,0.505c0.082,0.076,0.168,0.152,0.252,0.229
		c0.162,0.143,0.324,0.283,0.486,0.421c0.088,0.071,0.176,0.146,0.262,0.217c0.181,0.144,0.363,0.283,0.545,0.419
		c0.074,0.051,0.146,0.107,0.218,0.16c0.258,0.182,0.518,0.361,0.778,0.527c0.047,0.025,0.088,0.048,0.127,0.074
		c0.226,0.138,0.453,0.272,0.683,0.396c0.09,0.048,0.18,0.094,0.271,0.139c0.185,0.098,0.375,0.192,0.564,0.282
		c0.102,0.046,0.197,0.089,0.295,0.133c0.195,0.084,0.395,0.168,0.594,0.242c0.09,0.036,0.178,0.069,0.271,0.1
		c0.282,0.104,0.575,0.199,0.868,0.283c7.293,2.047,13.563-2.331,17.337-8.595c0.149,0.4,0.272,0.755,0.36,1.053l-25.805,44.335
		l-44.086-34.945l-52.133,54.601c-0.076-0.766-0.191-1.535-0.357-2.291c-1.854-8.394-7.975-12.304-13.529-12.327
		c-2.235-7.302-9.649-11.272-15.662-8.335c-6.887,3.361-8.809,13.057-7.149,20.007c-3.058-5.424-9.258-8.02-14.435-5.493
		c-6.975,3.405-8.864,13.315-7.09,20.283c0,0,0,0.001,0,0.005c-2.094,1.169-3.959,3.221-5.336,6.273
		c-0.606,1.351-0.943,2.787-1.049,4.239c-0.012,0.161-0.023,0.327-0.027,0.487c-0.004,0.116-0.004,0.232-0.008,0.345
		c0,0.1-0.004,0.196,0,0.296c0,0.115,0.004,0.229,0.008,0.345c0.002,0.097,0.004,0.194,0.013,0.291
		c0.006,0.115,0.01,0.229,0.021,0.345c0.008,0.097,0.019,0.194,0.025,0.292c0.012,0.114,0.021,0.226,0.035,0.341
		c0.014,0.114,0.03,0.232,0.047,0.347c0.024,0.182,0.057,0.363,0.09,0.542c0.018,0.104,0.033,0.205,0.057,0.303
		c0.021,0.11,0.045,0.217,0.068,0.327c0.022,0.099,0.049,0.196,0.072,0.296c0.021,0.107,0.051,0.215,0.078,0.32
		c0.024,0.101,0.055,0.204,0.086,0.305c0.028,0.1,0.055,0.199,0.09,0.302c0.037,0.122,0.078,0.245,0.121,0.367
		c0.045,0.138,0.094,0.273,0.145,0.409c0.045,0.125,0.09,0.245,0.137,0.365c0.035,0.087,0.074,0.176,0.111,0.268
		c0.045,0.104,0.09,0.21,0.135,0.313c0.041,0.09,0.082,0.177,0.123,0.266c0.049,0.103,0.099,0.209,0.152,0.312
		c0.037,0.082,0.08,0.163,0.123,0.242c0.063,0.125,0.133,0.248,0.201,0.368c0.028,0.062,0.059,0.114,0.09,0.168
		c0.102,0.171,0.203,0.34,0.309,0.505c0.039,0.066,0.08,0.125,0.123,0.191c0.07,0.105,0.144,0.215,0.215,0.319
		c0.048,0.066,0.095,0.133,0.142,0.199c0.074,0.103,0.147,0.199,0.229,0.299c0.043,0.063,0.093,0.122,0.14,0.184
		c0.09,0.109,0.18,0.22,0.271,0.327c0.037,0.043,0.072,0.086,0.111,0.127c0.127,0.145,0.258,0.289,0.395,0.426
		c0.035,0.038,0.07,0.074,0.104,0.109c0.104,0.104,0.209,0.204,0.311,0.301c0.051,0.044,0.103,0.09,0.152,0.133
		c0.096,0.09,0.19,0.174,0.289,0.256c0.051,0.045,0.104,0.088,0.156,0.126c0.104,0.087,0.217,0.171,0.323,0.251
		c0.043,0.03,0.086,0.063,0.129,0.094c0.154,0.111,0.31,0.215,0.466,0.314c0.024,0.015,0.053,0.03,0.073,0.046
		c0.138,0.081,0.271,0.16,0.408,0.234c0.053,0.03,0.105,0.056,0.16,0.082c0.111,0.061,0.225,0.117,0.338,0.167
		c0.062,0.028,0.117,0.057,0.176,0.079c0.117,0.051,0.234,0.1,0.354,0.146c0.053,0.023,0.106,0.044,0.162,0.063
		c0.17,0.062,0.342,0.117,0.516,0.168c4.346,1.218,8.084-1.391,10.334-5.124c0.15,0.396,0.256,0.722,0.295,0.937
		c0.113,0.604,0.027,7.811-0.117,16.36l-22.45,23.516h-1.4v1.465l-13.041,13.657l-3.361,0.105
		c-0.059-6.506-0.117-12.936-0.117-14.196c1.316,1.028,2.902,1.659,4.748,1.73c5.117,0.196,8.793-7.047,7.427-13.244
		c-1.146-5.188-4.931-7.605-8.361-7.621c-1.381-4.512-5.961-6.965-9.676-5.147c-4.312,2.104-5.48,8.227-4.386,12.531v0.003
		c-1.293,0.722-2.442,1.99-3.295,3.879c-0.377,0.835-0.584,1.723-0.647,2.619c-0.008,0.097-0.014,0.199-0.019,0.301
		c-0.004,0.071-0.004,0.141-0.004,0.212c-0.004,0.062-0.004,0.124-0.004,0.184c0,0.069,0.004,0.144,0.008,0.212
		c0,0.061,0.004,0.123,0.006,0.181c0.005,0.069,0.009,0.141,0.017,0.212c0.004,0.061,0.008,0.119,0.016,0.181
		c0.006,0.071,0.012,0.141,0.021,0.21c0.01,0.073,0.018,0.145,0.028,0.217c0.015,0.112,0.031,0.222,0.054,0.331
		c0.014,0.064,0.022,0.125,0.034,0.191c0.015,0.066,0.029,0.133,0.046,0.199c0.014,0.064,0.024,0.123,0.043,0.185
		c0.016,0.065,0.03,0.131,0.049,0.199c0.016,0.062,0.035,0.123,0.053,0.187c0.02,0.061,0.037,0.123,0.055,0.186
		c0.023,0.074,0.049,0.153,0.076,0.225c0.027,0.089,0.057,0.171,0.088,0.258c0.029,0.071,0.06,0.148,0.084,0.222
		c0.023,0.057,0.049,0.11,0.07,0.166c0.025,0.063,0.057,0.128,0.084,0.194c0.023,0.054,0.049,0.106,0.074,0.16
		c0.03,0.065,0.063,0.131,0.096,0.193c0.023,0.051,0.049,0.103,0.076,0.15c0.039,0.079,0.08,0.15,0.121,0.228
		c0.021,0.035,0.041,0.071,0.061,0.106c0.062,0.105,0.121,0.207,0.188,0.312c0.024,0.039,0.049,0.075,0.075,0.115
		c0.043,0.066,0.089,0.135,0.136,0.196c0.028,0.044,0.059,0.084,0.086,0.123c0.045,0.063,0.094,0.125,0.139,0.189
		c0.031,0.036,0.06,0.074,0.088,0.109c0.056,0.069,0.111,0.139,0.168,0.202c0.023,0.028,0.045,0.056,0.068,0.083
		c0.08,0.088,0.158,0.177,0.244,0.262c0.02,0.022,0.043,0.046,0.063,0.066c0.063,0.063,0.127,0.127,0.191,0.186
		c0.031,0.028,0.063,0.057,0.094,0.085c0.062,0.054,0.119,0.104,0.18,0.155c0.031,0.025,0.063,0.054,0.097,0.079
		c0.063,0.057,0.135,0.107,0.201,0.156c0.024,0.02,0.053,0.04,0.079,0.059c0.095,0.066,0.189,0.133,0.287,0.193
		c0.015,0.008,0.031,0.019,0.045,0.028c0.084,0.051,0.168,0.1,0.25,0.146c0.035,0.018,0.068,0.033,0.101,0.05
		c0.069,0.036,0.141,0.069,0.211,0.104c0.035,0.019,0.072,0.031,0.108,0.049c0.072,0.03,0.146,0.059,0.218,0.087
		c0.032,0.016,0.065,0.025,0.1,0.038c0.105,0.039,0.213,0.074,0.32,0.103c2.686,0.755,4.996-0.854,6.387-3.165
		c0.092,0.245,0.156,0.446,0.18,0.579c0.086,0.454-0.01,6.963-0.135,13.655l-24.842,0.766v-68.53v-1.292v-10.734h-6.438v-41.88
		h-3.373v41.88h-6.436v10.734h-16.248v43.228H844.67v-14.734h-21.284v-4.359h0.233v-2.965h0.777v-3.916h-1.012v-2.263
		c0.688-0.57,1.145-1.552,1.145-2.672c0-1.759-1.121-3.188-2.506-3.188c-1.387,0-2.508,1.429-2.508,3.188
		c0,1.12,0.457,2.104,1.145,2.672v1.434c-2.856-0.689-5.871-3.229-8.219-7.123h0.02c-0.518-0.863-1.018-1.767-1.463-2.753
		c-0.268-0.587-0.502-1.177-0.723-1.774c0.373-0.827,0.592-1.746,0.592-2.723c0-2.624-3.348-5.816-5.082-9.372
		c-0.217-0.441-0.6-0.712-1.008-0.712h-0.021c-0.418,0-0.807,0.276-1.026,0.725c-1.736,3.551-5.078,6.738-5.078,9.359
		c0,0.886,0.182,1.72,0.492,2.491c-0.277,0.793-0.578,1.587-0.933,2.369c-0.385,0.85-0.807,1.635-1.245,2.391h0.012
		c-2.289,3.941-5.252,6.559-8.099,7.386v-1.697c0.688-0.57,1.146-1.552,1.146-2.672c0-1.759-1.125-3.188-2.51-3.188
		c-1.386,0-2.506,1.429-2.506,3.188c0,1.12,0.459,2.104,1.141,2.672v2.263h-1.141v3.916h1.11v2.965h0.029v38.792h-2.652v-13.675
		h-12.948v-54.416l-21.888-13.925h-41.035v11.255H607.176v-55.764h-4.165h-2.603h-3.019h-2.185v-23.179h-31.75v33.112h-1.712h-2.028
		h-2.352h-2.027h-2.809v1.218h-1.14v-52.305h-8.459v-60.296h-2.741v60.296h-5.479v-51.581h-2.743v51.581h-6.278v52.305h-8.908
		v38.324H497.38v-7.008h-1.563v-57.338h-24.203h-61.485v168.679h-8.967l-3.375,2.148v-66.055l-13.567-25.309
		c0.692-0.206,1.208-0.992,1.208-1.934c0-1.101-0.702-1.994-1.566-1.994h-0.348v-17.278h-2.089v17.278h-0.176
		c-0.862,0-1.566,0.895-1.566,1.994c0,0.967,0.545,1.775,1.267,1.952l-11.709,25.29v52.543h-16.434
		c-4.643-14.03-15.127-39.48-35.038-60.539l-4.473-11.124h1.909l-4.365-12.687h2.456l-3.548-10.033h2.183l-4.911-9.69h3.003
		l-4.911-12.455h1.908L303.2-467.53h2.729l-4.367-9.456h3.002l-5.183-9.339h2.455l-5.73-15.915l-5.73,15.915h2.458l-5.184,9.339h3
		l-4.365,9.456h2.728l-3.82,10.957h1.909l-4.909,12.455h3l-4.91,9.69h2.18l-2.588,7.319c-2.808-1.162-5.719-2.212-8.722-3.154
		l-2.095-4.127h1.761l-2.879-7.313h1.119l-2.241-6.426h1.602l-2.563-5.551h1.76l-3.04-5.48h1.44l-3.361-9.341l-3.363,9.341h1.441
		l-3.042,5.48h1.761l-2.561,5.551h1.599l-2.241,6.426h1.122l-2.881,7.313h1.759l-0.295,0.582
		c-16.356-2.593-35.21-1.846-56.912,3.744c0,0-14.789-113.092-128.732-147.113l-1.375-3.483h1.908l-3.817-10.955h2.728l-4.366-9.456
		h3.001l-5.184-9.344h2.456l-5.729-15.916L54.2-610.41h2.454l-5.182,9.344h3l-4.367,9.456h2.73l-3.266,9.369
		c-14.994-2.895-31.47-4.503-49.569-4.503V649.821h2.533V546.289l97.713-14.896l106.291-69.575l1.909,2.451
		c1.31-1.716,3.253-2.808,5.429-2.808h4.08c3.944,0,7.142-3.576,7.142-7.992v-9.131c0-4.414,3.197-7.991,7.14-7.991
		c3.943,0,7.138-3.575,7.138-7.989v-2.283c0-4.414,3.199-7.991,7.143-7.991h39.78c4.507,0,8.16,4.089,8.16,9.132
		s3.653,9.132,8.16,9.132h2.04c4.507,0,8.158,4.089,8.158,9.132v6.851c0,5.042,3.655,9.132,8.162,9.132h3.061
		c4.508,0,8.161,4.089,8.161,9.131v43.44c0,17.651,12.787,31.962,28.561,31.962v-30.312c0-8.51,6.165-15.412,13.771-15.412
		s13.77,6.902,13.77,15.412v17.49c0,14.39,10.426,26.056,23.285,26.056c5.167,0,9.356,4.688,9.356,10.472v37.112l5.387,2.921
		l-0.244-2.677l1.338,1.534v-0.709l0.635,0.561l-0.268-3.465l0.971,1.254l0.502-2.289l0.501,2.289l0.971-1.254l-0.268,3.465
		l0.636-0.561v0.709l1.34-1.534l-0.301,3.296l-0.67,1.911l1.975-1.011l-0.3,1.272l0.836-0.487v1.611l-0.103,0.182l4.758,2.58
		l3.112-0.895l-0.073-0.26l0.349,0.18l2.398-0.689l-0.559-0.855l-0.216-1.327l2.377,1.724l0.614-0.178l-2.168-2.59l-0.823-3.491
		l2.151,1.563l-0.861-2.647l2.118,1.685l-0.215-1.483l1.147,1.243l-1.865-3.292v-1.726l0.896,0.52l-0.321-1.365l2.115,1.084
		l-0.718-2.048l-0.321-3.532l1.435,1.645v-0.762l0.681,0.603l-0.286-3.714l1.038,1.345l0.54-2.456l0.537,2.456l1.041-1.345
		l-0.285,3.714l0.68-0.603v0.762l1.437-1.645l-0.322,3.532l-0.718,2.048l2.117-1.084l-0.324,1.365l0.898-0.52v1.726l-1.865,3.292
		l1.147-1.243l-0.217,1.483l2.119-1.685l-0.861,2.647l1.741-1.265l2.477-32.968l-1.098-0.193l0.267-1.902l0.978,0.172l1.993-26.538
		l-1.344-0.261l0.281-1.809l1.202,0.229L464.722,523h-0.552v-16.377h-1.25v-3.361h3.628v-6.121h-5.63v-3.438h5.63v-4.788h-5.013
		l11.53-5.595v-20.029h1.229v2.549h5.232v1.848h3.306v6.046h-5.846v-1.845h-2.693v10.838l6.756-3.277l18.651,9.466h-5.015v4.788
		h6.268v3.438h-6.268v6.121h4.265v3.361h-1.25V523h-1.188l1.684,22.391l3.25-0.566l0.253,1.82l-3.365,0.587l1.991,26.515
		l3.025-0.481l0.244,1.905l-3.125,0.496l1.692,22.484l60.367-17.358c0,0,106.082-86.629,109.143-87.771
		c3.061-1.141,89.14-34.246,89.14-34.246l23.132,11.99c3.643-2.289,7.848-3.601,12.325-3.601v-59.998
		c0-9.747,7.06-17.649,15.769-17.649s15.77,7.902,15.77,17.649v44.509c0,4.388,3.181,7.942,7.101,7.942
		c3.918,0,7.094-3.555,7.094-7.942v-80.247c0-2.193,1.59-3.97,3.549-3.97s3.549-1.778,3.549-3.971v-34.413
		c0-2.192,1.586-3.973,3.55-3.973c6.313,0,11.432-5.727,11.432-12.793v-14.117c0-2.194,1.588-3.971,3.547-3.971h15.375
		c15.242,0,27.598,13.828,27.598,30.881c6.533,0,11.826,5.928,11.826,13.238v100.885c0,8.285,6.002,15.002,13.406,15.002v-10.883
		c0-9.432,6.83-17.075,15.256-17.075c5.508,0,9.974-4.995,9.974-11.161c0-14.133,10.239-25.59,22.866-25.59h8.675
		c16.547,0,29.961,15.014,29.961,33.532v85.418l0.666-0.587v2.07l3.893-4.468l-0.875,9.584l-1.947,5.554l5.742-2.939l-0.875,3.703
		l2.432-1.416v4.682l-5.061,8.932l3.115-3.377l-0.584,4.029l5.741-4.572l-2.336,7.189l5.838-4.25l-2.237,9.477l-4.566,5.457
		l1.912,0.916l4.893-3.543l-0.582,3.594l-1,1.537l5.773,2.766l1.162-0.6l-0.289,1.018l183.19,87.813V-677.259L1152.881-550.684z
		 M960.334-393.389c-0.057-6.289-0.102-11.307-0.104-12.657c2.133,1.665,4.7,2.688,7.688,2.8c0.674,0.025,1.334-0.035,1.979-0.163
		L960.334-393.389z M981.844-415.923c-0.018-2.289-0.026-3.945-0.028-4.64c0.872,0.684,1.823,1.25,2.842,1.697L981.844-415.923z"/>
	<polygon fill="#030104" points="482.469,549.995 482.469,576.583 497.278,574.232 495.288,547.76 	"/>
	<polygon fill="#030104" points="482.935,523 482.935,529.026 482.469,529.026 482.469,548.132 495.15,545.922 493.428,523 	"/>
</g>
<g opacity="0.15">
	<polygon fill="#030104" points="467.808,2664.427 466.106,2687.076 479.402,2689.64 479.402,2670.453 473.682,2670.453 
		473.682,2664.427 	"/>
	<polygon fill="#030104" points="463.978,2715.398 479.402,2718.123 479.402,2691.511 465.969,2688.912 	"/>
	<polygon fill="#030104" points="461.816,2744.144 462.208,2744.595 462.208,2743.832 462.89,2744.431 462.604,2740.72 
		463.644,2742.064 464.183,2739.609 464.721,2742.064 465.761,2740.72 465.473,2744.431 466.155,2743.832 466.155,2744.595 
		467.589,2742.949 467.267,2746.478 466.55,2748.525 468.666,2747.443 468.345,2748.808 469.24,2748.287 469.24,2749.042 
		471.527,2748.384 471.172,2747.857 471.641,2747.857 471.172,2746.212 471.641,2746.453 473.298,2747.875 474.481,2747.535 
		474.616,2746.773 473.361,2744.845 473.147,2743.517 475.586,2745.287 476.627,2745.646 473.97,2742.474 473.147,2738.98 
		475.298,2740.548 474.438,2737.898 476.555,2739.583 476.341,2738.099 477.486,2739.345 475.62,2736.052 475.62,2734.328 
		476.52,2734.847 476.195,2733.48 478.312,2734.564 477.594,2732.515 477.271,2728.984 478.706,2730.63 478.706,2729.869 
		479.389,2730.47 479.101,2726.757 479.402,2727.142 479.402,2720.068 463.83,2717.324 	"/>
	<polygon fill="#030104" points="458.063,2752.255 458.066,2752.253 458.063,2752.246 	"/>
	<polygon fill="#030104" points="461.498,2748.367 461.814,2748.525 461.544,2747.759 	"/>
	<polygon fill="#030104" points="458.12,2752.009 458.142,2752.019 458.152,2751.876 	"/>
	<rect x="482.153" y="2638.566" fill="#030104" width="6.378" height="4.945"/>
	<polygon fill="#030104" points="499.144,2740.441 497.427,2717.576 482.474,2719.955 482.474,2730.025 482.653,2729.869 
		482.653,2730.63 484.088,2728.984 483.768,2732.515 483.048,2734.564 485.164,2733.48 484.841,2734.847 485.739,2734.328 
		485.739,2736.052 483.873,2739.345 485.021,2738.099 484.808,2739.583 486.923,2737.898 486.063,2740.548 488.216,2738.98 
		487.391,2742.474 485.906,2744.25 488.064,2743.63 488.216,2743.517 488.202,2743.589 	"/>
	<path fill="#030104" d="M1152.852,1590.742c-3.558-2.238-7.503-3.334-11.292-3.35c-3.748-12.25-16.186-18.914-26.273-13.984
		c-11.699,5.711-14.87,22.338-11.896,34.027c0,0,0,0.006,0.002,0.006c-3.511,1.963-6.636,5.402-8.949,10.531
		c-1.019,2.264-1.582,4.672-1.759,7.107c-0.021,0.271-0.038,0.549-0.048,0.82c-0.009,0.193-0.009,0.387-0.011,0.576
		c-0.004,0.164-0.005,0.33-0.004,0.492c0,0.193,0.006,0.385,0.015,0.58c0.002,0.162,0.01,0.326,0.021,0.49
		c0.007,0.191,0.021,0.385,0.033,0.576c0.014,0.166,0.027,0.33,0.046,0.496c0.019,0.186,0.036,0.377,0.058,0.566
		c0.023,0.195,0.053,0.391,0.08,0.584c0.045,0.303,0.091,0.607,0.148,0.908c0.031,0.172,0.059,0.34,0.092,0.514
		c0.039,0.178,0.081,0.359,0.119,0.543c0.038,0.168,0.076,0.334,0.117,0.5c0.043,0.176,0.089,0.355,0.135,0.531
		c0.047,0.172,0.096,0.342,0.143,0.51c0.051,0.172,0.1,0.338,0.148,0.506c0.065,0.207,0.134,0.41,0.203,0.617
		c0.076,0.23,0.158,0.461,0.244,0.689c0.077,0.203,0.15,0.406,0.232,0.605c0.059,0.154,0.122,0.301,0.188,0.449
		c0.074,0.176,0.147,0.352,0.225,0.525c0.07,0.148,0.135,0.297,0.206,0.441c0.082,0.18,0.169,0.354,0.253,0.527
		c0.07,0.137,0.137,0.27,0.208,0.408c0.108,0.209,0.222,0.41,0.335,0.615c0.055,0.1,0.104,0.193,0.159,0.285
		c0.165,0.287,0.336,0.566,0.511,0.842c0.068,0.111,0.141,0.217,0.209,0.314c0.118,0.188,0.238,0.365,0.362,0.541
		c0.076,0.113,0.157,0.223,0.237,0.332c0.124,0.172,0.248,0.342,0.377,0.506c0.076,0.104,0.156,0.203,0.234,0.307
		c0.149,0.188,0.303,0.369,0.459,0.551c0.063,0.07,0.119,0.145,0.181,0.213c0.217,0.246,0.437,0.484,0.663,0.721
		c0.057,0.059,0.119,0.117,0.182,0.178c0.168,0.174,0.341,0.342,0.517,0.506c0.084,0.076,0.169,0.152,0.253,0.23
		c0.162,0.143,0.324,0.283,0.485,0.42c0.09,0.072,0.176,0.145,0.265,0.217c0.18,0.145,0.361,0.283,0.543,0.42
		c0.073,0.051,0.146,0.107,0.218,0.16c0.258,0.182,0.519,0.359,0.78,0.525c0.045,0.023,0.087,0.049,0.125,0.074
		c0.227,0.139,0.453,0.271,0.683,0.395c0.089,0.047,0.18,0.094,0.27,0.139c0.187,0.1,0.376,0.191,0.567,0.281
		c0.101,0.047,0.197,0.09,0.294,0.133c0.195,0.084,0.396,0.168,0.594,0.242c0.088,0.037,0.179,0.07,0.269,0.102
		c0.285,0.104,0.576,0.197,0.869,0.281c7.293,2.047,13.563-2.33,17.337-8.596c0.149,0.4,0.271,0.756,0.36,1.055l-25.804,44.334
		l-44.084-34.943l-52.129,54.6c-0.076-0.766-0.193-1.533-0.359-2.289c-1.854-8.393-7.974-12.303-13.527-12.326
		c-2.234-7.303-9.648-11.273-15.661-8.336c-6.888,3.361-8.809,13.057-7.15,20.006c-3.055-5.422-9.257-8.018-14.431-5.492
		c-6.975,3.404-8.866,13.314-7.092,20.283v0.006c-2.094,1.17-3.958,3.221-5.335,6.271c-0.607,1.354-0.942,2.787-1.05,4.24
		c-0.012,0.16-0.021,0.326-0.027,0.486c-0.003,0.115-0.003,0.232-0.007,0.346c0,0.1-0.004,0.195,0,0.295
		c0,0.115,0.004,0.23,0.007,0.346c0.002,0.096,0.006,0.193,0.013,0.291c0.005,0.115,0.011,0.23,0.021,0.344
		c0.009,0.1,0.017,0.193,0.025,0.291c0.013,0.115,0.021,0.229,0.035,0.344c0.014,0.113,0.031,0.23,0.047,0.348
		c0.027,0.182,0.056,0.361,0.09,0.541c0.018,0.104,0.034,0.205,0.058,0.303c0.021,0.111,0.046,0.219,0.067,0.328
		c0.022,0.1,0.049,0.195,0.071,0.295c0.022,0.107,0.054,0.215,0.08,0.32c0.023,0.102,0.054,0.203,0.086,0.305
		c0.028,0.1,0.055,0.199,0.089,0.303c0.037,0.121,0.079,0.244,0.12,0.367c0.046,0.137,0.095,0.273,0.146,0.408
		c0.045,0.125,0.092,0.244,0.138,0.365c0.036,0.086,0.073,0.176,0.11,0.268c0.045,0.102,0.092,0.209,0.135,0.311
		c0.042,0.09,0.081,0.178,0.124,0.266c0.049,0.104,0.099,0.209,0.151,0.313c0.039,0.082,0.08,0.162,0.123,0.242
		c0.064,0.125,0.133,0.248,0.201,0.367c0.029,0.063,0.06,0.115,0.091,0.168c0.102,0.172,0.202,0.34,0.308,0.506
		c0.039,0.066,0.08,0.125,0.124,0.191c0.069,0.105,0.144,0.215,0.215,0.318c0.047,0.066,0.094,0.133,0.142,0.199
		c0.074,0.104,0.147,0.199,0.228,0.299c0.044,0.064,0.093,0.123,0.14,0.184c0.089,0.109,0.181,0.221,0.273,0.328
		c0.035,0.043,0.069,0.086,0.107,0.127c0.129,0.145,0.259,0.289,0.396,0.426c0.036,0.039,0.071,0.074,0.104,0.109
		c0.104,0.105,0.207,0.205,0.312,0.301c0.051,0.045,0.101,0.09,0.15,0.133c0.097,0.09,0.192,0.174,0.29,0.256
		c0.051,0.049,0.104,0.092,0.156,0.127c0.104,0.088,0.214,0.174,0.323,0.252c0.045,0.029,0.086,0.064,0.129,0.096
		c0.153,0.107,0.311,0.215,0.466,0.313c0.025,0.014,0.052,0.029,0.075,0.045c0.135,0.082,0.27,0.16,0.405,0.234
		c0.054,0.031,0.106,0.057,0.159,0.082c0.112,0.063,0.227,0.117,0.339,0.168c0.061,0.029,0.117,0.057,0.178,0.08
		c0.115,0.051,0.232,0.1,0.353,0.145c0.052,0.023,0.107,0.045,0.162,0.064c0.169,0.061,0.342,0.115,0.517,0.168
		c4.346,1.217,8.084-1.393,10.334-5.125c0.149,0.395,0.255,0.723,0.295,0.938c0.112,0.604,0.026,7.809-0.118,16.359l-22.45,23.516
		h-1.399v1.465l-13.039,13.658l-3.361,0.104c-0.061-6.506-0.119-12.934-0.119-14.195c1.317,1.029,2.904,1.658,4.749,1.73
		c5.116,0.197,8.792-7.047,7.426-13.244c-1.146-5.188-4.931-7.605-8.361-7.621c-1.38-4.512-5.961-6.965-9.675-5.146
		c-4.311,2.105-5.479,8.227-4.384,12.531v0.002c-1.294,0.723-2.445,1.99-3.295,3.879c-0.376,0.836-0.584,1.723-0.649,2.619
		c-0.007,0.098-0.014,0.199-0.018,0.301c-0.003,0.072-0.003,0.141-0.004,0.213c-0.002,0.061-0.002,0.123-0.002,0.184
		c0,0.068,0.003,0.145,0.006,0.211c0,0.064,0.004,0.123,0.005,0.184c0.006,0.066,0.009,0.141,0.016,0.213
		c0.005,0.061,0.01,0.117,0.018,0.18c0.007,0.072,0.013,0.141,0.021,0.211c0.012,0.072,0.021,0.145,0.029,0.217
		c0.015,0.111,0.032,0.221,0.056,0.33c0.012,0.064,0.021,0.125,0.033,0.191c0.016,0.064,0.03,0.133,0.044,0.197
		c0.016,0.064,0.027,0.123,0.044,0.186c0.017,0.064,0.031,0.131,0.05,0.199c0.016,0.063,0.034,0.123,0.053,0.188
		c0.019,0.061,0.036,0.123,0.056,0.186c0.022,0.074,0.05,0.154,0.075,0.225c0.027,0.09,0.057,0.172,0.089,0.258
		c0.027,0.072,0.059,0.148,0.083,0.225c0.023,0.057,0.049,0.107,0.07,0.166c0.025,0.063,0.055,0.127,0.084,0.191
		c0.023,0.057,0.05,0.107,0.075,0.16c0.03,0.066,0.061,0.131,0.096,0.195c0.021,0.051,0.047,0.102,0.075,0.15
		c0.04,0.078,0.08,0.15,0.123,0.227c0.02,0.035,0.039,0.072,0.059,0.107c0.062,0.105,0.123,0.207,0.188,0.311
		c0.023,0.039,0.05,0.074,0.074,0.115c0.043,0.066,0.09,0.135,0.134,0.197c0.029,0.043,0.061,0.084,0.088,0.123
		c0.046,0.063,0.092,0.125,0.139,0.188c0.031,0.037,0.06,0.074,0.089,0.109c0.055,0.07,0.109,0.139,0.167,0.203
		c0.022,0.027,0.045,0.055,0.068,0.082c0.08,0.088,0.159,0.178,0.244,0.262c0.021,0.023,0.043,0.047,0.063,0.066
		c0.063,0.063,0.126,0.127,0.192,0.186c0.029,0.029,0.063,0.057,0.093,0.086c0.062,0.053,0.118,0.104,0.18,0.154
		c0.031,0.025,0.064,0.055,0.097,0.08c0.064,0.057,0.133,0.107,0.2,0.156c0.025,0.02,0.055,0.039,0.08,0.059
		c0.095,0.066,0.189,0.133,0.288,0.193c0.015,0.008,0.029,0.018,0.044,0.027c0.085,0.051,0.169,0.1,0.252,0.145
		c0.033,0.02,0.066,0.033,0.1,0.053c0.069,0.033,0.139,0.066,0.211,0.104c0.035,0.02,0.072,0.031,0.107,0.049
		c0.072,0.031,0.146,0.059,0.218,0.088c0.032,0.016,0.066,0.025,0.101,0.037c0.104,0.039,0.212,0.074,0.319,0.104
		c2.686,0.754,4.996-0.855,6.385-3.166c0.093,0.246,0.157,0.447,0.183,0.58c0.086,0.453-0.011,6.963-0.138,13.654l-24.84,0.766
		v-68.529v-1.293v-10.732h-6.437v-41.881h-3.373v41.881h-6.436v10.732h-16.248v43.23h-10.655v-14.734h-21.29v-4.359h0.234v-2.965
		h0.775v-3.916h-1.011v-2.264c0.689-0.57,1.146-1.553,1.146-2.672c0-1.76-1.121-3.188-2.506-3.188c-1.387,0-2.509,1.428-2.509,3.188
		c0,1.119,0.458,2.102,1.146,2.672v1.434c-2.858-0.689-5.871-3.229-8.22-7.123h0.021c-0.519-0.863-1.018-1.766-1.464-2.754
		c-0.268-0.586-0.502-1.176-0.722-1.773c0.372-0.826,0.592-1.746,0.592-2.723c0-2.625-3.349-5.816-5.083-9.373
		c-0.217-0.441-0.6-0.711-1.007-0.711h-0.021c-0.419,0-0.806,0.275-1.025,0.725c-1.737,3.551-5.079,6.738-5.079,9.359
		c0,0.885,0.181,1.719,0.492,2.49c-0.279,0.793-0.578,1.588-0.934,2.369c-0.384,0.85-0.806,1.635-1.246,2.391h0.013
		c-2.287,3.941-5.25,6.559-8.098,7.387v-1.697c0.688-0.568,1.146-1.553,1.146-2.672c0-1.76-1.124-3.188-2.509-3.188
		c-1.386,0-2.509,1.428-2.509,3.188c0,1.119,0.46,2.104,1.144,2.672v2.266h-1.144v3.916h1.113v2.965h0.029v38.791h-2.652v-13.674
		h-12.947v-54.42l-21.887-13.928h-41.034v11.258H607.175v-55.766h-4.165h-2.604h-3.018h-2.186v-23.18h-31.748v33.113h-1.712h-2.027
		h-2.353h-2.027h-2.808v1.217h-1.139v-52.307h-8.458v-60.297h-2.742v60.297h-5.479v-51.578h-2.742v51.578h-6.278v52.307h-8.907
		v38.324h-19.399v-7.008h-1.564v-57.34h-24.202h-61.481v168.68h-8.968l-3.375,2.15v-66.055l-13.566-25.311
		c0.691-0.207,1.208-0.99,1.208-1.934c0-1.102-0.702-1.994-1.567-1.994h-0.347v-17.279h-2.089v17.279h-0.176
		c-0.862,0-1.566,0.895-1.566,1.994c0,0.967,0.545,1.775,1.266,1.951l-11.708,25.291v52.543h-16.433
		c-4.644-14.031-15.126-39.48-35.036-60.539l-4.473-11.123h1.908l-4.363-12.688h2.455l-3.549-10.033h2.184l-4.911-9.689h3.001
		l-4.91-12.455h1.908l-3.819-10.957h2.729l-4.367-9.455h3.002l-5.183-9.34h2.455l-5.73-15.914l-5.729,15.914h2.457l-5.183,9.34h3
		l-4.365,9.455h2.728l-3.819,10.957h1.908l-4.909,12.455h3.001l-4.91,9.689h2.18l-2.588,7.32c-2.808-1.162-5.719-2.213-8.722-3.154
		l-2.095-4.127h1.761l-2.88-7.313h1.119l-2.241-6.428h1.603l-2.563-5.551h1.76l-3.04-5.48h1.44l-3.361-9.34l-3.363,9.34h1.441
		l-3.042,5.48h1.761l-2.561,5.551h1.599l-2.241,6.428h1.122l-2.881,7.313h1.759l-0.295,0.582
		c-16.355-2.594-35.208-1.846-56.909,3.744c0,0-14.788-113.094-128.726-147.113l-1.374-3.482h1.908l-3.816-10.955h2.728
		l-4.366-9.455h3.001l-5.183-9.344h2.456l-5.729-15.916l-5.73,15.916h2.454l-5.181,9.344h3l-4.367,9.455h2.729l-3.265,9.369
		c-14.994-2.896-31.469-4.502-49.567-4.502v1236.564h2.533v-103.531l97.708-14.898l106.286-69.572l1.909,2.449
		c1.31-1.715,3.253-2.809,5.428-2.809h4.08c3.944,0,7.141-3.574,7.141-7.99v-9.133c0-4.412,3.197-7.99,7.139-7.99
		c3.943,0,7.138-3.576,7.138-7.988v-2.283c0-4.412,3.199-7.99,7.143-7.99h39.778c4.507,0,8.16,4.088,8.16,9.131
		c0,5.045,3.653,9.133,8.159,9.133h2.041c4.506,0,8.158,4.088,8.158,9.131v6.852c0,5.043,3.656,9.131,8.162,9.131h3.059
		c4.509,0,8.161,4.092,8.161,9.135v43.439c0,17.65,12.786,31.961,28.561,31.961v-30.313c0-8.51,6.165-15.41,13.769-15.41
		c7.605,0,13.771,6.9,13.771,15.41v17.49c0,14.391,10.425,26.057,23.283,26.057c5.168,0,9.356,4.688,9.356,10.471v37.113
		l5.387,2.922l-0.244-2.678l1.339,1.533v-0.709l0.635,0.563l-0.269-3.467l0.972,1.256l0.503-2.289l0.501,2.289l0.969-1.256
		l-0.267,3.467l0.636-0.563v0.709l1.338-1.533l-0.3,3.295l-0.67,1.912l1.974-1.012l-0.3,1.273l0.836-0.486v1.609l-0.103,0.182
		l4.757,2.58l3.111-0.895l-0.072-0.26l0.348,0.178l2.399-0.688l-0.56-0.855l-0.216-1.326l2.377,1.723l0.615-0.176l-2.168-2.592
		l-0.824-3.49l2.151,1.563l-0.861-2.646l2.119,1.684l-0.215-1.482l1.146,1.242l-1.865-3.291v-1.727l0.896,0.52l-0.321-1.363
		l2.115,1.084l-0.717-2.051l-0.322-3.531l1.435,1.645v-0.764l0.683,0.604l-0.287-3.715l1.039,1.346l0.541-2.455l0.537,2.455
		l1.04-1.346l-0.285,3.715l0.679-0.604v0.764l1.438-1.645l-0.322,3.531l-0.718,2.051l2.116-1.084l-0.323,1.363l0.897-0.52v1.727
		l-1.865,3.291l1.147-1.242l-0.216,1.482l2.119-1.684l-0.862,2.646l1.742-1.266l2.477-32.967l-1.098-0.195l0.267-1.9l0.978,0.17
		l1.993-26.537l-1.345-0.26l0.281-1.811l1.202,0.23l1.658-22.061h-0.553v-16.379h-1.25v-3.359h3.628v-6.119h-5.63v-3.439h5.63
		v-4.787h-5.013l11.529-5.594v-20.031h1.229v2.551h5.232v1.848h3.307v6.045h-5.846v-1.844h-2.693v10.836l6.757-3.277l18.649,9.467
		h-5.014v4.787h6.267v3.439h-6.267v6.119h4.264v3.361h-1.25v16.379h-1.188l1.683,22.391l3.25-0.568l0.253,1.82l-3.365,0.588
		l1.991,26.514l3.026-0.48l0.244,1.906l-3.125,0.494l1.691,22.486l60.364-17.359c0,0,106.076-86.629,109.137-87.771
		s89.138-34.246,89.138-34.246l23.128,11.988c3.645-2.289,7.848-3.6,12.325-3.6v-59.996c0-9.746,7.06-17.648,15.768-17.648
		c8.709,0,15.77,7.902,15.77,17.648v44.508c0,4.389,3.18,7.943,7.099,7.943c3.918,0,7.095-3.555,7.095-7.943v-80.246
		c0-2.193,1.59-3.969,3.55-3.969c1.958,0,3.548-1.779,3.548-3.973v-34.414c0-2.191,1.586-3.971,3.548-3.971
		c6.313,0,11.434-5.727,11.434-12.795v-14.115c0-2.195,1.586-3.973,3.547-3.973h15.375c15.24,0,27.595,13.828,27.595,30.883
		c6.532,0,11.826,5.926,11.826,13.238v100.885c0,8.285,6.001,15.002,13.405,15.002v-10.883c0-9.434,6.829-17.076,15.255-17.076
		c5.508,0,9.972-4.996,9.972-11.162c0-14.131,10.239-25.588,22.866-25.588h8.673c16.548,0,29.961,15.012,29.961,33.531v85.418
		l0.665-0.588v2.07l3.894-4.467l-0.877,9.584l-1.945,5.555l5.742-2.941l-0.877,3.703l2.434-1.416v4.684l-5.062,8.93l3.116-3.377
		l-0.586,4.031l5.741-4.574l-2.335,7.189l5.838-4.25l-2.236,9.477l-4.567,5.457l1.913,0.916l4.892-3.541l-0.583,3.592l-0.999,1.537
		l5.774,2.77l1.159-0.602l-0.286,1.02l183.182,87.813V1464.166L1152.852,1590.742z M960.314,1748.037
		c-0.058-6.289-0.101-11.309-0.104-12.656c2.133,1.664,4.7,2.688,7.688,2.799c0.676,0.025,1.336-0.035,1.979-0.162L960.314,1748.037
		z M981.824,1725.503c-0.018-2.289-0.028-3.945-0.03-4.643c0.873,0.686,1.824,1.25,2.843,1.697L981.824,1725.503z"/>
	<polygon fill="#030104" points="482.474,2691.421 482.474,2718.011 497.281,2715.658 495.292,2689.183 	"/>
	<polygon fill="#030104" points="482.938,2664.427 482.938,2670.453 482.474,2670.453 482.474,2689.556 495.154,2687.347 
		493.432,2664.427 	"/>
</g>
</svg>
