<?xml version="1.0" encoding="utf-8"?>
<!-- Generator: Adobe Illustrator 16.0.0, SVG Export Plug-In . SVG Version: 6.00 Build 0)  -->
<!DOCTYPE svg PUBLIC "-//W3C//DTD SVG 1.1//EN" "http://www.w3.org/Graphics/SVG/1.1/DTD/svg11.dtd">
<svg version="1.1" id="Capa_1" xmlns="http://www.w3.org/2000/svg" xmlns:xlink="http://www.w3.org/1999/xlink" x="0px" y="0px"
	 width="1226.504px" height="689.572px" viewBox="0 0 1226.504 689.572" enable-background="new 0 0 1226.504 689.572"
	 xml:space="preserve">
<g opacity="0.15">
	<path fill="#030104" d="M556.104,69.572l-97.481,66.592h-34.488v-24.429h-17.608V97.619h-8.405V87.452h-22.469v10.167h-8.403
		v50.438h-5.625v-30.71h-9.047V89.455h-9.726V69.572h-2.579v19.883h-9.725v27.893H321.5v30.71h-12.475v78.983h-3.648v-48.003h1.455
		v-4.336h-12.626V82.762h-38.285v44.765h-20.026v33.966h-27.391v101.805h-8.578v-37.699h-31.542v46.167
		c-26.376,1.826-49.655,16.199-64.961,37.763h-5.626v8.896c-0.987,1.758-1.905,3.566-2.793,5.396
		c-0.339-0.031-0.681-0.065-1.022-0.065c-0.755,0-1.504,0.099-2.24,0.248c-5.948-6.187-13.507-10.507-21.922-12.105l-16.853-26.476
		c-0.48-0.756-1.04-1.418-1.656-1.984c-0.617-0.568-1.293-1.041-2.007-1.418c-0.357-0.19-0.724-0.354-1.098-0.497
		c-1.122-0.425-2.31-0.638-3.496-0.638c-1.188,0-2.377,0.213-3.498,0.638c-0.375,0.142-0.74,0.307-1.098,0.497
		c-0.714,0.377-1.389,0.851-2.006,1.418c-0.617,0.566-1.177,1.229-1.658,1.984l-12.665,19.897L1.147,340.884L0,338.268v493.304
		h1233.504v-762H556.104z M246.301,241.465h-28.865v-2.295h2.69v-10.835h4.555v10.835h4.829v-10.835h4.554v10.835h4.828v-10.835
		h4.555v10.835h2.854V241.465z M246.301,223.707h-28.865v-2.296h2.69v-10.836h4.555v10.836h4.829v-10.836h4.554v10.836h4.828
		v-10.836h4.555v10.836h2.854V223.707z M246.301,205.944h-28.865v-2.292h2.69v-10.836h4.555v10.836h4.829v-10.836h4.554v10.836
		h4.828v-10.836h4.555v10.836h2.854V205.944z M246.301,188.187h-28.865v-2.294h2.69v-10.837h4.555v10.837h4.829v-10.837h4.554
		v10.837h4.828v-10.837h4.555v10.837h2.854V188.187z M273.609,166.53h-8.733v-3.514h8.733V166.53z M273.609,158.046h-8.733v-3.515
		h8.733V158.046z M273.609,149.561h-8.733v-3.515h8.733V149.561z M273.609,141.076h-8.733v-3.516h8.733V141.076z M273.609,132.591
		h-8.733v-3.514h8.733V132.591z M273.609,124.106h-8.733v-3.515h8.733V124.106z M273.609,115.623h-8.733v-3.515h8.733V115.623z
		 M273.609,107.139h-8.733v-3.515h8.733V107.139z M273.609,98.651h-8.733v-3.513h8.733V98.651z M286.081,166.53h-8.735v-3.514h8.735
		V166.53z M286.081,158.046h-8.735v-3.515h8.735V158.046z M286.081,149.561h-8.735v-3.515h8.735V149.561z M286.081,141.076h-8.735
		v-3.516h8.735V141.076z M286.081,132.591h-8.735v-3.514h8.735V132.591z M286.081,124.106h-8.735v-3.515h8.735V124.106z
		 M286.081,115.623h-8.735v-3.515h8.735V115.623z M286.081,107.139h-8.735v-3.515h8.735V107.139z M286.081,98.651h-8.735v-3.513
		h8.735V98.651z M334.27,144.037h-0.663h-6.336h-0.663v-1.313h0.663v-3.745h6.336v3.745h0.663V144.037z M334.27,136.916h-0.663
		h-6.336h-0.663v-1.217h0.663v-3.842h6.336v3.842h0.663V136.916z M334.27,130.079h-0.663h-6.336h-0.663v-1.313h0.663v-3.746h6.336
		v3.746h0.663V130.079z M345.148,144.037h-0.663h-6.337h-0.662v-1.313h0.662v-3.745h6.337v3.745h0.663V144.037z M345.148,136.916
		h-0.663h-6.337h-0.662v-1.217h0.662v-3.842h6.337v3.842h0.663V136.916z M345.148,130.079h-0.663h-6.337h-0.662v-1.313h0.662v-3.746
		h6.337v3.746h0.663V130.079z M355.851,144.037h-0.662h-6.335h-0.663v-1.313h0.663v-3.745h6.335v3.745h0.662V144.037z
		 M355.851,136.916h-0.662h-6.335h-0.663v-1.217h0.663v-3.842h6.335v3.842h0.662V136.916z M355.851,130.079h-0.662h-6.335h-0.663
		v-1.313h0.663v-3.746h6.335v3.746h0.662V130.079z"/>
</g>
<g>
</g>
<g>
</g>
<g>
</g>
<g>
</g>
<g>
</g>
<g>
</g>
</svg>
