<?xml version="1.0" encoding="utf-8"?>
<!-- Generator: Adobe Illustrator 16.0.0, SVG Export Plug-In . SVG Version: 6.00 Build 0)  -->
<!DOCTYPE svg PUBLIC "-//W3C//DTD SVG 1.1//EN" "http://www.w3.org/Graphics/SVG/1.1/DTD/svg11.dtd">
<svg version="1.1" id="Capa_1" xmlns="http://www.w3.org/2000/svg" xmlns:xlink="http://www.w3.org/1999/xlink" x="0px" y="0px"
	 width="1226.504px" height="775.441px" viewBox="0 0 1226.504 775.441" enable-background="new 0 0 1226.504 775.441"
	 xml:space="preserve">
<g opacity="0.15">
	<polygon fill="#030104" points="465.779,684.916 464.078,709.13 477.374,711.875 477.374,691.359 471.653,691.359 471.653,684.916 
			"/>
	<polygon fill="#030104" points="461.949,739.414 477.374,742.326 477.374,713.873 463.939,711.093 	"/>
	<polygon fill="#030104" points="459.788,770.148 460.18,770.628 460.18,769.81 460.861,770.455 460.575,766.486 461.615,767.923 
		462.154,765.298 462.691,767.923 463.732,766.486 463.444,770.455 464.127,769.81 464.127,770.628 465.561,768.869 
		465.238,772.642 464.521,774.832 466.638,773.675 466.316,775.134 467.212,774.576 467.212,775.382 469.499,774.679 
		469.145,774.117 469.611,774.117 469.145,772.357 469.611,772.615 471.27,774.134 472.453,773.771 472.588,772.958 
		471.332,770.896 471.119,769.478 473.558,771.367 474.599,771.753 471.941,768.363 471.119,764.626 473.27,766.3 472.409,763.468 
		474.525,765.269 474.313,763.685 475.458,765.015 473.592,761.496 473.592,759.65 474.491,760.207 474.166,758.748 
		476.283,759.906 475.565,757.714 475.243,753.939 476.678,755.697 476.678,754.882 477.36,755.527 477.072,751.556 477.374,751.97 
		477.374,744.408 461.802,741.47 	"/>
	<polygon fill="#030104" points="456.034,778.818 456.037,778.816 456.034,778.808 	"/>
	<polygon fill="#030104" points="459.47,774.662 459.785,774.832 459.516,774.011 	"/>
	<polygon fill="#030104" points="456.092,778.554 456.113,778.568 456.124,778.414 	"/>
	<rect x="480.125" y="657.267" fill="#030104" width="6.378" height="5.287"/>
	<polygon fill="#030104" points="497.115,766.189 495.398,741.74 480.445,744.283 480.445,755.052 480.625,754.882 480.625,755.697 
		482.061,753.939 481.738,757.714 481.02,759.906 483.137,758.748 482.813,760.207 483.711,759.65 483.711,761.496 481.846,765.015 
		482.992,763.685 482.779,765.269 484.895,763.468 484.033,766.3 486.188,764.626 485.361,768.363 483.879,770.259 486.036,769.597 
		486.188,769.478 486.174,769.552 	"/>
	<path fill="#030104" d="M1150.823-463.035c-3.558-2.393-7.503-3.564-11.292-3.581c-3.748-13.097-16.186-20.223-26.273-14.952
		c-11.699,6.106-14.87,23.883-11.896,36.382c0,0,0,0.006,0.002,0.006c-3.511,2.099-6.636,5.775-8.949,11.26
		c-1.019,2.421-1.582,4.995-1.759,7.599c-0.021,0.293-0.038,0.588-0.048,0.879c-0.009,0.207-0.009,0.412-0.011,0.617
		c-0.004,0.175-0.005,0.354-0.004,0.525c0,0.207,0.006,0.412,0.015,0.621c0.002,0.173,0.01,0.348,0.021,0.522
		c0.007,0.205,0.021,0.412,0.033,0.616c0.014,0.177,0.027,0.353,0.046,0.53c0.019,0.198,0.036,0.403,0.058,0.604
		c0.023,0.209,0.053,0.418,0.08,0.625c0.045,0.323,0.091,0.648,0.148,0.971c0.031,0.184,0.059,0.363,0.092,0.549
		c0.039,0.19,0.081,0.385,0.119,0.581c0.038,0.179,0.076,0.355,0.117,0.534c0.043,0.188,0.089,0.38,0.135,0.568
		c0.047,0.184,0.096,0.365,0.143,0.545c0.051,0.185,0.1,0.361,0.148,0.541c0.065,0.221,0.134,0.438,0.203,0.659
		c0.076,0.247,0.158,0.493,0.244,0.737c0.077,0.22,0.15,0.437,0.232,0.65c0.059,0.164,0.122,0.32,0.188,0.479
		c0.074,0.188,0.147,0.376,0.225,0.562c0.07,0.158,0.135,0.318,0.206,0.473c0.082,0.19,0.169,0.377,0.253,0.563
		c0.07,0.146,0.137,0.291,0.208,0.438c0.108,0.223,0.222,0.439,0.335,0.66c0.055,0.104,0.104,0.206,0.159,0.305
		c0.165,0.307,0.336,0.605,0.511,0.899c0.068,0.119,0.141,0.229,0.209,0.337c0.118,0.2,0.238,0.391,0.362,0.578
		c0.076,0.121,0.157,0.238,0.237,0.355c0.124,0.184,0.248,0.365,0.377,0.54c0.076,0.108,0.156,0.218,0.234,0.328
		c0.149,0.198,0.303,0.396,0.459,0.587c0.063,0.076,0.119,0.154,0.181,0.228c0.217,0.263,0.437,0.521,0.663,0.771
		c0.057,0.063,0.119,0.125,0.182,0.189c0.168,0.187,0.341,0.366,0.517,0.541c0.084,0.082,0.169,0.163,0.253,0.247
		c0.162,0.151,0.324,0.303,0.485,0.448c0.09,0.078,0.176,0.156,0.265,0.232c0.18,0.154,0.361,0.303,0.543,0.449
		c0.073,0.054,0.146,0.115,0.218,0.171c0.258,0.194,0.519,0.384,0.78,0.562c0.045,0.027,0.087,0.053,0.125,0.08
		c0.227,0.148,0.453,0.291,0.683,0.424c0.089,0.05,0.18,0.1,0.27,0.148c0.187,0.104,0.376,0.203,0.567,0.301
		c0.101,0.049,0.197,0.096,0.294,0.141c0.195,0.09,0.396,0.18,0.594,0.26c0.088,0.039,0.179,0.074,0.269,0.105
		c0.285,0.113,0.576,0.214,0.869,0.304c7.293,2.188,13.563-2.491,17.337-9.189c0.149,0.428,0.271,0.809,0.36,1.128l-25.804,47.4
		l-44.084-37.362l-52.129,58.377c-0.076-0.818-0.193-1.641-0.359-2.447c-1.854-8.975-7.974-13.154-13.527-13.18
		c-2.234-7.809-9.648-12.053-15.661-8.913c-6.888,3.594-8.809,13.96-7.15,21.392c-3.055-5.799-9.257-8.574-14.431-5.873
		c-6.975,3.641-8.866,14.236-7.092,21.688v0.004c-2.094,1.251-3.958,3.444-5.335,6.708c-0.607,1.444-0.942,2.979-1.05,4.533
		c-0.012,0.171-0.021,0.349-0.027,0.52c-0.003,0.123-0.003,0.249-0.007,0.37c0,0.106-0.004,0.208,0,0.315
		c0,0.123,0.004,0.246,0.007,0.369c0.002,0.103,0.006,0.207,0.013,0.311c0.005,0.124,0.011,0.245,0.021,0.368
		c0.009,0.104,0.017,0.207,0.025,0.312c0.013,0.123,0.021,0.242,0.035,0.365s0.031,0.248,0.047,0.371
		c0.027,0.195,0.056,0.387,0.09,0.579c0.018,0.112,0.034,0.22,0.058,0.323c0.021,0.119,0.046,0.234,0.067,0.352
		c0.022,0.105,0.049,0.209,0.071,0.314c0.022,0.115,0.054,0.23,0.08,0.343c0.023,0.108,0.054,0.218,0.086,0.325
		c0.028,0.107,0.055,0.214,0.089,0.324c0.037,0.129,0.079,0.262,0.12,0.394c0.046,0.146,0.095,0.293,0.146,0.437
		c0.045,0.134,0.092,0.261,0.138,0.391c0.036,0.092,0.073,0.188,0.11,0.286c0.045,0.109,0.092,0.224,0.135,0.332
		c0.042,0.096,0.081,0.189,0.124,0.283c0.049,0.111,0.099,0.225,0.151,0.335c0.039,0.087,0.08,0.173,0.123,0.259
		c0.064,0.134,0.133,0.266,0.201,0.393c0.029,0.064,0.06,0.123,0.091,0.18c0.102,0.184,0.202,0.363,0.308,0.541
		c0.039,0.07,0.08,0.133,0.124,0.204c0.069,0.112,0.144,0.229,0.215,0.341c0.047,0.071,0.094,0.144,0.142,0.213
		c0.074,0.111,0.147,0.213,0.228,0.319c0.044,0.069,0.093,0.132,0.14,0.196c0.089,0.117,0.181,0.236,0.273,0.352
		c0.035,0.045,0.069,0.092,0.107,0.135c0.129,0.154,0.259,0.31,0.396,0.455c0.036,0.043,0.071,0.08,0.104,0.117
		c0.104,0.113,0.207,0.22,0.312,0.322c0.051,0.048,0.101,0.096,0.15,0.143c0.097,0.096,0.192,0.187,0.29,0.272
		c0.051,0.05,0.104,0.097,0.156,0.136c0.104,0.094,0.214,0.184,0.323,0.27c0.045,0.031,0.086,0.066,0.129,0.101
		c0.153,0.116,0.311,0.229,0.466,0.335c0.025,0.016,0.052,0.032,0.075,0.049c0.135,0.088,0.27,0.172,0.405,0.251
		c0.054,0.033,0.106,0.061,0.159,0.087c0.112,0.067,0.227,0.125,0.339,0.18c0.061,0.031,0.117,0.061,0.178,0.086
		c0.115,0.055,0.232,0.105,0.353,0.154c0.052,0.025,0.107,0.049,0.162,0.067c0.169,0.064,0.342,0.126,0.517,0.179
		c4.346,1.302,8.084-1.486,10.334-5.479c0.149,0.424,0.255,0.771,0.295,1.002c0.112,0.645,0.026,8.35-0.118,17.491l-22.45,25.142
		h-1.399v1.566l-13.039,14.604l-3.361,0.11c-0.061-6.956-0.119-13.828-0.119-15.177c1.317,1.1,2.904,1.771,4.749,1.85
		c5.116,0.211,8.792-7.534,7.426-14.16c-1.146-5.547-4.931-8.132-8.361-8.148c-1.38-4.824-5.961-7.447-9.675-5.502
		c-4.311,2.248-5.479,8.793-4.384,13.397v0.003c-1.294,0.771-2.445,2.127-3.295,4.146c-0.376,0.895-0.584,1.842-0.649,2.801
		c-0.007,0.104-0.014,0.213-0.018,0.32c-0.003,0.078-0.003,0.151-0.004,0.229c-0.002,0.064-0.002,0.131-0.002,0.195
		c0,0.074,0.003,0.153,0.006,0.227c0,0.066,0.004,0.131,0.005,0.194c0.006,0.073,0.009,0.148,0.016,0.228
		c0.005,0.064,0.01,0.127,0.018,0.191c0.007,0.078,0.013,0.15,0.021,0.227c0.012,0.076,0.021,0.154,0.029,0.231
		c0.015,0.118,0.032,0.235,0.056,0.353c0.012,0.069,0.021,0.134,0.033,0.205c0.016,0.07,0.03,0.143,0.044,0.213
		c0.016,0.068,0.027,0.131,0.044,0.196c0.017,0.071,0.031,0.14,0.05,0.213c0.016,0.066,0.034,0.132,0.053,0.2
		c0.019,0.064,0.036,0.132,0.056,0.199c0.022,0.078,0.05,0.164,0.075,0.24c0.027,0.096,0.057,0.184,0.089,0.275
		c0.027,0.077,0.059,0.158,0.083,0.238c0.023,0.06,0.049,0.116,0.07,0.177c0.025,0.067,0.055,0.136,0.084,0.207
		c0.023,0.058,0.05,0.114,0.075,0.171c0.03,0.071,0.061,0.141,0.096,0.209c0.021,0.055,0.047,0.108,0.075,0.16
		c0.04,0.084,0.08,0.161,0.123,0.242c0.02,0.039,0.039,0.078,0.059,0.115c0.062,0.113,0.123,0.222,0.188,0.332
		c0.023,0.042,0.05,0.08,0.074,0.123c0.043,0.071,0.09,0.145,0.134,0.211c0.029,0.047,0.061,0.09,0.088,0.132
		c0.046,0.067,0.092,0.134,0.139,0.2c0.031,0.04,0.06,0.08,0.089,0.117c0.055,0.076,0.109,0.148,0.167,0.217
		c0.022,0.029,0.045,0.059,0.068,0.088c0.08,0.094,0.159,0.19,0.244,0.28c0.021,0.024,0.043,0.05,0.063,0.071
		c0.063,0.068,0.126,0.136,0.192,0.198c0.029,0.031,0.063,0.06,0.093,0.092c0.062,0.056,0.118,0.11,0.18,0.165
		c0.031,0.027,0.064,0.059,0.097,0.086c0.064,0.061,0.133,0.114,0.2,0.166c0.025,0.021,0.055,0.042,0.08,0.063
		c0.095,0.072,0.189,0.143,0.288,0.207c0.015,0.009,0.029,0.02,0.044,0.029c0.085,0.055,0.169,0.106,0.252,0.156
		c0.033,0.02,0.066,0.036,0.1,0.055c0.069,0.038,0.139,0.074,0.211,0.111c0.035,0.021,0.072,0.033,0.107,0.052
		c0.072,0.033,0.146,0.063,0.218,0.095c0.032,0.016,0.066,0.027,0.101,0.039c0.104,0.041,0.212,0.079,0.319,0.11
		c2.686,0.806,4.996-0.915,6.385-3.385c0.093,0.263,0.157,0.478,0.183,0.62c0.086,0.484-0.011,7.445-0.138,14.6l-24.84,0.818v-73.27
		v-1.383v-11.477h-6.437v-44.777h-3.373v44.777h-6.436v11.477h-16.248v46.219H842.63v-15.754h-21.29v-4.66h0.234v-3.17h0.775v-4.188
		h-1.011v-2.42c0.689-0.609,1.146-1.66,1.146-2.857c0-1.881-1.121-3.408-2.506-3.408c-1.387,0-2.509,1.527-2.509,3.408
		c0,1.197,0.458,2.248,1.146,2.857v1.532c-2.858-0.737-5.871-3.452-8.22-7.615h0.021c-0.519-0.923-1.018-1.888-1.464-2.944
		c-0.268-0.627-0.502-1.258-0.722-1.896c0.372-0.883,0.592-1.867,0.592-2.91c0-2.807-3.349-6.219-5.083-10.022
		c-0.217-0.472-0.6-0.76-1.007-0.76h-0.021c-0.419,0-0.806,0.294-1.025,0.774c-1.737,3.797-5.079,7.205-5.079,10.008
		c0,0.945,0.181,1.837,0.492,2.662c-0.279,0.848-0.578,1.697-0.934,2.532c-0.384,0.909-0.806,1.748-1.246,2.557h0.013
		c-2.287,4.214-5.25,7.012-8.098,7.897v-1.814c0.688-0.609,1.146-1.66,1.146-2.857c0-1.881-1.124-3.408-2.509-3.408
		c-1.386,0-2.509,1.527-2.509,3.408c0,1.197,0.46,2.248,1.144,2.857v2.42h-1.144v4.188h1.113v3.17h0.029v41.474h-2.652v-14.62
		h-12.947v-58.18l-21.887-14.889h-41.034v12.035H605.146v-59.623h-4.165h-2.604h-3.018h-2.187v-24.782h-31.748v35.403h-1.712h-2.028
		h-2.352h-2.026h-2.81v1.301h-1.139v-55.922h-8.458v-64.468h-2.741v64.468h-5.479v-55.148h-2.741v55.148h-6.279v55.922h-8.906
		v40.977h-19.399v-7.493h-1.564v-61.305h-24.202h-61.48l-8.968,180.347l-3.375,2.299V-294l-13.566-27.061
		c0.691-0.221,1.208-1.061,1.208-2.066c0-1.178-0.702-2.133-1.568-2.133h-0.347v-18.475l-2.089,18.475h-0.176
		c-0.862,0-1.021,4.031-0.302,4.219l-67.648,6.599l-2.455-13.565h2.455l-3.548-10.727h2.184l-4.911-10.359h3.001l-4.909-13.318
		h1.908l-3.819-11.715h2.729l-4.367-10.109h3.002l-5.183-9.985h2.454l-5.729-17.015l-5.729,17.015h2.457l-5.184,9.985h3
		l-4.364,10.109h2.728l-3.818,11.715h1.908l-4.91,13.318h3.002l-4.91,10.359h2.18l-2.588,7.826c-2.809-1.242-5.72-2.365-8.723-3.372
		l-2.095-4.413h1.761l-2.879-7.818h1.118l-2.241-6.871h1.603l-2.563-5.935h1.76l-3.04-5.859H264l-3.361-9.985l-3.362,9.985h1.441
		l-3.042,5.859h1.762l-2.562,5.935h1.599l-2.24,6.871h1.122l-2.882,7.818h1.76l-0.295,0.623
		c-16.355-2.772-35.209-1.974-56.908,4.002c0,0-14.788-120.914-128.727-157.289l-1.374-3.724h1.908l-3.816-11.712h2.728
		l-4.365-10.109h3l-5.183-9.99h2.456l-5.73-17.018L52.2-526.892h2.454l-5.181,9.99h3l-4.366,10.109h2.729l-3.265,10.017
		c-14.994-3.095-31.469-4.813-49.567-4.813V820.507h2.533V709.816l97.708-15.93L204.527,619.5l1.908,2.621
		c1.311-1.834,3.254-3.002,5.429-3.002h4.079c3.944,0,7.142-3.822,7.142-8.545v-9.764c0-4.719,3.196-8.545,7.14-8.545
		c3.944,0,7.137-3.82,7.137-8.539v-2.443c0-4.717,3.199-8.543,7.144-8.543h39.778c4.507,0,8.16,4.371,8.16,9.764
		s3.652,9.764,8.158,9.764h2.041c4.506,0,8.158,4.371,8.158,9.764v7.324c0,5.393,3.655,9.764,8.162,9.764h3.059
		c4.509,0,8.16,4.373,8.16,9.764v46.447c0,18.871,12.786,34.172,28.562,34.172v-32.412c0-9.098,6.164-16.475,13.769-16.475
		c7.605,0,13.771,7.377,13.771,16.475v18.701c0,15.387,10.425,27.857,23.284,27.857c5.167,0,9.354,5.012,9.354,11.195v39.68
		l5.387,3.125l-0.243-2.863l1.339,1.641v-0.76l0.636,0.602l-0.27-3.705l0.973,1.342l0.502-2.445l0.502,2.445l0.969-1.342
		l-0.268,3.705l0.637-0.602v0.76l1.338-1.641l-0.3,3.521l-0.67,2.045l1.974-1.082l-0.3,1.361l0.836-0.52v1.721l-0.103,0.195
		l4.758,2.758l3.11-0.953l-0.072-0.279l0.349,0.189l2.398-0.736l-0.56-0.912l-0.216-1.42l2.377,1.842l0.615-0.188l-2.169-2.77
		l-0.823-3.732l2.151,1.672l-0.861-2.83l2.119,1.799l-0.215-1.586l1.146,1.33l-1.865-3.521v-1.846l0.896,0.559l-0.321-1.461
		l2.115,1.16l-0.718-2.189l-0.322-3.777l1.436,1.76v-0.816l0.683,0.646l-0.287-3.973l1.039,1.438l0.54-2.625l0.536,2.625
		l1.041-1.438l-0.285,3.973l0.679-0.646v0.816l1.438-1.76l-0.322,3.777l-0.718,2.189l2.116-1.16l-0.323,1.461l0.896-0.559v1.846
		l-1.863,3.521l1.146-1.33l-0.217,1.586l2.119-1.799l-0.862,2.83l1.741-1.354l2.477-35.246l-1.098-0.211l0.268-2.031l0.978,0.184
		l1.994-28.373l-1.345-0.279l0.28-1.936l1.202,0.248l1.657-23.584h-0.553v-17.514h-1.25v-3.594h3.629v-6.543h-5.631v-3.676h5.631
		v-5.119h-5.014l11.529-5.98v-21.416h1.229v2.727h5.232v1.977h3.307v6.463h-5.846v-1.973h-2.693v11.586l6.757-3.504l18.649,10.121
		h-5.014v5.119h6.267v3.678h-6.267v6.541h4.264v3.596h-1.249v17.512h-1.188l1.684,23.939l3.249-0.607l0.253,1.945l-3.365,0.629
		l1.992,28.348l3.025-0.514l0.244,2.037l-3.125,0.529l1.69,24.041l60.365-18.561c0,0,106.076-92.621,109.137-93.844
		c3.061-1.221,89.138-36.615,89.138-36.615l23.128,12.818c3.645-2.445,7.848-3.848,12.325-3.848v-64.146
		c0-10.42,7.06-18.869,15.768-18.869c8.709,0,15.77,8.449,15.77,18.869v47.586c0,4.693,3.18,8.494,7.099,8.494
		c3.918,0,7.095-3.801,7.095-8.494v-85.795c0-2.346,1.59-4.244,3.55-4.244c1.958,0,3.548-1.902,3.548-4.246v-36.795
		c0-2.344,1.586-4.246,3.548-4.246c6.313,0,11.434-6.123,11.434-13.68v-15.092c0-2.348,1.586-4.248,3.547-4.248h15.375
		c15.24,0,27.595,14.785,27.595,33.02c6.532,0,11.826,6.336,11.826,14.154v107.861c0,8.857,6.001,16.041,13.405,16.041v-11.637
		c0-10.086,6.829-18.258,15.255-18.258c5.508,0,9.972-5.34,9.972-11.936c0-15.107,10.239-27.355,22.866-27.355h8.673
		c16.548,0,29.961,16.051,29.961,35.85v91.328l0.665-0.631v2.215l3.894-4.775l-0.877,10.246l-1.945,5.939l5.742-3.146l-0.876,3.959
		l2.433-1.514v5.008l-5.061,9.547l3.115-3.609l-0.586,4.311l5.741-4.891l-2.335,7.686l5.838-4.543l-2.236,10.131l-4.567,5.836
		l1.913,0.98l4.892-3.787l-0.583,3.842l-0.999,1.645l5.774,2.959l1.16-0.643l-0.287,1.088l183.182,93.887V-598.367L1150.823-463.035
		z M958.286-294.861c-0.058-6.724-0.101-12.089-0.104-13.531c2.133,1.779,4.7,2.873,7.688,2.992
		c0.676,0.027,1.336-0.037,1.979-0.174L958.286-294.861z M979.796-318.953c-0.018-2.447-0.028-4.219-0.03-4.962
		c0.873,0.731,1.824,1.337,2.843,1.815L979.796-318.953z"/>
	<polygon fill="#030104" points="480.445,713.777 480.445,742.207 495.254,739.689 493.264,711.384 	"/>
	<polygon fill="#030104" points="480.91,684.916 480.91,691.359 480.445,691.359 480.445,711.785 493.126,709.419 491.403,684.916 	
		"/>
</g>
<line fill="none" x1="415.297" y1="1483.509" x2="401.14" y2="1481.701"/>
<g opacity="0.15">
	<polygon fill="#030104" points="1897.779,1135.998 1896.078,1160.21 1909.374,1162.957 1909.374,1142.439 1903.653,1142.439 
		1903.653,1135.998 	"/>
	<polygon fill="#030104" points="1893.949,1190.496 1909.374,1193.406 1909.374,1164.955 1895.939,1162.173 	"/>
	<polygon fill="#030104" points="1891.788,1221.228 1892.18,1221.708 1892.18,1220.892 1892.861,1221.537 1892.575,1217.566 
		1893.615,1219.003 1894.154,1216.38 1894.691,1219.003 1895.732,1217.566 1895.444,1221.537 1896.127,1220.892 1896.127,1221.708 
		1897.561,1219.949 1897.238,1223.724 1896.521,1225.914 1898.638,1224.755 1898.316,1226.214 1899.212,1225.656 1899.212,1226.462 
		1901.499,1225.759 1901.145,1225.199 1901.611,1225.199 1901.145,1223.437 1901.611,1223.695 1903.27,1225.214 1904.453,1224.851 
		1904.588,1224.041 1903.332,1221.976 1903.119,1220.558 1905.558,1222.449 1906.599,1222.833 1903.941,1219.443 1903.119,1215.708 
		1905.27,1217.382 1904.409,1214.55 1906.525,1216.349 1906.313,1214.765 1907.458,1216.095 1905.592,1212.576 1905.592,1210.73 
		1906.491,1211.287 1906.166,1209.828 1908.283,1210.988 1907.564,1208.794 1907.243,1205.019 1908.678,1206.779 1908.678,1205.962 
		1909.36,1206.607 1909.072,1202.636 1909.374,1203.05 1909.374,1195.488 1893.802,1192.55 	"/>
	<polygon fill="#030104" points="1888.034,1229.9 1888.037,1229.896 1888.034,1229.888 	"/>
	<polygon fill="#030104" points="1891.47,1225.742 1891.785,1225.914 1891.516,1225.091 	"/>
	<polygon fill="#030104" points="1888.092,1229.634 1888.113,1229.65 1888.124,1229.494 	"/>
	<rect x="1912.125" y="1108.347" fill="#030104" width="6.378" height="5.287"/>
	<polygon fill="#030104" points="1929.115,1217.269 1927.398,1192.822 1912.445,1195.365 1912.445,1206.132 1912.625,1205.962 
		1912.625,1206.779 1914.061,1205.019 1913.738,1208.794 1913.02,1210.988 1915.137,1209.828 1914.813,1211.287 1915.711,1210.73 
		1915.711,1212.576 1913.846,1216.095 1914.992,1214.765 1914.779,1216.349 1916.895,1214.55 1916.033,1217.382 1918.188,1215.708 
		1917.361,1219.443 1915.879,1221.339 1918.036,1220.677 1918.188,1220.558 1918.174,1220.632 	"/>
	<path fill="#030104" d="M2582.823-11.954c-3.558-2.393-7.503-3.564-11.292-3.581c-3.748-13.097-16.186-20.223-26.273-14.952
		c-11.699,6.106-14.87,23.883-11.896,36.382c0,0,0,0.006,0.002,0.006c-3.511,2.099-6.636,5.776-8.949,11.26
		c-1.019,2.421-1.582,4.995-1.759,7.599c-0.021,0.293-0.038,0.588-0.049,0.879c-0.008,0.207-0.008,0.412-0.01,0.617
		c-0.004,0.175-0.005,0.353-0.004,0.525c0,0.207,0.006,0.412,0.014,0.621c0.002,0.173,0.011,0.348,0.021,0.523
		c0.007,0.205,0.02,0.412,0.033,0.616c0.014,0.177,0.027,0.353,0.046,0.53c0.019,0.198,0.036,0.403,0.058,0.605
		c0.023,0.209,0.053,0.418,0.08,0.625c0.045,0.323,0.092,0.648,0.148,0.971c0.031,0.184,0.059,0.363,0.092,0.549
		c0.039,0.19,0.081,0.385,0.119,0.581c0.038,0.179,0.076,0.356,0.117,0.534c0.043,0.188,0.089,0.38,0.135,0.568
		c0.047,0.184,0.096,0.365,0.143,0.545c0.051,0.184,0.1,0.361,0.148,0.541c0.065,0.221,0.134,0.438,0.203,0.659
		c0.076,0.247,0.158,0.493,0.244,0.737c0.077,0.22,0.15,0.437,0.232,0.65c0.059,0.164,0.122,0.32,0.188,0.479
		c0.074,0.188,0.147,0.376,0.225,0.562c0.07,0.158,0.135,0.318,0.206,0.473c0.082,0.191,0.169,0.377,0.253,0.563
		c0.07,0.146,0.137,0.291,0.208,0.438c0.108,0.223,0.222,0.44,0.335,0.66c0.055,0.104,0.104,0.206,0.159,0.305
		c0.165,0.307,0.336,0.605,0.511,0.899c0.068,0.119,0.14,0.229,0.209,0.337c0.118,0.2,0.238,0.391,0.362,0.578
		c0.075,0.121,0.157,0.238,0.237,0.355c0.123,0.184,0.248,0.365,0.377,0.54c0.075,0.108,0.155,0.218,0.234,0.328
		c0.149,0.198,0.303,0.396,0.459,0.587c0.063,0.076,0.119,0.154,0.18,0.228c0.218,0.263,0.438,0.521,0.664,0.771
		c0.057,0.063,0.119,0.125,0.182,0.188c0.168,0.188,0.341,0.366,0.517,0.541c0.084,0.082,0.169,0.163,0.253,0.247
		c0.162,0.151,0.324,0.303,0.485,0.448c0.09,0.078,0.176,0.156,0.264,0.232c0.181,0.154,0.362,0.303,0.544,0.449
		c0.073,0.054,0.146,0.115,0.217,0.171c0.259,0.194,0.52,0.384,0.78,0.562c0.045,0.027,0.087,0.053,0.125,0.08
		c0.228,0.148,0.454,0.291,0.684,0.424c0.089,0.05,0.18,0.1,0.27,0.148c0.187,0.104,0.376,0.203,0.567,0.301
		c0.101,0.049,0.197,0.096,0.294,0.141c0.194,0.09,0.395,0.18,0.594,0.26c0.088,0.039,0.178,0.074,0.269,0.105
		c0.284,0.113,0.576,0.214,0.869,0.304c7.293,2.188,13.563-2.491,17.336-9.19c0.15,0.428,0.272,0.809,0.361,1.128l-25.804,47.4
		l-44.084-37.362l-52.129,58.377c-0.076-0.818-0.193-1.64-0.358-2.447c-1.854-8.975-7.975-13.154-13.528-13.18
		c-2.234-7.809-9.648-12.053-15.661-8.913c-6.887,3.594-8.809,13.96-7.15,21.392c-3.055-5.799-9.257-8.574-14.431-5.873
		c-6.974,3.641-8.866,14.236-7.092,21.687v0.004c-2.093,1.251-3.958,3.444-5.335,6.708c-0.607,1.444-0.941,2.979-1.049,4.533
		c-0.012,0.171-0.022,0.349-0.028,0.52c-0.003,0.123-0.003,0.249-0.006,0.37c-0.001,0.106-0.004,0.208-0.001,0.315
		c0,0.123,0.004,0.246,0.007,0.369c0.002,0.103,0.006,0.207,0.013,0.311c0.005,0.124,0.012,0.245,0.021,0.368
		c0.009,0.104,0.017,0.207,0.025,0.312c0.014,0.123,0.021,0.242,0.035,0.365s0.031,0.248,0.047,0.371
		c0.027,0.195,0.057,0.387,0.09,0.579c0.018,0.112,0.034,0.22,0.058,0.323c0.021,0.119,0.046,0.234,0.067,0.352
		c0.022,0.105,0.05,0.209,0.071,0.314c0.023,0.115,0.054,0.23,0.08,0.343c0.024,0.108,0.054,0.218,0.086,0.325
		c0.028,0.107,0.056,0.214,0.089,0.324c0.037,0.129,0.08,0.262,0.121,0.393c0.045,0.146,0.095,0.293,0.146,0.437
		c0.045,0.134,0.091,0.261,0.137,0.391c0.036,0.092,0.074,0.188,0.111,0.286c0.045,0.109,0.091,0.224,0.134,0.332
		c0.042,0.096,0.081,0.189,0.124,0.283c0.05,0.111,0.1,0.225,0.152,0.335c0.039,0.087,0.08,0.173,0.123,0.259
		c0.063,0.134,0.133,0.266,0.201,0.393c0.028,0.064,0.06,0.123,0.091,0.18c0.102,0.184,0.202,0.363,0.307,0.541
		c0.04,0.07,0.081,0.133,0.124,0.204c0.07,0.112,0.145,0.229,0.216,0.341c0.047,0.071,0.094,0.143,0.142,0.213
		c0.074,0.111,0.147,0.213,0.228,0.319c0.043,0.069,0.093,0.132,0.14,0.196c0.089,0.117,0.181,0.236,0.272,0.352
		c0.036,0.045,0.07,0.092,0.108,0.135c0.129,0.154,0.259,0.31,0.395,0.455c0.036,0.043,0.072,0.08,0.105,0.117
		c0.104,0.113,0.207,0.22,0.311,0.322c0.052,0.048,0.102,0.096,0.151,0.143c0.096,0.096,0.191,0.187,0.29,0.272
		c0.051,0.05,0.103,0.097,0.155,0.136c0.105,0.094,0.215,0.184,0.323,0.27c0.045,0.031,0.086,0.066,0.129,0.101
		c0.154,0.116,0.312,0.229,0.466,0.335c0.025,0.016,0.053,0.032,0.075,0.049c0.136,0.088,0.271,0.172,0.405,0.251
		c0.054,0.033,0.107,0.06,0.16,0.087c0.111,0.067,0.226,0.125,0.339,0.18c0.06,0.031,0.117,0.061,0.177,0.086
		c0.116,0.055,0.233,0.106,0.354,0.154c0.052,0.025,0.106,0.049,0.162,0.067c0.169,0.064,0.342,0.126,0.517,0.179
		c4.345,1.302,8.083-1.486,10.333-5.479c0.15,0.424,0.255,0.772,0.295,1.002c0.113,0.645,0.027,8.35-0.117,17.491l-22.45,25.142
		h-1.399v1.566l-13.039,14.604l-3.361,0.11c-0.061-6.956-0.119-13.828-0.119-15.177c1.318,1.1,2.904,1.771,4.749,1.85
		c5.116,0.211,8.792-7.534,7.426-14.16c-1.146-5.547-4.931-8.132-8.361-8.148c-1.38-4.824-5.961-7.447-9.675-5.502
		c-4.311,2.248-5.48,8.793-4.384,13.397v0.003c-1.294,0.771-2.445,2.127-3.295,4.146c-0.376,0.895-0.584,1.842-0.649,2.801
		c-0.007,0.104-0.014,0.213-0.018,0.32c-0.003,0.078-0.003,0.151-0.004,0.229c-0.002,0.064-0.002,0.131-0.002,0.195
		c0,0.074,0.003,0.153,0.006,0.227c0,0.066,0.004,0.131,0.005,0.194c0.006,0.073,0.009,0.149,0.017,0.228
		c0.004,0.064,0.009,0.127,0.017,0.191c0.007,0.078,0.013,0.15,0.021,0.227c0.012,0.076,0.021,0.154,0.029,0.231
		c0.016,0.118,0.032,0.235,0.057,0.353c0.011,0.069,0.021,0.134,0.032,0.205c0.015,0.07,0.03,0.143,0.044,0.213
		c0.016,0.068,0.027,0.131,0.044,0.196c0.017,0.071,0.031,0.14,0.05,0.213c0.016,0.066,0.034,0.132,0.053,0.2
		c0.019,0.064,0.035,0.132,0.056,0.199c0.022,0.078,0.05,0.164,0.075,0.24c0.027,0.096,0.057,0.184,0.089,0.275
		c0.027,0.077,0.058,0.158,0.083,0.238c0.023,0.06,0.049,0.116,0.07,0.177c0.025,0.067,0.055,0.136,0.084,0.207
		c0.023,0.058,0.05,0.114,0.074,0.171c0.031,0.071,0.062,0.141,0.097,0.209c0.021,0.055,0.047,0.108,0.075,0.16
		c0.039,0.084,0.08,0.161,0.123,0.242c0.02,0.039,0.039,0.078,0.059,0.115c0.061,0.113,0.123,0.222,0.188,0.332
		c0.024,0.042,0.051,0.08,0.075,0.123c0.043,0.071,0.089,0.145,0.134,0.211c0.029,0.047,0.061,0.09,0.088,0.132
		c0.045,0.067,0.092,0.134,0.139,0.2c0.031,0.04,0.059,0.08,0.089,0.117c0.054,0.076,0.108,0.148,0.167,0.217
		c0.021,0.029,0.045,0.059,0.068,0.088c0.08,0.094,0.158,0.19,0.244,0.28c0.021,0.024,0.043,0.05,0.063,0.071
		c0.063,0.068,0.126,0.136,0.192,0.198c0.028,0.031,0.063,0.06,0.093,0.092c0.061,0.056,0.118,0.11,0.18,0.165
		c0.031,0.027,0.063,0.059,0.096,0.086c0.065,0.061,0.134,0.114,0.2,0.166c0.025,0.021,0.055,0.042,0.081,0.063
		c0.094,0.072,0.188,0.143,0.288,0.207c0.014,0.009,0.029,0.02,0.043,0.029c0.085,0.055,0.169,0.106,0.252,0.156
		c0.034,0.02,0.066,0.036,0.1,0.055c0.069,0.038,0.14,0.074,0.211,0.111c0.035,0.021,0.072,0.033,0.107,0.052
		c0.073,0.033,0.146,0.063,0.218,0.095c0.032,0.016,0.067,0.027,0.102,0.039c0.104,0.041,0.212,0.079,0.319,0.11
		c2.686,0.806,4.996-0.915,6.385-3.385c0.093,0.263,0.156,0.478,0.182,0.62c0.086,0.484-0.01,7.445-0.137,14.6l-24.84,0.818v-73.27
		v-1.383V117.48h-6.438V72.703h-3.373v44.777h-6.436v11.477h-16.248v46.219h-10.654v-15.754h-21.284v-4.66h0.233v-3.17h0.776v-4.188
		h-1.011v-2.42c0.688-0.609,1.145-1.66,1.145-2.857c0-1.881-1.121-3.408-2.506-3.408c-1.386,0-2.508,1.527-2.508,3.408
		c0,1.197,0.458,2.248,1.146,2.857v1.532c-2.857-0.737-5.871-3.452-8.22-7.615h0.021c-0.52-0.923-1.019-1.888-1.465-2.944
		c-0.268-0.627-0.502-1.258-0.722-1.896c0.372-0.883,0.592-1.867,0.592-2.91c0-2.807-3.349-6.219-5.083-10.022
		c-0.217-0.472-0.599-0.76-1.007-0.76h-0.021c-0.42,0-0.807,0.294-1.026,0.774c-1.737,3.797-5.079,7.205-5.079,10.008
		c0,0.945,0.181,1.837,0.492,2.662c-0.279,0.848-0.578,1.697-0.934,2.532c-0.384,0.909-0.806,1.748-1.246,2.557h0.012
		c-2.287,4.214-5.25,7.012-8.097,7.897v-1.814c0.688-0.609,1.146-1.66,1.146-2.857c0-1.881-1.124-3.408-2.51-3.408
		c-1.385,0-2.508,1.527-2.508,3.408c0,1.197,0.46,2.248,1.144,2.857v2.42h-1.144v4.188h1.113v3.17h0.029v41.474h-2.652v-14.62
		h-12.947v-58.18l-21.887-14.889h-41.034v12.035h-100.438V60.958h-4.165h-2.604h-3.018h-2.187V36.176h-31.748V71.58h-1.712h-2.027
		h-2.353h-2.026h-2.81v1.301h-1.139V16.958h-8.458V-47.51h-2.741v64.468h-5.479V-38.19h-2.741v55.148h-6.279V72.88h-8.906v40.977
		h-19.399v-7.493h-1.564V45.059h-24.202h-61.48l-8.968,180.347l-3.375,2.299v-70.623l-13.566-27.061
		c0.691-0.221,1.208-1.061,1.208-2.066c0-1.178-0.702-2.133-1.568-2.133h-0.347v-18.475l-2.089,18.475h-0.177
		c-0.861,0-1.021,4.031-0.301,4.219l-67.648,6.599l-2.455-13.565h2.455l-3.549-10.727h2.185l-4.911-10.359h3.001l-4.909-13.318
		h1.908l-3.819-11.715h2.729l-4.367-10.109h3.002l-5.184-9.985h2.454l-5.729-17.015l-5.729,17.015h2.457l-5.184,9.985h3
		l-4.364,10.109h2.729l-3.818,11.715h1.908l-4.91,13.318h3.002l-4.91,10.359h2.181l-2.589,7.826
		c-2.809-1.242-5.72-2.365-8.723-3.372l-2.095-4.413h1.761l-2.879-7.818h1.118l-2.241-6.871h1.603l-2.563-5.935h1.76l-3.04-5.859
		h1.439l-3.361-9.985l-3.362,9.985h1.441l-3.042,5.859h1.762l-2.562,5.935h1.599l-2.24,6.871h1.122l-2.882,7.818h1.76l-0.295,0.623
		c-16.354-2.773-35.209-1.974-56.907,4.002c0,0-14.788-120.914-128.728-157.289L1498.929-44h1.908l-3.816-11.712h2.729
		l-4.365-10.109h3l-5.183-9.99h2.456l-5.73-17.018l-5.729,17.018h2.454l-5.183,9.99h3l-4.366,10.109h2.729l-3.266,10.017
		c-14.993-3.095-31.47-4.813-49.566-4.813v1322.097h2.533v-110.693l97.708-15.928l106.286-74.387l1.907,2.619
		c1.312-1.832,3.254-3.002,5.43-3.002h4.078c3.944,0,7.143-3.822,7.143-8.543v-9.766c0-4.717,3.196-8.543,7.14-8.543
		c3.944,0,7.138-3.822,7.138-8.541v-2.441c0-4.717,3.198-8.543,7.144-8.543h39.778c4.507,0,8.16,4.371,8.16,9.762
		c0,5.395,3.651,9.764,8.157,9.764h2.041c4.506,0,8.158,4.373,8.158,9.766v7.324c0,5.393,3.655,9.764,8.162,9.764h3.059
		c4.509,0,8.16,4.371,8.16,9.764v46.447c0,18.871,12.786,34.17,28.562,34.17v-32.408c0-9.098,6.164-16.477,13.769-16.477
		c7.605,0,13.771,7.379,13.771,16.477v18.699c0,15.387,10.425,27.859,23.283,27.859c5.168,0,9.355,5.012,9.355,11.193v39.682
		l5.387,3.125l-0.244-2.863l1.34,1.639v-0.758l0.636,0.602l-0.27-3.707l0.973,1.344l0.502-2.447l0.502,2.447l0.969-1.344
		l-0.269,3.707l0.638-0.602v0.758l1.338-1.639l-0.3,3.521l-0.67,2.045l1.974-1.082l-0.3,1.361l0.836-0.52v1.721l-0.104,0.193
		l4.758,2.76l3.111-0.955l-0.073-0.277l0.35,0.189l2.397-0.736l-0.559-0.912l-0.216-1.422l2.377,1.844l0.614-0.188l-2.168-2.77
		l-0.823-3.734l2.15,1.672l-0.86-2.83l2.119,1.801l-0.215-1.586l1.146,1.328l-1.865-3.52v-1.846l0.896,0.559l-0.321-1.461
		l2.115,1.158l-0.719-2.189l-0.321-3.777l1.436,1.762v-0.816l0.683,0.645l-0.287-3.971l1.039,1.438l0.54-2.625l0.536,2.625
		l1.041-1.438l-0.285,3.971l0.679-0.645v0.816l1.437-1.762l-0.321,3.777l-0.719,2.189l2.116-1.158l-0.323,1.461l0.897-0.559v1.846
		l-1.864,3.52l1.147-1.328l-0.218,1.586l2.119-1.801l-0.862,2.83l1.741-1.352l2.478-35.248l-1.099-0.209l0.269-2.031l0.977,0.182
		l1.994-28.373l-1.344-0.277l0.28-1.936l1.202,0.246l1.656-23.584h-0.552v-17.514h-1.25v-3.594h3.628v-6.541h-5.63v-3.678h5.63
		v-5.119h-5.013l11.529-5.979v-21.416h1.229v2.727h5.232v1.975h3.307v6.465h-5.846v-1.973h-2.693v11.584l6.756-3.502l18.65,10.121
		h-5.014v5.119h6.267v3.676h-6.267v6.543h4.264v3.594h-1.249V1136h-1.188l1.684,23.938l3.249-0.607l0.253,1.945l-3.365,0.629
		l1.992,28.35l3.025-0.516l0.244,2.037l-3.125,0.529l1.69,24.041l60.365-18.561c0,0,106.076-92.619,109.137-93.844
		c3.061-1.219,89.138-36.613,89.138-36.613l23.127,12.816c3.646-2.445,7.849-3.848,12.326-3.848v-64.146
		c0-10.42,7.06-18.869,15.768-18.869c8.709,0,15.77,8.449,15.77,18.869v47.586c0,4.693,3.18,8.494,7.098,8.494
		s7.096-3.801,7.096-8.494v-85.795c0-2.346,1.59-4.244,3.55-4.244c1.958,0,3.548-1.902,3.548-4.246v-36.795
		c0-2.344,1.586-4.246,3.549-4.246c6.313,0,11.433-6.123,11.433-13.682v-15.09c0-2.348,1.586-4.248,3.547-4.248h15.375
		c15.24,0,27.595,14.785,27.595,33.02c6.532,0,11.826,6.336,11.826,14.154v107.861c0,8.857,6.001,16.041,13.405,16.041v-11.637
		c0-10.086,6.829-18.258,15.255-18.258c5.508,0,9.972-5.34,9.972-11.936c0-15.107,10.239-27.355,22.866-27.355h8.673
		c16.548,0,29.961,16.051,29.961,35.85v91.328l0.665-0.631v2.215l3.894-4.775l-0.876,10.246l-1.946,5.939l5.742-3.146l-0.876,3.959
		l2.433-1.514v5.008l-5.061,9.547l3.116-3.609l-0.586,4.311l5.74-4.891l-2.335,7.686l5.838-4.543l-2.235,10.131l-4.568,5.838
		l1.913,0.979l4.892-3.787l-0.583,3.842l-0.999,1.645l5.774,2.959l1.159-0.643l-0.287,1.088l183.183,93.887V-147.286
		L2582.823-11.954z M2390.286,156.22c-0.059-6.724-0.101-12.089-0.104-13.531c2.132,1.779,4.7,2.873,7.688,2.992
		c0.676,0.027,1.336-0.037,1.979-0.174L2390.286,156.22z M2411.796,132.128c-0.019-2.447-0.028-4.219-0.03-4.962
		c0.873,0.731,1.824,1.337,2.842,1.815L2411.796,132.128z"/>
	<polygon fill="#030104" points="1912.445,1164.859 1912.445,1193.287 1927.254,1190.769 1925.264,1162.466 	"/>
	<polygon fill="#030104" points="1912.91,1135.998 1912.91,1142.439 1912.445,1142.439 1912.445,1162.865 1925.126,1160.501 
		1923.403,1135.998 	"/>
</g>
</svg>
