<?xml version="1.0" encoding="utf-8"?>
<!-- Generator: Adobe Illustrator 13.0.0, SVG Export Plug-In . SVG Version: 6.00 Build 14948)  -->
<svg version="1.2" baseProfile="tiny" id="Capa_1" xmlns="http://www.w3.org/2000/svg" xmlns:xlink="http://www.w3.org/1999/xlink"
	 x="0px" y="0px" width="48.1px" height="48.1px" viewBox="0 0 48.1 48.1" xml:space="preserve">
<g>
	<path fill="#FFFFFF" d="M0,24.1C0,10.8,10.8,0,24.1,0l0,0c13.3,0,24.1,10.8,24.1,24.1l0,0c0,13.3-10.8,24.1-24.1,24.1l0,0
		C10.8,48.1,0,37.4,0,24.1L0,24.1z M1.9,24.1c0,12.3,9.9,22.2,22.2,22.2l0,0c12.3,0,22.2-9.9,22.2-22.2l0,0
		c0-12.3-9.9-22.2-22.2-22.2l0,0C11.8,1.9,1.9,11.8,1.9,24.1L1.9,24.1z"/>
	<g>
		<path fill="#FFFFFF" d="M13.3,34.9c-0.4-0.4-0.4-0.9,0-1.3l0,0l20.3-20.3c0.4-0.4,0.9-0.4,1.3,0l0,0c0.4,0.4,0.4,0.9,0,1.3l0,0
			L14.6,34.9c-0.2,0.2-0.4,0.3-0.7,0.3l0,0C13.7,35.1,13.5,35.1,13.3,34.9L13.3,34.9z"/>
		<path fill="#FFFFFF" d="M33.6,34.9L13.3,14.6c-0.4-0.4-0.4-0.9,0-1.3l0,0c0.4-0.4,0.9-0.4,1.3,0l0,0l20.3,20.3
			c0.4,0.4,0.4,0.9,0,1.3l0,0c-0.2,0.2-0.4,0.3-0.7,0.3l0,0C34,35.1,33.7,35.1,33.6,34.9L33.6,34.9z"/>
	</g>
</g>
</svg>
