<?xml version="1.0" encoding="utf-8"?>
<!-- Generator: Adobe Illustrator 16.0.0, SVG Export Plug-In . SVG Version: 6.00 Build 0)  -->
<!DOCTYPE svg PUBLIC "-//W3C//DTD SVG 1.1//EN" "http://www.w3.org/Graphics/SVG/1.1/DTD/svg11.dtd">
<svg version="1.1" id="Capa_1" xmlns="http://www.w3.org/2000/svg" xmlns:xlink="http://www.w3.org/1999/xlink" x="0px" y="0px"
	 width="130px" height="108px" viewBox="0 0 130 108" enable-background="new 0 0 130 108" xml:space="preserve">
<g>
	<path fill="none" stroke="#FFFFFF" stroke-width="3" stroke-miterlimit="10" d="M65.429,5.009
		C32.138,5.009,5.15,31.997,5.15,65.288c0,0.842,0.029,1.679,0.063,2.514h120.43c0.034-0.835,0.062-1.672,0.062-2.514
		C125.704,31.997,98.72,5.009,65.429,5.009z"/>
	<path fill="none" stroke="#FFFFFF" stroke-miterlimit="10" d="M57.197,47.158c-1.827-1.647-2.973-4.032-2.973-6.685V23.442
		c0-4.972,4.028-9,9-9h2.163c4.972,0,9,4.028,9,9v17.031c0,2.485-1.007,4.735-2.636,6.364"/>
	<path fill="#FFFFFF" d="M65.307,25.218c0,0.512-0.414,0.926-0.926,0.926l0,0c-0.513,0-0.927-0.414-0.927-0.926v-5.152
		c0-0.513,0.414-0.926,0.927-0.926l0,0c0.512,0,0.926,0.413,0.926,0.926V25.218z"/>
	<rect x="60.24" y="39.9" fill="#FFFFFF" width="8.758" height="1.3"/>
	<rect x="60.24" y="42.856" fill="#FFFFFF" width="8.758" height="2.922"/>
	<polygon fill="#FFFFFF" points="68.998,53.019 68.998,47.092 60.24,47.092 60.24,53.019 57.824,53.019 64.72,57.696 71.615,53.019 
			"/>
</g>
<g>
</g>
<g>
</g>
<g>
</g>
<g>
</g>
<g>
</g>
<g>
</g>
</svg>
